<svg id="Grupo_1016994" data-name="Grupo 1016994" xmlns="http://www.w3.org/2000/svg" xmlns:xlink="http://www.w3.org/1999/xlink" width="376.107" height="349.718" viewBox="0 0 376.107 349.718">
  <defs>
    <clipPath id="clip-path">
      <rect id="Rectángulo_349930" data-name="Rectángulo 349930" width="376.107" height="349.718" fill="none"/>
    </clipPath>
  </defs>
  <g id="Grupo_1016993" data-name="Grupo 1016993" clip-path="url(#clip-path)">
    <path id="Trazado_717155" data-name="Trazado 717155" d="M337.813,399.636H7.743a7.743,7.743,0,0,1,0-15.487h330.07a7.743,7.743,0,0,1,0,15.487" transform="translate(0 -49.918)" fill="#e6edff"/>
    <path id="Trazado_717156" data-name="Trazado 717156" d="M341.88,203.3c-.14-.084-.281-.167-.423-.249-10.014-5.83-21.817-8.076-33.2-10.883-10.569-2.608-22.44-6.112-30.557-13.816-9.866-9.364-8.492-22.262-4.7-33.989,3.982-12.306,7.742-24.7,5.98-37.764a73,73,0,0,0-19.36-40.428C243.1,48.842,217.5,39.653,192.968,42.254c-32.917,3.489-59.949,26.182-80.47,50.763-13.466,16.13-21.416,34.446-36.775,49.764-15.183,15.14-32.241,28.784-45.021,45.94-17.012,22.836-25.294,51.958-19.773,79.4S36.621,320.6,64.244,330.507c17.593,6.309,36.888,6.438,55.7,6.487,39.079.1,78.212.2,117.165-2.762,25.636-1.951,51.613-5.347,74.968-15.529s44.03-28.057,51.687-51.271c7.609-23.063-.308-51.263-21.889-64.131" transform="translate(-1.199 -5.434)" fill="#01d8d1"/>
    <path id="Trazado_717157" data-name="Trazado 717157" d="M26.726,163.458a13.036,13.036,0,0,0-3.357-5.759l-2.641-2.04a12.989,12.989,0,0,0-6.587-1.782H13.5A9.829,9.829,0,0,0,8.468,155a9.775,9.775,0,0,0-4.2,2.7,9.785,9.785,0,0,0-2.7,4.2,9.831,9.831,0,0,0-1.124,5.029q.234,1.734.466,3.469a13.04,13.04,0,0,0,3.357,5.759L6.909,178.2a12.993,12.993,0,0,0,6.586,1.782h.646a9.839,9.839,0,0,0,5.028-1.124,9.775,9.775,0,0,0,4.2-2.7,9.78,9.78,0,0,0,2.7-4.2,9.83,9.83,0,0,0,1.124-5.028q-.234-1.736-.466-3.47" transform="translate(-0.057 -19.995)" fill="#e6edff"/>
    <path id="Trazado_717158" data-name="Trazado 717158" d="M423.857,145.5a28.2,28.2,0,1,1-28.2-28.2,28.2,28.2,0,0,1,28.2,28.2" transform="translate(-47.749 -15.243)" fill="#005d95"/>
    <path id="Trazado_717159" data-name="Trazado 717159" d="M276.348.2a18.815,18.815,0,0,0-3.506,1.054,3.129,3.129,0,0,1,.2.259,3.129,3.129,0,0,1-5.306,3.319,3.225,3.225,0,0,1-.158-.321,19.042,19.042,0,0,0-2.522,2.673,3.024,3.024,0,0,1,.325.132,3.129,3.129,0,0,1-2.936,5.527,3.217,3.217,0,0,1-.331-.221,18.842,18.842,0,0,0-.856,3.6,3.179,3.179,0,0,1,.388-.053,3.13,3.13,0,1,1-.223,6.225,18.807,18.807,0,0,0,1.066,3.584,3.129,3.129,0,1,1,3.237,5.246,19.035,19.035,0,0,0,2.735,2.585,3.124,3.124,0,1,1,5.708,2.494,3.22,3.22,0,0,1-.285.426,18.8,18.8,0,0,0,3.682.863,3.037,3.037,0,0,1-.068-.491,3.129,3.129,0,0,1,6.254-.222,3.068,3.068,0,0,1-.034.517,18.87,18.87,0,0,0,3.62-1.1,3.124,3.124,0,1,1,5-3.71,3.215,3.215,0,0,1,.22.446,19.047,19.047,0,0,0,2.567-2.755,3.043,3.043,0,0,1-.431-.176,3.13,3.13,0,1,1,3.32-5.269,18.876,18.876,0,0,0,.834-3.644,3.022,3.022,0,0,1-.419.057,3.128,3.128,0,1,1-.221-6.253,3.078,3.078,0,0,1,.412.027,18.822,18.822,0,0,0-1.086-3.542,3.425,3.425,0,0,1-.3.232,3.132,3.132,0,1,1-2.985-5.47,19,19,0,0,0-2.689-2.507,2.862,2.862,0,0,1-.129.314,3.129,3.129,0,1,1-5.527-2.935A3.147,3.147,0,0,1,286.1.826,18.79,18.79,0,0,0,282.536,0a3.144,3.144,0,0,1,.044.316,3.129,3.129,0,0,1-6.254.221,3.169,3.169,0,0,1,.022-.34m3.3,7.727a10.88,10.88,0,1,1-10.488,11.258A10.88,10.88,0,0,1,279.647,7.924" transform="translate(-33.949)" fill="#b3e5fc"/>
    <path id="Trazado_717160" data-name="Trazado 717160" d="M77.593,87.047c0-17.852-15.771-32.323-35.223-32.323S7.146,69.195,7.146,87.047s15.771,32.323,35.224,32.323S77.593,104.9,77.593,87.047" transform="translate(-0.929 -7.111)" fill="#e6edff"/>
    <path id="Trazado_717161" data-name="Trazado 717161" d="M42.325,91.134,14.854,82.341a24.72,24.72,0,0,0-1.624,8.793c0,14.646,13.133,26.7,29.095,26.7a31.092,31.092,0,0,0,14.97-3.806Z" transform="translate(-1.719 -10.7)" fill="#005d95"/>
    <path id="Trazado_717162" data-name="Trazado 717162" d="M48.4,91.874,63.565,114.66a27.89,27.89,0,0,0,10.211-9.722A25.007,25.007,0,0,0,77.5,91.874Z" transform="translate(-6.29 -11.939)" fill="#bfd2ff"/>
    <path id="Trazado_717163" data-name="Trazado 717163" d="M48.594,87.461l29.092-.369a24.87,24.87,0,0,0-2.534-10.534,26.921,26.921,0,0,0-6.869-8.754Z" transform="translate(-6.315 -8.811)" fill="#fefeff"/>
    <rect id="Rectángulo_349909" data-name="Rectángulo 349909" width="10.533" height="25.319" transform="translate(115.26 48.321)" fill="#005d95"/>
    <rect id="Rectángulo_349910" data-name="Rectángulo 349910" width="10.533" height="37.708" transform="translate(131.543 35.931)" fill="#005d95"/>
    <rect id="Rectángulo_349911" data-name="Rectángulo 349911" width="10.533" height="54.808" transform="translate(147.827 18.831)" fill="#005d95"/>
    <rect id="Rectángulo_349912" data-name="Rectángulo 349912" width="10.533" height="30.836" transform="translate(164.11 42.802)" fill="#005d95"/>
    <path id="Trazado_717164" data-name="Trazado 717164" d="M125.987,22.251V76.3h71.984" transform="translate(-16.371 -2.891)" fill="none" stroke="#005d95" stroke-miterlimit="10" stroke-width="1"/>
    <path id="Trazado_717165" data-name="Trazado 717165" d="M307.493,40.9a37,37,0,0,0-6.9,2.07,6.064,6.064,0,0,1,.4.512,6.157,6.157,0,1,1-10.743,5.895,37.488,37.488,0,0,0-4.959,5.254,5.963,5.963,0,0,1,.637.26,6.152,6.152,0,0,1-5.77,10.866,6.034,6.034,0,0,1-.65-.434,36.946,36.946,0,0,0-1.684,7.085,5.952,5.952,0,0,1,.762-.1,6.152,6.152,0,1,1,.435,12.3,6.033,6.033,0,0,1-.873-.057,37.043,37.043,0,0,0,2.1,7.047,6.151,6.151,0,1,1,6.365,10.315,37.54,37.54,0,0,0,5.38,5.082,6.045,6.045,0,0,1,.355-.868,6.152,6.152,0,1,1,10.866,5.771,6.241,6.241,0,0,1-.559.838,36.981,36.981,0,0,0,7.238,1.7,6.142,6.142,0,1,1,12.163-1.4,6.113,6.113,0,0,1-.066,1.014,37.067,37.067,0,0,0,7.117-2.159,6.153,6.153,0,1,1,10.268-6.417,37.5,37.5,0,0,0,5.046-5.415,6.233,6.233,0,0,1-.846-.345A6.154,6.154,0,1,1,350.1,89.336a36.95,36.95,0,0,0,1.638-7.164,5.961,5.961,0,0,1-.824.112,6.155,6.155,0,1,1,.376-12.243,36.987,36.987,0,0,0-2.135-6.964,5.994,5.994,0,0,1-.589.456,6.151,6.151,0,0,1-6.525-10.43,6.3,6.3,0,0,1,.657-.325,37.412,37.412,0,0,0-5.288-4.928,5.807,5.807,0,0,1-.252.619A6.152,6.152,0,0,1,326.292,42.7a6.059,6.059,0,0,1,.378-.567,37.005,37.005,0,0,0-7.01-1.624,5.82,5.82,0,0,1,.084.621,6.151,6.151,0,1,1-12.295.436,5.87,5.87,0,0,1,.044-.669m6.356,11.516a25.069,25.069,0,1,1-24.167,25.941,25.07,25.07,0,0,1,24.167-25.941" transform="translate(-36.102 -5.264)" fill="#005d95"/>
    <path id="Trazado_717166" data-name="Trazado 717166" d="M267.122,74.76c-.756-.552-1.7-1.02-1.987-1.91-.471-1.434,1.066-2.925.686-4.386-.318-1.227-1.775-1.723-3.028-1.91s-2.691-.36-3.407-1.406c-.6-.87-.456-2.023-.6-3.068a5.622,5.622,0,0,0-3.945-4.557c-2.178-.618-4.075,1.356-5.893,2.15a6.26,6.26,0,0,0-3.64,4.7,14.992,14.992,0,0,0,.326,6.216,44.689,44.689,0,0,1,1.194,6.151,18.061,18.061,0,0,1-.984,6.564,6.86,6.86,0,0,0,.269,4.948c.789,1.352,2.386,1.983,3.89,2.416a21.249,21.249,0,0,0,9,.844,12.121,12.121,0,0,0,7.456-3.945,9.767,9.767,0,0,0,2.965-4.086,7.706,7.706,0,0,0-2.307-8.719" transform="translate(-31.851 -7.46)" fill="#485070"/>
    <path id="Trazado_717167" data-name="Trazado 717167" d="M252.567,64.852a4.946,4.946,0,0,1-.457,3.811c-.216.374-.558.757-.988.726-.5-.035-.773-.579-.929-1.05a16.993,16.993,0,0,1-.814-4.019c-.066-.837.09-2.348,1.28-2.059.922.224,1.673,1.784,1.909,2.59" transform="translate(-32.404 -8.086)" fill="#ff6ea1"/>
    <path id="Trazado_717168" data-name="Trazado 717168" d="M249.535,88.1c-.876,3.056-5.846,4.532-8.706,1.009-.351-.432-.676-.888-.992-1.347-3.084.606-7.67,1.949-9.731,4.451a7.852,7.852,0,0,0-1.285,2.841,113.144,113.144,0,0,0-2.674,11.119,2.523,2.523,0,0,0-.012,1.292,2.876,2.876,0,0,0,1.068,1.171c4.261,3.359,5.38,8.784,6.783,13.689,2.128,7.442,3.11,17.738,5.237,25.181,6.973.536,36.019-6.054,39.514-9.114-5.012-9.024-9.068-25.3-10.657-36.632-.673-4.8-2.557-9.37-4.393-13.864-.43-1.052-.818-3.48-1.614-4.161-1.061-.907-11.183.626-12.255.661q.057.9.082,1.794a6.163,6.163,0,0,1-.365,1.909" transform="translate(-29.375 -10.843)" fill="#ffee58"/>
    <path id="Trazado_717169" data-name="Trazado 717169" d="M240.938,82.014a13.424,13.424,0,0,0-1.369-3.006,8.592,8.592,0,0,0,4.766-1.621,14.551,14.551,0,0,0,1.918-1.689c.212-.217.536-.768.875-1.164-.459.535.672,3.551.9,4.167a11.054,11.054,0,0,0,2.062,3.589c.915,1.015,1.515,1.187,1.676,2.622a10.541,10.541,0,0,1-.665,4.6,4.389,4.389,0,0,1-1.588,2.286,4.06,4.06,0,0,1-3.2.284c-1.8-.472-4.273-1.974-4.918-3.856-.338-.987.042-1.492.131-2.5a9.769,9.769,0,0,0-.59-3.711" transform="translate(-31.131 -9.685)" fill="#ffc1a6"/>
    <path id="Trazado_717170" data-name="Trazado 717170" d="M241.546,85.231c0-.1,0-.2-.009-.3a13.978,13.978,0,0,0-1.969-5.918,8.592,8.592,0,0,0,4.767-1.621,14.606,14.606,0,0,0,1.918-1.689c.212-.217.535-.768.875-1.164.051.559.129,1.113.229,1.659a11.689,11.689,0,0,1-5.812,9.037" transform="translate(-31.131 -9.685)" fill="#e3856d"/>
    <path id="Trazado_717171" data-name="Trazado 717171" d="M228.581,70.7a13.348,13.348,0,0,0,4.577,7.171A5.575,5.575,0,0,0,235.21,79a2.609,2.609,0,0,0,2.246-.382,4.056,4.056,0,0,0,1.09-3.068,25.8,25.8,0,0,0-.2-6.271,9.955,9.955,0,0,0-2.816-5.508c-1.26-1.164-4.717-2.855-6.237-1.249-1.653,1.744-1.226,6.09-.713,8.176" transform="translate(-29.643 -8.039)" fill="#485070"/>
    <path id="Trazado_717172" data-name="Trazado 717172" d="M230.71,65.964c.3-1.971,2.527-.507,4.335-1.343,1.574-.728,2.764-1.357,4.54-1.232a6.5,6.5,0,0,1,4.255,1.888c.3.312.57.632.823.954a22.518,22.518,0,0,1,1.834,3.632l.018.085a12.246,12.246,0,0,1-1.634,6.977,6.394,6.394,0,0,1-5.547,3.351A5.466,5.466,0,0,1,235.8,78.9a12.147,12.147,0,0,1-2.6-3.429c-1.062-1.921-2.824-7.34-2.5-9.511" transform="translate(-29.975 -8.235)" fill="#ffc1a6"/>
    <path id="Trazado_717173" data-name="Trazado 717173" d="M239.113,68.647a29.22,29.22,0,0,1-6.344-1.8,7.136,7.136,0,0,1-3.416-3.385c-.661-1.525-.2-2.592.666-3.91a9.476,9.476,0,0,1,5.42-3.841c2.185-.575,4.918.272,7.013,1a8.545,8.545,0,0,1,3.83,2.49c1.706,2.061,2.286,5.613,2.153,8.218a14.113,14.113,0,0,1-.658,3.17c-.247.867-.69,1.852-1.7,1.978-.693.086-2.079-1.888-2.786-2.328a12.966,12.966,0,0,0-3.639-1.463q-.27-.069-.541-.133" transform="translate(-29.762 -7.215)" fill="#485070"/>
    <path id="Trazado_717174" data-name="Trazado 717174" d="M236.822,73.221a.631.631,0,1,0,.564-.692.631.631,0,0,0-.564.692" transform="translate(-30.773 -9.424)" fill="#485070"/>
    <path id="Trazado_717175" data-name="Trazado 717175" d="M237.714,71.242a1.946,1.946,0,0,0-1.26.165" transform="translate(-30.726 -9.252)" fill="none" stroke="#485070" stroke-linecap="round" stroke-miterlimit="10" stroke-width="0.75"/>
    <path id="Trazado_717176" data-name="Trazado 717176" d="M232.335,74.429a.631.631,0,1,0,.564-.692.631.631,0,0,0-.564.692" transform="translate(-30.19 -9.581)" fill="#485070"/>
    <path id="Trazado_717177" data-name="Trazado 717177" d="M233.227,72.449a1.946,1.946,0,0,0-1.26.165" transform="translate(-30.143 -9.409)" fill="none" stroke="#485070" stroke-linecap="round" stroke-miterlimit="10" stroke-width="0.75"/>
    <path id="Trazado_717178" data-name="Trazado 717178" d="M234.9,74.616a2.193,2.193,0,0,1-.251,1.616.644.644,0,0,0-.144.4.377.377,0,0,0,.333.283,1.089,1.089,0,0,0,.46-.069" transform="translate(-30.472 -9.696)" fill="none" stroke="#485070" stroke-linecap="round" stroke-miterlimit="10" stroke-width="0.75"/>
    <path id="Trazado_717179" data-name="Trazado 717179" d="M238.3,78.242a2.527,2.527,0,0,1-2.115.78" transform="translate(-30.691 -10.167)" fill="none" stroke="#485070" stroke-linecap="round" stroke-miterlimit="10" stroke-width="0.75"/>
    <path id="Trazado_717180" data-name="Trazado 717180" d="M248.361,70.444a2.316,2.316,0,1,1-2.54-2.068,2.316,2.316,0,0,1,2.54,2.068" transform="translate(-31.673 -8.884)" fill="#ffc1a6"/>
    <path id="Trazado_717181" data-name="Trazado 717181" d="M246.65,69.839a.995.995,0,0,0-.927,1.418.68.68,0,0,1,1.187.439" transform="translate(-31.919 -9.075)" fill="none" stroke="#485070" stroke-linecap="round" stroke-linejoin="round" stroke-width="0.75"/>
    <path id="Trazado_717182" data-name="Trazado 717182" d="M282.232,361.97H98.692a7.6,7.6,0,0,1-7.6-7.6V251.385a7.6,7.6,0,0,1,7.6-7.6h183.54a7.6,7.6,0,0,1,7.6,7.6v102.98a7.6,7.6,0,0,1-7.6,7.6" transform="translate(-11.836 -31.678)" fill="#dce4ff"/>
    <rect id="Rectángulo_349913" data-name="Rectángulo 349913" width="198.748" height="118.189" rx="8.74" transform="translate(79.251 212.102)" fill="none" stroke="#485070" stroke-miterlimit="10" stroke-width="0.75"/>
    <path id="Trazado_717183" data-name="Trazado 717183" d="M302.352,379.794H74.178a9.487,9.487,0,0,0,9.487,9.487h209.2a9.487,9.487,0,0,0,9.487-9.487" transform="translate(-9.639 -49.353)" fill="#bac5ef"/>
    <path id="Trazado_717184" data-name="Trazado 717184" d="M302.352,379.794H74.178a9.487,9.487,0,0,0,9.487,9.487h209.2A9.487,9.487,0,0,0,302.352,379.794Z" transform="translate(-9.639 -49.353)" fill="none" stroke="#485070" stroke-miterlimit="10" stroke-width="0.75"/>
    <path id="Trazado_717185" data-name="Trazado 717185" d="M279.837,358.952H102.512a5.942,5.942,0,0,1-5.942-5.942V255.057a5.942,5.942,0,0,1,5.942-5.942H279.837a5.943,5.943,0,0,1,5.942,5.942V353.01a5.943,5.943,0,0,1-5.942,5.942" transform="translate(-12.549 -32.371)" fill="#545d78"/>
    <path id="Trazado_717186" data-name="Trazado 717186" d="M207.9,246.114a1.473,1.473,0,1,1-1.473-1.473,1.473,1.473,0,0,1,1.473,1.473" transform="translate(-26.633 -31.79)" fill="#333"/>
    <rect id="Rectángulo_349914" data-name="Rectángulo 349914" width="150.191" height="220.678" transform="translate(103.53 105.266)" fill="#fefeff"/>
    <path id="Trazado_717187" data-name="Trazado 717187" d="M213.325,349.68l-19.986-24.9-17.38,22.271-15.066-16.28,1.969-1.823,12.923,13.964,17.525-22.455,19.464,24.25,11.3-23.067,23.849-4.218.467,2.643-22.506,3.98Z" transform="translate(-20.907 -41.248)" fill="#e6edff"/>
    <path id="Trazado_717188" data-name="Trazado 717188" d="M264.116,318.427a3.445,3.445,0,1,0-3.445,3.445,3.445,3.445,0,0,0,3.445-3.445" transform="translate(-33.425 -40.93)" fill="#ffee58"/>
    <path id="Trazado_717189" data-name="Trazado 717189" d="M223.934,351.126a3.445,3.445,0,1,0-3.445,3.445,3.445,3.445,0,0,0,3.445-3.445" transform="translate(-28.204 -45.18)" fill="#ffee58"/>
    <path id="Trazado_717190" data-name="Trazado 717190" d="M237.015,323.138a3.445,3.445,0,1,0-3.445,3.445,3.444,3.444,0,0,0,3.445-3.445" transform="translate(-29.904 -41.543)" fill="#7cb342"/>
    <path id="Trazado_717191" data-name="Trazado 717191" d="M200.947,323.138a3.445,3.445,0,1,0-3.445,3.445,3.445,3.445,0,0,0,3.445-3.445" transform="translate(-25.217 -41.543)" fill="#01d8d1"/>
    <path id="Trazado_717192" data-name="Trazado 717192" d="M181.511,348.111a3.445,3.445,0,1,0-3.445,3.445,3.445,3.445,0,0,0,3.445-3.445" transform="translate(-22.691 -44.788)" fill="#7cb342"/>
    <path id="Trazado_717193" data-name="Trazado 717193" d="M165.813,331.954a3.445,3.445,0,1,0-3.445,3.445,3.445,3.445,0,0,0,3.445-3.445" transform="translate(-20.651 -42.688)" fill="#ffee58"/>
    <path id="Trazado_717194" data-name="Trazado 717194" d="M145.463,307.455V354.43H250.286" transform="translate(-18.902 -39.952)" fill="none" stroke="#485070" stroke-miterlimit="10" stroke-width="0.75"/>
    <rect id="Rectángulo_349915" data-name="Rectángulo 349915" width="15.998" height="37.162" transform="translate(134.901 192.517)" fill="#7cb342"/>
    <rect id="Rectángulo_349916" data-name="Rectángulo 349916" width="15.999" height="55.349" transform="translate(159.632 174.33)" fill="#01d8d1"/>
    <path id="Trazado_717195" data-name="Trazado 717195" d="M151.619,203.407a147.488,147.488,0,0,0,50.287-37.649" transform="translate(-19.702 -21.539)" fill="none" stroke="#485070" stroke-linecap="round" stroke-miterlimit="10" stroke-width="0.75"/>
    <path id="Trazado_717196" data-name="Trazado 717196" d="M210.639,163.781l-1.138,3.243-.472-1.427-1.473-.3Z" transform="translate(-26.971 -21.283)" fill="#485070"/>
    <rect id="Rectángulo_349917" data-name="Rectángulo 349917" width="15.998" height="80.446" transform="translate(184.365 149.233)" fill="#ffee58"/>
    <rect id="Rectángulo_349918" data-name="Rectángulo 349918" width="15.998" height="45.262" transform="translate(209.098 184.417)" fill="#005d95"/>
    <path id="Trazado_717197" data-name="Trazado 717197" d="M144.227,173.244v79.068H251.118" transform="translate(-18.742 -22.512)" fill="none" stroke="#485070" stroke-miterlimit="10" stroke-width="0.75"/>
    <rect id="Rectángulo_349919" data-name="Rectángulo 349919" width="107.338" height="5.406" transform="translate(124.875 237.433)" fill="#e6edff"/>
    <rect id="Rectángulo_349920" data-name="Rectángulo 349920" width="64.505" height="5.406" transform="translate(146.163 130.429)" fill="#e6edff"/>
    <rect id="Rectángulo_349921" data-name="Rectángulo 349921" width="107.338" height="5.406" transform="translate(124.748 120.987)" fill="#e6edff"/>
    <rect id="Rectángulo_349922" data-name="Rectángulo 349922" width="107.338" height="5.406" transform="translate(124.875 247.343)" fill="#e6edff"/>
    <rect id="Rectángulo_349923" data-name="Rectángulo 349923" width="107.338" height="5.406" transform="translate(124.875 257.253)" fill="#e6edff"/>
    <path id="Trazado_717198" data-name="Trazado 717198" d="M261.483,83.927c-1.251.295-2.493.644-3.726.992a1.463,1.463,0,0,0-.586.264,1.4,1.4,0,0,0-.365.8,16.12,16.12,0,0,0,2.824,12.3c.766.955,1.673,1.786,2.5,2.688s1.905,1.691,2.638,2.624a13.167,13.167,0,0,1,1.607,4.145,40.464,40.464,0,0,1,1.67,9.182c.132,2.067.23,4.418,1.816,5.75,1.57,1.321,4.062.983,5.684-.273a10.922,10.922,0,0,0,3.232-5.139A41.172,41.172,0,0,0,281.3,101.5c-.237-4.863-1.725-10.72-4.867-14.566-2.1-2.575-5.567-3.726-8.892-3.777a24.761,24.761,0,0,0-6.054.771" transform="translate(-33.337 -10.805)" fill="#ffee58"/>
    <path id="Trazado_717199" data-name="Trazado 717199" d="M265.64,114.731q1.732-9.37,3.465-18.74" transform="translate(-34.519 -12.474)" fill="none" stroke="#485070" stroke-miterlimit="10" stroke-width="0.75"/>
    <path id="Trazado_717200" data-name="Trazado 717200" d="M267.027,97.34l1.2,3.061" transform="translate(-34.699 -12.649)" fill="none" stroke="#485070" stroke-miterlimit="10" stroke-width="0.75"/>
    <path id="Trazado_717201" data-name="Trazado 717201" d="M238.146,130.954a4.377,4.377,0,0,1,1.383-.258c4.221-.091,8.343-.528,12.6-.955,2.85-.287,5.7-.451,8.545-.492,2.291-.033,4.944.465,7.175-.164,2.362-.667,3.969-1.329,5.151-3.284a30.664,30.664,0,0,0,1.545-2.892,2.934,2.934,0,0,0,.4-1.772c-.184-.858-1.132-1.379-2.062-1.721-1.979-.727-3.2-1.86-5.474-2.093a23.366,23.366,0,0,0-7.063.553c-4.526.949-9.056,1.342-13.5,2.663a119.2,119.2,0,0,0-14.562,5.7,15.2,15.2,0,0,0-4.787,2.893,5.007,5.007,0,0,0-.492,6.794,2.275,2.275,0,0,0,2.042.861c.833-.148,1.389-1.242.69-1.568,4.571,1.761,4.692-2.937,8.4-4.269" transform="translate(-29.355 -15.235)" fill="#ffc1a6"/>
    <path id="Trazado_717202" data-name="Trazado 717202" d="M223.526,133.792l.031-.279-.21.515.178-.236" transform="translate(-29.023 -17.349)" fill="#ff6ea1"/>
    <path id="Trazado_717203" data-name="Trazado 717203" d="M233.793,93a3.023,3.023,0,0,0-1.162-1.21c-1.475-.862-4.575.464-5.9,1.195a8.9,8.9,0,0,0-.832.514,21.593,21.593,0,0,0-4.228,3.74c-.425.466-.84.941-1.252,1.415-6.137,7.087-10.1,14.9-9.109,24.387.212,2.032.618,4.223,2.132,5.6a5.4,5.4,0,0,0,4.551,1.168,8.184,8.184,0,0,0,4.027-2.141l-.044.388c.076-.185.151-.37.226-.554,2.421-2.348,2.987-5.6,3.573-8.76l0-.022,5.771-14.166c.92-2.257,3.887-8.461,2.246-11.55" transform="translate(-27.439 -11.891)" fill="#ffee58"/>
    <path id="Trazado_717204" data-name="Trazado 717204" d="M224.055,167.32c2.648-4.327-2.179-5.043-2.881-8.908A4.153,4.153,0,0,1,221.16,157c.673-4.213.971-8.372,1.3-12.665q.334-4.312,1.046-8.568a52.52,52.52,0,0,0,1.155-6.024c-.048-.634-.118-1.269-.222-1.89a6.6,6.6,0,0,0-3.974-3.246A7.586,7.586,0,0,0,213.51,126a19.069,19.069,0,0,0-1.289,2.313,24.042,24.042,0,0,0-.515,6.345c.157,4.626-.26,9.184.3,13.774a111.774,111.774,0,0,0,3.242,15.218,14.192,14.192,0,0,0,2.117,5.132,5.273,5.273,0,0,0,6.926,1.351,2.412,2.412,0,0,0,1.261-1.924c0-.847-1.03-1.54-1.493-.886" transform="translate(-27.507 -16.15)" fill="#ffc1a6"/>
    <path id="Trazado_717205" data-name="Trazado 717205" d="M226.329,126.153a49.4,49.4,0,0,1,6.61-16" transform="translate(-29.41 -14.313)" fill="none" stroke="#485070" stroke-miterlimit="10" stroke-width="0.75"/>
    <path id="Trazado_717206" data-name="Trazado 717206" d="M231.372,113.925l2.265-1.46" transform="translate(-30.066 -14.614)" fill="none" stroke="#485070" stroke-miterlimit="10" stroke-width="0.75"/>
    <path id="Trazado_717207" data-name="Trazado 717207" d="M74.9,238.491c3.238,3.7,4.566,8.692,5.667,13.367l4.268,18.124a21.522,21.522,0,0,1,.711,4.3,31.562,31.562,0,0,1-1.153,7.563c-.7,2.889-2.433,2.711-5.006,2.455-4.07-.4-9.607-1.636-12.354-4.955-1.307-1.577-1.726-3.686-2.1-5.7q-.775-4.153-1.552-8.306c-2.114-11.311-4.228-22.977-1.836-34.233a21.465,21.465,0,0,1,13.359,7.38" transform="translate(-7.859 -30.032)" fill="#fff"/>
    <path id="Trazado_717208" data-name="Trazado 717208" d="M81.907,280.467c1.8.854,3.522,1.952,5.254,2.995,2.751,1.656,5.622,2.821,8.44,4.36a8.4,8.4,0,0,0,2.493,1.024c1.508.266,3.1-.3,4.617-.1,2.031.272,3.761,2.083,4.5,4.476,1.239,4.029-1.663,2.529-3.585,2.177l-4.5-.826a134.042,134.042,0,0,0-17.591-1.915c-3.282-.17-9.062-.094-11.517-3.083-1.193-1.453-2.513-7.792-.942-9.365a2.409,2.409,0,0,1,1.008-.546,15.276,15.276,0,0,1,9.427-.146,18.084,18.084,0,0,1,2.4.948" transform="translate(-8.883 -36.234)" fill="#9c5240"/>
    <path id="Trazado_717209" data-name="Trazado 717209" d="M72.373,333.256H14.824a3.421,3.421,0,0,1,0-6.842H72.373a3.421,3.421,0,0,1,0,6.842" transform="translate(-1.482 -42.416)" fill="#485070"/>
    <path id="Trazado_717210" data-name="Trazado 717210" d="M8.355,278.563v-20.2a5.511,5.511,0,0,1,5.512-5.512H58.872a5.511,5.511,0,0,1,5.512,5.512v20.2a5.511,5.511,0,0,1-5.512,5.512H13.867a5.511,5.511,0,0,1-5.512-5.512" transform="translate(-1.086 -32.857)" fill="#485070"/>
    <rect id="Rectángulo_349924" data-name="Rectángulo 349924" width="3.48" height="41.536" transform="translate(14.442 246.142)" fill="#485070"/>
    <rect id="Rectángulo_349925" data-name="Rectángulo 349925" width="3.48" height="41.536" transform="translate(51.984 246.142)" fill="#485070"/>
    <rect id="Rectángulo_349926" data-name="Rectángulo 349926" width="3.48" height="50.454" transform="translate(38.574 289.12)" fill="#485070"/>
    <rect id="Rectángulo_349927" data-name="Rectángulo 349927" width="3.48" height="50.454" transform="translate(12.415 289.12)" fill="#485070"/>
    <rect id="Rectángulo_349928" data-name="Rectángulo 349928" width="3.48" height="50.454" transform="translate(68.2 289.12)" fill="#485070"/>
    <rect id="Rectángulo_349929" data-name="Rectángulo 349929" width="3.48" height="50.454" transform="translate(50.343 289.12)" fill="#485070"/>
    <path id="Trazado_717211" data-name="Trazado 717211" d="M120.034,352.653c-1.973.414-3.329.514-5.66.842-3.39.478-6.791.874-10.2,1.168.889,6.133,1.7,11.526,1.9,12.611.891,4.7.4,16.468,2.5,20.934a32.964,32.964,0,0,0,7.147-.3c1.267-11.774,2.307-23.588,4.312-35.257" transform="translate(-13.537 -45.826)" fill="#cf9378"/>
    <path id="Trazado_717212" data-name="Trazado 717212" d="M94.187,355.349a14.783,14.783,0,0,0,.22,2.879,15.8,15.8,0,0,0,10.631,4.509,18.312,18.312,0,0,0,6.546-.913q.375-6.892.819-13.78c.382-5.976.692-11.95,1.436-17.9a86.338,86.338,0,0,0,.087-16.066c-1.523-5.838-5.4-7.432-5.4-7.432a153.812,153.812,0,0,0-19.145-6.113c-10.192-2.237-20.552-3.9-30.8-6.13-4.926-1.073-13.168-.874-15.711,4.512-2.943,6.231,2.923,14.515,7.649,18.114,4.889,3.722,10.923,5.606,16.926,6.914a109.992,109.992,0,0,0,25.9,2.492c-.278,0,.83,26.753.842,28.908" transform="translate(-5.468 -38.19)" fill="#005d95"/>
    <path id="Trazado_717213" data-name="Trazado 717213" d="M93.331,326.489c.017-.017.035-.03.05-.047-1.893-1.881-3.682-3.873-5.575-5.752-2.819-2.8-5.556-5.681-8.356-8.5-5.562-5.6-11.153-11.168-16.594-16.884q-2.142-.437-4.277-.9c-4.926-1.074-13.168-.875-15.711,4.511-2.943,6.232,2.923,14.515,7.65,18.114,4.888,3.723,10.922,5.607,16.925,6.915a109.952,109.952,0,0,0,25.9,2.491c-.005,0-.01.029-.014.05" transform="translate(-5.468 -38.19)" fill="#485070"/>
    <path id="Trazado_717214" data-name="Trazado 717214" d="M101.076,331.954c.008-2.723.378-6.049.387-8.773" transform="translate(-13.134 -41.996)" fill="none" stroke="#485070" stroke-miterlimit="10" stroke-width="0.398"/>
    <path id="Trazado_717215" data-name="Trazado 717215" d="M105.437,304.646a127.25,127.25,0,0,0-24.643-5.961" transform="translate(-10.499 -38.813)" fill="none" stroke="#485070" stroke-miterlimit="10" stroke-width="0.75"/>
    <path id="Trazado_717216" data-name="Trazado 717216" d="M131.128,399.884h-22.5a.836.836,0,0,1-.836-.837v-1.689h23.335Z" transform="translate(-14.007 -51.635)" fill="#b3b3b3"/>
    <path id="Trazado_717217" data-name="Trazado 717217" d="M130.743,396.809a2.462,2.462,0,0,0,.22-.371,3.2,3.2,0,0,0-1.182-3.626,10.487,10.487,0,0,0-3.871-1.675,64.555,64.555,0,0,0-8.769-2.019c-.8-.109-9.292-.887-9.255-1.271l-.394,6.427a6.754,6.754,0,0,0-.01,2.535Z" transform="translate(-13.95 -50.399)" fill="#485070"/>
    <path id="Trazado_717218" data-name="Trazado 717218" d="M112.2,385.693a4.036,4.036,0,0,1,4.7-.129,5.021,5.021,0,0,1,2.072,4.354,1.19,1.19,0,0,1-.3.856,1.325,1.325,0,0,1-.886.225l-4.021.048c-.836.01-1.9.2-2.484-.548-1.026-1.326-.074-3.811.921-4.806" transform="translate(-14.403 -50.013)" fill="#485070"/>
    <path id="Trazado_717219" data-name="Trazado 717219" d="M122.286,390.014a1.848,1.848,0,0,0-1.87,1.162" transform="translate(-15.648 -50.679)" fill="none" stroke="#b3b3b3" stroke-linecap="round" stroke-miterlimit="10" stroke-width="0.75"/>
    <path id="Trazado_717220" data-name="Trazado 717220" d="M123.124,392.192a2.4,2.4,0,0,1,1.98-1.132" transform="translate(-15.999 -50.816)" fill="none" stroke="#b3b3b3" stroke-linecap="round" stroke-miterlimit="10" stroke-width="0.75"/>
    <path id="Trazado_717221" data-name="Trazado 717221" d="M126.515,392.6a1.359,1.359,0,0,1,1.233-.841" transform="translate(-16.44 -50.908)" fill="none" stroke="#b3b3b3" stroke-linecap="round" stroke-miterlimit="10" stroke-width="0.75"/>
    <path id="Trazado_717222" data-name="Trazado 717222" d="M76.615,348.841q-4.482.632-8.988,1.046c2.27,11.166,3.317,22.536,5.168,33.773,2.549-.01,4.874-.549,7.585-.49.515-3.4,1.554-23.607,3.153-35.457a57.009,57.009,0,0,1-6.919,1.128" transform="translate(-8.788 -45.184)" fill="#cf9378"/>
    <path id="Trazado_717223" data-name="Trazado 717223" d="M63.485,357.487c.618,2.515,1.337,4.057,3.815,5.041a14.332,14.332,0,0,0,6.8.954,11.372,11.372,0,0,0,5.608-2.6s3.2-47.672-.78-53.781C74.056,299.631,63.4,298.1,55.1,296.276c-7.273-1.6-14.631-2.9-21.973-4.329-1.791,6.8-.5,14.791,2.1,21.06l.04.1a14.438,14.438,0,0,0,12.1,8.708,108.9,108.9,0,0,0,11.7.365c-.05,0,2.21,26.308,4.421,35.311" transform="translate(-4.197 -37.937)" fill="#005d95"/>
    <path id="Trazado_717224" data-name="Trazado 717224" d="M63.135,327.343c.009-2.723.379-6.049.388-8.773" transform="translate(-8.204 -41.397)" fill="none" stroke="#485070" stroke-miterlimit="10" stroke-width="0.398"/>
    <path id="Trazado_717225" data-name="Trazado 717225" d="M96.207,399.464h-22.5a.836.836,0,0,1-.836-.837v-1.689H96.207Z" transform="translate(-9.469 -51.58)" fill="#b3b3b3"/>
    <path id="Trazado_717226" data-name="Trazado 717226" d="M95.822,396.389a2.461,2.461,0,0,0,.22-.371,3.2,3.2,0,0,0-1.182-3.626,10.484,10.484,0,0,0-3.872-1.675A64.527,64.527,0,0,0,82.22,388.7c-.8-.109-9.292-.887-9.255-1.271l-.394,6.427a6.754,6.754,0,0,0-.01,2.535Z" transform="translate(-9.412 -50.344)" fill="#485070"/>
    <path id="Trazado_717227" data-name="Trazado 717227" d="M77.281,385.273a4.036,4.036,0,0,1,4.7-.129A5.021,5.021,0,0,1,84.05,389.5a1.19,1.19,0,0,1-.3.856,1.325,1.325,0,0,1-.886.225l-4.021.048c-.836.01-1.9.2-2.484-.548-1.026-1.326-.074-3.811.921-4.806" transform="translate(-9.865 -49.958)" fill="#485070"/>
    <path id="Trazado_717228" data-name="Trazado 717228" d="M87.365,389.595a1.848,1.848,0,0,0-1.87,1.162" transform="translate(-11.11 -50.625)" fill="none" stroke="#b3b3b3" stroke-linecap="round" stroke-miterlimit="10" stroke-width="0.75"/>
    <path id="Trazado_717229" data-name="Trazado 717229" d="M88.2,391.772a2.4,2.4,0,0,1,1.98-1.132" transform="translate(-11.461 -50.762)" fill="none" stroke="#b3b3b3" stroke-linecap="round" stroke-miterlimit="10" stroke-width="0.75"/>
    <path id="Trazado_717230" data-name="Trazado 717230" d="M91.594,392.182a1.359,1.359,0,0,1,1.233-.841" transform="translate(-11.902 -50.853)" fill="none" stroke="#b3b3b3" stroke-linecap="round" stroke-miterlimit="10" stroke-width="0.75"/>
    <path id="Trazado_717231" data-name="Trazado 717231" d="M31.561,293.109q.308,1.644.617,3.29c3.786-1.991,8.314-1.575,12.592-1.582a58.026,58.026,0,0,0,26.975-6.739,36.226,36.226,0,0,1-1.008-6.911c-.013-2.383-1-4.692-1-7.082-.157-3.228-.031-6.462.127-9.687.3-6.109.714-12.287-.427-18.3a26.854,26.854,0,0,0-4.568-10.949,14.251,14.251,0,0,0-4.264-4.23c-1.769-.9-4.423-.6-6.413-.774a17.056,17.056,0,0,0-4.371-.01,14.635,14.635,0,0,0-4.953,2.09c-8.239,4.943-9.24,12.913-11.721,21.493-1.239,4.285-3.18,8.341-4.423,12.625a24.342,24.342,0,0,0-.921,7.376c.055,2.251.92,4.258,1.334,6.47q1.211,6.458,2.421,12.916" transform="translate(-3.612 -29.887)" fill="#fff"/>
    <path id="Trazado_717232" data-name="Trazado 717232" d="M58.911,239.09a7.932,7.932,0,0,0,5.551,1.858,3.477,3.477,0,0,0,1.954-.613,1.676,1.676,0,0,0,.626-1.838" transform="translate(-7.655 -30.992)" fill="none" stroke="#485070" stroke-linecap="round" stroke-miterlimit="10" stroke-width="0.398"/>
    <path id="Trazado_717233" data-name="Trazado 717233" d="M56.735,259.833A19.967,19.967,0,0,0,68.93,272.669" transform="translate(-7.372 -33.764)" fill="none" stroke="#485070" stroke-linecap="round" stroke-miterlimit="10" stroke-width="0.398"/>
    <path id="Trazado_717234" data-name="Trazado 717234" d="M62.872,265.059a9.251,9.251,0,0,0,6.014,3.233" transform="translate(-8.17 -34.443)" fill="none" stroke="#485070" stroke-linecap="round" stroke-miterlimit="10" stroke-width="0.398"/>
    <path id="Trazado_717235" data-name="Trazado 717235" d="M50.778,264.649a42.761,42.761,0,0,0,10.949,17.717" transform="translate(-6.598 -34.39)" fill="none" stroke="#485070" stroke-linecap="round" stroke-miterlimit="10" stroke-width="0.398"/>
    <path id="Trazado_717236" data-name="Trazado 717236" d="M72.575,238.8c2.366,4.073,2.4,6.39,2.928,9.983a76.077,76.077,0,0,1,.814,12.148c-.089,6.813-1.594,13.054-.072,19.812" transform="translate(-9.431 -31.031)" fill="none" stroke="#485070" stroke-miterlimit="10" stroke-width="0.398"/>
    <path id="Trazado_717237" data-name="Trazado 717237" d="M65.082,227.51a14.423,14.423,0,0,1,1.47-3.225,9.221,9.221,0,0,1-5.114-1.739,15.647,15.647,0,0,1-2.058-1.811c-.228-.232-.575-.824-.94-1.249-.378,4.1-1.9,7.95-5.4,10.289a13.623,13.623,0,0,0,5.278,5c1.822,1.056,6.362,3.1,6.463-.593.033-1.208-.446-2.324-.343-3.551a14.435,14.435,0,0,1,.642-3.124" transform="translate(-6.893 -28.521)" fill="#cf9378"/>
    <path id="Trazado_717238" data-name="Trazado 717238" d="M65.2,230.963c0-.109,0-.218.01-.328a14.993,14.993,0,0,1,2.112-6.35,9.22,9.22,0,0,1-5.115-1.738,15.716,15.716,0,0,1-2.058-1.812c-.228-.232-.575-.824-.94-1.249-.055.6-.138,1.195-.245,1.78a12.546,12.546,0,0,0,6.236,9.7" transform="translate(-7.662 -28.521)" fill="#9c5240"/>
    <path id="Trazado_717239" data-name="Trazado 717239" d="M33.706,238.491c-3.238,3.7-4.566,8.692-5.667,13.367l-4.268,18.123c-.493,2.093-1.284,4.956-.82,7.094a9.213,9.213,0,0,0,4.2,5.687c2.15,1.291,5.423,1.88,7.784.783,2.313-1.075,4.96-2.167,6.639-4.2,1.306-1.577,1.725-3.686,2.1-5.7q.775-4.153,1.552-8.306c2.114-11.311,4.228-22.977,1.836-34.233a21.465,21.465,0,0,0-13.359,7.38" transform="translate(-2.964 -30.032)" fill="#fff"/>
    <path id="Trazado_717240" data-name="Trazado 717240" d="M49.647,252.5c-4.7,1.225-4.283,7.246-4.709,10.959a109.151,109.151,0,0,1-3.128,16.248" transform="translate(-5.433 -32.811)" fill="none" stroke="#485070" stroke-miterlimit="10" stroke-width="0.398"/>
    <path id="Trazado_717241" data-name="Trazado 717241" d="M46.757,255.428a8.975,8.975,0,0,1,2.858-4.2" transform="translate(-6.076 -32.646)" fill="none" stroke="#485070" stroke-miterlimit="10" stroke-width="0.398"/>
    <path id="Trazado_717242" data-name="Trazado 717242" d="M40.985,281.863c2.523.552,5,1.358,7.476,2.107,3.933,1.189,7.917,1.876,11.912,2.939a14.1,14.1,0,0,0,3.462.607c2.019.019,3.969-.8,5.989-.842a8.14,8.14,0,0,1,6.8,3.69c2.471,3.776-1.624,2.765-4.2,2.728L66.4,293a232.4,232.4,0,0,0-23.3.952c-4.306.362-11.813,1.37-15.644-1.184-1.861-1.241-4.929-7.283-3.22-9.089a3.233,3.233,0,0,1,1.195-.7,25.771,25.771,0,0,1,12.236-1.667,30.346,30.346,0,0,1,3.321.549" transform="translate(-3.084 -36.537)" fill="#cf9378"/>
    <line id="Línea_3185" data-name="Línea 3185" x1="0.144" transform="translate(95.429 248.301)" fill="#dc8b77"/>
    <path id="Trazado_717243" data-name="Trazado 717243" d="M111.719,307.085H59.514a1.054,1.054,0,0,1-1.055-1.055v-.359a1.055,1.055,0,0,1,1.055-1.055h52.206a1.055,1.055,0,0,1,1.055,1.055v.359a1.054,1.054,0,0,1-1.055,1.055" transform="translate(-7.596 -39.583)" fill="#485070"/>
    <path id="Trazado_717244" data-name="Trazado 717244" d="M120.264,303.229H73.849l4.039-26.671a1.883,1.883,0,0,1,1.839-1.617h42.735a1.808,1.808,0,0,1,1.764,2.113Z" transform="translate(-9.596 -35.727)" fill="#757e96"/>
    <path id="Trazado_717245" data-name="Trazado 717245" d="M107.552,290.107a3.085,3.085,0,1,1-3.085-3.084,3.085,3.085,0,0,1,3.085,3.084" transform="translate(-13.174 -37.297)" fill="#fff"/>
    <path id="Trazado_717246" data-name="Trazado 717246" d="M75,208.915c-.532-2.071-2.752-.266-4.774-.961-1.759-.6-3.1-1.146-4.98-.82a6.974,6.974,0,0,0-4.336,2.48c-.283.366-.539.737-.774,1.108a24.224,24.224,0,0,0-1.562,4.076c0,.031-.006.063-.01.093a13.14,13.14,0,0,0,2.5,7.269,6.86,6.86,0,0,0,6.287,2.971,5.864,5.864,0,0,0,3.619-1.849,13.038,13.038,0,0,0,2.4-3.943c.925-2.166,2.214-8.142,1.629-10.424" transform="translate(-7.609 -26.903)" fill="#cf9378"/>
    <path id="Trazado_717247" data-name="Trazado 717247" d="M64.818,209.821c.02-.091.035-.195.059-.311q.274-1.3.546-2.591c2.184,1.631,4.553,3.957,7.38,4.895a5.378,5.378,0,0,0,5.905-1.862,6.53,6.53,0,0,0,.612-1.026,7.567,7.567,0,0,1,.378-.913,1.974,1.974,0,0,1-2.458-.538,8.168,8.168,0,0,1-1.232-2.442,11.3,11.3,0,0,0-3.943-5.017,9.041,9.041,0,0,0-6.125-1.6,7.773,7.773,0,0,0-3.733,1.5,6.724,6.724,0,0,0-1.425,1.429c-.182.253-.949,1.639-.639,1.907a1.566,1.566,0,0,0-1.774-.049,3.664,3.664,0,0,0-1.23,1.411,12.109,12.109,0,0,0-1.4,7.776,15.074,15.074,0,0,0,1.048,3.311c.358.9.938,1.9,2.03,1.925,1.508.033,1.341-2.5,1.769-3.8.168-.512.131-1.155.742-1.308s1.617,1.019,2.094.057a1.785,1.785,0,0,0,.011-1.138,1.535,1.535,0,0,1,.072-1.128c.02-.031.8,0,.916-.038a.53.53,0,0,0,.4-.452" transform="translate(-7.224 -25.777)" fill="#485070"/>
    <path id="Trazado_717248" data-name="Trazado 717248" d="M61.756,199.482a5.633,5.633,0,0,0-.613,5.582" transform="translate(-7.884 -25.922)" fill="none" stroke="#485070" stroke-linecap="round" stroke-miterlimit="10" stroke-width="0.75"/>
    <path id="Trazado_717249" data-name="Trazado 717249" d="M57.14,203.319a2.46,2.46,0,0,1,3.074.486" transform="translate(-7.425 -26.377)" fill="none" stroke="#485070" stroke-linecap="round" stroke-miterlimit="10" stroke-width="0.75"/>
    <path id="Trazado_717250" data-name="Trazado 717250" d="M71.492,217.2a.677.677,0,1,1-.677-.677.677.677,0,0,1,.677.677" transform="translate(-9.114 -28.137)" fill="#485070"/>
    <path id="Trazado_717251" data-name="Trazado 717251" d="M70.314,215.192a2.084,2.084,0,0,1,1.362.039" transform="translate(-9.137 -27.951)" fill="none" stroke="#485070" stroke-linecap="round" stroke-miterlimit="10" stroke-width="0.75"/>
    <path id="Trazado_717252" data-name="Trazado 717252" d="M76.413,218a.677.677,0,1,1-.677-.677.677.677,0,0,1,.677.677" transform="translate(-9.754 -28.241)" fill="#485070"/>
    <path id="Trazado_717253" data-name="Trazado 717253" d="M75.236,215.991a2.084,2.084,0,0,1,1.363.039" transform="translate(-9.777 -28.055)" fill="none" stroke="#485070" stroke-linecap="round" stroke-miterlimit="10" stroke-width="0.75"/>
    <path id="Trazado_717254" data-name="Trazado 717254" d="M73.8,218.48a2.358,2.358,0,0,0,.445,1.7.685.685,0,0,1,.2.412.405.405,0,0,1-.325.338,1.2,1.2,0,0,1-.5-.023" transform="translate(-9.566 -28.39)" fill="none" stroke="#485070" stroke-linecap="round" stroke-miterlimit="10" stroke-width="0.75"/>
    <path id="Trazado_717255" data-name="Trazado 717255" d="M70.313,222.749a2.715,2.715,0,0,0,2.343.6" transform="translate(-9.137 -28.945)" fill="none" stroke="#485070" stroke-linecap="round" stroke-miterlimit="10" stroke-width="0.75"/>
    <path id="Trazado_717256" data-name="Trazado 717256" d="M58.361,215.525a2.485,2.485,0,1,0,2.485-2.485,2.485,2.485,0,0,0-2.485,2.485" transform="translate(-7.584 -27.684)" fill="#cf9378"/>
    <path id="Trazado_717257" data-name="Trazado 717257" d="M60.649,214.673a1.068,1.068,0,0,1,1.144,1.413.729.729,0,0,0-1.219.6" transform="translate(-7.871 -27.895)" fill="none" stroke="#485070" stroke-linecap="round" stroke-linejoin="round" stroke-width="0.75"/>
    <path id="Trazado_717258" data-name="Trazado 717258" d="M375.051,379.379c-.071-.313-8.956,1.241-9.939,1.394-.037.03-.071.063-.108.093-3.072,2.611-6.969,4.032-10.783,5.412a3.647,3.647,0,0,0-1.609.919c-1.731,2.032,1.944,2.905,3.247,3.014a24.62,24.62,0,0,0,6.312-.615c4.279-.753,8.646-.509,12.881-1.555a.738.738,0,0,0,.447-.23.756.756,0,0,0,.107-.391,26.3,26.3,0,0,0-.557-8.041" transform="translate(-45.761 -49.293)" fill="#485070"/>
    <path id="Trazado_717259" data-name="Trazado 717259" d="M355.316,297.072c2.145,21.383,6.059,43.33,8.508,64.695,5.011.431,6.826.1,11.693-.722,3.19-23.24,4.541-34.456,1.664-58.031-.295-2.42-.041-22.462-.127-25.036-.51-15.323,1.537-32.815-7.666-45.754-2.324-3.268-6.132-5.775-10-5.473a9.035,9.035,0,0,0-6.643,3.973c-4.754,6.452-2.1,23.986-1.255,31.64,1.121,10.148,2.808,24.516,3.83,34.708" transform="translate(-45.479 -29.462)" fill="#757e96"/>
    <path id="Trazado_717260" data-name="Trazado 717260" d="M356.825,310.376c.868-3.708,1.931-7.375,2.976-11.038,3.66-12.812,5.172-25.981,7-39.149a60.279,60.279,0,0,0,.816-9.408c-.058-3.2-.478-6.416-.734-9.6a83.319,83.319,0,0,0-1.8-12.958,9.735,9.735,0,0,0-5.7-1.469,9.032,9.032,0,0,0-6.642,3.973c-4.755,6.453-2.1,23.987-1.256,31.64,1.122,10.148,2.808,24.516,3.831,34.708.437,4.364.951,8.811,1.509,13.3" transform="translate(-45.479 -29.462)" fill="#545d78"/>
    <path id="Trazado_717261" data-name="Trazado 717261" d="M335.295,382.784a1.757,1.757,0,0,0-.264.017,34.5,34.5,0,0,1-8.581-.045,3.088,3.088,0,0,0-1.091-.017,3.121,3.121,0,0,0-.892.428,25.676,25.676,0,0,1-8.678,3.315c-1.762.325-3.66.507-5.059,1.628-.654.524-1.165,1.5-.666,2.17a1.736,1.736,0,0,0,.686.5c2.673,1.255,6.7.767,9.577.608,4.637-.258,9.231.023,13.8-.907a1.17,1.17,0,0,0,.529-.206,1.232,1.232,0,0,0,.342-.709,34.875,34.875,0,0,0,.692-3.841c.059-.51.345-2.347-.005-2.778a.5.5,0,0,0-.393-.156" transform="translate(-40.265 -49.729)" fill="#485070"/>
    <path id="Trazado_717262" data-name="Trazado 717262" d="M348.742,230.127c-10.547-.17-13.774,10.837-15.028,19.3q-3.978,26.819-5.581,53.919c-.531,8.975-1.234,16.557-1.529,25.545-.315,9.227-.813,25.192-.412,34.37a.85.85,0,0,0,.144.526.839.839,0,0,0,.572.214,63.371,63.371,0,0,0,11.647.164.989.989,0,0,0,.52-.14c.168-.122-1.323-.706-1.26-.9,2.968-9.162,5-25.54,5.927-35.113,1.947-20.018,6.106-39.5,13.571-57.991,7.465-17.465,11.683-39.571-8.571-39.9" transform="translate(-42.368 -29.904)" fill="#757e96"/>
    <path id="Trazado_717263" data-name="Trazado 717263" d="M357.1,283.83a278.826,278.826,0,0,0,10.878-30.991" transform="translate(-46.404 -32.855)" fill="none" stroke="#485070" stroke-miterlimit="10" stroke-width="0.75"/>
    <path id="Trazado_717264" data-name="Trazado 717264" d="M351.987,253.2l.1.016q1.446.236,2.9.421c.71.089,1.423.163,2.138.229l.7.063q.894.073,1.791.125c.338.019.675.033,1.013.048.264.01.528.025.793.033v-.007a66.546,66.546,0,0,0,13.6-.956c-.673-8.079-2.436-15.867-7.132-22.469-2.325-3.267-6.133-5.775-10-5.472a9.026,9.026,0,0,0-6.642,3.973,9.428,9.428,0,0,0-.934,1.63c-9.163-.207-13.2,9.024-15.246,16.809a34.83,34.83,0,0,0,6.563,2.986,61.8,61.8,0,0,0,10.359,2.571" transform="translate(-43.54 -29.265)" fill="#545d78"/>
    <path id="Trazado_717265" data-name="Trazado 717265" d="M359.456,163.286a14.37,14.37,0,0,0-.251-3.535,9.227,9.227,0,0,0,5.4.156,15.732,15.732,0,0,0,2.561-.98c.295-.138.827-.572,1.316-.843-1.075,3.971-.991,8.114,1.467,11.526a13.614,13.614,0,0,1-6.692,2.847c-2.076.354-7.043.683-5.849-2.811.391-1.144,1.229-2.022,1.561-3.208a14.422,14.422,0,0,0,.489-3.152" transform="translate(-46.419 -20.542)" fill="#f7b699"/>
    <path id="Trazado_717266" data-name="Trazado 717266" d="M364.509,160.233a9.2,9.2,0,0,1-5.06-.234,15,15,0,0,1-.238,6.687c-.03.107-.068.208-.105.311.2-.025.41-.061.614-.1a12.342,12.342,0,0,0,4.789-6.664" transform="translate(-46.664 -20.791)" fill="#c46e58"/>
    <path id="Trazado_717267" data-name="Trazado 717267" d="M356.378,141.993c1.221-1.756,2.672.712,4.81.766,1.859.047,3.3.007,4.952.971a6.972,6.972,0,0,1,3.2,3.837c.137.442.248.879.339,1.309a24.212,24.212,0,0,1,.04,4.364l-.023.091a13.138,13.138,0,0,1-4.885,5.937,6.858,6.858,0,0,1-6.928.59,5.866,5.866,0,0,1-2.746-3,13.041,13.041,0,0,1-.869-4.531c-.11-2.354.767-8.4,2.113-10.337" transform="translate(-46.034 -18.369)" fill="#f7b699"/>
    <path id="Trazado_717268" data-name="Trazado 717268" d="M358.382,145.164c-1.671.241-3.03.507-4.562-.391a5.43,5.43,0,0,1-2.444-3.088,6.424,6.424,0,0,1-.215-1.175,7.748,7.748,0,0,0-.036-.987,1.974,1.974,0,0,0,2.491.353,8.146,8.146,0,0,0,2.007-1.858,11.3,11.3,0,0,1,5.447-3.324,9.04,9.04,0,0,1,6.3.643,7.785,7.785,0,0,1,2.976,2.706,6.712,6.712,0,0,1,.837,1.838c.082.3.318,1.867-.067,2.01a1.564,1.564,0,0,1,1.679.573,3.657,3.657,0,0,1,.661,1.752,11.8,11.8,0,0,1-.772,6.251,47.227,47.227,0,0,1-2.114,4.335,7.009,7.009,0,0,1-2.868,2.837,10.281,10.281,0,0,1-5.069.6,3.541,3.541,0,0,1-3.441-2.175,7.129,7.129,0,0,1-.44-2.272c-.02-.321-.17-2.558.093-2.692a2.77,2.77,0,0,1-1.023.363.943.943,0,0,1-.927-.449,1.4,1.4,0,0,1,.043-1q.723-2.426,1.447-4.851" transform="translate(-45.627 -17.465)" fill="#485070"/>
    <path id="Trazado_717269" data-name="Trazado 717269" d="M374.436,138.406a5.631,5.631,0,0,1-1.375,5.445" transform="translate(-48.478 -17.985)" fill="none" stroke="#485070" stroke-linecap="round" stroke-miterlimit="10" stroke-width="0.75"/>
    <path id="Trazado_717270" data-name="Trazado 717270" d="M377.306,143.582a2.462,2.462,0,0,0-3.05-.618" transform="translate(-48.633 -18.54)" fill="none" stroke="#485070" stroke-linecap="round" stroke-miterlimit="10" stroke-width="0.75"/>
    <path id="Trazado_717271" data-name="Trazado 717271" d="M363.287,154.528a2.485,2.485,0,1,1-1.461-3.2,2.484,2.484,0,0,1,1.461,3.2" transform="translate(-46.582 -19.645)" fill="#f7b699"/>
    <path id="Trazado_717272" data-name="Trazado 717272" d="M362.043,153.063a1.068,1.068,0,0,0-1.565.925.729.729,0,0,1,.934.987" transform="translate(-46.842 -19.874)" fill="none" stroke="#485070" stroke-linecap="round" stroke-linejoin="round" stroke-width="0.75"/>
    <path id="Trazado_717273" data-name="Trazado 717273" d="M324.051,186.339a2.3,2.3,0,0,1,1.469-1.708c.767-.267,2.065-.269,2.32-1.04.127-.385.255-.531-.055-.793a1.915,1.915,0,0,0-1.131-.4,3.37,3.37,0,0,0-3.1,1.723c-.183.338-.446.78-.814.672a.626.626,0,0,1-.358-.385c-.434-1.015.166-2.152.746-3.091a5.233,5.233,0,0,1,1.7-1.938,5.044,5.044,0,0,1,2.855-.383c1.964.135,4.021.285,5.681,1.452.435.306.832.663,1.266.971a13.956,13.956,0,0,0,3.724,1.664l-1.213,4.208a.231.231,0,0,1-.344.2c-2.383-.582-5.134-1.068-7.523-1.443a17.91,17.91,0,0,0-5.222.291" transform="translate(-41.873 -23.255)" fill="#f7b699"/>
    <path id="Trazado_717274" data-name="Trazado 717274" d="M338.905,180.113a15.062,15.062,0,0,0-3.246,9.779l4.594,1.832q.791-3.639,1.581-7.276c.158-.729.807-2.28.392-2.883-.443-.644-2.581-1.132-3.32-1.452" transform="translate(-43.616 -23.405)" fill="#fff"/>
    <path id="Trazado_717275" data-name="Trazado 717275" d="M354.974,185.873a33.267,33.267,0,0,0-3.954-2.077c-2.361-1.061-4.845-1.93-7.218-2.751a23.286,23.286,0,0,0-2.772-.853c-2.582,2.755-3.489,7.434-3.178,11.355,2.722,2.387,6.709,3.8,9.711,5.676a32.293,32.293,0,0,0,5.194,2.876,9.162,9.162,0,0,0,5.819.5,3.693,3.693,0,0,0,2.412-1.807,4.227,4.227,0,0,0,.291-1.9,13.634,13.634,0,0,0-6.3-11.023" transform="translate(-43.895 -23.415)" fill="#545d78"/>
    <path id="Trazado_717276" data-name="Trazado 717276" d="M305.839,203.151a7.193,7.193,0,0,1-.508-6.029,2.635,2.635,0,0,1,1.481-1.673,2.317,2.317,0,0,1,2.408.994,11.09,11.09,0,0,1,1.178,2.507,11.652,11.652,0,0,0,1.5,2.593,6.6,6.6,0,0,1,1.582,2.647,2.6,2.6,0,0,1-.722,2.266c-2.184,2.152-5.859-1.426-6.917-3.3" transform="translate(-39.619 -25.388)" fill="#f7b699"/>
    <path id="Trazado_717277" data-name="Trazado 717277" d="M329.69,200.424l-13.2,6.4-17.465-15.852,13.2-6.4Z" transform="translate(-38.857 -23.984)" fill="#f4ae2d"/>
    <path id="Trazado_717278" data-name="Trazado 717278" d="M327.843,199.987l-11.339,5.5-15.09-13.7,11.339-5.5Z" transform="translate(-39.167 -24.207)" fill="#fff"/>
    <path id="Trazado_717279" data-name="Trazado 717279" d="M314.882,189.5l-9.423,4.568-.92-.834,9.424-4.568Z" transform="translate(-39.574 -24.516)" fill="#c8ddf7"/>
    <path id="Trazado_717280" data-name="Trazado 717280" d="M320.415,194.517l-9.423,4.568-.92-.834,9.424-4.568Z" transform="translate(-40.293 -25.168)" fill="#c8ddf7"/>
    <path id="Trazado_717281" data-name="Trazado 717281" d="M322.248,196.181l-9.423,4.568-.92-.834,9.423-4.568Z" transform="translate(-40.531 -25.384)" fill="#c8ddf7"/>
    <path id="Trazado_717282" data-name="Trazado 717282" d="M324.081,197.845l-9.423,4.568-.92-.834,9.424-4.568Z" transform="translate(-40.769 -25.601)" fill="#c8ddf7"/>
    <path id="Trazado_717283" data-name="Trazado 717283" d="M325.914,199.509l-9.423,4.568-.92-.834L325,198.674Z" transform="translate(-41.007 -25.817)" fill="#c8ddf7"/>
    <path id="Trazado_717284" data-name="Trazado 717284" d="M327.747,201.173l-9.423,4.568-.92-.834,9.423-4.568Z" transform="translate(-41.245 -26.033)" fill="#c8ddf7"/>
    <path id="Trazado_717285" data-name="Trazado 717285" d="M312.113,187.315l-7.922,3.84-3.37-3.059,7.921-3.84Z" transform="translate(-39.09 -23.943)" fill="#485070"/>
    <path id="Trazado_717286" data-name="Trazado 717286" d="M307.458,201.782a3.894,3.894,0,0,0-.36.49c-1,1.6.934,3.093,2.163,3.958,2.792,1.965,6.2,2.905,9.44,3.848,1.828.532,7.121-.772,5.659-3.643-1-1.96-3.951-3.09-5.893-3.613-2.015-.378-3.738-1.217-4.494-3.26-.336-.908-.472-1.878-.767-2.8a1.366,1.366,0,0,0-.337-.619.527.527,0,0,0-.653-.073.729.729,0,0,0-.205.341c-.566,1.577.449,2.744-1.493,3.669-.645.307-1.351.477-1.977.822a3.965,3.965,0,0,0-1.083.88" transform="translate(-39.87 -25.467)" fill="#f7b699"/>
    <path id="Trazado_717287" data-name="Trazado 717287" d="M318.385,200.681a15.058,15.058,0,0,0-2.175,10.073l4.764,1.327q.4-3.7.789-7.4c.078-.742.557-2.354.079-2.909-.51-.592-2.688-.847-3.458-1.086" transform="translate(-41.072 -26.078)" fill="#fff"/>
    <path id="Trazado_717288" data-name="Trazado 717288" d="M356.054,167.34a5.968,5.968,0,0,1,3.527-1.11l9.677-.9q.914,3.235,1.829,6.471c-.026-.09-10.462.324-11.457.292-1.047-.032-4.443.308-4.88-.673-.486-1.088.5-3.362,1.3-4.079" transform="translate(-46.081 -21.484)" fill="#fff"/>
    <path id="Trazado_717289" data-name="Trazado 717289" d="M374.519,221.625c.01-3.436.2-6.867.421-10.294.285-4.464.621-8.929.679-13.4a90.558,90.558,0,0,0-1.106-16.63c-.238-1.364-.523-2.714-.861-4.04-.07-.272-.144-.562-.224-.858-1.028-2.466-2.978-5.735-5.579-7.19a10.011,10.011,0,0,0-1.3.023q-4.479.3-8.921.987c-2.037.316-3.477.573-4.975,2.133-3.822,3.978-7.407,12.891-8.4,18.368-.954,5.232-.58,5.532-1.125,10.809q-.971,9.423-2.743,18.741c-1,5.232-2.487,10.911-6.831,13.992,7.2,3.024,14.492,6.073,22.21,7.279s16.029.4,22.594-3.835c-3.1-4.777-3.849-10.379-3.833-16.08" transform="translate(-43.343 -21.986)" fill="#757e96"/>
    <path id="Trazado_717290" data-name="Trazado 717290" d="M354.7,188.493a3.841,3.841,0,0,0-1.2-1.5,3.308,3.308,0,0,0-1.985-.456c-3.021.135-5.411,2.6-7.024,5.157s-2.857,5.445-5.157,7.408c-4.014,3.425-13.676.629-18.167-.37-3.42,3.344-3.785,7.212-2.01,11.721,6.02,2.645,18.685,8.92,25.258,5.79a13.718,13.718,0,0,0,5.4-5.135,42.367,42.367,0,0,0,2.2-3.873,37.622,37.622,0,0,0,3.623-9.129,14.465,14.465,0,0,0-.934-9.611" transform="translate(-41.337 -24.239)" fill="#757e96"/>
    <path id="Trazado_717291" data-name="Trazado 717291" d="M360.5,176.019a6.362,6.362,0,0,0-7.865-.844c-1.416.887-2.134,2.722-2.865,4.176a40.474,40.474,0,0,0-2.282,5.523c-.644,1.959-1.137,3.965-1.741,5.937-.99,3.231-2.28,6.377-3.021,9.674a17.119,17.119,0,0,0,.337,9.981c1.772,4.489,7.681,2.1,10.315-.393,2.267-2.152,3.354-5.233,4.364-8.19s2.029-5.942,3.043-8.914a35.087,35.087,0,0,0,2.015-9.039c.164-2.969-.358-5.848-2.3-7.912" transform="translate(-44.46 -22.636)" fill="#757e96"/>
    <path id="Trazado_717292" data-name="Trazado 717292" d="M344.843,194.929a62.975,62.975,0,0,1,7.294-18.737" transform="translate(-44.811 -22.895)" fill="none" stroke="#485070" stroke-miterlimit="10" stroke-width="0.75"/>
    <path id="Trazado_717293" data-name="Trazado 717293" d="M362.535,191.25l-3.89,10.467c-.932,2.506-1.815,5.708-3.581,7.776a41.289,41.289,0,0,1-5.554,6,10.6,10.6,0,0,1-7.391,2.5" transform="translate(-44.457 -24.852)" fill="none" stroke="#485070" stroke-miterlimit="10" stroke-width="0.75"/>
    <path id="Trazado_717294" data-name="Trazado 717294" d="M366.789,192.315a7.329,7.329,0,0,0-2.785,2.84" transform="translate(-47.301 -24.99)" fill="none" stroke="#485070" stroke-miterlimit="10" stroke-width="0.75"/>
    <path id="Trazado_717295" data-name="Trazado 717295" d="M320.257,188.976l-1.556.845.789-1.585,9.385-9.719a.533.533,0,1,1,.767.74Z" transform="translate(-41.414 -23.176)" fill="#485070"/>
  </g>
</svg>
