<svg xmlns="http://www.w3.org/2000/svg" xmlns:xlink="http://www.w3.org/1999/xlink" width="142" height="142" viewBox="0 0 142 142">
  <defs>
    <clipPath id="clip-path">
      <rect id="Rectángulo_350181" data-name="Rectángulo 350181" width="137" height="126.303" fill="none"/>
    </clipPath>
  </defs>
  <g id="Grupo_1018035" data-name="Grupo 1018035" transform="translate(-1148.668 -4797)">
    <circle id="Elipse_5854" data-name="Elipse 5854" cx="71" cy="71" r="71" transform="translate(1148.668 4797)" fill="#fff"/>
    <g id="Grupo_1017423" data-name="Grupo 1017423" transform="translate(1153.668 4804.849)">
      <g id="Grupo_1017422" data-name="Grupo 1017422" clip-path="url(#clip-path)">
        <path id="Trazado_718445" data-name="Trazado 718445" d="M58.116,183.427l-8.4-.113c-.465-2.047-2.1-1.873-3.613-1.874-12.034-.01-24.069-.057-36.1.041-2.217.018-3.1-.365-3.035-2.873.187-7.661.154-15.331.014-22.994-.041-2.225.58-2.814,2.8-2.8,15.153.1,30.308.052,45.462.052,26.118,0,52.237.036,78.355-.061,2.413-.009,2.965.652,2.911,2.969-.159,6.86-.057,13.726-.057,20.589,0,5.071,0,5.071-5,5.071q-34.632,0-69.263,0c-1.669,0-3.529-.332-4.078,1.989m-4.361-8.713h23.51c4.63,0,9.261.016,13.891-.017,1.349-.01,2.573-.414,2.526-2.076-.042-1.493-1.189-1.829-2.432-1.906-.533-.033-1.068-.012-1.6-.012q-35.8,0-71.6,0a14.436,14.436,0,0,0-2.132.066,1.932,1.932,0,0,0-1.9,1.888,1.889,1.889,0,0,0,1.805,1.965,14.065,14.065,0,0,0,2.4.086q17.765.006,35.531,0m.166-14.9H18.127c-.712,0-1.424,0-2.137.013-1.145.021-1.922.568-1.942,1.739a1.859,1.859,0,0,0,1.846,1.911,13.554,13.554,0,0,0,1.867.05q36.062,0,72.123,0a11.225,11.225,0,0,0,2.129-.081,1.8,1.8,0,0,0,1.658-2.051,1.647,1.647,0,0,0-1.819-1.56c-.711-.024-1.424-.02-2.137-.02H53.921m61.42-.009V159.8c-2.4,0-4.81-.044-7.212.01a7.452,7.452,0,0,0-7.389,6.7,7.145,7.145,0,0,0,5.82,7.794,63.564,63.564,0,0,0,17.285-.021c3.7-.521,6.043-4.211,5.643-7.911a7.2,7.2,0,0,0-6.936-6.542c-2.4-.1-4.807-.018-7.212-.018" transform="translate(-3.238 -71.018)" fill="#0d6fb0"/>
        <path id="Trazado_718446" data-name="Trazado 718446" d="M54.878,112.409c.55-2.322,2.409-1.989,4.078-1.99q34.632-.009,69.263,0c5,0,5,0,5-5.071,0-6.863-.1-13.729.057-20.589.054-2.318-.5-2.978-2.911-2.969-26.118.1-52.236.06-78.355.06-15.154,0-30.308.047-45.462-.051-2.22-.014-2.84.574-2.8,2.8.139,7.663.172,15.333-.014,22.995-.062,2.508.817,2.891,3.035,2.873,12.033-.1,24.068-.05,36.1-.041,1.51,0,3.148-.172,3.613,1.874-.436,1.633-1.553,2.029-3.144,2-4.634-.078-9.276.105-13.9-.083-2.319-.095-3.171.465-2.95,2.9.321,3.541-.9,6.5-4.227,8.252a7.841,7.841,0,0,1-11.513-6.809c-.2-4.292-.2-4.3-4.568-4.289-7.008.023-6.115.3-6.13-6.234C.026,99.124.1,90.21,0,81.3c-.028-2.435.788-3.389,3.252-3.261,2.934.153,5.886-.06,8.822.07,1.908.085,2.569-.1,2.079-2.4C9.47,53.692,4.941,31.649.365,9.615c-.96-4.621,1.316-8.44,5.6-9.382,3.977-.874,7.725,1.721,8.687,6.279Q21.32,38.1,27.873,69.717c.091.435.177.872.292,1.3.609,2.292.11,5.54,1.856,6.675,1.708,1.11,4.646.37,7.045.371,22.553.011,45.107-.034,67.659.072,2.151.01,2.936-.627,3.28-2.617.65-3.768,1.52-7.5,2.241-11.253.288-1.5.924-2.492,2.611-2.419,1.812.985,1.234,2.568.942,4.016-.805,4-1.673,7.98-2.566,12.209,1.906,0,3.595-.116,5.259.032,1.705.151,2.224-.536,2.542-2.155,1.68-8.547,3.5-17.065,5.285-25.591q4.339-20.749,8.7-41.493c.439-2.079.02-3.733-1.984-4.7-2.186-1.053-4.4.259-5.028,3.1-1.06,4.771-2.01,9.567-2.978,14.359-.3,1.5-.74,2.8-2.655,2.668-1.291-.621-1.4-1.656-1.135-2.922,1.111-5.215,2.1-10.459,3.29-15.655A7.248,7.248,0,0,1,131.249.186a7.438,7.438,0,0,1,5.531,9q-3.215,15.534-6.491,31.055c-2.509,12-4.993,24.014-7.545,36.01-.294,1.382-.159,1.9,1.425,1.85,3.381-.112,6.769.02,10.152-.054,1.965-.042,2.683.816,2.675,2.728q-.062,15.363,0,30.726c.01,1.934-.761,2.823-2.672,2.763-.534-.017-1.069,0-1.6,0-1.959.014-4.258-.6-5.783.218-1.629.877-.4,3.364-.719,5.123a8.045,8.045,0,0,1-7.86,6.682,7.9,7.9,0,0,1-7.794-7c-.223-1.575.644-3.687-.459-4.605-1.378-1.148-3.581-.389-5.419-.393q-23.113-.055-46.226-.022c-1.515,0-3.144.213-3.586-1.859M25.531,77.9a1.384,1.384,0,0,0,.1-.507Q18.356,42.38,11.048,7.376C10.5,4.743,8.631,3.4,6.566,3.917c-2.125.53-3.066,2.433-2.511,5.1Q10.614,40.5,17.165,71.982c1.324,6.4,1.266,6.412,7.856,6.067a2.239,2.239,0,0,0,.51-.15m-6.7,36.313c-4.845.052-4.3-.452-4.338,2.655-.042,3.684,1.421,5.661,4.119,5.68s4-2.038,4.272-5.639c.3-3.94-2.49-2.358-4.053-2.7m99.665,0c-4.291,0-4.291,0-4.3,2.581-.013,3.706,1.409,5.7,4.107,5.75,2.743.053,3.985-1.932,4.308-5.565.343-3.872-2.278-2.561-4.114-2.766" transform="translate(0 0)" fill="#040608"/>
        <path id="Trazado_718447" data-name="Trazado 718447" d="M216.965,27.6c1.916.135,2.351-1.164,2.655-2.668.968-4.792,1.918-9.588,2.978-14.359.633-2.846,2.842-4.158,5.028-3.1,2,.965,2.423,2.619,1.984,4.7q-4.38,20.74-8.7,41.493c-1.783,8.526-3.605,17.045-5.285,25.591-.318,1.619-.837,2.307-2.542,2.155-1.665-.148-3.353-.032-5.259-.032.893-4.228,1.761-8.212,2.566-12.209.292-1.448.87-3.032-.942-4.016l2.275-11.686a2.478,2.478,0,0,0,2.454-2.329q.846-4.3,1.754-8.592c.283-1.327.155-2.467-1.118-3.235L216.965,27.6" transform="translate(-96.587 -3.305)" fill="#c1c4f1"/>
        <path id="Trazado_718448" data-name="Trazado 718448" d="M131.8,46.457a1.92,1.92,0,0,1-2.923,1.731,8.718,8.718,0,0,1-1.4-1.237,36.033,36.033,0,0,0-48.821-.064,9.7,9.7,0,0,1-1.381,1.249,1.807,1.807,0,0,1-2.429-.267,1.706,1.706,0,0,1-.095-2.416,11.551,11.551,0,0,1,1.306-1.334,39.933,39.933,0,0,1,53.925-.028c.774.717,1.657,1.373,1.814,2.365" transform="translate(-34.532 -15.629)" fill="#070a0a"/>
        <path id="Trazado_718449" data-name="Trazado 718449" d="M130.729,63.488a1.746,1.746,0,0,1-1.135,1.644,2.216,2.216,0,0,1-2.4-.7,24.091,24.091,0,0,0-11.266-6.267,25,25,0,0,0-23.11,5.606c-.27.231-.533.471-.791.716-.967.918-2.082,1.242-3.028.165s-.436-2.121.512-3.024a27.645,27.645,0,0,1,12.64-7.086c10.1-2.441,19.177-.309,27.056,6.567.733.64,1.539,1.248,1.528,2.376" transform="translate(-41.128 -24.898)" fill="#070909"/>
        <path id="Trazado_718450" data-name="Trazado 718450" d="M129.018,101.412A7.731,7.731,0,1,1,121.3,93.6a7.687,7.687,0,0,1,7.716,7.813m-7.861,3.848a3.933,3.933,0,1,0-3.8-4.188,3.825,3.825,0,0,0,3.8,4.188" transform="translate(-52.777 -43.502)" fill="#030706"/>
        <path id="Trazado_718451" data-name="Trazado 718451" d="M116.559,73.57a18.193,18.193,0,0,1,12.083,4.8c1.035.93,1.678,2.012.571,3.191-.991,1.055-2.033.522-3.051-.262-6.89-5.306-13.159-5.329-19.811-.066-1.093.865-2.208,1.452-3.235.218s-.2-2.265.782-3.188a18.633,18.633,0,0,1,12.662-4.687" transform="translate(-47.704 -34.191)" fill="#070a09"/>
        <path id="Trazado_718452" data-name="Trazado 718452" d="M216.992,67.27c1.272.768,1.4,1.908,1.117,3.235q-.914,4.288-1.755,8.592a2.478,2.478,0,0,1-2.453,2.329,2.434,2.434,0,0,1-1.262-3.108c.673-2.936,1.213-5.9,1.8-8.858a2.389,2.389,0,0,1,2.555-2.191" transform="translate(-98.771 -31.265)" fill="#0a0a0b"/>
        <path id="Trazado_718453" data-name="Trazado 718453" d="M59.88,190.251q-17.765,0-35.531,0a14.175,14.175,0,0,1-2.4-.086,1.891,1.891,0,0,1-1.805-1.966,1.932,1.932,0,0,1,1.9-1.888,14.363,14.363,0,0,1,2.132-.067q35.8,0,71.6,0c.534,0,1.07-.021,1.6.012,1.243.077,2.389.413,2.432,1.906.047,1.661-1.177,2.066-2.526,2.076-4.63.033-9.261.017-13.891.018H59.88" transform="translate(-9.363 -86.555)" fill="#020e16"/>
        <path id="Trazado_718454" data-name="Trazado 718454" d="M60.07,165.909H95.865c.712,0,1.425,0,2.137.02a1.647,1.647,0,0,1,1.819,1.56,1.794,1.794,0,0,1-1.658,2.05,11.183,11.183,0,0,1-2.129.081q-36.062,0-72.123,0a13.552,13.552,0,0,1-1.867-.049,1.859,1.859,0,0,1-1.846-1.911c.02-1.171.8-1.718,1.942-1.738.712-.013,1.424-.013,2.137-.013H60.07" transform="translate(-9.387 -77.109)" fill="#040607"/>
        <path id="Trazado_718455" data-name="Trazado 718455" d="M196.729,165.868c2.4,0,4.812-.079,7.212.018a7.2,7.2,0,0,1,6.936,6.542c.4,3.7-1.947,7.39-5.643,7.911a63.548,63.548,0,0,1-17.286.021,7.146,7.146,0,0,1-5.82-7.794,7.453,7.453,0,0,1,7.389-6.7c2.4-.055,4.809-.01,7.212-.01v.013m-.3,10.98v.01c2.222,0,4.447.065,6.666-.017,2.53-.093,4.066-1.545,4.047-3.652s-1.6-3.543-4.106-3.569q-6.533-.069-13.067,0c-2.441.027-4.194,1.571-4.045,3.623a3.559,3.559,0,0,0,3.838,3.594c2.221.053,4.444.011,6.666.011" transform="translate(-84.626 -77.076)" fill="#080906"/>
        <path id="Trazado_718456" data-name="Trazado 718456" d="M28.915,81.206a2.248,2.248,0,0,1-.509.15c-6.59.345-6.532.331-7.856-6.067Q14.032,43.8,7.44,12.325c-.556-2.669.385-4.571,2.511-5.1,2.065-.515,3.93.826,4.482,3.459q7.328,35,14.585,70.015a1.382,1.382,0,0,1-.1.508" transform="translate(-3.385 -3.307)" fill="#c0c4f1"/>
        <path id="Trazado_718457" data-name="Trazado 718457" d="M31.4,213.351c1.563.338,4.35-1.244,4.053,2.7-.271,3.6-1.587,5.659-4.272,5.639s-4.16-2-4.119-5.681c.035-3.106-.507-2.6,4.338-2.654" transform="translate(-12.578 -99.14)" fill="#1580ec"/>
        <path id="Trazado_718458" data-name="Trazado 718458" d="M217.65,213.341c1.836.205,4.457-1.106,4.114,2.766-.322,3.633-1.564,5.618-4.307,5.565-2.7-.053-4.121-2.044-4.107-5.75.009-2.581.009-2.581,4.3-2.581" transform="translate(-99.157 -99.128)" fill="#1580ec"/>
        <path id="Trazado_718459" data-name="Trazado 718459" d="M124.451,108.558a3.933,3.933,0,1,1,4.055-3.666,3.838,3.838,0,0,1-4.055,3.666" transform="translate(-56.072 -46.799)" fill="#00d7bb"/>
        <path id="Trazado_718460" data-name="Trazado 718460" d="M199.749,180.1c-2.222,0-4.446.042-6.666-.011a3.559,3.559,0,0,1-3.838-3.594c-.149-2.052,1.6-3.6,4.045-3.623q6.533-.072,13.067,0c2.507.026,4.088,1.464,4.106,3.569s-1.517,3.559-4.047,3.652c-2.219.082-4.444.017-6.666.017v-.01" transform="translate(-87.95 -80.329)" fill="#fad840"/>
      </g>
    </g>
  </g>
</svg>
