<svg xmlns="http://www.w3.org/2000/svg" xmlns:xlink="http://www.w3.org/1999/xlink" width="116.999" height="115" viewBox="0 0 116.999 115">
  <defs>
    <clipPath id="clip-path">
      <rect id="Rect치ngulo_350173" data-name="Rect치ngulo 350173" width="58.188" height="58.236" fill="none"/>
    </clipPath>
  </defs>
  <g id="Grupo_1018027" data-name="Grupo 1018027" transform="translate(-327 -2851.564)">
    <g id="Grupo_1017409" data-name="Grupo 1017409" transform="translate(-98.438 -4646.906)">
      <g id="Grupo_1015374" data-name="Grupo 1015374" transform="translate(425.927 7498.205)">
        <g id="Grupo_1015448" data-name="Grupo 1015448" transform="translate(0 0)">
          <g id="Grupo_1014855" data-name="Grupo 1014855" transform="translate(0 0)">
            <path id="Uni칩n_12" data-name="Uni칩n 12" d="M58.5,0C90.809,0,117,25.744,117,57.5S90.809,115,58.5,115,0,89.256,0,57.5,26.192,0,58.5,0Z" transform="translate(-0.49 0.265)" fill="#81c539"/>
            <ellipse id="Elipse_4842" data-name="Elipse 4842" cx="49" cy="49.5" rx="49" ry="49.5" transform="translate(9.51 7.265)" fill="#fff"/>
          </g>
        </g>
      </g>
    </g>
    <g id="Grupo_1017415" data-name="Grupo 1017415" transform="translate(356.406 2879.504)">
      <g id="Grupo_1017406" data-name="Grupo 1017406" clip-path="url(#clip-path)">
        <path id="Trazado_718275" data-name="Trazado 718275" d="M31.916,40.1c2.235-2.669,5.019-4.39,6.426-7.392a18.315,18.315,0,0,1,2.874-3.827,2.724,2.724,0,0,1,1.98-.867c.77-.067,1.023-.411.908-1.126a2.33,2.33,0,0,1,0-.351,4.77,4.77,0,0,0-.061-1.85c-.262-.556-1.05-.171-1.6-.306a4.926,4.926,0,0,1-3.929-4.642c-.024-.828-.319-1.017-1.009-.893-.842.151-.968-.286-.908-.982.1-1.127.083-2.267.239-3.385a1.961,1.961,0,0,0-.929-2.146,6.545,6.545,0,0,1-3.048-5.622A6.527,6.527,0,0,1,38.562.178a28.757,28.757,0,0,1,6.432.006,8.076,8.076,0,0,1,5.071,2.667,7.06,7.06,0,0,0,3.61,2.336,6.2,6.2,0,0,1,4.483,6.046c.03,1.562,0,3.124.011,4.686a6.634,6.634,0,0,1-4,6.452c-.566.281-1.455.374-1.567,1.029a14.761,14.761,0,0,0-.019,3.153c.017.345.451.373.714.509a8.45,8.45,0,0,1,4.882,8.131q-.046,11.012.012,22.025c0,.822-.2,1.023-1.019,1.018q-10.251-.055-20.5,0c-.817,0-1.042-.186-1.023-1.016.06-2.57.022-5.142.022-7.79-.163.068-.28.081-.339.146a8.814,8.814,0,0,1-7.656,3c-1.086-.091-1.531.155-1.4,1.343.123,1.158,0,2.341.038,3.511.018.572-.093.806-.751.8q-10.485-.039-20.971,0c-.712,0-.814-.254-.8-.871.034-2.108,0-4.218.025-6.326a1.623,1.623,0,0,0-.557-1.315A10.155,10.155,0,0,1,.038,42.075c.014-2.968-.13-5.945.065-8.9a10.425,10.425,0,0,1,9.349-9.557c.766-.1.99-.329.908-1.041a7.085,7.085,0,0,1,0-1.287,6.075,6.075,0,0,0-.869-3.219c-.91-1.845-2.194-3.449-3.069-5.273C3.73,7.193,8.029.267,14.244.106,16.781.04,19.321.081,21.859.093A4.236,4.236,0,0,1,26.2,5.39,6.975,6.975,0,0,1,24.6,8.846a1.625,1.625,0,0,0-.341,1.458c.241,2.718.465,5.459-.375,8.121a5.573,5.573,0,0,1-4.32,4.012c-.389.087-.891.065-.776.739.1.584.536.331.816.349A12.985,12.985,0,0,1,31.915,36.537c.007,1.077,0,2.153,0,3.564m-30-2.275c0,1.749-.017,3.154,0,4.558A8.259,8.259,0,0,0,8.689,50.5c3.162.552,6.385.105,9.578.222.545.02.526-.3.524-.669-.007-1.366-.053-2.734.017-4.1.04-.768-.245-.888-.927-.879-2.692.037-5.385.022-8.078.013-1.6-.006-2.254-.677-2.263-2.288-.008-1.483.058-2.969-.024-4.447-.051-.926.5-.729,1.027-.773.6-.049.924.05.89.789-.062,1.363-.016,2.731-.018,4.1,0,.39-.08.773.554.759,1.521-.035,3.044-.011,4.565-.012.236,0,.511.007.49-.327a7.017,7.017,0,0,0-.216-2.763c-2.142-4.54-4.287-9.08-6.394-13.636-.3-.64-.595-.65-1.159-.4a8.587,8.587,0,0,0-5.113,6.131c-.465,1.965-.111,3.968-.226,5.606M51.368,28.3c-.542,1.872-1.125,3.726-1.612,5.6A20.123,20.123,0,0,1,43.63,44.187a1.21,1.21,0,0,0-.473,1c.017,3.473.028,6.948-.006,10.421-.007.664.249.762.816.747,1.248-.035,2.5-.067,3.745.009.853.052,1.113-.161,1.1-1.066-.055-4.292-.013-8.586-.036-12.879,0-.7,0-1.12.941-1.114.91.005.968.363.963,1.1-.029,4.332,0,8.665-.032,13-.006.755.178,1.011.957.967a28.408,28.408,0,0,1,3.628,0c.9.065,1.082-.226,1.077-1.089-.039-6.674-.02-13.348-.022-20.022,0-3.52-1.472-5.624-4.921-6.952M37.32,10.923c-.125-1.8.807-2.5,2.306-2.922,3.672-1.04,6.686-.1,8.907,3,.234.327.494.305.786.364a3.7,3.7,0,0,1,3.067,2.712,3.636,3.636,0,0,1-1.034,3.746,2.641,2.641,0,0,0,.3,3.3.624.624,0,0,0,.542.093,5.311,5.311,0,0,0,4.08-4.734c.053-1.755.043-3.514,0-5.27-.045-1.932-1.269-3.925-3.128-4.194-2.057-.3-3.177-1.617-4.442-2.889a6.86,6.86,0,0,0-4.9-2.155q-2.166-.037-4.334,0a4.765,4.765,0,0,0-4.594,3.649c-.529,1.991.334,3.988,2.442,5.3m-7.283,27.54c0-.742.033-1.485-.005-2.225A11.033,11.033,0,0,0,24,26.6c-.782-.434-1.183-.463-1.577.542-1.574,4.024-3.234,8.016-4.927,11.992a7.733,7.733,0,0,0-.6,3.288c.012.58.114.819.764.8,1.991-.043,3.983-.037,5.974,0,.6.01.814-.141.792-.772-.047-1.365.034-2.735-.033-4.1-.038-.768.329-.8.906-.775.542.027,1.069-.12,1.012.789-.086,1.361-.032,2.732-.013,4.1,0,.264-.17.6.306.749a2.671,2.671,0,0,0,3.433-2.411q0-1.172,0-2.343M45.978,25.65a4.11,4.11,0,0,1-.006.7c-.165.942.222,1.132,1.078.906.977-.258,1.98-.421,2.968-.639.239-.053.656.035.617-.357-.134-1.348.472-2.766-.529-4.041a7.014,7.014,0,0,1-1.321-4.165.963.963,0,0,1,.528-1.029,2.036,2.036,0,0,0,1.248-2.483c-.368-1.176-1.341-1.415-2.441-1.324-.75.062-1.4.083-1.232-1.023.088-.591-.376-1-.809-1.345A6.159,6.159,0,0,0,39.8,9.933a.9.9,0,0,0-.624.874q-.306,2.67-.649,5.336c-.071.553,0,.951.689.819,1.051-.2,1.273.322,1.141,1.223a6.216,6.216,0,0,0-.007.935,3.216,3.216,0,0,0,4.17,3.375c1.07-.209,2.152-.373,3.2-.652.694-.184.9-.016,1.089.679.289,1.06-.33,1.113-1.044,1.24-1.8.318-1.793.33-1.793,1.889M17.344,8.53c-.741,0-1.483-.017-2.224,0a2.808,2.808,0,0,0-2.888,2.88c-.02.663-.024,1.328,0,1.99.02.488-.021.806-.661.765-1.089-.07-1.337.61-1.172,1.526a3.061,3.061,0,0,0,1.021,1.927,2.4,2.4,0,0,1,.826,2.158c0,1.23-.56,2.924.227,3.565.756.616,2.383.183,3.626.17.281,0,.746.244.807-.343.047-.451.007-.817-.546-.971A9.128,9.128,0,0,1,14.234,21c-.481-.287-.571-.485-.285-1.066.546-1.109,1.063-.694,1.762-.223,2.98,2.01,5.834.852,6.6-2.664a24.4,24.4,0,0,0,.179-6.065A2.685,2.685,0,0,0,19.8,8.539c-.818-.037-1.639-.007-2.458-.009m.825-6.562v.006c-1.288,0-2.576-.04-3.862.007a7.187,7.187,0,0,0-6.1,10.2c.8,1.568.627,1.156,1.884.349.467-.3.237-.783.25-1.179a4.691,4.691,0,0,1,4.687-4.7c1.56-.027,3.121,0,4.681-.009a4.587,4.587,0,0,1,2.138.518c1.286.652,1.487.606,2.051-.707A6.672,6.672,0,0,0,24.367,4.9a2.33,2.33,0,0,0-2.453-2.926c-1.248-.022-2.5,0-3.745,0m-12.5,49.5c0,1.421.061,2.659-.021,3.889-.057.864.267,1,1.047.995,4.953-.036,9.905-.018,14.858-.018,2.988,0,2.964,0,2.881-3-.018-.642-.224-.763-.807-.758-2.925.026-5.85.047-8.774,0-3.052-.047-6.166.437-9.185-1.109M38.49,36.742a17.641,17.641,0,0,0-.947,5.414q0,5.736,0,11.471c0,2.749,0,2.719,2.8,2.731.763,0,.973-.2.963-.963-.043-3.316-.036-6.633-.006-9.95.007-.769-.329-1.649.547-2.243.266-.181-.011-.428-.109-.607-1.03-1.874-2.074-3.741-3.251-5.855m-2.761,2.089c-1.288,1.294-2.6,2.559-3.855,3.888s-2.577,2.436-4.635,2.394a4.931,4.931,0,0,1,.169,5.489c3.7.69,5.927-1.5,8.078-3.844a.862.862,0,0,0,.178-.648c.029-2.408-.129-4.823.064-7.279m-15.063,9c0,3,0,3,2.846,2.887a2.725,2.725,0,0,0,2.776-2.706,2.868,2.868,0,0,0-2.741-2.915c-2.881-.177-2.881-.177-2.881,2.734M45.6,38.776c-.406-1.819-.787-3.484-1.144-5.154-.1-.456-.2-.76-.8-.741-.629.019-.657.37-.708.822-.2,1.776-.394,3.554-.637,5.325-.138,1.013.613,1.628.971,2.419a.218.218,0,0,0,.382.04,8.622,8.622,0,0,0,1.935-2.71M15.963,38.17c.351-1.381,1.205-2.259,1.085-3.379-.183-1.7-.565-3.381-.82-5.077-.069-.459-.265-.569-.684-.573-.456,0-.693.091-.763.618-.17,1.274-.422,2.537-.64,3.8a1.582,1.582,0,0,0,.127,1.019c.533,1.081,1.033,2.179,1.694,3.587M49.335,28.6c-.774.383-1.574.069-1.895.706-.5.993-1.377,1.921-1.31,3.057a23.051,23.051,0,0,0,.8,3.684l.224,0L49.335,28.6M18.545,31.67c.738-1.767,1.445-3.382,2.069-5.028.115-.3.814-.831-.043-1.1a1.147,1.147,0,0,0-1.562.463,6.022,6.022,0,0,0-.465,5.66m-8.523-6.132,2.552,5.444a4.82,4.82,0,0,0-.282-4.416c-.553-.972-1.069-1.422-2.27-1.027m7.262-.133c-1.187,0-2.119,0-3.051,0a2.653,2.653,0,0,0-.43.095c.544.665.315,1.77,1.641,1.807,1.378.039,1.25-1.068,1.841-1.905M41,32.224c-1.8,2.127-1.834,3.081-.219,4.223.04-1.37.494-2.7.219-4.223m4.079-2.638c-.713.249-1.574-.187-1.892.762-.08.238-.149.609.355.689,1.083.172,1.272-.569,1.538-1.451" transform="translate(0 0)" fill="#030303"/>
        <path id="Trazado_718276" data-name="Trazado 718276" d="M8.1,122.472c.115-1.638-.239-3.641.226-5.606a8.587,8.587,0,0,1,5.113-6.132c.564-.253.863-.243,1.159.4,2.107,4.557,4.252,9.1,6.394,13.636a7.018,7.018,0,0,1,.216,2.763c.021.333-.255.327-.49.327-1.522,0-3.044-.023-4.566.012-.633.014-.554-.369-.554-.759,0-1.366-.043-2.733.019-4.1.034-.739-.288-.838-.89-.788-.523.043-1.078-.153-1.027.773.082,1.478.015,2.964.024,4.447.009,1.611.667,2.283,2.263,2.288,2.693.009,5.386.024,8.078-.013.683-.009.967.11.927.879-.07,1.362-.024,2.731-.017,4.1,0,.373.021.689-.525.669-3.193-.117-6.415.33-9.578-.222a8.258,8.258,0,0,1-6.769-8.113c-.02-1.4,0-2.809,0-4.558" transform="translate(-6.185 -84.645)" fill="#eeceb2"/>
        <path id="Trazado_718277" data-name="Trazado 718277" d="M192.2,120.65c3.449,1.329,4.92,3.432,4.921,6.953,0,6.674-.017,13.348.022,20.022,0,.863-.182,1.153-1.077,1.089a28.366,28.366,0,0,0-3.627,0c-.779.044-.963-.211-.957-.967.036-4.332,0-8.665.032-13,0-.732-.053-1.089-.963-1.1-.944-.006-.945.414-.941,1.115.023,4.293-.019,8.587.036,12.879.011.905-.248,1.118-1.1,1.066-1.244-.076-2.5-.044-3.745-.008-.568.016-.823-.082-.817-.747.034-3.473.023-6.947.006-10.421a1.21,1.21,0,0,1,.473-1,20.123,20.123,0,0,0,6.126-10.286c.487-1.879,1.07-3.733,1.612-5.6m-4.439,19.484a.95.95,0,0,0-1.022-.8.925.925,0,0,0,.085,1.846c.588-.007.879-.389.937-1.044m-.007,3.825c-.109-.56-.422-.92-1.015-.877a.924.924,0,0,0,.083,1.846c.588-.006.88-.388.932-.969" transform="translate(-140.835 -92.354)" fill="#eeceb3"/>
        <path id="Trazado_718278" data-name="Trazado 718278" d="M150.661,17.305c-2.108-1.312-2.97-3.309-2.442-5.3a4.765,4.765,0,0,1,4.594-3.649q2.166-.039,4.334,0a6.861,6.861,0,0,1,4.9,2.155c1.265,1.272,2.385,2.591,4.442,2.889,1.859.269,3.083,2.262,3.128,4.194.041,1.756.051,3.515,0,5.27a5.311,5.311,0,0,1-4.08,4.734.624.624,0,0,1-.542-.093,2.641,2.641,0,0,1-.3-3.3,3.635,3.635,0,0,0,1.034-3.746,3.7,3.7,0,0,0-3.067-2.712c-.292-.059-.552-.038-.786-.365-2.221-3.1-5.235-4.039-8.907-3-1.5.424-2.431,1.122-2.306,2.921" transform="translate(-113.341 -6.382)" fill="#646b76"/>
        <path id="Trazado_718279" data-name="Trazado 718279" d="M85.183,124.355q0,1.171,0,2.343a2.671,2.671,0,0,1-3.434,2.411c-.475-.149-.3-.485-.306-.75-.019-1.366-.072-2.737.013-4.1.057-.909-.47-.761-1.012-.789-.576-.029-.944.007-.906.775.067,1.363-.014,2.734.033,4.1.022.631-.195.782-.792.772-1.991-.034-3.983-.04-5.974,0-.65.014-.752-.225-.764-.8a7.731,7.731,0,0,1,.6-3.288c1.693-3.976,3.353-7.968,4.927-11.992.393-1.005.8-.976,1.577-.542a11.033,11.033,0,0,1,6.034,9.636c.038.74.005,1.484.007,2.225" transform="translate(-55.145 -85.891)" fill="#edceb2"/>
        <path id="Trazado_718280" data-name="Trazado 718280" d="M171.66,56.558c0-1.56,0-1.571,1.793-1.889.714-.126,1.333-.18,1.044-1.24-.189-.7-.395-.863-1.089-.679-1.051.279-2.133.443-3.2.652a3.216,3.216,0,0,1-4.17-3.375,6.161,6.161,0,0,1,.007-.935c.131-.9-.09-1.426-1.141-1.223-.687.133-.761-.265-.69-.819q.344-2.666.649-5.336a.9.9,0,0,1,.624-.874,6.158,6.158,0,0,1,6.278.919c.433.343.9.754.809,1.345-.165,1.106.482,1.085,1.232,1.023,1.1-.091,2.073.148,2.441,1.324A2.036,2.036,0,0,1,175,47.933a.962.962,0,0,0-.528,1.029,7.014,7.014,0,0,0,1.321,4.165c1,1.276.4,2.693.529,4.041.039.393-.378.3-.617.357-.989.218-1.991.38-2.969.639-.856.226-1.243.036-1.078-.906a4.113,4.113,0,0,0,.006-.7" transform="translate(-125.682 -30.908)" fill="#eccdb1"/>
        <path id="Trazado_718281" data-name="Trazado 718281" d="M51.142,36.342c.819,0,1.64-.029,2.458.008A2.685,2.685,0,0,1,56.288,38.8a24.393,24.393,0,0,1-.179,6.065c-.767,3.515-3.621,4.674-6.6,2.664-.7-.471-1.216-.886-1.762.223-.286.581-.2.779.285,1.066a9.123,9.123,0,0,0,2.131,1.2c.553.154.593.52.546.971-.061.587-.526.34-.807.343-1.244.013-2.87.447-3.626-.17-.787-.641-.229-2.335-.227-3.565a2.4,2.4,0,0,0-.827-2.158A3.061,3.061,0,0,1,44.2,43.5c-.166-.916.083-1.6,1.172-1.526.641.041.681-.276.661-.765-.027-.662-.023-1.327,0-1.99a2.808,2.808,0,0,1,2.888-2.879c.741-.021,1.483,0,2.224,0" transform="translate(-33.798 -27.81)" fill="#edceb2"/>
        <path id="Trazado_718282" data-name="Trazado 718282" d="M42.626,8.362c1.248,0,2.5-.017,3.745,0a2.33,2.33,0,0,1,2.453,2.926,6.667,6.667,0,0,1-.468,1.562c-.563,1.313-.765,1.359-2.05.707a4.587,4.587,0,0,0-2.138-.518c-1.56.013-3.121-.018-4.681.009a4.692,4.692,0,0,0-4.687,4.7c-.013.4.217.879-.25,1.179-1.257.807-1.082,1.219-1.884-.349a7.187,7.187,0,0,1,6.1-10.2c1.285-.047,2.574-.007,3.862-.007V8.362" transform="translate(-24.456 -6.394)" fill="#af7745"/>
        <path id="Trazado_718283" data-name="Trazado 718283" d="M24.073,219.467c3.019,1.547,6.132,1.063,9.185,1.109,2.924.045,5.849.024,8.774,0,.584-.005.79.115.807.758.082,3,.106,3-2.881,3-4.953,0-9.905-.018-14.858.018-.781.006-1.1-.13-1.048-1,.081-1.229.021-2.468.021-3.889" transform="translate(-18.406 -167.995)" fill="#efcfb3"/>
        <path id="Trazado_718284" data-name="Trazado 718284" d="M161.017,156.661c1.177,2.114,2.221,3.981,3.25,5.855.1.179.375.426.109.606-.876.594-.54,1.474-.547,2.243-.03,3.316-.038,6.633.006,9.949.01.767-.2.966-.963.963-2.8-.013-2.8.017-2.8-2.732q0-5.736,0-11.471a17.634,17.634,0,0,1,.948-5.413" transform="translate(-122.528 -119.919)" fill="#eeceb2"/>
        <path id="Trazado_718285" data-name="Trazado 718285" d="M124.63,165.57c-.194,2.456-.036,4.87-.065,7.279a.86.86,0,0,1-.178.648c-2.151,2.345-4.374,4.534-8.078,3.845a4.932,4.932,0,0,0-.169-5.489c2.058.042,3.39-1.07,4.635-2.394s2.567-2.595,3.854-3.888" transform="translate(-88.901 -126.738)" fill="#ecccb1"/>
        <path id="Trazado_718286" data-name="Trazado 718286" d="M88.114,194.795c0-2.91,0-2.91,2.881-2.733a2.868,2.868,0,0,1,2.741,2.915,2.725,2.725,0,0,1-2.776,2.706c-2.846.11-2.846.11-2.846-2.887" transform="translate(-67.448 -146.968)" fill="#eccdb1"/>
        <path id="Trazado_718287" data-name="Trazado 718287" d="M183.63,146.085a8.616,8.616,0,0,1-1.935,2.71.218.218,0,0,1-.382-.04c-.358-.791-1.11-1.406-.971-2.419.242-1.771.437-3.548.637-5.325.051-.452.079-.8.708-.822.6-.018.7.285.8.742.358,1.67.738,3.336,1.144,5.154" transform="translate(-138.034 -107.31)" fill="#f77e6a"/>
        <path id="Trazado_718288" data-name="Trazado 718288" d="M62.016,133.28c-.661-1.408-1.161-2.505-1.694-3.587a1.585,1.585,0,0,1-.127-1.019c.218-1.268.47-2.531.64-3.8.07-.527.307-.623.763-.618.419,0,.615.113.684.573.254,1.7.637,3.375.82,5.077.12,1.119-.734,2-1.085,3.379" transform="translate(-46.053 -95.11)" fill="#e7c8ad"/>
        <path id="Trazado_718289" data-name="Trazado 718289" d="M199.883,121.94l-2.185,7.451-.224,0a23.082,23.082,0,0,1-.8-3.684c-.067-1.136.81-2.064,1.31-3.057.321-.637,1.121-.322,1.895-.706" transform="translate(-150.548 -93.341)" fill="#e4c6ab"/>
        <path id="Trazado_718290" data-name="Trazado 718290" d="M77.494,114.642a6.022,6.022,0,0,1,.465-5.66,1.147,1.147,0,0,1,1.562-.463c.857.264.158.792.043,1.1-.624,1.646-1.331,3.26-2.069,5.028" transform="translate(-58.949 -82.972)" fill="#e2c4aa"/>
        <path id="Trazado_718291" data-name="Trazado 718291" d="M42.732,108.422c1.2-.4,1.717.055,2.27,1.027a4.822,4.822,0,0,1,.282,4.417l-2.552-5.443" transform="translate(-32.71 -82.884)" fill="#e2c4aa"/>
        <path id="Trazado_718292" data-name="Trazado 718292" d="M62.333,108.323c-.591.837-.462,1.944-1.841,1.905-1.326-.037-1.1-1.142-1.64-1.807a2.653,2.653,0,0,1,.43-.095c.932-.005,1.864,0,3.051,0" transform="translate(-45.049 -82.917)" fill="#ecccb1"/>
        <path id="Trazado_718293" data-name="Trazado 718293" d="M170.265,137.4c.275,1.522-.179,2.853-.219,4.223-1.615-1.143-1.579-2.1.219-4.223" transform="translate(-129.267 -105.171)" fill="#e2c4aa"/>
        <path id="Trazado_718294" data-name="Trazado 718294" d="M185.84,126.149c-.266.883-.455,1.623-1.538,1.451-.5-.08-.434-.451-.355-.689.318-.949,1.179-.513,1.892-.762" transform="translate(-140.763 -96.563)" fill="#f77e6a"/>
        <path id="Trazado_718295" data-name="Trazado 718295" d="M193.976,201.093c-.058.656-.349,1.038-.937,1.044a.925.925,0,0,1-.085-1.846.95.95,0,0,1,1.022.8" transform="translate(-147.047 -153.313)" fill="#0f0d0b"/>
        <path id="Trazado_718296" data-name="Trazado 718296" d="M193.969,217.162c-.052.58-.343.962-.932.969a.924.924,0,0,1-.083-1.846c.592-.043.906.317,1.015.877" transform="translate(-147.047 -165.556)" fill="#0f0d0b"/>
      </g>
    </g>
  </g>
</svg>
