<svg xmlns="http://www.w3.org/2000/svg" xmlns:xlink="http://www.w3.org/1999/xlink" width="116.999" height="115" viewBox="0 0 116.999 115">
  <defs>
    <clipPath id="clip-path">
      <rect id="Rect치ngulo_350171" data-name="Rect치ngulo 350171" width="59.077" height="59.122" fill="none"/>
    </clipPath>
  </defs>
  <g id="Grupo_1018025" data-name="Grupo 1018025" transform="translate(-742 -2286.564)">
    <g id="Grupo_1017402" data-name="Grupo 1017402" transform="translate(316.563 -5211.906)">
      <g id="Grupo_1015374" data-name="Grupo 1015374" transform="translate(425.927 7498.205)">
        <g id="Grupo_1015448" data-name="Grupo 1015448" transform="translate(0 0)">
          <g id="Grupo_1014855" data-name="Grupo 1014855" transform="translate(0 0)">
            <path id="Uni칩n_12" data-name="Uni칩n 12" d="M58.5,0C90.809,0,117,25.744,117,57.5S90.809,115,58.5,115,0,89.256,0,57.5,26.192,0,58.5,0Z" transform="translate(-0.49 0.265)" fill="#81c539"/>
            <ellipse id="Elipse_4842" data-name="Elipse 4842" cx="49" cy="49.5" rx="49" ry="49.5" transform="translate(9.51 7.265)" fill="#fff"/>
          </g>
        </g>
      </g>
    </g>
    <g id="Grupo_1017407" data-name="Grupo 1017407" transform="translate(770.462 2314.504)">
      <g id="Grupo_1017402-2" data-name="Grupo 1017402" clip-path="url(#clip-path)">
        <path id="Trazado_718208" data-name="Trazado 718208" d="M7.861,15.489c-2.712-1.863-2.1-3.877-.765-6.175C8.683,6.581,9.981,3.679,11.377.837A1.174,1.174,0,0,1,12.587,0q16.97.044,33.939.01a1.032,1.032,0,0,1,1.091.65q2.724,5.54,5.515,11.048a1.371,1.371,0,0,1-.018,1.436,8.8,8.8,0,0,1-1.686,2.241c.094.432.449.334.683.425,3.926,1.518,6.361,4.33,6.868,8.508A9.844,9.844,0,0,1,54.5,34.053c-.71.5-1.376.9-1.158,1.938.068.325.083.571.443.739,4.237,1.978,6.372,6.654,4.749,12.267a13.981,13.981,0,0,1-13.244,10.09q-15.779.059-31.557,0A13.913,13.913,0,0,1,.008,44.956a8.982,8.982,0,0,1,4.48-7.793c1.736-1.089,1.751-1.9.034-3.126A9.914,9.914,0,0,1,.06,24.509a9.98,9.98,0,0,1,6.273-8.451c.419-.19.863-.323,1.528-.569m8.672.395c2.225,2.535,2.15,3.908-.33,6.484-.078.081-.234.2-.215.243.488,1.19-.179,2.614,1.093,3.713,1.772,1.53,1.238,3.783-.959,4.567a1.094,1.094,0,0,0-.9,1.241,2.709,2.709,0,0,1-2.238,3.058c-1.071.27-.476.985-.581,1.49-.142.684.441.5.786.5q16.362.011,32.724,0c.375,0,.913.114.753-.534-.117-.477.488-1.147-.5-1.433-1.758-.511-2.3-1.318-2.329-3.234a.909.909,0,0,0-.7-1.025c-2.5-.928-2.9-2.933-1.008-4.865.324-.332.755-.6.737-1.157-.038-1.235.573-2.63-1.007-3.461-.323-.17-.506-.7-.652-1.1-.656-1.805.021-3.242,1.355-4.476a5.259,5.259,0,0,1-.816-.733c-.531-.731-.884-.718-1.563-.034a6.945,6.945,0,0,1-10-.124c-.577-.591-.794-.508-1.318.025a7.012,7.012,0,0,1-9.4.647c-.49-.381-1.007-1.2-1.39-1.131-.551.1-.99.823-1.539,1.339M36.2,53.089c1.66-.158,3.23-.333,4.8-.444.678-.048.943-.247.93-.993a15.742,15.742,0,0,1,4.389-11.447c.262-.279.488-.583.31-.944s-.567-.161-.853-.161q-16.242-.016-32.483,0c-.3,0-.75-.242-.9.25-.122.392.163.652.411.922a15.8,15.8,0,0,1,4.319,11.359c-.012.73.218.957.914,1,1.578.109,3.151.292,4.82.455,0-.817.005-1.644,0-2.472a2.557,2.557,0,0,1,1.17-2.339,1.517,1.517,0,0,0,.757-1.532,2.794,2.794,0,0,1,2.833-2.888c1.268-.037,2.539-.035,3.807,0a2.746,2.746,0,0,1,2.834,2.752,1.9,1.9,0,0,0,.943,1.807,2.492,2.492,0,0,1,1,2.184c0,.828,0,1.655,0,2.484m7.07,4.105c.6,0,1.19,0,1.785,0A12.078,12.078,0,0,0,56.8,48.035c1.037-4.028-.218-7.507-3.328-9.34a1.784,1.784,0,0,0-1.982-.06,14.172,14.172,0,0,0-7.683,12.547c-.044,1.047.325,1.173,1.2.955a8.471,8.471,0,0,0,6.377-7.456c.12-1.174.82-.766,1.39-.819.867-.082.57.582.539.976a10.417,10.417,0,0,1-7.5,9.038,25.089,25.089,0,0,1-4.942.655c-1.553.125-.663,1.214-.84,1.857-.237.862.4.825.979.811.753-.018,1.507,0,2.261,0M1.893,44.831a12.61,12.61,0,0,0,.7,4.243c.928,2.641,1.871,2.878,3.993,1a1.065,1.065,0,0,1,.089-.079.847.847,0,0,0,.24-1.307,9.361,9.361,0,0,1-1.152-3.843c-.038-.389-.342-1.061.529-.98.567.052,1.273-.363,1.393.816a8.488,8.488,0,0,0,6.5,7.489c.8.176,1.112.058,1.081-.869A14.171,14.171,0,0,0,7.566,38.627a1.749,1.749,0,0,0-1.981.079,7.316,7.316,0,0,0-3.692,6.125m8.581-6.884c0-.662.008-1.366,0-2.07,0-.215.093-.554-.238-.571-1.318-.067-.681-1.067-.654-1.583.037-.7.754-.251,1.159-.334a4.511,4.511,0,0,1,1.187-.013c1.015.067,1.422-.386,1.424-1.405,0-2.064.037-2.064,1.966-2.814.037-.014.074-.027.112-.04.892-.317,1.051-.869.336-1.479a3.868,3.868,0,0,1-1.488-3.557c.08-.768-.339-1.188-1.132-1.188-1.23,0-2.462-.04-3.69.017a1.751,1.751,0,0,0-1.8,1.712,1.2,1.2,0,0,1-.76,1.148c-1.392.707-1.668,2.066-.5,3.076a3.4,3.4,0,0,1,1.229,3.226c-.046.432.053.882-.017,1.307-.381,2.3.2,4.012,2.867,4.568m38.117.024c2.278-.6,3.361-1.908,2.875-4.272-.118-.571.035-1.193-.029-1.782a3.238,3.238,0,0,1,1.177-3.01c1.217-1.084.965-2.4-.476-3.161a1.12,1.12,0,0,1-.72-1.049,1.824,1.824,0,0,0-1.969-1.8c-1.071-.031-2.145.031-3.215-.018-1.086-.05-1.538.421-1.459,1.487a3.171,3.171,0,0,1-.676,2.448c-1.614,1.88-1.6,1.89.823,2.739.395.138.8.164.835.794.048.921-.456,2.019.339,2.728.756.673,1.833.181,2.76.3.282.035.745-.129.67.392-.072.5.379,1.338-.274,1.443-.855.137-.642.611-.656,1.074-.018.555,0,1.111,0,1.689M8.219,11.454c3.029,0,5.872,0,8.714,0a.573.573,0,0,0,.624-.423l3.016-9.107a34.258,34.258,0,0,1-4.639-.039c-2.264-.32-3.492.5-4.318,2.635-.906,2.338-2.2,4.527-3.4,6.929m42.638,0c-1.572-3.139-3.08-6.122-4.554-9.122-.212-.431-.518-.4-.87-.4-2.059,0-4.119.014-6.178-.009-.582-.007-.767.092-.548.725.941,2.724,1.838,5.464,2.74,8.2.121.368.252.619.717.616,2.837-.017,5.674-.008,8.694-.008m-31.423,0c2.973,0,5.817-.007,8.661.007.468,0,.487-.256.487-.6-.005-2.778-.012-5.556.006-8.334,0-.472-.16-.608-.616-.6-1.587.021-3.175.018-4.762,0a.689.689,0,0,0-.8.516c-.968,2.965-1.956,5.924-2.98,9.016m20.2,0c-1.026-3.1-2.019-6.09-3-9.083-.122-.369-.37-.451-.727-.448-1.585.013-3.17.025-4.754-.005-.531-.01-.671.18-.667.686q.029,4.1,0,8.2c0,.539.2.662.694.659,2.77-.018,5.54-.009,8.46-.009M5.629,32.3a2.043,2.043,0,0,0-.677-2.191,3.639,3.639,0,0,1,.234-5.544,2.464,2.464,0,0,0,.756-1.016,3.733,3.733,0,0,1,3.74-2.565c1.505-.015,3.011.021,4.516-.013a1.9,1.9,0,1,0-.038-3.793c-1.228-.029-2.456-.011-3.684-.006a8.359,8.359,0,0,0-8.471,7.011C1.41,27.3,3.1,31.085,5.629,32.3m47.8-.021c.3.07.471-.121.64-.269a8.074,8.074,0,0,0,2.8-8.548A7.981,7.981,0,0,0,50.652,17.4a24.978,24.978,0,0,0-5.573-.218,1.909,1.909,0,0,0-2.2,1.94,1.934,1.934,0,0,0,2.175,1.854c1.508.017,3.017-.024,4.524.013a3.667,3.667,0,0,1,3.5,2.411,2.856,2.856,0,0,0,.778,1.144,3.635,3.635,0,0,1,.19,5.63,2,2,0,0,0-.613,2.1M29.585,49.573c-1.19,0-2.381.011-3.571,0-.836-.011-1.265.361-1.244,1.212a8.36,8.36,0,0,0,1.036,4.784A2.886,2.886,0,0,0,29,57.2a5.1,5.1,0,0,1,1.07,0c1.435.147,2.743.094,3.068-1.727a.342.342,0,0,1,.132-.195c1.2-.844,1.049-2.1,1.023-3.319-.005-.238,0-.476,0-.714-.007-1.5-.16-1.664-1.615-1.67-1.032,0-2.063,0-3.1,0M4.952,53.111a11.249,11.249,0,0,0,6.837,3.841c4.178.555,8.389.155,12.585.21.044,0,.089-.1.154-.185a3.258,3.258,0,0,0-2.887-2.106c-.9-.108-1.812-.2-2.72-.269-3.689-.277-7.409-.453-10.2-3.409-.308-.327-.475-.06-.667.12a8.621,8.621,0,0,1-3.1,1.8M16.167,13.43H8.611c1.446,2.307,5.835,2.513,7.556,0m3.866-.006c1.6,2.48,6.158,2.367,7.532,0Zm19.029.044h-7.67a5,5,0,0,0,7.67,0m11.521-.037h-7.7c1.941,2.416,5.368,2.441,7.7,0M29.641,47.667c.594,0,1.192.039,1.781-.015.35-.032.933.321.97-.448.03-.634-.035-1.335-.773-1.39a29.529,29.529,0,0,0-4.153,0c-.744.05-.809.735-.8,1.373.015.792.6.442.952.469.67.051,1.346.015,2.019.015m4.932,9.528c1,0,1.968-.019,2.939.008.459.013.636-.144.6-.605-.031-.431-.015-.865,0-1.3.008-.337-.094-.458-.472-.465a3.19,3.19,0,0,0-3.066,2.36" transform="translate(0.001 0)" fill="#030303"/>
        <path id="Trazado_718209" data-name="Trazado 718209" d="M55.931,62.345c.549-.516.989-1.242,1.539-1.339.383-.068.9.751,1.39,1.131a7.011,7.011,0,0,0,9.4-.647c.524-.533.741-.616,1.318-.025a6.945,6.945,0,0,0,10,.124c.679-.685,1.032-.7,1.563.034a5.285,5.285,0,0,0,.817.734c-1.334,1.234-2.011,2.671-1.355,4.476.146.4.328.931.652,1.1,1.58.83.969,2.225,1.007,3.461.017.561-.413.826-.737,1.158-1.888,1.932-1.5,3.938,1.008,4.865a.91.91,0,0,1,.7,1.025c.033,1.916.57,2.723,2.328,3.234.985.286.38.956.5,1.433.159.648-.379.534-.753.534q-16.362,0-32.724,0c-.345,0-.928.186-.786-.5.1-.506-.49-1.22.581-1.49a2.71,2.71,0,0,0,2.238-3.058,1.093,1.093,0,0,1,.9-1.241c2.2-.785,2.73-3.037.959-4.567-1.272-1.1-.605-2.522-1.093-3.713-.019-.044.138-.163.215-.243,2.48-2.576,2.555-3.95.33-6.484M77.506,73.183a8.575,8.575,0,1,0-8.655,8.557,8.6,8.6,0,0,0,8.655-8.557" transform="translate(-39.397 -46.462)" fill="#e3e6e9"/>
        <path id="Trazado_718210" data-name="Trazado 718210" d="M170.884,179.778c-.754,0-1.508-.014-2.261,0-.583.014-1.216.05-.979-.811.177-.643-.713-1.732.84-1.857a25.124,25.124,0,0,0,4.942-.655,10.417,10.417,0,0,0,7.5-9.038c.031-.394.328-1.058-.539-.976-.569.054-1.27-.355-1.39.819a8.471,8.471,0,0,1-6.377,7.456c-.876.218-1.245.092-1.2-.956a14.173,14.173,0,0,1,7.683-12.547,1.784,1.784,0,0,1,1.982.06c3.11,1.833,4.366,5.312,3.328,9.34a12.078,12.078,0,0,1-11.741,9.159c-.595,0-1.19,0-1.785,0" transform="translate(-127.611 -122.583)" fill="#4ebee5"/>
        <path id="Trazado_718211" data-name="Trazado 718211" d="M7.943,167.394a7.316,7.316,0,0,1,3.692-6.125,1.748,1.748,0,0,1,1.981-.079,14.171,14.171,0,0,1,7.691,12.671c.031.927-.283,1.045-1.081.869a8.488,8.488,0,0,1-6.5-7.489c-.12-1.179-.826-.763-1.393-.816-.871-.08-.567.591-.529.98a9.358,9.358,0,0,0,1.152,3.843.847.847,0,0,1-.24,1.307,1.109,1.109,0,0,0-.089.079c-2.122,1.88-3.065,1.644-3.993-1a12.614,12.614,0,0,1-.7-4.243" transform="translate(-6.05 -122.562)" fill="#b1d97d"/>
        <path id="Trazado_718212" data-name="Trazado 718212" d="M28.565,111.055c-2.665-.556-3.248-2.273-2.867-4.568.071-.425-.028-.875.017-1.307a3.406,3.406,0,0,0-1.229-3.226c-1.171-1.01-.9-2.369.5-3.076a1.206,1.206,0,0,0,.76-1.148,1.751,1.751,0,0,1,1.8-1.712C28.77,95.961,30,96,31.232,96c.793,0,1.212.42,1.132,1.188a3.868,3.868,0,0,0,1.488,3.557c.715.61.556,1.162-.336,1.479-.037.013-.075.026-.112.04-1.929.75-1.962.75-1.966,2.814,0,1.019-.41,1.473-1.424,1.406a4.511,4.511,0,0,0-1.187.012c-.4.083-1.122-.367-1.159.334-.027.516-.664,1.516.654,1.582.332.017.235.357.238.571.012.7,0,1.408,0,2.07" transform="translate(-18.09 -73.108)" fill="#edcdb2"/>
        <path id="Trazado_718213" data-name="Trazado 718213" d="M185.924,111.073c0-.579-.014-1.135,0-1.689.015-.463-.2-.936.656-1.074.653-.1.2-.942.274-1.443.075-.521-.387-.357-.67-.392-.927-.115-2,.378-2.76-.3-.8-.709-.291-1.807-.339-2.728-.033-.63-.44-.655-.835-.794-2.425-.849-2.437-.859-.823-2.739a3.17,3.17,0,0,0,.676-2.448c-.079-1.066.373-1.537,1.459-1.487,1.07.049,2.144-.012,3.215.018a1.824,1.824,0,0,1,1.969,1.8,1.12,1.12,0,0,0,.72,1.049c1.442.765,1.693,2.077.476,3.161a3.237,3.237,0,0,0-1.177,3.01c.064.589-.089,1.21.029,1.781.486,2.364-.6,3.672-2.875,4.272" transform="translate(-137.333 -73.101)" fill="#edcdb2"/>
        <path id="Trazado_718214" data-name="Trazado 718214" d="M34.482,17.277c1.2-2.4,2.491-4.591,3.4-6.929C38.7,8.215,39.932,7.393,42.2,7.713a34.258,34.258,0,0,0,4.639.039L43.82,16.859a.573.573,0,0,1-.624.423c-2.842-.008-5.685,0-8.714,0" transform="translate(-26.263 -5.824)" fill="#fc816d"/>
        <path id="Trazado_718215" data-name="Trazado 718215" d="M174.255,17.587c-3.021,0-5.857-.008-8.694.008-.465,0-.6-.249-.716-.616-.9-2.738-1.8-5.478-2.74-8.2-.219-.633-.033-.732.548-.725,2.059.023,4.118.009,6.178.009.353,0,.658-.027.87.4,1.474,3,2.982,5.984,4.554,9.122" transform="translate(-123.398 -6.133)" fill="#fde8a5"/>
        <path id="Trazado_718216" data-name="Trazado 718216" d="M81.531,17.59c1.025-3.092,2.012-6.051,2.98-9.016a.689.689,0,0,1,.8-.516c1.587.017,3.175.02,4.762,0,.456-.006.619.13.616.6-.018,2.778-.011,5.556-.006,8.334,0,.348-.018.606-.487.6-2.844-.013-5.688-.007-8.661-.007" transform="translate(-62.097 -6.136)" fill="#fde8a5"/>
        <path id="Trazado_718217" data-name="Trazado 718217" d="M137.014,17.583c-2.92,0-5.69-.009-8.46.009-.5,0-.7-.119-.694-.659q.035-4.1,0-8.2c0-.506.136-.7.667-.686,1.584.03,3.169.018,4.754.005.357,0,.6.079.727.448.986,2.993,1.978,5.984,3,9.083" transform="translate(-97.384 -6.128)" fill="#fc816d"/>
        <path id="Trazado_718218" data-name="Trazado 718218" d="M11.655,87.154c-2.533-1.218-4.219-5-3.624-8.117A8.36,8.36,0,0,1,16.5,72.025c1.228,0,2.457-.023,3.684.007a1.9,1.9,0,1,1,.038,3.793c-1.505.034-3.011,0-4.516.013a3.733,3.733,0,0,0-3.74,2.565,2.464,2.464,0,0,1-.756,1.016,3.639,3.639,0,0,0-.234,5.544,2.043,2.043,0,0,1,.677,2.191" transform="translate(-6.025 -54.85)" fill="#ae7745"/>
        <path id="Trazado_718219" data-name="Trazado 718219" d="M190.443,87.046a2,2,0,0,1,.613-2.1,3.635,3.635,0,0,0-.19-5.63,2.853,2.853,0,0,1-.778-1.144,3.668,3.668,0,0,0-3.5-2.411c-1.507-.037-3.016,0-4.524-.013a1.934,1.934,0,0,1-2.175-1.854,1.909,1.909,0,0,1,2.2-1.94,24.98,24.98,0,0,1,5.574.218,7.981,7.981,0,0,1,6.224,6.061,8.074,8.074,0,0,1-2.8,8.547c-.169.148-.345.339-.64.27" transform="translate(-137.011 -54.764)" fill="#636b76"/>
        <path id="Trazado_718220" data-name="Trazado 718220" d="M108.732,207.963c1.032,0,2.063,0,3.1,0,1.455.007,1.608.168,1.615,1.67,0,.238,0,.476,0,.714.026,1.219.174,2.475-1.023,3.319a.341.341,0,0,0-.132.195c-.325,1.82-1.633,1.873-3.068,1.727a5.115,5.115,0,0,0-1.07,0,2.886,2.886,0,0,1-3.2-1.635,8.36,8.36,0,0,1-1.036-4.784c-.021-.851.409-1.222,1.244-1.212,1.19.015,2.381,0,3.571,0" transform="translate(-79.147 -158.39)" fill="#fde8a5"/>
        <path id="Trazado_718221" data-name="Trazado 718221" d="M20.777,216.2a8.617,8.617,0,0,0,3.1-1.8c.192-.179.359-.446.667-.12,2.79,2.956,6.51,3.133,10.2,3.409.908.068,1.816.16,2.72.269a3.258,3.258,0,0,1,2.887,2.106c-.065.081-.11.186-.153.185-4.2-.055-8.407.345-12.585-.21a11.249,11.249,0,0,1-6.837-3.841" transform="translate(-15.825 -163.087)" fill="#ebcbb0"/>
        <path id="Trazado_718222" data-name="Trazado 718222" d="M43.686,56.345c-1.72,2.513-6.11,2.307-7.555,0Z" transform="translate(-27.519 -42.915)" fill="#f66b4f"/>
        <path id="Trazado_718223" data-name="Trazado 718223" d="M84.047,56.319h7.532c-1.374,2.366-5.936,2.48-7.532,0" transform="translate(-64.014 -42.895)" fill="#f6d16d"/>
        <path id="Trazado_718224" data-name="Trazado 718224" d="M139.37,56.5a5,5,0,0,1-7.67,0Z" transform="translate(-100.308 -43.036)" fill="#f66b4f"/>
        <path id="Trazado_718225" data-name="Trazado 718225" d="M187.612,56.347c-2.332,2.441-5.759,2.416-7.7,0Z" transform="translate(-137.028 -42.916)" fill="#f6d16d"/>
        <path id="Trazado_718226" data-name="Trazado 718226" d="M114.856,193.821c-.674,0-1.35.036-2.019-.015-.348-.026-.937.324-.952-.469-.012-.637.053-1.323.8-1.373a29.529,29.529,0,0,1,4.153,0c.738.055.8.756.773,1.39-.036.768-.62.416-.97.448-.589.053-1.187.015-1.782.015" transform="translate(-85.215 -146.154)" fill="#f6d16d"/>
        <path id="Trazado_718227" data-name="Trazado 718227" d="M145.045,232.409a3.19,3.19,0,0,1,3.066-2.36c.379.007.481.128.472.465-.011.432-.026.867,0,1.3.033.461-.144.618-.6.605-.971-.027-1.942-.008-2.939-.008" transform="translate(-110.472 -175.215)" fill="#ebcbb0"/>
        <path id="Trazado_718228" data-name="Trazado 718228" d="M105.075,84.643a8.575,8.575,0,1,1-8.5-8.594,8.6,8.6,0,0,1,8.5,8.594m-8.57-.971a9.049,9.049,0,0,1,1.064.007c.757.09.757-.234.688-.88-.093-.884-.464-1.162-1.291-1.042a3.4,3.4,0,0,1-1.062,0c-1.224-.218-1.127.734-1.187,1.406-.083.935.705.36,1.083.5a2.192,2.192,0,0,0,.705.013m-.182,3.812a3.315,3.315,0,0,1,.551,0c1.241.3,1.421-.572,1.407-1.413-.018-1.066-.885-.357-1.337-.466a8.394,8.394,0,0,0-1.767-.034c-.388-.007-.5.1-.5.54.015,1.32.726,1.589,1.644,1.369m-4.969-3.727c.45-.331,1.14.342,1.4-.531.407-1.342.318-1.372-1.184-1.491-1.173-.093-1.519.54-1.526,1.433-.008,1.123.952.14,1.306.589m11.6-.086a1.752,1.752,0,0,0-2.636-1.877c-.629.34-.061.9-.079,1.356-.016.4.2.541.591.528.71-.023,1.421-.007,2.124-.007m-11.6,1.849c-.439.251-1.157-.324-1.323.367-.118.492.048,1.312.53,1.471a3.6,3.6,0,0,0,2.2.02c.453-.163.071-.92-.037-1.38-.2-.846-.943-.188-1.372-.477m10.381.056c-1.508,0-1.631.1-1.653,1.359-.018,1.065.8.493,1.2.519,1.222.08,1.825-.443,1.685-1.461-.121-.879-.914-.147-1.23-.417m-9.794,3.9a5.217,5.217,0,0,0,2.2,1.327C94,89.4,93.2,89.2,91.943,89.48m6.942,1.353a4.565,4.565,0,0,0,2.1-1.387c-1.171-.216-2.042-.1-2.1,1.387m2.2-11.049a5.371,5.371,0,0,0-2.2-1.338c.059,1.459.932,1.57,2.2,1.338m-9.123-.029c1.821.224,1.866.194,2.108-1.3a5.322,5.322,0,0,0-2.108,1.3m5.248,9.693a2.974,2.974,0,0,0-1.432.045c.267.355.3.809.736,1.035.362-.237.468-.617.7-1.08m-.689-10.869c-.34.483-.641.78-.648,1.291l1.382-.069-.734-1.222" transform="translate(-66.966 -57.921)" fill="#020303"/>
        <path id="Trazado_718229" data-name="Trazado 718229" d="M118.194,101.806a2.185,2.185,0,0,1-.705-.014c-.378-.137-1.166.438-1.083-.5.06-.672-.037-1.624,1.187-1.406a3.39,3.39,0,0,0,1.062,0c.828-.119,1.2.159,1.291,1.042.068.647.068.971-.688.881a9.048,9.048,0,0,0-1.064-.007" transform="translate(-88.655 -76.056)" fill="#66d1ee"/>
        <path id="Trazado_718230" data-name="Trazado 718230" d="M117.91,117.613c-.918.22-1.63-.049-1.644-1.368,0-.443.111-.548.5-.54a8.393,8.393,0,0,1,1.767.034c.452.109,1.319-.6,1.337.466.014.84-.166,1.711-1.407,1.413a3.277,3.277,0,0,0-.551,0" transform="translate(-88.552 -88.051)" fill="#66d1ee"/>
        <path id="Trazado_718231" data-name="Trazado 718231" d="M98.144,101.9c-.354-.449-1.314.533-1.306-.589.007-.893.352-1.526,1.526-1.433,1.5.119,1.591.149,1.184,1.491-.265.873-.954.2-1.4.531" transform="translate(-73.756 -76.061)" fill="#66d1ee"/>
        <path id="Trazado_718232" data-name="Trazado 718232" d="M141.615,101.56c-.7,0-1.414-.017-2.124.007-.4.013-.607-.128-.591-.528.019-.458-.549-1.016.079-1.356a1.753,1.753,0,0,1,2.636,1.877" transform="translate(-105.626 -75.81)" fill="#66d1ee"/>
        <path id="Trazado_718233" data-name="Trazado 718233" d="M97.979,115.787c.429.29,1.173-.368,1.372.477.108.46.491,1.217.038,1.38a3.6,3.6,0,0,1-2.2-.02c-.482-.159-.648-.978-.53-1.471.165-.691.884-.115,1.323-.367" transform="translate(-73.59 -88.188)" fill="#66d1ee"/>
        <path id="Trazado_718234" data-name="Trazado 718234" d="M140.593,115.92c.316.27,1.11-.462,1.23.417.14,1.018-.463,1.541-1.685,1.461-.4-.026-1.216.545-1.2-.519.021-1.26.145-1.359,1.653-1.359" transform="translate(-105.822 -88.265)" fill="#66d1ee"/>
        <path id="Trazado_718235" data-name="Trazado 718235" d="M104.785,132.05c1.257-.282,2.061-.075,2.2,1.327a5.219,5.219,0,0,1-2.2-1.327" transform="translate(-79.808 -100.492)" fill="#4ebee5"/>
        <path id="Trazado_718236" data-name="Trazado 718236" d="M133.907,133.377c.063-1.489.934-1.6,2.1-1.386a4.561,4.561,0,0,1-2.1,1.386" transform="translate(-101.989 -100.465)" fill="#4ebee5"/>
        <path id="Trazado_718237" data-name="Trazado 718237" d="M136.11,87.448c-1.264.233-2.136.121-2.2-1.338a5.372,5.372,0,0,1,2.2,1.338" transform="translate(-101.995 -65.585)" fill="#4ebee5"/>
        <path id="Trazado_718238" data-name="Trazado 718238" d="M104.853,87.442a5.319,5.319,0,0,1,2.108-1.3c-.243,1.5-.288,1.525-2.108,1.3" transform="translate(-79.86 -65.608)" fill="#4ebee5"/>
        <path id="Trazado_718239" data-name="Trazado 718239" d="M122.293,132.058c-.228.463-.334.843-.7,1.08-.432-.226-.469-.68-.736-1.035a2.974,2.974,0,0,1,1.432-.045" transform="translate(-92.053 -100.531)" fill="#66d1ee"/>
        <path id="Trazado_718240" data-name="Trazado 718240" d="M121.908,86.666l.734,1.222-1.382.069c.007-.511.308-.808.648-1.291" transform="translate(-92.356 -66.008)" fill="#66d1ee"/>
      </g>
    </g>
  </g>
</svg>
