<svg xmlns="http://www.w3.org/2000/svg" xmlns:xlink="http://www.w3.org/1999/xlink" width="116.999" height="115" viewBox="0 0 116.999 115">
  <defs>
    <clipPath id="clip-path">
      <rect id="Rect치ngulo_350167" data-name="Rect치ngulo 350167" width="56.891" height="60.626" fill="none"/>
    </clipPath>
  </defs>
  <g id="Grupo_1018021" data-name="Grupo 1018021" transform="translate(-327 -1721.564)">
    <g id="Grupo_1016332" data-name="Grupo 1016332" transform="translate(-98.438 -5776.906)">
      <g id="Grupo_1015374" data-name="Grupo 1015374" transform="translate(425.927 7498.205)">
        <g id="Grupo_1015448" data-name="Grupo 1015448" transform="translate(0 0)">
          <g id="Grupo_1014855" data-name="Grupo 1014855" transform="translate(0 0)">
            <path id="Uni칩n_12" data-name="Uni칩n 12" d="M58.5,0C90.809,0,117,25.744,117,57.5S90.809,115,58.5,115,0,89.256,0,57.5,26.192,0,58.5,0Z" transform="translate(-0.49 0.265)" fill="#81c539"/>
            <ellipse id="Elipse_4842" data-name="Elipse 4842" cx="49" cy="49.5" rx="49" ry="49.5" transform="translate(9.51 7.265)" fill="#fff"/>
          </g>
        </g>
      </g>
    </g>
    <g id="Grupo_1017395" data-name="Grupo 1017395" transform="translate(354.555 1748.751)">
      <g id="Grupo_1017394" data-name="Grupo 1017394" clip-path="url(#clip-path)">
        <path id="Trazado_718123" data-name="Trazado 718123" d="M28.371,34.651a18.155,18.155,0,0,1,6.72-5.1c.565-.239.534-.639.534-1.091,0-2.414.039-4.83-.021-7.242a1.889,1.889,0,0,1,1.1-1.953c3.323-1.835,6.605-3.745,9.908-5.618,1.341-.761,1.863-.459,1.865,1.077.006,4.542.018,9.084-.015,13.627a1.244,1.244,0,0,0,.866,1.371,17.192,17.192,0,0,1,6.346,4.915V33.034c0-7.243.02-14.486-.022-21.729a2.108,2.108,0,0,1,1.227-2.138c3.255-1.789,6.467-3.657,9.7-5.491,1.5-.85,2-.575,2,1.107q0,26.517.019,53.033c0,1.185-.433,1.587-1.589,1.569-3.11-.048-6.221-.016-9.331-.017-1.946,0-1.945,0-2.007-1.983-.006-.184.074-.4-.132-.544a17.7,17.7,0,0,1-26.95-.04c-.217.032-.222.19-.215.356.1,2.346-.112,2.215-2.23,2.212-2.988,0-5.975,0-8.963,0-1.526,0-1.639-.112-1.64-1.568,0-8.88.012-17.76-.021-26.639a1.828,1.828,0,0,1,1.08-1.829c3.318-1.846,6.6-3.749,9.9-5.623,1.365-.775,1.861-.5,1.864,1.044.007,3.183,0,6.366,0,9.9M66.852,31.7q0-12.4,0-24.8c0-1.4,0-1.4-1.249-.689-2.414,1.375-4.8,2.8-7.252,4.106a1.652,1.652,0,0,0-.964,1.734q.038,12.03,0,24.061a4.916,4.916,0,0,0,.483,2.114,16.63,16.63,0,0,1,.258,14.018,11.54,11.54,0,0,0-.744,4.519c-.019.737.293.888.947.881,2.414-.027,4.831-.059,7.243.013,1.012.03,1.3-.249,1.3-1.284-.043-8.225-.024-16.45-.024-24.674M26.641,25.633c-3.154,1.8-6.084,3.468-9.019,5.13-.469.266-.346.7-.348,1.087-.01,1.88,0,3.76,0,5.64q0,9.5,0,19c0,.53-.214,1.161.764,1.144,2.615-.046,5.232-.012,7.848-.021.3,0,.756.1.731-.4-.069-1.368.3-2.757-.319-4.1a17.218,17.218,0,0,1,.013-15.14,2.676,2.676,0,0,0,.339-1.157c-.012-3.636-.007-7.271-.007-11.19M41.991,61.31A15.751,15.751,0,1,0,26.314,45.49,15.776,15.776,0,0,0,41.991,61.31m4.7-32.624V15.606l-9.007,5.121a.645.645,0,0,0-.324.612q0,3.367,0,6.733c0,.41.131.605.577.5a18.261,18.261,0,0,1,8.757.115" transform="translate(-11.706 -2.421)" fill="#090806"/>
        <path id="Trazado_718124" data-name="Trazado 718124" d="M38.807,2.416c-1.014-.229-1.991-.435-2.96-.675-.553-.136-1.03-.406-.87-1.1s.692-.713,1.262-.582c1.75.4,3.5.816,5.249,1.2.832.184,1.02.656.825,1.444-.41,1.664-.764,3.341-1.151,5.01-.137.59-.357,1.158-1.124.991-.79-.172-.692-.794-.567-1.373.237-1.106.493-2.208.784-3.5-3.979,2.15-7.776,4.2-11.575,6.256Q15.433,17.247,2.185,24.4a6.68,6.68,0,0,1-.982.491.812.812,0,0,1-1.118-.453A.755.755,0,0,1,.451,23.4c.844-.5,1.708-.958,2.569-1.423Q20.414,12.587,37.806,3.193c.333-.18.773-.252,1-.777" transform="translate(0 -0.001)" fill="#080808"/>
        <path id="Trazado_718125" data-name="Trazado 718125" d="M195.362,39.482c0,8.225-.019,16.45.024,24.674.005,1.035-.286,1.314-1.3,1.284-2.412-.072-4.829-.04-7.243-.013-.654.007-.966-.144-.948-.88a11.536,11.536,0,0,1,.744-4.52,16.63,16.63,0,0,0-.258-14.018A4.915,4.915,0,0,1,185.9,43.9q.027-12.03,0-24.061a1.652,1.652,0,0,1,.964-1.733c2.449-1.308,4.838-2.731,7.252-4.106,1.245-.709,1.249-.706,1.249.69q0,12.4,0,24.8" transform="translate(-140.216 -10.205)" fill="#c2e591"/>
        <path id="Trazado_718126" data-name="Trazado 718126" d="M31.962,94.463c0,3.919-.005,7.555.007,11.19a2.678,2.678,0,0,1-.339,1.157,17.218,17.218,0,0,0-.012,15.14c.624,1.341.25,2.731.318,4.1.025.5-.429.4-.731.4-2.616.008-5.232-.026-7.848.02-.978.017-.763-.614-.764-1.144q-.009-9.5,0-19c0-1.88-.005-3.76,0-5.64,0-.389-.121-.821.348-1.087,2.936-1.662,5.866-3.335,9.02-5.13" transform="translate(-17.027 -71.25)" fill="#f56b81"/>
        <path id="Trazado_718127" data-name="Trazado 718127" d="M75.123,142.954a15.751,15.751,0,1,1,15.808-15.6,15.7,15.7,0,0,1-15.808,15.6M88.533,127.3a13.381,13.381,0,0,0-26.762-.166,13.381,13.381,0,1,0,26.762.166" transform="translate(-44.838 -84.065)" fill="#f6c754"/>
        <path id="Trazado_718128" data-name="Trazado 718128" d="M113.722,66.738a18.261,18.261,0,0,0-8.757-.115c-.446.107-.578-.088-.577-.5q.01-3.367,0-6.733a.645.645,0,0,1,.324-.612l9.007-5.121Z" transform="translate(-78.737 -40.472)" fill="#facb55"/>
        <path id="Trazado_718129" data-name="Trazado 718129" d="M95.665,134.671a13.382,13.382,0,1,1-13.216-13.449,13.383,13.383,0,0,1,13.216,13.449m-1.727-.057a11.655,11.655,0,0,0-23.31-.054,11.655,11.655,0,1,0,23.31.054" transform="translate(-51.97 -91.433)" fill="#090703"/>
        <path id="Trazado_718130" data-name="Trazado 718130" d="M99.239,139.91a11.655,11.655,0,1,1-11.546-11.668A11.655,11.655,0,0,1,99.239,139.91m-9.14,3.3a2.2,2.2,0,0,1-1.73,1.748,2.864,2.864,0,0,1-2.908-.847.809.809,0,0,0-1.29-.008.831.831,0,0,0,.154,1.289,5.68,5.68,0,0,0,1.391.983c.647.265,1.141.487,1.091,1.33a.834.834,0,1,0,1.666-.086c-.1-.745.318-.949.9-1.194a3.763,3.763,0,0,0,2.456-3.732,3.889,3.889,0,0,0-3.034-3.437c-.547-.143-1.131-.136-1.692-.233a2.1,2.1,0,0,1,.238-4.195,3.278,3.278,0,0,1,2.553.976c.413.4.877.509,1.29.078a.9.9,0,0,0-.091-1.317,3.625,3.625,0,0,0-1.736-1.108c-.691-.2-1.034-.506-.955-1.27a.8.8,0,0,0-.861-.96.764.764,0,0,0-.818.877c.168.952-.458,1.114-1.1,1.425a3.588,3.588,0,0,0-2.221,3.509,3.716,3.716,0,0,0,2.423,3.39,5.4,5.4,0,0,0,1.909.376,2.331,2.331,0,0,1,2.361,2.4" transform="translate(-57.271 -96.729)" fill="#f1b644"/>
        <path id="Trazado_718131" data-name="Trazado 718131" d="M113.041,152.391a2.331,2.331,0,0,0-2.361-2.4,5.4,5.4,0,0,1-1.909-.376,3.716,3.716,0,0,1-2.423-3.39,3.588,3.588,0,0,1,2.221-3.509c.639-.312,1.265-.473,1.1-1.425a.764.764,0,0,1,.818-.877.8.8,0,0,1,.861.96c-.079.764.263,1.071.955,1.27a3.625,3.625,0,0,1,1.736,1.108.9.9,0,0,1,.091,1.317c-.414.431-.877.322-1.29-.078a3.278,3.278,0,0,0-2.553-.976,2.1,2.1,0,0,0-.238,4.195c.561.1,1.145.09,1.692.233a3.889,3.889,0,0,1,3.034,3.437,3.763,3.763,0,0,1-2.456,3.732c-.579.244-.995.449-.9,1.194a.834.834,0,1,1-1.666.086c.05-.843-.444-1.065-1.091-1.33a5.68,5.68,0,0,1-1.391-.983.831.831,0,0,1-.154-1.289.809.809,0,0,1,1.29.008,2.864,2.864,0,0,0,2.907.847,2.2,2.2,0,0,0,1.73-1.748" transform="translate(-80.214 -105.907)" fill="#090702"/>
      </g>
    </g>
  </g>
</svg>
