<svg xmlns="http://www.w3.org/2000/svg" width="295" height="141" viewBox="0 0 295 141">
  <g id="Grupo_1018036" data-name="Grupo 1018036" transform="translate(-1019.668 -6308)">
    <rect id="Rectángulo_375666" data-name="Rectángulo 375666" width="295" height="141" transform="translate(1019.668 6308)" fill="#d9f9f8"/>
    <g id="PROCESAMIENTO_PARALELO" data-name="PROCESAMIENTO PARALELO" transform="translate(1080.477 6314.938)">
      <path id="Trazado_721410" data-name="Trazado 721410" d="M169.216,265.742H0v.085H169.216Z" transform="translate(0 -154.413)" fill="#ebebeb"/>
      <path id="Trazado_721411" data-name="Trazado 721411" d="M117.7,278.237H106.492v.085H117.7Z" transform="translate(-61.998 -161.688)" fill="#ebebeb"/>
      <path id="Trazado_721412" data-name="Trazado 721412" d="M205.565,276.04h-2.942v.084h2.942Z" transform="translate(-117.964 -160.408)" fill="#ebebeb"/>
      <path id="Trazado_721413" data-name="Trazado 721413" d="M48.987,272.619h-6.5v.085h6.5Z" transform="translate(-24.738 -158.417)" fill="#ebebeb"/>
      <path id="Trazado_721414" data-name="Trazado 721414" d="M324.481,271.258h-8.827v.085h8.827Z" transform="translate(-183.769 -157.624)" fill="#ebebeb"/>
      <path id="Trazado_721415" data-name="Trazado 721415" d="M297.387,271.258h-7.934v.085h7.934Z" transform="translate(-168.515 -157.624)" fill="#ebebeb"/>
      <path id="Trazado_721416" data-name="Trazado 721416" d="M320.245,280.979h-31.7v.084h31.7Z" transform="translate(-167.984 -163.284)" fill="#ebebeb"/>
      <path id="Trazado_721417" data-name="Trazado 721417" d="M98.23,96.236H32.879A1.934,1.934,0,0,1,30.948,94.3V2.443A1.934,1.934,0,0,1,32.879.511H98.23a1.934,1.934,0,0,1,1.932,1.932V94.3A1.934,1.934,0,0,1,98.23,96.236ZM32.879.6a1.849,1.849,0,0,0-1.847,1.847V94.3a1.849,1.849,0,0,0,1.847,1.847H98.23a1.849,1.849,0,0,0,1.847-1.847V2.443A1.849,1.849,0,0,0,98.23.6Z" transform="translate(-18.017)" fill="#ebebeb"/>
      <path id="Trazado_721418" data-name="Trazado 721418" d="M273.431,96.236h-65.35a1.934,1.934,0,0,1-1.932-1.932V2.443A1.934,1.934,0,0,1,208.081.511h65.35a1.934,1.934,0,0,1,1.932,1.932V94.3A1.934,1.934,0,0,1,273.431,96.236ZM208.081.6a1.849,1.849,0,0,0-1.847,1.847V94.3a1.849,1.849,0,0,0,1.847,1.847h65.35a1.849,1.849,0,0,0,1.847-1.847V2.443A1.849,1.849,0,0,0,273.431.6Z" transform="translate(-120.017)" fill="#ebebeb"/>
      <path id="Trazado_721419" data-name="Trazado 721419" d="M71.729,137.353H68.166v16.916h3.562Z" transform="translate(-39.685 -79.667)" fill="#a6f1ef"/>
      <path id="Trazado_721420" data-name="Trazado 721420" d="M71.954,140.467H69.539v11.468h2.415Z" transform="translate(-40.485 -81.48)" fill="#fafafa"/>
      <path id="Trazado_721421" data-name="Trazado 721421" d="M76.693,154.27H84.3V137.354H76.693Z" transform="translate(-44.65 -79.668)" fill="#e0e0e0"/>
      <path id="Trazado_721422" data-name="Trazado 721422" d="M82.038,137.353H78.475v16.916h3.562Z" transform="translate(-45.687 -79.667)" fill="#a6f1ef"/>
      <path id="Trazado_721423" data-name="Trazado 721423" d="M82.262,140.467H79.847v11.468h2.415Z" transform="translate(-46.486 -81.48)" fill="#fafafa"/>
      <path id="Trazado_721424" data-name="Trazado 721424" d="M87,154.27h7.608V137.354H87Z" transform="translate(-50.651 -79.668)" fill="#c2c2c2"/>
      <path id="Trazado_721425" data-name="Trazado 721425" d="M97.152,121.592H95.864v60.229h1.288Z" transform="translate(-55.811 -70.491)" fill="#ebebeb"/>
      <path id="Trazado_721426" data-name="Trazado 721426" d="M45.418,121.592H44.13v60.229h1.288Z" transform="translate(-25.692 -70.491)" fill="#c2c2c2"/>
      <path id="Trazado_721427" data-name="Trazado 721427" d="M110.448,121.592H109.16v60.229h1.288Z" transform="translate(-63.551 -70.491)" fill="#ebebeb"/>
      <path id="Trazado_721428" data-name="Trazado 721428" d="M58.713,121.592H57.425v60.229h1.288Z" transform="translate(-33.432 -70.491)" fill="#c2c2c2"/>
      <path id="Trazado_721429" data-name="Trazado 721429" d="M57.47,197.618H53.908v16.916H57.47Z" transform="translate(-31.384 -114.752)" fill="#a6f1ef"/>
      <path id="Trazado_721430" data-name="Trazado 721430" d="M57.7,200.732H55.281V212.2H57.7Z" transform="translate(-32.184 -116.565)" fill="#fafafa"/>
      <path id="Trazado_721431" data-name="Trazado 721431" d="M62.435,214.534h7.608V197.618H62.435Z" transform="translate(-36.349 -114.752)" fill="#e0e0e0"/>
      <path id="Trazado_721432" data-name="Trazado 721432" d="M67.779,197.618H64.217v16.916h3.562Z" transform="translate(-37.386 -114.752)" fill="#a6f1ef"/>
      <path id="Trazado_721433" data-name="Trazado 721433" d="M68,200.732H65.59V212.2H68Z" transform="translate(-38.185 -116.565)" fill="#fafafa"/>
      <path id="Trazado_721434" data-name="Trazado 721434" d="M72.743,214.534H80.35V197.618H72.743Z" transform="translate(-42.35 -114.752)" fill="#c2c2c2"/>
      <path id="Trazado_721435" data-name="Trazado 721435" d="M71.635,117.576H42.492v1.678H71.635Z" transform="translate(-24.738 -68.153)" fill="#a6f1ef"/>
      <path id="Trazado_721436" data-name="Trazado 721436" d="M71.635,177.84H42.492v1.678H71.635Z" transform="translate(-24.738 -103.238)" fill="#a6f1ef"/>
      <path id="Trazado_721437" data-name="Trazado 721437" d="M71.635,238.1H42.492v1.678H71.635Z" transform="translate(-24.738 -138.323)" fill="#a6f1ef"/>
      <path id="Trazado_721438" data-name="Trazado 721438" d="M65.581,51.58H85.5V26.545H65.581Z" transform="translate(-38.18 -15.157)" fill="#a6f1ef"/>
      <path id="Trazado_721439" data-name="Trazado 721439" d="M55.059,51.58h23.55V26.545H55.059Z" transform="translate(-32.054 -15.157)" fill="#c2c2c2"/>
      <path id="Trazado_721440" data-name="Trazado 721440" d="M59.78,31.267V52.356h19.6V31.267Z" transform="translate(-34.803 -17.906)" fill="#fff"/>
      <path id="Trazado_721441" data-name="Trazado 721441" d="M77.074,54.763a4.426,4.426,0,1,0-4.426-4.426A4.426,4.426,0,0,0,77.074,54.763Z" transform="translate(-42.295 -26.431)" fill="#a6f1ef"/>
      <path id="Trazado_721442" data-name="Trazado 721442" d="M175.494,61.476h75.393V17.608H175.494Z" transform="translate(-102.17 -9.953)" fill="#a6f1ef"/>
      <path id="Trazado_721443" data-name="Trazado 721443" d="M149.355,61.476h84.223V17.608H149.355Z" transform="translate(-86.952 -9.953)" fill="#c2c2c2"/>
      <path id="Trazado_721444" data-name="Trazado 721444" d="M161.084,25.882V62.836h74.421V25.882Z" transform="translate(-93.781 -14.771)" fill="#ebebeb"/>
      <path id="Trazado_721445" data-name="Trazado 721445" d="M161.084,25.882V37.667h74.421V25.882Z" transform="translate(-93.781 -14.77)" fill="#c2c2c2"/>
      <path id="Trazado_721446" data-name="Trazado 721446" d="M161.084,77.023V92.609h74.421V77.023Z" transform="translate(-93.781 -44.544)" fill="#a6f1ef"/>
      <path id="Trazado_721447" data-name="Trazado 721447" d="M351.809,185.5h-2.222v33.526h2.222Z" transform="translate(-203.524 -107.698)" fill="#e6e6e6"/>
      <path id="Trazado_721448" data-name="Trazado 721448" d="M354.434,185.5H352.89v33.526h1.544Z" transform="translate(-205.447 -107.698)" fill="#a6f1ef"/>
      <path id="Trazado_721449" data-name="Trazado 721449" d="M217.316,189.28h58.667V185.5H217.316Z" transform="translate(-126.518 -107.698)" fill="#a6f1ef"/>
      <path id="Trazado_721450" data-name="Trazado 721450" d="M211.838,194.546h-2.223v29.746h2.223Z" transform="translate(-122.034 -112.964)" fill="#c2c2c2"/>
      <path id="Trazado_721451" data-name="Trazado 721451" d="M214.462,194.546h-1.544v29.746h1.544Z" transform="translate(-123.957 -112.964)" fill="#a6f1ef"/>
      <path id="Trazado_721452" data-name="Trazado 721452" d="M178.174,194.546h-2.223v29.746h2.223Z" transform="translate(-102.436 -112.964)" fill="#c2c2c2"/>
      <path id="Trazado_721453" data-name="Trazado 721453" d="M180.8,194.546h-1.543v29.746H180.8Z" transform="translate(-104.359 -112.964)" fill="#c2c2c2"/>
      <path id="Trazado_721454" data-name="Trazado 721454" d="M318.145,194.546h-2.223v29.746h2.223Z" transform="translate(-183.925 -112.964)" fill="#e6e6e6"/>
      <path id="Trazado_721455" data-name="Trazado 721455" d="M320.77,194.546h-1.543v29.746h1.543Z" transform="translate(-185.849 -112.964)" fill="#c2c2c2"/>
      <path id="Trazado_721456" data-name="Trazado 721456" d="M193.234,185.5H175.951v3.78h17.283Z" transform="translate(-102.436 -107.698)" fill="#e6e6e6"/>
      <path id="Trazado_721457" data-name="Trazado 721457" d="M307.926,151.876c-1.893,2.115-8.672,4.319-10.677-2.327-1.458-4.832,6.695-8.4,11.574-8.611a16.109,16.109,0,0,1,8.363,1.63A116.411,116.411,0,0,0,307.926,151.876Z" transform="translate(-172.953 -81.744)" fill="#bdbdbd"/>
      <path id="Trazado_721458" data-name="Trazado 721458" d="M281.114,150.991c2.662.284,7.19-1.753,5.4-7.344s-5.457-6.111-7.88-6.578c-3.09-.6-9.265,1.928-9.265,1.928S278.452,150.708,281.114,150.991Z" transform="translate(-156.821 -79.449)" fill="#d4d4d4"/>
      <path id="Trazado_721459" data-name="Trazado 721459" d="M307.141,130.708c-3.353,1.523-6.166,2.041-4.578-2.7s3.52-7.023,6.67-7.989c4.014-1.231,8.779,1.413,8.779,1.413S310.494,129.185,307.141,130.708Z" transform="translate(-175.882 -69.383)" fill="#d4d4d4"/>
      <path id="Trazado_721460" data-name="Trazado 721460" d="M289.13,130.688c2.562.758,4.578.6,2.668-3.974s-3.183-5.145-5.371-6.02c-4.048-1.621-7.439,1.288-7.439,1.288S286.569,129.931,289.13,130.688Z" transform="translate(-162.423 -69.682)" fill="#d4d4d4"/>
      <path id="Trazado_721461" data-name="Trazado 721461" d="M309.3,114.418c-2.783,2.437-5.343,3.982-5.23.193a10.015,10.015,0,0,1,5.075-8.711c2.061-1.052,6.617-.576,6.617-.576S312.088,111.982,309.3,114.418Z" transform="translate(-177.025 -60.958)" fill="#d4d4d4"/>
      <path id="Trazado_721462" data-name="Trazado 721462" d="M292.255,116.349c1.819,1.451,3.4,2.216,2.826-.862s-1.589-3.907-3.331-4.993a6.344,6.344,0,0,0-4.646-.712S290.435,114.9,292.255,116.349Z" transform="translate(-167.147 -63.521)" fill="#d4d4d4"/>
      <path id="Trazado_721463" data-name="Trazado 721463" d="M303.952,166.964h-18.28l2.406,7.745h13.468Z" transform="translate(-166.314 -96.906)" fill="#a6f1ef"/>
      <path id="Trazado_721464" data-name="Trazado 721464" d="M111.068,291.645c36.24,0,65.618-1.716,65.618-3.832s-29.378-3.832-65.618-3.832S45.45,285.7,45.45,287.813,74.828,291.645,111.068,291.645Z" transform="translate(-26.46 -165.032)" fill="#e6e6e6"/>
      <path id="Trazado_721465" data-name="Trazado 721465" d="M207.944,99.917l-.419.554c-.136.174-.275.343-.414.511-.277.338-.569.663-.862.988a25.778,25.778,0,0,1-1.891,1.868c-.339.3-.687.595-1.053.883s-.758.562-1.169.83a9.371,9.371,0,0,1-3.048,1.352l-.117.027a1.865,1.865,0,0,1-.346.045,4.044,4.044,0,0,1-1.615-.285,5.117,5.117,0,0,1-1.029-.548,8.82,8.82,0,0,1-1.368-1.173,17.192,17.192,0,0,1-1.88-2.392c-.533-.811-1.012-1.63-1.45-2.466a27.2,27.2,0,0,1-1.191-2.574,1.358,1.358,0,0,1,2.278-1.4l.029.034,1.746,1.972c.585.65,1.171,1.289,1.766,1.886a17.257,17.257,0,0,0,1.767,1.6,3.921,3.921,0,0,0,.768.482.389.389,0,0,0,.183.049c.01-.007-.077-.064-.289-.063l-.463.072a6.909,6.909,0,0,0,1.281-.838,20.685,20.685,0,0,0,1.527-1.4c.506-.519,1.017-1.058,1.511-1.622l.74-.849.7-.828.085-.1a2.706,2.706,0,0,1,4.221,3.384Z" transform="translate(-110.614 -55.347)" fill="#003759"/>
      <path id="Trazado_721466" data-name="Trazado 721466" d="M186.282,90.181c-1.305.2-2.548-1.915-2.548-1.915l-.977-1.165a1.053,1.053,0,0,1,.008-1.362l.844-.982a1.052,1.052,0,0,1,1.5-.1l1.121,1.005a1.878,1.878,0,0,1,.466.646l.436,1a2.425,2.425,0,0,1-.4,2.564l-.081.092A.625.625,0,0,1,186.282,90.181Z" transform="translate(-106.255 -48.833)" fill="#ffc3bd"/>
      <path id="Trazado_721467" data-name="Trazado 721467" d="M248.561,178.334c-1.657-12.258-2.311-19.528-3.373-25.625l-10.426-.157s4.667,19.549,6.895,27.513c2.237,7.995,14.818,27.817,14.818,27.817l2.771-1.646S251.537,187.616,248.561,178.334Z" transform="translate(-136.675 -88.516)" fill="#003759"/>
      <path id="Trazado_721468" data-name="Trazado 721468" d="M282.256,285.694s2.082-2.55,2.048-3.411l2.294-1.363,1.265,2.524-1.108.658-.335-.1-.24.444a17.725,17.725,0,0,1-3.842,1.873A.666.666,0,0,1,282.256,285.694Z" transform="translate(-164.301 -163.25)" fill="#003759"/>
      <path id="Trazado_721469" data-name="Trazado 721469" d="M235.894,93.434a48.806,48.806,0,0,0-12.488.194,4.279,4.279,0,0,0-3.47,3.6c-.744,5.333-.1,14.658.37,24.043,8.068,2.761,16.581-.037,16.581-.037.293-1.894-.367-8.1-.811-11.41.666-3.42,2.078-7.336,3.011-11.877A3.721,3.721,0,0,0,235.894,93.434Z" transform="translate(-127.845 -53.919)" fill="#003759"/>
      <path id="Trazado_721470" data-name="Trazado 721470" d="M234.418,92.864a3.788,3.788,0,0,0-.9,2.049c-.378,2.167.05,5.5,1.191,9.332a60.008,60.008,0,0,1,4.892-9.533c.683-1.123,1.162-1.865,1.206-1.93a.01.01,0,0,0,0-.006A13.3,13.3,0,0,0,234.418,92.864Z" transform="translate(-135.875 -53.513)" fill="#2aded8"/>
      <path id="Trazado_721471" data-name="Trazado 721471" d="M241.471,77l-4.2,3.444c.543,1.445.715,2.949-1.656,3.528-.594.783.452,1.681,1.433,2.091,1.583-.2,3.815-.724,4.78-2.05A21.334,21.334,0,0,1,241.471,77Z" transform="translate(-137.072 -44.532)" fill="#ffc3bd"/>
      <path id="Trazado_721472" data-name="Trazado 721472" d="M236.891,95.73a3.182,3.182,0,0,0,.87,1.314,3.574,3.574,0,0,0,1.576-.723s-.362-1.015-.871-1.222A3.47,3.47,0,0,0,236.891,95.73Z" transform="translate(-137.914 -55.068)" fill="#fff"/>
      <path id="Trazado_721473" data-name="Trazado 721473" d="M236.767,98.425a.928.928,0,0,0-.707-.18,16.177,16.177,0,0,0-1.891,5.185,35.829,35.829,0,0,0,1,4.194,32.941,32.941,0,0,1,1.632-3.709A22.246,22.246,0,0,1,236.767,98.425Z" transform="translate(-136.329 -56.892)" fill="#fff"/>
      <path id="Trazado_721474" data-name="Trazado 721474" d="M242.272,80.44l-2.446,2a5.391,5.391,0,0,1,.294,1.035,2.453,2.453,0,0,0,2.327-1.757A3.588,3.588,0,0,0,242.272,80.44Z" transform="translate(-139.623 -46.534)" fill="#003759" opacity="0.2"/>
      <path id="Trazado_721475" data-name="Trazado 721475" d="M233.617,63.377c-1.362.782-.652,1.565-.652,1.565a3.176,3.176,0,0,0,.189,2.63C236.755,63.26,233.617,63.377,233.617,63.377Z" transform="translate(-135.507 -36.599)" fill="#003759"/>
      <path id="Trazado_721476" data-name="Trazado 721476" d="M240.466,65.479c-.383,2.634-.473,4.2-1.924,5.432a3.561,3.561,0,0,1-5.766-2.357c-.371-2.432.317-6.331,3-7.146A3.667,3.667,0,0,1,240.466,65.479Z" transform="translate(-135.464 -35.357)" fill="#ffc3bd"/>
      <path id="Trazado_721477" data-name="Trazado 721477" d="M237.149,64.208c-1.7.174-1.375-2.612-.8-3.158-1.652.028-1.333-1.073-1.131-1.479-2.753.58-4.7.7-5.941-.667-.918-1.009-1.9.121-2.188-.942.666.362,1.9-1.449,2.724-.7s1.647-1.876,2.9-.754c1.681,1.507,6.13-2.594,5.724,1.927,2.319,1.951-.8,3.188-.594,5.261C237.207,64.643,237.149,64.208,237.149,64.208Z" transform="translate(-132.209 -32.439)" fill="#003759"/>
      <path id="Trazado_721478" data-name="Trazado 721478" d="M251.882,59.421a.169.169,0,0,1-.023-.337,2.4,2.4,0,0,0,1.36-.941,1.134,1.134,0,0,0,.168-.961.169.169,0,1,1,.325-.092,1.479,1.479,0,0,1-.209,1.239,2.709,2.709,0,0,1-1.6,1.091Z" transform="translate(-146.543 -32.868)" fill="#003759"/>
      <path id="Trazado_721479" data-name="Trazado 721479" d="M250.142,74.158a2.288,2.288,0,0,1-1.279,1.211c-.76.283-1.214-.38-1.065-1.132.134-.677.691-1.64,1.483-1.6A1.046,1.046,0,0,1,250.142,74.158Z" transform="translate(-144.248 -41.99)" fill="#ffc3bd"/>
      <path id="Trazado_721480" data-name="Trazado 721480" d="M241.141,71.037c-.018.216-.147.38-.287.367s-.241-.2-.223-.414.147-.38.288-.367S241.159,70.821,241.141,71.037Z" transform="translate(-140.09 -40.818)" fill="#003759"/>
      <path id="Trazado_721481" data-name="Trazado 721481" d="M234.968,70.886c-.018.216-.147.38-.287.367s-.241-.2-.223-.414.147-.38.288-.367S234.986,70.671,234.968,70.886Z" transform="translate(-136.496 -40.73)" fill="#003759"/>
      <path id="Trazado_721482" data-name="Trazado 721482" d="M235.891,72.157a7.654,7.654,0,0,1-1.185,1.75,1.256,1.256,0,0,0,1.015.288Z" transform="translate(-136.642 -41.711)" fill="#ed847e"/>
      <path id="Trazado_721483" data-name="Trazado 721483" d="M242.742,68.727a.122.122,0,0,0,.064-.008.126.126,0,0,0,.07-.165,1.274,1.274,0,0,0-.861-.786.125.125,0,0,0-.149.1.129.129,0,0,0,.1.15,1.017,1.017,0,0,1,.675.629A.129.129,0,0,0,242.742,68.727Z" transform="translate(-140.81 -39.154)" fill="#003759"/>
      <path id="Trazado_721484" data-name="Trazado 721484" d="M233.3,68.813a.126.126,0,0,0,.119-.017,1,1,0,0,1,.9-.178.126.126,0,0,0,.162-.076.128.128,0,0,0-.076-.163,1.252,1.252,0,0,0-1.137.212.128.128,0,0,0,.034.222Z" transform="translate(-135.773 -39.479)" fill="#003759"/>
      <path id="Trazado_721485" data-name="Trazado 721485" d="M245.063,93.26a.01.01,0,0,1,0,.006c-.044.065-.523.807-1.206,1.93a5.324,5.324,0,0,1-2.45,1.286,4.008,4.008,0,0,0-.718-2.453A11.9,11.9,0,0,0,245.063,93.26Z" transform="translate(-140.123 -53.997)" fill="#2aded8"/>
      <path id="Trazado_721486" data-name="Trazado 721486" d="M245.063,93.26a.01.01,0,0,1,0,.006c-.044.065-.523.807-1.206,1.93a5.324,5.324,0,0,1-2.45,1.286,4.008,4.008,0,0,0-.718-2.453A11.9,11.9,0,0,0,245.063,93.26Z" transform="translate(-140.123 -53.997)" fill="#fff" opacity="0.3"/>
      <path id="Trazado_721487" data-name="Trazado 721487" d="M236.615,94.152a3.912,3.912,0,0,0-2.107,2.243,1.453,1.453,0,0,1-.8-.875,3.791,3.791,0,0,1,.9-2.049A2.84,2.84,0,0,0,236.615,94.152Z" transform="translate(-136.062 -54.121)" fill="#2aded8"/>
      <path id="Trazado_721488" data-name="Trazado 721488" d="M236.615,94.152a3.912,3.912,0,0,0-2.107,2.243,1.453,1.453,0,0,1-.8-.875,3.791,3.791,0,0,1,.9-2.049A2.84,2.84,0,0,0,236.615,94.152Z" transform="translate(-136.062 -54.121)" fill="#fff" opacity="0.3"/>
      <path id="Trazado_721489" data-name="Trazado 721489" d="M258.139,96.342c.676.77,1.257,1.511,1.846,2.3s1.144,1.585,1.673,2.428a26.742,26.742,0,0,1,1.508,2.658,15.942,15.942,0,0,1,.661,1.508,9.7,9.7,0,0,1,.5,1.871l.026.168a2.027,2.027,0,0,1-.1,1,9.82,9.82,0,0,1-1.637,2.814,12.172,12.172,0,0,1-.978,1.09c-.337.339-.678.663-1.031.964a21.73,21.73,0,0,1-2.186,1.644,20.025,20.025,0,0,1-2.362,1.346,1.357,1.357,0,0,1-1.583-2.143l.061-.065c.524-.568,1.1-1.178,1.627-1.778s1.042-1.209,1.505-1.825a15.925,15.925,0,0,0,1.233-1.833,6.106,6.106,0,0,0,.685-1.669l-.071,1.166a6.157,6.157,0,0,0-.342-.795c-.165-.318-.351-.665-.561-1.011s-.437-.7-.677-1.052-.48-.712-.735-1.067c-.511-.708-1.038-1.424-1.582-2.13L254,99.831l-.033-.043a2.708,2.708,0,0,1,4.174-3.446Z" transform="translate(-147.524 -55.257)" fill="#003759"/>
      <path id="Trazado_721490" data-name="Trazado 721490" d="M250.745,141.34a.625.625,0,0,0-.122-.406l-.74-1.018a.634.634,0,0,0-.63-.25l-1.046.2a7.2,7.2,0,0,0-2.826,1.2l-.28.2a1.052,1.052,0,0,0-.237,1.485l.771,1.04a1.052,1.052,0,0,0,1.327.31l1.352-.695S250.656,142.659,250.745,141.34Z" transform="translate(-142.435 -81.008)" fill="#ffc3bd"/>
      <path id="Trazado_721491" data-name="Trazado 721491" d="M255.693,138.782a4.907,4.907,0,0,0-1.477.03c-.3.775.976,3.106,1.633,3.511a5.838,5.838,0,0,0,1.375-.917C256.662,140.657,256.078,139.353,255.693,138.782Z" transform="translate(-147.974 -80.473)" fill="#2aded8"/>
      <path id="Trazado_721492" data-name="Trazado 721492" d="M190.964,94.863a4.9,4.9,0,0,0-.193-1.465c-.8-.216-2.979,1.311-3.31,2.009a5.839,5.839,0,0,0,1.063,1.266C189.206,96.033,190.438,95.309,190.964,94.863Z" transform="translate(-109.137 -54.065)" fill="#2aded8"/>
      <path id="Trazado_721493" data-name="Trazado 721493" d="M284.969,280.267l3.129-1.742-.717-1.938-3.473,2.355Z" transform="translate(-165.287 -160.727)" fill="#2aded8"/>
      <path id="Trazado_721494" data-name="Trazado 721494" d="M230.954,179.439c.743-12.368,2.171-20.633,1.575-26.73l-10.414-.157s1.058,19.623,1.708,27.794c.653,8.2,4.157,28.347,4.157,28.347H231.2S232.084,189.007,230.954,179.439Z" transform="translate(-129.312 -88.516)" fill="#003759"/>
      <path id="Trazado_721495" data-name="Trazado 721495" d="M223.337,288.37s5.236-1.13,5.57-1.887h2.669l.087,2.816h-2.178l-.262-.259-.407.259a32.458,32.458,0,0,1-5.665-.352A.6.6,0,0,1,223.337,288.37Z" transform="translate(-129.911 -166.488)" fill="#003759"/>
      <path id="Trazado_721496" data-name="Trazado 721496" d="M235.154,284.441l3.589.1.165-2.032-4.163.251Z" transform="translate(-136.665 -164.175)" fill="#2aded8"/>
      <path id="Trazado_721497" data-name="Trazado 721497" d="M238.863,77.875a2.344,2.344,0,0,1-.412-.022.067.067,0,0,1-.056-.082.078.078,0,0,1,.086-.062,2.081,2.081,0,0,0,1.722-.539.07.07,0,1,1,.1.1A2.191,2.191,0,0,1,238.863,77.875Z" transform="translate(-138.788 -44.615)" fill="#003759"/>
      <path id="Trazado_721498" data-name="Trazado 721498" d="M285.053,207.725h-2.8v.338h2.8Z" transform="translate(-164.322 -120.637)" fill="#2aded8"/>
      <path id="Trazado_721499" data-name="Trazado 721499" d="M300.223,207.725h-6.294v.338h6.294Z" transform="translate(-171.121 -120.637)" fill="#2aded8"/>
      <path id="Trazado_721500" data-name="Trazado 721500" d="M250.237,174.9H210.97l-6.319,11.692a.778.778,0,0,0,.684,1.148h44.9l3.21-6.42Z" transform="translate(-119.09 -101.528)" fill="#2aded8"/>
      <path id="Trazado_721501" data-name="Trazado 721501" d="M204,21.355a28.427,28.427,0,0,1,25.78,26.714.776.776,0,0,0,1.122.655l4.769-2.382a1.26,1.26,0,0,1,1.147,0l4.683,2.34a.781.781,0,0,0,1.127-.732A41.269,41.269,0,0,0,203.9,8.477l-3.171,6.343Z" transform="translate(-116.861 -4.638)" fill="#2aded8"/>
      <path id="Trazado_721502" data-name="Trazado 721502" d="M204,21.355a28.427,28.427,0,0,1,25.78,26.714.776.776,0,0,0,1.122.655l4.769-2.382a1.26,1.26,0,0,1,1.147,0l4.683,2.34a.781.781,0,0,0,1.127-.732A41.269,41.269,0,0,0,203.9,8.477l-3.171,6.343Z" transform="translate(-116.861 -4.638)" fill="#fff" opacity="0.6"/>
      <path id="Trazado_721503" data-name="Trazado 721503" d="M116.795,47.007a28.428,28.428,0,0,1,26.717-25.781.776.776,0,0,0,.655-1.122l-2.386-4.768a1.3,1.3,0,0,1,0-1.151l2.339-4.678a.78.78,0,0,0-.732-1.127A41.277,41.277,0,0,0,103.917,47.1l6.343,3.172Z" transform="translate(-60.499 -4.58)" fill="#2aded8"/>
      <path id="Trazado_721504" data-name="Trazado 721504" d="M116.795,47.007a28.428,28.428,0,0,1,26.717-25.781.776.776,0,0,0,.655-1.122l-2.386-4.768a1.3,1.3,0,0,1,0-1.151l2.339-4.678a.78.78,0,0,0-.732-1.127A41.277,41.277,0,0,0,103.917,47.1l6.343,3.172Z" transform="translate(-60.499 -4.58)" fill="#fff" opacity="0.4"/>
      <path id="Trazado_721505" data-name="Trazado 721505" d="M130.581,136.387h0A28.438,28.438,0,0,1,104.8,109.673a.776.776,0,0,0-1.122-.655L98.91,111.4a1.311,1.311,0,0,1-.577.137,1.293,1.293,0,0,1-.574-.137l-4.683-2.339a.78.78,0,0,0-1.127.731,41.073,41.073,0,0,0,11.32,26.706H83.43l3.249,6.5-3.133,6.266h47.13l3.172-6.343Z" transform="translate(-48.572 -63.123)" fill="#2aded8"/>
      <path id="Trazado_721506" data-name="Trazado 721506" d="M130.581,136.387h0A28.438,28.438,0,0,1,104.8,109.673a.776.776,0,0,0-1.122-.655L98.91,111.4a1.311,1.311,0,0,1-.577.137,1.293,1.293,0,0,1-.574-.137l-4.683-2.339a.78.78,0,0,0-1.127.731,41.073,41.073,0,0,0,11.32,26.706H83.43l3.249,6.5-3.133,6.266h47.13l3.172-6.343Z" transform="translate(-48.572 -63.123)" fill="#fff" opacity="0.2"/>
      <path id="Trazado_721507" data-name="Trazado 721507" d="M231.836,108.544v0a28.435,28.435,0,0,1-26.714,25.781.776.776,0,0,0-.655,1.122l2.382,4.769a1.282,1.282,0,0,1,0,1.147l-2.34,4.683a.781.781,0,0,0,.732,1.127,41.269,41.269,0,0,0,39.472-38.727l-6.343-3.171Z" transform="translate(-118.989 -60.994)" fill="#2aded8"/>
      <path id="Trazado_721508" data-name="Trazado 721508" d="M231.836,108.544v0a28.435,28.435,0,0,1-26.714,25.781.776.776,0,0,0-.655,1.122l2.382,4.769a1.282,1.282,0,0,1,0,1.147l-2.34,4.683a.781.781,0,0,0,.732,1.127,41.269,41.269,0,0,0,39.472-38.727l-6.343-3.171Z" transform="translate(-118.989 -60.994)" fill="#fff" opacity="0.8"/>
      <path id="Trazado_721509" data-name="Trazado 721509" d="M157.524,86.807l-1.852-5.3-2.815.262a13.44,13.44,0,0,0-2.376-2.657l.578-2.77L146,73.908,144.2,76.085a13.438,13.438,0,0,0-3.561-.2l-1.547-2.364-5.3,1.852.262,2.814a13.458,13.458,0,0,0-2.658,2.377l-2.77-.578-2.437,5.055,2.178,1.806a13.459,13.459,0,0,0-.2,3.56L125.8,91.95l1.852,5.3,2.813-.262a13.433,13.433,0,0,0,2.378,2.659l-.578,2.768,5.056,2.437,1.806-2.177a13.458,13.458,0,0,0,3.56.2l1.548,2.364,5.3-1.852-.262-2.814a13.455,13.455,0,0,0,2.659-2.377l2.768.578,2.437-5.056-2.177-1.806a13.409,13.409,0,0,0,.2-3.561ZM143.7,95.212a6.18,6.18,0,1,1,3.794-7.871A6.181,6.181,0,0,1,143.7,95.212Z" transform="translate(-73.238 -42.503)" fill="#2aded8"/>
      <path id="Trazado_721510" data-name="Trazado 721510" d="M110.778,110.01c-.162.251-.358.577-.538.872s-.359.616-.531.93q-.521.94-1,1.91a38.985,38.985,0,0,0-1.693,3.968c-.215.533.006.216-.25-.121-.113-.137-.188-.133-.147-.111a.827.827,0,0,0,.243.086,7.655,7.655,0,0,0,1.906.068c1.406-.086,2.89-.3,4.333-.531l.024,0a.758.758,0,0,1,.406,1.45,24.227,24.227,0,0,1-4.468,1.379c-.395.074-.8.137-1.219.178a6.525,6.525,0,0,1-1.367,0,3.6,3.6,0,0,1-.846-.193,2.268,2.268,0,0,1-1.047-.763,2.039,2.039,0,0,1-.344-.747,2.265,2.265,0,0,1-.048-.711,3,3,0,0,1,.1-.537l.08-.283a30.583,30.583,0,0,1,1.6-4.416q.478-1.073,1.045-2.107.285-.515.59-1.025c.208-.347.407-.661.666-1.032a1.523,1.523,0,0,1,2.529,1.7Z" transform="translate(-60.655 -62.359)" fill="#7f3e3b"/>
      <path id="Trazado_721511" data-name="Trazado 721511" d="M127.153,130.043l-.705.587a1.068,1.068,0,0,1-.955.212l-1.56-.41a1.992,1.992,0,0,1-1.357-1.224l-.141-.374a6.783,6.783,0,0,1,3.073-1.379l.551-.155a.889.889,0,0,1,1.116.592l.321,1.088A1.023,1.023,0,0,1,127.153,130.043Z" transform="translate(-71.28 -73.793)" fill="#7f3e3b"/>
      <path id="Trazado_721512" data-name="Trazado 721512" d="M124.436,86.463c.486,1.8,1.083,5.09-.085,6.289,0,0-.9,1.684,4.4,1.412,3.711-.191,1.182-1.412,1.182-1.412-2.04-.478-2.1-1.965-1.854-3.362Z" transform="translate(-72.362 -50.04)" fill="#7f3e3b"/>
      <path id="Trazado_721513" data-name="Trazado 721513" d="M99.233,264.585,95.8,263.321a59.614,59.614,0,0,1-1.379,6.7l2.409,1.033S98.434,266.2,99.233,264.585Z" transform="translate(-54.969 -153.004)" fill="#7f3e3b"/>
      <path id="Trazado_721514" data-name="Trazado 721514" d="M94.8,283.243c-1.839-1.346-1.687-1.279-2.7-2.072-.864-.681-1.148-.719-1.849-1.256-.585-.448-.189-1.031.425-1.586.235-.213.528-.45.866-.757a.544.544,0,0,1,.7-.035l2.151,1.575a.628.628,0,0,1,.257.5,3.841,3.841,0,0,0,1.258,2.765C96.808,283.243,95.533,283.78,94.8,283.243Z" transform="translate(-52.377 -161.217)" fill="#003759"/>
      <path id="Trazado_721515" data-name="Trazado 721515" d="M115.351,147.12s-3.618,18.631-6.424,27.313c-2.946,9.118-7.249,19.264-9.2,25.206a6.289,6.289,0,0,1-3.181-1.364s1.291-15.578,5.7-23.622c-.447-23.474,4.021-27.533,4.021-27.533Z" transform="translate(-56.206 -85.353)" fill="#2aded8"/>
      <path id="Trazado_721516" data-name="Trazado 721516" d="M115.351,147.12s-3.618,18.631-6.424,27.313c-2.946,9.118-7.249,19.264-9.2,25.206a6.289,6.289,0,0,1-3.181-1.364s1.291-15.578,5.7-23.622c-.447-23.474,4.021-27.533,4.021-27.533Z" transform="translate(-56.206 -85.353)" fill="#003759" opacity="0.3"/>
      <path id="Trazado_721517" data-name="Trazado 721517" d="M124.753,163.848l3.738,7.107c-.853,3.738-1.8,7.6-2.7,10.757C123.068,174.148,124.753,163.848,124.753,163.848Z" transform="translate(-72.329 -95.092)" fill="#003759" opacity="0.2"/>
      <path id="Trazado_721518" data-name="Trazado 721518" d="M99.9,267.469a8.185,8.185,0,0,0-.244,1.24.237.237,0,0,1-.313.2,15.824,15.824,0,0,1-3.612-1.695.306.306,0,0,1-.15-.293l.152-1.191a.242.242,0,0,1,.355-.176l3.625,1.568A.307.307,0,0,1,99.9,267.469Z" transform="translate(-55.645 -154.289)" fill="#003759"/>
      <path id="Trazado_721519" data-name="Trazado 721519" d="M144.16,270.171l-3.3.242c.541,2.633,1.1,6.79,1.1,6.79h2.622S144.12,271.972,144.16,270.171Z" transform="translate(-82.007 -156.992)" fill="#7f3e3b"/>
      <path id="Trazado_721520" data-name="Trazado 721520" d="M147.7,288.913c-2.279,0-2.114-.035-3.395-.078-1.1-.039-1.359.1-2.24.078-.736-.016-.708-.72-.48-1.531.087-.311.211-.675.335-1.122a.6.6,0,0,1,.573-.44h2.666a.576.576,0,0,1,.485.254,3.5,3.5,0,0,0,2.538,1.488C149.4,287.727,148.6,288.913,147.7,288.913Z" transform="translate(-82.343 -166.102)" fill="#003759"/>
      <path id="Trazado_721521" data-name="Trazado 721521" d="M133.346,147.12s.413,16.235.783,26.346-.423,27.981-.423,27.981c-.074.491-2.651.295-3.088,0,0,0-4.924-14.484-3.043-27.014-6.591-16.251-4.69-26.914-4.69-26.914Z" transform="translate(-71.394 -85.353)" fill="#2aded8"/>
      <path id="Trazado_721522" data-name="Trazado 721522" d="M133.346,147.12s.413,16.235.783,26.346-.423,27.981-.423,27.981c-.074.491-2.651.295-3.088,0,0,0-4.924-14.484-3.043-27.014-6.591-16.251-4.69-26.914-4.69-26.914Z" transform="translate(-71.394 -85.353)" fill="#003759" opacity="0.3"/>
      <path id="Trazado_721523" data-name="Trazado 721523" d="M144.337,273.564c.01.333.03.928.061,1.368a.28.28,0,0,1-.244.294,18.4,18.4,0,0,1-3.407-.038.249.249,0,0,1-.224-.2l-.231-1.2a.281.281,0,0,1,.264-.328l3.517-.14A.25.25,0,0,1,144.337,273.564Z" transform="translate(-81.673 -158.825)" fill="#003759"/>
      <path id="Trazado_721524" data-name="Trazado 721524" d="M120.851,139.937a23.757,23.757,0,0,1-.349,2.834h11.483l.121-2.921S123.256,139.348,120.851,139.937Z" transform="translate(-70.154 -81.005)" fill="#7f3e3b"/>
      <path id="Trazado_721525" data-name="Trazado 721525" d="M129.342,105.671a49.026,49.026,0,0,1-.081,5.293c-.1,2.3.343,2.862-.01,6.63-1.257.737-9.541.708-13.613.182.247-3.259.552-5.458-1.657-12.791a2.712,2.712,0,0,1,2.453-3.508c.488-.046,1-.085,1.535-.109a41.617,41.617,0,0,1,5.585,0c.607.052,1.236.124,1.838.2A4.464,4.464,0,0,1,129.342,105.671Z" transform="translate(-66.286 -58.662)" fill="#003759"/>
      <path id="Trazado_721526" data-name="Trazado 721526" d="M184.284,130.179l-.46-.794a1.067,1.067,0,0,0-.823-.528l-1.606-.152a1.99,1.99,0,0,0-1.695.681l-.261.3a6.78,6.78,0,0,0,2.409,2.353l.464.335a.888.888,0,0,0,1.252-.171l.676-.91A1.024,1.024,0,0,0,184.284,130.179Z" transform="translate(-104.466 -74.628)" fill="#7f3e3b"/>
      <path id="Trazado_721527" data-name="Trazado 721527" d="M149.383,112.551l.146.232c.066.1.128.2.2.3.14.2.3.4.464.6.328.4.69.783,1.067,1.159s.786.727,1.21,1.068.866.663,1.318.976l-.264-.123a19.1,19.1,0,0,0,1.9.581c.672.173,1.355.35,2.045.509l2.075.493c.693.171,1.393.329,2.082.5l.007,0a.76.76,0,0,1-.188,1.5c-.733,0-1.453-.036-2.18-.068s-1.449-.1-2.174-.166-1.453-.156-2.185-.272a16.97,16.97,0,0,1-2.267-.476.941.941,0,0,1-.194-.082l-.07-.041c-.276-.158-.554-.311-.829-.474s-.543-.337-.8-.524a15.48,15.48,0,0,1-1.53-1.19,13.49,13.49,0,0,1-1.38-1.412c-.213-.258-.42-.522-.616-.806-.1-.139-.2-.287-.289-.44-.046-.079-.092-.153-.139-.239s-.084-.151-.155-.3a1.517,1.517,0,0,1,2.648-1.472Z" transform="translate(-85.279 -64.722)" fill="#7f3e3b"/>
      <path id="Trazado_721528" data-name="Trazado 721528" d="M141.009,102.385c2.233.592,4.148,2.506,6.776,6.286-.366,1.545-3.73,3.327-3.73,3.327S137.063,105.036,141.009,102.385Z" transform="translate(-81.39 -59.309)" fill="#003759"/>
      <path id="Trazado_721529" data-name="Trazado 721529" d="M138.573,77.772c.084.234.274.388.427.345s.207-.267.123-.5-.275-.388-.427-.345S138.489,77.538,138.573,77.772Z" transform="translate(-80.652 -44.684)" fill="#003759"/>
      <path id="Trazado_721530" data-name="Trazado 721530" d="M138.773,76.913l.5-.319S139.144,77.112,138.773,76.913Z" transform="translate(-80.791 -44.294)" fill="#003759"/>
      <path id="Trazado_721531" data-name="Trazado 721531" d="M139.05,79.524a7.29,7.29,0,0,0,1.362,1.256.986.986,0,0,1-.771.39Z" transform="translate(-80.953 -46)" fill="#630f0f"/>
      <path id="Trazado_721532" data-name="Trazado 721532" d="M135.851,73.152a.133.133,0,0,0,.085-.061.143.143,0,0,0-.056-.195,1.516,1.516,0,0,0-1.336-.152.131.131,0,0,0-.062.186.157.157,0,0,0,.2.071,1.211,1.211,0,0,1,1.057.131A.154.154,0,0,0,135.851,73.152Z" transform="translate(-78.284 -42.002)" fill="#003759"/>
      <path id="Trazado_721533" data-name="Trazado 721533" d="M119.011,74.271c1.116,2.734,1.529,3.911,3.431,4.942,2.86,1.552,5.99-.219,5.717-3.183-.245-2.668-2.029-6.69-5.15-7.029A3.782,3.782,0,0,0,119.011,74.271Z" transform="translate(-69.107 -39.859)" fill="#7f3e3b"/>
      <path id="Trazado_721534" data-name="Trazado 721534" d="M122.522,72.455c.915,2.011.8,7.708-4.322,5.942s-4.762-4.546-3.38-6.765c-2.778-2.486.811-4.461,4.11-5.358S125.124,66.18,122.522,72.455Z" transform="translate(-66.268 -38.108)" fill="#003759"/>
      <path id="Trazado_721535" data-name="Trazado 721535" d="M116.6,78.631a2.187,2.187,0,1,1-2.577-1.709A2.187,2.187,0,0,1,116.6,78.631Z" transform="translate(-65.36 -44.46)" fill="#2aded8"/>
      <path id="Trazado_721536" data-name="Trazado 721536" d="M104.464,78.79c1-2.03.187-4.558-1.384-6.188-2.981-3.092-7.09-1.06-5.956,2,1.352,3.646-5.781,7.39-1.623,9.552,4.068,2.115,10.821-1.616,8.927-5.287Z" transform="translate(-54.831 -41.074)" fill="#003759"/>
      <path id="Trazado_721537" data-name="Trazado 721537" d="M131.586,79.3a2.03,2.03,0,0,0,1.338.949c.69.109.9-.691.6-1.437-.272-.671-.96-1.538-1.6-1.3S131.178,78.655,131.586,79.3Z" transform="translate(-76.468 -44.802)" fill="#7f3e3b"/>
      <path id="Trazado_721538" data-name="Trazado 721538" d="M113.561,101.829c-2,.31-2.805.919-4.441,4.942.742,1.5,4.22,2.937,4.22,2.937S115.642,104.5,113.561,101.829Z" transform="translate(-63.528 -58.986)" fill="#003759"/>
      <path id="Trazado_721539" data-name="Trazado 721539" d="M130.79,147.42a55.258,55.258,0,0,1-12.35-.025.28.28,0,0,1-.214-.392q.152-.355.3-.711a.259.259,0,0,1,.265-.164,54.111,54.111,0,0,0,11.874,0,.266.266,0,0,1,.287.248l.074.737A.277.277,0,0,1,130.79,147.42Z" transform="translate(-68.815 -84.775)" fill="#003759"/>
    </g>
  </g>
</svg>
