<svg xmlns="http://www.w3.org/2000/svg" width="295" height="141" viewBox="0 0 295 141">
  <g id="Grupo_1018042" data-name="Grupo 1018042" transform="translate(-1019.668 -7409)">
    <rect id="Rectángulo_375672" data-name="Rectángulo 375672" width="295" height="141" transform="translate(1019.668 7409)" fill="#d9f9f8"/>
    <g id="materia_prima" data-name="materia prima" transform="translate(1036.104 7392.117)">
      <path id="Trazado_723705" data-name="Trazado 723705" d="M136.173,237.075c47.194,0,85.452-1.3,85.452-2.9s-38.258-2.9-85.452-2.9-85.453,1.3-85.453,2.9S88.979,237.075,136.173,237.075Z" transform="translate(-12.042 -92.854)" fill="#b7b7b7"/>
      <path id="Trazado_723706" data-name="Trazado 723706" d="M51.081,136.6a28.133,28.133,0,0,1-22.489-12.18,21.362,21.362,0,0,1-3.383-17.621c4.625-18.843,19.684-28.438,40.578-40.438S84.092,34.009,111,29.833c17.493-2.716,23.908,17.659-10.076,35.85-48.183,25.793,11.33,45.609,31.034,20.472s42.96-58.736,69.429-42.111c17.866,11.222,12.912,27.608,7.805,37.074a14.673,14.673,0,0,0,.617,15.058c8.286,12.562,19.639,36.7-12.794,39.8C160.415,139.482,78.08,137.4,51.081,136.6Z" fill="#a6f1ef"/>
      <path id="Trazado_723707" data-name="Trazado 723707" d="M111.586,177.831,104.576,172l-2.447,2.5,1.2,3.338H85.341V206.56h63.043V177.831Z" transform="translate(-27.98 -65.559)" fill="#47332e"/>
      <path id="Trazado_723708" data-name="Trazado 723708" d="M87.28,199.4A14.365,14.365,0,1,0,70.86,211.363,14.366,14.366,0,0,0,87.28,199.4Z" transform="translate(-15.725 -70.535)" fill="#ebdbc4"/>
      <path id="Trazado_723709" data-name="Trazado 723709" d="M61.445,205.762a.131.131,0,0,1-.106-.053,14.5,14.5,0,0,1,11.636-23.145.132.132,0,0,1,0,.265A14.233,14.233,0,0,0,61.551,205.55a.132.132,0,0,1-.027.185A.134.134,0,0,1,61.445,205.762Z" transform="translate(-15.613 -70.424)" fill="#261718"/>
      <path id="Trazado_723710" data-name="Trazado 723710" d="M133.927,182.828H123.569a.132.132,0,0,1,0-.265h10.358a.132.132,0,0,1,0,.265Z" transform="translate(-45.518 -70.424)" fill="#261718"/>
      <path id="Trazado_723711" data-name="Trazado 723711" d="M86.181,205a6.331,6.331,0,1,0-7.238,5.271A6.331,6.331,0,0,0,86.181,205Z" transform="translate(-22.572 -77.387)" fill="#d1c5ad"/>
      <path id="Trazado_723712" data-name="Trazado 723712" d="M123.4,166.2a4.864,4.864,0,0,0,2.538-6.2S119.77,161.242,123.4,166.2Z" transform="translate(-44.975 -60.038)" fill="#00817d"/>
      <path id="Trazado_723713" data-name="Trazado 723713" d="M126.3,169.08s2.071,1.814,3.432-1.1C129.728,167.982,127.373,166,126.3,169.08Z" transform="translate(-46.834 -63.422)" fill="#b9f5f3"/>
      <path id="Trazado_723714" data-name="Trazado 723714" d="M125.149,171.948a.132.132,0,0,1-.115-.067,8.258,8.258,0,0,1-.575-6.23.132.132,0,1,1,.248.092,7.978,7.978,0,0,0,.558,6.009.132.132,0,0,1-.051.18A.135.135,0,0,1,125.149,171.948Z" transform="translate(-45.805 -62.599)" fill="#47332e"/>
      <path id="Trazado_723715" data-name="Trazado 723715" d="M124.479,170.938a.136.136,0,0,1-.058-.013.133.133,0,0,1-.061-.177,4.174,4.174,0,0,1,2.655-1.886.132.132,0,1,1,.057.258,3.981,3.981,0,0,0-2.474,1.744A.131.131,0,0,1,124.479,170.938Z" transform="translate(-45.937 -64.115)" fill="#47332e"/>
      <path id="Trazado_723716" data-name="Trazado 723716" d="M235.6,73.346V66.409a14.53,14.53,0,0,0-14.53-14.531H200.766a14.531,14.531,0,0,0-10.275,4.256l-4.417,4.418A11.061,11.061,0,0,0,184.1,73.689c-21.556,2.576-38.2,19.408-38.2,39.793V151.6h97.172V73.346Zm-41.829-9.02,3.263-3.263a9.9,9.9,0,0,1,7-2.9h13.835a9.9,9.9,0,0,1,9.9,9.9,5.284,5.284,0,0,1-5.209,5.282H197.41A5.284,5.284,0,0,1,193.774,64.327Z" transform="translate(-55.857 -10.262)" fill="#00aca7"/>
      <path id="Trazado_723717" data-name="Trazado 723717" d="M280.894,79.654V66.409a14.53,14.53,0,0,0-14.531-14.531H246.057a14.53,14.53,0,0,0-10.275,4.256l-4.417,4.418a11.188,11.188,0,0,0,7.912,19.1ZM239.066,64.327l3.262-3.263a9.9,9.9,0,0,1,7-2.9h13.835a9.9,9.9,0,0,1,9.9,9.9,5.286,5.286,0,0,1-5.285,5.286H242.8A5.286,5.286,0,0,1,239.066,64.327Z" transform="translate(-93.684 -10.262)" fill="#00817d"/>
      <path id="Trazado_723718" data-name="Trazado 723718" d="M265.173,96.729v73.18h-71.26V131.8A40.137,40.137,0,0,1,234.049,91.66H260.1A5.069,5.069,0,0,1,265.173,96.729Z" transform="translate(-77.962 -28.575)" fill="#00817d"/>
      <path id="Trazado_723719" data-name="Trazado 723719" d="M194.656,128.648a.5.5,0,0,1-.079-.006.528.528,0,0,1-.445-.6,40.716,40.716,0,0,1,24.1-31.255.529.529,0,1,1,.42.971A39.877,39.877,0,0,0,195.178,128.2.529.529,0,0,1,194.656,128.648Z" transform="translate(-78.06 -30.915)" fill="#f3fbff"/>
      <path id="Trazado_723720" data-name="Trazado 723720" d="M322.82,110.555l-1.63-4.079-1.63,4.079-3.968,1.519,3.9,1.253,1.7,4.345,1.7-4.345,3.9-1.253Z" transform="translate(-133.979 -35.396)" fill="#f3fbff"/>
      <path id="Trazado_723721" data-name="Trazado 723721" d="M191.825,165.283l-1.353-3.387-1.353,3.387-3.294,1.261,3.239,1.04,1.408,3.607,1.408-3.607,3.239-1.04Z" transform="translate(-74.239 -60.91)" fill="#f3fbff"/>
      <path id="Trazado_723722" data-name="Trazado 723722" d="M275.758,162.239c1.375-11.5-5.949-21.825-16.357-23.069s-19.96,7.067-21.335,18.562,5.95,21.825,16.358,23.069S274.384,173.735,275.758,162.239Z" transform="translate(-98.212 -50.39)" fill="#00aca7"/>
      <path id="Trazado_723723" data-name="Trazado 723723" d="M285.4,154.32a19.771,19.771,0,0,0-6.969-19.722l-3.094,3.865a14.833,14.833,0,0,1,5.289,14.51l-2.655-.748,1.615,4,1.615,4,3.466-2.564,3.466-2.565Z" transform="translate(-115.449 -48.343)" fill="#b9f5f3"/>
      <path id="Trazado_723724" data-name="Trazado 723724" d="M236.145,183.573l1.741-2.139-4.31-.1-4.31-.1.978,4.2.978,4.2,1.793-2.2a19.762,19.762,0,0,0,20.867,1.433l-2.319-4.374A14.835,14.835,0,0,1,236.145,183.573Z" transform="translate(-94.237 -69.808)" fill="#b9f5f3"/>
      <path id="Trazado_723725" data-name="Trazado 723725" d="M239.946,128.887v2.754L243.355,129l3.409-2.639-3.409-2.639-3.408-2.639v2.84A19.828,19.828,0,0,0,221.3,143.692h4.951A14.87,14.87,0,0,1,239.946,128.887Z" transform="translate(-90.569 -42.121)" fill="#b9f5f3"/>
      <path id="Trazado_723726" data-name="Trazado 723726" d="M296.653,66.428a.132.132,0,0,1-.133-.132,14.415,14.415,0,0,0-14.4-14.4H261.815a.132.132,0,0,1,0-.265h20.307A14.679,14.679,0,0,1,296.785,66.3.132.132,0,0,1,296.653,66.428Z" transform="translate(-109.161 -10.148)" fill="#261718"/>
      <path id="Trazado_723727" data-name="Trazado 723727" d="M338,166.789c4.96,12.713.795,19.349-6.436,22.17s-14.788.758-19.748-11.956-7.028-35.327.2-38.148S333.041,154.076,338,166.789Z" transform="translate(-130.171 -50.167)" fill="#f4be60"/>
      <path id="Trazado_723728" data-name="Trazado 723728" d="M325.643,190.151a11.88,11.88,0,0,1-5.5-1.326c-3.784-1.943-6.9-6.008-9.274-12.081a73.981,73.981,0,0,1-4.506-22.959c-.158-5.137.283-14.029,5.009-15.873s11.072,4.4,14.435,8.288a73.965,73.965,0,0,1,12.231,19.946c2.37,6.074,2.826,11.178,1.358,15.17-1.291,3.508-4.014,6.094-8.094,7.685A15.582,15.582,0,0,1,325.643,190.151Zm-12.456-51.51a3.9,3.9,0,0,0-1.426.255c-3.009,1.174-4.59,6.589-4.335,14.856a73.936,73.936,0,0,0,4.434,22.607c2.273,5.826,5.224,9.7,8.771,11.525,3.045,1.563,6.506,1.606,10.292.13s6.3-3.854,7.485-7.065c1.377-3.742.923-8.593-1.35-14.42a73.935,73.935,0,0,0-12.046-19.638C320.388,141.546,316.189,138.641,313.187,138.641Z" transform="translate(-129.721 -49.714)" fill="#e2923b"/>
      <path id="Trazado_723729" data-name="Trazado 723729" d="M321.184,179.024a.531.531,0,0,1-.493-.337,3.268,3.268,0,0,1,6.089-2.375.529.529,0,1,1-.985.385,2.21,2.21,0,1,0-4.117,1.606.528.528,0,0,1-.3.685A.536.536,0,0,1,321.184,179.024Z" transform="translate(-136.223 -66.587)" fill="#e2923b"/>
      <path id="Trazado_723730" data-name="Trazado 723730" d="M323.2,147.8a.529.529,0,0,1-.525-.471,3.268,3.268,0,1,1,6.5-.719.529.529,0,0,1-1.052.117,2.209,2.209,0,1,0-4.392.486.53.53,0,0,1-.468.584A.432.432,0,0,1,323.2,147.8Z" transform="translate(-137.228 -52.535)" fill="#e2923b"/>
      <path id="Trazado_723731" data-name="Trazado 723731" d="M318.839,155.806a.529.529,0,0,1-.493-.337,3.268,3.268,0,0,1,6.089-2.375.529.529,0,1,1-.986.385,2.21,2.21,0,1,0-4.117,1.606.529.529,0,0,1-.3.685A.535.535,0,0,1,318.839,155.806Z" transform="translate(-135.143 -55.899)" fill="#e2923b"/>
      <path id="Trazado_723732" data-name="Trazado 723732" d="M310.653,148.094a.529.529,0,0,1-.392-.174,3.268,3.268,0,0,1,4.841-4.391.529.529,0,0,1-.784.71,2.21,2.21,0,0,0-3.273,2.97.53.53,0,0,1-.392.885Z" transform="translate(-131.135 -51.961)" fill="#e2923b"/>
      <path id="Trazado_723733" data-name="Trazado 723733" d="M317.085,164.325a.53.53,0,0,1-.415-.2,3.268,3.268,0,0,1,5.121-4.062.529.529,0,0,1-.829.658,2.21,2.21,0,1,0-3.463,2.746.529.529,0,0,1-.086.743A.523.523,0,0,1,317.085,164.325Z" transform="translate(-134.149 -59.497)" fill="#e2923b"/>
      <path id="Trazado_723734" data-name="Trazado 723734" d="M331.018,165.648a.529.529,0,0,1-.52-.432,3.268,3.268,0,0,1,6.423-1.208.529.529,0,1,1-1.04.2,2.21,2.21,0,1,0-4.343.817.529.529,0,0,1-.521.627Z" transform="translate(-140.815 -60.656)" fill="#e2923b"/>
      <path id="Trazado_723735" data-name="Trazado 723735" d="M345.758,145.951c7.037,11.027,25.7,42.881-.382,48.865Z" transform="translate(-147.69 -53.569)" fill="#b9f5f3"/>
      <path id="Trazado_723736" data-name="Trazado 723736" d="M315.653,193.373h-13.08c8.063,34.382,28.119,21.663,28.119,21.663Z" transform="translate(-127.985 -75.4)" fill="#b9f5f3"/>
      <path id="Trazado_723737" data-name="Trazado 723737" d="M345.219,208.089h0a.133.133,0,0,1-.131-.134l.271-30.347a.132.132,0,0,1,.132-.131h0a.132.132,0,0,1,.131.134l-.271,30.347A.133.133,0,0,1,345.219,208.089Z" transform="translate(-147.557 -68.082)" fill="#261718"/>
      <path id="Trazado_723738" data-name="Trazado 723738" d="M282.647,202.2l10.753-8.826h13.08S301.806,201.594,282.647,202.2Z" transform="translate(-118.812 -75.4)" fill="#00817d"/>
      <path id="Trazado_723739" data-name="Trazado 723739" d="M160.557,236.142l-20.929,3.911S145.282,233.985,160.557,236.142Z" transform="translate(-52.971 -94.876)" fill="#00817d"/>
      <path id="Trazado_723740" data-name="Trazado 723740" d="M193.943,225.295l-3.711,6.214H124.517v-6.214Z" transform="translate(-46.015 -90.096)" fill="#b9f5f3"/>
      <path id="Trazado_723741" data-name="Trazado 723741" d="M124.061,230.6a3.107,3.107,0,1,0-4.394,0A3.107,3.107,0,0,0,124.061,230.6Z" transform="translate(-43.363 -90.096)" fill="#d9a35b"/>
      <path id="Trazado_723742" data-name="Trazado 723742" d="M121.416,231.587a3.636,3.636,0,0,1,0-7.272.529.529,0,1,1,0,1.058,2.578,2.578,0,1,0,2.578,2.578.529.529,0,1,1,1.058,0A3.64,3.64,0,0,1,121.416,231.587Z" transform="translate(-42.913 -89.645)" fill="#00817d"/>
      <path id="Trazado_723743" data-name="Trazado 723743" d="M146.448,231.567a.4.4,0,0,1-.4-.4v-6.214a.4.4,0,1,1,.793,0v6.214A.4.4,0,0,1,146.448,231.567Z" transform="translate(-55.928 -89.758)" fill="#00817d"/>
      <path id="Trazado_723744" data-name="Trazado 723744" d="M175.67,231.567a.4.4,0,0,1-.4-.4v-6.214a.4.4,0,1,1,.793,0v6.214A.4.4,0,0,1,175.67,231.567Z" transform="translate(-69.381 -89.758)" fill="#00817d"/>
      <path id="Trazado_723745" data-name="Trazado 723745" d="M204.892,231.567a.4.4,0,0,1-.4-.4v-6.214a.4.4,0,1,1,.793,0v6.214A.4.4,0,0,1,204.892,231.567Z" transform="translate(-82.834 -89.758)" fill="#00817d"/>
      <path id="Trazado_723746" data-name="Trazado 723746" d="M234.114,231.567a.4.4,0,0,1-.4-.4v-6.214a.4.4,0,0,1,.793,0v6.214A.4.4,0,0,1,234.114,231.567Z" transform="translate(-96.286 -89.758)" fill="#00817d"/>
      <path id="Trazado_723747" data-name="Trazado 723747" d="M190.141,213.781H130.816v6.214h59.325Z" transform="translate(-48.915 -84.795)" fill="#b9f5f3"/>
      <path id="Trazado_723748" data-name="Trazado 723748" d="M128.167,219.994a3.107,3.107,0,1,0-3.107-3.107A3.107,3.107,0,0,0,128.167,219.994Z" transform="translate(-46.265 -84.795)" fill="#d9a35b"/>
      <path id="Trazado_723749" data-name="Trazado 723749" d="M127.715,220.072a3.636,3.636,0,0,1,0-7.272.529.529,0,1,1,0,1.058,2.578,2.578,0,1,0,2.578,2.578.529.529,0,1,1,1.058,0A3.64,3.64,0,0,1,127.715,220.072Z" transform="translate(-45.813 -84.344)" fill="#00817d"/>
      <path id="Trazado_723750" data-name="Trazado 723750" d="M152.747,220.052a.4.4,0,0,1-.4-.4v-6.214a.4.4,0,1,1,.793,0v6.214A.4.4,0,0,1,152.747,220.052Z" transform="translate(-58.828 -84.457)" fill="#00817d"/>
      <path id="Trazado_723751" data-name="Trazado 723751" d="M181.969,220.052a.4.4,0,0,1-.4-.4v-6.214a.4.4,0,1,1,.793,0v6.214A.4.4,0,0,1,181.969,220.052Z" transform="translate(-72.281 -84.457)" fill="#00817d"/>
      <path id="Trazado_723752" data-name="Trazado 723752" d="M211.191,220.052a.4.4,0,0,1-.4-.4v-6.214a.4.4,0,0,1,.793,0v6.214A.4.4,0,0,1,211.191,220.052Z" transform="translate(-85.734 -84.457)" fill="#00817d"/>
      <path id="Trazado_723753" data-name="Trazado 723753" d="M240.413,220.052a.4.4,0,0,1-.4-.4v-6.214a.4.4,0,0,1,.793,0v6.214A.4.4,0,0,1,240.413,220.052Z" transform="translate(-99.186 -84.457)" fill="#00817d"/>
      <path id="Trazado_723754" data-name="Trazado 723754" d="M185.315,194.961,154.05,172.6S162.916,193.057,185.315,194.961Z" transform="translate(-59.611 -65.836)" fill="#00817d"/>
      <path id="Trazado_723755" data-name="Trazado 723755" d="M190.782,209.568,166.2,204.975S177.787,215.217,190.782,209.568Z" transform="translate(-65.204 -80.741)" fill="#00817d"/>
      <path id="Trazado_723756" data-name="Trazado 723756" d="M168.806,225.314H154.17a.132.132,0,0,1,0-.264h14.636a.132.132,0,1,1,0,.264Z" transform="translate(-59.605 -89.983)" fill="#261718"/>
      <path id="Trazado_723757" data-name="Trazado 723757" d="M197.829,225.314H183.144a.132.132,0,1,1,0-.264h14.685a.132.132,0,1,1,0,.264Z" transform="translate(-72.944 -89.983)" fill="#261718"/>
      <path id="Trazado_723758" data-name="Trazado 723758" d="M223.591,225.314h-11a.132.132,0,1,1,0-.264h11a.132.132,0,0,1,0,.264Z" transform="translate(-86.5 -89.983)" fill="#261718"/>
      <path id="Trazado_723759" data-name="Trazado 723759" d="M244.344,233.5h-2.316a.132.132,0,1,1,0-.264h2.166l2.29-3.835a.132.132,0,1,1,.227.135Z" transform="translate(-100.051 -91.958)" fill="#261718"/>
      <path id="Trazado_723760" data-name="Trazado 723760" d="M144.429,213.8h-9.09a.132.132,0,0,1,0-.265h9.09a.132.132,0,1,1,0,.265Z" transform="translate(-50.936 -84.682)" fill="#261718"/>
      <path id="Trazado_723761" data-name="Trazado 723761" d="M143.777,225.314h-9.249a.132.132,0,0,1,0-.264h9.249a.132.132,0,1,1,0,.264Z" transform="translate(-50.562 -89.983)" fill="#261718"/>
      <path id="Trazado_723762" data-name="Trazado 723762" d="M173.9,111.684l-1.7,2.613a9.832,9.832,0,0,1-13.606,2.865l-6.194-4.039a5.557,5.557,0,0,1-1.619-7.69l6.374-9.775a5.557,5.557,0,0,1,7.69-1.619l6.194,4.039A9.832,9.832,0,0,1,173.9,111.684Z" transform="translate(-57.69 -29.255)" fill="#00aca7"/>
      <path id="Trazado_723763" data-name="Trazado 723763" d="M182.639,98.18a.13.13,0,0,1-.072-.022l-4.592-2.994a.132.132,0,0,1,.145-.221l4.592,2.994a.132.132,0,0,1,.038.183A.13.13,0,0,1,182.639,98.18Z" transform="translate(-70.597 -30.077)" fill="#261718"/>
      <path id="Trazado_723764" data-name="Trazado 723764" d="M161.553,132.645a11.447,11.447,0,0,1-6.271-1.875l-9.542-6.223a.132.132,0,1,1,.144-.221l9.542,6.222a11.272,11.272,0,0,0,15.582-3.281.132.132,0,0,1,.222.144,11.45,11.45,0,0,1-7.278,4.982A11.65,11.65,0,0,1,161.553,132.645Z" transform="translate(-55.757 -43.604)" fill="#261718"/>
      <path id="Trazado_723765" data-name="Trazado 723765" d="M158.744,94.68a11.422,11.422,0,1,1-5.573-7.6A11.419,11.419,0,0,1,158.744,94.68Z" transform="translate(-51.369 -25.791)" fill="#487f3b"/>
      <path id="Trazado_723766" data-name="Trazado 723766" d="M166.361,97.652c1.389,6.595-2.488,12.993-8.661,14.293a11.275,11.275,0,0,1-10.73-3.7,11.42,11.42,0,0,0,11.183-19.916A12.335,12.335,0,0,1,166.361,97.652Z" transform="translate(-56.351 -27.044)" fill="#487f3b"/>
      <path id="Trazado_723767" data-name="Trazado 723767" d="M147.647,116.214a11.563,11.563,0,0,1-11.281-9.175.132.132,0,1,1,.259-.055,11.288,11.288,0,0,0,22.091-4.652.132.132,0,1,1,.258-.055,11.57,11.57,0,0,1-11.327,13.937Z" transform="translate(-51.468 -33.415)" fill="#261718"/>
      <path id="Trazado_723768" data-name="Trazado 723768" d="M178.805,118.515a.132.132,0,0,1-.072-.022l-2.87-1.872a.132.132,0,0,1,.145-.222l2.871,1.872a.133.133,0,0,1-.073.243Z" transform="translate(-69.625 -39.955)" fill="#261718"/>
      <path id="Trazado_723769" data-name="Trazado 723769" d="M179.484,114.279a.131.131,0,0,1-.072-.022l-2.032-1.325a.132.132,0,0,1,.145-.222l2.032,1.325a.133.133,0,0,1-.073.243Z" transform="translate(-70.323 -38.256)" fill="#261718"/>
      <path id="Trazado_723770" data-name="Trazado 723770" d="M176.608,122.152a.132.132,0,0,1-.072-.022l-3.016-1.966a.132.132,0,0,1,.145-.222l3.015,1.966a.133.133,0,0,1,.039.183A.135.135,0,0,1,176.608,122.152Z" transform="translate(-68.546 -41.586)" fill="#261718"/>
    </g>
  </g>
</svg>
