<svg xmlns="http://www.w3.org/2000/svg" width="295" height="141" viewBox="0 0 295 141">
  <g id="Grupo_1018040" data-name="Grupo 1018040" transform="translate(-1019.668 -7039)">
    <rect id="Rectángulo_375670" data-name="Rectángulo 375670" width="295" height="141" transform="translate(1019.668 7039)" fill="#d9f9f8"/>
    <g id="ingredientes" transform="translate(1088.13 7057.166)">
      <path id="Trazado_722007" data-name="Trazado 722007" d="M24.775,10.57a4.219,4.219,0,0,0-.824,1.271,3.864,3.864,0,0,0-.284,1.285,1.577,1.577,0,0,1-.245,1.067c-.383.427-1.115.271-1.585.6-.88.616-.18,2.286-1.042,2.927a5.883,5.883,0,0,1-1.128.407,1.345,1.345,0,0,0-.736,1.43,2.151,2.151,0,0,1,.134.8c-.166.821-1.6.484-2.09,1.167-.411.574-.056,1.179-.013,1.775a.989.989,0,0,1-.242.768,3.38,3.38,0,0,1-.592.372c-1.072.707-.539,2.041.3,2.622a9.523,9.523,0,0,0,3.013,1.167c5.422,1.438,11.163.849,16.7-.03a16.707,16.707,0,0,0,2.962-.675c.424-.149.828-.355,1.246-.5a2.75,2.75,0,0,0,1.138-.615,1.036,1.036,0,0,0,.217-1.225c-.3-.461-.995-.489-1.343-.912-.448-.545-.088-1.415-.411-2.042-.388-.753-1.578-.836-1.89-1.623-.256-.643.2-1.512-.286-2.007-.368-.375-1.056-.252-1.422-.631-.487-.5-.016-1.419-.387-2.013-.3-.479-1-.525-1.391-.93-.657-.679-.48-1.831-.8-2.666a5.088,5.088,0,0,0-1.7-2.255A5.96,5.96,0,0,0,27.6,9.08a5.01,5.01,0,0,0-2.827,1.489Z" fill="#003759"/>
      <path id="Trazado_722008" data-name="Trazado 722008" d="M38.48,39.1l1.281,11.218H20.172l.595-11.83L12.9,35.633c.023.008,2.8-6.036,3.094-6.611a11.907,11.907,0,0,1,5.369-4.9A16.943,16.943,0,0,1,29.5,22.3a14.51,14.51,0,0,1,7.084,1.838A21.247,21.247,0,0,1,43.131,31.3c.764,1.28,1.514,2.571,2.233,3.877L38.48,39.1Z" fill="#01d8d1"/>
      <path id="Trazado_722009" data-name="Trazado 722009" d="M37.206,24.635H20.544a.071.071,0,0,1,0-.141H37.206a.071.071,0,1,1,0,.141Z" fill="#fff"/>
      <path id="Trazado_722010" data-name="Trazado 722010" d="M39.655,26.747H17.729a.071.071,0,0,1,0-.141H39.655a.071.071,0,1,1,0,.141Z" fill="#fff"/>
      <path id="Trazado_722011" data-name="Trazado 722011" d="M41.457,28.859H16.113a.071.071,0,1,1,0-.141H41.457a.071.071,0,0,1,0,.141Z" fill="#fff"/>
      <path id="Trazado_722012" data-name="Trazado 722012" d="M42.889,30.971H15.108a.071.071,0,1,1,0-.141H42.889a.071.071,0,0,1,0,.141Z" fill="#fff"/>
      <path id="Trazado_722013" data-name="Trazado 722013" d="M44.14,33.083H14.127a.071.071,0,1,1,0-.141H44.14a.071.071,0,1,1,0,.141Z" fill="#fff"/>
      <path id="Trazado_722014" data-name="Trazado 722014" d="M45.336,35.194H13.143a.071.071,0,0,1,0-.141H45.336a.071.071,0,1,1,0,.141Z" fill="#fff"/>
      <path id="Trazado_722015" data-name="Trazado 722015" d="M41.751,37.306H17.313a.071.071,0,1,1,0-.141H41.751a.071.071,0,1,1,0,.141Z" fill="#fff"/>
      <path id="Trazado_722016" data-name="Trazado 722016" d="M38.508,39.418H20.724a.071.071,0,1,1,0-.141H38.508a.071.071,0,1,1,0,.141Z" fill="#fff"/>
      <path id="Trazado_722017" data-name="Trazado 722017" d="M38.749,41.53H20.618a.071.071,0,1,1,0-.141H38.749a.071.071,0,1,1,0,.141Z" fill="#fff"/>
      <path id="Trazado_722018" data-name="Trazado 722018" d="M38.99,43.642H20.511a.071.071,0,0,1,0-.141H38.99a.071.071,0,0,1,0,.141Z" fill="#fff"/>
      <path id="Trazado_722019" data-name="Trazado 722019" d="M39.231,45.754H20.405a.071.071,0,0,1,0-.141H39.231a.071.071,0,0,1,0,.141Z" fill="#fff"/>
      <path id="Trazado_722020" data-name="Trazado 722020" d="M39.472,47.865H20.3a.071.071,0,1,1,0-.141H39.472a.071.071,0,1,1,0,.141Z" fill="#fff"/>
      <path id="Trazado_722021" data-name="Trazado 722021" d="M.647,70.3A30.162,30.162,0,0,0,19.613,91.56a30.613,30.613,0,0,0,28.519-4.426,32,32,0,0,0,9.5-12.457A31.573,31.573,0,0,0,60.018,66.4a20.741,20.741,0,0,0-1.4-11.5,14.245,14.245,0,0,0-8.562-7.76c-7-2.11-14.39,2.185-21.713,1.814-4.639-.235-9.093-2.348-13.73-2.072a15.593,15.593,0,0,0-12.423,8.41A21.934,21.934,0,0,0,.647,70.3Z" fill="#eb575f"/>
      <path id="Trazado_722022" data-name="Trazado 722022" d="M14.722,34.765a77.742,77.742,0,0,1-3.774,9.487c-2,3.951-3.569,7.7-2.948,8.442s5.079-3.63,8.1-7.833a50.465,50.465,0,0,0,4.731-8.093l-6.1-2Z" fill="#ffc3a8"/>
      <path id="Trazado_722023" data-name="Trazado 722023" d="M44.11,35.89s3.355,6.176,5.092,8.75c1.851,2.744,3.606,5.765,2.874,6.17-.976.541-4.477-1.343-8.3-5.065a20.822,20.822,0,0,1-4.963-6.836Z" fill="#ffc3a8"/>
      <path id="Trazado_722024" data-name="Trazado 722024" d="M38.48,39.136a.035.035,0,0,1-.035-.03L37.3,30.595a.035.035,0,0,1,.03-.04.034.034,0,0,1,.04.03L38.515,39.1a.035.035,0,0,1-.03.04Z" fill="#2d1f16"/>
      <path id="Trazado_722025" data-name="Trazado 722025" d="M28.8,26.676c2.169,0,3.928-.945,3.928-2.112S30.97,22.452,28.8,22.452s-3.928.945-3.928,2.112S26.631,26.676,28.8,26.676Z" fill="#ffc3a8"/>
      <path id="Trazado_722026" data-name="Trazado 722026" d="M28.8,26.711c-2.185,0-3.963-.963-3.963-2.147s1.778-2.147,3.963-2.147,3.963.963,3.963,2.147S30.986,26.711,28.8,26.711Zm0-4.224c-2.146,0-3.893.932-3.893,2.076S26.654,26.64,28.8,26.64s3.893-.932,3.893-2.076S30.947,22.487,28.8,22.487Z" fill="#2d1f16"/>
      <path id="Trazado_722027" data-name="Trazado 722027" d="M20.767,38.524h0a.034.034,0,0,1-.034-.037l.263-7.6a.037.037,0,0,1,.037-.034.035.035,0,0,1,.034.037l-.263,7.6A.035.035,0,0,1,20.767,38.524Z" fill="#2d1f16"/>
      <path id="Trazado_722028" data-name="Trazado 722028" d="M6.205,56.279a13.746,13.746,0,0,1,.714-2.518,4.414,4.414,0,0,0-2.578,2.352c-.093.192-.3.433-.463.3a.325.325,0,0,1-.09-.157,3.872,3.872,0,0,1,1.092-3.749,11.389,11.389,0,0,1,3.444-2.188,3.513,3.513,0,0,0,2,1.05,4.81,4.81,0,0,1,.965,2.6c.018.28-.045,2.235-.523,1.446a6.836,6.836,0,0,1-.319-.9,1.337,1.337,0,0,0-1.026-.925,1.486,1.486,0,0,0-1.1.627,8.026,8.026,0,0,0-.975,1.36c-.272.478-.4,1.042-.667,1.509-.476.825-.541-.377-.478-.811Z" fill="#ffc3a8"/>
      <path id="Trazado_722029" data-name="Trazado 722029" d="M3.622,55.69a.072.072,0,0,1-.032-.008.071.071,0,0,1-.031-.095,5.694,5.694,0,0,1,2.485-2.481.07.07,0,1,1,.064.126,5.553,5.553,0,0,0-2.423,2.419.071.071,0,0,1-.063.039Z" fill="#f8826a"/>
      <path id="Trazado_722030" data-name="Trazado 722030" d="M3.852,54.185a.069.069,0,0,1-.038-.011.071.071,0,0,1-.021-.1A3.81,3.81,0,0,1,5.5,52.638a.071.071,0,0,1,.055.13,3.67,3.67,0,0,0-1.645,1.385.07.07,0,0,1-.059.033Z" fill="#f8826a"/>
      <path id="Trazado_722031" data-name="Trazado 722031" d="M53.818,54.934a13.751,13.751,0,0,0-.714-2.518,4.414,4.414,0,0,1,2.578,2.352c.093.192.3.433.463.3a.325.325,0,0,0,.09-.157,3.872,3.872,0,0,0-1.092-3.749A11.4,11.4,0,0,0,51.7,48.973a3.513,3.513,0,0,1-2,1.05,4.811,4.811,0,0,0-.965,2.6c-.018.28.045,2.235.523,1.446a6.865,6.865,0,0,0,.319-.9,1.337,1.337,0,0,1,1.026-.925,1.486,1.486,0,0,1,1.1.627,8.023,8.023,0,0,1,.975,1.36c.272.478.4,1.042.667,1.509.476.825.541-.377.478-.811Z" fill="#ffc3a8"/>
      <path id="Trazado_722032" data-name="Trazado 722032" d="M56.4,54.345a.07.07,0,0,1-.063-.039,5.556,5.556,0,0,0-2.423-2.419.07.07,0,0,1,.064-.126,5.7,5.7,0,0,1,2.485,2.482.071.071,0,0,1-.031.095A.077.077,0,0,1,56.4,54.345Z" fill="#f8826a"/>
      <path id="Trazado_722033" data-name="Trazado 722033" d="M56.17,52.84a.07.07,0,0,1-.059-.032,3.67,3.67,0,0,0-1.645-1.385.071.071,0,1,1,.055-.13,3.814,3.814,0,0,1,1.709,1.439.071.071,0,0,1-.021.1.068.068,0,0,1-.038.011Z" fill="#f8826a"/>
      <path id="Trazado_722034" data-name="Trazado 722034" d="M30.935,24.8H26.809l.377-2.787.21-1.554h3.073l.175,1.626Z" fill="#ffc3a8"/>
      <path id="Trazado_722035" data-name="Trazado 722035" d="M30.643,22.082a2.977,2.977,0,0,1-1.84.54,2.926,2.926,0,0,1-1.618-.612l.21-1.554h3.073Z" fill="#fea98d"/>
      <path id="Trazado_722036" data-name="Trazado 722036" d="M33.634,17.157c-.031.541-.375.962-.769.939s-.687-.479-.656-1.02.376-.961.769-.939S33.665,16.616,33.634,17.157Z" fill="#fea98d"/>
      <path id="Trazado_722037" data-name="Trazado 722037" d="M26.053,17.018c.027.541-.271.995-.665,1.014s-.735-.4-.762-.945.271-.995.665-1.014S26.026,16.477,26.053,17.018Z" fill="#fea98d"/>
      <path id="Trazado_722038" data-name="Trazado 722038" d="M32.85,16.524c.161-2.878-1.392-5.3-3.47-5.421s-3.893,2.122-4.055,5,1.392,5.3,3.47,5.421S32.689,19.4,32.85,16.524Z" fill="#ffc3a8"/>
      <path id="Trazado_722039" data-name="Trazado 722039" d="M27.6,13.4a9.514,9.514,0,0,1-2.373,2.645,6,6,0,0,1,.286-3.119,2.293,2.293,0,0,1,.912-1.246,1.067,1.067,0,0,1,1.408.252A1.481,1.481,0,0,1,27.6,13.4Z" fill="#003759"/>
      <path id="Trazado_722040" data-name="Trazado 722040" d="M27.578,11.321a1.942,1.942,0,0,0,.182,1.9,5.6,5.6,0,0,0,5.3,2.769,4.3,4.3,0,0,0-.57-3.439,4.386,4.386,0,0,0-2.967-1.878A1.913,1.913,0,0,0,27.578,11.321Z" fill="#003759"/>
      <path id="Trazado_722041" data-name="Trazado 722041" d="M29.236,54.337s-.03-.2-.084-.556c-.013-.09-.03-.185-.042-.3s-.023-.235-.036-.365l-.04-.416c-.011-.146-.016-.3-.024-.455s-.019-.325-.021-.5v-.532c0-.091,0-.184,0-.278S29,50.756,29,50.66c.011-.192.017-.388.032-.587.04-.4.072-.81.141-1.224.053-.418.146-.835.227-1.256.1-.415.2-.835.326-1.238.113-.408.26-.8.393-1.181.071-.189.149-.372.222-.553l.11-.268c.038-.088.079-.173.117-.257l.229-.491c.075-.158.158-.306.233-.451s.147-.283.22-.413l.215-.363.189-.32c.06-.1.121-.185.173-.265l.332-.5a1.1,1.1,0,1,1,1.83,1.213.936.936,0,0,1-.058.079l-.032.04-.329.409c-.052.066-.112.136-.173.217l-.192.265-.218.3c-.074.108-.147.225-.226.346s-.164.245-.243.379l-.243.417c-.041.072-.086.143-.126.218s-.079.152-.119.23c-.079.156-.165.313-.245.476-.15.331-.315.67-.45,1.028-.151.353-.269.724-.4,1.092-.108.375-.229.748-.312,1.124-.1.373-.162.748-.233,1.11-.031.182-.053.361-.079.537-.013.088-.025.175-.038.261s-.017.172-.025.256q-.023.254-.046.491c-.013.159-.015.313-.023.461s-.014.291-.018.424,0,.259,0,.377,0,.23,0,.332.011.206.015.294c.021.358.032.562.032.562a.493.493,0,0,1-.981.1Z" fill="#003759"/>
      <path id="Trazado_722042" data-name="Trazado 722042" d="M6.4,57.471a.205.205,0,0,1-.082-.017c-.247-.109-.221-.686-.218-.752a6.86,6.86,0,0,1,.1-.779c.015-.087.03-.173.045-.26a11,11,0,0,1,.443-1.673,2.738,2.738,0,0,0-1.427.927A8.585,8.585,0,0,0,4.239,56.5a.071.071,0,1,1-.124-.068,8.638,8.638,0,0,1,1.042-1.611,2.823,2.823,0,0,1,1.625-1L6.9,53.8l-.04.124a11.571,11.571,0,0,0-.473,1.758c-.014.088-.029.175-.045.262a6.7,6.7,0,0,0-.1.762c-.015.261.033.57.134.614.045.021.124-.022.215-.115a1.188,1.188,0,0,0,.214-.374l0-.009a16.833,16.833,0,0,1,1.207-2.342c.255-.409,1.005-1.218,1.58-.954a1.956,1.956,0,0,1,.8.893c.054.093.117.233.184.381.089.2.325.718.414.7,0,0,.1-.026.144-.7a5.161,5.161,0,0,0-.754-3.412l-.038-.052.047-.042a32.544,32.544,0,0,0,5.331-6.167.071.071,0,0,1,.118.078,32.664,32.664,0,0,1-5.307,6.151,5.35,5.35,0,0,1,.744,3.452c-.036.56-.112.8-.26.826-.184.034-.337-.274-.568-.783-.066-.144-.127-.281-.177-.368a1.846,1.846,0,0,0-.737-.836c-.457-.211-1.149.494-1.4.9a16.688,16.688,0,0,0-1.2,2.323l0,.009a1.292,1.292,0,0,1-.242.418.439.439,0,0,1-.291.163Z" fill="#f8826a"/>
      <path id="Trazado_722043" data-name="Trazado 722043" d="M29.005,55.137a16.758,16.758,0,0,1-6.84-1.433.036.036,0,0,1-.018-.047.035.035,0,0,1,.047-.018,17.039,17.039,0,0,0,14.79-.549.035.035,0,0,1,.034.062,16.905,16.905,0,0,1-8.012,1.985Z" fill="#2d1f16"/>
      <path id="Trazado_722044" data-name="Trazado 722044" d="M25.6,35.9c2.894,2.844,3.921,7.031,4.823,10.987a12.887,12.887,0,0,1-9.159-.046A13.226,13.226,0,0,1,15.072,40.6a39.369,39.369,0,0,1-2.854-8.481C16.985,31.869,22.192,32.559,25.6,35.9Z" fill="#81c539"/>
      <path id="Trazado_722045" data-name="Trazado 722045" d="M30.136,46.73a.036.036,0,0,1-.022-.007l-.344-.266c-5.933-4.571-12.067-9.3-17.576-14.313a.035.035,0,1,1,.048-.052C17.75,37.105,23.882,41.83,29.813,46.4l.344.265a.035.035,0,0,1-.022.063Z" fill="#2d1f16"/>
      <path id="Trazado_722046" data-name="Trazado 722046" d="M53.112,55.541a.071.071,0,0,1-.068-.05,7.081,7.081,0,0,0-1.329-2.481c-.373-.449-.718-.651-1.055-.618a.952.952,0,0,0-.662.442,2.62,2.62,0,0,0-.315.8,1.082,1.082,0,0,1-.224.492.462.462,0,0,1-.32.141.333.333,0,0,1-.237-.09.521.521,0,0,1-.126-.288,5.624,5.624,0,0,1,.528-3.667,31.747,31.747,0,0,1-6.087-4.95.07.07,0,1,1,.1-.1,31.634,31.634,0,0,0,6.116,4.962l.057.035-.031.059a5.48,5.48,0,0,0-.545,3.631.4.4,0,0,0,.087.214.19.19,0,0,0,.136.049.322.322,0,0,0,.22-.1.959.959,0,0,0,.189-.426,2.759,2.759,0,0,1,.336-.843,1.076,1.076,0,0,1,.765-.5,1.422,1.422,0,0,1,1.177.668,7.226,7.226,0,0,1,1.356,2.53.07.07,0,0,1-.068.09Z" fill="#f8826a"/>
      <path id="Trazado_722047" data-name="Trazado 722047" d="M29,18.906a3.96,3.96,0,0,1-1.623-.332,1.628,1.628,0,1,0,3.245,0A3.958,3.958,0,0,1,29,18.906Z" fill="#fff"/>
      <path id="Trazado_722048" data-name="Trazado 722048" d="M29.031,18.069a2.4,2.4,0,0,1-.9-.175l-.031-.013.011-.032a4.66,4.66,0,0,0,.289-1.223,1.551,1.551,0,0,0-.367-1.151,1.617,1.617,0,0,0-1.724-.251.036.036,0,1,1-.026-.067,1.689,1.689,0,0,1,1.8.268,1.619,1.619,0,0,1,.386,1.2,4.6,4.6,0,0,1-.282,1.21,2.333,2.333,0,0,0,1.138.139.035.035,0,1,1,.009.07,2.427,2.427,0,0,1-.3.02Z" fill="#2d1f16"/>
      <path id="Trazado_722049" data-name="Trazado 722049" d="M31.526,15.429a.037.037,0,0,1-.019-.006,1.878,1.878,0,0,0-1.953-.031.036.036,0,0,1-.037-.061,1.949,1.949,0,0,1,2.028.032.035.035,0,0,1,.011.049.036.036,0,0,1-.03.016Z" fill="#2d1f16"/>
      <path id="Trazado_722050" data-name="Trazado 722050" d="M31.237,16.491a.034.034,0,0,1-.02-.006,1.31,1.31,0,0,0-1.384-.031.036.036,0,0,1-.049-.011.036.036,0,0,1,.011-.049,1.383,1.383,0,0,1,1.461.033.036.036,0,0,1-.02.065Z" fill="#2d1f16"/>
      <path id="Trazado_722051" data-name="Trazado 722051" d="M27.818,16.422a.036.036,0,0,1-.025-.011.918.918,0,0,0-.671-.252,1.527,1.527,0,0,0-.71.213.035.035,0,1,1-.035-.061,1.59,1.59,0,0,1,.742-.221.983.983,0,0,1,.723.274.036.036,0,0,1,0,.05.034.034,0,0,1-.025.01Z" fill="#2d1f16"/>
      <path id="Trazado_722052" data-name="Trazado 722052" d="M42.85,24.6a.035.035,0,0,1-.027-.013,1.565,1.565,0,0,0-.922-.42,1.94,1.94,0,0,1-.894-.361,2.016,2.016,0,0,1-.426-1.575v-.045c0-.534-.107-1.216-.619-1.435a1.593,1.593,0,0,0-.406-.092,1.338,1.338,0,0,1-.5-.134c-.327-.188-.471-.6-.438-1.256a1.555,1.555,0,0,0-.284-1.256,1.452,1.452,0,0,0-.511-.254,1.474,1.474,0,0,1-.544-.277,1.487,1.487,0,0,1-.307-1.131,1.443,1.443,0,0,0-.277-1.077A1.4,1.4,0,0,0,36,14.979a1.7,1.7,0,0,1-.674-.26,1.7,1.7,0,0,1-.437-1.381c0-.108-.007-.219-.014-.325A3.877,3.877,0,0,0,32.631,9.9a5.8,5.8,0,0,0-3.944-.269.035.035,0,1,1-.018-.069,5.873,5.873,0,0,1,3.992.274,3.948,3.948,0,0,1,2.286,3.172c.007.106.011.219.014.327a1.648,1.648,0,0,0,.409,1.328,1.642,1.642,0,0,0,.647.247,1.467,1.467,0,0,1,.728.313,1.511,1.511,0,0,1,.3,1.127,1.415,1.415,0,0,0,.284,1.08,1.385,1.385,0,0,0,.519.262,1.507,1.507,0,0,1,.535.269,1.6,1.6,0,0,1,.307,1.312c-.031.628.1,1.018.4,1.192a1.271,1.271,0,0,0,.472.126,1.633,1.633,0,0,1,.424.1c.547.234.662.944.662,1.5v.045a1.966,1.966,0,0,0,.4,1.521,1.886,1.886,0,0,0,.862.344,1.64,1.64,0,0,1,.961.443.036.036,0,0,1,0,.05.035.035,0,0,1-.023.009Z" fill="#2d1f16"/>
      <path id="Trazado_722053" data-name="Trazado 722053" d="M78.127,93.387H71.161l.248-1.092,1.426-6.284H77l.96,6.284Z" fill="#ffca5a"/>
      <path id="Trazado_722054" data-name="Trazado 722054" d="M77.96,92.3l.167,1.092H71.161l.248-1.092Z" fill="#00817d"/>
      <path id="Trazado_722055" data-name="Trazado 722055" d="M92.084,93.387H85.118l.167-1.092.96-6.284h4.166L91.837,92.3Z" fill="#ffca5a"/>
      <path id="Trazado_722056" data-name="Trazado 722056" d="M92.084,93.387H85.118l.167-1.092h6.552Z" fill="#00817d"/>
      <path id="Trazado_722057" data-name="Trazado 722057" d="M70.445,41.706s.41,28.01.41,34.772.273,10.449.273,10.449l7.444.41s1.017-13.415,1.776-21.923c.931-10.438.832-16.113.931-15.766L70.445,41.707Z" fill="#00817d"/>
      <path id="Trazado_722058" data-name="Trazado 722058" d="M93.026,41.706s-.41,28.01-.41,34.772-.273,10.449-.273,10.449l-7.444.41s-1.017-13.415-1.776-21.923c-.931-10.438-.832-16.113-.931-15.766l10.834-7.942Z" fill="#00817d"/>
      <path id="Trazado_722059" data-name="Trazado 722059" d="M85.182,13.872a7.7,7.7,0,0,1-1.654,2.25,3.066,3.066,0,0,1-3.548.662,7.356,7.356,0,0,1-2.862-3.019c-.038-.064-.075-.127-.112-.192a3.119,3.119,0,0,0,.65-.366,5.021,5.021,0,0,0,1.608-2.387,7.838,7.838,0,0,0,.3-1.054,19.3,19.3,0,0,0,.326-2.641c.687.014,1.773-.011,2.459,0a22.154,22.154,0,0,0,.4,2.7,8.824,8.824,0,0,0,.317,1.074,6.53,6.53,0,0,0,1.321,2.386,3.188,3.188,0,0,0,.788.587Z" fill="#ffb097"/>
      <path id="Trazado_722060" data-name="Trazado 722060" d="M82.756,9.826a2.459,2.459,0,0,1-1.582.527,2.393,2.393,0,0,1-1.606-.588,19.3,19.3,0,0,0,.326-2.641c.687.014,1.773-.011,2.459,0a22.115,22.115,0,0,0,.4,2.7Z" fill="#f8826a"/>
      <path id="Trazado_722061" data-name="Trazado 722061" d="M101.331,33.75c-.012.13-.026.259-.041.386A15.87,15.87,0,0,1,99.174,40.4a17.377,17.377,0,0,1-5.834,5.946L92.7,43.052s2.525-2.53,2.762-9.5c.159-4.654-4-9-4-9l5.15-3.731s5.523,4.3,4.712,12.93Z" fill="#ffb097"/>
      <path id="Trazado_722062" data-name="Trazado 722062" d="M84.538,4.012a3.61,3.61,0,0,1-3.513,3.5c-2,0-3.12-1.677-3.266-3.6-.153-2.032.565-3.915,3.335-3.91,3.052.006,3.648,2.032,3.443,4.012Z"/>
      <path id="Trazado_722063" data-name="Trazado 722063" d="M78.751,5.135a.618.618,0,1,1-1.2.136.618.618,0,1,1,1.2-.136Z" fill="#f8826a"/>
      <path id="Trazado_722064" data-name="Trazado 722064" d="M84.713,5.334a.617.617,0,1,1-1.2-.127.617.617,0,1,1,1.2.127Z" fill="#f8826a"/>
      <path id="Trazado_722065" data-name="Trazado 722065" d="M91.47,14.666S81.294,19.447,77.91,21.36A12.81,12.81,0,0,0,74.341,24.6a13.69,13.69,0,0,0-1.572,2.266c-.242.484-.716,1.76-1.217,1.975-.717.308-2.219-.838-2.848-1.171Q65.543,26,62.533,24.066c2.232-4.3,5.524-8.077,10.048-9.938a17.613,17.613,0,0,1,4.569-1.264l3.946,3.3,3.847-2.989a26.6,26.6,0,0,1,6.526,1.492Z" fill="#00aca7"/>
      <path id="Trazado_722066" data-name="Trazado 722066" d="M94.626,8.487c-2.356-1.067-6.849-2.313-10.051,3.834s-4.431,6.65-8.683,8.5-16.085,11.594-6.4,25.75c4.462,6.524,14.478,7.436,21.683,3.685,5.968-3.107,9.507-9.523,7.841-15.4-2.617-9.22-3.231-10.176-1.387-16.391s.619-8.342-3-9.981Z" fill="#ffca5a"/>
      <path id="Trazado_722067" data-name="Trazado 722067" d="M69.49,44.837a28.249,28.249,0,0,0,4.205,4.072c.049.031.1.06.152.088a4.645,4.645,0,0,0,2.09.375.958.958,0,0,0,.534-.092c.329-.205.064-.64-.059-.9a6.107,6.107,0,0,0-.793-1.2c-.877-1.092-1.819-1.772-1.684-1.935s3.7,2.5,4.154,1.921-4.4-3.514-4.175-4.166,2.436-1.084,2.166-1.782c-.29-.747-5.511.315-5.511.315l-1.077,3.3Z" fill="#ffb097"/>
      <path id="Trazado_722068" data-name="Trazado 722068" d="M75.891,49.582a.071.071,0,0,1-.062-.037,13.5,13.5,0,0,0-2.647-3.437.071.071,0,0,1,.1-.1,13.655,13.655,0,0,1,2.675,3.473.072.072,0,0,1-.028.1.071.071,0,0,1-.033.008Z" fill="#f8826a"/>
      <path id="Trazado_722069" data-name="Trazado 722069" d="M74.8,49.525a.07.07,0,0,1-.061-.035A18.059,18.059,0,0,0,72.6,46.618a.071.071,0,1,1,.1-.095,18.26,18.26,0,0,1,2.15,2.9.071.071,0,0,1-.024.1A.068.068,0,0,1,74.8,49.525Z" fill="#f8826a"/>
      <path id="Trazado_722070" data-name="Trazado 722070" d="M99.216,40.487a28.245,28.245,0,0,1-4.205,4.072c-.049.031-.1.06-.152.088a4.644,4.644,0,0,1-2.09.375.956.956,0,0,1-.534-.092c-.329-.2-.064-.64.059-.9a6.108,6.108,0,0,1,.793-1.2c.877-1.092,1.819-1.772,1.684-1.935s-3.7,2.5-4.154,1.921,4.4-3.514,4.175-4.166-2.436-1.084-2.165-1.782c.29-.747,5.511.315,5.511.315l1.077,3.3Z" fill="#ffb097"/>
      <path id="Trazado_722071" data-name="Trazado 722071" d="M92.814,45.232a.071.071,0,0,1-.062-.1,13.633,13.633,0,0,1,2.675-3.473.07.07,0,1,1,.1.1,13.53,13.53,0,0,0-2.647,3.437.07.07,0,0,1-.062.037Z" fill="#f8826a"/>
      <path id="Trazado_722072" data-name="Trazado 722072" d="M93.91,45.175a.075.075,0,0,1-.036-.01.07.07,0,0,1-.024-.1,18.261,18.261,0,0,1,2.15-2.9.071.071,0,0,1,.1.095A18.2,18.2,0,0,0,93.97,45.14.072.072,0,0,1,93.91,45.175Z" fill="#f8826a"/>
      <path id="Trazado_722073" data-name="Trazado 722073" d="M84.2,4.395c0,2.39-.769,4.781-3.022,4.781s-3.022-2.4-3.022-4.791S78.614.519,81.175.519C83.557.519,84.2,2,84.2,4.395Z" fill="#ffb097"/>
      <path id="Trazado_722074" data-name="Trazado 722074" d="M84.538,4.012c-.013.12-.1,1.025-.3,1.036-.385.021-.346-.374-.382-.626A5.727,5.727,0,0,0,83.6,3.37,1.827,1.827,0,0,0,82.757,2.3a2.526,2.526,0,0,0-1.138-.173l-.95,0a2.306,2.306,0,0,0-1.5.355,1.918,1.918,0,0,0-.556,1.352,5.982,5.982,0,0,1-.179,1.486c-.045.129-.161.271-.3.179-.093-.065-.146-.37-.177-.476a5.265,5.265,0,0,1-.2-1.113c-.153-2.032.566-3.915,3.336-3.91,3.052.006,3.648,2.032,3.443,4.012Z" fill="#00817d"/>
      <path id="Trazado_722075" data-name="Trazado 722075" d="M70.974,45.769a16.992,16.992,0,0,1-8.81-12.037c-1.383-8.554,3.842-13.215,3.842-13.215L71.391,23.9S67.536,28.509,68,33.143c.7,6.941,3.388,9.3,3.388,9.3l-.417,3.329Z" fill="#ffb097"/>
      <path id="Trazado_722076" data-name="Trazado 722076" d="M101.29,34.136A15.87,15.87,0,0,1,99.174,40.4q-.846-1.64-1.693-3.279a5.522,5.522,0,0,0,.94-2.556,8.812,8.812,0,0,0-.148-2.736,3.331,3.331,0,0,0,.749.537c.5.328.9.794,1.373,1.16.283.217.6.406.9.612Z" fill="#ffb097"/>
      <path id="Trazado_722077" data-name="Trazado 722077" d="M62.533,24.065,69.01,27.85a12.778,12.778,0,0,1,1.127-2.279,19.62,19.62,0,0,1,1.693-2.021l-6.053-3.783-3.245,4.3Z" fill="#00aca7"/>
      <path id="Trazado_722078" data-name="Trazado 722078" d="M76.589,49.133a.07.07,0,0,1-.069-.057,7.965,7.965,0,0,0-2-3c-.509-.558-.638-.708-.546-.805.192-.2.806.208,1.736.933.089.07.16.124.193.148A5.942,5.942,0,0,0,77.015,47l.068.029c.238.1.732.308.916.134.1-.09.007-.245-.1-.4a5.949,5.949,0,0,0-1.125-1.078l-.18-.146c-.255-.207-.518-.414-.771-.615-.315-.248-.639-.5-.953-.764-.057-.047-.125-.1-.2-.155a2.147,2.147,0,0,1-.812-.889.274.274,0,0,1-.014-.131c.068-.343.556-.549,1.072-.769.482-.2.979-.415,1.061-.717a.323.323,0,0,0-.023-.293c-.155-.194-.735-.173-1.538-.142l-.462.016a19.066,19.066,0,0,0-3.305.505l-.026.006-.024-.012c-.046-.024-.493-.349-1.927-4.348a14.3,14.3,0,0,1-.14-8.362.07.07,0,1,1,.134.045,14.15,14.15,0,0,0,.139,8.269c1.261,3.517,1.746,4.154,1.845,4.256a18.927,18.927,0,0,1,3.3-.5l.461-.016c.907-.034,1.455-.054,1.654.2a.45.45,0,0,1,.048.418c-.1.369-.63.593-1.143.81-.46.194-.935.4-.988.665a.137.137,0,0,0,.009.059c.086.3.477.6.764.821.074.057.144.11.2.158.312.259.637.515.951.762.255.2.518.408.773.616l.18.145a6.03,6.03,0,0,1,1.151,1.105c.086.118.285.4.086.583-.251.236-.782.014-1.068-.107l-.068-.028a6.047,6.047,0,0,1-1.142-.661c-.036-.025-.1-.078-.2-.152-1.114-.868-1.439-.987-1.528-.959a5.405,5.405,0,0,0,.527.624,8.043,8.043,0,0,1,2.038,3.068.07.07,0,0,1-.056.083h-.009Z" fill="#f8826a"/>
      <path id="Trazado_722079" data-name="Trazado 722079" d="M74.776,25.132c-.657,0-.571,1.014.079,1.014S75.425,25.132,74.776,25.132Z" fill="#ff791f"/>
      <path id="Trazado_722080" data-name="Trazado 722080" d="M74.776,25.132c-.657,0-.571,1.014.079,1.014S75.425,25.132,74.776,25.132Z" fill="#ff791f"/>
      <path id="Trazado_722081" data-name="Trazado 722081" d="M74.791,25.32c-.414,0-.36.639.05.639S75.2,25.32,74.791,25.32Z" fill="#ff791f"/>
      <path id="Trazado_722082" data-name="Trazado 722082" d="M77.054,24.939c-.243,0-.211.375.03.375S77.3,24.939,77.054,24.939Z" fill="#ff791f"/>
      <path id="Trazado_722083" data-name="Trazado 722083" d="M76.433,27.058c-.352,0-.305.543.042.543S76.781,27.058,76.433,27.058Z" fill="#ff791f"/>
      <path id="Trazado_722084" data-name="Trazado 722084" d="M73.408,27.731c-.409,0-.355.631.049.631S73.812,27.731,73.408,27.731Z" fill="#ff791f"/>
      <path id="Trazado_722085" data-name="Trazado 722085" d="M75.2,29.107c-.352,0-.305.543.042.543S75.551,29.107,75.2,29.107Z" fill="#ff791f"/>
      <path id="Trazado_722086" data-name="Trazado 722086" d="M72.761,25.895l-.015-.016a.275.275,0,0,0-.207-.066.3.3,0,0,0-.2.1l-.018.019a.309.309,0,0,0-.054.306.312.312,0,0,0,.576.026.305.305,0,0,0,.028-.157.338.338,0,0,0-.111-.215Z" fill="#ff791f"/>
      <path id="Trazado_722087" data-name="Trazado 722087" d="M71.553,28.253c-.6,0-.517.918.072.918S72.142,28.253,71.553,28.253Z" fill="#ff791f"/>
      <path id="Trazado_722088" data-name="Trazado 722088" d="M73.365,29.789c-.264,0-.229.407.032.407S73.626,29.789,73.365,29.789Z" fill="#ff791f"/>
      <path id="Trazado_722089" data-name="Trazado 722089" d="M76.078,23.106c-.295,0-.256.455.035.455S76.369,23.106,76.078,23.106Z" fill="#ff791f"/>
      <path id="Trazado_722090" data-name="Trazado 722090" d="M78.117,26.056c-.455,0-.4.7.055.7S78.568,26.056,78.117,26.056Z" fill="#ff791f"/>
      <path id="Trazado_722091" data-name="Trazado 722091" d="M79.419,24.335a.39.39,0,0,0-.588-.184.415.415,0,0,0-.158.262.186.186,0,0,1,0-.02v0c0,.008,0,.016,0,.023a.346.346,0,0,0,.027.2.094.094,0,0,1,.006.013l.008.014a.32.32,0,0,0,.133.146A.389.389,0,0,0,79,24.86a.372.372,0,0,0,.347-.126.411.411,0,0,0,.069-.4Z" fill="#ff791f"/>
      <path id="Trazado_722092" data-name="Trazado 722092" d="M77.619,22.966a.164.164,0,0,0-.151.177.167.167,0,0,0,.177.151.164.164,0,0,0,.151-.177A.167.167,0,0,0,77.619,22.966Z" fill="#ff791f"/>
      <path id="Trazado_722093" data-name="Trazado 722093" d="M77.6,28.061c-.512,0-.445.79.062.79S78.108,28.061,77.6,28.061Z" fill="#ff791f"/>
      <path id="Trazado_722094" data-name="Trazado 722094" d="M69.978,30.678a.29.29,0,0,0-.265.31.293.293,0,0,0,.31.265.29.29,0,0,0,.265-.31A.293.293,0,0,0,69.978,30.678Z" fill="#ff791f"/>
      <path id="Trazado_722095" data-name="Trazado 722095" d="M71.917,30.685c-.5,0-.431.766.06.766S72.408,30.685,71.917,30.685Z" fill="#ff791f"/>
      <path id="Trazado_722096" data-name="Trazado 722096" d="M69.926,28.566c-.388,0-.337.6.047.6S70.31,28.566,69.926,28.566Z" fill="#ff791f"/>
      <path id="Trazado_722097" data-name="Trazado 722097" d="M71.12,26.471a.264.264,0,1,0-.5.179.275.275,0,0,0,.2.17.291.291,0,0,0,.165,0,.23.23,0,0,0,.149-.175.313.313,0,0,0-.018-.17Z" fill="#ff791f"/>
      <path id="Trazado_722098" data-name="Trazado 722098" d="M73.255,23.748c-.393,0-.341.607.047.607S73.644,23.748,73.255,23.748Z" fill="#ff791f"/>
      <path id="Trazado_722099" data-name="Trazado 722099" d="M74.33,31.525c-.4,0-.351.622.049.622S74.729,31.525,74.33,31.525Z" fill="#ff791f"/>
      <path id="Trazado_722100" data-name="Trazado 722100" d="M71.1,33.014c-.466,0-.4.718.056.718S71.56,33.014,71.1,33.014Z" fill="#ff791f"/>
      <path id="Trazado_722101" data-name="Trazado 722101" d="M79.656,21.781c-.419,0-.364.646.051.646S80.071,21.781,79.656,21.781Z" fill="#ff791f"/>
      <path id="Trazado_722102" data-name="Trazado 722102" d="M77.9,21.407a.289.289,0,0,0-.265.31.294.294,0,0,0,.31.265.29.29,0,0,0,.265-.31A.294.294,0,0,0,77.9,21.407Z" fill="#ff791f"/>
      <path id="Trazado_722103" data-name="Trazado 722103" d="M69.73,34.049a.353.353,0,0,0-.251-.011.328.328,0,1,0,.363.519.327.327,0,0,0,.075-.236.322.322,0,0,0-.188-.271Z" fill="#ff791f"/>
      <path id="Trazado_722104" data-name="Trazado 722104" d="M70.643,35.533c-.388,0-.337.6.047.6S71.027,35.533,70.643,35.533Z" fill="#ff791f"/>
      <path id="Trazado_722105" data-name="Trazado 722105" d="M73.314,34.344a.567.567,0,0,0-.385-.123.513.513,0,0,0-.37.192.536.536,0,0,0,.069.756.566.566,0,0,0,.385.123.512.512,0,0,0,.371-.192.536.536,0,0,0-.069-.756Z" fill="#ff791f"/>
      <path id="Trazado_722106" data-name="Trazado 722106" d="M69.782,32.224c-.228,0-.2.351.028.351S70.007,32.224,69.782,32.224Z" fill="#ff791f"/>
      <path id="Trazado_722107" data-name="Trazado 722107" d="M73.21,32.535c-.29,0-.252.447.035.447S73.5,32.535,73.21,32.535Z" fill="#ff791f"/>
      <path id="Trazado_722108" data-name="Trazado 722108" d="M76.147,30.7l-.029-.011a.265.265,0,0,0-.192-.008.251.251,0,1,0,.171.473l.03-.011a.242.242,0,0,0,.155-.182.239.239,0,0,0-.134-.261Z" fill="#ff791f"/>
      <path id="Trazado_722109" data-name="Trazado 722109" d="M75.6,34.778c-.569,0-.494.878.069.878S76.163,34.778,75.6,34.778Z" fill="#ff791f"/>
      <path id="Trazado_722110" data-name="Trazado 722110" d="M72.182,37.968c-.352,0-.305.543.042.543S72.53,37.968,72.182,37.968Z" fill="#ff791f"/>
      <path id="Trazado_722111" data-name="Trazado 722111" d="M73.718,36.679c-.362,0-.315.558.044.558S74.077,36.679,73.718,36.679Z" fill="#ff791f"/>
      <path id="Trazado_722112" data-name="Trazado 722112" d="M70.234,37.645c-.373,0-.324.575.045.575S70.6,37.645,70.234,37.645Z" fill="#ff791f"/>
      <path id="Trazado_722113" data-name="Trazado 722113" d="M81.417,23.644c-.373,0-.324.575.045.575S81.786,23.644,81.417,23.644Z" fill="#ff791f"/>
      <path id="Trazado_722114" data-name="Trazado 722114" d="M84.077,22.978c-.44,0-.382.679.053.679S84.512,22.978,84.077,22.978Z" fill="#ff791f"/>
      <path id="Trazado_722115" data-name="Trazado 722115" d="M82.307,21.543c-.352,0-.305.543.042.543S82.655,21.543,82.307,21.543Z" fill="#ff791f"/>
      <path id="Trazado_722116" data-name="Trazado 722116" d="M80.328,20.338c-.321,0-.279.495.039.495S80.645,20.338,80.328,20.338Z" fill="#ff791f"/>
      <path id="Trazado_722117" data-name="Trazado 722117" d="M80.278,25.5c-.006,0-.006.01,0,.01S80.285,25.5,80.278,25.5Z" fill="#ff791f"/>
      <path id="Trazado_722118" data-name="Trazado 722118" d="M94.116,18.94c-.45,0-.391.694.054.694S94.561,18.94,94.116,18.94Z" fill="#ff791f"/>
      <path id="Trazado_722119" data-name="Trazado 722119" d="M95.075,16.867c-.393,0-.341.607.047.607S95.464,16.867,95.075,16.867Z" fill="#ff791f"/>
      <path id="Trazado_722120" data-name="Trazado 722120" d="M93.971,16.507l-.007-.044a.31.31,0,0,0-.172-.248.3.3,0,1,0-.182.567l.047.007A.268.268,0,0,0,93.971,16.507Z" fill="#ff791f"/>
      <path id="Trazado_722121" data-name="Trazado 722121" d="M96.633,15.353a.324.324,0,1,0-.609.221.656.656,0,0,0,.056.117.3.3,0,0,0,.272.128.317.317,0,0,0,.252-.175.228.228,0,0,0,.018-.043A.353.353,0,0,0,96.633,15.353Z" fill="#ff791f"/>
      <path id="Trazado_722122" data-name="Trazado 722122" d="M95.078,14.448c-.341,0-.3.527.041.527S95.416,14.448,95.078,14.448Z" fill="#ff791f"/>
      <path id="Trazado_722123" data-name="Trazado 722123" d="M96.77,12.742c-.605,0-.526.934.073.934S97.369,12.742,96.77,12.742Z" fill="#ff791f"/>
      <path id="Trazado_722124" data-name="Trazado 722124" d="M96.724,17.191c-.238,0-.206.367.029.367S96.96,17.191,96.724,17.191Z" fill="#ff791f"/>
      <path id="Trazado_722125" data-name="Trazado 722125" d="M95.3,13c-.1,0-.085.151.012.151S95.4,13,95.3,13Z" fill="#ff791f"/>
      <path id="Trazado_722126" data-name="Trazado 722126" d="M93.855,14.729c-.243,0-.211.375.029.375S94.1,14.729,93.855,14.729Z" fill="#ff791f"/>
      <path id="Trazado_722127" data-name="Trazado 722127" d="M95.087,15.929c-.192,0-.166.3.023.3S95.277,15.929,95.087,15.929Z" fill="#ff791f"/>
      <path id="Trazado_722128" data-name="Trazado 722128" d="M93.649,18.056c-.269,0-.234.415.033.415S93.915,18.056,93.649,18.056Z" fill="#ff791f"/>
      <path id="Trazado_722129" data-name="Trazado 722129" d="M95.7,18.726c-.2,0-.171.3.024.3S95.9,18.726,95.7,18.726Z" fill="#ff791f"/>
      <path id="Trazado_722130" data-name="Trazado 722130" d="M94.874,21.085c-.326,0-.283.5.04.5S95.2,21.085,94.874,21.085Z" fill="#ff791f"/>
      <path id="Trazado_722131" data-name="Trazado 722131" d="M93.078,20l-.049-.014a.264.264,0,1,0,.043.508l.046-.013a.249.249,0,0,0,.164-.254.257.257,0,0,0-.2-.226Z" fill="#ff791f"/>
      <path id="Trazado_722132" data-name="Trazado 722132" d="M93.651,21.857a.379.379,0,0,0-.095-.138.25.25,0,0,0-.185-.059.276.276,0,0,0-.177.092.235.235,0,0,0-.052.081.276.276,0,1,0,.51.023Z" fill="#ff791f"/>
      <path id="Trazado_722133" data-name="Trazado 722133" d="M92.976,10.356l.074-.474c.013-.076.022-.157.042-.252s.042-.2.067-.31l.076-.353c.033-.12.067-.247.1-.379.018-.066.037-.134.055-.2s.038-.139.062-.209l.144-.434c.047-.151.107-.3.168-.454l.092-.233c.031-.078.061-.159.1-.236l.218-.477c.035-.081.076-.16.118-.24l.125-.24.127-.242c.043-.081.092-.158.138-.238.094-.158.185-.319.284-.474l.306-.462c.026-.038.051-.077.077-.115l.082-.111L95.594,4l.163-.219c.054-.073.114-.14.17-.21l.338-.409.346-.38c.057-.062.112-.124.17-.183l.173-.171.333-.328.326-.291c.106-.092.2-.185.3-.265l.284-.228.25-.2c.079-.059.154-.112.221-.16l.421-.3a1.1,1.1,0,1,1,1.279,1.786,1.116,1.116,0,0,1-.1.063l-.043.024-.385.217c-.061.035-.13.072-.2.115l-.232.148-.264.168c-.093.059-.185.13-.285.2l-.308.22-.317.252-.166.132c-.055.045-.108.095-.163.143l-.337.3-.333.325c-.056.056-.115.109-.169.168l-.163.176-.165.178-.083.09c-.027.03-.052.062-.078.093l-.314.378c-.1.128-.2.262-.3.392-.048.066-.1.13-.146.2l-.135.2-.135.2c-.045.066-.09.134-.129.2l-.241.405c-.042.066-.075.135-.111.2l-.105.2c-.069.132-.14.261-.2.392L94.6,8.6c-.03.061-.053.122-.076.182l-.07.177c-.046.116-.089.228-.131.334l-.1.3c-.032.094-.062.182-.088.264s-.047.169-.067.241l-.124.463a.494.494,0,0,1-.964-.2Z" fill="#00817d"/>
      <path id="Trazado_722134" data-name="Trazado 722134" d="M92.082,44.644a.077.077,0,0,1-.025,0,.071.071,0,0,1-.042-.091,7.3,7.3,0,0,1,1.935-2.657,10.358,10.358,0,0,0,.783-.831.057.057,0,0,0-.073-.085c-.253.149-.541.328-.845.518a19.891,19.891,0,0,1-2.089,1.193c-.612.273-1.015.312-1.133.11-.127-.217.146-.616.714-1.04.614-.459,1.22-.952,1.806-1.427.293-.238.6-.484.9-.724.04-.032.085-.066.134-.1.281-.21.667-.5.578-.837a6.243,6.243,0,0,0-.9-.554c-.317-.178-.617-.347-.778-.462s-.511-.5-.455-.789c.079-.414.482-.386.8-.363.068.005.132.009.192.01a13.47,13.47,0,0,1,3.86.54,7.923,7.923,0,0,0,.725-5.6.07.07,0,1,1,.137-.032,8.061,8.061,0,0,1-.768,5.751l-.028.05-.054-.017a13.263,13.263,0,0,0-3.874-.55c-.064,0-.129-.006-.2-.011-.362-.025-.6-.022-.655.249-.038.2.236.532.4.648s.465.285.766.454c.713.4.938.542.964.64.114.433-.316.753-.629.987-.047.035-.092.069-.131.1-.3.239-.6.485-.9.723-.587.477-1.194.97-1.811,1.431-.6.446-.732.761-.677.855.045.076.295.125.953-.168a19.81,19.81,0,0,0,2.071-1.184c.3-.189.592-.369.848-.519a.2.2,0,0,1,.255.3,10.547,10.547,0,0,1-.794.843,7.2,7.2,0,0,0-1.9,2.605.071.071,0,0,1-.066.046Z" fill="#f8826a"/>
      <path id="Trazado_722135" data-name="Trazado 722135" d="M81.271,6.5a1.947,1.947,0,0,1-.73-.142l-.031-.013.011-.032a3.759,3.759,0,0,0,.233-.988,1.245,1.245,0,0,0-.295-.925,1.3,1.3,0,0,0-1.386-.2.036.036,0,1,1-.026-.066,1.371,1.371,0,0,1,1.464.218,1.313,1.313,0,0,1,.314.978A3.706,3.706,0,0,1,80.6,6.3a1.879,1.879,0,0,0,.911.11.036.036,0,0,1,.04.03.036.036,0,0,1-.03.04,1.929,1.929,0,0,1-.247.016Z" fill="#2d1f16"/>
      <path id="Trazado_722136" data-name="Trazado 722136" d="M83.289,4.367a.038.038,0,0,1-.019-.006A1.51,1.51,0,0,0,81.7,4.337a.036.036,0,0,1-.037-.061,1.583,1.583,0,0,1,1.647.026.035.035,0,0,1-.019.065Z" fill="#2d1f16"/>
      <path id="Trazado_722137" data-name="Trazado 722137" d="M81.162,7.681a1.184,1.184,0,0,1-.892-.411.035.035,0,0,1,.054-.045,1.112,1.112,0,0,0,.838.386h.02a1.111,1.111,0,0,0,.843-.417.035.035,0,0,1,.055.044,1.183,1.183,0,0,1-.9.444h-.021Z" fill="#2d1f16"/>
      <path id="Trazado_722138" data-name="Trazado 722138" d="M79.756,5.224a.188.188,0,1,0-.188-.188A.188.188,0,0,0,79.756,5.224Z" fill="#00817d"/>
      <path id="Trazado_722139" data-name="Trazado 722139" d="M82.359,5.224a.188.188,0,1,0-.188-.188A.188.188,0,0,0,82.359,5.224Z" fill="#00817d"/>
      <path id="Trazado_722140" data-name="Trazado 722140" d="M81.094,16.208,77.127,12.89a.035.035,0,1,1,.045-.054L81.1,16.118l2.185-1.7a.035.035,0,0,1,.043.056Z" fill="#2d1f16"/>
      <path id="Trazado_722141" data-name="Trazado 722141" d="M130.283,91.909H122.81a.528.528,0,0,1-.528-.514l.089-.631.9-6.313-.589-3.992h7.034l-.819,4.09,1.763,6.215.127.445A.53.53,0,0,1,130.283,91.909Z" fill="#01d8d1"/>
      <path id="Trazado_722142" data-name="Trazado 722142" d="M130.283,91.909H122.81a.528.528,0,0,1-.528-.514l.089-.631h8.287l.126.445a.529.529,0,0,1-.5.7Z" fill="#00817d"/>
      <path id="Trazado_722143" data-name="Trazado 722143" d="M121.765,50.133s.676,17.572.916,24.045c.125,3.37.589,8.048.589,8.048l5.856.163a142.422,142.422,0,0,0,2.126-18.124c.262-8.178.393-12.169.393-12.169Z" fill="#00817d"/>
      <path id="Trazado_722144" data-name="Trazado 722144" d="M132.626,53.241l1.047,7L124.3,79.15l4.313,3.775s13.361-15.094,14.473-21.31a53.247,53.247,0,0,0,.464-12.759s-10.794,3.991-10.924,4.383Z" fill="#00817d"/>
      <path id="Trazado_722145" data-name="Trazado 722145" d="M140.738,15.489s-3.6-1.57-11.319-1.832-10.207,3.729-11.777,6.674-3.4,10.039-2.748,14.082,1.636,8.511,3.141,8.338.85-3.023,1.9-8.338,4.574-10.679,7.816-12.511,12.99-6.412,12.99-6.412Z" fill="#01d8d1"/>
      <path id="Trazado_722146" data-name="Trazado 722146" d="M126.883,14.44l4.172,5.334,3.66-5.046s-1.632-.159-3.66-.287A38.909,38.909,0,0,0,126.883,14.44Z" fill="#ffb097"/>
      <path id="Trazado_722147" data-name="Trazado 722147" d="M130.863,19.832l-4.008-5.371a.035.035,0,0,1,.007-.049.036.036,0,0,1,.049.007l3.952,5.3,3.824-5.01a.035.035,0,1,1,.055.043l-3.879,5.083Z" fill="#2d1f16"/>
      <path id="Trazado_722148" data-name="Trazado 722148" d="M134.537,4.406A3.963,3.963,0,0,1,130.68,8.25c-2.193,0-3.426-1.841-3.586-3.956-.169-2.231.62-4.3,3.662-4.294,3.352.007,4.007,2.231,3.782,4.406Z"/>
      <path id="Trazado_722149" data-name="Trazado 722149" d="M128.182,5.639a.678.678,0,1,1-1.314.15.678.678,0,1,1,1.314-.15Z" fill="#f8826a"/>
      <path id="Trazado_722150" data-name="Trazado 722150" d="M134.73,5.858a.678.678,0,1,1-1.314-.139.678.678,0,1,1,1.314.139Z" fill="#f8826a"/>
      <path id="Trazado_722151" data-name="Trazado 722151" d="M153.4,23.6c-.7-.922-.884-1.57-3.828-2.617a9.681,9.681,0,0,1-5.561-4.253c-1.047-1.766-5.169-3.533-12.693.851s-18.156,13.87-19.432,16.52-1.08,4.024,0,5.79,1.178,2.846.2,4.907,0,4.907,4.122,5.594,4.809,1.276,5.5,3.239,2.944,4.907,17.174-.883S159.189,38.519,157.815,34.3s-3.239-3.926-3.729-5.594.261-3.86-.688-5.1Z" fill="#ea575f"/>
      <path id="Trazado_722152" data-name="Trazado 722152" d="M148.259,28.7a7.282,7.282,0,0,1-2.236-4.735,7.178,7.178,0,0,0,6.059-1.138,10.368,10.368,0,0,0,3.667-5.1,7.071,7.071,0,0,0,2.326.911,19.242,19.242,0,0,1-2.263,4.116,22.93,22.93,0,0,0-2.342,4.075,7.223,7.223,0,0,0-.415,4.606c-1.911-.865-3.58-1.469-4.8-2.74Z" fill="#99993c"/>
      <path id="Trazado_722153" data-name="Trazado 722153" d="M153.53,39.2a.035.035,0,0,1-.034-.031,5.948,5.948,0,0,0-6.3-5.205l-.049,0,.014-.047a6.183,6.183,0,0,0-4.784-7.773l-.037-.007.011-.037a6.044,6.044,0,0,0-2.341-6.57.035.035,0,1,1,.039-.057,6.148,6.148,0,0,1,2.379,6.61,6.254,6.254,0,0,1,4.813,7.807,6.019,6.019,0,0,1,6.325,5.269.036.036,0,0,1-.03.039h-.005Z" fill="#2d1f16"/>
      <path id="Trazado_722154" data-name="Trazado 722154" d="M116.524,42.35a.035.035,0,0,1-.024-.009.035.035,0,0,1,0-.049,55.16,55.16,0,0,1,25.24-15.815.035.035,0,1,1,.019.067,54.733,54.733,0,0,0-25.208,15.8.034.034,0,0,1-.026.011Z" fill="#2d1f16"/>
      <path id="Trazado_722155" data-name="Trazado 722155" d="M122.611,50.609a.037.037,0,0,1-.032-.02.035.035,0,0,1,.018-.046,131.668,131.668,0,0,0,12.977-6.494,43.349,43.349,0,0,0,11.18-9.145.035.035,0,0,1,.049,0,.035.035,0,0,1,0,.049,43.4,43.4,0,0,1-11.2,9.16,131.484,131.484,0,0,1-12.983,6.5.038.038,0,0,1-.015,0Z" fill="#2d1f16"/>
      <path id="Trazado_722156" data-name="Trazado 722156" d="M126.335,18.274a2.957,2.957,0,0,0-.7-1.469,3.7,3.7,0,0,0-4.055-.66c-3.251,1.293-4.493,4.928-5.425,8.03-.962,3.2-1.8,6.888-1.257,10.237.655,4.042,1.636,8.512,3.141,8.338.795-.092.94-1.021,1.045-1.661.251-1.523.29-3.081.5-4.611.557-3.965,1.675-8.394,3.927-11.755a25.28,25.28,0,0,0,2.45-3.716,4.81,4.81,0,0,0,.372-2.733Z" fill="#ffb097"/>
      <path id="Trazado_722157" data-name="Trazado 722157" d="M116,39.7a11.509,11.509,0,0,1-.576,2.207c-.191.519-.4,1.036-.637,1.536a5.019,5.019,0,0,0-.558,1.578c-.006.056-.01.111-.012.168a4.451,4.451,0,0,0,.544,1.96.913.913,0,0,0,.3.423c.314.2.579-.21.755-.426a5.869,5.869,0,0,0,.7-1.182c.58-1.21.776-2.306.972-2.257s-.621,4.237.066,4.383,1.21-5.254,1.864-5.334,1.946,1.654,2.437,1.13c.525-.56-2.559-4.628-2.559-4.628L116,39.7Z" fill="#ffb097"/>
      <path id="Trazado_722158" data-name="Trazado 722158" d="M114.652,47.187l-.056-.041a13,13,0,0,0,1.875-3.721l.066.021A13.049,13.049,0,0,1,114.652,47.187Z" fill="#f8826a"/>
      <path id="Trazado_722159" data-name="Trazado 722159" d="M114.247,46.215l-.057-.038a17.449,17.449,0,0,0,1.6-3.04l.064.026a17.5,17.5,0,0,1-1.6,3.053Z" fill="#f8826a"/>
      <path id="Trazado_722160" data-name="Trazado 722160" d="M134.715,14.728a9.328,9.328,0,0,1-7.832-.287,4.215,4.215,0,0,0,2.164-2.637,7.4,7.4,0,0,0,.289-1.01,18.446,18.446,0,0,0,.313-2.53c.657.014,1.7-.01,2.355,0a21.171,21.171,0,0,0,.387,2.584,8.741,8.741,0,0,0,.3,1.028,4.787,4.787,0,0,0,2.021,2.848Z" fill="#ffb097"/>
      <path id="Trazado_722161" data-name="Trazado 722161" d="M132.39,10.851a2.353,2.353,0,0,1-1.515.506,2.29,2.29,0,0,1-1.539-.564,18.446,18.446,0,0,0,.313-2.53c.657.014,1.7-.01,2.355,0a21.171,21.171,0,0,0,.387,2.584Z" fill="#f8826a"/>
      <path id="Trazado_722162" data-name="Trazado 722162" d="M134.162,4.826c0,2.625-.844,5.25-3.318,5.25s-3.318-2.637-3.318-5.262S128.032.57,130.844.57C133.46.57,134.162,2.2,134.162,4.826Z" fill="#ffb097"/>
      <path id="Trazado_722163" data-name="Trazado 722163" d="M134.531,4.4a7.95,7.95,0,0,1-.2,1,.4.4,0,0,1-.129.237c-.476.333-.692-1.282-.728-1.533a1.857,1.857,0,0,0-.892-1.588,2.768,2.768,0,0,0-1.25-.19l-1.042,0a2.538,2.538,0,0,0-1.646.39,2.108,2.108,0,0,0-.611,1.484,6.532,6.532,0,0,1-.2,1.632c-.048.141-.177.3-.324.2-.1-.071-.16-.406-.195-.522a5.763,5.763,0,0,1-.223-1.222c-.17-2.232.619-4.3,3.661-4.294a3.8,3.8,0,0,1,3.157,1.283A4.286,4.286,0,0,1,134.531,4.4Z" fill="#422757"/>
      <path id="Trazado_722164" data-name="Trazado 722164" d="M122.209,15.147c-4.959,2.239-7.184,9.435-7.184,9.435l7.34,2.127,2.439-3.769,2.6-2.828s.187-3.974-1.187-4.658a5.227,5.227,0,0,0-4-.306Z" fill="#01d8d1"/>
      <path id="Trazado_722165" data-name="Trazado 722165" d="M124.764,78.133a.032.032,0,0,1-.015,0,.034.034,0,0,1-.016-.047L133.39,60.82a.035.035,0,1,1,.062.031l-8.657,17.263a.035.035,0,0,1-.031.02Z" fill="#2d1f16"/>
      <path id="Trazado_722166" data-name="Trazado 722166" d="M130.837,7.687a3.5,3.5,0,0,1-1.432-.292,1.437,1.437,0,1,0,2.864,0A3.5,3.5,0,0,1,130.837,7.687Z" fill="#fff"/>
      <path id="Trazado_722167" data-name="Trazado 722167" d="M129.388,5.88a.227.227,0,1,0-.227-.227A.227.227,0,0,0,129.388,5.88Z" fill="#422757"/>
      <path id="Trazado_722168" data-name="Trazado 722168" d="M132.333,5.653a.226.226,0,1,1-.226-.227A.226.226,0,0,1,132.333,5.653Z" fill="#422757"/>
      <path id="Trazado_722169" data-name="Trazado 722169" d="M130.861,6.951a2.109,2.109,0,0,1-.795-.155l-.03-.013.01-.031a4.123,4.123,0,0,0,.255-1.079,1.361,1.361,0,0,0-.322-1.013,1.425,1.425,0,0,0-1.518-.221.035.035,0,0,1-.025-.065,1.494,1.494,0,0,1,1.593.237,1.427,1.427,0,0,1,.342,1.064,4.075,4.075,0,0,1-.248,1.066,2.047,2.047,0,0,0,1,.121.035.035,0,1,1,.009.069,2.044,2.044,0,0,1-.269.017Z" fill="#2d1f16"/>
      <path id="Trazado_722170" data-name="Trazado 722170" d="M133.064,4.621a.04.04,0,0,1-.019-.006,1.653,1.653,0,0,0-1.72-.027.035.035,0,0,1-.048-.012.037.037,0,0,1,.012-.048,1.724,1.724,0,0,1,1.794.029.034.034,0,0,1,.01.048A.035.035,0,0,1,133.064,4.621Z" fill="#2d1f16"/>
      <path id="Trazado_722171" data-name="Trazado 722171" d="M129.37,82.422s-1.46,1.812-1.931,2.294c-2.8,2.873-1.82,8.117-4.243,8.819a2,2,0,0,1-.455.075c-.852.047-2.715-10.73-2.748-11.646-.011-.311.294-.531.7-.687a7.845,7.845,0,0,1,1.98-.36l1.8-2.845,4.9,4.35Z" fill="#01d8d1"/>
      <path id="Trazado_722172" data-name="Trazado 722172" d="M123.2,93.536a2.009,2.009,0,0,1-.455.074c-.852.047-2.715-10.73-2.748-11.646-.011-.311.294-.531.7-.687l2.5,12.258Z" fill="#00817d"/>
      <ellipse id="Elipse_5937" data-name="Elipse 5937" cx="72.5" cy="2" rx="72.5" ry="2" transform="translate(5 93)" fill="rgba(0,129,125,0.5)"/>
    </g>
  </g>
</svg>
