<svg xmlns="http://www.w3.org/2000/svg" xmlns:xlink="http://www.w3.org/1999/xlink" width="400" height="306.265" viewBox="0 0 400 306.265">
  <defs>
    <clipPath id="clip-path">
      <rect id="Rectángulo_350164" data-name="Rectángulo 350164" width="289.742" height="290.01" fill="none"/>
    </clipPath>
  </defs>
  <g id="Grupo_1018019" data-name="Grupo 1018019" transform="translate(-599.999 -1121.3)">
    <g id="Image_Place_Holder" data-name="Image Place Holder" transform="translate(599.999 1156.796)">
      <rect id="Image_Place_Holder-2" data-name="Image Place Holder" width="400" height="270.769" rx="10" fill="#ffee58"/>
    </g>
    <g id="Grupo_1017389" data-name="Grupo 1017389" transform="translate(650.129 1117.3)">
      <g id="Grupo_1017388" data-name="Grupo 1017388" transform="translate(0 4)" clip-path="url(#clip-path)">
        <path id="Trazado_717998" data-name="Trazado 717998" d="M210.1,98.38c-.362-3.576,1-4.535,4.793-4.808,23.719-1.714,33.84,9.364,33.044,32.842-1.028,30.324-.231,60.708-.258,91.065-.014,16.214-9.52,25.734-25.678,25.77-11.872.027-23.75.213-35.613-.109-4.074-.111-4.241,1.63-4.21,4.761.032,3.046,0,5.341,4.172,4.759a56.09,56.09,0,0,1,8.164-.062,25.429,25.429,0,0,1,4.076.172c8.947,1.543,12.475,8.621,11.7,23.337-.414,7.851-5.929,13.765-13.747,13.8q-51.672.212-103.346,0c-7.821-.033-13.359-5.948-13.73-13.8-.1-2.136-.028-4.28-.025-6.421.025-11.958,5.091-17.066,16.949-17.094a37.016,37.016,0,0,1,5.831.05c4.4.7,5.642-.955,5.41-5.329-.175-3.3-1.016-4.184-4.271-4.134-12.064.188-24.133.112-36.2.065-15.394-.058-25.076-9.746-25.094-25.18q-.058-49.624,0-99.247c.019-15.4,9.728-25.013,25.178-25.1a57.713,57.713,0,0,0,7.582-.067c3.9-.541,5.175,1.148,4.813,4.725.333,3.529-.84,5.339-4.794,4.755a47.021,47.021,0,0,0-7-.061c-11.1.048-16.425,5.342-16.431,16.442q-.032,49.047,0,98.091c.007,10.789,5.379,16.27,16,16.282,30.364.033,60.73-.069,91.095.108,3.989.023,5.187-.815,5.23-5.006.046-4.316-1.789-4.494-5.133-4.483-28.418.1-56.837.061-85.256.053-9.6,0-12.6-2.962-12.606-12.443q-.014-42.915,0-85.83c0-11.407,2.645-13.806,14.08-13.992,3.875-.062,5.177,1.192,4.812,4.778.36,3.589-.94,5.367-4.83,4.719-3.076-.512-4.843,0-4.814,4.095q.307,42.627,0,85.257c-.03,4.2,1.9,4.025,4.882,4.151,3.37.144,4.734-.518,4.667-4.369-.256-14.4.071-28.81-.209-43.208a12.02,12.02,0,0,1,4.255-10.132c2.3-2.067,5.376-3.714,5.271-7.828-.279-10.89-.2-21.79-.263-32.686V98.38c.063-13.426.1-26.853.212-40.279.032-3.575-1.036-6.68-5.013-6.252-3.645.393-8.7-3.238-10.408,4.328C69.274,74.389,51.358,86.423,33.1,84.2a37.468,37.468,0,0,1-.4-74.376C51.074,7.318,69.007,19.5,73.471,37.979c.9,3.71,2.4,4.425,5.815,4.416,14.769-.034,18.834,4.249,18.866,19.21.027,12.258.12,24.516.185,36.774q0,9.346,0,18.692v25.7C110.858,131.1,110.858,131.1,126.8,131.1c13.93,0,13.93,0,13.2-14.03q0-9.346,0-18.691c.064-6.417-.062-12.844.269-19.246.175-3.384-.934-4.49-4.249-5.368-15.834-4.188-25.2-14.711-28.142-30.73-2.568-14.006,4.462-29.193,17.154-36.951,13.345-8.156,27.1-8.184,40.142.339,13.025,8.511,18.932,21.163,16.589,36.6-2.408,15.862-11.986,26.3-27.481,30.608-3.789,1.053-5.035,2.28-4.814,6.09.359,6.2.208,12.439.272,18.661v18.693c-.063,3.3.06,6.615-.242,9.892-.305,3.3.859,4.3,4.17,4.208,8.156-.228,16.321-.075,24.483-.075,13.979,0,13.979,0,13.254-14.024V98.38q.1-20.139.2-40.279c.069-10.282,5.574-16.007,15.924-15.653,5.335.184,7.85-.7,9.512-6.663,4.974-17.834,23.542-28.961,41.155-25.763,19,3.449,32.067,19.343,31.526,38.343-.516,18.135-14.8,33.608-33.082,35.835-18.255,2.225-36.188-9.825-40.29-28.024-1.706-7.567-6.764-3.934-10.409-4.326-3.979-.428-5.041,2.675-5.009,6.252.118,13.426.148,26.853.213,40.279v18.694c-.063,3.1.095,6.234-.245,9.307-.423,3.811.929,5.405,4.75,4.715,3.908-.706,4.772,1.052,4.736,4.76-.181,18.652.027,37.309-.173,55.962-.041,3.813,1.005,4.807,4.8,4.852,3.964.048,4.732-1.28,4.705-4.938q-.24-32.645.013-65.29c.034-3.845-1.054-5.37-4.816-4.667-3.889.727-5.162-1.135-4.812-4.7.976-1.406-1.292-3.887,1.877-4.693,10.292-2.621,17.009,2.317,17.013,12.754.009,21.993.048,43.989-.047,65.982-.014,3.388-.22,5.68,4.607,5.608,4.421-.067,4.89-1.621,4.861-5.38-.167-21.409-.58-42.835.065-64.227.593-19.63-4-25.5-23.586-23.972-3.958.307-5.125-1.236-4.792-4.766m-50.618,42.077c-12.84,0-25.682.108-38.518-.075-3.279-.047-4.326.842-4.2,4.173.252,6.8-.054,13.618.137,20.42.079,2.825-.814,3.653-3.6,3.577-6.8-.185-13.623.123-20.422-.137-3.369-.129-4.193.987-4.148,4.228.179,12.641.242,25.29-.028,37.928-.084,3.931,1.155,4.751,4.856,4.72,21.009-.173,42.026-.351,63.027.085,5.989.125,7.463-1.487,7.121-7.252-.491-8.3,3.162-11.562,11.524-11.6,7.2-.033,14.4-.173,21.592.067,3.287.11,4.239-.853,4.2-4.172q-.254-23.923,0-47.85c.035-3.3-.883-4.239-4.186-4.188-12.447.189-24.9.076-37.35.076m46.71,65.418c-9.9,0-19.809.089-29.711-.057-2.755-.041-3.706.724-3.626,3.565.189,6.791.228,13.6-.012,20.384-.117,3.284.865,4.257,4.179,4.208,12.62-.187,25.268-.559,37.862.034,21.2,1,24.338-6.026,23.548-24.076-.146-3.339-1.06-4.2-4.277-4.129-9.317.2-18.642.071-27.963.071m-61.384,74.752c16.353,0,32.706-.084,49.057.051,4.859.041,7.089-1.7,7.15-6.792.14-11.771.119-11.945-11.876-11.94-1.363,0-2.726.018-4.088,0-1.406-.018-2.467.055-3.021,1.859-1.847,6.024-6.452,7.582-12.284,7.534q-24.819-.2-49.64,0c-5.805.049-10.362-1.439-12.442-7.4-.236-.679-.1-1.772-1.126-1.8-5.031-.141-10.313-1.32-15.016.524-4.387,1.72-2.593,6.436-2.668,9.934-.152,7.165.815,8.013,8.065,8.023q23.944.03,47.888.006m-.262-18.693H159.1c14.134,0,13.992,0,13.911-14.26-.021-3.6-.955-4.567-4.539-4.5-12.411.226-24.829.086-37.244.086-14.983,0-14.881,0-14.469,14.834.084,3.045.866,3.986,3.932,3.909,7.948-.2,15.905-.069,23.859-.068M145,28.3c-9.412,0-9.412,0-9.472,9.082-.06,8.971.456,9.609,7.755,9.611,10.929,0,10.929,0,10.927-9.373,0-9.049-.269-9.32-9.209-9.32M37.692,56.344c8.725,0,9.067-.361,9.035-9.512-.029-8.622-.49-9.178-7.595-9.182-11.055-.006-11.055-.006-11.086,9.221s.21,9.473,9.645,9.473m214.8-18.694c-9.412,0-9.412,0-9.472,9.083-.061,8.97.455,9.608,7.754,9.611,10.929,0,10.929,0,10.928-9.374,0-9.047-.271-9.32-9.209-9.32m-196.349,10c-.155,1.465-.371,3.763-.655,6.054-.136,1.1-.644,2.045,1.068,2.619,4.457,1.494,7.821-.359,8.575-5.107a38.032,38.032,0,0,0-.078-9.213c-.448-5.322-4.2-4.5-7.521-4.322-4.712.245-1.107,3.378-1.55,5.094-.321,1.248.055,2.677.161,4.875m168.161.47a59.511,59.511,0,0,0,1.049,5.882c1.141,4.442,4.8,1.966,7.252,2.207,3.231.317,1.5-2.225,1.376-3.63-.368-4.047-.624-8.1.262-12.092.43-1.937.151-2.642-2.014-2.906-6.082-.742-7.811,1.113-7.925,10.538M269.756,37.2a43.822,43.822,0,0,1,1.066,14.95c-.086,1.321-1.89,3.426.322,3.921,2.491.556,6.452,1.6,7.6-.638a19.044,19.044,0,0,0,.485-15.764c-1.732-4.388-5.693-.942-9.472-2.469M172.9,35.967c-.147-.788-.441-3.085-1.015-5.31-1.155-4.468-4.8-1.976-7.258-2.222-3.235-.325-1.514,2.219-1.386,3.63.367,4.053.648,8.109-.325,12.1-.473,1.938-.14,2.642,2.027,2.9,6.114.725,8-1.425,7.957-11.1m-45.437-9c-3.727,2.878-7.767-1.223-9.512,3.418a20.439,20.439,0,0,0,.074,14.746c1.431,3.69,5.035,1.67,7.583,1.668,2.755,0,1-2.28.872-3.493a50.919,50.919,0,0,1,.983-16.339M19.978,56.787a44.162,44.162,0,0,1-1.06-14.946c.083-1.32,1.891-3.425-.324-3.92-2.49-.555-6.447-1.605-7.6.638a19.046,19.046,0,0,0-.483,15.763c1.73,4.388,5.692.946,9.464,2.464M96.22,158.738c12.353,1.157,12.831.651,10.584-10.113L96.22,158.738M41.7,65.357c-3.374.69-5.609-.346-7.839.912.5,2.18,1.531,4.834,3.251,4.938,2.454.147,2.824-2.891,4.588-5.85m214.356.134c-2.761.549-5-.476-7.736,1.057,1.766,1.562,1.647,4.895,4.295,4.67,1.746-.147,2.746-2.778,3.442-5.727M257.3,28.2c-2.682-2.313-2.578-5.723-5.177-5.409-1.751.212-3.155,2.806-3.149,5.409ZM33.44,28h7.534c-.545-2.455-1.592-5.1-3.308-5.214-2.46-.157-2.81,2.893-4.226,5.214m107.535-9.33c2.834.361,5.051.628,7.524-.151-.774-2.2-1.434-5.016-3.719-5.084-1.941-.057-2.581,2.8-3.805,5.235m.148,37.927c.943,2.533,1.745,5.308,3.618,5.278,2.3-.037,2.913-2.892,3.755-5.063-2.47-.837-4.683-.513-7.373-.215M57.47,66.136C51.917,64.4,50.608,67.6,49.4,71.72c3.564-.808,5.666-2.854,8.066-5.584m98.617-3.057c4.232-1.858,6.777-3.442,8.646-6.221-5.3-2.257-6.343,1.7-8.646,6.221M48.809,22.152c2.166,3.855,3.17,7.932,8.523,5.557a14.665,14.665,0,0,0-8.523-5.557m215.025.154c2.211,3.577,2.8,8.01,8.5,5.22-2.325-2.27-4.35-4.55-8.5-5.22m-98.652-4.028c-2.983-2.208-4.633-5.235-8.515-4.921,1.756,3.377,2.79,7.337,8.515,4.921M263.74,72.84c3.971-2.531,6.84-3.713,8.357-6.75-5.216-1.856-6.382,1.673-8.357,6.75M24.511,71.566c-1.371-6.284-1.371-6.284-6.8-5.024a15.14,15.14,0,0,0,6.8,5.024m107.182-9.509c-.638-6.137-1.173-6.514-6.619-4.6,2.107,1.76,3.886,3.754,6.619,4.6M232.342,27.634c5.2,1.891,6.786-.454,7.247-5.155-3.244,1.029-5.156,2.942-7.247,5.155M24.582,22.269A16.2,16.2,0,0,0,17.4,27.942c4.717,1.226,6.913-.371,7.179-5.673m107.575-9.352a16.783,16.783,0,0,0-7.254,5.559c4.793,1.519,6.78-.347,7.254-5.559m99.767,53.2c2.586,2.372,4.415,4.387,7.625,5.37-.153-4.78-2.163-6.591-7.625-5.37" transform="translate(0 0)" fill="#020202"/>
        <path id="Trazado_717999" data-name="Trazado 717999" d="M72.211,102.851c.366-3.585-.936-4.84-4.812-4.776-11.435.185-14.08,2.583-14.082,13.992q0,42.915,0,85.83c0,9.479,3,12.438,12.606,12.442,28.418.009,56.837.044,85.256-.051,3.343-.012,5.177.166,5.133,4.482-.043,4.192-1.241,5.029-5.231,5.007-30.363-.178-60.729-.076-91.095-.109-10.623-.012-15.994-5.493-16-16.282q-.033-49.045,0-98.09c.007-11.1,5.336-16.394,16.431-16.442a46.879,46.879,0,0,1,7,.06c3.952.584,5.127-1.226,4.794-4.755h8.954q0,9.348,0,18.694H72.211" transform="translate(7.431 14.222)" fill="#e5e8ec"/>
        <path id="Trazado_718000" data-name="Trazado 718000" d="M181.024,84.158c-.333,3.53.833,5.073,4.792,4.765C205.4,87.4,209.994,93.267,209.4,112.9c-.645,21.391-.233,42.818-.065,64.227.029,3.757-.44,5.313-4.862,5.38-4.827.071-4.621-2.22-4.606-5.608.095-21.995.055-43.989.046-65.984,0-10.436-6.722-15.375-17.012-12.752-3.17.807-.9,3.287-1.879,4.693H172.07V84.158h8.954" transform="translate(29.078 14.222)" fill="#e5e8ec"/>
        <path id="Trazado_718001" data-name="Trazado 718001" d="M128.1,102.851V84.158h8.956c-.255,3.37.662,5.149,4.683,4.788a80.788,80.788,0,0,1,14.387,0c4.022.361,4.939-1.417,4.684-4.788h8.956v18.693l-8.956,0c.276-3.4-.718-5.111-4.695-4.76a82.332,82.332,0,0,1-14.365,0c-3.977-.351-4.971,1.358-4.695,4.76l-8.956,0" transform="translate(21.647 14.222)" fill="#e5e8ec"/>
        <path id="Trazado_718002" data-name="Trazado 718002" d="M125.786,84.158q0,9.346,0,18.692h-8.959c.281-3.4-.719-5.107-4.693-4.758a82.535,82.535,0,0,1-14.362,0c-3.975-.348-4.975,1.353-4.693,4.758h-8.96q0-9.346,0-18.692h8.957c-.256,3.37.66,5.149,4.683,4.788a80.788,80.788,0,0,1,14.387,0c4.022.361,4.939-1.417,4.683-4.788h8.957" transform="translate(14.215 14.222)" fill="#e5e8ec"/>
        <path id="Trazado_718003" data-name="Trazado 718003" d="M159.517,84.854c.256,3.37-.662,5.149-4.683,4.788a80.569,80.569,0,0,0-14.387,0c-4.023.361-4.939-1.418-4.683-4.788-.276-3.4.708-5.11,4.69-4.757a81.728,81.728,0,0,0,14.372,0c3.983-.353,4.966,1.36,4.691,4.757" transform="translate(22.935 13.528)"/>
        <path id="Trazado_718004" data-name="Trazado 718004" d="M115.542,84.854c.256,3.37-.662,5.149-4.683,4.788a80.569,80.569,0,0,0-14.387,0c-4.022.361-4.939-1.418-4.683-4.788-.276-3.4.708-5.11,4.69-4.757a81.728,81.728,0,0,0,14.372,0c3.983-.353,4.966,1.36,4.691,4.757" transform="translate(15.504 13.528)"/>
        <path id="Trazado_718005" data-name="Trazado 718005" d="M146.661,120.163c12.451,0,24.9.112,37.352-.076,3.3-.05,4.22.892,4.186,4.188q-.251,23.923,0,47.849c.035,3.32-.915,4.282-4.2,4.172-7.19-.238-14.394-.1-21.591-.067-8.362.037-12.015,3.3-11.524,11.6.341,5.764-1.134,7.376-7.121,7.252-21-.436-42.018-.258-63.027-.085-3.7.03-4.94-.789-4.856-4.722.27-12.637.206-25.286.027-37.927-.046-3.243.779-4.358,4.149-4.228,6.8.26,13.618-.048,20.422.137,2.79.075,3.682-.752,3.6-3.577-.191-6.8.116-13.621-.137-20.42-.124-3.332.925-4.22,4.2-4.173,12.838.182,25.679.075,38.518.075m-14.605,46.72c14.2,0,28.409-.179,42.606.113,4.089.084,4.2-1.686,4.206-4.791.008-3.125-.153-4.806-4.215-4.776q-42.606.309-85.216,0c-4.08-.03-4.2,1.682-4.2,4.787-.007,3.125.146,4.862,4.217,4.779,14.2-.289,28.4-.112,42.607-.112m13.794-18.691c9.725,0,19.46-.256,29.172.112,4.633.177,3.567-2.573,3.8-5.142.279-3.039-.312-4.44-3.941-4.4-19.254.191-38.514.247-57.766-.025-4.623-.064-3.567,2.575-3.8,5.145-.281,3.042.31,4.508,3.944,4.4,9.523-.269,19.059-.09,28.59-.091M90.764,176.3c-3.209-.256-6.182-.748-5.53,4.074.382,2.831-.663,5.985,4.229,5.292,2.828-.4,6.039.65,5.27-4.233-.43-2.728.933-6.44-3.969-5.133m18.228.048c-3.583-.756-5.386.068-5.108,4.305.215,3.294.213,5.393,4.549,5.058,3.287-.254,5.44-.226,5.044-4.557-.292-3.187-.009-6.009-4.484-4.807m18.337,9.109c3.922.961,4.864-.721,4.862-4.51,0-3.717-.9-4.911-4.775-4.863-3.712.047-4.947.9-4.85,4.786.092,3.619.7,5.622,4.764,4.587" transform="translate(12.822 20.293)" fill="#fee9a6"/>
        <path id="Trazado_718006" data-name="Trazado 718006" d="M181.21,176.123c9.322,0,18.645.129,27.963-.07,3.217-.069,4.13.79,4.276,4.129.791,18.049-2.352,25.074-23.548,24.075-12.595-.593-25.242-.22-37.862-.034-3.314.049-4.295-.925-4.179-4.208.241-6.787.2-13.593.012-20.384-.08-2.842.871-3.606,3.627-3.565,9.9.147,19.807.058,29.711.057m-19.256,9.534c-3.537-1.118-5,.126-4.8,4.225.159,3.306.224,5.38,4.538,5.058,3.287-.245,5.424-.245,5.042-4.554-.283-3.189-.035-5.984-4.782-4.729m14.082,3.715c-.265,3.208-.713,6.147,4.074,5.519,2.839-.372,5.957.625,5.29-4.228-.39-2.836.614-6.009-4.233-5.267-2.739.42-6.407-.89-5.131,3.977m27.851.894c.883-3.793-.523-5.024-4.446-4.939-3.574.077-5.055.7-4.925,4.7.116,3.568.706,5.093,4.715,4.91,3.474-.159,5.729-.5,4.656-4.674" transform="translate(24.985 29.75)" fill="#fbd66f"/>
        <path id="Trazado_718007" data-name="Trazado 718007" d="M132.009,242.8q-23.944,0-47.889-.006c-7.249-.009-8.216-.858-8.064-8.023.074-3.5-1.721-8.216,2.668-9.934,4.7-1.844,9.983-.666,15.016-.525,1.029.029.888,1.122,1.126,1.8,2.08,5.96,6.635,7.448,12.442,7.4q24.817-.207,49.639,0c5.833.048,10.438-1.512,12.285-7.534.553-1.8,1.614-1.877,3.019-1.859,1.363.018,2.726,0,4.088,0,12,0,12.017.17,11.877,11.94-.062,5.1-2.29,6.833-7.15,6.793-16.352-.136-32.7-.051-49.057-.051" transform="translate(12.802 37.822)" fill="#959da8"/>
        <path id="Trazado_718008" data-name="Trazado 718008" d="M69.524,100.149h8.956c.063,10.9-.018,21.8.263,32.686.105,4.114-2.97,5.762-5.272,7.828a12.022,12.022,0,0,0-4.254,10.132c.281,14.4-.047,28.809.208,43.208.069,3.852-1.3,4.513-4.665,4.37-2.977-.127-4.913.046-4.882-4.152q.316-42.627,0-85.257c-.029-4.094,1.737-4.606,4.814-4.095,3.89.648,5.19-1.13,4.83-4.719" transform="translate(10.119 16.924)" fill="#68d5f3"/>
        <path id="Trazado_718009" data-name="Trazado 718009" d="M127.687,226.781c-7.954,0-15.91-.134-23.859.068-3.065.077-3.848-.864-3.932-3.909-.411-14.837-.514-14.834,14.469-14.834,12.415,0,24.833.139,37.244-.086,3.584-.065,4.518.9,4.539,4.5.081,14.262.223,14.26-13.911,14.26H127.687" transform="translate(16.862 35.152)" fill="#a9b1bc"/>
        <path id="Trazado_718010" data-name="Trazado 718010" d="M172.116,100.15h8.953c-.35,3.567.923,5.429,4.813,4.7,3.762-.7,4.85.822,4.816,4.667q-.286,32.643-.013,65.29c.027,3.658-.741,4.985-4.705,4.938-3.792-.046-4.838-1.039-4.8-4.852.2-18.652-.008-37.309.173-55.963.036-3.707-.828-5.466-4.736-4.759-3.821.691-5.173-.9-4.751-4.715.341-3.073.184-6.2.247-9.307" transform="translate(29.032 16.924)" fill="#69d5f3"/>
        <path id="Trazado_718011" data-name="Trazado 718011" d="M84.12,100.148h8.96c-.264,3.394.721,5.126,4.7,4.78a83.5,83.5,0,0,1,14.345,0c3.979.345,4.967-1.385,4.7-4.779l8.959,0c.731,14.029.731,14.029-13.2,14.029-15.949,0-15.949,0-28.471,11.667Z" transform="translate(14.215 16.924)" fill="#68d4f2"/>
        <path id="Trazado_718012" data-name="Trazado 718012" d="M160.847,100.151l8.956,0c.725,14.026.725,14.026-13.254,14.026-8.161,0-16.327-.153-24.482.074-3.312.092-4.476-.9-4.171-4.208.3-3.277.179-6.592.242-9.891l8.957,0c-.265,3.395.72,5.127,4.7,4.781a83.423,83.423,0,0,1,14.348,0c3.982.345,4.968-1.386,4.7-4.781" transform="translate(21.605 16.924)" fill="#69d5f3"/>
        <path id="Trazado_718013" data-name="Trazado 718013" d="M125.411,24.212c8.94,0,9.208.272,9.209,9.322,0,9.378,0,9.378-10.927,9.373-7.3,0-7.815-.641-7.755-9.611.061-9.083.061-9.083,9.472-9.083" transform="translate(19.592 4.092)" fill="#67d2f0"/>
        <path id="Trazado_718014" data-name="Trazado 718014" d="M33.638,50.9c-9.434,0-9.677-.237-9.647-9.473s.03-9.226,11.086-9.22c7.106,0,7.566.56,7.6,9.181.033,9.152-.311,9.512-9.035,9.512" transform="translate(4.054 5.443)" fill="#67d2f0"/>
        <path id="Trazado_718015" data-name="Trazado 718015" d="M217.359,32.207c8.938,0,9.208.274,9.209,9.32,0,9.378,0,9.378-10.928,9.373-7.3,0-7.814-.641-7.754-9.611.061-9.082.061-9.082,9.472-9.082" transform="translate(35.13 5.443)" fill="#67d2f0"/>
        <path id="Trazado_718016" data-name="Trazado 718016" d="M48.178,42.228c-.106-2.2-.483-3.626-.161-4.875.442-1.716-3.162-4.849,1.549-5.094,3.326-.174,7.075-1,7.522,4.322a38.091,38.091,0,0,1,.078,9.213c-.754,4.748-4.118,6.6-8.575,5.107-1.714-.574-1.2-1.52-1.068-2.62.284-2.29.5-4.588.655-6.053" transform="translate(7.961 5.426)" fill="#66cfec"/>
        <path id="Trazado_718017" data-name="Trazado 718017" d="M191.876,42.712c.113-9.426,1.842-11.281,7.925-10.538,2.165.263,2.444.969,2.014,2.906-.886,3.99-.63,8.045-.262,12.092.127,1.405,1.854,3.945-1.376,3.629-2.455-.241-6.111,2.235-7.252-2.207a59.5,59.5,0,0,1-1.049-5.881" transform="translate(32.425 5.412)" fill="#66cfec"/>
        <path id="Trazado_718018" data-name="Trazado 718018" d="M230.76,31.822c3.778,1.528,7.74-1.919,9.472,2.47a19.047,19.047,0,0,1-.485,15.765c-1.148,2.24-5.108,1.192-7.6.636-2.213-.494-.408-2.6-.322-3.921a43.825,43.825,0,0,0-1.066-14.95" transform="translate(38.996 5.378)" fill="#66cfec"/>
        <path id="Trazado_718019" data-name="Trazado 718019" d="M149.387,31.925c.046,9.672-1.842,11.822-7.957,11.1-2.166-.257-2.5-.961-2.027-2.9.974-3.991.693-8.047.326-12.1-.129-1.411-1.848-3.954,1.385-3.629,2.455.245,6.1-2.246,7.258,2.221.575,2.226.869,4.523,1.015,5.311" transform="translate(23.516 4.042)" fill="#66cfec"/>
        <path id="Trazado_718020" data-name="Trazado 718020" d="M110.609,23.071a50.953,50.953,0,0,0-.983,16.339c.126,1.213,1.884,3.493-.872,3.494-2.548,0-6.152,2.021-7.583-1.668a20.442,20.442,0,0,1-.072-14.747c1.744-4.641,5.784-.54,9.511-3.418" transform="translate(16.858 3.899)" fill="#66cfec"/>
        <path id="Trazado_718021" data-name="Trazado 718021" d="M18.671,51.412c-3.772-1.519-7.734,1.924-9.464-2.465a19.043,19.043,0,0,1,.483-15.761c1.15-2.243,5.107-1.194,7.6-.638,2.215.494.407,2.6.324,3.92a44.162,44.162,0,0,0,1.06,14.946" transform="translate(1.307 5.376)" fill="#66cfec"/>
        <path id="Trazado_718022" data-name="Trazado 718022" d="M82.31,137.252,92.894,127.14c2.247,10.764,1.769,11.269-10.584,10.112" transform="translate(13.909 21.485)" fill="#f1694d"/>
        <path id="Trazado_718023" data-name="Trazado 718023" d="M36.8,55.908c-1.764,2.959-2.133,6-4.588,5.85-1.718-.1-2.755-2.756-3.251-4.938,2.232-1.258,4.467-.221,7.839-.912" transform="translate(4.895 9.448)" fill="#62c8e4"/>
        <path id="Trazado_718024" data-name="Trazado 718024" d="M220.158,56.024c-.7,2.949-1.7,5.58-3.442,5.727-2.648.224-2.529-3.108-4.295-4.67,2.74-1.533,4.975-.507,7.736-1.057" transform="translate(35.897 9.467)" fill="#62c8e4"/>
        <path id="Trazado_718025" data-name="Trazado 718025" d="M221.309,24.912h-8.328c-.006-2.6,1.4-5.2,3.149-5.409,2.6-.314,2.5,3.094,5.179,5.409" transform="translate(35.991 3.292)" fill="#62c8e4"/>
        <path id="Trazado_718026" data-name="Trazado 718026" d="M28.606,24.707c1.416-2.32,1.766-5.372,4.226-5.214,1.715.109,2.763,2.759,3.308,5.214Z" transform="translate(4.834 3.293)" fill="#62c8e4"/>
        <path id="Trazado_718027" data-name="Trazado 718027" d="M120.6,16.728c1.224-2.435,1.865-5.292,3.805-5.235,2.284.068,2.945,2.884,3.719,5.084-2.472.779-4.69.512-7.524.151" transform="translate(20.379 1.942)" fill="#62c8e4"/>
        <path id="Trazado_718028" data-name="Trazado 718028" d="M120.723,48.461c2.69-.3,4.9-.621,7.373.215-.842,2.171-1.454,5.025-3.755,5.063-1.872.03-2.673-2.745-3.618-5.278" transform="translate(20.401 8.136)" fill="#62c8e4"/>
        <path id="Trazado_718029" data-name="Trazado 718029" d="M50.328,56.645c-2.4,2.73-4.5,4.776-8.066,5.584,1.2-4.123,2.513-7.318,8.066-5.584" transform="translate(7.142 9.491)" fill="#62c8e4"/>
        <path id="Trazado_718030" data-name="Trazado 718030" d="M133.523,54.954c2.3-4.522,3.348-8.479,8.646-6.221-1.869,2.78-4.414,4.364-8.646,6.221" transform="translate(22.564 8.125)" fill="#62c8e4"/>
        <path id="Trazado_718031" data-name="Trazado 718031" d="M41.753,18.949a14.666,14.666,0,0,1,8.523,5.557c-5.353,2.374-6.356-1.7-8.523-5.557" transform="translate(7.056 3.202)" fill="#62c8e4"/>
        <path id="Trazado_718032" data-name="Trazado 718032" d="M225.694,19.082c4.149.67,6.173,2.949,8.5,5.218-5.7,2.79-6.288-1.641-8.5-5.218" transform="translate(38.14 3.225)" fill="#62c8e4"/>
        <path id="Trazado_718033" data-name="Trazado 718033" d="M142.534,16.351c-5.725,2.415-6.759-1.544-8.515-4.923,3.882-.313,5.532,2.713,8.515,4.923" transform="translate(22.648 1.927)" fill="#62c8e4"/>
        <path id="Trazado_718034" data-name="Trazado 718034" d="M225.614,63.357c1.976-5.077,3.141-8.606,8.357-6.75-1.519,3.038-4.387,4.22-8.357,6.75" transform="translate(38.126 9.481)" fill="#62c8e4"/>
        <path id="Trazado_718035" data-name="Trazado 718035" d="M21.951,62.042a15.139,15.139,0,0,1-6.8-5.024c5.429-1.26,5.429-1.26,6.8,5.024" transform="translate(2.56 9.524)" fill="#62c8e4"/>
        <path id="Trazado_718036" data-name="Trazado 718036" d="M113.613,53.9c-2.733-.842-4.512-2.835-6.619-4.594,5.446-1.919,5.981-1.543,6.619,4.594" transform="translate(18.081 8.158)" fill="#62c8e4"/>
        <path id="Trazado_718037" data-name="Trazado 718037" d="M198.755,24.384c2.09-2.213,4-4.127,7.247-5.155-.461,4.7-2.046,7.047-7.247,5.155" transform="translate(33.587 3.249)" fill="#62c8e4"/>
        <path id="Trazado_718038" data-name="Trazado 718038" d="M22.066,19.05c-.265,5.3-2.463,6.9-7.179,5.672a16.2,16.2,0,0,1,7.179-5.672" transform="translate(2.516 3.219)" fill="#62c8e4"/>
        <path id="Trazado_718039" data-name="Trazado 718039" d="M114.1,11.049c-.473,5.211-2.462,7.077-7.254,5.559a16.77,16.77,0,0,1,7.254-5.559" transform="translate(18.056 1.867)" fill="#62c8e4"/>
        <path id="Trazado_718040" data-name="Trazado 718040" d="M198.4,56.615c5.463-1.22,7.472.59,7.625,5.37-3.21-.983-5.04-3-7.625-5.37" transform="translate(33.527 9.505)" fill="#62c8e4"/>
        <path id="Trazado_718041" data-name="Trazado 718041" d="M159.517,100.846c.265,3.395-.721,5.126-4.7,4.781a83.422,83.422,0,0,0-14.348,0c-3.982.346-4.967-1.386-4.7-4.781-.277-3.4.717-5.11,4.695-4.76a82.317,82.317,0,0,0,14.363,0c3.977-.35,4.971,1.358,4.695,4.76" transform="translate(22.935 16.23)"/>
        <path id="Trazado_718042" data-name="Trazado 718042" d="M115.54,100.844c.264,3.394-.722,5.125-4.7,4.78a83.264,83.264,0,0,0-14.345,0c-3.979.345-4.965-1.388-4.7-4.78-.281-3.405.719-5.107,4.693-4.759a82.306,82.306,0,0,0,14.362,0c3.975-.348,4.974,1.354,4.693,4.759" transform="translate(15.504 16.23)"/>
        <path id="Trazado_718043" data-name="Trazado 718043" d="M130.7,161.486c-14.2,0-28.41-.178-42.606.112-4.072.083-4.225-1.655-4.218-4.78.008-3.1.125-4.816,4.2-4.787q42.608.31,85.217,0c4.061-.029,4.222,1.652,4.215,4.776-.007,3.1-.118,4.874-4.207,4.789-14.2-.291-28.4-.112-42.606-.112" transform="translate(14.175 25.692)"/>
        <path id="Trazado_718044" data-name="Trazado 718044" d="M140.446,145.5c-9.531,0-19.066-.178-28.59.091-3.633.1-4.224-1.363-3.944-4.406.236-2.568-.821-5.209,3.8-5.144,19.252.27,38.512.215,57.767.023,3.627-.035,4.219,1.364,3.939,4.4-.236,2.568.83,5.318-3.8,5.142-9.712-.369-19.447-.112-29.172-.112" transform="translate(18.226 22.989)"/>
        <path id="Trazado_718045" data-name="Trazado 718045" d="M89.425,168.21c4.9-1.307,3.539,2.4,3.969,5.133.768,4.883-2.442,3.832-5.27,4.233-4.892.693-3.847-2.461-4.229-5.292-.651-4.822,2.32-4.33,5.53-4.074" transform="translate(14.162 28.38)"/>
        <path id="Trazado_718046" data-name="Trazado 718046" d="M104.946,168.254c4.475-1.2,4.192,1.62,4.484,4.807.4,4.331-1.757,4.3-5.044,4.557-4.336.334-4.333-1.764-4.549-5.058-.277-4.238,1.526-5.062,5.108-4.305" transform="translate(16.867 28.385)"/>
        <path id="Trazado_718047" data-name="Trazado 718047" d="M120.579,177.359c-4.063,1.035-4.671-.968-4.764-4.587-.1-3.881,1.139-4.739,4.85-4.786,3.878-.048,4.773,1.146,4.775,4.863,0,3.789-.94,5.471-4.862,4.51" transform="translate(19.571 28.388)"/>
        <path id="Trazado_718048" data-name="Trazado 718048" d="M160.611,184.324c4.748-1.256,4.5,1.54,4.782,4.729.382,4.309-1.755,4.309-5.042,4.554-4.314.323-4.378-1.752-4.538-5.058-.2-4.1,1.261-5.342,4.8-4.225" transform="translate(26.328 31.083)"/>
        <path id="Trazado_718049" data-name="Trazado 718049" d="M172,188.037c-1.277-4.867,2.392-3.557,5.131-3.977,4.847-.741,3.842,2.431,4.233,5.267.668,4.854-2.449,3.858-5.29,4.229-4.787.627-4.339-2.312-4.074-5.52" transform="translate(29.022 31.086)"/>
        <path id="Trazado_718050" data-name="Trazado 718050" d="M197.143,188.926c1.073,4.171-1.182,4.515-4.656,4.674-4.008.184-4.6-1.342-4.715-4.91-.13-4,1.351-4.626,4.925-4.7,3.923-.085,5.328,1.146,4.446,4.939" transform="translate(31.73 31.091)"/>
      </g>
    </g>
  </g>
</svg>
