<svg xmlns="http://www.w3.org/2000/svg" width="400.001" height="378.403" viewBox="0 0 400.001 378.403">
  <g id="VECTOR_CÓDIGO_DE_CONDUCTA" data-name="VECTOR CÓDIGO DE CONDUCTA" transform="translate(-0.597 -0.859)">
    <path id="Trazado_719094" data-name="Trazado 719094" d="M377.812,255.752c-17.114,34.509-47.465,70.284-84.392,77.16-55.8,10.4-68.471,56.8-163.658,39.683a179.04,179.04,0,0,1-40.527-12.166,152.61,152.61,0,0,1-18.526-9.692c-52.644-32.286-74.557-90.855-69.37-148.4,6.81-75.684,59.47-105.185,93.387-122.049s82.252-93.26,175.966-77.237a173.442,173.442,0,0,1,41.66,12.48c30.438,13.618,59.886,38.7,74.562,71.6q1.653,3.707,3.1,7.54C408.866,144.607,401.147,208.706,377.812,255.752Z" transform="translate(0 0)" fill="#01d8d1"/>
    <path id="Trazado_719095" data-name="Trazado 719095" d="M377.812,255.752c-17.114,34.509-47.465,70.284-84.392,77.16-55.8,10.4-68.471,56.8-163.658,39.683a179.04,179.04,0,0,1-40.527-12.166,152.61,152.61,0,0,1-18.526-9.692c-52.644-32.286-74.557-90.855-69.37-148.4,6.81-75.684,59.47-105.185,93.387-122.049s82.252-93.26,175.966-77.237a173.442,173.442,0,0,1,41.66,12.48c30.438,13.618,59.886,38.7,74.562,71.6q1.653,3.707,3.1,7.54C408.866,144.607,401.147,208.706,377.812,255.752Z" transform="translate(0 0)" fill="#fff" opacity="0.7"/>
    <path id="Trazado_719096" data-name="Trazado 719096" d="M324.15,307.361h11.1" transform="translate(57.323 54.302)" fill="none" stroke="#003759" stroke-linecap="round" stroke-linejoin="round" stroke-miterlimit="10" stroke-width="0.704"/>
    <path id="Trazado_719097" data-name="Trazado 719097" d="M1.542,307.361h371.62" transform="translate(0.167 54.302)" fill="none" stroke="#003759" stroke-linecap="round" stroke-linejoin="round" stroke-miterlimit="10" stroke-width="0.704"/>
    <g id="Grupo_1017203" data-name="Grupo 1017203" transform="translate(251.642 1.699)" opacity="0.2">
      <path id="Trazado_719098" data-name="Trazado 719098" d="M225.325,26.933c2.464,2.613,9.942,5.6,9.948,5.6.078.031.473-5.527.459-5.881-.178-4.092-2.926-11.895-7.348-13.111a5.428,5.428,0,0,0-6.673,4.551C221.171,21.288,223.226,24.707,225.325,26.933Z" transform="translate(-212.483 0.515)" fill="#003759"/>
      <path id="Trazado_719099" data-name="Trazado 719099" d="M288.642,56.606c.047.069,3.444-4.348,3.626-4.652,2.109-3.51,4.122-11.534,1.1-14.989a5.428,5.428,0,0,0-8.077.114c-2.212,2.365-2.384,6.351-1.86,9.365C284.05,49.983,288.638,56.6,288.642,56.606Z" transform="translate(-201.576 4.388)" fill="#003759"/>
      <path id="Trazado_719100" data-name="Trazado 719100" d="M334.467,45.144c-4-2.238-11.437,1.387-14.438,4.176-.259.241-3.88,4.477-3.8,4.509l.089.037c-1.178.563-2.434,1.181-3.794,1.883-2.5,1.317-5.313,2.828-8.263,4.679a96.28,96.28,0,0,0-9.237,6.422,70.728,70.728,0,0,0-9.208,8.579c-.033.037-.062.08-.1.118.547-1.226,1.966-4.708,2.045-4.988,1.109-3.943.931-12.214-2.892-14.749a5.429,5.429,0,0,0-7.761,2.243c-1.507,2.866-.622,6.754.68,9.524,1.466,3.123,7.164,7.97,7.619,8.354a96.356,96.356,0,0,0-7.66,10.281c-1.364,2.086-2.674,4.229-3.96,6.394.44-1.076.825-2.041.864-2.182,1.108-3.943.93-12.214-2.892-14.748A5.427,5.427,0,0,0,264,77.92c-1.509,2.866-.622,6.754.678,9.524,1.32,2.809,6.1,7.04,7.374,8.142-.485.836-.978,1.666-1.459,2.5-2.311,4.019-4.6,8.04-6.964,11.915-.832,1.367-1.7,2.681-2.569,4,.39-.956.71-1.764.745-1.893,1.109-3.944.931-12.214-2.892-14.749a5.429,5.429,0,0,0-7.761,2.243c-1.507,2.864-.62,6.754.68,9.523,1.258,2.681,5.632,6.625,7.145,7.942-.929,1.323-1.854,2.65-2.813,3.891-.673.832-1.264,1.681-1.987,2.478l-2.078,2.393c-1.376,1.473-2.786,3-4.166,4.4-.951.983-1.876,1.9-2.8,2.83.845-1.349,2.443-4.028,2.551-4.266a21.087,21.087,0,0,0,1.418-10.542,6.4,6.4,0,0,0,.4-1.133,5.428,5.428,0,0,0-4.3-6.838c-4.54-.651-10.177,5.4-11.973,9.086-.106.217-.992,2.7-1.527,4.278.174-.975.352-1.919.518-2.924.34-1.986.622-3.977.934-6.119q.171-1.559.344-3.149c.138-1.049.15-2.175.231-3.273.133-2.548.144-5.137.1-7.747,1.74.294,7.932,1.25,10.908.484s6.525-2.557,7.773-5.544a5.427,5.427,0,0,0-3.215-7.41c-4.39-1.332-10.877,3.8-13.211,7.167-.146.21-1.549,2.813-2.291,4.259-.041-1.569-.073-3.133-.166-4.718-.266-4.574-.678-9.2-1.069-13.811-.12-1.413-.222-2.822-.332-4.233.618.112,7.954,1.406,11.288.55,2.962-.762,6.525-2.556,7.773-5.544a5.428,5.428,0,0,0-3.215-7.41c-4.391-1.332-10.877,3.8-13.211,7.166-.175.254-2.188,4-2.655,4.981-.237-3.106-.446-6.2-.526-9.267a95.4,95.4,0,0,1,.413-12.392c.287.052,7.938,1.439,11.351.561,2.963-.762,6.525-2.556,7.773-5.544A5.428,5.428,0,0,0,248,42.321c-4.39-1.332-10.877,3.8-13.21,7.166-.154.221-1.692,3.078-2.391,4.452l-.25-.076A69.894,69.894,0,0,1,234.8,41.679c.658-2.2,1.408-4.259,2.184-6.249,1.4.4,7.809,2.181,10.97,1.73,3.029-.432,6.766-1.824,8.335-4.657a5.427,5.427,0,0,0-2.383-7.719c-4.217-1.8-11.228,2.583-13.918,5.673-.146.167-1.443,2.04-2.37,3.418.364-.893.724-1.821,1.089-2.669,1.366-3.188,2.812-6.024,4.113-8.525.752-1.416,1.46-2.682,2.134-3.859,1.58-.319,7.928-1.685,10.478-3.508,2.489-1.779,5.164-4.737,5.251-7.973a5.428,5.428,0,0,0-5.67-5.753c-4.574.341-8.776,7.467-9.739,11.448-.084.344-.766,5.874-.684,5.858l.1-.019c-.672,1.12-1.378,2.329-2.126,3.664-1.358,2.477-2.871,5.29-4.312,8.461a96.24,96.24,0,0,0-4.16,10.451,70.752,70.752,0,0,0-2.949,12.235c-.006.049-.007.1-.013.15-.219-1.326-.958-5.012-1.047-5.289-1.251-3.9-5.962-10.7-10.549-10.705a5.428,5.428,0,0,0-5.236,6.152c.324,3.221,3.208,5.976,5.82,7.569,2.946,1.8,10.373,2.7,10.964,2.765a96.166,96.166,0,0,0-.717,12.8c.012,2.493.1,5,.224,7.518-.226-1.14-.438-2.158-.483-2.3-1.251-3.9-5.962-10.7-10.549-10.706a5.427,5.427,0,0,0-5.235,6.152c.323,3.222,3.208,5.977,5.82,7.569,2.651,1.615,8.968,2.509,10.642,2.724.058.965.1,1.928.164,2.892.291,4.627.6,9.243.766,13.779.059,1.6.058,3.176.064,4.754-.2-1.013-.381-1.864-.423-1.991-1.251-3.9-5.961-10.7-10.549-10.706a5.428,5.428,0,0,0-5.235,6.152c.324,3.221,3.208,5.976,5.82,7.568,2.53,1.542,8.352,2.419,10.341,2.683-.045,1.615-.085,3.234-.2,4.8-.1,1.066-.127,2.1-.29,3.164q-.21,1.586-.413,3.142c-.335,1.987-.67,4.039-1.045,5.97-.252,1.344-.516,2.622-.778,3.908-.04-1.592-.185-4.707-.227-4.966-.645-4.044-4.271-11.479-8.805-12.18a5.428,5.428,0,0,0-6.106,5.288c-.17,3.234,2.265,6.392,4.605,8.363,2.578,2.167,9.492,4.135,10.357,4.376-.443,2.127-.892,4.193-1.348,6.135-1.55,6.672-3.092,12.178-4.234,16.037l2.861,1.218c.024-.089.046-.168.071-.259,1.072-3.935,2.524-9.573,3.955-16.409.458-2.159.9-4.476,1.34-6.858a59.178,59.178,0,0,0,6.925-.254c1.164,3.258,5.533,8.354,6.1,9.008-1.543,1.53-3.058,3-4.51,4.373-4.974,4.711-9.3,8.451-12.378,11.039l3.139,1.338c2.946-2.616,6.79-6.134,11.127-10.424,1.574-1.548,3.223-3.234,4.9-4.981.723.5,6.656,4.591,9.974,5.2,3.01.55,6.995.413,9.38-1.778a5.427,5.427,0,0,0,.185-8.075c-3.427-3.048-11.468-1.107-15,.972-.208.124-2.318,1.706-3.633,2.727.682-.717,1.351-1.407,2.044-2.153,1.38-1.468,2.713-2.975,4.154-4.589l2.025-2.438c.693-.8,1.324-1.732,2-2.6,1.516-2.053,2.953-4.206,4.353-6.408,1.289,1.2,5.927,5.418,8.831,6.421s6.853,1.468,9.541-.336a5.429,5.429,0,0,0,1.407-7.955c-2.926-3.532-11.169-2.831-14.972-1.31-.237.095-2.844,1.493-4.26,2.287.831-1.33,1.668-2.654,2.464-4.026,2.3-3.963,4.509-8.045,6.727-12.108.679-1.246,1.371-2.477,2.059-3.713.453.433,5.858,5.561,9.111,6.684,2.891,1,6.852,1.468,9.542-.336a5.428,5.428,0,0,0,1.406-7.954c-2.926-3.532-11.17-2.831-14.972-1.311-.286.114-4.034,2.131-4.962,2.691,1.516-2.722,3.052-5.421,4.673-8.02a95.607,95.607,0,0,1,7.181-10.108c.211.2,5.827,5.58,9.158,6.731,2.892,1,6.853,1.468,9.542-.336a5.427,5.427,0,0,0,1.407-7.954c-2.928-3.532-11.169-2.831-14.972-1.31-.248.1-3.1,1.633-4.447,2.393l-.166-.2a69.868,69.868,0,0,1,8.934-8.7c1.76-1.468,3.523-2.774,5.269-4.006.943,1.109,5.31,6.128,8.194,7.5,2.764,1.31,6.65,2.212,9.52.714a5.429,5.429,0,0,0,2.272-7.753c-2.52-3.832-10.791-4.04-14.737-2.947-.215.06-2.33.906-3.862,1.543.8-.544,1.608-1.12,2.38-1.626,2.9-1.906,5.668-3.473,8.134-4.841,1.409-.767,2.7-1.432,3.909-2.042,1.493.6,7.541,2.968,10.673,2.854,3.057-.111,6.921-1.1,8.779-3.754A5.427,5.427,0,0,0,334.467,45.144Z" transform="translate(-213.859 -1.573)" fill="#003759"/>
    </g>
    <g id="Grupo_1017204" data-name="Grupo 1017204" transform="translate(21.738 3.303)" opacity="0.2">
      <path id="Trazado_719101" data-name="Trazado 719101" d="M113.9,28.294c-2.464,2.613-9.942,5.6-9.948,5.6-.078.031-.473-5.527-.459-5.881.178-4.092,2.926-11.895,7.348-13.111a5.428,5.428,0,0,1,6.673,4.551C118.054,22.65,116,26.068,113.9,28.294Z" transform="translate(-3.508 -0.848)" fill="#003759"/>
      <path id="Trazado_719102" data-name="Trazado 719102" d="M50.223,57.967c-.047.069-3.444-4.348-3.627-4.652-2.109-3.51-4.122-11.534-1.1-14.989a5.428,5.428,0,0,1,8.077.114c2.212,2.365,2.383,6.351,1.861,9.365C54.815,51.344,50.226,57.962,50.223,57.967Z" transform="translate(-14.056 3.025)" fill="#003759"/>
      <path id="Trazado_719103" data-name="Trazado 719103" d="M21.181,46.506c4-2.238,11.438,1.387,14.438,4.176.259.241,3.88,4.477,3.8,4.509l-.089.037c1.178.563,2.435,1.181,3.794,1.883,2.5,1.317,5.313,2.828,8.263,4.679a96.375,96.375,0,0,1,9.237,6.422,70.706,70.706,0,0,1,9.208,8.579c.033.037.062.08.1.118-.548-1.227-1.967-4.708-2.045-4.988-1.108-3.943-.931-12.214,2.892-14.749a5.429,5.429,0,0,1,7.761,2.243c1.508,2.866.622,6.754-.679,9.524-1.466,3.123-7.164,7.97-7.619,8.354A96.212,96.212,0,0,1,77.9,87.574c1.364,2.086,2.674,4.229,3.96,6.394-.44-1.076-.825-2.041-.864-2.182-1.108-3.943-.93-12.214,2.892-14.748a5.428,5.428,0,0,1,7.76,2.243c1.508,2.866.622,6.754-.679,9.524-1.319,2.809-6.094,7.04-7.373,8.142.485.836.978,1.666,1.459,2.5,2.311,4.019,4.6,8.04,6.964,11.915.833,1.367,1.7,2.681,2.569,4-.39-.956-.71-1.764-.746-1.893-1.108-3.944-.931-12.214,2.893-14.749a5.428,5.428,0,0,1,7.76,2.243c1.508,2.865.621,6.754-.68,9.523-1.259,2.681-5.632,6.625-7.145,7.943.928,1.322,1.855,2.65,2.813,3.891.674.832,1.265,1.68,1.987,2.479l2.078,2.392c1.376,1.473,2.787,3,4.166,4.4.951.983,1.876,1.9,2.8,2.83-.845-1.349-2.443-4.027-2.551-4.266a21.074,21.074,0,0,1-1.419-10.54,6.408,6.408,0,0,1-.4-1.134,5.429,5.429,0,0,1,4.3-6.838c4.54-.651,10.176,5.4,11.973,9.086.106.217.991,2.7,1.526,4.278-.173-.975-.351-1.919-.517-2.924-.34-1.986-.623-3.976-.933-6.119q-.171-1.559-.345-3.149c-.138-1.049-.148-2.175-.23-3.273-.133-2.548-.144-5.137-.1-7.746-1.739.294-7.931,1.25-10.908.484s-6.525-2.557-7.773-5.544a5.428,5.428,0,0,1,3.215-7.41c4.389-1.332,10.877,3.8,13.211,7.167.146.21,1.549,2.814,2.291,4.259.041-1.569.073-3.133.166-4.718.266-4.575.678-9.2,1.069-13.811.12-1.413.222-2.822.332-4.233-.618.112-7.954,1.406-11.287.549-2.963-.762-6.525-2.556-7.773-5.544a5.428,5.428,0,0,1,3.215-7.41c4.39-1.332,10.876,3.8,13.211,7.166.175.254,2.188,4,2.655,4.981.237-3.106.446-6.2.526-9.267a95.4,95.4,0,0,0-.413-12.392c-.287.052-7.938,1.439-11.352.561-2.963-.762-6.525-2.556-7.773-5.544a5.428,5.428,0,0,1,3.215-7.41c4.39-1.332,10.877,3.8,13.211,7.166.153.221,1.692,3.078,2.39,4.452l.251-.076a69.9,69.9,0,0,0-2.655-12.184c-.658-2.2-1.409-4.259-2.185-6.249-1.4.4-7.809,2.181-10.969,1.73-3.028-.432-6.766-1.824-8.335-4.657a5.428,5.428,0,0,1,2.383-7.719c4.216-1.8,11.228,2.583,13.918,5.673.146.167,1.443,2.04,2.37,3.418-.364-.893-.723-1.821-1.089-2.669-1.364-3.188-2.812-6.024-4.113-8.525-.752-1.416-1.459-2.682-2.134-3.859-1.58-.319-7.928-1.685-10.478-3.508C97.727,14.9,95.051,11.94,94.964,8.7a5.428,5.428,0,0,1,5.671-5.753c4.574.341,8.775,7.467,9.738,11.448.083.344.767,5.874.684,5.858l-.1-.019c.672,1.12,1.379,2.329,2.126,3.664,1.358,2.478,2.872,5.29,4.312,8.461a96.465,96.465,0,0,1,4.161,10.451,70.858,70.858,0,0,1,2.948,12.235c.007.049.007.1.014.15.219-1.326.957-5.012,1.045-5.289,1.251-3.9,5.962-10.7,10.55-10.705a5.427,5.427,0,0,1,5.235,6.152c-.323,3.221-3.208,5.976-5.82,7.569-2.945,1.8-10.373,2.7-10.964,2.765a95.971,95.971,0,0,1,.717,12.8c-.012,2.493-.1,5-.224,7.518.226-1.14.438-2.158.483-2.3,1.252-3.9,5.962-10.7,10.549-10.705a5.426,5.426,0,0,1,5.235,6.152c-.323,3.222-3.208,5.977-5.82,7.569-2.65,1.615-8.966,2.509-10.642,2.724-.057.965-.1,1.928-.164,2.892-.291,4.627-.6,9.243-.765,13.779-.059,1.6-.058,3.176-.064,4.754.2-1.013.381-1.864.421-1.991,1.251-3.9,5.962-10.7,10.549-10.705a5.427,5.427,0,0,1,5.235,6.152c-.323,3.221-3.208,5.976-5.82,7.568-2.529,1.542-8.352,2.42-10.34,2.683.044,1.615.085,3.234.2,4.8.1,1.066.128,2.1.291,3.164q.207,1.586.412,3.142c.335,1.988.67,4.04,1.047,5.97.251,1.344.516,2.622.778,3.908.04-1.592.185-4.707.226-4.966.645-4.044,4.271-11.479,8.805-12.18a5.429,5.429,0,0,1,6.107,5.288c.168,3.234-2.265,6.392-4.606,8.363-2.577,2.167-9.49,4.135-10.357,4.376.443,2.127.892,4.193,1.349,6.134,1.549,6.673,3.092,12.179,4.233,16.038l-2.859,1.217c-.025-.088-.047-.167-.072-.258-1.071-3.935-2.523-9.573-3.955-16.409-.458-2.159-.9-4.476-1.34-6.858a59.008,59.008,0,0,1-6.925-.255c-1.163,3.258-5.532,8.354-6.1,9.008,1.542,1.53,3.057,3.005,4.509,4.373,4.975,4.71,9.3,8.451,12.378,11.039l-3.138,1.337c-2.946-2.616-6.791-6.133-11.128-10.423-1.573-1.548-3.223-3.234-4.9-4.982-.723.505-6.655,4.591-9.974,5.2-3.01.55-7,.413-9.38-1.778a5.428,5.428,0,0,1-.185-8.077c3.428-3.048,11.469-1.105,15,.972.208.122,2.318,1.706,3.633,2.726-.682-.717-1.352-1.406-2.044-2.153-1.38-1.467-2.713-2.974-4.154-4.589l-2.025-2.437c-.694-.8-1.325-1.732-2-2.6-1.517-2.052-2.954-4.2-4.354-6.407-1.289,1.205-5.926,5.418-8.831,6.421s-6.853,1.468-9.541-.337a5.428,5.428,0,0,1-1.406-7.954c2.926-3.532,11.169-2.831,14.973-1.31.237.094,2.843,1.493,4.26,2.287-.831-1.33-1.668-2.653-2.465-4.026-2.3-3.962-4.508-8.045-6.728-12.109-.679-1.246-1.371-2.477-2.059-3.713-.453.433-5.857,5.561-9.111,6.685-2.891,1-6.853,1.468-9.542-.336a5.428,5.428,0,0,1-1.406-7.954C64.46,91.384,72.7,92.085,76.506,93.6c.287.114,4.034,2.131,4.962,2.691-1.516-2.722-3.051-5.421-4.673-8.02a95.6,95.6,0,0,0-7.18-10.108c-.21.2-5.827,5.58-9.159,6.731-2.891,1-6.853,1.468-9.542-.336a5.428,5.428,0,0,1-1.406-7.954c2.927-3.532,11.169-2.831,14.972-1.31.25.1,3.105,1.633,4.448,2.393l.167-.2a69.865,69.865,0,0,0-8.934-8.7c-1.76-1.469-3.524-2.775-5.269-4.006-.943,1.109-5.311,6.128-8.194,7.5-2.765,1.31-6.65,2.212-9.52.714A5.429,5.429,0,0,1,34.9,65.244C37.426,61.412,45.7,61.2,49.642,62.3c.215.06,2.33.906,3.862,1.543-.8-.544-1.608-1.12-2.38-1.626-2.9-1.906-5.669-3.473-8.134-4.841-1.409-.767-2.7-1.432-3.909-2.042-1.493.6-7.541,2.968-10.674,2.854-3.057-.111-6.921-1.1-8.779-3.754A5.424,5.424,0,0,1,21.181,46.506Z" transform="translate(-18.556 -2.935)" fill="#003759"/>
    </g>
    <path id="Trazado_719104" data-name="Trazado 719104" d="M336.39,106.126V109.9a1.762,1.762,0,1,1-3.524,0v-3.774h-10.3V109.9a1.758,1.758,0,1,1-3.516,0v-3.774h-10.3V109.9a1.762,1.762,0,1,1-3.523,0v-3.774H294.934V109.9a1.762,1.762,0,1,1-3.524,0v-3.774h-10.3V109.9a1.758,1.758,0,1,1-3.516,0v-3.774h-4.732v48.9h68.264v-48.9Zm-52.257,41.839h-5.317v-5.309h5.317Zm0-7.7h-5.317v-5.318h5.317Zm0-7.712h-5.317v-5.309h5.317Zm0-7.7h-5.317v-5.318h5.317Zm8.506,23.117h-5.317v-5.309h5.317Zm0-7.7h-5.317v-5.318h5.317Zm0-7.712h-5.317v-5.309h5.317Zm0-7.7h-5.317v-5.318h5.317Zm8.5,23.117H295.83v-5.309h5.309Zm0-7.7H295.83v-5.318h5.309Zm0-7.712H295.83v-5.309h5.309Zm0-7.7H295.83v-5.318h5.309Zm8.507,23.117h-5.318v-5.309h5.318Zm0-7.7h-5.318v-5.318h5.318Zm0-7.712h-5.318v-5.309h5.318Zm0-7.7h-5.318v-5.318h5.318Zm8.506,23.117h-5.318v-5.309h5.318Zm0-7.7h-5.318v-5.318h5.318Zm0-7.712h-5.318v-5.309h5.318Zm0-7.7h-5.318v-5.318h5.318Zm8.506,23.117h-5.317v-5.309h5.317Zm0-7.7h-5.317v-5.318h5.317Zm0-7.712h-5.317v-5.309h5.317Zm0-7.7h-5.317v-5.318h5.317Zm8.5,23.117h-5.31v-5.309h5.31Zm0-7.7h-5.31v-5.318h5.31Zm0-7.712h-5.31v-5.309h5.31Zm0-7.7h-5.31v-5.318h5.31Z" transform="translate(48.236 18.65)" fill="none" stroke="#003759" stroke-linecap="round" stroke-linejoin="round" stroke-miterlimit="10" stroke-width="0.704"/>
    <path id="Trazado_719105" data-name="Trazado 719105" d="M327.359,103.02v7.742a1.762,1.762,0,1,1-3.524,0V103.02a1.762,1.762,0,1,1,3.524,0Z" transform="translate(57.267 17.787)" fill="none" stroke="#003759" stroke-linecap="round" stroke-linejoin="round" stroke-miterlimit="10" stroke-width="0.704"/>
    <path id="Trazado_719106" data-name="Trazado 719106" d="M315.614,103.02v7.742a1.758,1.758,0,1,1-3.516,0V103.02a1.758,1.758,0,1,1,3.516,0Z" transform="translate(55.187 17.787)" fill="none" stroke="#003759" stroke-linecap="round" stroke-linejoin="round" stroke-miterlimit="10" stroke-width="0.704"/>
    <path id="Trazado_719107" data-name="Trazado 719107" d="M303.878,103.02v7.742a1.762,1.762,0,1,1-3.523,0V103.02a1.762,1.762,0,1,1,3.523,0Z" transform="translate(53.107 17.787)" fill="none" stroke="#003759" stroke-linecap="round" stroke-linejoin="round" stroke-miterlimit="10" stroke-width="0.704"/>
    <path id="Trazado_719108" data-name="Trazado 719108" d="M292.14,103.02v7.742a1.762,1.762,0,1,1-3.523,0V103.02a1.762,1.762,0,1,1,3.523,0Z" transform="translate(51.027 17.787)" fill="none" stroke="#003759" stroke-linecap="round" stroke-linejoin="round" stroke-miterlimit="10" stroke-width="0.704"/>
    <path id="Trazado_719109" data-name="Trazado 719109" d="M280.4,103.02v7.742a1.758,1.758,0,1,1-3.516,0V103.02a1.758,1.758,0,1,1,3.516,0Z" transform="translate(48.948 17.787)" fill="none" stroke="#003759" stroke-linecap="round" stroke-linejoin="round" stroke-miterlimit="10" stroke-width="0.704"/>
    <path id="Trazado_719110" data-name="Trazado 719110" d="M47.137,159.49a28.052,28.052,0,1,0-28.052-28.053A28.052,28.052,0,0,0,47.137,159.49Z" transform="translate(3.275 18.164)" fill="none" stroke="#003759" stroke-linecap="round" stroke-linejoin="round" stroke-miterlimit="10" stroke-width="0.704"/>
    <path id="Trazado_719111" data-name="Trazado 719111" d="M52.295,155.108a24.814,24.814,0,1,0-29.8-18.524A24.814,24.814,0,0,0,52.295,155.108Z" transform="translate(3.763 18.649)" fill="none" stroke="#003759" stroke-linecap="round" stroke-linejoin="round" stroke-miterlimit="10" stroke-width="0.704"/>
    <path id="Trazado_719112" data-name="Trazado 719112" d="M43.272,129.942a2.37,2.37,0,1,0-2.37-2.371A2.371,2.371,0,0,0,43.272,129.942Z" transform="translate(7.141 22.029)" fill="#003759" stroke="#003759" stroke-linecap="round" stroke-linejoin="round" stroke-miterlimit="10" stroke-width="0.704"/>
    <path id="Trazado_719113" data-name="Trazado 719113" d="M53.719,131.439l-8.636-4.224-14.4,15.741" transform="translate(5.33 22.386)" fill="none" stroke="#003759" stroke-linecap="round" stroke-linejoin="round" stroke-miterlimit="10" stroke-width="0.704"/>
    <path id="Trazado_719114" data-name="Trazado 719114" d="M288.182,348.46H88.1a5.038,5.038,0,0,1-5.038-5.038V42.324A5.038,5.038,0,0,1,88.1,37.286H288.183a5.038,5.038,0,0,1,5.037,5.038v301.1A5.039,5.039,0,0,1,288.182,348.46Z" transform="translate(14.61 6.454)" fill="#003759" stroke="#003759" stroke-linecap="round" stroke-linejoin="round" stroke-miterlimit="10" stroke-width="0.704"/>
    <path id="Trazado_719115" data-name="Trazado 719115" d="M280.934,43.253H92.135v292.17h188.8Z" transform="translate(16.217 7.511)" fill="#fff" stroke="#003759" stroke-linecap="round" stroke-linejoin="round" stroke-miterlimit="10" stroke-width="0.704"/>
    <path id="Trazado_719116" data-name="Trazado 719116" d="M194.723,107.638h14.662" transform="translate(34.393 18.918)" fill="none" stroke="#003759" stroke-miterlimit="10" stroke-width="0.704"/>
    <path id="Trazado_719117" data-name="Trazado 719117" d="M108.35,107.638h90.326" transform="translate(19.09 18.918)" fill="none" stroke="#003759" stroke-miterlimit="10" stroke-width="0.704"/>
    <path id="Trazado_719118" data-name="Trazado 719118" d="M176.244,117.28h36.414" transform="translate(31.119 20.626)" fill="none" stroke="#003759" stroke-miterlimit="10" stroke-width="0.704"/>
    <path id="Trazado_719119" data-name="Trazado 719119" d="M128.839,117.28h45.872" transform="translate(22.72 20.626)" fill="none" stroke="#003759" stroke-miterlimit="10" stroke-width="0.704"/>
    <path id="Trazado_719120" data-name="Trazado 719120" d="M108.35,117.28h15.607" transform="translate(19.09 20.626)" fill="none" stroke="#003759" stroke-miterlimit="10" stroke-width="0.704"/>
    <path id="Trazado_719121" data-name="Trazado 719121" d="M146.917,126.921h70.937" transform="translate(25.923 22.334)" fill="none" stroke="#003759" stroke-miterlimit="10" stroke-width="0.704"/>
    <path id="Trazado_719122" data-name="Trazado 719122" d="M108.35,126.921h29.793" transform="translate(19.09 22.334)" fill="none" stroke="#003759" stroke-miterlimit="10" stroke-width="0.704"/>
    <path id="Trazado_719123" data-name="Trazado 719123" d="M236.872,130.294a12.3,12.3,0,1,0-14.805-9.12A12.3,12.3,0,0,0,236.872,130.294Z" transform="translate(39.177 18.633)" fill="none" stroke="#003759" stroke-miterlimit="10" stroke-width="0.704"/>
    <path id="Trazado_719124" data-name="Trazado 719124" d="M123.01,150.623H108.35" transform="translate(19.09 26.533)" fill="none" stroke="#003759" stroke-miterlimit="10" stroke-width="0.704"/>
    <path id="Trazado_719125" data-name="Trazado 719125" d="M220.772,150.623H130.446" transform="translate(23.005 26.533)" fill="none" stroke="#003759" stroke-miterlimit="10" stroke-width="0.704"/>
    <path id="Trazado_719126" data-name="Trazado 719126" d="M144.764,160.265H108.35" transform="translate(19.09 28.241)" fill="none" stroke="#003759" stroke-miterlimit="10" stroke-width="0.704"/>
    <path id="Trazado_719127" data-name="Trazado 719127" d="M193.593,160.265H147.721" transform="translate(26.065 28.241)" fill="none" stroke="#003759" stroke-miterlimit="10" stroke-width="0.704"/>
    <path id="Trazado_719128" data-name="Trazado 719128" d="M209.527,160.265H193.92" transform="translate(34.25 28.241)" fill="none" stroke="#003759" stroke-miterlimit="10" stroke-width="0.704"/>
    <path id="Trazado_719129" data-name="Trazado 719129" d="M179.286,169.907H108.35" transform="translate(19.09 29.95)" fill="none" stroke="#003759" stroke-miterlimit="10" stroke-width="0.704"/>
    <path id="Trazado_719130" data-name="Trazado 719130" d="M211.662,169.907H181.868" transform="translate(32.115 29.95)" fill="none" stroke="#003759" stroke-miterlimit="10" stroke-width="0.704"/>
    <path id="Trazado_719131" data-name="Trazado 719131" d="M236.871,173.28a12.3,12.3,0,1,0-14.805-9.12A12.3,12.3,0,0,0,236.871,173.28Z" transform="translate(39.177 26.249)" fill="none" stroke="#003759" stroke-miterlimit="10" stroke-width="0.704"/>
    <path id="Trazado_719132" data-name="Trazado 719132" d="M194.723,193.61h14.662" transform="translate(34.393 34.149)" fill="none" stroke="#003759" stroke-miterlimit="10" stroke-width="0.704"/>
    <path id="Trazado_719133" data-name="Trazado 719133" d="M108.35,193.61h90.326" transform="translate(19.09 34.149)" fill="none" stroke="#003759" stroke-miterlimit="10" stroke-width="0.704"/>
    <path id="Trazado_719134" data-name="Trazado 719134" d="M176.244,203.251h36.414" transform="translate(31.119 35.857)" fill="none" stroke="#003759" stroke-miterlimit="10" stroke-width="0.704"/>
    <path id="Trazado_719135" data-name="Trazado 719135" d="M128.839,203.251h45.872" transform="translate(22.72 35.857)" fill="none" stroke="#003759" stroke-miterlimit="10" stroke-width="0.704"/>
    <path id="Trazado_719136" data-name="Trazado 719136" d="M108.35,203.251h15.607" transform="translate(19.09 35.857)" fill="none" stroke="#003759" stroke-miterlimit="10" stroke-width="0.704"/>
    <path id="Trazado_719137" data-name="Trazado 719137" d="M146.917,212.893h70.937" transform="translate(25.923 37.565)" fill="none" stroke="#003759" stroke-miterlimit="10" stroke-width="0.704"/>
    <path id="Trazado_719138" data-name="Trazado 719138" d="M108.35,212.893h29.793" transform="translate(19.09 37.565)" fill="none" stroke="#003759" stroke-miterlimit="10" stroke-width="0.704"/>
    <path id="Trazado_719139" data-name="Trazado 719139" d="M242.723,212.992a12.3,12.3,0,1,0-17.389,0A12.295,12.295,0,0,0,242.723,212.992Z" transform="translate(39.178 33.864)" fill="none" stroke="#003759" stroke-miterlimit="10" stroke-width="0.704"/>
    <path id="Trazado_719140" data-name="Trazado 719140" d="M189.774,18.582a1.6,1.6,0,0,1-1.6-1.6V7.946a3.418,3.418,0,0,0-3.418-3.418H170.194a3.418,3.418,0,0,0-3.418,3.418v9.032a1.6,1.6,0,0,1-1.6,1.6,1.6,1.6,0,0,0-1.6,1.6V44.652h27.809V20.186A1.6,1.6,0,0,0,189.774,18.582Zm-12.3-.842a4.485,4.485,0,1,1,4.485-4.485A4.485,4.485,0,0,1,177.473,17.74Z" transform="translate(28.873 0.65)" fill="#003759" stroke="#003759" stroke-linecap="round" stroke-linejoin="round" stroke-miterlimit="10" stroke-width="0.704"/>
    <path id="Trazado_719141" data-name="Trazado 719141" d="M225.341,47.417H138.49V39.175a7.165,7.165,0,0,1,7.165-7.166h72.518a7.166,7.166,0,0,1,7.167,7.166v8.242Z" transform="translate(24.43 5.519)" fill="#fff" stroke="#003759" stroke-linecap="round" stroke-linejoin="round" stroke-miterlimit="10" stroke-width="0.704"/>
    <path id="Trazado_719142" data-name="Trazado 719142" d="M140.317,34.674h82.549a8.146,8.146,0,0,0-6.027-2.664H146.345A8.152,8.152,0,0,0,140.317,34.674Z" transform="translate(24.754 5.519)" fill="#003759" stroke="#003759" stroke-linecap="round" stroke-linejoin="round" stroke-miterlimit="10" stroke-width="0.704"/>
    <path id="Trazado_719143" data-name="Trazado 719143" d="M225.341,45.037H138.49V50.1h86.851Z" transform="translate(24.43 7.827)" fill="#fff" stroke="#003759" stroke-linecap="round" stroke-linejoin="round" stroke-miterlimit="10" stroke-width="0.704"/>
    <path id="Trazado_719144" data-name="Trazado 719144" d="M228.2,158.68l3.342,5.941,12.625-12.254" transform="translate(40.324 26.842)" fill="none" stroke="#01d8d1" stroke-linecap="round" stroke-miterlimit="10" stroke-width="4.224"/>
    <path id="Trazado_719145" data-name="Trazado 719145" d="M228.2,115.24l3.342,5.941,12.625-12.254" transform="translate(40.324 19.146)" fill="none" stroke="#01d8d1" stroke-linecap="round" stroke-miterlimit="10" stroke-width="4.224"/>
    <path id="Trazado_719146" data-name="Trazado 719146" d="M194.723,65.143h14.662" transform="translate(34.393 11.389)" fill="none" stroke="#003759" stroke-miterlimit="10" stroke-width="0.704"/>
    <path id="Trazado_719147" data-name="Trazado 719147" d="M108.35,65.143h90.326" transform="translate(19.09 11.389)" fill="none" stroke="#003759" stroke-miterlimit="10" stroke-width="0.704"/>
    <path id="Trazado_719148" data-name="Trazado 719148" d="M176.244,74.784h36.414" transform="translate(31.119 13.097)" fill="none" stroke="#003759" stroke-miterlimit="10" stroke-width="0.704"/>
    <path id="Trazado_719149" data-name="Trazado 719149" d="M128.839,74.784h45.872" transform="translate(22.72 13.097)" fill="none" stroke="#003759" stroke-miterlimit="10" stroke-width="0.704"/>
    <path id="Trazado_719150" data-name="Trazado 719150" d="M108.35,74.784h15.607" transform="translate(19.09 13.097)" fill="none" stroke="#003759" stroke-miterlimit="10" stroke-width="0.704"/>
    <path id="Trazado_719151" data-name="Trazado 719151" d="M146.917,84.426h70.937" transform="translate(25.923 14.805)" fill="none" stroke="#003759" stroke-miterlimit="10" stroke-width="0.704"/>
    <path id="Trazado_719152" data-name="Trazado 719152" d="M108.35,84.426h29.793" transform="translate(19.09 14.805)" fill="none" stroke="#003759" stroke-miterlimit="10" stroke-width="0.704"/>
    <path id="Trazado_719153" data-name="Trazado 719153" d="M242.723,84.527a12.3,12.3,0,1,0-17.388,0A12.294,12.294,0,0,0,242.723,84.527Z" transform="translate(39.178 11.104)" fill="none" stroke="#003759" stroke-miterlimit="10" stroke-width="0.704"/>
    <path id="Trazado_719154" data-name="Trazado 719154" d="M228.2,72.744l3.342,5.941,12.625-12.253" transform="translate(40.324 11.617)" fill="none" stroke="#01d8d1" stroke-linecap="round" stroke-miterlimit="10" stroke-width="4.224"/>
    <path id="Trazado_719155" data-name="Trazado 719155" d="M226.7,199.669l3.343,5.941,12.624-12.253" transform="translate(40.057 34.104)" fill="none" stroke="#01d8d1" stroke-linecap="round" stroke-miterlimit="10" stroke-width="4.224"/>
    <path id="Trazado_719156" data-name="Trazado 719156" d="M287.955,132.91s4.479,3.79,4.134,7.121-4.824,11.486-5.856,13.9,1.377,8.154,1.377,8.154l-14.931,5.054a6.463,6.463,0,0,0,0-2.642c-.345-.8-.918-2.986-.918-2.986s-2.3.8-2.986,1.034-3.1-.919-3.216-1.953-.115-1.723-.23-3.216a28.84,28.84,0,0,0-.574-4.594c-.23-.459-2.527-1.953-2.412-2.757s2.757-3.9,2.986-4.938-.345-3.331-.115-4.594a42.573,42.573,0,0,1,2.412-5.628s-1.377-1.149,2.412-4.25S283.361,126.594,287.955,132.91Z" transform="translate(46.372 22.562)" fill="#fff" stroke="#003759" stroke-linecap="round" stroke-linejoin="round" stroke-miterlimit="10" stroke-width="0.704"/>
    <path id="Trazado_719157" data-name="Trazado 719157" d="M287.649,132.909c-4.594-6.317-14.127-5.4-17.918-2.3s-2.412,4.25-2.412,4.25l3.447,2.642s-3.217,3.676-2.757,4.135S271,145.315,271,145.315l-.221,1.07-.456-1.739s-1.428,5.712-1.7,7.141-.267,1.964-.892,2.142-3.282-1.149-3.282-1.149-.021,3.381-.111,4.809-.178,2.589-.267,3.838,1.785,3.3,4.016,2.856,3.431-1.62,3.368-2.773.738-5.17.381-5.973-1.031-4.791-.381-6.546c0,0,1.493-3.216,3.1-3.216s1.838,4.365,1.378,5.4-.69,1.607-.69,1.607,0,.689,4.479,2.182c3.362,1.121,5.236.494,5.961.112a3.5,3.5,0,0,1,.241-1.147c1.034-2.411,5.513-10.566,5.858-13.9S287.649,132.909,287.649,132.909Z" transform="translate(46.678 22.562)" fill="#003759" stroke="#003759" stroke-linecap="round" stroke-linejoin="round" stroke-miterlimit="10" stroke-width="0.704"/>
    <path id="Trazado_719158" data-name="Trazado 719158" d="M274.082,149.082s-1.034,1.608-1.953,1.953-1.494-.919-1.494-.919" transform="translate(47.842 26.26)" fill="none" stroke="#003759" stroke-linecap="round" stroke-linejoin="round" stroke-miterlimit="10" stroke-width="0.704"/>
    <path id="Trazado_719159" data-name="Trazado 719159" d="M265.172,143.063c0,.824.2,1.493.459,1.493s.459-.669.459-1.493-.206-1.494-.459-1.494S265.172,142.238,265.172,143.063Z" transform="translate(46.874 24.929)" fill="#003759"/>
    <path id="Trazado_719160" data-name="Trazado 719160" d="M266.584,141.424s.229-1.493-1.607-.8" transform="translate(46.839 24.729)" fill="none" stroke="#003759" stroke-linecap="round" stroke-linejoin="round" stroke-miterlimit="10" stroke-width="0.704"/>
    <path id="Trazado_719161" data-name="Trazado 719161" d="M265.412,152.038a4.133,4.133,0,0,0,1.722-.918" transform="translate(46.916 26.621)" fill="none" stroke="#fff" stroke-linecap="round" stroke-linejoin="round" stroke-miterlimit="10" stroke-width="0.704"/>
    <path id="Trazado_719162" data-name="Trazado 719162" d="M229.684,176.857h26l6.031,20.373h-26Z" transform="translate(40.586 31.181)" fill="#fff" stroke="#003759" stroke-linecap="round" stroke-linejoin="round" stroke-miterlimit="10" stroke-width="0.704"/>
    <path id="Trazado_719163" data-name="Trazado 719163" d="M231.253,177.855h23l5.336,18.024h-23Z" transform="translate(40.864 31.358)" fill="#fff" stroke="#003759" stroke-linecap="round" stroke-linejoin="round" stroke-miterlimit="10" stroke-width="0.704"/>
    <path id="Trazado_719164" data-name="Trazado 719164" d="M234.968,195.723h31.726v-1.378H234.968Z" transform="translate(41.523 34.279)" fill="#fff" stroke="#003759" stroke-linecap="round" stroke-linejoin="round" stroke-miterlimit="10" stroke-width="0.704"/>
    <path id="Trazado_719165" data-name="Trazado 719165" d="M272.133,306.255s-2.8,3.918-4.69,4.949-6.526,2.232-6.526,3.435.343,1.374,2.4,2.061,5.84.686,7.9.686a36.222,36.222,0,0,1,4.981.172,49.272,49.272,0,0,0,6.184.516c1.717,0,1.634-4.566,1.634-4.566Z" transform="translate(46.12 54.106)" fill="#fff" stroke="#003759" stroke-linecap="round" stroke-linejoin="round" stroke-miterlimit="10" stroke-width="0.704"/>
    <path id="Trazado_719166" data-name="Trazado 719166" d="M298.084,223.572s-4.065,32.051-7.893,42.73-2.217,13.9-4.836,24.782-3.022,36.469-3.022,37.074-1.21,0-5.44-2.217a21.392,21.392,0,0,1-6.449-5.037,30.584,30.584,0,0,1,.605-3.828c.4-1.612,1.209-5.842,1.209-5.842s-1.613-13.7.2-35.663,2.619-48,2.619-48S289.822,225.586,298.084,223.572Z" transform="translate(47.808 39.457)" fill="#003759" stroke="#003759" stroke-linecap="round" stroke-linejoin="round" stroke-miterlimit="10" stroke-width="0.704"/>
    <path id="Trazado_719167" data-name="Trazado 719167" d="M278.543,312.175a27.7,27.7,0,0,1-4.707,3.983c-1.81.965-7.483,3.017-7.6,3.862a3.86,3.86,0,0,0,.845,2.656,62.159,62.159,0,0,0,9.778,1.087c4.587.121,9.9-.484,11.225-.484s4.466,1.208,4.587-2.413-1.81-8.812-1.81-8.812S284.457,313.986,278.543,312.175Z" transform="translate(47.059 55.133)" fill="#fff" stroke="#003759" stroke-linecap="round" stroke-linejoin="round" stroke-miterlimit="10" stroke-width="0.704"/>
    <path id="Trazado_719168" data-name="Trazado 719168" d="M288.388,235.815s-1.468,20.73-2.2,26.967.733,19.443,2.385,28.615,2.2,28.065,2.2,28.065a1.468,1.468,0,0,1,.55,1.835,25.957,25.957,0,0,0-1.1,2.751s2.019.733,1.835,2.018-.733,3.669-.733,3.669a38.191,38.191,0,0,1-4.952.182,33.905,33.905,0,0,1-6.97-.733l-1.468-.733s-.367-2.935-.367-4.586,1.834-3.3,1.65-4.219-1.1-6.053-1.834-10.272-.182-6.788-1.468-11.189-8.438-30.633-8.438-30.633-3.3-30.451-3.484-34.67-.184-6.054-.184-6.054,5.687-4.585,6.971-4.585S288.388,235.815,288.388,235.815Z" transform="translate(46.632 39.221)" fill="#003759" stroke="#003759" stroke-linecap="round" stroke-linejoin="round" stroke-miterlimit="10" stroke-width="0.704"/>
    <path id="Trazado_719169" data-name="Trazado 719169" d="M263.389,223.472s-.629,4.613,0,5.557,6.082,2.412,12.9,3.145,15.52,0,18.456-1.048,4.823-1.993,5.243-2.726.1-4.615.1-4.615S272.932,225.359,263.389,223.472Z" transform="translate(46.508 39.439)" fill="#01d8d1" stroke="#003759" stroke-linecap="round" stroke-linejoin="round" stroke-miterlimit="10" stroke-width="0.704"/>
    <path id="Trazado_719170" data-name="Trazado 719170" d="M290.1,159.339s9.649,6.447,11.441,16.69c1.6,9.134-.989,41.313-.989,43.035s1.324,15.679,1.324,15.679c1.364,2.936-9.809,5.616-15.939,6.186-5.42.505-17.374-.7-20.819-2.4-1.091-.538-2.137-1.121-2.164-2.337-.121-5.623-.408-20.637-.036-22.87.459-2.756-.039-18.835-.039-24.349s-2.068-13.9-.23-17.457,6.546-5.973,6.546-5.973A31.641,31.641,0,0,1,290.1,159.339Z" transform="translate(46.292 28.063)" fill="#01d8d1" stroke="#003759" stroke-linecap="round" stroke-linejoin="round" stroke-miterlimit="10" stroke-width="0.704"/>
    <path id="Trazado_719171" data-name="Trazado 719171" d="M286.3,187a25.21,25.21,0,0,1-2.483,3.991" transform="translate(50.178 32.979)" fill="none" stroke="#003759" stroke-linecap="round" stroke-linejoin="round" stroke-miterlimit="10" stroke-width="0.704"/>
    <path id="Trazado_719172" data-name="Trazado 719172" d="M292.192,175.334s-2.21,5.035-4.556,9.811" transform="translate(50.854 30.911)" fill="none" stroke="#003759" stroke-linecap="round" stroke-linejoin="round" stroke-miterlimit="10" stroke-width="0.704"/>
    <path id="Trazado_719173" data-name="Trazado 719173" d="M288.4,188.858l-4.885,6.512" transform="translate(50.124 33.307)" fill="none" stroke="#003759" stroke-linecap="round" stroke-linejoin="round" stroke-miterlimit="10" stroke-width="0.704"/>
    <path id="Trazado_719174" data-name="Trazado 719174" d="M289.117,155.333l2.181,5.513s-4.595.23-8.844.8-14.357,4.594-14.357,4.594,1.034-4.135,1.838-4.939a18.72,18.72,0,0,1,9.533-5.054A35.149,35.149,0,0,1,289.117,155.333Z" transform="translate(47.392 27.36)" fill="#01d8d1" stroke="#003759" stroke-linecap="round" stroke-linejoin="round" stroke-miterlimit="10" stroke-width="0.704"/>
    <path id="Trazado_719175" data-name="Trazado 719175" d="M278.237,201.3s-.736,8.677-1.69,9.1-24.624-7.828-26.321-8.677a8.271,8.271,0,0,0-2.971-.849c-.318-.106-3.183-.106-4.244-.636a13.789,13.789,0,0,1-2.441-2.122c-.318-.213-2.864-.319-3.607-.849s-1.7-.955-1.061-1.274a33.01,33.01,0,0,1,3.82-.955s.106-1.486,1.378-1.7.849.318,3.926-1.486,2.758-.319,5.411,1.592a29.926,29.926,0,0,1,4.244,4.138c.318.106,9.974,3.714,9.974,3.714h13.582Z" transform="translate(41.651 33.693)" fill="#fff" stroke="#003759" stroke-linecap="round" stroke-linejoin="round" stroke-miterlimit="10" stroke-width="0.704"/>
    <path id="Trazado_719176" data-name="Trazado 719176" d="M239.115,194.53l5.2-.637" transform="translate(42.257 34.199)" fill="none" stroke="#003759" stroke-linecap="round" stroke-linejoin="round" stroke-miterlimit="10" stroke-width="0.704"/>
    <path id="Trazado_719177" data-name="Trazado 719177" d="M254.657,197.455s-1.463-1.261-2.449-.845a5.691,5.691,0,0,0-2.559,4.566c-.144,2.29,3.577,2.576,3.577,2.576Z" transform="translate(44.123 34.665)" fill="#01d8d1" stroke="#003759" stroke-linecap="round" stroke-linejoin="round" stroke-miterlimit="10" stroke-width="0.704"/>
    <path id="Trazado_719178" data-name="Trazado 719178" d="M273.889,165.478c-1.913,0-6.956,1.391-8.52,3.13s-1.739,6.782-1.217,13.563c.52,6.766,3.177,19.476,3.189,19.536-.029-.144-.328.672-.411.819-.348.62.539.725-.286.858a16.621,16.621,0,0,1-2.181.164q-1.822-.313-3.645-.617a55.424,55.424,0,0,0-7.366-.78c-.775,0-2.812,6.232-1.65,7.587s24.2,10.3,25.747,9.918,4.51-20.748,4.465-20.843c.452-5.581.994-12.13,1.091-12.816" transform="translate(44.443 29.165)" fill="#01d8d1"/>
    <path id="Trazado_719179" data-name="Trazado 719179" d="M273.889,165.478c-1.913,0-6.956,1.391-8.52,3.13s-1.739,6.782-1.217,13.563c.52,6.766,3.177,19.476,3.189,19.536-.029-.144-.328.672-.411.819-.348.62.539.725-.286.858a16.621,16.621,0,0,1-2.181.164q-1.822-.313-3.645-.617a55.424,55.424,0,0,0-7.366-.78c-.775,0-2.812,6.232-1.65,7.587s24.2,10.3,25.747,9.918,4.51-20.748,4.465-20.843c.452-5.581.994-12.13,1.091-12.816" transform="translate(44.443 29.165)" fill="none" stroke="#003759" stroke-linecap="round" stroke-linejoin="round" stroke-miterlimit="10" stroke-width="0.704"/>
    <path id="Trazado_719180" data-name="Trazado 719180" d="M264.357,197.68a47.354,47.354,0,0,0,4.865,4.436" transform="translate(46.729 34.87)" fill="none" stroke="#003759" stroke-linecap="round" stroke-linejoin="round" stroke-miterlimit="10" stroke-width="0.704"/>
    <path id="Trazado_719181" data-name="Trazado 719181" d="M266.181,201.084a15.281,15.281,0,0,0,3.434,2.432" transform="translate(47.052 35.473)" fill="none" stroke="#003759" stroke-linecap="round" stroke-linejoin="round" stroke-miterlimit="10" stroke-width="0.704"/>
    <path id="Trazado_719182" data-name="Trazado 719182" d="M195.715,154.811c-.474-2.846-2.372-4.745-2.846-6.485a21.914,21.914,0,0,0-1.581-3.8,50.341,50.341,0,0,0-3.708,10.361l-.419-.982-7.858,6.164-.463,13.713,12.744.6s-.523-2.27-.7-3.955a17.743,17.743,0,0,1,.288-4.982s3.6.081,3.916-1.184S196.189,157.658,195.715,154.811Z" transform="translate(31.579 25.454)" fill="#fff" stroke="#003759" stroke-linecap="round" stroke-linejoin="round" stroke-miterlimit="10" stroke-width="0.704"/>
    <path id="Trazado_719183" data-name="Trazado 719183" d="M191.433,148.979a6.628,6.628,0,0,0,1.484.371c.464,0,1.3.093,1.022,1.207a2.362,2.362,0,0,1-.929,1.486Z" transform="translate(33.81 26.242)" fill="#fff" stroke="#003759" stroke-linecap="round" stroke-linejoin="round" stroke-miterlimit="10" stroke-width="0.704"/>
    <path id="Trazado_719184" data-name="Trazado 719184" d="M188.766,283.6s-1.741,29.616-1.741,30.085-2.19,7.823-1.876,8.918,2.816,1.408,4.537,1.565,5.32.625,6.727.625a51.747,51.747,0,0,0,7.354-.625c.939-.313,2.191-1.251,1.1-2.034s-3.755-1.095-6.885-4.693a30.406,30.406,0,0,1-3.911-5.163l6.591-28.365Z" transform="translate(32.691 50.092)" fill="#fff" stroke="#003759" stroke-linecap="round" stroke-linejoin="round" stroke-miterlimit="10" stroke-width="0.704"/>
    <path id="Trazado_719185" data-name="Trazado 719185" d="M153.963,278.946s-12.187,30.324-13.127,31.576-7.264,9.247-7.421,10.812,7.94,1.713,9.348.775,3.079-9.083,4.018-10.8,21.732-30.17,21.732-30.17Z" transform="translate(23.531 49.268)" fill="#fff" stroke="#003759" stroke-linecap="round" stroke-linejoin="round" stroke-miterlimit="10" stroke-width="0.704"/>
    <path id="Trazado_719186" data-name="Trazado 719186" d="M172.555,204.892l-.231,5.09s-6.341,13.692-12.522,30.693c-6.729,18.511-15.476,50.522-15.476,50.522s5.785,5.322,21.519,7.867,25.525,3.623,34.081,3.364c10.344-.313,23.533-3.134,23.533-3.134s-7.4-45.35-13.42-65.944-7.448-22.639-7.448-22.639l-2.049-11.481Z" transform="translate(25.464 35.145)" fill="#8f8f8f" stroke="#003759" stroke-linecap="round" stroke-linejoin="round" stroke-miterlimit="10" stroke-width="0.704"/>
    <path id="Trazado_719187" data-name="Trazado 719187" d="M176.909,233.807l-1.723,60.751" transform="translate(30.931 41.27)" fill="none" stroke="#003759" stroke-linecap="round" stroke-linejoin="round" stroke-miterlimit="10" stroke-width="0.704"/>
    <path id="Trazado_719188" data-name="Trazado 719188" d="M176.768,229.986l-.067,2.388" transform="translate(31.2 40.593)" fill="none" stroke="#003759" stroke-linecap="round" stroke-linejoin="round" stroke-miterlimit="10" stroke-width="0.704"/>
    <path id="Trazado_719189" data-name="Trazado 719189" d="M187.92,209.482c.966-.2,1.914-.441,2.828-.724" transform="translate(33.187 36.833)" fill="none" stroke="#003759" stroke-linecap="round" stroke-linejoin="round" stroke-miterlimit="10" stroke-width="0.704"/>
    <path id="Trazado_719190" data-name="Trazado 719190" d="M170.469,209.74a76.387,76.387,0,0,0,17,.145" transform="translate(30.096 37.007)" fill="none" stroke="#003759" stroke-linecap="round" stroke-linejoin="round" stroke-miterlimit="10" stroke-width="0.704"/>
    <path id="Trazado_719191" data-name="Trazado 719191" d="M217.68,156.034a40.4,40.4,0,0,1-.793-5.1c-.113-2.039-2.039-4.759-1.813-5.892a1.205,1.205,0,0,1,1.926-.68,5.543,5.543,0,0,1,1.247,1.473s1.586-4.872,1.586-7.024,1.36-1.927,1.926-.454-.226,7.14-.226,7.14a29.037,29.037,0,0,1,3.172,1.019,3.72,3.72,0,0,1,2.606,4.192c-.34,2.832-.679,4.42-1.36,4.42s-1.247-.908-1.247-.908,0,3.061-1.021,3.967a6.018,6.018,0,0,1-3.059,1.019S220.854,156.941,217.68,156.034Z" transform="translate(37.995 24.159)" fill="#fff" stroke="#003759" stroke-linecap="round" stroke-linejoin="round" stroke-miterlimit="10" stroke-width="0.704"/>
    <path id="Trazado_719192" data-name="Trazado 719192" d="M223.253,152.105s.68-2.606.68-2.945" transform="translate(39.447 26.274)" fill="none" stroke="#003759" stroke-linecap="round" stroke-linejoin="round" stroke-miterlimit="10" stroke-width="0.704"/>
    <path id="Trazado_719193" data-name="Trazado 719193" d="M217.868,144.539l-.679,3.174" transform="translate(38.373 25.455)" fill="none" stroke="#003759" stroke-linecap="round" stroke-linejoin="round" stroke-miterlimit="10" stroke-width="0.704"/>
    <path id="Trazado_719194" data-name="Trazado 719194" d="M214.892,156.544l2.135-3.612s.82-1.15,2.791-.493l.059.02a3.6,3.6,0,0,1,2.293,4.343l-.545,2.042S217.355,156.381,214.892,156.544Z" transform="translate(37.966 26.819)" fill="#01d8d1" stroke="#003759" stroke-linecap="round" stroke-linejoin="round" stroke-miterlimit="10" stroke-width="0.704"/>
    <path id="Trazado_719195" data-name="Trazado 719195" d="M140.744,217.571s.516,2.706.773,4.639,1.546,5.8,2.449,6.317,2.062,1.16.773,1.546-2.062.516-3.222-.387a11.507,11.507,0,0,1-1.934-1.933s-.9,4-1.546,5.929a32.094,32.094,0,0,1-2.578,5.028,1.823,1.823,0,0,1-.837,1.418c-.773.387-1.324-1.152-1.324-1.152s-1.037,2.419-1.706-.138a65.07,65.07,0,0,1-1.031-9.023c.129-1.288,5.341-13.235,5.341-13.235Z" transform="translate(23.023 38.218)" fill="#fff" stroke="#003759" stroke-linecap="round" stroke-linejoin="round" stroke-miterlimit="10" stroke-width="0.704"/>
    <path id="Trazado_719196" data-name="Trazado 719196" d="M133.108,229.467a6.542,6.542,0,0,0-.8,2.061c0,.516.675,5.165.675,5.165" transform="translate(23.335 40.502)" fill="none" stroke="#003759" stroke-linecap="round" stroke-linejoin="round" stroke-miterlimit="10" stroke-width="0.704"/>
    <path id="Trazado_719197" data-name="Trazado 719197" d="M134.821,236.5l-.664-4.513,1.178-2.962" transform="translate(23.662 40.424)" fill="none" stroke="#003759" stroke-linecap="round" stroke-linejoin="round" stroke-miterlimit="10" stroke-width="0.704"/>
    <path id="Trazado_719198" data-name="Trazado 719198" d="M135.486,234.938s.054-2.428.22-3.542.449-.911.811-2.258" transform="translate(23.898 40.443)" fill="none" stroke="#003759" stroke-linecap="round" stroke-linejoin="round" stroke-miterlimit="10" stroke-width="0.704"/>
    <path id="Trazado_719199" data-name="Trazado 719199" d="M137.145,223.991a3.817,3.817,0,0,1-1.031,2.062,27.99,27.99,0,0,1-2.706,2.191" transform="translate(23.529 39.531)" fill="none" stroke="#003759" stroke-linecap="round" stroke-linejoin="round" stroke-miterlimit="10" stroke-width="0.704"/>
    <path id="Trazado_719200" data-name="Trazado 719200" d="M171.389,173.538s-10.51,5.091-11.168,6.4-13.794,24.8-15.6,27.1-7.39,5.255-8.047,7.554-.165,8.539-.165,8.539L135.1,227.4s.165,1.477,2.464,1.971l2.3.492,3.941-3.778s8.539-2.134,11.987-6.24,11.823-23.318,11.823-23.318L166.3,209.5a89.932,89.932,0,0,0,18.722.493c10.181-.822,21.348-2.463,21.348-2.463l-1.477-15.108s24.3-3.941,25.618-5.091,2.463-4.27,2.627-5.418,4.27-23.155,4.27-23.155a7.58,7.58,0,0,0-4.926-3.121c-3.449-.657-6.9,1.15-7.062,2.135s-7.225,15.271-7.225,15.271-.492-.327-2.3.493-4.988-.463-4.988-.463-6.343-1.836-9.956-1.508-7.061.822-7.061.822-6.4-2.956-11.168-1.643S171.389,173.538,171.389,173.538Z" transform="translate(23.829 27.397)" fill="#01d8d1" stroke="#003759" stroke-linecap="round" stroke-linejoin="round" stroke-miterlimit="10" stroke-width="0.704"/>
    <path id="Trazado_719201" data-name="Trazado 719201" d="M185.178,188.343l10.838-1.477-7.225,3.776" transform="translate(32.702 32.954)" fill="none" stroke="#003759" stroke-linecap="round" stroke-linejoin="round" stroke-miterlimit="10" stroke-width="0.704"/>
    <path id="Trazado_719202" data-name="Trazado 719202" d="M163.253,184.076l-.164,7.39-2.464-3.121" transform="translate(28.352 32.46)" fill="none" stroke="#003759" stroke-linecap="round" stroke-linejoin="round" stroke-miterlimit="10" stroke-width="0.704"/>
    <path id="Trazado_719203" data-name="Trazado 719203" d="M137.468,213.51s.492,1.643,4.434,1.643" transform="translate(24.249 37.675)" fill="none" stroke="#003759" stroke-linecap="round" stroke-linejoin="round" stroke-miterlimit="10" stroke-width="0.704"/>
    <path id="Trazado_719204" data-name="Trazado 719204" d="M174.667,163.865c5.393,4.16,9.928,1.647,11.873-.3,2.367-2.367,2.347-5.469,3.887-8.424.2-1.084,3.774-4.855,4.051-5.75.632-2.057-.592-5.661-.592-5.661s3.48.473,1.9-3.005-3.005-4.744-6.327-5.061a6.055,6.055,0,0,0-5.218,2.372s-3.954-1.9-6.644-.474-6.587.028-9.765,9.642a15.117,15.117,0,0,0-.972,3.4c-.137,2.789,1.459,4.785,3.048,7.083C172.35,161.23,171.278,161.251,174.667,163.865Z" transform="translate(29.454 23.879)" fill="#003759" stroke="#003759" stroke-linecap="round" stroke-linejoin="round" stroke-miterlimit="10" stroke-width="0.704"/>
    <path id="Trazado_719205" data-name="Trazado 719205" d="M180.177,156.373a4.006,4.006,0,1,1-4.006-4.006A4.005,4.005,0,0,1,180.177,156.373Z" transform="translate(30.396 26.842)" fill="#fff" stroke="#003759" stroke-linecap="round" stroke-linejoin="round" stroke-miterlimit="10" stroke-width="0.704"/>
    <path id="Trazado_719206" data-name="Trazado 719206" d="M171.241,163.341c.027,2.489.027,4.929-2.221,6.614-2.466,1.849-12.019,8.948-6.78,16.19s5.985,5.237,5.522,7.7-10.631,9.244-8.782,15.253,9.4,9.4,8.32,11.71,2.311,13.713,15.408,7.7,12.188-16.356,6.932-28.041c-1.214-2.7-.644-6.152,4.287-11.7s1.215-16.2-3.979-21.581c-3.064-3.174-4.314-5.7-4.16-6.318s-4.776-7.858-8.936-5.7a10.337,10.337,0,0,0-5.526,6.91A6.826,6.826,0,0,0,171.241,163.341Z" transform="translate(28.02 27.269)" fill="#003759" stroke="#003759" stroke-linecap="round" stroke-linejoin="round" stroke-miterlimit="10" stroke-width="0.704"/>
    <path id="Trazado_719207" data-name="Trazado 719207" d="M187.357,152.354s-1.62-2.267-2.753.162a4.972,4.972,0,0,0,1.376,5.75c1.134.891,1.945-2.348,1.945-2.348" transform="translate(32.525 26.669)" fill="#fff"/>
    <path id="Trazado_719208" data-name="Trazado 719208" d="M187.357,152.354s-1.62-2.267-2.753.162a4.972,4.972,0,0,0,1.376,5.75c1.134.891,1.945-2.348,1.945-2.348" transform="translate(32.525 26.669)" fill="none" stroke="#003759" stroke-linecap="round" stroke-linejoin="round" stroke-miterlimit="10" stroke-width="0.704"/>
    <path id="Trazado_719209" data-name="Trazado 719209" d="M203.766,319.074c.939-.314,2.191-1.253,1.1-2.034s-3.755-1.1-6.884-4.695l-.166,2.8a79.452,79.452,0,0,1-12.057-1.456,13.612,13.612,0,0,0-.607,3.818c.313,1.1,2.816,1.408,4.538,1.566s5.32.625,6.727.625A51.733,51.733,0,0,0,203.766,319.074Z" transform="translate(32.691 55.185)" fill="#01d8d1" stroke="#003759" stroke-linecap="round" stroke-linejoin="round" stroke-miterlimit="10" stroke-width="0.704"/>
    <path id="Trazado_719210" data-name="Trazado 719210" d="M142.763,316.361c.582-.388,1.208-2.011,1.809-3.9a26.8,26.8,0,0,1-8.693-1.071c-1.321,1.868-2.4,3.561-2.464,4.194C133.259,317.151,141.355,317.3,142.763,316.361Z" transform="translate(23.531 55.016)" fill="#01d8d1" stroke="#003759" stroke-linecap="round" stroke-linejoin="round" stroke-miterlimit="10" stroke-width="0.704"/>
    <path id="Trazado_719211" data-name="Trazado 719211" d="M50.052,250.557H43.1V262.9h6.953Z" transform="translate(7.53 44.238)" fill="#003759" stroke="#003759" stroke-linecap="round" stroke-linejoin="round" stroke-miterlimit="10" stroke-width="0.704"/>
    <path id="Trazado_719212" data-name="Trazado 719212" d="M52.565,261.719H43.842a12.955,12.955,0,0,1-12.955-12.955V221.692a12.955,12.955,0,0,1,12.955-12.955h8.724A12.955,12.955,0,0,1,65.52,221.692v27.072A12.953,12.953,0,0,1,52.565,261.719Z" transform="translate(5.366 36.829)" fill="#949494" stroke="#003759" stroke-linecap="round" stroke-linejoin="round" stroke-miterlimit="10" stroke-width="0.704"/>
    <path id="Trazado_719213" data-name="Trazado 719213" d="M37.664,316.425a2.941,2.941,0,1,0-2.941,2.941A2.942,2.942,0,0,0,37.664,316.425Z" transform="translate(5.525 55.386)" fill="#003759" stroke="#003759" stroke-linecap="round" stroke-linejoin="round" stroke-miterlimit="10" stroke-width="0.704"/>
    <path id="Trazado_719214" data-name="Trazado 719214" d="M86.477,316.425a2.941,2.941,0,1,0-2.941,2.941A2.942,2.942,0,0,0,86.477,316.425Z" transform="translate(14.173 55.386)" fill="#003759" stroke="#003759" stroke-linecap="round" stroke-linejoin="round" stroke-miterlimit="10" stroke-width="0.704"/>
    <path id="Trazado_719215" data-name="Trazado 719215" d="M60.311,316.425c0-1.624-.612-2.942-1.367-2.942s-1.367,1.317-1.367,2.942.612,2.941,1.367,2.941S60.311,318.048,60.311,316.425Z" transform="translate(10.095 55.386)" fill="#003759" stroke="#003759" stroke-linecap="round" stroke-linejoin="round" stroke-miterlimit="10" stroke-width="0.704"/>
    <path id="Trazado_719216" data-name="Trazado 719216" d="M66.17,308.767v-42.16H60.4v42.332l-28.49,11.269v2.833h4.139v-2.4L63.5,314.978l27.455,5.667v2.4H95.1v-2.833Z" transform="translate(5.547 47.081)" fill="#003759" stroke="#003759" stroke-linecap="round" stroke-linejoin="round" stroke-miterlimit="10" stroke-width="0.704"/>
    <path id="Trazado_719217" data-name="Trazado 719217" d="M57.606,316.6h2.887l.619-13.687H56.987Z" transform="translate(9.99 53.514)" fill="#003759" stroke="#003759" stroke-linecap="round" stroke-linejoin="round" stroke-miterlimit="10" stroke-width="0.704"/>
    <path id="Trazado_719218" data-name="Trazado 719218" d="M67,265.242H52.319v8.715H67Z" transform="translate(9.163 46.84)" fill="#003759" stroke="#003759" stroke-linecap="round" stroke-linejoin="round" stroke-miterlimit="10" stroke-width="0.704"/>
    <path id="Trazado_719219" data-name="Trazado 719219" d="M83.417,269.66H40.463a4.9,4.9,0,0,1-4.9-4.9v-1.44a4.9,4.9,0,0,1,4.9-4.9H83.417a4.9,4.9,0,0,1,4.9,4.9v1.44A4.9,4.9,0,0,1,83.417,269.66Z" transform="translate(6.195 45.631)" fill="#949494" stroke="#003759" stroke-linecap="round" stroke-linejoin="round" stroke-miterlimit="10" stroke-width="0.704"/>
    <path id="Trazado_719220" data-name="Trazado 719220" d="M112.831,280.561l4.381,6.49,5.191-.325s7.612.1,8.91-.228,1.785.811,1.135,2.109-6.3,5.348-9.222,7.134a71.605,71.605,0,0,1-10.071,4.777c-.812.162-1.786-1.461-3.57-6.491a56.648,56.648,0,0,0-5.03-10.06Z" transform="translate(18.418 49.554)" fill="#fff" stroke="#003759" stroke-linecap="round" stroke-linejoin="round" stroke-miterlimit="10" stroke-width="0.704"/>
    <path id="Trazado_719221" data-name="Trazado 719221" d="M131.692,287.722c.65-1.3.162-2.433-1.135-2.108s-8.91.228-8.91.228l-5.191.325a13.652,13.652,0,0,0,.811,4.38s-7.3,1.786-8.438,2.6c1.786,5.03,2.758,6.652,3.57,6.491a71.6,71.6,0,0,0,10.071-4.777C125.392,293.071,131.043,289.02,131.692,287.722Z" transform="translate(19.175 50.439)" fill="#fff" stroke="#003759" stroke-linecap="round" stroke-linejoin="round" stroke-miterlimit="10" stroke-width="0.704"/>
    <path id="Trazado_719222" data-name="Trazado 719222" d="M131.182,285.662a33.337,33.337,0,0,1-5.9,4.709,97.771,97.771,0,0,1-14.831,7.476c.689,1.369,1.2,1.861,1.667,1.768a71.538,71.538,0,0,0,10.072-4.777c2.921-1.785,8.573-5.835,9.222-7.134C131.866,286.784,131.747,285.956,131.182,285.662Z" transform="translate(19.462 50.457)" fill="#01d8d1" stroke="#003759" stroke-linecap="round" stroke-linejoin="round" stroke-miterlimit="10" stroke-width="0.704"/>
    <path id="Trazado_719223" data-name="Trazado 719223" d="M104.513,237.008c.609-1.355,5.457,16.379,9.346,33.3,2.622,11.414,4.921,18.26,4.921,18.26a41.913,41.913,0,0,1-5.988,4.317c-2.271,1.135-6.165,2.6-6.165,2.6s-5.8-12.613-9.047-18.941-4.154-10.56-6.75-15.267-3.254-13.18-3.254-13.18-1.623-8.113,4.543-10.223S102.729,234.736,104.513,237.008Z" transform="translate(15.375 41.61)" fill="#01d8d1" stroke="#003759" stroke-linecap="round" stroke-linejoin="round" stroke-miterlimit="10" stroke-width="0.704"/>
    <path id="Trazado_719224" data-name="Trazado 719224" d="M87.993,294.828s-1.12,6.955-1.877,9.493-2.848,7.155-2.19,8.3,4.119,2.324,5.886,2.47,4.026,3.035,7.314,4.23,7.626.869,7.526.006-9.728-11.476-10.2-14.047,1.219-10.642,1.219-10.642Z" transform="translate(14.741 52.048)" fill="#fff" stroke="#003759" stroke-linecap="round" stroke-linejoin="round" stroke-miterlimit="10" stroke-width="0.704"/>
    <path id="Trazado_719225" data-name="Trazado 719225" d="M93.25,305.394l-.265.731a44.752,44.752,0,0,1-7.511-1.511c-.9,2.489-2.064,5.51-1.548,6.409.658,1.15,4.119,2.324,5.886,2.47s4.026,3.035,7.314,4.231,7.626.868,7.526,0-9.728-11.476-10.2-14.046A6.72,6.72,0,0,0,93.25,305.394Z" transform="translate(14.741 53.65)" fill="#fff" stroke="#003759" stroke-linecap="round" stroke-linejoin="round" stroke-miterlimit="10" stroke-width="0.704"/>
    <path id="Trazado_719226" data-name="Trazado 719226" d="M96.926,315.1c-2.6-1.274-4.95-3.451-8.411-4.627-2.255-.765-3.82-1.386-4.64-1.725a2.256,2.256,0,0,0,.05,1.381c.658,1.15,4.119,2.324,5.886,2.47s4.026,3.035,7.314,4.23c3.135,1.139,7.215.895,7.5.12C102.462,316.624,98.713,315.974,96.926,315.1Z" transform="translate(14.741 54.547)" fill="#01d8d1" stroke="#003759" stroke-linecap="round" stroke-linejoin="round" stroke-miterlimit="10" stroke-width="0.704"/>
    <path id="Trazado_719227" data-name="Trazado 719227" d="M89.9,250.4s12.818,1.461,13.792,7.951-1.3,46.892-1.3,46.892a28.164,28.164,0,0,1-5.679-.325c-2.6-.486-6.977-1.461-6.977-1.461s-.649-13.792-1.46-19.308-1.46-21.58-1.46-21.58-21.417-1.786-23.365-3.083S89.9,250.4,89.9,250.4Z" transform="translate(11.118 44.21)" fill="#01d8d1" stroke="#003759" stroke-linecap="round" stroke-linejoin="round" stroke-miterlimit="10" stroke-width="0.704"/>
    <path id="Trazado_719228" data-name="Trazado 719228" d="M110.388,248.882s-31.63,12.53-38.932,14.963a34.471,34.471,0,0,1-20.282.162c-5.03-1.622-7.5-8.08-7.5-8.08a3.126,3.126,0,0,1-.616-2.954c.649-1.46,11.034-10.709,17.362-12.331s17.774-.913,17.774-.913,27.649-7.074,31.056-6.587,6.115,12.613,6.6,14.235" transform="translate(7.49 41.148)" fill="#01d8d1"/>
    <path id="Trazado_719229" data-name="Trazado 719229" d="M110.388,248.882s-31.63,12.53-38.932,14.963a34.471,34.471,0,0,1-20.282.162c-5.03-1.622-7.5-8.08-7.5-8.08a3.126,3.126,0,0,1-.616-2.954c.649-1.46,11.034-10.709,17.362-12.331s17.774-.913,17.774-.913,27.649-7.074,31.056-6.587,6.115,12.613,6.6,14.235" transform="translate(7.49 41.148)" fill="none" stroke="#003759" stroke-linecap="round" stroke-linejoin="round" stroke-miterlimit="10" stroke-width="0.704"/>
    <path id="Trazado_719230" data-name="Trazado 719230" d="M49.787,255.474s2.272-8.923,8.275-12.656" transform="translate(8.715 42.867)" fill="none" stroke="#003759" stroke-linecap="round" stroke-linejoin="round" stroke-miterlimit="10" stroke-width="0.704"/>
    <path id="Trazado_719231" data-name="Trazado 719231" d="M48.685,249.153s2.434-3.732,5.679-4.543" transform="translate(8.52 43.184)" fill="none" stroke="#003759" stroke-linecap="round" stroke-linejoin="round" stroke-miterlimit="10" stroke-width="0.704"/>
    <path id="Trazado_719232" data-name="Trazado 719232" d="M70.717,197.689s2.243,2.43,4.859,8.784,6.861,25.59,6.861,25.59a12.28,12.28,0,0,1-3.832.893c-1.682,0-3.919.227-4.854-.893s-3.595-9.892-3.595-9.892-1.308-10.653-1.682-16.073-2.056-6.54-.374-8.223S70.717,197.689,70.717,197.689Z" transform="translate(11.829 34.763)" fill="#fff" stroke="#003759" stroke-linecap="round" stroke-linejoin="round" stroke-miterlimit="10" stroke-width="0.704"/>
    <path id="Trazado_719233" data-name="Trazado 719233" d="M68.967,194.871s4.82,1.17,6.413,3.826.883,8.729.883,8.729,4.249,12.346,3.452,15.268-3.983,7.169-3.983,7.169.265,9.56,1.062,11.419a49.027,49.027,0,0,1,1.726,5.842s-2.257,1.593-9.692,2.655-13.542,1.594-16.065,3.586-8.1,9.559-8.763,9.958-1.2-1.088-1.73-2.151-.4-4.259.793-9.038,1.824-18.659.158-27.434c-1.805-9.51-2.806-10.886-1.745-17.125s15.805-15.754,17.93-16.152S68.967,194.871,68.967,194.871Z" transform="translate(7.166 33.756)" fill="#fff" stroke="#003759" stroke-linecap="round" stroke-linejoin="round" stroke-miterlimit="10" stroke-width="0.704"/>
    <path id="Trazado_719234" data-name="Trazado 719234" d="M44.825,246.665s4.057-4.706,6-5.517,15.577-.811,15.577-.811" transform="translate(7.836 42.427)" fill="none" stroke="#fff" stroke-linecap="round" stroke-linejoin="round" stroke-miterlimit="10" stroke-width="0.704"/>
    <path id="Trazado_719235" data-name="Trazado 719235" d="M47.306,240.879a16.044,16.044,0,0,1,4.057-1.623,41.6,41.6,0,0,1,6.491,0" transform="translate(8.275 42.21)" fill="none" stroke="#fff" stroke-linecap="round" stroke-linejoin="round" stroke-miterlimit="10" stroke-width="0.704"/>
    <path id="Trazado_719236" data-name="Trazado 719236" d="M53.371,227.977a35.468,35.468,0,0,0,11.845-7.626" transform="translate(9.35 38.887)" fill="none" stroke="#003759" stroke-linecap="round" stroke-linejoin="round" stroke-miterlimit="10" stroke-width="0.704"/>
    <path id="Trazado_719237" data-name="Trazado 719237" d="M67.321,166.074s1.792,3.823,2.39,5.018.359,3.227.836,4.9,3.226,2.748,3.226,3.7a8.935,8.935,0,0,1-1.076,2.868s-.6,7.409-1.553,8.246-4.9,1.075-4.9,1.075l-.333,7.092,2.257,1.328s.4,7.833,0,10.622-1.64,3.375-5.184,1.268c-3.933-2.338-9.022-8.57-9.554-9.9s1.1-5.989-1.286-13.637,2.868-14.578,6.333-17.8S63.617,165.476,67.321,166.074Z" transform="translate(9.026 29.253)" fill="#fff" stroke="#003759" stroke-linecap="round" stroke-linejoin="round" stroke-miterlimit="10" stroke-width="0.704"/>
    <path id="Trazado_719238" data-name="Trazado 719238" d="M70.427,166.615c-.119-2.151-.359-2.988-4.78-3.466s-13.861-.836-17.565,5.736-3.7,20.911-3.7,20.911-9.613,6-10.278,10.783,2.523,9.294,7.568,10.886c.1.031.2.053.3.079a15.085,15.085,0,0,1,2.757-6.121c2.871-3.444,5.358-3.062,8.995-4.019,3.694-.972,5.953-1.2,6.49-5.356a43.534,43.534,0,0,0,.065-10.554c-.119-1.434,1.434-3.584,1.434-3.584s3.7.956,6.094-5.5S70.546,168.765,70.427,166.615Z" transform="translate(5.92 28.712)" fill="#003759" stroke="#003759" stroke-linecap="round" stroke-linejoin="round" stroke-miterlimit="10" stroke-width="0.704"/>
    <path id="Trazado_719239" data-name="Trazado 719239" d="M59.662,181.153s-1.195-5.5-4.3-3.346,1.553,8.245,2.271,8.365a3.913,3.913,0,0,0,1.912-.6" transform="translate(9.515 31.261)" fill="#fff"/>
    <path id="Trazado_719240" data-name="Trazado 719240" d="M59.662,181.153s-1.195-5.5-4.3-3.346,1.553,8.245,2.271,8.365a3.913,3.913,0,0,0,1.912-.6" transform="translate(9.515 31.261)" fill="none" stroke="#003759" stroke-linecap="round" stroke-linejoin="round" stroke-miterlimit="10" stroke-width="0.704"/>
    <path id="Trazado_719241" data-name="Trazado 719241" d="M64.59,188.056l-3.7-.478,3.488.613Z" transform="translate(10.681 33.08)" fill="#003759" stroke="#003759" stroke-linecap="round" stroke-linejoin="round" stroke-miterlimit="10" stroke-width="0.704"/>
    <path id="Trazado_719242" data-name="Trazado 719242" d="M67.576,175.85c.156.811-.007,1.522-.363,1.592s-.772-.533-.927-1.343.007-1.522.363-1.59S67.419,175.04,67.576,175.85Z" transform="translate(11.627 30.764)" fill="#003759"/>
    <path id="Trazado_719243" data-name="Trazado 719243" d="M51.4,208.2l-1.244-1.552" transform="translate(8.78 36.459)" fill="none" stroke="#003759" stroke-linecap="round" stroke-linejoin="round" stroke-miterlimit="10" stroke-width="0.704"/>
    <path id="Trazado_719244" data-name="Trazado 719244" d="M49.008,195.461s-4.632-.16-8.146,4.792-2.236,11.18-1.278,13.735,8.625,17.57,9.743,19.487,5.112,4.632,6.07,4.952,4.153-17.25,3.834-18.848S51.565,206.8,51.565,206.8" transform="translate(6.723 34.477)" fill="#fff"/>
    <path id="Trazado_719245" data-name="Trazado 719245" d="M49.008,195.461s-4.632-.16-8.146,4.792-2.236,11.18-1.278,13.735,8.625,17.57,9.743,19.487,5.112,4.632,6.07,4.952,4.153-17.25,3.834-18.848S51.565,206.8,51.565,206.8" transform="translate(6.723 34.477)" fill="none" stroke="#003759" stroke-linecap="round" stroke-linejoin="round" stroke-miterlimit="10" stroke-width="0.704"/>
    <path id="Trazado_719246" data-name="Trazado 719246" d="M50.906,231.29a25.963,25.963,0,0,0-4.186-.182c-1.177.165-.91.364-.273,1s2,.364,2,.364Z" transform="translate(8.027 40.784)" fill="none" stroke="#003759" stroke-linecap="round" stroke-linejoin="round" stroke-miterlimit="10" stroke-width="0.704"/>
    <path id="Trazado_719247" data-name="Trazado 719247" d="M84.566,223.375c1.261,1.171,4.053,8.828-1.351,9.908s-19.635-.36-20.176.18-5.045,4.053-6.035,4.773a17.566,17.566,0,0,1-3.243,1.531s-2.072,1.621-2.612,1.262.54-1.262.54-1.262a14.654,14.654,0,0,1-2.882,1.351c-.72.091-.631-.991-.631-.991a1.836,1.836,0,0,1-1.081.18,1.654,1.654,0,0,1,.361-1.531c.631-.72,3.693-3.693,3.693-3.693a9.6,9.6,0,0,0-2.072.9c-.18.27-1.261.99-1.891,1.531s-1.171.451-1.351,0,.8-1.969,1.836-3.009,6.412-3.12,7.452-3.12S65,228.616,65,228.616s16.232-5.6,16.682-5.781" transform="translate(8.011 39.327)" fill="#fff"/>
    <path id="Trazado_719248" data-name="Trazado 719248" d="M84.566,223.375c1.261,1.171,4.053,8.828-1.351,9.908s-19.635-.36-20.176.18-5.045,4.053-6.035,4.773a17.566,17.566,0,0,1-3.243,1.531s-2.072,1.621-2.612,1.262.54-1.262.54-1.262a14.654,14.654,0,0,1-2.882,1.351c-.72.091-.631-.991-.631-.991a1.836,1.836,0,0,1-1.081.18,1.654,1.654,0,0,1,.361-1.531c.631-.72,3.693-3.693,3.693-3.693a9.6,9.6,0,0,0-2.072.9c-.18.27-1.261.99-1.891,1.531s-1.171.451-1.351,0,.8-1.969,1.836-3.009,6.412-3.12,7.452-3.12S65,228.616,65,228.616s16.232-5.6,16.682-5.781" transform="translate(8.011 39.327)" fill="none" stroke="#003759" stroke-linecap="round" stroke-linejoin="round" stroke-miterlimit="10" stroke-width="0.704"/>
    <path id="Trazado_719249" data-name="Trazado 719249" d="M66.9,226.146s1.916,2.811-.511,6.514" transform="translate(11.656 39.913)" fill="none" stroke="#003759" stroke-linecap="round" stroke-linejoin="round" stroke-miterlimit="10" stroke-width="0.704"/>
    <path id="Trazado_719250" data-name="Trazado 719250" d="M47.821,238.172,51.2,235.34l1.82-1.456" transform="translate(8.367 41.284)" fill="none" stroke="#003759" stroke-linecap="round" stroke-linejoin="round" stroke-miterlimit="10" stroke-width="0.704"/>
    <path id="Trazado_719251" data-name="Trazado 719251" d="M50.805,237.565s2.691-2.2,2.964-2.29" transform="translate(8.895 41.531)" fill="none" stroke="#003759" stroke-linecap="round" stroke-linejoin="round" stroke-miterlimit="10" stroke-width="0.704"/>
    <path id="Trazado_719252" data-name="Trazado 719252" d="M47.7,227.883c.152,3.28-.83,8.011,3.969,11.034,2.307,1.453,5.729,2.824,7.493-.968s2.974-37.809,2.974-37.809l2.018-.55c2.017-.551,3.129-3.875,3.129-3.875a1.547,1.547,0,0,0-.012,2.041c.917.917,4.585-2.935,4.769-4.035s-2.384-4.585-2.384-4.585a1.935,1.935,0,0,0,.917-2.018c-.183-1.468-5.262-.034-5.262-.034l-2.992,3.885s-4.4,5.687-4.768,7.154c-.3,1.218-4.5,14.438-6.91,20.308" transform="translate(8.346 32.882)" fill="#fff"/>
    <path id="Trazado_719253" data-name="Trazado 719253" d="M47.7,227.883c.152,3.28-.83,8.011,3.969,11.034,2.307,1.453,5.729,2.824,7.493-.968s2.974-37.809,2.974-37.809l2.018-.55c2.017-.551,3.129-3.875,3.129-3.875a1.547,1.547,0,0,0-.012,2.041c.917.917,4.585-2.935,4.769-4.035s-2.384-4.585-2.384-4.585a1.935,1.935,0,0,0,.917-2.018c-.183-1.468-5.262-.034-5.262-.034l-2.992,3.885s-4.4,5.687-4.768,7.154c-.3,1.218-4.5,14.438-6.91,20.308" transform="translate(8.346 32.882)" fill="none" stroke="#003759" stroke-linecap="round" stroke-linejoin="round" stroke-miterlimit="10" stroke-width="0.704"/>
    <path id="Trazado_719254" data-name="Trazado 719254" d="M53.476,204.772l6.642,2.553" transform="translate(9.368 36.126)" fill="none" stroke="#003759" stroke-linecap="round" stroke-linejoin="round" stroke-miterlimit="10" stroke-width="0.704"/>
  </g>
</svg>
