<svg xmlns="http://www.w3.org/2000/svg" xmlns:xlink="http://www.w3.org/1999/xlink" width="116.999" height="115" viewBox="0 0 116.999 115">
  <defs>
    <clipPath id="clip-path">
      <rect id="Rect치ngulo_350172" data-name="Rect치ngulo 350172" width="54" height="54.036" fill="none"/>
    </clipPath>
  </defs>
  <g id="Grupo_1018026" data-name="Grupo 1018026" transform="translate(-1162 -2286.564)">
    <g id="Grupo_1017404" data-name="Grupo 1017404" transform="translate(736.563 -5211.906)">
      <g id="Grupo_1015374" data-name="Grupo 1015374" transform="translate(425.927 7498.205)">
        <g id="Grupo_1015448" data-name="Grupo 1015448" transform="translate(0 0)">
          <g id="Grupo_1014855" data-name="Grupo 1014855" transform="translate(0 0)">
            <path id="Uni칩n_12" data-name="Uni칩n 12" d="M58.5,0C90.809,0,117,25.744,117,57.5S90.809,115,58.5,115,0,89.256,0,57.5,26.192,0,58.5,0Z" transform="translate(-0.49 0.265)" fill="#81c539"/>
            <path id="Trazado_608322" data-name="Trazado 608322" d="M49,0C76.062,0,98,22.162,98,49.5S76.062,99,49,99,0,76.838,0,49.5,21.938,0,49,0Z" transform="translate(9.51 7.265)" fill="#fff"/>
          </g>
        </g>
      </g>
    </g>
    <g id="Grupo_1017408" data-name="Grupo 1017408" transform="translate(1196 2317.047)">
      <g id="Grupo_1017404-2" data-name="Grupo 1017404" clip-path="url(#clip-path)">
        <path id="Trazado_718241" data-name="Trazado 718241" d="M27.917,38.285c-.159.592-.415.763-1.07.5a21.085,21.085,0,0,1-7.355-4.91c-.2-.206-.325-.784-.819-.391-.416.331-1.038.478-.817,1.308a1.65,1.65,0,0,0,1.344,1.4,11.135,11.135,0,0,1,8.693,10.6,5.222,5.222,0,0,1-4.49,5.417c-.475.08-.727.181-.888.684a1.614,1.614,0,0,1-1.686,1.117q-6.857,0-13.715,0a1.521,1.521,0,0,1-1.6-.9c-.233-.72-.659-.839-1.293-.972C1.235,51.516-.445,48.867.1,45.632a11.015,11.015,0,0,1,8.575-9.443c.728-.2,1.206-.452,1.343-1.264a1.027,1.027,0,0,0-.485-1.247,5.484,5.484,0,0,1-2.311-3.311c-.121-.472-.258-.689-.8-.8A3.409,3.409,0,0,1,3.8,24.787a1.76,1.76,0,0,0-.007-1.142,7.607,7.607,0,0,1,7.482-9.7c1.161-.007,2.494.338,3.432-.122.893-.437.934-1.917,1.442-2.9A20.18,20.18,0,0,1,37.209.26,19.946,19.946,0,0,1,53.744,16.805c1.207,8.418-1.869,15.1-8.8,20.031-.664.472-1.123.535-1.484-.278-.27-.485-.179-.77.339-1.095a17.284,17.284,0,0,0,5.7-5.8H29.517c-.221.518.643.977.109,1.468-.761.7-1.462.533-1.7-.458-.208-.877-.625-1.133-1.5-1.073a27.258,27.258,0,0,1-3.695,0c-1.222-.083-2.078.056-2.369,1.535a1.361,1.361,0,0,0,.338,1.471,17.655,17.655,0,0,0,6.621,4.433c.706.258.871.6.591,1.239M10.511,20.072c.154.454.241.793-.354,1.107A2.687,2.687,0,0,0,8.73,23.69c-.007,1.736-.038,3.474.01,5.209A4.324,4.324,0,0,0,12.9,33.1c.578.027,1.158.014,1.737.007a4.362,4.362,0,0,0,4.545-4.591q.018-2.55,0-5.1c0-.481.011-.875.655-.774.362.005.724.007,1.086.016,1.353.03,1.722-.281,2.018-1.778H21.067c.625-.945,1.163-1.749,1.69-2.56a4.043,4.043,0,0,0,.7-3.091c-.132-.674-.318-.917-1.055-.55a10.343,10.343,0,0,1-4.735,1.016c-2.212-.011-4.424-.037-6.635.008a5.868,5.868,0,0,0-5.781,5.971c.012.438-.086,1.156.475,1.132.523-.023,1.32.148,1.58-.765a4.264,4.264,0,0,1,1.94-2.4c.638-.408,1.068-.378,1.263.431m3.552,21.747c-2.1,0-4.2.022-6.306-.014-.611-.01-.8.16-.784.779q.06,2.716,0,5.434c-.014.62.175.782.785.778q6.2-.038,12.395,0c.611,0,.8-.16.784-.779q-.06-2.716,0-5.434c.014-.62-.174-.789-.785-.779-2.029.037-4.059.014-6.089.014m-.087-1.744c2.214,0,4.428-.009,6.643,0,1.41.008,2.029.647,2.047,2.077.007.581.028,1.163,0,1.741-.05.888-.084,1.69,1.232,1.417.68-.141.538.438.5.786s.315,1.052-.467.922c-1.371-.23-1.341.571-1.265,1.5a7,7,0,0,1,0,1.305c-.077.726.26.751.83.6,1.916-.5,2.963-2.247,2.594-4.513a9.4,9.4,0,0,0-7.033-8,3.9,3.9,0,0,0-2.721.02,5.966,5.966,0,0,1-4.477.074,4.987,4.987,0,0,0-3.763.15,9.46,9.46,0,0,0-6.331,8.778,3.409,3.409,0,0,0,1.994,3.237c1.295.647,1.489.513,1.489-.935a6.361,6.361,0,0,1,.006-.87c.13-.932-.036-1.552-1.2-1.334-.656.123-.6-.386-.535-.759.057-.347-.328-1.067.436-.949,1.449.223,1.343-.659,1.3-1.584-.024-.471-.006-.943,0-1.415.007-1.687.583-2.251,2.308-2.253q3.212,0,6.425,0M34.1,20.916c-1.81,0-3.621.025-5.43-.014-.623-.013-.816.171-.757.792a43.181,43.181,0,0,0,.777,5.471c.135.594.378.731.939.726,2.9-.024,5.793-.033,8.689.005.651.008.844-.218.978-.821a45,45,0,0,0,.755-5.366c.06-.6-.091-.825-.738-.809-1.737.042-3.475.014-5.213.014m-.154-1.744c1.815,0,3.63-.014,5.444.009.506.007.713-.118.665-.667a40.685,40.685,0,0,0-.8-5.7c-.12-.515-.35-.616-.814-.614q-4.464.022-8.928,0c-.486,0-.676.149-.792.64a42.149,42.149,0,0,0-.8,5.592c-.067.683.234.761.8.752,1.742-.028,3.484-.01,5.226-.01m6.966,8.709c3.089,0,6.1-.008,9.106.01a.69.69,0,0,0,.713-.513,19.762,19.762,0,0,0,1.5-5.873c.042-.4-.027-.6-.491-.594q-4.682.02-9.364,0c-.407,0-.567.114-.585.545a36.657,36.657,0,0,1-.877,6.426m6.073-8.709q2.285,0,4.57,0c.349,0,.732.1.667-.521a20.3,20.3,0,0,0-1.509-5.977c-.179-.415-.455-.473-.85-.471-2.756.012-5.513.017-8.27,0-.524,0-.7.1-.558.667a28.372,28.372,0,0,1,.74,5.592c.027.558.175.743.748.728,1.486-.039,2.974-.013,4.461-.013M36.216,1.989c.648,1.03,1.285,1.953,1.825,2.929s1,2,1.468,3.026c.369.813.469,2,1.084,2.381.689.424,1.825.134,2.766.137,2.007.007,4.014,0,6.1,0C47,5.987,40.915,2.107,36.216,1.989M31.811,2c-4.658.034-11.986,4.77-13.171,8.461,2.467,0,4.931-.078,7.385.034a1.7,1.7,0,0,0,2.031-1.417A24.85,24.85,0,0,1,31.811,2m-2.362,8.37h9.1A25.145,25.145,0,0,0,34.5,2.763c-.3-.375-.494-.68-.946-.1a25.214,25.214,0,0,0-4.1,7.707M13.843,52.266c2.1,0,4.2-.036,6.3.019.739.02.8-.285.8-.885s-.047-.9-.794-.891q-6.187.06-12.375,0c-.737-.007-.8.285-.8.885s.045.913.795.892c2.025-.058,4.052-.02,6.078-.02M23.97,27.882c.877,0,1.661-.028,2.443.009.569.027.654-.163.523-.687a33.716,33.716,0,0,1-.764-5.563c-.021-.271.187-.716-.37-.72-.381,0-.759-.1-.977.429a16.9,16.9,0,0,1-1.065,2c-.157.269-.254.461-.031.765a3.489,3.489,0,0,1,.241,3.771m.372-8.748c.287.019.431.019.573.04.885.133,1.353-.057,1.328-1.141a29.826,29.826,0,0,1,.344-3.44c.075-.788.742-1.828.2-2.272-.5-.407-1.586-.094-2.415-.09-.047,0-.093.078-.2.177a6.1,6.1,0,0,1,.174,6.726m-1.123-6.928H18.867c-1.579,0-1.579,0-2.009,1.709a9.615,9.615,0,0,0,6.361-1.709m-9.2,22.618v-.007A9.365,9.365,0,0,1,12.4,34.8c-.682-.121-.647.37-.793.745-.218.561.173.687.568.793a6.663,6.663,0,0,0,3.522,0c.383-.1.8-.188.6-.773-.146-.441-.181-.913-.885-.763a6.833,6.833,0,0,1-1.4.018m6.9-10.443c0,1.02.029,1.954-.01,2.885-.03.728.289.682.767.429a1.637,1.637,0,0,0,.966-1.762,1.775,1.775,0,0,0-1.724-1.551M6.988,26.231c0-.4-.025-.793.006-1.186.051-.646-.18-.748-.738-.477a1.719,1.719,0,0,0-.5,2.793c.285.281.651.591,1.033.461.428-.145.13-.622.19-.946a3.623,3.623,0,0,0,.007-.646" transform="translate(0 -0.013)" fill="#030404"/>
        <path id="Trazado_718242" data-name="Trazado 718242" d="M100.769,144.423c.28-.641.115-.981-.591-1.239a17.657,17.657,0,0,1-6.621-4.433,1.361,1.361,0,0,1-.337-1.471c.29-1.478,1.146-1.617,2.368-1.534a27.256,27.256,0,0,0,3.695,0c.873-.06,1.29.2,1.5,1.073.235.992.936,1.157,1.7.458.535-.491-.329-.95-.109-1.468h19.978a17.284,17.284,0,0,1-5.7,5.8c-.519.325-.61.61-.339,1.095a14.017,14.017,0,0,1-6.06,2.314c-1.634-.83-2.476-.725-3.744.468a47.471,47.471,0,0,1-5.736-1.055m7.786-6.931a9.223,9.223,0,0,0-6.049,2.294c-.281.244-.872.5-.245.976.387.293.562,1.023,1.363.39,3.255-2.573,6.719-2.586,9.892-.028.77.621.965-.017,1.37-.323.6-.451.131-.714-.182-.987a9.251,9.251,0,0,0-6.15-2.321m-4.083,5.632c.639.081.745,1.4,1.746.592,1.683-1.357,3.019-1.357,4.784.054.794.635.989-.221,1.4-.457.553-.32.031-.6-.179-.809a5.071,5.071,0,0,0-7.748.62" transform="translate(-72.852 -106.151)" fill="#68d2f0"/>
        <path id="Trazado_718243" data-name="Trazado 718243" d="M148.215,207.773c.652,0,1.307.029,1.957-.007,1.155-.065,2.11.176,2.426,1.465.112.457.453.261.7.277,1.735.113,2.834,1.148,2.807,2.668a2.618,2.618,0,0,1-2.9,2.553,3.094,3.094,0,0,0-2.323.8,3.858,3.858,0,0,1-4.372.559,4.172,4.172,0,0,1-2.58-3.723,26.506,26.506,0,0,1-.009-2.826,1.707,1.707,0,0,1,1.8-1.764c.833-.029,1.667-.006,2.5-.006m.062,1.744c-2.914,0-2.924,0-2.61,2.833a2.519,2.519,0,0,0,1.79,2.241,2.451,2.451,0,0,0,2.684-.673c.614-.608,1.188-3.432.686-4.126-.465-.642-1.331-.15-2.006-.27a3.134,3.134,0,0,0-.543,0m4.347,2.666c.005.383-.23.88.539.829.645-.043,1.185-.175,1.173-.921-.01-.6-.46-.781-1.031-.847-.865-.1-.675.468-.681.94" transform="translate(-112.531 -162.486)" fill="#040404"/>
        <path id="Trazado_718244" data-name="Trazado 718244" d="M35.266.906c.161.663-.1.824-.767.883a9.482,9.482,0,0,0-8.735,8.73c-.083,1.034-.642.756-1.2.813-.856.087-.6-.518-.574-.923A11.45,11.45,0,0,1,34.354.012c.733-.055,1.139.062.912.894" transform="translate(-18.719 0)" fill="#070707"/>
        <path id="Trazado_718245" data-name="Trazado 718245" d="M40.9,23.571c-.831.217-.913-.265-.8-1.014A7.905,7.905,0,0,1,46.912,15.8c.311-.04.989-.449.961.346-.017.5.5,1.251-.692,1.4a6.007,6.007,0,0,0-5.346,5.323c-.111.7-.111.7-.932.706" transform="translate(-31.333 -12.246)" fill="#040404"/>
        <path id="Trazado_718246" data-name="Trazado 718246" d="M152.567,176.862c1.268-1.192,2.11-1.3,3.744-.468a2.841,2.841,0,0,1,.914,2.55,2.64,2.64,0,0,1-3.284,2.035,2.585,2.585,0,0,1-1.715-3.442,6.981,6.981,0,0,1,.341-.675m2.962,1.531a.876.876,0,0,0-.845-.778.8.8,0,0,0-.888.871.786.786,0,0,0,.816.835c.559.018.841-.33.917-.928" transform="translate(-118.915 -137.536)" fill="#040404"/>
        <path id="Trazado_718247" data-name="Trazado 718247" d="M51.108,94.534c-.645-.1-.661.294-.656.774q.026,2.55,0,5.1A4.363,4.363,0,0,1,45.911,105c-.579.006-1.159.02-1.736-.008a4.323,4.323,0,0,1-4.157-4.2c-.048-1.735-.017-3.472-.01-5.208a2.686,2.686,0,0,1,1.427-2.51c.6-.315.508-.653.354-1.107l1.526-.025c-.392.338-.565.663-.125,1.132a5.271,5.271,0,0,1,.781,1.169c.326.621.614.782,1.3.333.723-.474.563-.816.159-1.339-.306-.4-.541-.847-.808-1.273L46.8,91.94c-.392.339-.563.664-.123,1.132a5.257,5.257,0,0,1,.78,1.169c.326.622.615.781,1.3.332.722-.473.565-.815.159-1.339-.307-.4-.543-.845-.811-1.271a3.071,3.071,0,0,1,3,2.571m-5.893,8.736a3.64,3.64,0,0,0,3.029-1.589c.165-.234.545-.589.049-.783-.432-.169-.8-.835-1.4-.311-1.448,1.263-1.98,1.286-3.275.042-.619-.594-.965.085-1.393.244-.6.222-.158.6.021.848a3.65,3.65,0,0,0,2.97,1.548m3.5-6.041a.847.847,0,0,0-.767-.914.8.8,0,0,0-.956.8.788.788,0,0,0,.749.9.846.846,0,0,0,.974-.782m-6.1.807a.847.847,0,0,0,.859-.822.8.8,0,0,0-.856-.9.786.786,0,0,0-.849.8c-.029.56.317.846.846.923" transform="translate(-31.277 -71.906)" fill="#ebccb0"/>
        <path id="Trazado_718248" data-name="Trazado 718248" d="M39.085,191.805c2.03,0,4.06.023,6.089-.014.611-.011.8.159.785.778q-.06,2.716,0,5.434c.014.619-.174.782-.784.779q-6.2-.039-12.4,0c-.61,0-.8-.158-.785-.778q.06-2.716,0-5.434c-.014-.619.173-.789.784-.779,2.1.036,4.2.014,6.306.014" transform="translate(-25.022 -149.999)" fill="#cbd0d8"/>
        <path id="Trazado_718249" data-name="Trazado 718249" d="M30.885,72.056l-1.526.025c-.195-.809-.625-.839-1.263-.431a4.264,4.264,0,0,0-1.939,2.4c-.26.912-1.057.742-1.58.765-.562.025-.463-.694-.475-1.132a5.868,5.868,0,0,1,5.781-5.971c2.211-.044,4.423-.019,6.635-.008a10.343,10.343,0,0,0,4.735-1.016c.737-.368.922-.125,1.055.55a4.044,4.044,0,0,1-.7,3.091c-.528.811-1.066,1.615-1.69,2.56h1.868c-.3,1.5-.665,1.809-2.018,1.778-.362-.008-.724-.011-1.086-.016a3.071,3.071,0,0,0-3-2.571c-.421-.8-.869-.1-1.306-.024l-2.177.022c-.422-.79-.87-.108-1.307-.022" transform="translate(-18.848 -52.022)" fill="#646c76"/>
        <path id="Trazado_718250" data-name="Trazado 718250" d="M20.288,175.266q-3.212,0-6.425,0c-1.725,0-2.3.566-2.308,2.253,0,.472-.02.944,0,1.415.047.925.153,1.806-1.3,1.584-.764-.117-.378.6-.436.949-.062.373-.121.882.535.759,1.162-.217,1.329.4,1.2,1.334a6.326,6.326,0,0,0-.006.87c0,1.448-.194,1.583-1.489.935a3.409,3.409,0,0,1-1.994-3.237,9.46,9.46,0,0,1,6.331-8.778,4.987,4.987,0,0,1,3.763-.15,5.967,5.967,0,0,0,4.477-.074,3.9,3.9,0,0,1,2.72-.02,9.4,9.4,0,0,1,7.033,8c.369,2.266-.678,4.015-2.594,4.513-.57.148-.907.123-.83-.6a6.981,6.981,0,0,0,0-1.305c-.076-.931-.107-1.732,1.265-1.5.782.131.429-.574.467-.922s.18-.927-.5-.786c-1.317.274-1.282-.529-1.232-1.417.032-.579.012-1.161.005-1.741-.018-1.43-.637-2.069-2.047-2.077-2.214-.012-4.428,0-6.643,0" transform="translate(-6.312 -135.203)" fill="#f7d36e"/>
        <path id="Trazado_718251" data-name="Trazado 718251" d="M134.271,95.877c1.738,0,3.476.028,5.213-.014.647-.016.8.205.738.809a44.948,44.948,0,0,1-.755,5.366c-.134.6-.327.83-.978.821-2.9-.038-5.793-.029-8.689-.005-.56,0-.8-.132-.939-.726a43.149,43.149,0,0,1-.777-5.471c-.059-.621.134-.805.757-.792,1.809.038,3.62.014,5.43.014" transform="translate(-100.167 -74.973)" fill="#68d4f2"/>
        <path id="Trazado_718252" data-name="Trazado 718252" d="M134.143,62.9c-1.742,0-3.485-.018-5.226.01-.565.009-.867-.069-.8-.752a42.114,42.114,0,0,1,.8-5.592c.116-.491.306-.643.792-.64q4.464.026,8.928,0c.464,0,.694.1.814.614a40.685,40.685,0,0,1,.8,5.7c.048.549-.159.673-.665.667-1.814-.024-3.629-.009-5.444-.009" transform="translate(-100.192 -43.737)" fill="#68d4f2"/>
        <path id="Trazado_718253" data-name="Trazado 718253" d="M187.775,102.873a36.638,36.638,0,0,0,.877-6.426c.019-.431.178-.546.585-.545q4.682.019,9.364,0c.463,0,.533.2.491.594a19.768,19.768,0,0,1-1.5,5.873.69.69,0,0,1-.713.513c-3.008-.018-6.017-.01-9.106-.01" transform="translate(-146.858 -75.005)" fill="#68d4f2"/>
        <path id="Trazado_718254" data-name="Trazado 718254" d="M194.121,62.9c-1.487,0-2.975-.026-4.461.013-.573.015-.72-.169-.748-.727a28.388,28.388,0,0,0-.74-5.592c-.144-.57.034-.671.558-.667,2.756.019,5.513.015,8.269,0,.395,0,.671.056.85.471a20.3,20.3,0,0,1,1.509,5.977c.065.617-.319.52-.667.521q-2.285.005-4.57,0" transform="translate(-147.132 -43.736)" fill="#68d4f2"/>
        <path id="Trazado_718255" data-name="Trazado 718255" d="M166.2,9.067c4.7.119,10.783,4,13.24,8.475-2.082,0-4.089,0-6.1,0-.942,0-2.077.287-2.767-.137-.616-.379-.715-1.568-1.084-2.381-.463-1.02-.926-2.046-1.468-3.026s-1.178-1.9-1.825-2.929" transform="translate(-129.988 -7.091)" fill="#67d3f0"/>
        <path id="Trazado_718256" data-name="Trazado 718256" d="M98.714,9.131A24.85,24.85,0,0,0,94.96,16.21a1.7,1.7,0,0,1-2.031,1.416c-2.455-.112-4.918-.034-7.385-.034,1.185-3.691,8.513-8.427,13.171-8.461" transform="translate(-66.903 -7.141)" fill="#67d3f0"/>
        <path id="Trazado_718257" data-name="Trazado 718257" d="M135.149,18.713a25.217,25.217,0,0,1,4.1-7.708c.452-.582.65-.277.946.1a25.159,25.159,0,0,1,4.05,7.61Z" transform="translate(-105.7 -8.353)" fill="#67d3f0"/>
        <path id="Trazado_718258" data-name="Trazado 718258" d="M38.857,233.5c-2.026,0-4.054-.038-6.078.02-.75.021-.791-.3-.795-.891s.064-.892.8-.885q6.187.059,12.374,0c.747-.007.791.3.794.891s-.062.9-.8.885c-2.1-.055-4.2-.019-6.3-.019" transform="translate(-25.014 -181.242)" fill="#a9b1bc"/>
        <path id="Trazado_718259" data-name="Trazado 718259" d="M108.666,102.885a3.489,3.489,0,0,0-.241-3.771c-.223-.3-.126-.5.031-.765a16.9,16.9,0,0,0,1.065-2c.218-.524.6-.431.977-.429.558,0,.349.45.37.72a33.739,33.739,0,0,0,.764,5.563c.131.524.045.714-.523.687-.781-.037-1.566-.009-2.443-.009" transform="translate(-84.696 -75.015)" fill="#68d2f0"/>
        <path id="Trazado_718260" data-name="Trazado 718260" d="M111.086,62.549a6.1,6.1,0,0,0-.174-6.726c.112-.1.158-.177.2-.177.828,0,1.918-.317,2.415.09.542.445-.125,1.484-.2,2.272a29.825,29.825,0,0,0-.344,3.44c.025,1.083-.443,1.273-1.328,1.141-.141-.021-.286-.021-.573-.04" transform="translate(-86.744 -43.428)" fill="#68d2f0"/>
        <path id="Trazado_718261" data-name="Trazado 718261" d="M83.726,55.959a9.615,9.615,0,0,1-6.361,1.709c.43-1.709.43-1.709,2.009-1.709h4.352" transform="translate(-60.507 -43.765)" fill="#68d2f0"/>
        <path id="Trazado_718262" data-name="Trazado 718262" d="M55.476,159.59a6.835,6.835,0,0,0,1.4-.018c.7-.15.739.322.885.763.194.584-.222.669-.6.773a6.663,6.663,0,0,1-3.522,0c-.4-.106-.786-.232-.568-.793.146-.375.111-.866.793-.745a9.365,9.365,0,0,0,1.617.019v.007" transform="translate(-41.455 -124.779)" fill="#e5c6ab"/>
        <path id="Trazado_718263" data-name="Trazado 718263" d="M95.97,111.832a1.775,1.775,0,0,1,1.724,1.551,1.637,1.637,0,0,1-.966,1.762c-.478.253-.8.3-.767-.429.039-.931.009-1.864.009-2.885" transform="translate(-75.049 -87.464)" fill="#e5c6ab"/>
        <path id="Trazado_718264" data-name="Trazado 718264" d="M25.8,113.851a3.623,3.623,0,0,1-.007.646c-.059.324.238.8-.19.946-.382.13-.748-.18-1.033-.461a1.719,1.719,0,0,1,.5-2.793c.558-.271.789-.17.738.477-.031.393-.006.79-.006,1.186" transform="translate(-18.812 -87.632)" fill="#e5c6ab"/>
        <path id="Trazado_718265" data-name="Trazado 718265" d="M140.259,143.83a9.251,9.251,0,0,1,6.15,2.321c.313.273.78.536.182.988-.406.306-.6.944-1.37.323-3.174-2.558-6.637-2.545-9.892.028-.8.633-.976-.1-1.363-.39-.628-.475-.036-.733.244-.976a9.222,9.222,0,0,1,6.049-2.294" transform="translate(-104.557 -112.489)" fill="#030708"/>
        <path id="Trazado_718266" data-name="Trazado 718266" d="M145.106,162.006a5.071,5.071,0,0,1,7.748-.62c.21.213.732.489.179.809-.407.236-.6,1.092-1.4.457-1.765-1.411-3.1-1.411-4.784-.054-1,.807-1.107-.511-1.746-.592" transform="translate(-113.487 -125.034)" fill="#030708"/>
        <path id="Trazado_718267" data-name="Trazado 718267" d="M154.2,215.612a3.134,3.134,0,0,1,.543,0c.676.12,1.542-.372,2.006.27.5.694-.072,3.518-.686,4.126a2.45,2.45,0,0,1-2.684.672,2.519,2.519,0,0,1-1.79-2.24c-.314-2.832-.3-2.833,2.61-2.833" transform="translate(-118.451 -168.58)" fill="#ddb08a"/>
        <path id="Trazado_718268" data-name="Trazado 718268" d="M183.889,224.658c.006-.472-.184-1.041.681-.94.571.067,1.021.244,1.031.847.012.746-.527.879-1.173.921-.769.051-.534-.446-.539-.829" transform="translate(-143.796 -174.961)" fill="#f6f8f9"/>
        <path id="Trazado_718269" data-name="Trazado 718269" d="M161.814,184.71c-.076.6-.358.947-.917.928a.786.786,0,0,1-.816-.835.8.8,0,0,1,.888-.871.876.876,0,0,1,.845.778" transform="translate(-125.199 -143.853)" fill="#df6b7c"/>
        <path id="Trazado_718270" data-name="Trazado 718270" d="M52.141,133.594a3.65,3.65,0,0,1-2.97-1.548c-.179-.248-.62-.626-.021-.848.428-.159.774-.838,1.393-.244,1.3,1.244,1.827,1.22,3.275-.042.6-.524.969.142,1.4.311.5.194.116.55-.049.783a3.64,3.64,0,0,1-3.03,1.589" transform="translate(-38.203 -102.231)" fill="#070707"/>
        <path id="Trazado_718271" data-name="Trazado 718271" d="M69.855,90.662c.437-.081.885-.773,1.306.024.268.426.5.876.81,1.271.406.523.563.866-.159,1.339-.686.449-.974.29-1.3-.332a5.261,5.261,0,0,0-.78-1.169c-.44-.468-.27-.794.123-1.132" transform="translate(-54.333 -70.628)" fill="#070707"/>
        <path id="Trazado_718272" data-name="Trazado 718272" d="M53.862,90.666c.437-.086.885-.768,1.307.022.267.426.5.877.808,1.273.4.523.564.865-.159,1.339-.687.45-.975.289-1.3-.332a5.276,5.276,0,0,0-.781-1.169c-.441-.469-.268-.794.125-1.132" transform="translate(-41.824 -70.632)" fill="#070707"/>
        <path id="Trazado_718273" data-name="Trazado 718273" d="M73.828,112.9a.846.846,0,0,1-.974.782.789.789,0,0,1-.749-.9.8.8,0,0,1,.956-.8.846.846,0,0,1,.767.913" transform="translate(-56.39 -87.581)" fill="#070707"/>
        <path id="Trazado_718274" data-name="Trazado 718274" d="M48.971,113.721c-.53-.077-.875-.363-.846-.923a.786.786,0,0,1,.849-.8.8.8,0,0,1,.856.9.847.847,0,0,1-.859.822" transform="translate(-37.637 -87.592)" fill="#070707"/>
      </g>
    </g>
  </g>
</svg>
