<svg xmlns="http://www.w3.org/2000/svg" xmlns:xlink="http://www.w3.org/1999/xlink" width="116.999" height="115" viewBox="0 0 116.999 115">
  <defs>
    <clipPath id="clip-path">
      <rect id="Rect치ngulo_350169" data-name="Rect치ngulo 350169" width="62.834" height="62.701" fill="none"/>
    </clipPath>
  </defs>
  <g id="Grupo_1018023" data-name="Grupo 1018023" transform="translate(-1162 -1721.564)">
    <g id="Grupo_1016362" data-name="Grupo 1016362" transform="translate(736.563 -5776.906)">
      <g id="Grupo_1015374" data-name="Grupo 1015374" transform="translate(425.927 7498.205)">
        <g id="Grupo_1015448" data-name="Grupo 1015448" transform="translate(0 0)">
          <g id="Grupo_1014855" data-name="Grupo 1014855" transform="translate(0 0)">
            <path id="Uni칩n_12" data-name="Uni칩n 12" d="M58.5,0C90.809,0,117,25.744,117,57.5S90.809,115,58.5,115,0,89.256,0,57.5,26.192,0,58.5,0Z" transform="translate(-0.49 0.265)" fill="#81c539"/>
            <path id="Trazado_608322" data-name="Trazado 608322" d="M49,0C76.062,0,98,22.162,98,49.5S76.062,99,49,99,0,76.838,0,49.5,21.938,0,49,0Z" transform="translate(9.51 7.265)" fill="#fff"/>
          </g>
        </g>
      </g>
    </g>
    <g id="Grupo_1017399" data-name="Grupo 1017399" transform="translate(1188.583 1743.01)">
      <g id="Grupo_1017398" data-name="Grupo 1017398" clip-path="url(#clip-path)">
        <path id="Trazado_718144" data-name="Trazado 718144" d="M23.587,44.467a12.119,12.119,0,0,1-3.306-8.644A11.928,11.928,0,0,1,27.307,25a4.569,4.569,0,0,0,.9-.433c.554-.46,1.032-.923.025-1.5a7.436,7.436,0,0,1-3.432-4.2.888.888,0,0,0-1-.689c-1.9-.048-2.874-.7-3.328-2.115-.443-1.386-.084-2.365,1.452-3.525.443-.334.391-.691.387-1.089a14.005,14.005,0,0,1,.425-4.124A10.143,10.143,0,0,1,31.752.017a10.041,10.041,0,0,1,9.953,6.139c.369.893.629,1.211,1.482.513A2.319,2.319,0,0,1,44.473,6.2c3.058-.139,6.154-.551,9.14.415,5.334,1.725,8.1,7.21,6.712,13.137a14.507,14.507,0,0,1-1.817,4.537c-.343.539-.411.9.118,1.38a4.508,4.508,0,0,1,1.029,1.42c.963,2.083,1.433,4.335,2.718,6.344.99,1.549.268,3.371-1.042,4.712a2.107,2.107,0,0,0-.711,1.964,9.267,9.267,0,0,1-1.22,6.077,5.311,5.311,0,0,0-.3,4.692,7.457,7.457,0,0,0,1.358,2.542c2.081,2.559,2.394,5.56,2.264,8.7-.035.838-.609.533-.985.535-4.125.019-8.251.012-12.376.012-1.305,0-2.614-.058-3.914.021-.823.05-.934-.252-.953-.99a23.27,23.27,0,0,1,1.408-8.97c-.127-.09-.155-.127-.186-.129C42.5,52.34,42.5,52.34,42.5,55.524c0,2.1-.027,4.21.016,6.314.013.665-.182.84-.84.837q-8.272-.038-16.543,0c-.657,0-.85-.17-.841-.836.037-2.778-.016-5.557.036-8.334.014-.781-.188-.973-.969-.972-3.091,0-3.091-.03-3.091,3,0,2.1-.028,4.21.016,6.314.014.676-.2.834-.847.83-4.841-.026-9.682-.037-14.523.008-.832.008-.831-.362-.829-.976.018-4.378,0-8.756.016-13.133a3.339,3.339,0,0,0-.446-1.779,11.459,11.459,0,0,1,3.441-15.3c1.608-1.133,1.562-2.381-.2-3.17-2.464-1.1-4.438-2.561-4.828-5.479-.045-.335-.365-.64-.576-.946A8.427,8.427,0,0,1,2.655,10.972a3.894,3.894,0,0,0,.865-1.2,6.139,6.139,0,0,1,5.7-3.691c2.061-.053,4.128-.072,6.187.011A4.771,4.771,0,0,1,19.83,9.131a4.758,4.758,0,0,1-.757,5.2,4.388,4.388,0,0,0-.011,5.276c1.782,2.094,1.709,2.889-.512,4.523-.419.308-.316.659-.3,1,.1,1.8-.156,3.418-1.777,4.581-.56.4-.334,3.589.2,4.139A11.946,11.946,0,0,1,20.235,43.1c-.057,1.2.338,1.532,1.442,1.384a16.275,16.275,0,0,1,1.91-.012M50.122,32.644c1.72-.727,2.719-1.775,2.53-3.893-.216-2.421-.034-4.876-.059-7.316-.008-.769-.06-1.422,1.064-1.253.5.076.844-.336.941-.843.079-.414-.142-.956-.453-.929-1.832.157-1.45-1.308-1.761-2.269a2.529,2.529,0,0,0-.792-1.118c-.185-.161-.4-.35-.624-.055-.949,1.23-2.287,1.291-3.66,1.2-.6-.042-.822.151-.778.767A5.2,5.2,0,0,1,44.9,21.26c-.2.192-.482.4-.276.745a.613.613,0,0,0,.675.224c.9-.118,1.442.1,1.25,1.172-.111.619.13.914.746.535,1.059-.652,1.413.4,1.71.89.326.537-.517.673-.879.948a3.781,3.781,0,0,1-.574.25c-.338.173-.937-.031-.982.553a1.55,1.55,0,0,0,.67,1.3c.873.72,1.8.585,2.941-.635.646-.69.95-.385,1.483.086.633.56.473.887-.046,1.393-.42.409-1.108.667-1.043,1.461a3.941,3.941,0,0,1-.686,2.256c-.069.115-.355.169-.169.349.117.113.317.052.4-.141M31.37,8.094a4.031,4.031,0,0,0,.662.54c.714.37.917.706.389,1.51-.552.841-.96.671-1.547.179-.224-.188-.515-.3-.724-.5-.534-.514-.924-.3-1.513.028a4.04,4.04,0,0,0-2.329,4.626,20.906,20.906,0,0,1,.038,2.14,6.112,6.112,0,0,0,5.411,5.593,6.044,6.044,0,0,0,6.433-4.359,12.08,12.08,0,0,0,.1-5.866c-.31-1.292-2.177-1.542-3.278-2.36a1.207,1.207,0,0,0-.324-.191c-.792-.26-.755-.73-.344-1.3.321-.36.432-1.115,1.209-.547,1.618,1.181,3.687,1.728,4.873,3.651a8.058,8.058,0,1,0-16.01-.56c.356-.307.784-.694,1.233-1.056a14.063,14.063,0,0,0,1.494-1.16c1.322-1.4,2.687-1.774,4.229-.365M17.724,50.531h3.65c2.981,0,2.945,0,2.954-3.032,0-.853-.264-1.038-1.063-1.026-2.863.044-5.727.052-8.59,0A6.621,6.621,0,0,1,8.149,40.2a2.743,2.743,0,0,0-.3-1.463c-.717-1.027.287-1.416.784-1.753.6-.407.752.413.989.777a3.682,3.682,0,0,1,.522,1.671c.353,3.575,1.926,5.034,5.429,5.037,2.99,0,2.981,0,2.628-3.042A1.891,1.891,0,0,0,16.844,39.6a19.054,19.054,0,0,1-7.929-5.655c-.593-.7-.972-.673-1.586-.092a9.223,9.223,0,0,0-2.915,9.507,9.137,9.137,0,0,0,7.13,6.918c2.157.525,4.365.122,6.181.249M37.179,27.485a25.849,25.849,0,0,1-1.486,5.159,26.525,26.525,0,0,1-2.567,4.474c-.564.825-.847.878-1.465.019A21.492,21.492,0,0,1,27.77,28.2c-.1-.548-.053-1.222-1.009-.612-4.747,3.03-5.966,10.281-2.431,14.582.384.467.65.559,1.084.116a4.328,4.328,0,0,1,.888-.7c.7-.413.616-.8.15-1.389a10.656,10.656,0,0,1-2.082-5.075c-.127-.784.155-1.655-.315-2.349-.721-1.062.2-1.544.767-1.859.673-.376.786.52,1.032.927a4.017,4.017,0,0,1,.48,2.063,8.7,8.7,0,0,0,2.087,5.553c.753.906,1.528,1.794,2.3,2.688a2.859,2.859,0,0,1,.84,2.54c-.218.9.345.626.621.452a4.835,4.835,0,0,1,3.153-.655c.867.084,1.143-.172,1.125-1.083-.06-3.114-.016-6.229-.028-9.344a4.929,4.929,0,0,1,.449-2.2c.632-1.317,1.008-1.348,1.892-.221a.642.642,0,0,1,.045.886,2.541,2.541,0,0,0-.365,1.445c.009,3.2.039,6.4-.019,9.6-.015.862.336.933,1.031.929s1.052-.053,1.036-.924c-.059-3.2.024-6.4-.043-9.6a8.428,8.428,0,0,0-3.276-6.484M44.427,16.08a3.293,3.293,0,0,1-3.454,2.1c-.651-.064-.837.262-1.031.8a7.8,7.8,0,0,1-2.965,3.823c-1.349.94-1.318,1.336.152,2.21A10.11,10.11,0,0,1,42.295,32.4c.473,3.091.136,6.217.191,9.326.048,2.741.01,2.759,2.7,2.724.441-.006,1.131.337,1.3-.281a1.728,1.728,0,0,0-.328-1.764,5.813,5.813,0,0,1-1.387-2.651A7.094,7.094,0,0,1,46.756,32.7c.662-.686,1.605-1.2,1.771-2.306-2.848-.443-4.03-1.8-4-4.615a1.912,1.912,0,0,0-1.057-2.1,2.185,2.185,0,0,1-.3-3.5,4.279,4.279,0,0,0,1.254-4.108M8.134,26.562c0-1.211-.035-2.262.012-3.309A1.693,1.693,0,0,0,7.368,21.6a2.916,2.916,0,0,1,.012-4.834c.349-.275.724-.422.792-1.009A3.332,3.332,0,0,1,11.215,12.7a1.581,1.581,0,0,0,1.328-.937,2.97,2.97,0,0,1,2.884-1.672c.587,0,.9.168.786.779-.092.477.4,1.285-.671,1.261-.842-.019-1.5.321-1.263,1.254.23.9,1.015.855,1.762.629a3.061,3.061,0,0,0,2.188-3.161A3.027,3.027,0,0,0,15.277,8.1c-1.975-.052-3.953-.034-5.929-.01A4.259,4.259,0,0,0,5.2,11a2.433,2.433,0,0,1-.735,1.122A6.327,6.327,0,0,0,3.588,21.3c.208.257.494.457.5.841.042,2.56,1.792,3.588,4.045,4.422M56.747,49.721A11.886,11.886,0,0,1,48.8,52.55a.766.766,0,0,0-.843.559,19.116,19.116,0,0,0-1.423,6.747c-.017.6.151.8.768.793q6.313-.036,12.627,0c.618,0,.785-.2.77-.792a8.238,8.238,0,0,0-1.662-4.934,11.274,11.274,0,0,1-2.287-5.2m-50.631.02c0,3.605.018,6.916-.014,10.227-.007.736.41.671.885.67,3.448,0,6.9-.02,10.345.013.7.007.943-.172.922-.9-.05-1.765-.016-3.532-.016-5.3,0-1.9,0-1.952-1.915-1.884-3.6.129-7.077-.12-10.208-2.826m36.026.788c2.357,0,4.715.03,7.071-.008a9.331,9.331,0,0,0,7.425-3.672c1.066-1.326,1.054-1.336-.375-2.152-.62-.354-1.262-.675-1.853-1.073-.525-.354-.8-.258-1.189.248a6.639,6.639,0,0,1-5.6,2.624c-4.251-.026-8.5-.012-12.754,0-1.573,0-2.5.784-2.473,2.054.023,1.218.932,1.974,2.423,1.981,2.441.01,4.883,0,7.324,0M48.2,8.18c0-.03,0-.059,0-.089-.925,0-1.851-.037-2.774.008a2.947,2.947,0,0,0-2.891,3.032,2.954,2.954,0,0,0,2.915,3.01c.881.041,1.765-.005,2.648.014.742.016,1.42-.123,1.437-1.008.015-.8-.575-1.071-1.295-1.01-.559.047-.693-.168-.709-.707-.038-1.321.148-1.527,1.477-1.291a3.057,3.057,0,0,1,2.306,1.766c.127.26.2.676.4.75,2.249.835,2.4,3.537,4.262,4.738a2.109,2.109,0,0,1,.66,1.96,2.925,2.925,0,0,1-1.528,2.46c-.92.524-.324,1.355-.474,2.03-.071.32.17.382.46.42A1.452,1.452,0,0,0,56.71,23.4a15.452,15.452,0,0,0,1.611-3.947C59.668,13.872,56.837,9.088,51.6,8.207A20.739,20.739,0,0,0,48.2,8.18m10.034,35.3a9.413,9.413,0,0,0-3.949-10.514c-.536-.325-.813-.148-1.188.155a14.842,14.842,0,0,1-4.851,2.617c-1.539.494-1.8.881-1.7,2.5a3.768,3.768,0,0,0,.734,2.245,4.1,4.1,0,0,1,1.236,3.856,4.49,4.49,0,0,0,4.065-4.255,5.657,5.657,0,0,1,.476-2.2c.622-1.274,1.042-1.29,1.906-.174.329.426.059.661-.052,1.006-.3.928-.831,2.055-.024,2.781a18.7,18.7,0,0,0,3.346,1.98M14.111,31.844c.251-.993.159-1.627-.963-1.769a3.6,3.6,0,0,1-1.863-1.23c-.529-.5-.916-.841-.162-1.574.7-.681,1.067-.484,1.576.109a3.038,3.038,0,0,0,.878.7,1.772,1.772,0,0,0,2.495-.954c.536-1.29-.709-.867-1.16-1.2-.166-.123-.4-.163-.552-.3-.278-.24-1-.368-.6-.857.358-.432.616-1.332,1.532-.927a1.2,1.2,0,0,0,.974.177c-.335-1.232-.052-1.942,1.5-1.859.772.041.382-.614.044-.944A5.1,5.1,0,0,1,16.233,17c.059-.756-.221-.911-.916-.847a2.518,2.518,0,0,1-2.327-1.023,1.226,1.226,0,0,0-1.417-.452c-1.331.224-1.487,1.149-1.425,2.255.039.688.206,1.478-1.007,1.292a.876.876,0,0,0-.981.929.9.9,0,0,0,1,1.033c1.034-.112,1.012.443,1,1.187-.031,2.734-.015,5.469-.009,8.2,0,.436-.139.908.583,1.02a12.276,12.276,0,0,1,3.37,1.248M32.386,56.3c0-1.26.042-2.521-.016-3.778-.033-.727-.6-1.478-1.226-1.024a5.835,5.835,0,0,1-4.034,1.048c-.594-.038-.8.158-.794.772q.047,3.275,0,6.55c-.009.614.2.792.795.776,1.3-.036,2.608-.077,3.9.01,1.047.071,1.542-.145,1.4-1.333a25.587,25.587,0,0,1-.026-3.02m8.086.343c0-1.093-.023-2.187.009-3.28.016-.561-.1-.841-.749-.823-1.513.042-3.028.037-4.542,0-.6-.014-.8.178-.789.784.031,2.186.022,4.374,0,6.56,0,.5.095.769.684.757,1.555-.033,3.112-.03,4.668,0,.546.01.741-.166.723-.719-.034-1.092-.01-2.187-.01-3.28M59.857,36.681c1.144-1.465,1.1-2.629-.148-3.873a2.911,2.911,0,0,1-1.092-2.249,5.264,5.264,0,0,0-1.923-3.966,1.821,1.821,0,0,0-1.791-.257c-.537.138-.245.783-.267,1.2-.044.839.016,1.684-.024,2.524a1.116,1.116,0,0,0,.588,1.13,11.832,11.832,0,0,1,4.657,5.494M26.306,48.529c.329.686-.786,2.181,1.251,2.032,1.831-.134,2.776-.686,2.806-2.006s-.95-1.932-2.715-2.1c-1.949-.186-1.176,1.157-1.343,2.074M10.825,32.861a13.379,13.379,0,0,0,5.593,4.176,8.189,8.189,0,0,0-5.593-4.176M32.54,28.4l-.3,0c-.206,1.436-.419,2.871-.616,4.309-.093.682.306,1.588.7,1.561.625-.044.911-.864.826-1.564-.175-1.438-.4-2.87-.608-4.3m1.413-4.186c-.812,0-1.655,0-2.5,0-.26,0-.62-.178-.626.316-.006.456,1.156,1.744,1.564,1.743a2.949,2.949,0,0,0,1.561-2.06M26.429,44.25a3.011,3.011,0,0,0,1.869.2c.414-.015,1.014.426,1.222-.125.19-.5-.387-.868-.678-1.269-.31-.427-.626-.511-1.022-.108-.429.436-1.038.687-1.391,1.306M24.283,15.161c-.134-.3.418-1.069-.623-1.023-.731.032-1.293.259-1.292,1.038,0,.7.509.947,1.194,1.013.805.078.785-.379.72-1.029m16.19-.039c.019.552-.178,1.162.745,1.067.594-.061,1.245-.223,1.184-.8a1.444,1.444,0,0,0-1.333-1.23c-.931-.1-.472.632-.6.967M35.131,26.636A1.42,1.42,0,0,0,34.82,28.8a5.019,5.019,0,0,0,.311-2.166m-5.508.027a5.379,5.379,0,0,0,.328,2.119c.546-1.154.546-1.154-.328-2.119" transform="translate(0 0)" fill="#040303"/>
        <path id="Trazado_718145" data-name="Trazado 718145" d="M29.766,149.319c-1.816-.127-4.024.276-6.181-.249a9.523,9.523,0,0,1-4.214-16.425c.613-.581.993-.612,1.586.092a19.056,19.056,0,0,0,7.929,5.655,1.891,1.891,0,0,1,1.356,1.822c.353,3.046.362,3.045-2.628,3.042-3.5,0-5.077-1.462-5.429-5.037a3.681,3.681,0,0,0-.522-1.67c-.238-.364-.387-1.184-.989-.777-.5.336-1.5.726-.784,1.752a2.743,2.743,0,0,1,.3,1.463,6.622,6.622,0,0,0,6.525,6.279c2.863.047,5.727.04,8.59,0,.8-.012,1.066.173,1.063,1.026-.009,3.032.027,3.032-2.954,3.032Z" transform="translate(-12.042 -98.788)" fill="#b1da7d"/>
        <path id="Trazado_718146" data-name="Trazado 718146" d="M103.068,108.333a8.428,8.428,0,0,1,3.275,6.484c.067,3.2-.016,6.4.043,9.6.016.871-.351.92-1.036.924s-1.046-.067-1.031-.929c.057-3.2.028-6.4.018-9.6a2.543,2.543,0,0,1,.365-1.444.642.642,0,0,0-.045-.886c-.884-1.127-1.26-1.1-1.892.221a4.933,4.933,0,0,0-.449,2.2c.012,3.115-.032,6.231.028,9.344.018.911-.259,1.167-1.125,1.083a4.836,4.836,0,0,0-3.153.655c-.276.174-.838.449-.621-.452a2.859,2.859,0,0,0-.84-2.54c-.767-.894-1.542-1.782-2.3-2.688a8.7,8.7,0,0,1-2.087-5.553,4.019,4.019,0,0,0-.48-2.063c-.246-.407-.359-1.3-1.032-.927-.566.315-1.488.8-.767,1.859.471.694.189,1.566.315,2.349a10.657,10.657,0,0,0,2.082,5.075c.466.584.554.976-.15,1.389a4.328,4.328,0,0,0-.887.7c-.435.444-.7.352-1.084-.116-3.536-4.3-2.316-11.552,2.43-14.582.956-.61.914.063,1.009.612a21.492,21.492,0,0,0,3.891,8.933c.618.859.9.806,1.465-.019a26.525,26.525,0,0,0,2.567-4.474,25.878,25.878,0,0,0,1.486-5.159" transform="translate(-65.888 -80.848)" fill="#72aded"/>
        <path id="Trazado_718147" data-name="Trazado 718147" d="M111.851,32.054c-.411.573-.448,1.043.344,1.3a1.2,1.2,0,0,1,.324.191c1.1.818,2.968,1.069,3.278,2.361a12.076,12.076,0,0,1-.1,5.866,6.043,6.043,0,0,1-6.433,4.359,6.112,6.112,0,0,1-5.411-5.593,20.988,20.988,0,0,0-.038-2.14,4.04,4.04,0,0,1,2.329-4.626c.589-.325.979-.542,1.513-.028.208.2.5.313.723.5.588.492,1,.662,1.548-.179.528-.8.325-1.14-.389-1.509a4.042,4.042,0,0,1-.662-.541l2.973.036m-1.919,12.08a3.049,3.049,0,0,0,2.728-2.235c.116-.647-.45-.625-.769-.783s-.724-.691-1.041-.065c-.618,1.22-1.182,1.519-1.86.052-.3-.642-.714-.194-1.023-.01-.335.2-.992.129-.8.868a3,3,0,0,0,2.77,2.173m-2.051-7.186c-.138-.477-.414-.888-1.011-.872a.929.929,0,0,0-.99,1.047.911.911,0,0,0,.982.93c.645-.006.962-.416,1.019-1.1m5.06,1.128c.575-.086.963-.387.976-.969a.925.925,0,0,0-1.008-1.029.91.91,0,0,0-.967.945c-.021.648.382.973,1,1.053" transform="translate(-77.508 -23.924)" fill="#ecccb1"/>
        <path id="Trazado_718148" data-name="Trazado 718148" d="M14.1,50.422c-2.254-.834-4-1.862-4.045-4.422-.006-.384-.293-.584-.5-.841a6.327,6.327,0,0,1,.873-9.177,2.432,2.432,0,0,0,.734-1.122,4.259,4.259,0,0,1,4.153-2.906c1.976-.024,3.954-.042,5.929.01a3.027,3.027,0,0,1,2.95,2.751A3.061,3.061,0,0,1,22,37.876c-.747.226-1.532.275-1.762-.629-.238-.933.42-1.273,1.263-1.254,1.075.024.579-.783.671-1.261.118-.611-.2-.775-.786-.779A2.97,2.97,0,0,0,18.5,35.626a1.582,1.582,0,0,1-1.328.937,3.332,3.332,0,0,0-3.043,3.048c-.067.587-.442.735-.792,1.009a2.916,2.916,0,0,0-.012,4.834,1.694,1.694,0,0,1,.778,1.658c-.047,1.047-.012,2.1-.012,3.309" transform="translate(-5.961 -23.859)" fill="#af7745"/>
        <path id="Trazado_718149" data-name="Trazado 718149" d="M194.284,196.691a11.274,11.274,0,0,0,2.287,5.2,8.238,8.238,0,0,1,1.662,4.934c.015.6-.152.8-.77.792q-6.313-.036-12.627,0c-.617,0-.786-.2-.768-.793a19.116,19.116,0,0,1,1.423-6.747.766.766,0,0,1,.843-.559,11.888,11.888,0,0,0,7.95-2.828" transform="translate(-137.537 -146.969)" fill="#fc806d"/>
        <path id="Trazado_718150" data-name="Trazado 718150" d="M24.156,196.769c3.131,2.707,6.61,2.956,10.208,2.826,1.912-.069,1.915-.012,1.914,1.884,0,1.766-.034,3.534.016,5.3.021.729-.224.908-.922.9-3.448-.033-6.9-.017-10.345-.012-.476,0-.893.066-.885-.67.032-3.311.014-6.622.014-10.227" transform="translate(-18.039 -147.028)" fill="#b3dc7e"/>
        <path id="Trazado_718151" data-name="Trazado 718151" d="M137.9,178.859c-2.441,0-4.883.008-7.324,0-1.491-.006-2.4-.762-2.423-1.981-.024-1.271.9-2.052,2.473-2.054,4.251-.007,8.5-.021,12.754,0a6.638,6.638,0,0,0,5.6-2.624c.391-.506.664-.6,1.189-.248.591.4,1.233.719,1.853,1.073,1.429.816,1.441.826.375,2.152a9.332,9.332,0,0,1-7.425,3.672c-2.357.037-4.714.008-7.071.008" transform="translate(-95.756 -128.328)" fill="#edcdb2"/>
        <path id="Trazado_718152" data-name="Trazado 718152" d="M173.934,32.056a20.74,20.74,0,0,1,3.395.027c5.241.881,8.072,5.665,6.724,11.247a15.455,15.455,0,0,1-1.611,3.947,1.452,1.452,0,0,1-1.614.865c-.29-.038-.531-.1-.46-.42.15-.676-.446-1.506.474-2.03a2.925,2.925,0,0,0,1.528-2.46,2.11,2.11,0,0,0-.66-1.96c-1.863-1.2-2.013-3.9-4.262-4.738-.2-.074-.273-.491-.4-.75a3.057,3.057,0,0,0-2.306-1.766c-1.328-.236-1.514-.03-1.477,1.291.015.539.149.754.709.707.719-.061,1.31.214,1.295,1.01-.017.885-.695,1.024-1.437,1.008-.882-.019-1.767.027-2.648-.014a3.024,3.024,0,0,1-.024-6.043c.922-.044,1.849-.008,2.774-.008,0,.03,0,.059,0,.089" transform="translate(-125.732 -23.875)" fill="#f6d26d"/>
        <path id="Trazado_718153" data-name="Trazado 718153" d="M195.769,140.423a18.682,18.682,0,0,1-3.346-1.98c-.807-.726-.274-1.853.024-2.781.111-.345.382-.58.052-1.006-.864-1.116-1.284-1.1-1.906.174a5.652,5.652,0,0,0-.475,2.2,4.49,4.49,0,0,1-4.065,4.256,4.1,4.1,0,0,0-1.235-3.856,3.765,3.765,0,0,1-.734-2.245c-.1-1.619.159-2.006,1.7-2.5a14.841,14.841,0,0,0,4.851-2.616c.375-.3.652-.481,1.188-.155a9.413,9.413,0,0,1,3.949,10.514" transform="translate(-137.534 -96.939)" fill="#f97f6b"/>
        <path id="Trazado_718154" data-name="Trazado 718154" d="M38.229,75.081a12.277,12.277,0,0,0-3.37-1.248c-.721-.112-.582-.584-.582-1.02-.006-2.734-.022-5.469.009-8.2.008-.744.031-1.3-1-1.187a.9.9,0,0,1-1-1.033.876.876,0,0,1,.981-.929c1.213.186,1.046-.6,1.007-1.292-.062-1.106.093-2.031,1.425-2.255a1.226,1.226,0,0,1,1.417.452,2.517,2.517,0,0,0,2.326,1.023c.7-.064.976.091.916.847a5.1,5.1,0,0,0,1.585,4.219c.338.331.729.986-.044.944-1.555-.083-1.839.626-1.5,1.859a1.194,1.194,0,0,1-.974-.177c-.916-.4-1.174.5-1.532.927-.4.489.318.617.6.857.154.133.386.173.552.3.452.334,1.7-.089,1.161,1.2a1.772,1.772,0,0,1-2.495.954,3.034,3.034,0,0,1-.878-.7c-.51-.593-.875-.79-1.576-.109-.755.733-.368,1.077.161,1.574a3.6,3.6,0,0,0,1.863,1.23c1.122.143,1.213.776.963,1.769M37.32,61.432a.979.979,0,0,0-1,.944.925.925,0,0,0,.983,1.052.912.912,0,0,0,.989-.921c.039-.647-.36-.981-.971-1.074" transform="translate(-24.117 -43.236)" fill="#ebcbb0"/>
        <path id="Trazado_718155" data-name="Trazado 718155" d="M181.568,76.222a3.941,3.941,0,0,0,.686-2.256c-.065-.794.623-1.052,1.043-1.461.519-.506.68-.834.046-1.393-.533-.471-.837-.776-1.483-.086-1.143,1.22-2.068,1.355-2.941.635a1.549,1.549,0,0,1-.67-1.3c.045-.584.644-.38.982-.553a3.793,3.793,0,0,0,.574-.25c.362-.275,1.2-.411.879-.948-.3-.488-.651-1.543-1.71-.89-.616.38-.858.085-.746-.535.192-1.07-.345-1.29-1.25-1.172a.613.613,0,0,1-.675-.224c-.207-.348.075-.553.276-.745a5.2,5.2,0,0,0,1.632-4.329c-.044-.617.176-.809.778-.767,1.372.1,2.711.035,3.66-1.2.228-.3.44-.106.625.055a2.529,2.529,0,0,1,.792,1.118c.311.961-.071,2.425,1.761,2.269.311-.027.532.515.453.929-.1.507-.437.919-.94.843-1.125-.168-1.073.484-1.064,1.253.026,2.44-.156,4.895.059,7.316.189,2.118-.81,3.166-2.53,3.893l-.234-.208m.7-13.33a1.018,1.018,0,0,0-.986-.89.927.927,0,0,0-1.019,1.017.91.91,0,0,0,.952.958c.647.016.969-.391,1.053-1.085" transform="translate(-131.68 -43.786)" fill="#ebcbb0"/>
        <path id="Trazado_718156" data-name="Trazado 718156" d="M106.4,14.114l-2.973-.036c-1.542-1.409-2.907-1.037-4.229.365A14.063,14.063,0,0,1,97.7,15.6c-.449.361-.877.749-1.233,1.056a8.058,8.058,0,1,1,16.01.56c-1.186-1.922-3.255-2.47-4.873-3.651-.778-.568-.888.187-1.209.547" transform="translate(-72.057 -5.984)" fill="#636b75"/>
        <path id="Trazado_718157" data-name="Trazado 718157" d="M110.174,208.123a25.479,25.479,0,0,0,.025,3.02c.144,1.188-.351,1.4-1.4,1.334-1.3-.087-2.6-.046-3.9-.01-.592.016-.8-.162-.795-.776q.047-3.274,0-6.55c-.009-.614.2-.811.794-.772a5.832,5.832,0,0,0,4.034-1.048c.624-.453,1.193.3,1.226,1.024.058,1.257.016,2.519.017,3.778" transform="translate(-77.787 -151.82)" fill="#959ea9"/>
        <path id="Trazado_718158" data-name="Trazado 718158" d="M142.158,211.952c0,1.094-.024,2.188.01,3.28.017.553-.177.73-.724.719-1.556-.029-3.113-.032-4.668,0-.589.012-.688-.253-.684-.757.018-2.187.026-4.374,0-6.56-.008-.606.187-.8.789-.784,1.513.035,3.029.04,4.541,0,.651-.018.766.262.75.823-.032,1.093-.01,2.187-.01,3.28" transform="translate(-101.685 -155.306)" fill="#959ea9"/>
        <path id="Trazado_718159" data-name="Trazado 718159" d="M221.177,114.179a11.83,11.83,0,0,0-4.657-5.494,1.117,1.117,0,0,1-.588-1.13c.04-.84-.02-1.684.024-2.524.022-.415-.27-1.06.267-1.2a1.821,1.821,0,0,1,1.791.257,5.264,5.264,0,0,1,1.923,3.966,2.912,2.912,0,0,0,1.092,2.249c1.244,1.245,1.292,2.408.148,3.873" transform="translate(-161.319 -77.498)" fill="#f6d26d"/>
        <path id="Trazado_718160" data-name="Trazado 718160" d="M104.013,185.79c.167-.917-.607-2.26,1.343-2.074,1.764.168,2.746.774,2.715,2.1s-.976,1.872-2.806,2.006c-2.037.149-.923-1.346-1.251-2.032" transform="translate(-77.707 -137.262)" fill="#ebcbb0"/>
        <path id="Trazado_718161" data-name="Trazado 718161" d="M42.824,129.995a8.189,8.189,0,0,1,5.593,4.176,13.379,13.379,0,0,1-5.593-4.176" transform="translate(-31.999 -97.133)" fill="#95c561"/>
        <path id="Trazado_718162" data-name="Trazado 718162" d="M125.978,112.356c.206,1.435.434,2.866.608,4.3.085.7-.2,1.519-.826,1.564-.392.028-.79-.879-.7-1.561.2-1.437.409-2.873.616-4.309l.3,0" transform="translate(-93.438 -83.952)" fill="#ebcbb0"/>
        <path id="Trazado_718163" data-name="Trazado 718163" d="M125.076,95.711a2.949,2.949,0,0,1-1.561,2.06c-.408,0-1.569-1.287-1.564-1.743.006-.495.366-.316.626-.316.844,0,1.687,0,2.5,0" transform="translate(-91.123 -71.493)" fill="#ebcbb0"/>
        <path id="Trazado_718164" data-name="Trazado 718164" d="M104.552,170.415c.353-.619.962-.87,1.391-1.306.4-.4.712-.319,1.022.108.29.4.868.766.678,1.269-.208.551-.808.11-1.222.125a3.007,3.007,0,0,1-1.869-.2" transform="translate(-78.122 -126.165)" fill="#ebcbb0"/>
        <path id="Trazado_718165" data-name="Trazado 718165" d="M90.4,56.947c.065.65.085,1.107-.72,1.029-.685-.066-1.193-.317-1.194-1.013,0-.779.561-1.006,1.292-1.038,1.04-.046.488.728.622,1.023" transform="translate(-66.119 -41.786)" fill="#ebcbb0"/>
        <path id="Trazado_718166" data-name="Trazado 718166" d="M160.085,56.937c.124-.335-.335-1.065.6-.967a1.444,1.444,0,0,1,1.333,1.231c.061.581-.59.743-1.184.8-.923.094-.726-.516-.745-1.067" transform="translate(-119.612 -41.815)" fill="#ecccb1"/>
        <path id="Trazado_718167" data-name="Trazado 718167" d="M136.958,105.369a5.016,5.016,0,0,1-.311,2.166,1.42,1.42,0,0,1,.311-2.166" transform="translate(-101.826 -78.733)" fill="#af7745"/>
        <path id="Trazado_718168" data-name="Trazado 718168" d="M117.119,105.475c.874.965.874.965.328,2.119a5.379,5.379,0,0,1-.328-2.119" transform="translate(-87.496 -78.812)" fill="#af7745"/>
        <path id="Trazado_718169" data-name="Trazado 718169" d="M196.9,128.521c-.086.193-.286.254-.4.141-.186-.18.1-.233.169-.349l.234.208" transform="translate(-146.779 -95.877)" fill="#ebcbb0"/>
        <path id="Trazado_718170" data-name="Trazado 718170" d="M119.98,69.96a3,3,0,0,1-2.77-2.173c-.188-.739.469-.668.8-.868.308-.185.726-.632,1.023.01.678,1.466,1.242,1.168,1.86-.052.317-.625.732-.088,1.041.065s.886.137.769.783a3.049,3.049,0,0,1-2.728,2.235" transform="translate(-87.556 -49.75)" fill="#040303"/>
        <path id="Trazado_718171" data-name="Trazado 718171" d="M114.23,48.941c-.057.688-.374,1.1-1.019,1.1a.911.911,0,0,1-.982-.93.928.928,0,0,1,.99-1.047,1.008,1.008,0,0,1,1.011.872" transform="translate(-83.858 -35.918)" fill="#040303"/>
        <path id="Trazado_718172" data-name="Trazado 718172" d="M137.213,50.078c-.616-.079-1.02-.4-1-1.053a.91.91,0,0,1,.967-.945.925.925,0,0,1,1.008,1.029c-.013.582-.4.883-.976.969" transform="translate(-101.78 -35.926)" fill="#040303"/>
        <path id="Trazado_718173" data-name="Trazado 718173" d="M49.265,71.978c.611.093,1.01.427.971,1.074a.912.912,0,0,1-.989.921.925.925,0,0,1-.983-1.052.979.979,0,0,1,1-.944" transform="translate(-36.062 -53.783)" fill="#040303"/>
        <path id="Trazado_718174" data-name="Trazado 718174" d="M194.2,72.951c-.084.694-.406,1.1-1.053,1.085a.91.91,0,0,1-.952-.958.927.927,0,0,1,1.019-1.017,1.018,1.018,0,0,1,.986.89" transform="translate(-143.607 -53.845)" fill="#040303"/>
      </g>
    </g>
  </g>
</svg>
