<svg xmlns="http://www.w3.org/2000/svg" width="505" height="264.429" viewBox="0 0 505 264.429">
  <g id="agropecuario" transform="translate(-0.394 -0.996)">
    <path id="Trazado_721001" data-name="Trazado 721001" d="M127.446,128.1s2.84-7.944,9.632-7.06c0,0,9.861-13.241,20.374-1.766,0,0,11.177-2.844,19.455,2.462,5.517,3.537,7.341,7.248,7.341,7.248Z" transform="translate(-1.696 -1.516)" fill="#f8fcff" opacity="0.5"/>
    <path id="Trazado_721002" data-name="Trazado 721002" d="M85.769,99.946s3.44-9.626,11.668-8.556c0,0,11.945-16.042,24.684-2.138,0,0,13.542-3.446,23.568,2.983,6.688,4.285,8.895,8.78,8.895,8.78l-68.817-1.07Z" transform="translate(-1.139 -1.102)" fill="#f8fcff" opacity="0.5"/>
    <path id="Trazado_721003" data-name="Trazado 721003" d="M202.612,91.6A16.1,16.1,0,0,1,218.1,84.112s15.858-14.047,32.77-1.873c0,0,17.976-3.016,31.29,2.611,8.875,3.752,11.808,7.689,11.808,7.689L202.612,91.6Z" transform="translate(-2.699 -1.018)" fill="#f8fcff" opacity="0.5"/>
    <path id="Trazado_721004" data-name="Trazado 721004" d="M475.9,243.5c-.326,1.389-.693,2.814-1.1,4.241-.368,1.429-.856,2.936-1.385,4.445-.246.732-.531,1.468-.774,2.2-.857,2.326-1.833,4.729-3.018,7.216-.369.816-.734,1.671-1.143,2.488-.1.255-.222.511-.344.766-.073.152-.153.3-.227.455H419.426l-14.189-.037H278.193l-17.951-.021h-.055l-18.913-.023h-98l-40.854-.039H28.541s-.024-.068-.076-.2c-.014-.04-.03-.085-.049-.137-.061-.159-.14-.372-.242-.645l-.04-.08v-.04a.15.15,0,0,1-.04-.083,11.255,11.255,0,0,1-.448-1.141c-.083-.206-.163-.451-.286-.695v-.083l-.04-.04c-.561-1.454-1.254-3.35-2.055-5.639-.071-.208-.145-.417-.222-.629-.6-1.73-1.26-3.667-1.963-5.8-1.671-5.177-3.589-11.5-5.463-18.632-.734-2.814-1.468-5.749-2.163-8.808-.409-1.766-.819-3.605-1.212-5.461-.114-.544-.225-1.089-.338-1.633-.72-3.477-1.4-7.059-2.01-10.72-.805-4.806-1.5-9.748-2.024-14.763q-.392-3.694-.658-7.437c-.005-.064-.01-.131-.014-.2s-.01-.133-.016-.2c-.241-3.512-.393-7.05-.438-10.584q-.055-4.267.106-8.53c.08-1.916.2-3.833.326-5.75.326-4.077.814-8.155,1.508-12.109.448-2.691,1.018-5.383,1.671-7.993a90.756,90.756,0,0,1,6.6-18.306c1.02-2,2.079-3.954,3.262-5.872,2.649-4.363,5.34-8.441,8.074-12.272h.04c1.427-2.038,2.853-3.955,4.28-5.792A151.619,151.619,0,0,1,50.844,76.895c67.068-62.748,143.966-2.2,191.549-44.318C288.913-8.563,375.963-9.174,414.9,28.785c.734.734,1.509,1.468,2.243,2.284A63.245,63.245,0,0,1,431.294,54.5a67.368,67.368,0,0,1,3.361,22.582c-.014.859-.039,1.728-.083,2.6a86.674,86.674,0,0,1-1.365,11.582q-.727,3.963-1.839,8.1a134.765,134.765,0,0,1-7.663,20.795q-.49,1.039-.98,2.08c-10.64,22.261-1.875,35.594,11.54,47.785,8.275,7.544,18.267,14.638,26.583,23.118,1.1,1.142,2.161,2.282,3.22,3.467.408.471.805.941,1.2,1.42,1.112,1.342,2.18,2.711,3.2,4.124q.775,1.1,1.5,2.232a49.948,49.948,0,0,1,3.759,7.037,45.856,45.856,0,0,1,1.931,5.359,45.224,45.224,0,0,1,1.5,7.431,56.724,56.724,0,0,1-1.27,19.286Z" transform="translate(-0.111 0)" fill="#d9f9f8"/>
    <path id="Trazado_721005" data-name="Trazado 721005" d="M350.232,267.683H202.856l-61.438-.04H30.312s-.064-.111-.19-.333c-.09-.16-.21-.373-.365-.646l-.061-.08v-.039s-.061-.043-.061-.083a9.473,9.473,0,0,1-.674-1.142,6.985,6.985,0,0,0-.431-.694v-.084l-.061-.039c-.841-1.454-1.885-3.351-3.091-5.64-.109-.207-.218-.417-.331-.629-.6-1.73-1.261-3.667-1.964-5.8-1.671-5.177-3.589-11.5-5.463-18.632-.734-2.813-1.468-5.748-2.163-8.808-.409-1.766-.819-3.605-1.212-5.461-.114-.544-.225-1.089-.338-1.633-.72-3.476-1.4-7.059-2.01-10.719-1.2-7.167-2.149-14.633-2.682-22.2,47.722,2.459,139.713,8.932,208.909,24.387,97.638,21.806,121.766,25.328,163.127,29.239C404.4,240.795,377.988,255.317,350.232,267.683Z" transform="translate(-0.118 -2.456)" fill="#ffcf83"/>
    <path id="Trazado_721006" data-name="Trazado 721006" d="M270.076,172.252l-3.46,67.672h3.46l1.558-67.672Z" transform="translate(-3.553 -2.286)" fill="#adc8fe"/>
    <path id="Trazado_721007" data-name="Trazado 721007" d="M270.4,165.847l.879,4.166,15.743-18.682Z" transform="translate(-3.604 -2.007)" fill="#adc8fe"/>
    <path id="Trazado_721008" data-name="Trazado 721008" d="M276.078,171.109l-4.246-.317,13.556,20.325Z" transform="translate(-3.623 -2.266)" fill="#adc8fe"/>
    <path id="Trazado_721009" data-name="Trazado 721009" d="M267.037,174.433l2.466-3.473-24.4,1.106Z" transform="translate(-3.266 -2.269)" fill="#adc8fe"/>
    <path id="Trazado_721010" data-name="Trazado 721010" d="M271.513,172.523a1.9,1.9,0,1,0-2.485-1.03A1.9,1.9,0,0,0,271.513,172.523Z" transform="translate(-3.584 -2.241)" fill="#adc8fe"/>
    <path id="Trazado_721011" data-name="Trazado 721011" d="M257.19,230.625s-126.3-34.632-166.12-38.121-1.674,4.665-1.674,4.665,108.089,28.435,133.375,40.16S257.19,230.625,257.19,230.625Z" transform="translate(-0.968 -2.544)" fill="#f7c274"/>
    <path id="Trazado_721012" data-name="Trazado 721012" d="M218.461,258.27s-109.207-52.4-144.869-62.233-2.3,3.913-2.3,3.913,93.66,43.759,114.727,58.558S218.461,258.27,218.461,258.27Z" transform="translate(-0.757 -2.556)" fill="#f7c274"/>
    <path id="Trazado_721013" data-name="Trazado 721013" d="M180.293,185.094l-2.831,55.391h2.831l1.274-55.391Z" transform="translate(-2.363 -2.457)" fill="#adc8fe"/>
    <path id="Trazado_721014" data-name="Trazado 721014" d="M180.559,179.849l.718,3.411,12.886-15.292Z" transform="translate(-2.405 -2.229)" fill="#adc8fe"/>
    <path id="Trazado_721015" data-name="Trazado 721015" d="M185.2,184.158l-3.475-.259,11.1,16.636Z" transform="translate(-2.42 -2.441)" fill="#adc8fe"/>
    <path id="Trazado_721016" data-name="Trazado 721016" d="M177.805,186.879l2.019-2.843-19.978.906Z" transform="translate(-2.128 -2.443)" fill="#adc8fe"/>
    <path id="Trazado_721017" data-name="Trazado 721017" d="M179.315,183.878a1.558,1.558,0,1,1,1.558,1.558A1.559,1.559,0,0,1,179.315,183.878Z" transform="translate(-2.388 -2.42)" fill="#adc8fe"/>
    <path id="Trazado_721018" data-name="Trazado 721018" d="M477.24,226.871q-.389,5.064-1.269,10.544c-.014.083-.027.163-.043.248-.316,1.868-.667,3.783-1.058,5.7-.369,2-.857,4.115-1.385,6.232-.246,1.027-.532,2.057-.775,3.083-.856,3.261-1.833,6.628-3.017,10.117-.369,1.143-.735,2.342-1.144,3.489-.1.357-.221.717-.344,1.073H28.491c-.061-.223-.14-.523-.242-.9l-.04-.114v-.055a.251.251,0,0,1-.04-.115c-.163-.456-.286-.974-.448-1.6-.083-.287-.163-.632-.286-.973v-.116l-.04-.055c-.561-2.039-1.254-4.7-2.055-7.9-.66-2.644-1.4-5.656-2.185-9.014-1.671-7.257-3.589-16.115-5.463-26.118-.734-3.944-1.468-8.058-2.163-12.345-.409-2.475-.819-5.053-1.212-7.654C54.624,215.7,158.28,250.106,232.306,230.865c13.3-3.456,27.98-6.551,43.382-9.319q5.159-.929,10.426-1.808c39.931-6.682,83.588-11.311,120.17-14.5h.009l1.264-.11,1.236-.108c.5-.041,1-.086,1.5-.129,1.035-.087,2.064-.177,3.089-.261l.4-.034c.786-.067,1.567-.131,2.346-.2q4.311-.361,8.457-.693l1.854-.147,2.033-.163c.91-.071,1.81-.14,2.7-.211l1.651-.126q1.467-.114,2.907-.224l1.412-.107c.643-.049,1.285-.1,1.921-.146.052,0,.1-.009.156-.01l3.093-.233.971-.07a.187.187,0,0,0,.041-.006l.025,0c8.25-.611,15.659-1.129,22-1.568,1.112,1.342,2.181,2.711,3.2,4.124q.777,1.1,1.5,2.232a50.051,50.051,0,0,1,3.758,7.037,45.864,45.864,0,0,1,1.931,5.359,45.23,45.23,0,0,1,1.5,7.431Z" transform="translate(-0.186 -2.661)" fill="#82b378"/>
    <path id="Trazado_721019" data-name="Trazado 721019" d="M288.966,220c-10.45,5.875-32.978,20.912-46.821,47.617-.1.185-.194.372-.291.558l-10.524-.558-3.291-.176c.317-.891,15-23.146,50.5-45.634q5.159-.929,10.426-1.808Z" transform="translate(-3.038 -2.923)" fill="#6e9e63"/>
    <path id="Trazado_721020" data-name="Trazado 721020" d="M250.408,267.437c.334-.938,17.407-26.907,59.583-50.406l3.319,2.6s-32.442,14.256-49.847,48.508Z" transform="translate(-3.337 -2.883)" fill="#6e9e63"/>
    <path id="Trazado_721021" data-name="Trazado 721021" d="M281.312,267.437c.334-.938,17.407-26.907,59.583-50.406l3.319,2.6s-32.441,14.256-49.847,48.508Z" transform="translate(-3.749 -2.883)" fill="#6e9e63"/>
    <path id="Trazado_721022" data-name="Trazado 721022" d="M447.536,202.283s-59.095,6.012-96,44.029l-23.282-6.674c.642-.938,25.921-20.633,82.216-34.381h.009C423.975,204.082,436.508,203.1,447.536,202.283Z" transform="translate(-4.376 -2.687)" fill="#6e9e63"/>
    <path id="Trazado_721023" data-name="Trazado 721023" d="M478.183,214.17c-26.545,6.41-69.042,21.1-100.818,53.272H357.021l-14.95-4.327c.949-1.466,41.465-35.365,132.355-55.982a50.264,50.264,0,0,1,3.759,7.037Z" transform="translate(-4.56 -2.751)" fill="#6e9e63"/>
    <path id="Trazado_721024" data-name="Trazado 721024" d="M265.178,267.4l.3-.077c-.121-.543-.424-11.436,2.995-17.789l-.276-.149c-3.462,6.438-3.137,17.567-3.021,18.014Z" transform="translate(-3.533 -3.315)" fill="#6e9e63"/>
    <path id="Trazado_721025" data-name="Trazado 721025" d="M269.109,243.621s1.074,2.256.42,3.267S268.332,245.013,269.109,243.621Z" transform="translate(-3.581 -3.238)" fill="#ffcf83"/>
    <path id="Trazado_721026" data-name="Trazado 721026" d="M269.786,253.224s-1.076-2.257-.421-3.269S270.562,251.83,269.786,253.224Z" transform="translate(-3.587 -3.32)" fill="#ffcf83"/>
    <path id="Trazado_721027" data-name="Trazado 721027" d="M266.931,244.319s1.994,1.509,1.879,2.708S266.884,245.914,266.931,244.319Z" transform="translate(-3.557 -3.248)" fill="#ffcf83"/>
    <path id="Trazado_721028" data-name="Trazado 721028" d="M271.953,252.532s-2-1.509-1.879-2.708S272,250.936,271.953,252.532Z" transform="translate(-3.599 -3.317)" fill="#ffcf83"/>
    <path id="Trazado_721029" data-name="Trazado 721029" d="M265.334,245.964s2.462.438,2.9,1.56S266.016,247.4,265.334,245.964Z" transform="translate(-3.536 -3.27)" fill="#ffcf83"/>
    <path id="Trazado_721030" data-name="Trazado 721030" d="M273.536,251s-2.462-.438-2.9-1.56S272.854,249.56,273.536,251Z" transform="translate(-3.606 -3.31)" fill="#ffcf83"/>
    <path id="Trazado_721031" data-name="Trazado 721031" d="M264.816,249.959s1.972-1.537,3.1-1.115S266.345,250.417,264.816,249.959Z" transform="translate(-3.529 -3.307)" fill="#ffcf83"/>
    <path id="Trazado_721032" data-name="Trazado 721032" d="M274.233,248.036s-2.206,1.175-3.246.566S272.806,247.323,274.233,248.036Z" transform="translate(-3.609 -3.293)" fill="#ffcf83"/>
    <path id="Trazado_721033" data-name="Trazado 721033" d="M265.918,251.686s1.225-2.18,2.429-2.225S267.5,251.518,265.918,251.686Z" transform="translate(-3.544 -3.316)" fill="#ffcf83"/>
    <path id="Trazado_721034" data-name="Trazado 721034" d="M273.379,245.6s-1.226,2.179-2.431,2.225S271.793,245.772,273.379,245.6Z" transform="translate(-3.606 -3.265)" fill="#ffcf83"/>
    <path id="Trazado_721035" data-name="Trazado 721035" d="M267.554,252.976s.161-2.494,1.225-3.058S268.91,252.138,267.554,252.976Z" transform="translate(-3.566 -3.321)" fill="#ffcf83"/>
    <path id="Trazado_721036" data-name="Trazado 721036" d="M271.642,244.261s-.161,2.5-1.225,3.059S270.286,245.1,271.642,244.261Z" transform="translate(-3.598 -3.247)" fill="#ffcf83"/>
    <path id="Trazado_721037" data-name="Trazado 721037" d="M264.688,248.337s2.335-.891,3.291-.157S266.016,249.222,264.688,248.337Z" transform="translate(-3.528 -3.295)" fill="#ffcf83"/>
    <path id="Trazado_721038" data-name="Trazado 721038" d="M271.171,248.472a1.74,1.74,0,1,0-1.74,1.74A1.741,1.741,0,0,0,271.171,248.472Z" transform="translate(-3.568 -3.28)" fill="#00aca7"/>
    <path id="Trazado_721039" data-name="Trazado 721039" d="M265.786,257.453a6.034,6.034,0,0,1,3.6-1.645,15.989,15.989,0,0,1,2.731,0,6.122,6.122,0,0,1-2.817,1.645A12.9,12.9,0,0,1,265.786,257.453Z" transform="translate(-3.542 -3.4)" fill="#6e9e63"/>
    <path id="Trazado_721040" data-name="Trazado 721040" d="M266.038,255.917c-.264-.23-.463-2.107-2.081-2.578a15.464,15.464,0,0,0-2.768-.56s1.4,2.44,2.424,2.805a8.061,8.061,0,0,0,2.424.332Z" transform="translate(-3.481 -3.361)" fill="#6e9e63"/>
    <path id="Trazado_721041" data-name="Trazado 721041" d="M256.886,267.356l.357-.092c-.144-.636-.5-13.458,3.521-20.935l-.326-.175c-4.076,7.576-3.693,20.673-3.554,21.2Z" transform="translate(-3.422 -3.272)" fill="#6e9e63"/>
    <path id="Trazado_721042" data-name="Trazado 721042" d="M261.513,239.372s1.265,2.656.494,3.846S260.6,241.012,261.513,239.372Z" transform="translate(-3.479 -3.182)" fill="#ffcf83"/>
    <path id="Trazado_721043" data-name="Trazado 721043" d="M262.309,250.675s-1.266-2.656-.5-3.846S263.222,249.035,262.309,250.675Z" transform="translate(-3.486 -3.278)" fill="#ffcf83"/>
    <path id="Trazado_721044" data-name="Trazado 721044" d="M258.949,240.194s2.348,1.774,2.211,3.186S258.9,242.069,258.949,240.194Z" transform="translate(-3.451 -3.193)" fill="#ffcf83"/>
    <path id="Trazado_721045" data-name="Trazado 721045" d="M264.86,249.859s-2.346-1.775-2.211-3.186S264.913,247.983,264.86,249.859Z" transform="translate(-3.5 -3.274)" fill="#ffcf83"/>
    <path id="Trazado_721046" data-name="Trazado 721046" d="M257.068,242.131s2.9.516,3.417,1.835S257.871,243.826,257.068,242.131Z" transform="translate(-3.426 -3.218)" fill="#ffcf83"/>
    <path id="Trazado_721047" data-name="Trazado 721047" d="M266.722,248.057s-2.9-.516-3.416-1.835S265.919,246.362,266.722,248.057Z" transform="translate(-3.508 -3.266)" fill="#ffcf83"/>
    <path id="Trazado_721048" data-name="Trazado 721048" d="M256.461,246.831s2.321-1.81,3.648-1.312S258.259,247.368,256.461,246.831Z" transform="translate(-3.418 -3.263)" fill="#ffcf83"/>
    <path id="Trazado_721049" data-name="Trazado 721049" d="M267.544,244.569s-2.6,1.383-3.819.666S265.866,243.73,267.544,244.569Z" transform="translate(-3.511 -3.246)" fill="#ffcf83"/>
    <path id="Trazado_721050" data-name="Trazado 721050" d="M257.758,248.865s1.442-2.564,2.86-2.619S259.625,248.667,257.758,248.865Z" transform="translate(-3.435 -3.273)" fill="#ffcf83"/>
    <path id="Trazado_721051" data-name="Trazado 721051" d="M266.539,241.706s-1.442,2.564-2.86,2.619S264.672,241.9,266.539,241.706Z" transform="translate(-3.508 -3.213)" fill="#ffcf83"/>
    <path id="Trazado_721052" data-name="Trazado 721052" d="M259.683,250.382s.188-2.937,1.443-3.6S261.279,249.394,259.683,250.382Z" transform="translate(-3.461 -3.279)" fill="#ffcf83"/>
    <path id="Trazado_721053" data-name="Trazado 721053" d="M264.494,240.125s-.188,2.936-1.442,3.6S262.9,241.112,264.494,240.125Z" transform="translate(-3.498 -3.192)" fill="#ffcf83"/>
    <path id="Trazado_721054" data-name="Trazado 721054" d="M256.31,244.923s2.75-1.049,3.874-.186S257.872,245.962,256.31,244.923Z" transform="translate(-3.416 -3.249)" fill="#ffcf83"/>
    <path id="Trazado_721055" data-name="Trazado 721055" d="M263.94,245.083a2.048,2.048,0,1,0-2.048,2.048A2.049,2.049,0,0,0,263.94,245.083Z" transform="translate(-3.463 -3.231)" fill="#00aca7"/>
    <path id="Trazado_721056" data-name="Trazado 721056" d="M257.021,260.89a7.111,7.111,0,0,1,4.239-1.936,18.767,18.767,0,0,1,3.214,0,7.187,7.187,0,0,1-3.316,1.936,15.188,15.188,0,0,1-4.138,0Z" transform="translate(-3.425 -3.442)" fill="#6e9e63"/>
    <path id="Trazado_721057" data-name="Trazado 721057" d="M257.318,259.084c-.312-.27-.546-2.481-2.451-3.033a18.106,18.106,0,0,0-3.257-.66s1.651,2.871,2.854,3.3A9.468,9.468,0,0,0,257.318,259.084Z" transform="translate(-3.353 -3.395)" fill="#6e9e63"/>
    <path id="Trazado_721058" data-name="Trazado 721058" d="M266.889,267.471l.215-.055c-.087-.383-.3-8.075,2.114-12.561l-.194-.106c-2.445,4.545-2.216,12.4-2.133,12.721Z" transform="translate(-3.556 -3.387)" fill="#6e9e63"/>
    <path id="Trazado_721059" data-name="Trazado 721059" d="M269.666,250.681s.76,1.592.3,2.308S269.118,251.666,269.666,250.681Z" transform="translate(-3.59 -3.333)" fill="#ffcf83"/>
    <path id="Trazado_721060" data-name="Trazado 721060" d="M270.143,257.462s-.76-1.592-.3-2.308S270.692,256.478,270.143,257.462Z" transform="translate(-3.594 -3.39)" fill="#ffcf83"/>
    <path id="Trazado_721061" data-name="Trazado 721061" d="M268.127,251.174s1.408,1.065,1.327,1.911S268.094,252.3,268.127,251.174Z" transform="translate(-3.573 -3.339)" fill="#ffcf83"/>
    <path id="Trazado_721062" data-name="Trazado 721062" d="M271.674,256.973s-1.408-1.065-1.327-1.911S271.707,255.847,271.674,256.973Z" transform="translate(-3.603 -3.388)" fill="#ffcf83"/>
    <path id="Trazado_721063" data-name="Trazado 721063" d="M267,252.336s1.738.31,2.05,1.1S267.482,253.354,267,252.336Z" transform="translate(-3.558 -3.355)" fill="#ffcf83"/>
    <path id="Trazado_721064" data-name="Trazado 721064" d="M272.792,255.891s-1.738-.31-2.05-1.1S272.308,254.873,272.792,255.891Z" transform="translate(-3.608 -3.383)" fill="#ffcf83"/>
    <path id="Trazado_721065" data-name="Trazado 721065" d="M266.634,255.157s1.392-1.085,2.188-.787S267.712,255.478,266.634,255.157Z" transform="translate(-3.554 -3.381)" fill="#ffcf83"/>
    <path id="Trazado_721066" data-name="Trazado 721066" d="M273.284,253.8s-1.559.831-2.293.4S272.275,253.3,273.284,253.8Z" transform="translate(-3.61 -3.371)" fill="#ffcf83"/>
    <path id="Trazado_721067" data-name="Trazado 721067" d="M267.411,256.375s.866-1.539,1.716-1.572S268.532,256.255,267.411,256.375Z" transform="translate(-3.564 -3.388)" fill="#ffcf83"/>
    <path id="Trazado_721068" data-name="Trazado 721068" d="M272.681,252.081s-.866,1.539-1.716,1.573S271.56,252.2,272.681,252.081Z" transform="translate(-3.608 -3.351)" fill="#ffcf83"/>
    <path id="Trazado_721069" data-name="Trazado 721069" d="M268.566,257.286s.114-1.761.866-2.159S269.524,256.694,268.566,257.286Z" transform="translate(-3.579 -3.391)" fill="#ffcf83"/>
    <path id="Trazado_721070" data-name="Trazado 721070" d="M271.454,251.132s-.113,1.76-.865,2.159S270.5,251.724,271.454,251.132Z" transform="translate(-3.602 -3.339)" fill="#ffcf83"/>
    <path id="Trazado_721071" data-name="Trazado 721071" d="M266.543,254.011s1.65-.63,2.324-.111S267.479,254.636,266.543,254.011Z" transform="translate(-3.552 -3.373)" fill="#ffcf83"/>
    <path id="Trazado_721072" data-name="Trazado 721072" d="M271.122,254.107a1.229,1.229,0,1,0-1.229,1.229A1.23,1.23,0,0,0,271.122,254.107Z" transform="translate(-3.581 -3.362)" fill="#00aca7"/>
    <path id="Trazado_721073" data-name="Trazado 721073" d="M266.971,263.591a4.265,4.265,0,0,1,2.544-1.161,11.094,11.094,0,0,1,1.927,0,4.316,4.316,0,0,1-1.989,1.161,9.081,9.081,0,0,1-2.483,0Z" transform="translate(-3.558 -3.489)" fill="#6e9e63"/>
    <path id="Trazado_721074" data-name="Trazado 721074" d="M267.148,262.509c-.187-.163-.328-1.49-1.47-1.82a11.016,11.016,0,0,0-1.955-.4s.99,1.723,1.712,1.981A5.725,5.725,0,0,0,267.148,262.509Z" transform="translate(-3.515 -3.461)" fill="#6e9e63"/>
    <path id="Trazado_721075" data-name="Trazado 721075" d="M278.952,267.356l.357-.092c-.144-.636-.5-13.458,3.523-20.935l-.326-.175c-4.076,7.576-3.693,20.673-3.555,21.2Z" transform="translate(-3.717 -3.272)" fill="#6e9e63"/>
    <path id="Trazado_721076" data-name="Trazado 721076" d="M283.578,239.372s1.266,2.656.5,3.846S282.666,241.012,283.578,239.372Z" transform="translate(-3.774 -3.182)" fill="#ffcf83"/>
    <path id="Trazado_721077" data-name="Trazado 721077" d="M284.375,250.675s-1.266-2.656-.5-3.846S285.287,249.035,284.375,250.675Z" transform="translate(-3.78 -3.278)" fill="#ffcf83"/>
    <path id="Trazado_721078" data-name="Trazado 721078" d="M281.015,240.194s2.346,1.774,2.211,3.186S280.962,242.069,281.015,240.194Z" transform="translate(-3.745 -3.193)" fill="#ffcf83"/>
    <path id="Trazado_721079" data-name="Trazado 721079" d="M286.924,249.859s-2.346-1.775-2.211-3.186S286.977,247.983,286.924,249.859Z" transform="translate(-3.795 -3.274)" fill="#ffcf83"/>
    <path id="Trazado_721080" data-name="Trazado 721080" d="M279.134,242.131s2.9.516,3.416,1.835S279.937,243.826,279.134,242.131Z" transform="translate(-3.72 -3.218)" fill="#ffcf83"/>
    <path id="Trazado_721081" data-name="Trazado 721081" d="M288.788,248.057s-2.9-.516-3.416-1.835S287.985,246.362,288.788,248.057Z" transform="translate(-3.803 -3.266)" fill="#ffcf83"/>
    <path id="Trazado_721082" data-name="Trazado 721082" d="M278.525,246.831s2.321-1.81,3.649-1.312S280.323,247.368,278.525,246.831Z" transform="translate(-3.712 -3.263)" fill="#ffcf83"/>
    <path id="Trazado_721083" data-name="Trazado 721083" d="M289.608,244.569s-2.6,1.383-3.819.666S287.929,243.73,289.608,244.569Z" transform="translate(-3.806 -3.246)" fill="#ffcf83"/>
    <path id="Trazado_721084" data-name="Trazado 721084" d="M279.822,248.865s1.443-2.564,2.86-2.619S281.689,248.667,279.822,248.865Z" transform="translate(-3.73 -3.273)" fill="#ffcf83"/>
    <path id="Trazado_721085" data-name="Trazado 721085" d="M288.6,241.706s-1.443,2.564-2.86,2.619S286.736,241.9,288.6,241.706Z" transform="translate(-3.803 -3.213)" fill="#ffcf83"/>
    <path id="Trazado_721086" data-name="Trazado 721086" d="M281.747,250.382s.188-2.937,1.443-3.6S283.341,249.394,281.747,250.382Z" transform="translate(-3.755 -3.279)" fill="#ffcf83"/>
    <path id="Trazado_721087" data-name="Trazado 721087" d="M286.56,240.125s-.19,2.936-1.442,3.6S284.966,241.112,286.56,240.125Z" transform="translate(-3.793 -3.192)" fill="#ffcf83"/>
    <path id="Trazado_721088" data-name="Trazado 721088" d="M278.374,244.923s2.75-1.049,3.874-.186S279.936,245.962,278.374,244.923Z" transform="translate(-3.71 -3.249)" fill="#ffcf83"/>
    <path id="Trazado_721089" data-name="Trazado 721089" d="M283.957,247.132a2.048,2.048,0,1,0-2.049-2.048A2.049,2.049,0,0,0,283.957,247.132Z" transform="translate(-3.757 -3.231)" fill="#00aca7"/>
    <path id="Trazado_721090" data-name="Trazado 721090" d="M279.668,255.65a7.106,7.106,0,0,1,4.238-1.936,18.772,18.772,0,0,1,3.214,0,7.181,7.181,0,0,1-3.315,1.936,15.188,15.188,0,0,1-4.138,0Z" transform="translate(-3.727 -3.372)" fill="#6e9e63"/>
    <path id="Trazado_721091" data-name="Trazado 721091" d="M279.964,253.844c-.31-.27-.545-2.481-2.45-3.034a18.148,18.148,0,0,0-3.257-.659s1.651,2.87,2.853,3.3A9.471,9.471,0,0,0,279.964,253.844Z" transform="translate(-3.655 -3.325)" fill="#6e9e63"/>
    <path id="Trazado_721092" data-name="Trazado 721092" d="M272.27,267.333l.356-.1c-.143-.689-.5-14.561,3.522-22.649l-.326-.188c-4.076,8.2-3.693,22.366-3.555,22.936Z" transform="translate(-3.628 -3.249)" fill="#6e9e63"/>
    <path id="Trazado_721093" data-name="Trazado 721093" d="M276.9,237.056s1.266,2.874.5,4.161S275.983,238.831,276.9,237.056Z" transform="translate(-3.685 -3.151)" fill="#ffcf83"/>
    <path id="Trazado_721094" data-name="Trazado 721094" d="M277.692,249.284s-1.266-2.875-.5-4.161S278.6,247.511,277.692,249.284Z" transform="translate(-3.691 -3.255)" fill="#ffcf83"/>
    <path id="Trazado_721095" data-name="Trazado 721095" d="M274.333,237.946s2.346,1.92,2.211,3.447S274.279,239.975,274.333,237.946Z" transform="translate(-3.656 -3.163)" fill="#ffcf83"/>
    <path id="Trazado_721096" data-name="Trazado 721096" d="M280.243,248.4s-2.346-1.92-2.211-3.447S280.3,246.372,280.243,248.4Z" transform="translate(-3.706 -3.25)" fill="#ffcf83"/>
    <path id="Trazado_721097" data-name="Trazado 721097" d="M272.451,240.041s2.9.559,3.417,1.986S273.255,241.876,272.451,240.041Z" transform="translate(-3.631 -3.191)" fill="#ffcf83"/>
    <path id="Trazado_721098" data-name="Trazado 721098" d="M282.105,246.454s-2.9-.558-3.416-1.985S281.3,244.618,282.105,246.454Z" transform="translate(-3.714 -3.242)" fill="#ffcf83"/>
    <path id="Trazado_721099" data-name="Trazado 721099" d="M271.844,245.128s2.321-1.957,3.649-1.42S273.642,245.709,271.844,245.128Z" transform="translate(-3.623 -3.238)" fill="#ffcf83"/>
    <path id="Trazado_721100" data-name="Trazado 721100" d="M282.927,242.679s-2.6,1.5-3.819.722S281.25,241.773,282.927,242.679Z" transform="translate(-3.717 -3.221)" fill="#ffcf83"/>
    <path id="Trazado_721101" data-name="Trazado 721101" d="M273.141,247.326s1.443-2.773,2.86-2.833S275.008,247.111,273.141,247.326Z" transform="translate(-3.64 -3.25)" fill="#ffcf83"/>
    <path id="Trazado_721102" data-name="Trazado 721102" d="M281.922,239.583s-1.441,2.773-2.86,2.833S280.056,239.8,281.922,239.583Z" transform="translate(-3.714 -3.184)" fill="#ffcf83"/>
    <path id="Trazado_721103" data-name="Trazado 721103" d="M275.066,248.967s.188-3.178,1.443-3.894S276.66,247.9,275.066,248.967Z" transform="translate(-3.666 -3.256)" fill="#ffcf83"/>
    <path id="Trazado_721104" data-name="Trazado 721104" d="M279.877,237.872s-.19,3.177-1.441,3.894S278.283,238.941,279.877,237.872Z" transform="translate(-3.704 -3.162)" fill="#ffcf83"/>
    <path id="Trazado_721105" data-name="Trazado 721105" d="M271.693,243.062s2.75-1.136,3.874-.2S273.255,244.188,271.693,243.062Z" transform="translate(-3.621 -3.223)" fill="#ffcf83"/>
    <path id="Trazado_721106" data-name="Trazado 721106" d="M279.323,243.235a2.055,2.055,0,1,0-2.048,2.216A2.138,2.138,0,0,0,279.323,243.235Z" transform="translate(-3.668 -3.204)" fill="#00aca7"/>
    <path id="Trazado_721107" data-name="Trazado 721107" d="M272.4,260.337a6.929,6.929,0,0,1,4.239-2.094,17.385,17.385,0,0,1,3.214,0,7.135,7.135,0,0,1-3.316,2.094,14.052,14.052,0,0,1-4.138,0Z" transform="translate(-3.63 -3.433)" fill="#6e9e63"/>
    <path id="Trazado_721108" data-name="Trazado 721108" d="M272.7,258.383c-.31-.292-.546-2.684-2.45-3.283a16.756,16.756,0,0,0-3.257-.713s1.65,3.106,2.853,3.572A8.762,8.762,0,0,0,272.7,258.383Z" transform="translate(-3.558 -3.382)" fill="#6e9e63"/>
    <path id="Trazado_721109" data-name="Trazado 721109" d="M280.965,267.44l.253-.063c-.1-.451-.353-9.5,2.488-14.784l-.229-.122c-2.877,5.349-2.607,14.6-2.51,14.969Z" transform="translate(-3.744 -3.356)" fill="#6e9e63"/>
    <path id="Trazado_721110" data-name="Trazado 721110" d="M284.233,247.68s.894,1.876.35,2.715S283.588,248.836,284.233,247.68Z" transform="translate(-3.784 -3.293)" fill="#ffcf83"/>
    <path id="Trazado_721111" data-name="Trazado 721111" d="M284.795,255.661s-.893-1.876-.349-2.715S285.439,254.5,284.795,255.661Z" transform="translate(-3.789 -3.36)" fill="#ffcf83"/>
    <path id="Trazado_721112" data-name="Trazado 721112" d="M282.423,248.261s1.657,1.253,1.56,2.249S282.383,249.585,282.423,248.261Z" transform="translate(-3.764 -3.3)" fill="#ffcf83"/>
    <path id="Trazado_721113" data-name="Trazado 721113" d="M286.6,255.085s-1.658-1.254-1.56-2.25S286.635,253.76,286.6,255.085Z" transform="translate(-3.799 -3.358)" fill="#ffcf83"/>
    <path id="Trazado_721114" data-name="Trazado 721114" d="M281.094,249.628s2.045.365,2.412,1.3S281.66,250.826,281.094,249.628Z" transform="translate(-3.747 -3.319)" fill="#ffcf83"/>
    <path id="Trazado_721115" data-name="Trazado 721115" d="M287.912,253.814s-2.044-.365-2.411-1.3S287.345,252.616,287.912,253.814Z" transform="translate(-3.805 -3.352)" fill="#ffcf83"/>
    <path id="Trazado_721116" data-name="Trazado 721116" d="M280.666,252.947s1.638-1.278,2.576-.925S281.935,253.326,280.666,252.947Z" transform="translate(-3.741 -3.35)" fill="#ffcf83"/>
    <path id="Trazado_721117" data-name="Trazado 721117" d="M288.491,251.35s-1.834.977-2.7.471S287.305,250.758,288.491,251.35Z" transform="translate(-3.807 -3.338)" fill="#ffcf83"/>
    <path id="Trazado_721118" data-name="Trazado 721118" d="M281.58,254.383s1.018-1.811,2.02-1.849S282.9,254.243,281.58,254.383Z" transform="translate(-3.753 -3.357)" fill="#ffcf83"/>
    <path id="Trazado_721119" data-name="Trazado 721119" d="M287.781,249.33s-1.018,1.811-2.019,1.849S286.462,249.47,287.781,249.33Z" transform="translate(-3.805 -3.315)" fill="#ffcf83"/>
    <path id="Trazado_721120" data-name="Trazado 721120" d="M282.94,255.454s.133-2.072,1.018-2.542S284.066,254.756,282.94,255.454Z" transform="translate(-3.771 -3.362)" fill="#ffcf83"/>
    <path id="Trazado_721121" data-name="Trazado 721121" d="M286.338,248.213s-.133,2.073-1.018,2.543S285.212,248.912,286.338,248.213Z" transform="translate(-3.798 -3.3)" fill="#ffcf83"/>
    <path id="Trazado_721122" data-name="Trazado 721122" d="M280.559,251.6s1.941-.741,2.736-.132S281.662,252.335,280.559,251.6Z" transform="translate(-3.739 -3.34)" fill="#ffcf83"/>
    <path id="Trazado_721123" data-name="Trazado 721123" d="M285.946,251.712a1.446,1.446,0,1,0-1.445,1.445A1.446,1.446,0,0,0,285.946,251.712Z" transform="translate(-3.773 -3.327)" fill="#00aca7"/>
    <path id="Trazado_721124" data-name="Trazado 721124" d="M281.061,262.876a5.024,5.024,0,0,1,2.993-1.366,13.289,13.289,0,0,1,2.268,0,5.088,5.088,0,0,1-2.341,1.366A10.691,10.691,0,0,1,281.061,262.876Z" transform="translate(-3.746 -3.477)" fill="#6e9e63"/>
    <path id="Trazado_721125" data-name="Trazado 721125" d="M281.269,261.6c-.22-.19-.384-1.752-1.73-2.142a12.826,12.826,0,0,0-2.3-.466s1.166,2.028,2.016,2.33A6.723,6.723,0,0,0,281.269,261.6Z" transform="translate(-3.695 -3.444)" fill="#6e9e63"/>
    <path id="Trazado_721126" data-name="Trazado 721126" d="M290.312,267.5l.182-.046c-.073-.324-.255-6.842,1.79-10.643l-.164-.089C290.047,260.57,290.242,267.229,290.312,267.5Z" transform="translate(-3.869 -3.413)" fill="#6e9e63"/>
    <path id="Trazado_721127" data-name="Trazado 721127" d="M292.665,253.271s.643,1.351.251,1.955S292.2,254.1,292.665,253.271Z" transform="translate(-3.898 -3.367)" fill="#ffcf83"/>
    <path id="Trazado_721128" data-name="Trazado 721128" d="M293.07,259.017s-.644-1.351-.252-1.956S293.534,258.183,293.07,259.017Z" transform="translate(-3.901 -3.416)" fill="#ffcf83"/>
    <path id="Trazado_721129" data-name="Trazado 721129" d="M291.362,253.689s1.193.9,1.124,1.62S291.334,254.643,291.362,253.689Z" transform="translate(-3.884 -3.373)" fill="#ffcf83"/>
    <path id="Trazado_721130" data-name="Trazado 721130" d="M294.365,258.6s-1.193-.9-1.123-1.619S294.392,257.65,294.365,258.6Z" transform="translate(-3.909 -3.414)" fill="#ffcf83"/>
    <path id="Trazado_721131" data-name="Trazado 721131" d="M290.406,254.673s1.473.263,1.736.933S290.814,255.535,290.406,254.673Z" transform="translate(-3.871 -3.386)" fill="#ffcf83"/>
    <path id="Trazado_721132" data-name="Trazado 721132" d="M295.313,257.686s-1.472-.263-1.737-.933S294.9,256.824,295.313,257.686Z" transform="translate(-3.913 -3.41)" fill="#ffcf83"/>
    <path id="Trazado_721133" data-name="Trazado 721133" d="M290.1,257.062s1.179-.92,1.854-.667S291.011,257.336,290.1,257.062Z" transform="translate(-3.867 -3.408)" fill="#ffcf83"/>
    <path id="Trazado_721134" data-name="Trazado 721134" d="M295.73,255.913s-1.319.7-1.943.339S294.876,255.487,295.73,255.913Z" transform="translate(-3.914 -3.4)" fill="#ffcf83"/>
    <path id="Trazado_721135" data-name="Trazado 721135" d="M290.755,258.1s.734-1.3,1.454-1.331S291.7,258,290.755,258.1Z" transform="translate(-3.875 -3.414)" fill="#ffcf83"/>
    <path id="Trazado_721136" data-name="Trazado 721136" d="M295.219,254.457s-.734,1.3-1.454,1.332S294.27,254.558,295.219,254.457Z" transform="translate(-3.913 -3.383)" fill="#ffcf83"/>
    <path id="Trazado_721137" data-name="Trazado 721137" d="M291.734,258.869s.1-1.493.734-1.83S292.546,258.366,291.734,258.869Z" transform="translate(-3.889 -3.417)" fill="#ffcf83"/>
    <path id="Trazado_721138" data-name="Trazado 721138" d="M294.18,253.654s-.1,1.492-.734,1.829S293.368,254.155,294.18,253.654Z" transform="translate(-3.908 -3.372)" fill="#ffcf83"/>
    <path id="Trazado_721139" data-name="Trazado 721139" d="M290.02,256.092s1.4-.533,1.968-.095S290.812,256.621,290.02,256.092Z" transform="translate(-3.866 -3.401)" fill="#ffcf83"/>
    <path id="Trazado_721140" data-name="Trazado 721140" d="M292.857,257.214a1.04,1.04,0,1,0-1.04-1.04A1.04,1.04,0,0,0,292.857,257.214Z" transform="translate(-3.89 -3.392)" fill="#00aca7"/>
    <path id="Trazado_721141" data-name="Trazado 721141" d="M290.676,261.545a3.615,3.615,0,0,1,2.156-.983,9.46,9.46,0,0,1,1.633,0,3.657,3.657,0,0,1-1.685.983A7.715,7.715,0,0,1,290.676,261.545Z" transform="translate(-3.874 -3.464)" fill="#6e9e63"/>
    <path id="Trazado_721142" data-name="Trazado 721142" d="M290.828,260.629c-.158-.139-.277-1.261-1.245-1.543a9.272,9.272,0,0,0-1.655-.335s.84,1.459,1.45,1.677a4.848,4.848,0,0,0,1.451.2Z" transform="translate(-3.838 -3.44)" fill="#6e9e63"/>
    <path id="Trazado_721143" data-name="Trazado 721143" d="M285.352,267.471l.213-.055c-.087-.381-.3-8.051,2.107-12.525l-.194-.1c-2.438,4.534-2.209,12.37-2.127,12.684Z" transform="translate(-3.803 -3.387)" fill="#6e9e63"/>
    <path id="Trazado_721144" data-name="Trazado 721144" d="M288.12,250.73s.759,1.59.3,2.3S287.575,251.712,288.12,250.73Z" transform="translate(-3.837 -3.333)" fill="#ffcf83"/>
    <path id="Trazado_721145" data-name="Trazado 721145" d="M288.6,257.49s-.759-1.589-.3-2.3S289.141,256.508,288.6,257.49Z" transform="translate(-3.841 -3.391)" fill="#ffcf83"/>
    <path id="Trazado_721146" data-name="Trazado 721146" d="M286.585,251.221s1.4,1.062,1.323,1.906S286.552,252.343,286.585,251.221Z" transform="translate(-3.82 -3.34)" fill="#ffcf83"/>
    <path id="Trazado_721147" data-name="Trazado 721147" d="M290.121,257s-1.4-1.062-1.323-1.906S290.154,255.881,290.121,257Z" transform="translate(-3.849 -3.388)" fill="#ffcf83"/>
    <path id="Trazado_721148" data-name="Trazado 721148" d="M285.46,252.38s1.734.308,2.043,1.1S285.94,253.394,285.46,252.38Z" transform="translate(-3.805 -3.355)" fill="#ffcf83"/>
    <path id="Trazado_721149" data-name="Trazado 721149" d="M291.237,255.925s-1.733-.309-2.042-1.1S290.757,254.91,291.237,255.925Z" transform="translate(-3.854 -3.384)" fill="#ffcf83"/>
    <path id="Trazado_721150" data-name="Trazado 721150" d="M285.1,255.192s1.389-1.082,2.183-.786S286.172,255.512,285.1,255.192Z" transform="translate(-3.8 -3.382)" fill="#ffcf83"/>
    <path id="Trazado_721151" data-name="Trazado 721151" d="M291.727,253.838s-1.553.828-2.285.4S290.724,253.336,291.727,253.838Z" transform="translate(-3.856 -3.372)" fill="#ffcf83"/>
    <path id="Trazado_721152" data-name="Trazado 721152" d="M285.873,256.409s.863-1.534,1.711-1.567S286.99,256.289,285.873,256.409Z" transform="translate(-3.81 -3.388)" fill="#ffcf83"/>
    <path id="Trazado_721153" data-name="Trazado 721153" d="M291.126,252.125s-.863,1.534-1.711,1.567S290.01,252.244,291.126,252.125Z" transform="translate(-3.854 -3.352)" fill="#ffcf83"/>
    <path id="Trazado_721154" data-name="Trazado 721154" d="M287.024,257.316s.115-1.757.864-2.154S287.98,256.725,287.024,257.316Z" transform="translate(-3.826 -3.392)" fill="#ffcf83"/>
    <path id="Trazado_721155" data-name="Trazado 721155" d="M289.9,251.179s-.113,1.757-.863,2.154S288.948,251.77,289.9,251.179Z" transform="translate(-3.848 -3.339)" fill="#ffcf83"/>
    <path id="Trazado_721156" data-name="Trazado 721156" d="M285.006,254.05s1.645-.628,2.317-.111S285.939,254.672,285.006,254.05Z" transform="translate(-3.799 -3.373)" fill="#ffcf83"/>
    <path id="Trazado_721157" data-name="Trazado 721157" d="M289.572,254.145a1.226,1.226,0,1,0-1.225,1.226A1.225,1.225,0,0,0,289.572,254.145Z" transform="translate(-3.827 -3.362)" fill="#00aca7"/>
    <path id="Trazado_721158" data-name="Trazado 721158" d="M285.432,263.6a4.262,4.262,0,0,1,2.537-1.159,11.5,11.5,0,0,1,1.922,0,4.306,4.306,0,0,1-1.984,1.159,9.067,9.067,0,0,1-2.476,0Z" transform="translate(-3.804 -3.489)" fill="#6e9e63"/>
    <path id="Trazado_721159" data-name="Trazado 721159" d="M285.609,262.523c-.185-.163-.326-1.484-1.464-1.815a10.823,10.823,0,0,0-1.949-.395s.989,1.718,1.708,1.976a5.651,5.651,0,0,0,1.707.234Z" transform="translate(-3.761 -3.461)" fill="#6e9e63"/>
    <path id="Trazado_721160" data-name="Trazado 721160" d="M291.337,267.54l.128-.033c-.051-.229-.18-4.831,1.264-7.514l-.115-.062c-1.463,2.72-1.326,7.421-1.277,7.611Z" transform="translate(-3.883 -3.456)" fill="#6e9e63"/>
    <path id="Trazado_721161" data-name="Trazado 721161" d="M293,257.495s.454.954.179,1.38S292.67,258.084,293,257.495Z" transform="translate(-3.903 -3.424)" fill="#ffcf83"/>
    <path id="Trazado_721162" data-name="Trazado 721162" d="M293.283,261.552s-.454-.954-.179-1.38S293.611,260.963,293.283,261.552Z" transform="translate(-3.906 -3.458)" fill="#ffcf83"/>
    <path id="Trazado_721163" data-name="Trazado 721163" d="M292.076,257.79s.844.637.793,1.145S292.055,258.464,292.076,257.79Z" transform="translate(-3.893 -3.427)" fill="#ffcf83"/>
    <path id="Trazado_721164" data-name="Trazado 721164" d="M294.2,261.26s-.843-.637-.792-1.145S294.218,260.586,294.2,261.26Z" transform="translate(-3.911 -3.457)" fill="#ffcf83"/>
    <path id="Trazado_721165" data-name="Trazado 721165" d="M291.4,258.485s1.041.186,1.226.659S291.69,259.094,291.4,258.485Z" transform="translate(-3.884 -3.437)" fill="#ffcf83"/>
    <path id="Trazado_721166" data-name="Trazado 721166" d="M294.867,260.613s-1.041-.185-1.225-.66S294.58,260,294.867,260.613Z" transform="translate(-3.914 -3.454)" fill="#ffcf83"/>
    <path id="Trazado_721167" data-name="Trazado 721167" d="M291.183,260.171s.833-.649,1.309-.471S291.827,260.366,291.183,260.171Z" transform="translate(-3.881 -3.453)" fill="#ffcf83"/>
    <path id="Trazado_721168" data-name="Trazado 721168" d="M295.162,259.36s-.931.5-1.37.239S294.56,259.059,295.162,259.36Z" transform="translate(-3.915 -3.447)" fill="#ffcf83"/>
    <path id="Trazado_721169" data-name="Trazado 721169" d="M291.65,260.9s.518-.921,1.026-.94S292.32,260.831,291.65,260.9Z" transform="translate(-3.887 -3.456)" fill="#ffcf83"/>
    <path id="Trazado_721170" data-name="Trazado 721170" d="M294.8,258.332s-.517.922-1.026.94S294.131,258.4,294.8,258.332Z" transform="translate(-3.914 -3.435)" fill="#ffcf83"/>
    <path id="Trazado_721171" data-name="Trazado 721171" d="M292.339,261.447s.068-1.055.518-1.293S292.912,261.094,292.339,261.447Z" transform="translate(-3.897 -3.459)" fill="#ffcf83"/>
    <path id="Trazado_721172" data-name="Trazado 721172" d="M294.067,257.765s-.068,1.055-.518,1.292S293.494,258.118,294.067,257.765Z" transform="translate(-3.91 -3.427)" fill="#ffcf83"/>
    <path id="Trazado_721173" data-name="Trazado 721173" d="M291.13,259.487s.988-.377,1.391-.067S291.691,259.86,291.13,259.487Z" transform="translate(-3.88 -3.448)" fill="#ffcf83"/>
    <path id="Trazado_721174" data-name="Trazado 721174" d="M293.869,259.545a.736.736,0,1,0-.736.736A.735.735,0,0,0,293.869,259.545Z" transform="translate(-3.897 -3.441)" fill="#00aca7"/>
    <path id="Trazado_721175" data-name="Trazado 721175" d="M291.385,265.219a2.543,2.543,0,0,1,1.521-.695,6.861,6.861,0,0,1,1.153,0,2.591,2.591,0,0,1-1.189.695A5.444,5.444,0,0,1,291.385,265.219Z" transform="translate(-3.884 -3.517)" fill="#6e9e63"/>
    <path id="Trazado_721176" data-name="Trazado 721176" d="M291.49,264.572c-.111-.1-.2-.89-.879-1.089a6.389,6.389,0,0,0-1.169-.237s.592,1.03,1.023,1.184a3.414,3.414,0,0,0,1.025.14Z" transform="translate(-3.858 -3.5)" fill="#6e9e63"/>
    <path id="Trazado_721177" data-name="Trazado 721177" d="M298.553,267.471l.212-.055c-.086-.381-.3-8.051,2.107-12.525l-.193-.1C298.242,259.321,298.469,267.157,298.553,267.471Z" transform="translate(-3.979 -3.387)" fill="#6e9e63"/>
    <path id="Trazado_721178" data-name="Trazado 721178" d="M301.32,250.73s.759,1.59.3,2.3S300.776,251.712,301.32,250.73Z" transform="translate(-4.013 -3.333)" fill="#ffcf83"/>
    <path id="Trazado_721179" data-name="Trazado 721179" d="M301.8,257.49s-.759-1.589-.3-2.3S302.343,256.508,301.8,257.49Z" transform="translate(-4.017 -3.391)" fill="#ffcf83"/>
    <path id="Trazado_721180" data-name="Trazado 721180" d="M299.787,251.221s1.4,1.062,1.323,1.906S299.754,252.343,299.787,251.221Z" transform="translate(-3.996 -3.34)" fill="#ffcf83"/>
    <path id="Trazado_721181" data-name="Trazado 721181" d="M303.323,257s-1.4-1.062-1.323-1.906S303.356,255.881,303.323,257Z" transform="translate(-4.026 -3.388)" fill="#ffcf83"/>
    <path id="Trazado_721182" data-name="Trazado 721182" d="M298.662,252.38s1.734.308,2.043,1.1S299.142,253.394,298.662,252.38Z" transform="translate(-3.981 -3.355)" fill="#ffcf83"/>
    <path id="Trazado_721183" data-name="Trazado 721183" d="M304.438,255.925s-1.734-.309-2.043-1.1S303.958,254.91,304.438,255.925Z" transform="translate(-4.03 -3.384)" fill="#ffcf83"/>
    <path id="Trazado_721184" data-name="Trazado 721184" d="M298.3,255.192s1.388-1.082,2.183-.786S299.376,255.512,298.3,255.192Z" transform="translate(-3.976 -3.382)" fill="#ffcf83"/>
    <path id="Trazado_721185" data-name="Trazado 721185" d="M304.929,253.838s-1.553.828-2.285.4S303.926,253.336,304.929,253.838Z" transform="translate(-4.032 -3.372)" fill="#ffcf83"/>
    <path id="Trazado_721186" data-name="Trazado 721186" d="M299.075,256.409s.863-1.534,1.711-1.567S300.192,256.289,299.075,256.409Z" transform="translate(-3.987 -3.388)" fill="#ffcf83"/>
    <path id="Trazado_721187" data-name="Trazado 721187" d="M304.328,252.125s-.864,1.534-1.711,1.567S303.212,252.244,304.328,252.125Z" transform="translate(-4.03 -3.352)" fill="#ffcf83"/>
    <path id="Trazado_721188" data-name="Trazado 721188" d="M300.226,257.316s.114-1.757.864-2.154S301.182,256.725,300.226,257.316Z" transform="translate(-4.002 -3.392)" fill="#ffcf83"/>
    <path id="Trazado_721189" data-name="Trazado 721189" d="M303.1,251.179s-.113,1.757-.863,2.154S302.15,251.77,303.1,251.179Z" transform="translate(-4.024 -3.339)" fill="#ffcf83"/>
    <path id="Trazado_721190" data-name="Trazado 721190" d="M298.208,254.05s1.645-.628,2.317-.111S299.141,254.672,298.208,254.05Z" transform="translate(-3.975 -3.373)" fill="#ffcf83"/>
    <path id="Trazado_721191" data-name="Trazado 721191" d="M302.773,254.145a1.226,1.226,0,1,0-1.226,1.226A1.226,1.226,0,0,0,302.773,254.145Z" transform="translate(-4.003 -3.362)" fill="#00aca7"/>
    <path id="Trazado_721192" data-name="Trazado 721192" d="M298.982,260.468a4.258,4.258,0,0,1,2.537-1.158,11.046,11.046,0,0,1,1.922,0,4.315,4.315,0,0,1-1.983,1.158A9.069,9.069,0,0,1,298.982,260.468Z" transform="translate(-3.985 -3.447)" fill="#6e9e63"/>
    <path id="Trazado_721193" data-name="Trazado 721193" d="M299.159,259.387c-.185-.163-.326-1.484-1.465-1.815a10.827,10.827,0,0,0-1.948-.395s.987,1.718,1.707,1.976a5.649,5.649,0,0,0,1.707.234Z" transform="translate(-3.942 -3.419)" fill="#6e9e63"/>
    <path id="Trazado_721194" data-name="Trazado 721194" d="M294.555,267.458l.213-.059c-.087-.412-.3-8.711,2.107-13.551l-.193-.113c-2.438,4.9-2.209,13.383-2.126,13.723Z" transform="translate(-3.926 -3.373)" fill="#6e9e63"/>
    <path id="Trazado_721195" data-name="Trazado 721195" d="M297.323,249.344s.759,1.719.3,2.489S296.778,250.4,297.323,249.344Z" transform="translate(-3.96 -3.315)" fill="#ffcf83"/>
    <path id="Trazado_721196" data-name="Trazado 721196" d="M297.8,256.659s-.759-1.72-.3-2.49S298.346,255.6,297.8,256.659Z" transform="translate(-3.964 -3.377)" fill="#ffcf83"/>
    <path id="Trazado_721197" data-name="Trazado 721197" d="M295.79,249.875s1.4,1.148,1.322,2.062S295.756,251.089,295.79,249.875Z" transform="translate(-3.943 -3.322)" fill="#ffcf83"/>
    <path id="Trazado_721198" data-name="Trazado 721198" d="M299.325,256.132s-1.4-1.147-1.323-2.062S299.359,254.918,299.325,256.132Z" transform="translate(-3.972 -3.374)" fill="#ffcf83"/>
    <path id="Trazado_721199" data-name="Trazado 721199" d="M294.665,251.128s1.733.334,2.042,1.188S295.145,252.226,294.665,251.128Z" transform="translate(-3.928 -3.339)" fill="#ffcf83"/>
    <path id="Trazado_721200" data-name="Trazado 721200" d="M300.44,254.965s-1.734-.334-2.043-1.188S299.96,253.867,300.44,254.965Z" transform="translate(-3.977 -3.369)" fill="#ffcf83"/>
    <path id="Trazado_721201" data-name="Trazado 721201" d="M294.3,254.172s1.389-1.171,2.183-.85S295.376,254.519,294.3,254.172Z" transform="translate(-3.923 -3.367)" fill="#ffcf83"/>
    <path id="Trazado_721202" data-name="Trazado 721202" d="M300.932,252.708s-1.553.895-2.286.431S299.928,252.166,300.932,252.708Z" transform="translate(-3.979 -3.357)" fill="#ffcf83"/>
    <path id="Trazado_721203" data-name="Trazado 721203" d="M295.077,255.487s.864-1.661,1.711-1.7S296.194,255.359,295.077,255.487Z" transform="translate(-3.933 -3.374)" fill="#ffcf83"/>
    <path id="Trazado_721204" data-name="Trazado 721204" d="M300.331,250.855s-.864,1.66-1.711,1.7S299.215,250.982,300.331,250.855Z" transform="translate(-3.977 -3.335)" fill="#ffcf83"/>
    <path id="Trazado_721205" data-name="Trazado 721205" d="M296.228,256.47s.114-1.9.864-2.33S297.184,255.83,296.228,256.47Z" transform="translate(-3.949 -3.378)" fill="#ffcf83"/>
    <path id="Trazado_721206" data-name="Trazado 721206" d="M299.108,249.831s-.114,1.9-.864,2.331S298.152,250.472,299.108,249.831Z" transform="translate(-3.971 -3.321)" fill="#ffcf83"/>
    <path id="Trazado_721207" data-name="Trazado 721207" d="M294.21,252.936s1.645-.679,2.317-.121S295.143,253.61,294.21,252.936Z" transform="translate(-3.922 -3.358)" fill="#ffcf83"/>
    <path id="Trazado_721208" data-name="Trazado 721208" d="M298.775,253.039a1.23,1.23,0,1,0-1.225,1.326A1.279,1.279,0,0,0,298.775,253.039Z" transform="translate(-3.95 -3.346)" fill="#00aca7"/>
    <path id="Trazado_721209" data-name="Trazado 721209" d="M294.637,263.273a4.151,4.151,0,0,1,2.537-1.254,10.353,10.353,0,0,1,1.921,0,4.284,4.284,0,0,1-1.982,1.254A8.42,8.42,0,0,1,294.637,263.273Z" transform="translate(-3.927 -3.483)" fill="#6e9e63"/>
    <path id="Trazado_721210" data-name="Trazado 721210" d="M294.813,262.1c-.185-.176-.325-1.605-1.464-1.963a9.911,9.911,0,0,0-1.948-.426s.987,1.858,1.707,2.136a5.235,5.235,0,0,0,1.707.254Z" transform="translate(-3.884 -3.453)" fill="#6e9e63"/>
    <path id="Trazado_721211" data-name="Trazado 721211" d="M299.759,267.522l.151-.038c-.061-.268-.211-5.686,1.487-8.844l-.136-.075C299.537,261.766,299.7,267.3,299.759,267.522Z" transform="translate(-3.995 -3.438)" fill="#6e9e63"/>
    <path id="Trazado_721212" data-name="Trazado 721212" d="M301.713,255.7s.535,1.122.209,1.624S301.329,256.393,301.713,255.7Z" transform="translate(-4.019 -3.4)" fill="#ffcf83"/>
    <path id="Trazado_721213" data-name="Trazado 721213" d="M302.049,260.475s-.536-1.123-.21-1.624S302.433,259.782,302.049,260.475Z" transform="translate(-4.022 -3.44)" fill="#ffcf83"/>
    <path id="Trazado_721214" data-name="Trazado 721214" d="M300.63,256.047s.992.75.932,1.346S300.605,256.838,300.63,256.047Z" transform="translate(-4.007 -3.404)" fill="#ffcf83"/>
    <path id="Trazado_721215" data-name="Trazado 721215" d="M303.126,260.13s-.993-.75-.933-1.345S303.151,259.338,303.126,260.13Z" transform="translate(-4.028 -3.439)" fill="#ffcf83"/>
    <path id="Trazado_721216" data-name="Trazado 721216" d="M299.835,256.865s1.223.218,1.441.776S300.172,257.582,299.835,256.865Z" transform="translate(-3.997 -3.415)" fill="#ffcf83"/>
    <path id="Trazado_721217" data-name="Trazado 721217" d="M303.914,259.37s-1.224-.218-1.443-.776S303.577,258.653,303.914,259.37Z" transform="translate(-4.032 -3.435)" fill="#ffcf83"/>
    <path id="Trazado_721218" data-name="Trazado 721218" d="M299.578,258.851s.981-.764,1.541-.555S300.337,259.077,299.578,258.851Z" transform="translate(-3.993 -3.434)" fill="#ffcf83"/>
    <path id="Trazado_721219" data-name="Trazado 721219" d="M304.26,257.895s-1.1.585-1.613.282S303.55,257.542,304.26,257.895Z" transform="translate(-4.033 -3.427)" fill="#ffcf83"/>
    <path id="Trazado_721220" data-name="Trazado 721220" d="M300.126,259.71s.61-1.083,1.209-1.106S300.915,259.627,300.126,259.71Z" transform="translate(-4.001 -3.438)" fill="#ffcf83"/>
    <path id="Trazado_721221" data-name="Trazado 721221" d="M303.836,256.686s-.61,1.084-1.209,1.106S303.047,256.769,303.836,256.686Z" transform="translate(-4.032 -3.413)" fill="#ffcf83"/>
    <path id="Trazado_721222" data-name="Trazado 721222" d="M300.94,260.35s.08-1.239.61-1.52S301.614,259.933,300.94,260.35Z" transform="translate(-4.011 -3.441)" fill="#ffcf83"/>
    <path id="Trazado_721223" data-name="Trazado 721223" d="M302.972,256.017s-.08,1.242-.61,1.52S302.3,256.434,302.972,256.017Z" transform="translate(-4.027 -3.404)" fill="#ffcf83"/>
    <path id="Trazado_721224" data-name="Trazado 721224" d="M299.515,258.045s1.162-.443,1.637-.078S300.175,258.485,299.515,258.045Z" transform="translate(-3.992 -3.428)" fill="#ffcf83"/>
    <path id="Trazado_721225" data-name="Trazado 721225" d="M302.739,258.111a.866.866,0,1,0-.866.866A.866.866,0,0,0,302.739,258.111Z" transform="translate(-4.012 -3.42)" fill="#00aca7"/>
    <path id="Trazado_721226" data-name="Trazado 721226" d="M299.815,264.791a3.011,3.011,0,0,1,1.791-.817,7.9,7.9,0,0,1,1.358,0,3.039,3.039,0,0,1-1.4.817,6.438,6.438,0,0,1-1.748,0Z" transform="translate(-3.996 -3.51)" fill="#6e9e63"/>
    <path id="Trazado_721227" data-name="Trazado 721227" d="M299.94,264.028c-.131-.113-.23-1.047-1.035-1.281a7.642,7.642,0,0,0-1.376-.279s.7,1.215,1.2,1.4a3.976,3.976,0,0,0,1.2.164Z" transform="translate(-3.966 -3.49)" fill="#6e9e63"/>
    <path id="Trazado_721228" data-name="Trazado 721228" d="M46.695,184.78v82.662H28.461c-.009-.025-.017-.054-.029-.084l-.021-.053c-.061-.16-.14-.372-.242-.646l-.04-.079v-.04a.155.155,0,0,1-.04-.083,11.347,11.347,0,0,1-.448-1.141c-.083-.206-.163-.451-.286-.695v-.083l-.04-.04c-.561-1.454-1.254-3.35-2.055-5.639-.071-.208-.145-.417-.222-.628-.6-1.731-1.26-3.667-1.963-5.8q-.486-1.5-1-3.136c-1.415-4.521-2.956-9.743-4.465-15.5-.734-2.813-1.468-5.748-2.163-8.808-.409-1.766-.819-3.6-1.212-5.461-.114-.544-.225-1.088-.338-1.632-.72-3.477-1.4-7.059-2.01-10.72-.805-4.806-1.5-9.748-2.024-14.764q-.392-3.693-.658-7.436c-.005-.064-.01-.131-.014-.2h37.5Z" transform="translate(-0.117 -2.453)" fill="#fff3e9"/>
    <path id="Trazado_721229" data-name="Trazado 721229" d="M32.012,149.975,51.33,189.742h58.688l-30.6-39.621Z" transform="translate(-0.422 -1.988)" fill="#00aca7"/>
    <path id="Trazado_721230" data-name="Trazado 721230" d="M107.67,189.742l-1.744-2.258L77.073,150.121l-47.407-.146,17.3,35.62v81.376h58.957V189.742Z" transform="translate(-0.391 -1.988)" fill="#f9ddbf"/>
    <path id="Trazado_721231" data-name="Trazado 721231" d="M85.9,196.973H69.747v-19.51a7.338,7.338,0,0,1,7.334-7.335h1.233a7.583,7.583,0,0,1,7.58,7.58v19.264Z" transform="translate(-0.926 -2.257)" fill="#efcdaf"/>
    <path id="Trazado_721232" data-name="Trazado 721232" d="M79.266,149.975l-.132.177-1.143,1.522L50.4,188.46l-2.616,3.489H9.855q-.392-3.693-.658-7.436c-.005-.064-.01-.131-.014-.2s-.01-.134-.016-.2c-.241-3.513-.393-7.051-.438-10.585l18.18-23.546h7.707l26.921,0,17.725-.006Z" transform="translate(-0.111 -1.988)" fill="#00aca7"/>
    <path id="Trazado_721233" data-name="Trazado 721233" d="M84.2,201.537l13.753,28.311h41.781l-21.783-28.207Z" transform="translate(-1.119 -2.677)" fill="#00aca7"/>
    <path id="Trazado_721234" data-name="Trazado 721234" d="M138.465,229.848l-21.783-28.207-33.752-.1,13.753,28.311h.09v37.734l41.692.082Z" transform="translate(-1.102 -2.677)" fill="#f9ddbf"/>
    <path id="Trazado_721235" data-name="Trazado 721235" d="M96.484,230.231H61.18v37.734h35.3Z" transform="translate(-0.811 -3.06)" fill="#fff3e9"/>
    <path id="Trazado_721236" data-name="Trazado 721236" d="M57.247,231.524H95.173l22.417-29.883h-11.3l-25.977.007Z" transform="translate(-0.759 -2.678)" fill="#00aca7"/>
    <path id="Trazado_721237" data-name="Trazado 721237" d="M109.506,236.484v31.53h17.563V236.773a8.927,8.927,0,0,0-8.925-8.927,8.64,8.64,0,0,0-8.637,8.637Z" transform="translate(-1.456 -3.028)" fill="#efcdaf"/>
    <path id="Trazado_721238" data-name="Trazado 721238" d="M120.352,217.545a1.97,1.97,0,1,0-1.97,1.97A1.971,1.971,0,0,0,120.352,217.545Z" transform="translate(-1.548 -2.864)" fill="#efcdaf"/>
    <path id="Trazado_721239" data-name="Trazado 721239" d="M57.247,231.524h7.2l41.849-29.882-25.977.007Z" transform="translate(-0.759 -2.678)" fill="#459593"/>
    <path id="Trazado_721240" data-name="Trazado 721240" d="M50.076,177.935H15.414L33.7,155.51H68.36Z" transform="translate(-0.2 -2.062)" fill="#01d8d1"/>
    <path id="Trazado_721241" data-name="Trazado 721241" d="M63.822,161.492H29.162l.215-.263H64.039Z" transform="translate(-0.384 -2.139)" fill="#00aca7"/>
    <path id="Trazado_721242" data-name="Trazado 721242" d="M41.953,155.508,23.669,177.935H23.4L41.69,155.508Z" transform="translate(-0.307 -2.062)" fill="#00aca7"/>
    <path id="Trazado_721243" data-name="Trazado 721243" d="M51.261,155.508,32.977,177.935h-.265L51,155.508Z" transform="translate(-0.431 -2.062)" fill="#00aca7"/>
    <path id="Trazado_721244" data-name="Trazado 721244" d="M60.218,155.508,41.932,177.935h-.263l18.284-22.427Z" transform="translate(-0.551 -2.062)" fill="#00aca7"/>
    <path id="Trazado_721245" data-name="Trazado 721245" d="M59.233,167H24.571l.215-.262H59.448Z" transform="translate(-0.323 -2.212)" fill="#00aca7"/>
    <path id="Trazado_721246" data-name="Trazado 721246" d="M54.384,172.948H19.724l.215-.263H54.6Z" transform="translate(-0.258 -2.292)" fill="#00aca7"/>
    <path id="Trazado_721247" data-name="Trazado 721247" d="M36.354,162.446l-.2-1.08,1.96-1.078.2,1.078Z" transform="translate(-0.477 -2.126)" fill="#00aca7"/>
    <path id="Trazado_721248" data-name="Trazado 721248" d="M45.562,162.446l-.2-1.08,1.962-1.078.2,1.078Z" transform="translate(-0.6 -2.126)" fill="#00aca7"/>
    <path id="Trazado_721249" data-name="Trazado 721249" d="M54.652,162.446l-.2-1.08,1.962-1.078.2,1.078Z" transform="translate(-0.722 -2.126)" fill="#00aca7"/>
    <path id="Trazado_721250" data-name="Trazado 721250" d="M31.876,167.939l-.2-1.08,1.96-1.08.2,1.08Z" transform="translate(-0.418 -2.199)" fill="#00aca7"/>
    <path id="Trazado_721251" data-name="Trazado 721251" d="M41.084,167.939l-.2-1.08,1.962-1.08.2,1.08Z" transform="translate(-0.54 -2.199)" fill="#00aca7"/>
    <path id="Trazado_721252" data-name="Trazado 721252" d="M50.172,167.939l-.2-1.08,1.962-1.08.2,1.08Z" transform="translate(-0.662 -2.199)" fill="#00aca7"/>
    <path id="Trazado_721253" data-name="Trazado 721253" d="M27.027,173.885l-.2-1.08,1.962-1.08.2,1.08Z" transform="translate(-0.353 -2.279)" fill="#00aca7"/>
    <path id="Trazado_721254" data-name="Trazado 721254" d="M36.235,173.885l-.2-1.08L38,171.724l.2,1.08Z" transform="translate(-0.476 -2.279)" fill="#00aca7"/>
    <path id="Trazado_721255" data-name="Trazado 721255" d="M45.325,173.885l-.2-1.08,1.96-1.08.2,1.08Z" transform="translate(-0.597 -2.279)" fill="#00aca7"/>
    <path id="Trazado_721256" data-name="Trazado 721256" d="M439.665,78.027c-.014.859-.039,1.728-.083,2.6a86.668,86.668,0,0,1-1.365,11.582L383.99,91.5s4.907-11.585,16.646-10.3c0,0,17.041-19.311,35.211-2.575,0,0,1.438-.308,3.816-.6Z" transform="translate(-5.12 -0.945)" fill="#f8fcff"/>
    <path id="Trazado_721257" data-name="Trazado 721257" d="M261.669,40.707s2.543-6.117,8.619-5.439c0,0,8.824-10.2,18.234-1.359,0,0,10-2.19,17.41,1.9,4.938,2.724,6.569,5.581,6.569,5.581l-50.832-.68Z" transform="translate(-3.487 -0.391)" fill="#f8fcff"/>
    <path id="Trazado_721258" data-name="Trazado 721258" d="M54.46,130.743s2.715-6.537,9.21-5.811c0,0,9.428-10.894,19.481-1.452,0,0,10.687-2.339,18.6,2.026,5.278,2.911,7.02,5.963,7.02,5.963Z" transform="translate(-0.722 -1.583)" fill="#f8fcff"/>
    <path id="Trazado_721259" data-name="Trazado 721259" d="M40.118,110.511s2.078-5,7.047-4.447c0,0,7.215-8.337,14.908-1.112,0,0,8.178-1.79,14.234,1.55,4.038,2.227,5.371,4.564,5.371,4.564l-41.562-.555Z" transform="translate(-0.53 -1.348)" fill="#f8fcff"/>
    <path id="Trazado_721260" data-name="Trazado 721260" d="M482.488,238.57a65.255,65.255,0,0,1-1.328,8.1c-.014.059-.026.116-.043.177-14.335,5.193-29.109,12.083-42.265,21.181H403.281C408.436,264.708,433.562,250.8,482.488,238.57Z" transform="translate(-5.377 -3.171)" fill="#6e9e63"/>
    <path id="Trazado_721261" data-name="Trazado 721261" d="M403.456,230.884s27.3-2.393,34.715,0,11.13,13.523,10.071,21.65-3.534,15.017-8.3,14.84-38.512,0-38.512,0Z" transform="translate(-5.353 -3.054)" fill="#edbd77"/>
    <path id="Trazado_721262" data-name="Trazado 721262" d="M409.132,230.452s5.778-1.074,9.709-1.473a20.417,20.417,0,0,0-3.475.957s8.391-1.265,11.453-.957,7.259.828,7.259.828l4.666-.312s-3.887.471-3.681.53,3.8.5,4.947,1.236c0,0,3.563,1.119,4.328,1.8,0,0-2.857-1.442-3.975-1.355,0,0,6.472,4.49,6.489,8.766s-27.836-6.441-27.836-6.441l-9.885-3.576Z" transform="translate(-5.455 -3.042)" fill="#edbd77"/>
    <path id="Trazado_721263" data-name="Trazado 721263" d="M407.158,230.68s-10.865-.826-17.754,7.918-1.325,29,7.684,29.072S417.2,266.362,419.6,254.6,416.963,230.977,407.158,230.68Z" transform="translate(-5.151 -3.065)" fill="#ffcf83"/>
    <path id="Trazado_721264" data-name="Trazado 721264" d="M384.892,248.286s3.887-4.476,4.3-5.713l.589,1.236Z" transform="translate(-5.132 -3.224)" fill="#ffcf83"/>
    <path id="Trazado_721265" data-name="Trazado 721265" d="M387.735,241.589s.491-3.208,1.906-4.386a6.849,6.849,0,0,0-.952,3.947c.332,1.794-.952.441-.952.441Z" transform="translate(-5.17 -3.153)" fill="#ffcf83"/>
    <path id="Trazado_721266" data-name="Trazado 721266" d="M389.646,264.563c.071.172-2.09-5.875-1.383-7.022l.411,0s.281,5.34.974,7.019Z" transform="translate(-5.175 -3.424)" fill="#ffcf83"/>
    <path id="Trazado_721267" data-name="Trazado 721267" d="M387.871,256.687a3.853,3.853,0,0,0-2.532,0,2.734,2.734,0,0,1,2.414.471C388.667,258.049,387.871,256.687,387.871,256.687Z" transform="translate(-5.138 -3.41)" fill="#ffcf83"/>
    <path id="Trazado_721268" data-name="Trazado 721268" d="M402.892,267.419a15.546,15.546,0,0,1-8.072-1.994,12.029,12.029,0,0,1-5.387-8.138c-1.363-6.3-.693-11.473,1.988-15.369,2.507-3.641,6.739-6.013,12.239-6.858a9.641,9.641,0,0,1,9.3,3.47c3.423,4.1,4.406,11.038,2.392,16.861-1.424,4.114-5.226,6.656-10.169,6.8-.142,0-.282.007-.422.007-4.98,0-9.469-2.546-11.012-6.287-1.572-3.814-1.489-7.546.23-10.507,1.745-3.005,5.044-4.962,9.284-5.506,3.839-.5,5.909,1.293,6.971,2.879,2.046,3.06,2.041,8.03.67,10.43-1.321,2.312-4.98,4.1-8.157,3.986a5.363,5.363,0,0,1-4.927-2.987,6.669,6.669,0,0,1,.2-6.721,5,5,0,0,1,4.2-2.38,2.83,2.83,0,0,1,2.616,2.793c.1,1.082-.273,2.285-1.163,2.493-1.654.386-2.239-.516-2.262-.555,0,0-.894-1.474.218-1.685,1.272-.242.936.745.936.745.018.028-.315,1.361,1,1.053.544-.126.9-1.011.814-2.012a2.369,2.369,0,0,0-2.187-2.38,4.53,4.53,0,0,0-3.8,2.179,6.232,6.232,0,0,0-.173,6.273,4.922,4.922,0,0,0,4.535,2.73c3.023.1,6.5-1.577,7.746-3.757a10.894,10.894,0,0,0-.652-9.952,6.37,6.37,0,0,0-6.537-2.682c-4.1.527-7.276,2.4-8.948,5.285-1.647,2.836-1.72,6.423-.2,10.1s6.041,6.144,11,6c4.748-.137,8.394-2.564,9.753-6.493,1.965-5.681,1.015-12.432-2.311-16.421a9.216,9.216,0,0,0-8.878-3.312c-5.374.826-9.5,3.131-11.935,6.666-2.608,3.789-3.253,8.839-1.918,15.015a11.591,11.591,0,0,0,5.18,7.848c5.385,3.294,13.877,1.3,13.952,1.281l-.961.52a22.677,22.677,0,0,1-5.154.581Z" transform="translate(-5.183 -3.122)" fill="#edbd77"/>
    <path id="Trazado_721269" data-name="Trazado 721269" d="M446.244,218.032s36.7-3.217,46.681,0,14.968,18.183,13.541,29.11S501.715,267.335,495.3,267.1s-51.787,0-51.787,0Z" transform="translate(-5.914 -2.878)" fill="#edbd77"/>
    <path id="Trazado_721270" data-name="Trazado 721270" d="M453.878,217.452s7.767-1.447,13.053-1.98c0,0-4.157.851-4.672,1.287,0,0,11.284-1.7,15.4-1.287s9.76,1.113,9.76,1.113l6.275-.42s-5.225.633-4.949.713,5.108.673,6.653,1.662c0,0,4.79,1.5,5.819,2.415,0,0-3.84-1.941-5.345-1.821,0,0,8.7,6.038,8.726,11.788s-37.433-8.66-37.433-8.66Z" transform="translate(-6.053 -2.862)" fill="#edbd77"/>
    <path id="Trazado_721271" data-name="Trazado 721271" d="M451.221,217.757s-14.61-1.111-23.873,10.649-1.782,38.988,10.333,39.091,27.036-1.757,30.266-17.574S464.4,218.155,451.221,217.757Z" transform="translate(-5.643 -2.893)" fill="#ffcf83"/>
    <path id="Trazado_721272" data-name="Trazado 721272" d="M421.281,241.432s5.225-6.019,5.78-7.68l.791,1.662-6.573,6.019Z" transform="translate(-5.618 -3.107)" fill="#ffcf83"/>
    <path id="Trazado_721273" data-name="Trazado 721273" d="M425.1,232.426s.663-4.316,2.562-5.9c0,0-1.728,2.893-1.281,5.305s-1.282.592-1.282.592Z" transform="translate(-5.669 -3.01)" fill="#ffcf83"/>
    <path id="Trazado_721274" data-name="Trazado 721274" d="M427.674,263.318c.1.232-2.812-7.9-1.861-9.443l.552,0s.378,7.18,1.307,9.438Z" transform="translate(-5.676 -3.375)" fill="#ffcf83"/>
    <path id="Trazado_721275" data-name="Trazado 721275" d="M425.289,252.728s-2.179-.713-3.406,0a3.681,3.681,0,0,1,3.246.634C426.358,254.56,425.289,252.728,425.289,252.728Z" transform="translate(-5.626 -3.356)" fill="#ffcf83"/>
    <path id="Trazado_721276" data-name="Trazado 721276" d="M445.485,267.16a20.894,20.894,0,0,1-10.854-2.683c-3.732-2.283-6.168-5.964-7.244-10.943-1.832-8.473-.932-15.425,2.673-20.664,3.371-4.9,9.062-8.086,16.457-9.222a12.964,12.964,0,0,1,12.5,4.667c4.6,5.518,5.923,14.842,3.216,22.671-1.914,5.532-7.027,8.95-13.674,9.142-.19,0-.379.009-.567.009-6.7,0-12.734-3.424-14.806-8.455-2.112-5.129-2-10.147.308-14.127,2.348-4.043,6.78-6.672,12.484-7.4,5.161-.665,7.947,1.739,9.374,3.872,2.753,4.113,2.746,10.8.9,14.024-1.776,3.108-6.7,5.508-10.969,5.359a7.216,7.216,0,0,1-6.626-4.018,8.973,8.973,0,0,1,.275-9.038,6.72,6.72,0,0,1,5.652-3.2,3.8,3.8,0,0,1,3.516,3.755c.128,1.456-.369,3.075-1.563,3.354-2.224.518-3.011-.694-3.045-.746,0,0-1.2-1.982.293-2.266,1.711-.326,1.261,1,1.261,1,.024.036-.423,1.832,1.35,1.417.731-.172,1.213-1.36,1.094-2.705a3.181,3.181,0,0,0-2.941-3.2,6.09,6.09,0,0,0-5.11,2.929,8.374,8.374,0,0,0-.232,8.434,6.618,6.618,0,0,0,6.1,3.671c4.066.138,8.741-2.121,10.416-5.053,1.554-2.716,1.97-9.123-.877-13.382-1.908-2.852-4.947-4.1-8.787-3.605-5.509.708-9.783,3.231-12.034,7.106-2.214,3.812-2.312,8.638-.271,13.586s8.124,8.261,14.792,8.069c6.384-.184,11.287-3.447,13.114-8.73,2.642-7.638,1.365-16.717-3.108-22.079a12.388,12.388,0,0,0-11.936-4.454c-7.225,1.11-12.774,4.209-16.047,8.964-3.507,5.094-4.374,11.887-2.58,20.189,1.039,4.809,3.383,8.358,6.966,10.551,7.239,4.431,18.66,1.749,18.76,1.724l-1.292.7a30.432,30.432,0,0,1-6.933.782Z" transform="translate(-5.687 -2.969)" fill="#edbd77"/>
    <path id="Trazado_721277" data-name="Trazado 721277" d="M176.817,232.432s-6.3,24.306-5.734,26.226,3.729,8.448,3.729,8.448h-3.045a2.293,2.293,0,0,1-1.18-2.108c.05-1.507-4.218-7.381-4.218-7.381s1.674-9.331,0-13.007c-7.211-15.829,4.867-15.678,10.448-12.177Z" transform="translate(-2.185 -3.063)" fill="#cca283"/>
    <path id="Trazado_721278" data-name="Trazado 721278" d="M209.679,240.983s-1.808,13.057-1.908,13.861-.954,1.808-.9,3.113.5,5.725,1.908,6.83a4,4,0,0,1,1.557,2.46h-3.816a5.094,5.094,0,0,1-.553-2.209c.1-.9-1.055-1.858-1.1-3.716s0-5.322-.5-6.529-.352-9.493-2.009-11.35,7.331-2.46,7.331-2.46Z" transform="translate(-2.693 -3.203)" fill="#cca283"/>
    <path id="Trazado_721279" data-name="Trazado 721279" d="M167.66,236.352c-.041.6-.062,1.161-.062,1.723.1,14.135,14.094,9.9,14.592,9.526a2.99,2.99,0,0,1,1.514-.333c7,2.782,16.792.229,18.826-.6s7.452,1.224,9.963,1.038c1.016-.084,1.868-1.142,2.512-2.47a18.714,18.714,0,0,0,1.515-5.168,32.723,32.723,0,0,1,1.557-4.546c.353-.872.748-1.826,1.162-2.8.083-.167.145-.353.228-.52-.207-.228-.395-.478-.581-.727a30.452,30.452,0,0,1-2.719-4.856,24.416,24.416,0,0,0-3.2-5.252c-2.055-.644-4.5.52-5.521.458a28.327,28.327,0,0,1-3.4-.416c-.436-.083-.829-.145-1.2-.207-2.076-.312-14.654,1.307-23.538,1.556-1.826.063-3.487.042-4.878-.041-.1,0-.207-.021-.311-.021-3.716-.207-5.688.021-6.725.353-1.142.353-1.162.79-1.162.79C162.68,227.3,167.66,236.352,167.66,236.352Z" transform="translate(-2.196 -2.939)" fill="#efcdaf"/>
    <path id="Trazado_721280" data-name="Trazado 721280" d="M214.316,240.983s-1.809,13.057-1.908,13.861-.954,1.808-.9,3.113.5,5.725,1.908,6.83a4,4,0,0,1,1.556,2.46h-3.816a5.1,5.1,0,0,1-.552-2.209c.1-.9-1.055-1.858-1.105-3.716s0-5.322-.5-6.529-.351-9.493-2.009-11.35,7.332-2.46,7.332-2.46Z" transform="translate(-2.755 -3.203)" fill="#efcdaf"/>
    <path id="Trazado_721281" data-name="Trazado 721281" d="M180.8,237.954s-5.083,18.868-4.519,20.79,3.728,8.448,3.728,8.448h-3.044a2.3,2.3,0,0,1-1.181-2.108c.05-1.507-4.217-7.381-4.217-7.381s-.345-10.65-2.855-13.815S175.221,234.453,180.8,237.954Z" transform="translate(-2.241 -3.149)" fill="#efcdaf"/>
    <path id="Trazado_721282" data-name="Trazado 721282" d="M233.457,242.84c.206.277.386.473.386.473a7.892,7.892,0,0,0,.9.045,2.465,2.465,0,0,0,1.218-.332,1.524,1.524,0,0,0,.6-.709s-.174-.445-1.077-.562c-.666-.087-1.321-.55-1.879-.608a.8.8,0,0,0-.56.133C232.624,241.576,233.081,242.338,233.457,242.84Z" transform="translate(-3.103 -3.205)" fill="#efcdaf"/>
    <path id="Trazado_721283" data-name="Trazado 721283" d="M234.426,244.619c.026-.013.342.048.759.046a1.968,1.968,0,0,0,1.961-1.043s-.174-.445-1.077-.562a.79.79,0,0,1-.095-.016c-.582-.1-1.155-.469-1.656-.571a.851.851,0,0,0-.691.111.374.374,0,0,0-.163.275c-.083.623.961,1.76.961,1.76Z" transform="translate(-3.111 -3.223)" fill="#efcdaf"/>
    <path id="Trazado_721284" data-name="Trazado 721284" d="M213.453,225.272c.25,6.475,1.452,18.867,2.2,19.969a28.968,28.968,0,0,1,4.5.5c3.736.767,4.773,2.179,5.127,2.843a16.812,16.812,0,0,0,4.319,4.465c.56.1.892.829,1.473,2.013a2.706,2.706,0,0,0,2.615,1.328,2.067,2.067,0,0,0,1.723-1.349,8.325,8.325,0,0,1-.395-2.325c.062-1.162-.684-4.628-.062-5.564.395-.6.166-1.888-.041-2.762-.124-.519-.25-.871-.25-.871a2.387,2.387,0,0,0-.186-.415c-.125-.269-.27-.581-.437-.913-.186-.395-.436-.831-.706-1.306a53.874,53.874,0,0,0-5-7.307,49.508,49.508,0,0,0-8.1-8.053,36.019,36.019,0,0,0-6.62-4.152c-.208.083-.25,1.64-.167,3.9Z" transform="translate(-2.843 -2.941)" fill="#efcdaf"/>
    <path id="Trazado_721285" data-name="Trazado 721285" d="M210.152,237.585c-.132-.334-.064-6.017-4.165-7.184s-6.345.629-11.464-1.438-10.5-3.771-11.045-1.527.448,8.532,0,11.4,9.269,3.89,13.254,2.124,14.862.3,13.419-3.381Z" transform="translate(-2.441 -3.008)" fill="#003759"/>
    <path id="Trazado_721286" data-name="Trazado 721286" d="M166.2,223.882a10.3,10.3,0,0,0-3.1,6.308c-.448,4.041.809,21.794.809,21.794l1.024-.057,1.1-19.642Z" transform="translate(-2.17 -2.975)" fill="#003759"/>
    <path id="Trazado_721287" data-name="Trazado 721287" d="M165.111,254.611s-2.214-2.384-.838-2.922.838,1.076.838,1.7v1.218Z" transform="translate(-2.181 -3.345)" fill="#003759"/>
    <path id="Trazado_721288" data-name="Trazado 721288" d="M167.424,223.047c2.572,1.266,5.418,2.429,7.1,2.471,3.673.062,12.6-2.055,16.232-2.283s18.348,3.175,21.814,2.076a.575.575,0,0,1,.27-.041,6.9,6.9,0,0,1,3.363,1.349c.809.519,1.7,1.141,2.635,1.847a168.905,168.905,0,0,1,13.886,12.413,53.8,53.8,0,0,0-5-7.307,49.461,49.461,0,0,0-8.094-8.053,36.1,36.1,0,0,0-6.62-4.152c-2.055-.644-4.5.52-5.522.457a28.121,28.121,0,0,1-3.4-.415c-.436-.083-.829-.145-1.2-.207-2.077-.312-14.654,1.307-23.538,1.556-1.827.062-3.488.041-4.878-.041-.1,0-.207-.021-.312-.021-3.716-.208-5.687.021-6.725.353Z" transform="translate(-2.229 -2.939)" fill="#ffe7d7"/>
    <path id="Trazado_721289" data-name="Trazado 721289" d="M179.5,222.757c1.607,1.311,4.69,1.834,9.044,1.022,5.3-.988,6.555,1.347,10.955,1.526a4.38,4.38,0,0,0,4.738-3.9c-.428-.071-.833-.14-1.209-.2C200.968,220.9,188.378,222.5,179.5,222.757Z" transform="translate(-2.391 -2.939)" fill="#003759"/>
    <path id="Trazado_721290" data-name="Trazado 721290" d="M219.615,231.533a9.5,9.5,0,0,0,.353,1.245,10.337,10.337,0,0,0,.686,1.349c2.346,3.736.125,8.219-.415,11.664,3.736.768,4.773,2.179,5.127,2.844a16.79,16.79,0,0,0,4.319,4.464c.56.1.892.83,1.473,2.014a2.706,2.706,0,0,0,2.615,1.328,2.068,2.068,0,0,0,1.723-1.349,8.343,8.343,0,0,1-.395-2.326c.062-1.161-.684-4.628-.062-5.563.395-.6.166-1.889-.041-2.762a1.993,1.993,0,0,0,1.972-1.038s-.187-.457-1.079-.581h-.1a1.639,1.639,0,0,0,.6-.725s-.187-.437-1.078-.561c-.665-.083-1.328-.541-1.889-.6a53.8,53.8,0,0,0-5-7.306,49.423,49.423,0,0,0-8.094-8.053,12.361,12.361,0,0,0-.789,2.947,9.17,9.17,0,0,0,.083,3.009Z" transform="translate(-2.924 -2.997)" fill="#003759"/>
    <path id="Trazado_721291" data-name="Trazado 721291" d="M167.655,236.368c-.039.6-.055,1.176-.052,1.721,4.557,3.38,12.552,1.674,13.153-2.393.691-4.684-5.605-5.347-5.142-9.206a4.51,4.51,0,0,0-1.5-3.776c-7.818-.464-7.89,1.149-7.89,1.149-3.539,3.465,1.432,12.5,1.432,12.5Z" transform="translate(-2.196 -2.958)" fill="#003759"/>
    <path id="Trazado_721292" data-name="Trazado 721292" d="M126.484,56.351H287.55a10.33,10.33,0,0,1,10.324,10.325V166.864a10.33,10.33,0,0,1-10.324,10.325H126.484a10.328,10.328,0,0,1-10.322-10.323V66.675a10.33,10.33,0,0,1,10.324-10.325Z" transform="translate(-1.545 -0.739)" fill="#f8fcff" opacity="0.6"/>
    <path id="Trazado_721293" data-name="Trazado 721293" d="M182.872,95.873a26.129,26.129,0,1,1-21.336-25.7c-3.264,11.893-7.594,27.644-7.885,28.626.539-.848,16.441-7.977,27.3-12.78a26,26,0,0,1,1.926,9.857Z" transform="translate(-1.738 -0.917)" fill="#00aca7"/>
    <path id="Trazado_721294" data-name="Trazado 721294" d="M182.751,83.136c-9.589,4.225-25.473,11.306-25.981,12.108.275-.933,4.67-16.906,7.613-27.61a28.717,28.717,0,0,1,18.369,15.5Z" transform="translate(-2.087 -0.889)" fill="#00aca7"/>
    <path id="Trazado_721295" data-name="Trazado 721295" d="M247.443,64.343a2.173,2.173,0,1,1,2.173,2.173A2.173,2.173,0,0,1,247.443,64.343Z" transform="translate(-3.297 -0.816)" fill="#00aca7"/>
    <path id="Trazado_721296" data-name="Trazado 721296" d="M258.872,64.343a2.173,2.173,0,1,1,2.174,2.173A2.173,2.173,0,0,1,258.872,64.343Z" transform="translate(-3.45 -0.816)" fill="#00aca7"/>
    <path id="Trazado_721297" data-name="Trazado 721297" d="M274.378,65.879a2.173,2.173,0,1,0-3.072,0A2.173,2.173,0,0,0,274.378,65.879Z" transform="translate(-3.607 -0.816)" fill="#00aca7"/>
    <path id="Trazado_721298" data-name="Trazado 721298" d="M178.445,169.484H127.853v-16.1h50.592Zm-49.97-.622h49.349V154.007H128.475Z" transform="translate(-1.701 -2.034)" fill="#00aca7"/>
    <path id="Trazado_721299" data-name="Trazado 721299" d="M151.138,157.77H131.57v1.277h19.568Z" transform="translate(-1.751 -2.092)" fill="#00aca7"/>
    <path id="Trazado_721300" data-name="Trazado 721300" d="M167.378,157.77H153.492v1.277h13.886Z" transform="translate(-2.043 -2.092)" fill="#00aca7"/>
    <path id="Trazado_721301" data-name="Trazado 721301" d="M142.369,161.464h-10.8v1.277h10.8Z" transform="translate(-1.751 -2.142)" fill="#00aca7"/>
    <path id="Trazado_721302" data-name="Trazado 721302" d="M158.252,161.464H144.366v1.277h13.886Z" transform="translate(-1.922 -2.142)" fill="#00aca7"/>
    <path id="Trazado_721303" data-name="Trazado 721303" d="M173.783,161.464H159.9v1.277h13.886Z" transform="translate(-2.129 -2.142)" fill="#00aca7"/>
    <path id="Trazado_721304" data-name="Trazado 721304" d="M243.159,161.356H218.112v-7.969h25.047Zm-24.739-.308h24.432v-7.355H218.42Z" transform="translate(-2.906 -2.034)" fill="#00aca7"/>
    <path id="Trazado_721305" data-name="Trazado 721305" d="M229.638,155.558h-9.687v.631h9.687Z" transform="translate(-2.93 -2.063)" fill="#00aca7"/>
    <path id="Trazado_721306" data-name="Trazado 721306" d="M237.679,155.558H230.8v.631h6.874Z" transform="translate(-3.075 -2.063)" fill="#00aca7"/>
    <path id="Trazado_721307" data-name="Trazado 721307" d="M225.3,157.386h-5.347v.632H225.3Z" transform="translate(-2.93 -2.087)" fill="#00aca7"/>
    <path id="Trazado_721308" data-name="Trazado 721308" d="M233.161,157.386h-6.873v.632h6.873Z" transform="translate(-3.015 -2.087)" fill="#00aca7"/>
    <path id="Trazado_721309" data-name="Trazado 721309" d="M240.85,157.386h-6.874v.632h6.874Z" transform="translate(-3.118 -2.087)" fill="#00aca7"/>
    <path id="Trazado_721310" data-name="Trazado 721310" d="M273.429,161.356H248.382v-7.969h25.047Zm-24.739-.308h24.432v-7.355H248.69Z" transform="translate(-3.31 -2.034)" fill="#00aca7"/>
    <path id="Trazado_721311" data-name="Trazado 721311" d="M259.91,155.558h-9.689v.631h9.689Z" transform="translate(-3.334 -2.063)" fill="#00aca7"/>
    <path id="Trazado_721312" data-name="Trazado 721312" d="M267.948,155.558h-6.873v.631h6.873Z" transform="translate(-3.479 -2.063)" fill="#00aca7"/>
    <path id="Trazado_721313" data-name="Trazado 721313" d="M255.568,157.386h-5.347v.632h5.347Z" transform="translate(-3.334 -2.087)" fill="#00aca7"/>
    <path id="Trazado_721314" data-name="Trazado 721314" d="M263.431,157.386h-6.874v.632h6.874Z" transform="translate(-3.419 -2.087)" fill="#00aca7"/>
    <path id="Trazado_721315" data-name="Trazado 721315" d="M271.119,157.386h-6.873v.632h6.873Z" transform="translate(-3.522 -2.087)" fill="#00aca7"/>
    <path id="Trazado_721316" data-name="Trazado 721316" d="M243.159,125.429H218.112v-7.97h25.047Zm-24.739-.307h24.432v-7.355H218.42Z" transform="translate(-2.906 -1.554)" fill="#00aca7"/>
    <path id="Trazado_721317" data-name="Trazado 721317" d="M229.638,119.63h-9.687v.631h9.687Z" transform="translate(-2.93 -1.583)" fill="#00aca7"/>
    <path id="Trazado_721318" data-name="Trazado 721318" d="M237.679,119.63H230.8v.631h6.874Z" transform="translate(-3.075 -1.583)" fill="#00aca7"/>
    <path id="Trazado_721319" data-name="Trazado 721319" d="M225.3,121.457h-5.347v.631H225.3Z" transform="translate(-2.93 -1.608)" fill="#00aca7"/>
    <path id="Trazado_721320" data-name="Trazado 721320" d="M233.161,121.457h-6.873v.631h6.873Z" transform="translate(-3.015 -1.608)" fill="#00aca7"/>
    <path id="Trazado_721321" data-name="Trazado 721321" d="M240.85,121.457h-6.874v.631h6.874Z" transform="translate(-3.118 -1.608)" fill="#00aca7"/>
    <path id="Trazado_721322" data-name="Trazado 721322" d="M273.429,125.429H248.382v-7.97h25.047Zm-24.739-.307h24.432v-7.355H248.69Z" transform="translate(-3.31 -1.554)" fill="#00aca7"/>
    <path id="Trazado_721323" data-name="Trazado 721323" d="M259.91,119.63h-9.689v.631h9.689Z" transform="translate(-3.334 -1.583)" fill="#00aca7"/>
    <path id="Trazado_721324" data-name="Trazado 721324" d="M267.948,119.63h-6.873v.631h6.873Z" transform="translate(-3.479 -1.583)" fill="#00aca7"/>
    <path id="Trazado_721325" data-name="Trazado 721325" d="M255.568,121.457h-5.347v.631h5.347Z" transform="translate(-3.334 -1.608)" fill="#00aca7"/>
    <path id="Trazado_721326" data-name="Trazado 721326" d="M263.431,121.457h-6.874v.631h6.874Z" transform="translate(-3.419 -1.608)" fill="#00aca7"/>
    <path id="Trazado_721327" data-name="Trazado 721327" d="M271.119,121.457h-6.873v.631h6.873Z" transform="translate(-3.522 -1.608)" fill="#00aca7"/>
    <path id="Trazado_721328" data-name="Trazado 721328" d="M243.159,94.154H218.112v-7.97h25.047Zm-24.739-.307h24.432V86.492H218.42Z" transform="translate(-2.906 -1.137)" fill="#00aca7"/>
    <path id="Trazado_721329" data-name="Trazado 721329" d="M229.638,88.354h-9.687v.632h9.687Z" transform="translate(-2.93 -1.166)" fill="#00aca7"/>
    <path id="Trazado_721330" data-name="Trazado 721330" d="M237.679,88.354H230.8v.632h6.874Z" transform="translate(-3.075 -1.166)" fill="#00aca7"/>
    <path id="Trazado_721331" data-name="Trazado 721331" d="M225.3,90.183h-5.347v.632H225.3Z" transform="translate(-2.93 -1.19)" fill="#00aca7"/>
    <path id="Trazado_721332" data-name="Trazado 721332" d="M233.161,90.183h-6.873v.632h6.873Z" transform="translate(-3.015 -1.19)" fill="#00aca7"/>
    <path id="Trazado_721333" data-name="Trazado 721333" d="M240.85,90.183h-6.874v.632h6.874Z" transform="translate(-3.118 -1.19)" fill="#00aca7"/>
    <path id="Trazado_721334" data-name="Trazado 721334" d="M273.429,94.154H248.382v-7.97h25.047Zm-24.739-.307h24.432V86.492H248.69Z" transform="translate(-3.31 -1.137)" fill="#00aca7"/>
    <path id="Trazado_721335" data-name="Trazado 721335" d="M259.91,88.354h-9.689v.632h9.689Z" transform="translate(-3.334 -1.166)" fill="#00aca7"/>
    <path id="Trazado_721336" data-name="Trazado 721336" d="M267.948,88.354h-6.873v.632h6.873Z" transform="translate(-3.479 -1.166)" fill="#00aca7"/>
    <path id="Trazado_721337" data-name="Trazado 721337" d="M255.568,90.183h-5.347v.632h5.347Z" transform="translate(-3.334 -1.19)" fill="#00aca7"/>
    <path id="Trazado_721338" data-name="Trazado 721338" d="M263.431,90.183h-6.874v.632h6.874Z" transform="translate(-3.419 -1.19)" fill="#00aca7"/>
    <path id="Trazado_721339" data-name="Trazado 721339" d="M271.119,90.183h-6.873v.632h6.873Z" transform="translate(-3.522 -1.19)" fill="#00aca7"/>
    <path id="Trazado_721340" data-name="Trazado 721340" d="M201.389,81.1a2.834,2.834,0,1,1,2.835,2.833A2.835,2.835,0,0,1,201.389,81.1Z" transform="translate(-2.683 -1.031)" fill="#00aca7"/>
    <path id="Trazado_721341" data-name="Trazado 721341" d="M204.454,70.658h-.277a.454.454,0,0,0-.454.454V76.4a.454.454,0,0,0,.454.454h.277a.454.454,0,0,0,.454-.454v-5.29A.454.454,0,0,0,204.454,70.658Z" transform="translate(-2.714 -0.93)" fill="#00aca7"/>
    <path id="Trazado_721342" data-name="Trazado 721342" d="M204.454,85.524h-.277a.454.454,0,0,0-.454.454v5.29a.454.454,0,0,0,.454.454h.277a.454.454,0,0,0,.454-.454v-5.29A.454.454,0,0,0,204.454,85.524Z" transform="translate(-2.714 -1.128)" fill="#00aca7"/>
    <path id="Trazado_721343" data-name="Trazado 721343" d="M207.708,83.869l.163-.223a.455.455,0,0,1,.635-.1l4.271,3.117a.456.456,0,0,1,.1.635l-.163.223a.456.456,0,0,1-.635.1L207.806,84.5A.454.454,0,0,1,207.708,83.869Z" transform="translate(-2.766 -1.101)" fill="#00aca7"/>
    <path id="Trazado_721344" data-name="Trazado 721344" d="M195.7,75.107l.163-.223a.456.456,0,0,1,.635-.1l4.271,3.117a.455.455,0,0,1,.1.635l-.163.223a.455.455,0,0,1-.635.1L195.8,75.742A.456.456,0,0,1,195.7,75.107Z" transform="translate(-2.606 -0.984)" fill="#00aca7"/>
    <path id="Trazado_721345" data-name="Trazado 721345" d="M200.9,83.984l.184.206a.456.456,0,0,1-.036.642l-3.943,3.524a.456.456,0,0,1-.642-.036l-.184-.206a.454.454,0,0,1,.036-.641l3.943-3.524a.455.455,0,0,1,.641.036Z" transform="translate(-2.613 -1.106)" fill="#00aca7"/>
    <path id="Trazado_721346" data-name="Trazado 721346" d="M211.986,74.078l.184.206a.455.455,0,0,1-.036.642l-3.942,3.524a.455.455,0,0,1-.641-.036l-.184-.206a.455.455,0,0,1,.037-.641l3.943-3.524a.454.454,0,0,1,.64.036Z" transform="translate(-2.761 -0.973)" fill="#00aca7"/>
    <path id="Trazado_721347" data-name="Trazado 721347" d="M199.822,80.942l0,.275a.455.455,0,0,1-.459.448l-5.288-.059a.455.455,0,0,1-.448-.459l0-.275a.456.456,0,0,1,.46-.448l5.287.059A.454.454,0,0,1,199.822,80.942Z" transform="translate(-2.579 -1.06)" fill="#00aca7"/>
    <path id="Trazado_721348" data-name="Trazado 721348" d="M208.5,81.32l0-.275a.455.455,0,0,1,.459-.449l5.287.06a.454.454,0,0,1,.449.459l0,.275a.454.454,0,0,1-.459.448l-5.287-.06A.454.454,0,0,1,208.5,81.32Z" transform="translate(-2.778 -1.062)" fill="#00aca7"/>
    <path id="Trazado_721349" data-name="Trazado 721349" d="M274.579,82.917H218.112v-4.58h56.467Zm-55.932-.537h55.4V78.873h-55.4Z" transform="translate(-2.906 -1.032)" fill="#00aca7"/>
    <path id="Trazado_721350" data-name="Trazado 721350" d="M262.215,78.61H218.384v4.043h43.831Z" transform="translate(-2.91 -1.036)" fill="#00aca7"/>
    <path id="Trazado_721351" data-name="Trazado 721351" d="M200.354,113.168c0-3.7,5.675-10.676,5.675-10.676s5.676,6.976,5.676,10.676-2.54,6.7-5.676,6.7S200.354,116.87,200.354,113.168Z" transform="translate(-2.669 -1.355)" fill="#00aca7"/>
    <path id="Trazado_721352" data-name="Trazado 721352" d="M274.579,113.556H218.112v-4.58h56.467Zm-55.932-.536h55.4v-3.508h-55.4Z" transform="translate(-2.906 -1.441)" fill="#00aca7"/>
    <path id="Trazado_721353" data-name="Trazado 721353" d="M245.17,109.248H218.384v4.043H245.17Z" transform="translate(-2.91 -1.445)" fill="#00aca7"/>
    <path id="Trazado_721354" data-name="Trazado 721354" d="M208.491,150.095V135.28h-3.2v14.815a3.373,3.373,0,1,0,3.2,0Z" transform="translate(-2.711 -1.792)" fill="#00aca7"/>
    <path id="Trazado_721355" data-name="Trazado 721355" d="M274.579,148.262H218.112v-4.58h56.467Zm-55.932-.535h55.4v-3.509h-55.4Z" transform="translate(-2.906 -1.904)" fill="#00aca7"/>
    <path id="Trazado_721356" data-name="Trazado 721356" d="M255.136,143.954H218.384V148h36.752Z" transform="translate(-2.91 -1.908)" fill="#00aca7"/>
    <path id="Trazado_721357" data-name="Trazado 721357" d="M204.72,153.262a2.188,2.188,0,1,1,2.188,2.188A2.188,2.188,0,0,1,204.72,153.262Z" transform="translate(-2.727 -2.003)" fill="#00aca7"/>
    <path id="Trazado_721358" data-name="Trazado 721358" d="M207.533,145.348h-1.3V152.2h1.3Z" transform="translate(-2.747 -1.927)" fill="#00aca7"/>
    <path id="Trazado_721359" data-name="Trazado 721359" d="M133.445,140.971h-5.276v7.336h5.276Z" transform="translate(-1.705 -1.868)" fill="#00aca7"/>
    <path id="Trazado_721360" data-name="Trazado 721360" d="M142.6,136.042h-5.276v12.2H142.6Z" transform="translate(-1.828 -1.802)" fill="#00aca7"/>
    <path id="Trazado_721361" data-name="Trazado 721361" d="M151.766,132H146.49v16.182h5.276Z" transform="translate(-1.95 -1.749)" fill="#00aca7"/>
    <path id="Trazado_721362" data-name="Trazado 721362" d="M160.926,135.282H155.65v12.949h5.276Z" transform="translate(-2.072 -1.792)" fill="#00aca7"/>
    <path id="Trazado_721363" data-name="Trazado 721363" d="M170.087,128.295h-5.276v19.842h5.276Z" transform="translate(-2.194 -1.699)" fill="#00aca7"/>
    <path id="Trazado_721364" data-name="Trazado 721364" d="M179.247,124.708h-5.276v23.381h5.276Z" transform="translate(-2.317 -1.651)" fill="#00aca7"/>
    <path id="Trazado_721365" data-name="Trazado 721365" d="M155.5,107.941H144.366v1.021H155.5Z" transform="translate(-1.922 -1.427)" fill="#fff"/>
    <path id="Trazado_721366" data-name="Trazado 721366" d="M161.426,110.311h-17.06v1.022h17.06Z" transform="translate(-1.922 -1.459)" fill="#fff"/>
    <path id="Trazado_721367" data-name="Trazado 721367" d="M175.528,76.635H164.4v1.022h11.133Z" transform="translate(-2.189 -1.01)" fill="#fff"/>
    <path id="Trazado_721368" data-name="Trazado 721368" d="M171.364,79.006H164.4v1.021h6.969Z" transform="translate(-2.189 -1.041)" fill="#fff"/>
    <path id="Trazado_721369" data-name="Trazado 721369" d="M385.017,99.735s21.113,24,28.481,38.807c0,0-8.858,19.285-37.571,34.951a9.928,9.928,0,0,1-3.224-1.67c-3.039-2.17.329-3.759.994-4.19,7.284-4.718,20.012-25.044,20.381-26.808s-15.953-17.581-20.912-23.43,4.141-20.674,11.852-17.661Z" transform="translate(-4.953 -1.313)" fill="#ffb27d"/>
    <path id="Trazado_721370" data-name="Trazado 721370" d="M328.372,99.05s-27.634,26.308-34.023,25.612-31.384-6.734-31.384-6.734l-2.085,4.787s25.082,14.725,37.126,14.514,27.811-11.686,27.811-11.686Z" transform="translate(-3.477 -1.309)" fill="#ffb27d"/>
    <path id="Trazado_721371" data-name="Trazado 721371" d="M349.405,63.974s.136,2.959-1.637,3.537,1.828,6.962,1.544,11.275-2.189,6.043-2.189,6.043.916-2.372.4-3.839c0,0,.082,3.051-2.145,4.59s-1.629,2.869-1.629,2.869-5.035-1.508-5.176-5.283a9.944,9.944,0,0,0-.041,2.414s-4.347-3.264-4.553-7.024,3.422-6.935,5.075-6.992,5.341-3.3,5.242-4.53,5.108-3.058,5.108-3.058Z" transform="translate(-4.452 -0.841)" fill="#003759"/>
    <path id="Trazado_721372" data-name="Trazado 721372" d="M335.5,42.522c2.929-4.448,14.56-1.958,25.977,5.561s18.3,17.221,15.369,21.669-14.56,1.958-25.978-5.561S332.574,46.97,335.5,42.522Z" transform="translate(-4.464 -0.525)" fill="#e2af64"/>
    <path id="Trazado_721373" data-name="Trazado 721373" d="M360.77,202.906c-3.166,16.781-7.244,39.612-10.39,57.473-.372,2.108-.732,4.146-1.074,6.1-.078.451-.156.9-.234,1.339H317.62q-.068-.673-.126-1.339a234.045,234.045,0,0,1-.337-39.823c.337-4.328.782-8.319,1.276-11.939,2.069-21.377,2.766-30.436,2.975-33.432l.045-.659c0-.04,0-.078.007-.111l.007-.1c0-.061.008-.114.01-.162l.007-.131c0-.045,0-.064,0-.064l10.722,3.19,5.244,1.56,1.236,3.927,2.473,7.854,17.95,5.792,1.661.534Z" transform="translate(-4.219 -2.39)" fill="#00aca7"/>
    <path id="Trazado_721374" data-name="Trazado 721374" d="M381.5,207.057c-.542,8.72-1.436,39.465-2.433,59.342-.022.454-.044.9-.067,1.339H346.4q-.151-.664-.3-1.339c-3.461-15.565-6.3-33.044-8.326-47.23-.357.016-4.08-25.336-13.409-36.513-.085-.1-.1-.181-.045-.241.463-.594,6.383.433,6.383.433a13.274,13.274,0,0,0,1.613.317c4.477.615,10.978-.376,17.427-1.879h0c1.743-.407,3.478-.85,5.173-1.311,4.775-1.3,9.2-2.72,12.351-3.792.782-.264,1.486-.51,2.1-.725.5-.175.931-.331,1.3-.463h0c.879-.317,1.369-.5,1.369-.5s.222.194.6.6a31.748,31.748,0,0,1,6.4,11.269,52.678,52.678,0,0,1,2.471,20.7Z" transform="translate(-4.323 -2.316)" fill="#01d8d1"/>
    <path id="Trazado_721375" data-name="Trazado 721375" d="M342.029,42.914l20.523,31.138s2.345-4.6,4.951-2.949c4.066,2.569,12.8-6.225,10.979-18.639-.119-.812-.263-1.583-.42-2.317-4.1-5.9-8.642-12.468-11.906-17.086-9.424-5.693-24.13,9.852-24.13,9.852Z" transform="translate(-4.56 -0.411)" fill="#003759"/>
    <path id="Trazado_721376" data-name="Trazado 721376" d="M332.886,106.352a35.024,35.024,0,0,0,11.436,6.817c18.123,6.869,27.446-7.971,31.614-18.461a16.237,16.237,0,0,0-6.074-2.81c-1.065-.275-2.18-.521-3.182-.72a2.03,2.03,0,0,1-1.3-.857c-1.728-2.609-3.476-9.218-2.847-18.511l-.913.116-15.3,2.031s.038,4.779-.234,9.255a46,46,0,0,1-.557,5.2,3.081,3.081,0,0,1-2.732,2.5s0,.005-.009.012a95.765,95.765,0,0,0-9.907,15.422Z" transform="translate(-4.438 -0.945)" fill="#ffb27d"/>
    <path id="Trazado_721377" data-name="Trazado 721377" d="M346.5,73.962s.041,4.775-.234,9.255c8.469.3,13.428-7.127,15.53-11.286L346.5,73.96Z" transform="translate(-4.616 -0.947)" fill="#ed985f"/>
    <path id="Trazado_721378" data-name="Trazado 721378" d="M343.3,77.653s19.98,1.6,20.786-10.855,3.929-20.641-8.794-22.19-15.51,3.042-16.791,7.135S338.124,76.915,343.3,77.653Z" transform="translate(-4.506 -0.578)" fill="#ffb27d"/>
    <path id="Trazado_721379" data-name="Trazado 721379" d="M339.522,44.821c3.33-3.551,5.613-2.58,6.851-1.37,11.315-5.314,17.792,4.02,17.792,4.02a23.841,23.841,0,0,0,6.89,14.555s-3.789,2.021-12.055-.677a14.33,14.33,0,0,1-6.508-5.13,46.779,46.779,0,0,0,7.4,10.319c-9.742-5.279-12.885-19.5-13.194-21-1.292,1.018-3.849,3.246-4.732,5.535-1.2,3.11-2.064,9.611-3.953,9.269,0,0-3.495-10.2,1.5-15.523Z" transform="translate(-4.49 -0.545)" fill="#003759"/>
    <path id="Trazado_721380" data-name="Trazado 721380" d="M378.957,58.553s9.291-18.494-3.693-25.806-22.489-4.439-29.631,4.5Z" transform="translate(-4.608 -0.368)" fill="#edbd77"/>
    <path id="Trazado_721381" data-name="Trazado 721381" d="M379.012,128.221c.711.741,1.156,1.158,1.156,1.158,15.135-1.884,15.845-17.425,15.845-17.425S384.167,96.332,373.108,92.9a58.16,58.16,0,0,0-6.73-1.46c-3.461,2.869-7.447,7.075-11.2,10.495-4.322,3.943-11.761,5.281-14.513-1.711-1.1-2.8,1.548-8.614,1.819-9.033l.009-.014c-.284.019-.56.04-.831.057-1.356.109-2.576.274-3.686.386-5.4.542-12.853,4.119-27.916,23.186,0,0,8.139,10.052,16.409,10.638-.333,15.926,1.378,41.867,1.378,41.867-3.612,7.1,50.051,23.557,52.368,16.781,3.473-5.3.007-15.448-3-23.228-.736-1.9-.9-3.922-1.553-5.392a17.748,17.748,0,0,1-1-2.9,17.21,17.21,0,0,1-.173-7.627,163.536,163.536,0,0,1,4.516-16.717Z" transform="translate(-4.133 -1.204)" fill="#00aca7"/>
    <path id="Trazado_721382" data-name="Trazado 721382" d="M379.7,56.237q-.586-.6-1.207-1.212h0A89.117,89.117,0,0,0,363.52,43.447,92.977,92.977,0,0,0,349.692,36.3h0q-1.308-.54-2.581-1c-10.11-3.7-18.258-3.979-20.724-.026-2.6,4.169,1.8,11.933,10.425,19.808h0c-.007-.068-.016-.133-.023-.2s-.011-.137-.018-.206-.014-.158-.021-.239c0-.059-.009-.116-.014-.177,0-.1-.01-.2-.017-.3-.007-.125-.014-.249-.018-.377,0-.014,0-.029,0-.045,0-.092-.007-.185-.009-.279v-.087c0-.061,0-.121,0-.184,0-.218,0-.442,0-.663,0-.078,0-.159.007-.237,0-.045,0-.09,0-.133.006-.074.007-.147.014-.218.007-.137.016-.27.028-.4s.025-.268.038-.4c0-.007,0-.016,0-.022,0-.049.01-.1.016-.145,0-.031.007-.062.01-.092.014-.094.025-.187.038-.281.021-.154.044-.306.074-.457,0-.024.009-.052.014-.076.032-.18.068-.36.109-.539.017-.09.039-.178.062-.265,0-.01,0-.022.007-.033-.922-1.941-1.089-3.621-.337-4.826.87-1.4,2.851-1.962,5.54-1.785h.006l.223.017h0a21.65,21.65,0,0,1,3.236.519h0c.272.062.548.13.828.2,1.018.268,2.087.6,3.193,1h.014A56.95,56.95,0,0,1,360.432,49.4c1.519.949,2.959,1.934,4.3,2.936h0c.133.1.268.2.4.3,6.22,4.718,10.328,9.786,10.8,13.287a3.57,3.57,0,0,1-.428,2.426,1.571,1.571,0,0,1-.108.156c-.006.009-.009.016-.014.022a3.278,3.278,0,0,1-1.082.932l-.006,0a1.589,1.589,0,0,1-.184.1s0,0,0,0a5.671,5.671,0,0,1-1.585.481h0c-.057.047-.116.092-.176.137-.041.033-.086.067-.131.1s-.085.062-.13.094a.283.283,0,0,0-.039.029c-.076.048-.149.1-.223.149-.116.076-.234.147-.35.216-.057.033-.115.067-.173.1s-.116.062-.175.092c-.078.04-.155.078-.233.114a.629.629,0,0,1-.086.04l-.087.038s0,0,0,0-.014.007-.021.009l-.108.045c-.054.021-.106.043-.158.061s-.131.048-.2.069-.125.04-.185.055l-.018.007-.152.038c-.018.007-.037.01-.055.016-.047.01-.094.022-.142.031s-.116.022-.177.031c-.037.007-.071.01-.108.016s-.085.01-.126.016-.11.01-.165.014c-.022,0-.044,0-.067,0h-.026a.354.354,0,0,1-.043,0h-.016c-.021,0-.038,0-.059,0a3.531,3.531,0,0,1-.431-.026,2.936,2.936,0,0,1-.411-.083c-.068-.021-.134-.04-.2-.062-.048-.017-.1-.038-.146-.059s-.071-.029-.107-.047-.057-.026-.087-.042a.481.481,0,0,1-.076-.04,1.542,1.542,0,0,1-.149-.087,2.336,2.336,0,0,0-.307-.164c-.033-.016-.067-.029-.1-.042l-.039-.016a.958.958,0,0,0-.147-.048,1.976,1.976,0,0,0-.577-.085H366.1a.121.121,0,0,0-.021,0h-.028a.482.482,0,0,0-.071.005.447.447,0,0,0-.047,0c-.042.005-.083.009-.122.016l-.014,0c-.018,0-.038.007-.055.01a.59.59,0,0,0-.1.021c-.032.007-.062.016-.095.024s-.073.021-.111.033l-.072.026a.649.649,0,0,0-.11.043h0a.9.9,0,0,0-.085.036c-.026.014-.053.024-.078.038s-.06.031-.092.047l-.087.047-.09.054c-.03.017-.055.036-.085.054s-.057.036-.086.055a.554.554,0,0,0-.085.061,1.952,1.952,0,0,0-.165.125.8.8,0,0,0-.08.064c-.026.022-.053.045-.08.069-.053.045-.106.092-.156.139s-.1.093-.152.145c-.025.024-.048.048-.073.076s-.048.048-.071.074-.053.054-.078.08h0q1.465.605,2.886,1.12a52.527,52.527,0,0,0,8.461,2.357c5.964,1.073,10.43.376,12.146-2.374,2.286-3.667-.843-10.11-7.492-16.97Z" transform="translate(-4.341 -0.419)" fill="#ffcf83"/>
    <path id="Trazado_721383" data-name="Trazado 721383" d="M368.247,162.371c7.728,2.476,4.12-1.761,10.091-1.33-.736-1.9-1.28-3.619-1.936-5.087a17.682,17.682,0,0,1-1-2.9,17.2,17.2,0,0,1-.174-7.627,148.568,148.568,0,0,1,4.516-16.718c-1.707-4.487-9,2.869-9,2.869s-6.75,7.091-4.984,19.149c1.647,11.233-4.186,9.51,2.481,11.648Z" transform="translate(-4.866 -1.685)" fill="#00817d"/>
    <path id="Trazado_721384" data-name="Trazado 721384" d="M373.7,92.909A39.678,39.678,0,0,0,358.026,117.7l-3.774-1.2s1.589-12.115,16.026-24.443c0,0,1.087.215,1.452.306C372.221,92.487,373.7,92.909,373.7,92.909Z" transform="translate(-4.723 -1.215)" fill="#01d8d1"/>
    <path id="Trazado_721385" data-name="Trazado 721385" d="M329.285,118.113l3.952.259a40.083,40.083,0,0,1,8.688-27.14c-1.356.109-2.585.241-3.687.386C330.216,103.865,329.285,118.113,329.285,118.113Z" transform="translate(-4.39 -1.204)" fill="#01d8d1"/>
    <path id="Trazado_721386" data-name="Trazado 721386" d="M357.21,127.283c.244-1.039,2.663-11.131,2.663-11.131s.557-3.156-4.989-3.468-25.219-1.349-25.219-1.349a6.131,6.131,0,0,0-2.72,4.938c-.039,3.319-2.716,22.314-2.716,22.314l-2.755,41.777,59.993,25.85s4.113-21.114-.492-35.83c-2.685-8.583-6.15-17.545-6.15-17.545s-21.349-9.691-17.614-25.554Z" transform="translate(-4.285 -1.473)" fill="#01d8d1"/>
    <path id="Trazado_721387" data-name="Trazado 721387" d="M358.189,116.53a1.657,1.657,0,1,0-2.081,1.078A1.657,1.657,0,0,0,358.189,116.53Z" transform="translate(-4.732 -1.513)" fill="#00817d"/>
    <path id="Trazado_721388" data-name="Trazado 721388" d="M357.9,116.439a1.657,1.657,0,1,0-2.08,1.078,1.659,1.659,0,0,0,2.08-1.078Z" transform="translate(-4.729 -1.512)" fill="#00aca7"/>
    <path id="Trazado_721389" data-name="Trazado 721389" d="M357.379,115.954a.241.241,0,1,0-.241.241A.24.24,0,0,0,357.379,115.954Z" transform="translate(-4.758 -1.531)" fill="#01d8d1"/>
    <path id="Trazado_721390" data-name="Trazado 721390" d="M355.785,115.957a.24.24,0,1,0-.24.241A.24.24,0,0,0,355.785,115.957Z" transform="translate(-4.737 -1.531)" fill="#01d8d1"/>
    <path id="Trazado_721391" data-name="Trazado 721391" d="M333.467,114.4a1.658,1.658,0,1,0-2.082,1.078A1.657,1.657,0,0,0,333.467,114.4Z" transform="translate(-4.402 -1.485)" fill="#00817d"/>
    <path id="Trazado_721392" data-name="Trazado 721392" d="M333.179,114.3a1.658,1.658,0,1,0-2.081,1.078A1.658,1.658,0,0,0,333.179,114.3Z" transform="translate(-4.398 -1.484)" fill="#00aca7"/>
    <path id="Trazado_721393" data-name="Trazado 721393" d="M332.656,113.82a.241.241,0,1,0-.241.241A.24.24,0,0,0,332.656,113.82Z" transform="translate(-4.428 -1.503)" fill="#01d8d1"/>
    <path id="Trazado_721394" data-name="Trazado 721394" d="M331.061,113.824a.241.241,0,1,0-.241.24A.24.24,0,0,0,331.061,113.824Z" transform="translate(-4.407 -1.503)" fill="#01d8d1"/>
    <path id="Trazado_721395" data-name="Trazado 721395" d="M376.4,66.38s.137,2.957-1.636,3.537,1.828,6.962,1.546,11.275-2.19,6.043-2.19,6.043.917-2.372.4-3.839c0,0,.082,3.051-2.145,4.59s-1.63,2.869-1.63,2.869-5.035-1.508-5.175-5.284a9.945,9.945,0,0,0-.041,2.414s-4.348-3.264-4.553-7.024,3.421-6.934,5.074-6.992,5.342-3.3,5.243-4.53,5.108-3.058,5.108-3.058Z" transform="translate(-4.813 -0.873)" fill="#003759"/>
    <path id="Trazado_721396" data-name="Trazado 721396" d="M349.5,71.033s-2.976,1.8-5.1,1.595c-2.1-.208-3.241-2.739-3.241-2.739A17.586,17.586,0,0,1,349.5,71.033Z" transform="translate(-4.548 -0.918)" fill="#fff2e9"/>
    <path id="Trazado_721397" data-name="Trazado 721397" d="M368.012,179.632h-40.1a5.072,5.072,0,0,1-4.273-3.038l-10.094-24.849c-.683-1.677.126-3.039,1.8-3.039h40.1a5.073,5.073,0,0,1,4.273,3.039l10.094,24.849C370.5,178.271,369.69,179.632,368.012,179.632Z" transform="translate(-4.176 -1.972)" fill="#01d8d1"/>
    <path id="Trazado_721398" data-name="Trazado 721398" d="M365.587,179.632h-40.1a5.075,5.075,0,0,1-4.273-3.038l-10.094-24.849c-.682-1.677.127-3.039,1.8-3.039h40.1a5.076,5.076,0,0,1,4.273,3.039l10.094,24.849C368.073,178.271,367.264,179.632,365.587,179.632Z" transform="translate(-4.144 -1.972)" fill="#00aca7"/>
    <path id="Trazado_721399" data-name="Trazado 721399" d="M315.172,150.637a2.324,2.324,0,0,1,1.951,1.388c.31.764-.06,1.389-.824,1.389a2.326,2.326,0,0,1-1.952-1.389C314.038,151.262,314.409,150.637,315.172,150.637Z" transform="translate(-4.189 -1.997)" fill="#01d8d1"/>
    <path id="Trazado_721400" data-name="Trazado 721400" d="M319.644,151.223a1.355,1.355,0,0,1,1.139.81c.181.445-.035.811-.48.811a1.362,1.362,0,0,1-1.14-.811C318.982,151.588,319.2,151.223,319.644,151.223Z" transform="translate(-4.254 -2.005)" fill="#01d8d1"/>
    <path id="Trazado_721401" data-name="Trazado 721401" d="M335.547,163.541c-.668-1.647.122-2.984,1.771-2.984a4.974,4.974,0,0,1,4.193,2.984c.669,1.647-.122,2.982-1.771,2.982A4.977,4.977,0,0,1,335.547,163.541Z" transform="translate(-4.47 -2.13)" fill="#01d8d1"/>
    <path id="Trazado_721402" data-name="Trazado 721402" d="M373.486,168.793s-5.512-3.144-6.842-4.6c-.856-.938-.909.268-.853.608a4.642,4.642,0,0,0,1.782,3.309c2.257,1.846,5.916.681,5.916.681Z" transform="translate(-4.877 -2.174)" fill="#ffb27d"/>
    <path id="Trazado_721403" data-name="Trazado 721403" d="M373.316,168.823s-9.945-2.988-12.234-2.727-7.521,1.888-7.942,2.315,1.379.874,2.75.473a11.722,11.722,0,0,1,4.521.064,69.981,69.981,0,0,0-6.972,1.823.205.205,0,0,0-.044.346,3.606,3.606,0,0,0,2.425.259,42.763,42.763,0,0,1,4.878-.2l-6.337,1.378a.167.167,0,0,0-.135.168c.011.3.516.623,2,.691a48.315,48.315,0,0,0,5.006-.52l-3.442,1.816a2.993,2.993,0,0,0,2.592.018c1.2-.4,4.8-1.3,5.633-1.124s4.974,1.638,6.93,1.388a11.136,11.136,0,0,0,2.741-.606l-2.365-5.56Z" transform="translate(-4.707 -2.203)" fill="#ffb27d"/>
    <path id="Trazado_721404" data-name="Trazado 721404" d="M262.787,118.08s-4.991-5.331-6.824-5.966-8.379-1.74-8.379-1.74.026,1.565,2.955,2.647,3.543,6.161,5.276,7.6,6.312,2.683,6.312,2.683Z" transform="translate(-3.299 -1.46)" fill="#ffb27d"/>
    <path id="Trazado_721405" data-name="Trazado 721405" d="M260.743,122.975s-4.862-.213-6.441-1.206-4.153-2.289-3.656-3.078,5.858-.193,5.858-.193l4.241,4.477Z" transform="translate(-3.339 -1.565)" fill="#ffb27d"/>
    <path id="Trazado_721406" data-name="Trazado 721406" d="M255.584,113.019c-.255-.114-6.738-4.448-6.738-4.448s-.545,2.053.408,2.445,6.329,2,6.329,2Z" transform="translate(-3.314 -1.436)" fill="#ffb27d"/>
    <path id="Trazado_721407" data-name="Trazado 721407" d="M401.2,155.529a108.391,108.391,0,0,1-25.276,18.712,9.931,9.931,0,0,1-3.223-1.67c-3.037-2.17.327-3.759.994-4.188,3.3-2.138,7.723-7.484,11.6-12.853h15.9Z" transform="translate(-4.953 -2.063)" fill="#ffb27d"/>
    <path id="Trazado_721408" data-name="Trazado 721408" d="M77.187,268.211H28.606c-.007-.017-.014-.037-.021-.053-.061-.16-.14-.372-.242-.646l-.04-.079v-.04a.155.155,0,0,1-.04-.083,11.347,11.347,0,0,1-.448-1.141c-.083-.206-.163-.451-.286-.695v-.083l-.04-.04c-.561-1.454-1.254-3.35-2.055-5.639-.071-.208-.146-.417-.222-.628-.6-1.731-1.26-3.667-1.963-5.8q-.486-1.5-1-3.136c4.8-1.337,11.078-2.258,16.665-.444a21.115,21.115,0,0,1,7.954,4.635c3.846,3.5,5.435,6.959,9.913,5.614a16.107,16.107,0,0,1,3.878-.6c7.206-.324,17.173,2.718,16.527,8.854Z" transform="translate(-0.292 -3.306)" fill="#82b378"/>
    <path id="Trazado_721409" data-name="Trazado 721409" d="M.966,267.643H504.823a.572.572,0,0,1,.571.572v.2a.572.572,0,0,1-.571.571H.966a.572.572,0,0,1-.571-.571v-.2a.572.572,0,0,1,.571-.571Z" transform="translate(0 -3.559)" fill="#003759"/>
  </g>
</svg>
