<svg xmlns="http://www.w3.org/2000/svg" xmlns:xlink="http://www.w3.org/1999/xlink" width="142" height="142" viewBox="0 0 142 142">
  <defs>
    <clipPath id="clip-path">
      <rect id="Rectángulo_350180" data-name="Rectángulo 350180" width="108.176" height="108.981" fill="none"/>
    </clipPath>
  </defs>
  <g id="Grupo_1018034" data-name="Grupo 1018034" transform="translate(-728.668 -4797)">
    <circle id="Elipse_5853" data-name="Elipse 5853" cx="71" cy="71" r="71" transform="translate(728.668 4797)" fill="#fff"/>
    <g id="Grupo_1017421" data-name="Grupo 1017421" transform="translate(748.08 4813.51)">
      <g id="Grupo_1017420" data-name="Grupo 1017420" clip-path="url(#clip-path)">
        <path id="Trazado_718408" data-name="Trazado 718408" d="M15.152,108.839c-3.2.179-3.2.179-3.2-2.871,0-1.985-.015-3.97,0-5.954.035-3.6,1.562-5.707,4.937-6.784.523-.167,1.149-.029,1-.942-.867-5.28-.073-10.608-.459-15.931-.439-.4-.734.1-1.066.25-5.607,2.527-11.472-1.044-11.593-7.2-.118-6.023-.046-12.05-.014-18.075.006-1.152-.079-1.8-1.527-2.149a4.122,4.122,0,0,1-3.2-4.257Q-.02,28.768.036,12.607A4.42,4.42,0,0,1,4.262,8.113a2.309,2.309,0,0,0,2.1-1.37A12.083,12.083,0,0,1,17.416.061Q41.449-.067,65.483.053A12.105,12.105,0,0,1,76.577,6.676a2.265,2.265,0,0,0,2.5,1.373,18.719,18.719,0,0,1,2.338,0,4.632,4.632,0,0,1,4.757,4.466c.134,1.334.075,2.69.076,4.036q.008,13.4,0,26.793c-.005,4.532-1.623,6.234-6.126,6.119-1.879-.048-3.045.334-4.017,2.149a10.366,10.366,0,0,1-7.311,5.364c-2.53.486-1.691,2.205-1.682,3.557.011,1.725,1.482.925,2.276.938,4.678.078,9.358.02,14.037.043,6.078.03,9.172,3.106,9.214,9.138.019,2.693.05,5.388-.018,8.08-.029,1.165.272,1.665,1.534,1.593a44.81,44.81,0,0,1,4.888.03,9.5,9.5,0,0,1,3.34,18.238,2.632,2.632,0,0,0-1.856,2.19,6.064,6.064,0,0,1-4.974,4.907c-.523.126-1.568-.146-1.409.835.486,3-1.451,2.474-3.182,2.315-.017-2.979-.017-2.979-3.073-2.979q-31.137,0-62.274-.016c-3.423-.006-6.868.39-10.459-.588ZM91.109,102.5c.84.03,1.681.047,2.52.094a3.426,3.426,0,0,0,3.328-1.368c.272-.4.616-.837.447-1.352-.211-.643-.815-.378-1.252-.381-1.121-.009-2.241.05-3.362.082-.776-.031-1.552-.089-2.328-.089q-23.681-.008-47.361,0c-4.67,0-9.34.052-14.01.081-1.121-.083-2.256-.09-3.361-.277-.742-.126-.893.049-1.059.768-.6,2.583-.644,2.575,1.961,2.532.35-.006.7-.057,1.05-.088.776.029,1.551.084,2.327.084q25.568.008,51.135,0c3.322,0,6.643-.055,9.965-.085M42.966,83.523H34.4c3.079,4.316,2.918,8.457.124,12.6h8.477c8.48.029,16.959.081,25.438.081,8.268,0,16.535-.052,24.8-.082,1.694.029,3.389.106,5.082.075,3.824-.069,6.589-2.692,6.659-6.251a6.46,6.46,0,0,0-6.476-6.48c-1.761-.074-3.53.031-5.295.054-8.057-.027-16.114-.076-24.172-.074-8.693,0-17.386.052-26.078.081m40.9-3.32c1.4.033,2.813.023,4.215.113,1,.065,1.353-.283,1.336-1.307-.056-3.238.042-6.479-.052-9.716a4.636,4.636,0,0,0-4.413-4.555,30.878,30.878,0,0,0-3.162.029c-4.311-.026-8.622-.076-12.933-.072q-22.269.019-44.539.069H19.45c2.546,5.693.664,11.7,1.513,17.644a11.992,11.992,0,0,1,5.43-2.126q26.087.012,52.175.02c1.764,0,3.528-.064,5.293-.1M69.387,24.243c1.421-.1,1.282.874,1.279,1.807-.012,5.386-.107,10.775.025,16.158.11,4.473-.822,8.49-4.26,11.77,4.709-.057,8.49-4.11,8.529-9.239q.123-15.944,0-31.89C74.9,6.923,70.549,3.07,64.582,3.371c-10.033-.225-20.066-.158-30.1-.022-.068,0-.133.2-.226.352a14.226,14.226,0,0,1,4.09,10.944q-.153,8.164.02,16.331c.037,1.676-.3,2.524-2.1,2.28-1.5.06-1.187-1.033-1.192-1.9q-.054-9.558-.092-19.118c-.013-3.819-4.174-8.893-8.477-8.543,2.95,3,3.878,6.617,3.824,10.7-.111,8.5-.087,17-.014,25.494.044,5.116.308,10.237-4.278,14.347h5.109c8.412.038,16.825.121,25.237.1,7.022-.017,10.99-4.048,11.024-11.094.027-5.586.055-11.173-.026-16.758-.023-1.536.249-2.462,2.006-2.24M9.537,8.046c2.4,0,4.707-.01,7.015,0,4.046.022,5.723,1.646,5.73,5.645q.029,15.1,0,30.193c-.008,3.914-1.664,5.559-5.558,5.6-2.372.025-4.744,0-7.249,0a9,9,0,0,0,8.566,4.8c5.546-.524,9.07-4.436,9.105-10.342.059-10.135.024-20.27,0-30.405a14.946,14.946,0,0,0-.288-2.743,9.486,9.486,0,0,0-7.815-7.4c-4.235-.549-7.811,1.141-9.511,4.65M9.49,28.712h.026c0,3.612-.1,7.228.036,10.835.085,2.257-1.155,5.376.485,6.541,1.558,1.107,4.507.237,6.844.276,1.621.027,2.292-.748,2.29-2.337q-.027-15.3,0-30.6c0-1.491-.67-2.253-2.162-2.259-2.125-.009-4.252.051-6.374-.026-1.156-.042-1.174.5-1.166,1.419.048,5.382.023,10.765.023,16.147M8.114,62.87c2.77-1.636,5.626-1.324,8.437-1.326,15.081-.007,30.161-.029,45.242.034,1.651.007,2.117-.408,2.143-2.092.029-1.777-.611-2.042-2.177-2.035-13.31.056-26.621-.024-39.932.061-4.934.031-9.777.062-13.713-4.117Zm70.15-34.2q0,8.08.009,16.159c0,.513-.318,1.134.4,1.485A2.939,2.939,0,0,0,83,43.545q.01-14.777,0-29.554a5.567,5.567,0,0,0-.04-1.272c-.512-2.149-2.285-1.41-3.657-1.532-1.492-.133-1.031,1-1.034,1.753-.016,5.245-.009,10.49-.011,15.734m-75.147.063q0,7.547,0,15.094c0,1.2.142,2.469,1.663,2.451S6.4,45.008,6.4,43.8q-.013-14.987,0-29.974c0-1.2-.053-2.5-1.546-2.556C3.2,11.21,3.114,12.584,3.115,13.856q.007,7.441,0,14.881M27.05,96.195a6.409,6.409,0,0,0,6.463-6.22,6.521,6.521,0,0,0-6.426-6.526,6.379,6.379,0,0,0-6.293,6.384,6.281,6.281,0,0,0,6.256,6.361M17.5,69.43a4.75,4.75,0,1,0-4.8,4.85,4.781,4.781,0,0,0,4.8-4.85m.883,33.144a3.068,3.068,0,0,0,3.095-3.086,3.152,3.152,0,1,0-6.3-.111,3.091,3.091,0,0,0,3.207,3.2" transform="translate(0 0)" fill="#070703"/>
        <path id="Trazado_718409" data-name="Trazado 718409" d="M35.6,250.892v-3.58c3.59.978,7.036.583,10.459.588q31.137.049,62.274.016c3.056,0,3.056,0,3.073,2.979q-19.536.033-39.071.061-18.367,0-36.735-.065" transform="translate(-20.449 -142.052)" fill="#fbe01b"/>
        <path id="Trazado_718410" data-name="Trazado 718410" d="M78.3,37.607c1.8.244,2.138-.6,2.1-2.28q-.178-8.162-.02-16.331a14.227,14.227,0,0,0-4.09-10.944c.093-.15.158-.351.226-.352,10.033-.137,20.065-.2,30.1.022,2.246,2.256,4.346,4.637,4.65,7.976.2,2.152.112,4.331.154,6.5-1.136.044-2.079.008-2.079,1.743s.943,1.7,2.079,1.747v2.909c-1.757-.222-2.029.7-2.006,2.24.082,5.585.054,11.172.027,16.759-.034,7.045-4,11.077-11.025,11.094-8.412.02-16.824-.063-25.236-.1A10.91,10.91,0,0,0,78.3,48.417c-.087-1.466,0-2.943,0-4.415.979-.152,2.147.334,2.16-1.583.012-1.84-.931-1.838-2.153-1.874q0-1.469-.009-2.938" transform="translate(-42.033 -4.351)" fill="#fbe01b"/>
        <path id="Trazado_718411" data-name="Trazado 718411" d="M57.125,152.075q22.269-.037,44.539-.069c4.311,0,8.622.046,12.933.072a7.98,7.98,0,0,1,2.087,5.966c-.088,3.155-.014,6.314-.01,9.471-1.764.034-3.528.1-5.293.1q-26.087,0-52.175-.02c0-3.177-.056-6.355.036-9.529a7.854,7.854,0,0,0-2.116-5.989m14.026,5.894c3.257,0,6.516-.054,9.771.028,1.217.031,1.371-.491,1.359-1.5s-.018-1.695-1.416-1.679q-9.771.11-19.544,0c-1.447-.015-1.313.772-1.369,1.734-.065,1.107.3,1.465,1.427,1.441,3.256-.068,6.514-.024,9.772-.024m19.122,0c1.13,0,2.266-.074,3.387.02,1.167.1,1.442-.395,1.391-1.458-.046-.967.075-1.79-1.371-1.714-2.112.112-4.237.091-6.352.005-1.285-.052-1.846.2-1.855,1.69-.009,1.551.783,1.5,1.834,1.464.987-.036,1.977-.008,2.965-.008m10.719-1.444c.129-1.022.069-1.751-1.341-1.722-1.193.024-1.391.495-1.366,1.516.025.987-.047,1.75,1.382,1.7,1.157-.045,1.524-.432,1.325-1.489" transform="translate(-32.812 -87.31)" fill="#f6dc1a"/>
        <path id="Trazado_718412" data-name="Trazado 718412" d="M151.228,208.728c-8.267.03-16.534.082-24.8.082-8.479,0-16.959-.052-25.438-.081a9.353,9.353,0,0,0,2.947-6.216q10.375-.044,20.75-.081c1.09,0,1.991.174,1.979-1.544-.012-1.651-.809-1.586-1.95-1.587-7.2-.009-14.4-.056-21.595-.091a9.577,9.577,0,0,0-2.172-3.076c8.693-.029,17.386-.079,26.079-.081,8.057,0,16.114.048,24.172.074,4.014,4.469,4.022,7.778.029,12.6M133.9,199.3c-.709,0-1.418.019-2.126,0-1.1-.037-2-.163-1.988,1.555.008,1.657.8,1.626,1.951,1.588,1.416-.047,2.838-.065,4.252.005,1.232.062,1.935-.086,1.911-1.66-.023-1.534-.792-1.55-1.874-1.491-.707.038-1.417.007-2.126.007m8.636,3.091c1.309.272,1.717-.227,1.743-1.548.029-1.434-.609-1.56-1.775-1.579-1.183-.02-1.56.32-1.553,1.528s.2,1.942,1.585,1.6" transform="translate(-57.983 -112.609)" fill="#f6dc1b"/>
        <path id="Trazado_718413" data-name="Trazado 718413" d="M22.324,12.492c1.7-3.51,5.276-5.2,9.511-4.65a9.486,9.486,0,0,1,7.815,7.4,14.946,14.946,0,0,1,.288,2.743c.02,10.135.056,20.27,0,30.405-.034,5.906-3.559,9.818-9.1,10.342a9,9,0,0,1-8.566-4.8c2.5,0,4.876.02,7.248,0,3.894-.041,5.55-1.685,5.558-5.6q.031-15.1,0-30.193c-.008-4-1.685-5.623-5.731-5.645-2.307-.012-4.615,0-7.015,0" transform="translate(-12.788 -4.446)" fill="#dfbf19"/>
        <path id="Trazado_718414" data-name="Trazado 718414" d="M21.883,43.751c0-5.382.025-10.765-.024-16.147-.008-.921.01-1.461,1.166-1.419,2.123.077,4.25.017,6.375.026,1.492.006,2.164.769,2.162,2.259q-.021,15.3,0,30.6c0,1.588-.669,2.364-2.29,2.337-2.337-.039-5.286.831-6.844-.276-1.639-1.164-.4-4.283-.484-6.541-.135-3.607-.036-7.223-.036-10.835h-.026m6.336-12.265c.182-1.187-.341-1.629-1.524-1.6-1,.021-1.567.248-1.547,1.4.019,1.04.129,1.752,1.452,1.711,1.079-.034,1.814-.218,1.619-1.511m-1.585,7.85c1.13.2,1.739-.036,1.693-1.369-.039-1.148-.122-1.84-1.565-1.737-1.042.074-1.721.089-1.625,1.444.077,1.085-.008,2.059,1.5,1.662m.059,3.351c-1.244-.2-1.556.441-1.548,1.571.007,1.056.342,1.505,1.453,1.5s1.687-.251,1.668-1.511c-.017-1.142-.344-1.749-1.573-1.561m.089,9.394c1.416.456,1.5-.4,1.542-1.573.048-1.256-.439-1.516-1.581-1.5-1.09.011-1.675.153-1.608,1.461.057,1.123.054,2.03,1.648,1.615m1.436,4.84c.2-1.287-.526-1.5-1.614-1.512-1.1-.01-1.45.427-1.462,1.491-.012,1.138.325,1.642,1.546,1.629,1.176-.013,1.71-.417,1.529-1.608" transform="translate(-12.393 -15.039)" fill="#a9bdd1"/>
        <path id="Trazado_718415" data-name="Trazado 718415" d="M71.406,44.616c-.006,1.472-.092,2.949,0,4.415A10.911,10.911,0,0,1,66.285,59.2h-5.11c4.586-4.11,4.322-9.23,4.278-14.347-.073-8.5-.1-17,.014-25.495.053-4.08-.875-7.695-3.825-10.7,4.3-.351,8.465,4.723,8.478,8.542q.031,9.559.091,19.118c0,.867-.311,1.961,1.192,1.9q.006,1.469.009,2.938c-1.519.034-1.162,1.156-1.245,2.073-.086.958.266,1.423,1.238,1.385" transform="translate(-35.138 -4.964)" fill="#fae774"/>
        <path id="Trazado_718416" data-name="Trazado 718416" d="M19.065,134.93v-9.475c3.935,4.18,8.779,4.149,13.713,4.117,13.31-.085,26.621-.005,39.931-.061,1.567-.006,2.206.258,2.178,2.035-.027,1.684-.492,2.1-2.143,2.092-15.08-.063-30.161-.041-45.242-.034-2.811,0-5.667-.31-8.437,1.325" transform="translate(-10.951 -72.059)" fill="#ddbd18"/>
        <path id="Trazado_718417" data-name="Trazado 718417" d="M156.545,28.77V25.861c1.351.1,1.31-.781,1.31-1.747s.042-1.845-1.31-1.743c-.042-2.167.043-4.345-.154-6.5-.3-3.339-2.4-5.72-4.65-7.976,5.966-.3,10.322,3.552,10.376,9.478q.145,15.945,0,31.891c-.039,5.129-3.821,9.183-8.529,9.239,3.438-3.28,4.37-7.3,4.26-11.77-.132-5.383-.038-10.771-.025-16.158,0-.933.141-1.907-1.28-1.807" transform="translate(-87.158 -4.527)" fill="#fce974"/>
        <path id="Trazado_718418" data-name="Trazado 718418" d="M66.452,233.812c4.67-.028,9.34-.078,14.01-.081q23.681-.015,47.362,0c.776,0,1.552.058,2.328.089-.1,1.238-1.058,1.987-1.682,2.926-3.322.03-6.643.083-9.965.085q-25.568.013-51.136,0c-.775,0-1.551-.055-2.326-.085a5.311,5.311,0,0,0,1.409-2.935" transform="translate(-37.36 -134.248)" fill="#fbe01b"/>
        <path id="Trazado_718419" data-name="Trazado 718419" d="M183.805,43.733c0-5.245-.006-10.489.01-15.734,0-.755-.458-1.885,1.033-1.753,1.373.122,3.144-.617,3.657,1.532a5.613,5.613,0,0,1,.04,1.271q0,14.778,0,29.555a2.939,2.939,0,0,1-4.328,2.772c-.722-.35-.4-.971-.4-1.485q-.022-8.08-.008-16.159" transform="translate(-105.539 -15.059)" fill="#adc2d7"/>
        <path id="Trazado_718420" data-name="Trazado 718420" d="M7.322,43.941q0-7.44,0-14.881c0-1.272.086-2.647,1.739-2.589,1.493.052,1.547,1.361,1.546,2.556Q10.591,44.015,10.6,59c0,1.21-.11,2.466-1.62,2.483s-1.663-1.247-1.663-2.451q0-7.547,0-15.094" transform="translate(-4.204 -15.204)" fill="#d3dfea"/>
        <path id="Trazado_718421" data-name="Trazado 718421" d="M55.114,208.814a6.282,6.282,0,0,1-6.257-6.361,6.379,6.379,0,0,1,6.294-6.384,6.521,6.521,0,0,1,6.426,6.525,6.409,6.409,0,0,1-6.463,6.22m1.576-6.4c.4-1.278-.246-1.562-1.5-1.608-1.337-.049-1.622.418-1.622,1.666,0,1.233.242,1.7,1.6,1.655,1.243-.039,1.884-.271,1.53-1.714" transform="translate(-28.063 -112.619)" fill="#dde9f4"/>
        <path id="Trazado_718422" data-name="Trazado 718422" d="M219.043,208.72c3.992-4.823,3.984-8.132-.029-12.6,1.765-.024,3.533-.128,5.294-.054a6.46,6.46,0,0,1,6.476,6.48c-.069,3.559-2.835,6.181-6.659,6.25-1.693.031-3.388-.046-5.082-.074" transform="translate(-125.798 -112.602)" fill="#fae774"/>
        <path id="Trazado_718423" data-name="Trazado 718423" d="M92.383,202.622a9.356,9.356,0,0,1-2.947,6.216H80.959c2.794-4.139,2.955-8.28-.125-12.6H89.4a9.578,9.578,0,0,1,2.171,3.076,12.794,12.794,0,0,1-1.87.085c-1.273-.12-1.845.189-1.845,1.674,0,1.517.755,1.507,1.821,1.47.9-.031,1.806.046,2.71.075" transform="translate(-46.43 -112.718)" fill="#fae774"/>
        <path id="Trazado_718424" data-name="Trazado 718424" d="M50.563,152.168a7.853,7.853,0,0,1,2.116,5.989c-.092,3.174-.031,6.352-.036,9.529a11.983,11.983,0,0,0-5.43,2.126c-.849-5.941,1.034-11.951-1.513-17.644Z" transform="translate(-26.249 -87.403)" fill="#fce974"/>
        <path id="Trazado_718425" data-name="Trazado 718425" d="M194.233,167.521c0-3.157-.077-6.316.01-9.471a7.977,7.977,0,0,0-2.086-5.966,30.879,30.879,0,0,1,3.162-.029,4.635,4.635,0,0,1,4.413,4.555c.094,3.236,0,6.478.052,9.716.018,1.024-.333,1.372-1.336,1.307-1.4-.09-2.81-.08-4.215-.113" transform="translate(-110.371 -87.317)" fill="#fce974"/>
        <path id="Trazado_718426" data-name="Trazado 718426" d="M28.308,156.748a4.75,4.75,0,1,1-4.707-4.727,4.8,4.8,0,0,1,4.707,4.727m-4.866,1.6c1.248.261,1.793-.08,1.784-1.5-.009-1.355-.468-1.674-1.731-1.655-1.135.017-1.656.225-1.6,1.508.053,1.127.026,2.052,1.543,1.642" transform="translate(-10.803 -87.318)" fill="#dae6f1"/>
        <path id="Trazado_718427" data-name="Trazado 718427" d="M38.874,232.444a3.091,3.091,0,0,1-3.207-3.2,3.152,3.152,0,1,1,6.3.111,3.068,3.068,0,0,1-3.095,3.086" transform="translate(-20.486 -129.869)" fill="#dde9f4"/>
        <path id="Trazado_718428" data-name="Trazado 718428" d="M214.065,236.695c.624-.939,1.578-1.688,1.682-2.926,1.121-.032,2.241-.091,3.362-.082.436,0,1.041-.262,1.252.381.169.515-.176.952-.447,1.352a3.426,3.426,0,0,1-3.328,1.368c-.839-.046-1.68-.063-2.52-.094" transform="translate(-122.956 -134.197)" fill="#fce974"/>
        <path id="Trazado_718429" data-name="Trazado 718429" d="M61.935,233.5a5.311,5.311,0,0,1-1.409,2.935c-.35.031-.7.082-1.05.088-2.605.043-2.558.051-1.961-2.532.166-.719.317-.893,1.059-.768,1.1.187,2.239.194,3.361.277" transform="translate(-32.843 -133.941)" fill="#fae774"/>
        <path id="Trazado_718430" data-name="Trazado 718430" d="M160.223,41.915c1.352-.1,1.31.777,1.31,1.743s.041,1.845-1.31,1.747c-1.136-.046-2.079-.013-2.079-1.747s.943-1.7,2.079-1.743" transform="translate(-90.835 -24.071)" fill="#1c1909"/>
        <path id="Trazado_718431" data-name="Trazado 718431" d="M83.525,88.5c-.973.038-1.325-.427-1.238-1.385.083-.917-.274-2.039,1.245-2.073,1.223.037,2.166.035,2.154,1.874-.013,1.917-1.182,1.431-2.16,1.583" transform="translate(-47.257 -48.845)" fill="#1c1909"/>
        <path id="Trazado_718432" data-name="Trazado 718432" d="M74.956,161.758c-3.257,0-6.516-.044-9.772.025-1.124.023-1.492-.334-1.428-1.441.056-.962-.078-1.75,1.369-1.735q9.772.1,19.544,0c1.4-.016,1.4.652,1.416,1.679s-.141,1.534-1.358,1.5c-3.256-.081-6.514-.028-9.772-.028" transform="translate(-36.617 -91.099)"/>
        <path id="Trazado_718433" data-name="Trazado 718433" d="M128.531,161.758c-.988,0-1.978-.029-2.965.008-1.051.039-1.843.086-1.834-1.465.009-1.491.569-1.742,1.854-1.69,2.115.086,4.24.107,6.352-.005,1.446-.077,1.325.746,1.371,1.714.051,1.064-.225,1.556-1.391,1.458-1.122-.094-2.258-.02-3.387-.02" transform="translate(-71.07 -91.098)"/>
        <path id="Trazado_718434" data-name="Trazado 718434" d="M156.538,160.3c.2,1.057-.167,1.445-1.325,1.489-1.429.054-1.357-.708-1.382-1.7-.026-1.021.173-1.492,1.366-1.516,1.41-.029,1.47.7,1.341,1.722" transform="translate(-88.357 -91.084)"/>
        <path id="Trazado_718435" data-name="Trazado 718435" d="M101.853,206.773c-.9-.029-1.809-.106-2.71-.075-1.066.037-1.822.048-1.821-1.47,0-1.484.572-1.794,1.845-1.674a12.792,12.792,0,0,0,1.87-.085c7.2.034,14.4.081,21.595.091,1.141,0,1.938-.064,1.95,1.587.013,1.719-.888,1.542-1.978,1.545q-10.376.022-20.75.081" transform="translate(-55.9 -116.87)"/>
        <path id="Trazado_718436" data-name="Trazado 718436" d="M172.82,203.66c.709,0,1.419.031,2.126-.007,1.082-.059,1.85-.043,1.873,1.491.024,1.574-.679,1.722-1.911,1.661-1.414-.071-2.836-.052-4.252-.005-1.148.038-1.943.069-1.951-1.588-.009-1.718.888-1.591,1.988-1.555.708.023,1.418,0,2.126,0" transform="translate(-96.901 -116.965)" fill="#070703"/>
        <path id="Trazado_718437" data-name="Trazado 718437" d="M196.524,206.732c-1.385.343-1.577-.38-1.585-1.6s.37-1.548,1.553-1.528c1.166.019,1.8.145,1.775,1.579-.026,1.321-.435,1.82-1.743,1.548" transform="translate(-111.97 -116.947)" fill="#070703"/>
        <path id="Trazado_718438" data-name="Trazado 718438" d="M33.04,36.478c.2,1.293-.539,1.478-1.619,1.511-1.323.041-1.433-.671-1.452-1.711-.02-1.156.543-1.383,1.547-1.4,1.183-.026,1.706.417,1.524,1.6" transform="translate(-17.214 -20.031)" fill="#f6f8f9"/>
        <path id="Trazado_718439" data-name="Trazado 718439" d="M31.429,52.883c-1.5.4-1.42-.578-1.5-1.662-.1-1.355.583-1.37,1.625-1.444,1.442-.1,1.525.589,1.565,1.737.046,1.333-.563,1.565-1.693,1.369" transform="translate(-17.187 -28.585)"/>
        <path id="Trazado_718440" data-name="Trazado 718440" d="M31.512,64.914c1.229-.188,1.556.419,1.573,1.561.019,1.26-.57,1.506-1.668,1.511s-1.446-.444-1.453-1.5c-.008-1.13.3-1.768,1.548-1.571" transform="translate(-17.211 -37.266)" fill="#f6f8f9"/>
        <path id="Trazado_718441" data-name="Trazado 718441" d="M31.581,82.882c-1.594.415-1.59-.492-1.648-1.615-.066-1.308.518-1.45,1.608-1.461,1.142-.012,1.628.247,1.581,1.5-.044,1.173-.126,2.029-1.542,1.573" transform="translate(-17.19 -45.839)"/>
        <path id="Trazado_718442" data-name="Trazado 718442" d="M33.035,96.364c.18,1.191-.353,1.6-1.529,1.608-1.221.013-1.558-.491-1.546-1.629.011-1.064.359-1.5,1.462-1.491,1.087.01,1.811.225,1.614,1.512" transform="translate(-17.208 -54.481)" fill="#f6f8f9"/>
        <path id="Trazado_718443" data-name="Trazado 718443" d="M63.042,208.812c.354,1.442-.287,1.675-1.53,1.714-1.353.042-1.6-.422-1.6-1.655,0-1.248.285-1.716,1.622-1.666,1.257.046,1.9.33,1.5,1.608" transform="translate(-34.415 -119.013)" fill="#070703"/>
        <path id="Trazado_718444" data-name="Trazado 718444" d="M27.609,162.634c-1.516.411-1.49-.514-1.543-1.642-.06-1.283.461-1.491,1.6-1.508,1.263-.019,1.722.3,1.731,1.655.009,1.415-.536,1.756-1.784,1.5" transform="translate(-14.969 -91.605)" fill="#070703"/>
      </g>
    </g>
  </g>
</svg>
