<svg xmlns="http://www.w3.org/2000/svg" xmlns:xlink="http://www.w3.org/1999/xlink" width="116.999" height="115" viewBox="0 0 116.999 115">
  <defs>
    <clipPath id="clip-path">
      <rect id="Rect치ngulo_350174" data-name="Rect치ngulo 350174" width="55.219" height="61.852" fill="none"/>
    </clipPath>
  </defs>
  <g id="Grupo_1018028" data-name="Grupo 1018028" transform="translate(-742 -2851.564)">
    <g id="Grupo_1017411" data-name="Grupo 1017411" transform="translate(316.563 -4646.906)">
      <g id="Grupo_1015374" data-name="Grupo 1015374" transform="translate(425.927 7498.205)">
        <g id="Grupo_1015448" data-name="Grupo 1015448" transform="translate(0 0)">
          <g id="Grupo_1014855" data-name="Grupo 1014855" transform="translate(0 0)">
            <path id="Uni칩n_12" data-name="Uni칩n 12" d="M58.5,0C90.809,0,117,25.744,117,57.5S90.809,115,58.5,115,0,89.256,0,57.5,26.192,0,58.5,0Z" transform="translate(-0.49 0.265)" fill="#81c539"/>
            <ellipse id="Elipse_4842" data-name="Elipse 4842" cx="49" cy="49.5" rx="49" ry="49.5" transform="translate(9.51 7.265)" fill="#fff"/>
          </g>
        </g>
      </g>
    </g>
    <g id="Grupo_1017416" data-name="Grupo 1017416" transform="translate(775.391 2878.139)">
      <g id="Grupo_1017408" data-name="Grupo 1017408" clip-path="url(#clip-path)">
        <path id="Trazado_718297" data-name="Trazado 718297" d="M13.948,40.185a9.1,9.1,0,0,0-.353-2.936c.666-.141,1.242-.419,1.3-1.187s-.5-1.112-1.121-1.357q-.009-1.457-.019-2.915a1.393,1.393,0,0,0,.843-2.046c-.215-.559-.478-1.1-.743-1.639-.746-1.516.307-4.015,1.92-4.283A4.69,4.69,0,0,0,19.111,21.5c.147-.234.289-.562.509-.645,2.046-.768,2.8-2.586,3.452-4.39A2.311,2.311,0,0,1,24.853,14.8c2.835-.766,5.639-1.625,7.858-3.731a4.409,4.409,0,0,1,1.936-.946,2.366,2.366,0,0,1,2.077.289c.26.185.576.408.521.753s-.453.238-.7.321a10.448,10.448,0,0,0-7.106,6.657,3.212,3.212,0,0,0,1.394,4.088,1.451,1.451,0,0,1,.8,1.358,4.206,4.206,0,0,0,3.4,4.5c.847.25.988.656.982,1.437-.034,4.588-.012,9.176-.022,13.764,0,.6.09,1.154.678,1.429a1.373,1.373,0,0,0,1.631-.41,27.1,27.1,0,0,0,2.465-2.306,7.051,7.051,0,0,1,6.655-2.632c1.192.1,1.723.49,2.021,1.512a1.057,1.057,0,0,1-.013.922,2.927,2.927,0,0,0,.013,2.67c.277.753.584,1.5.862,2.249.106.287.357.625.041.883s-.687.11-1.013-.077a25.625,25.625,0,0,0-2.405-1.365,3.117,3.117,0,0,0-3.486.567c-.911.8-.66,1.809-.343,2.8.073.229.131.463.186.7.12.516-.084.77-.59.982-2.322.972-2.8,2.273-1.773,4.588a3.283,3.283,0,0,1,.43,2.656,13.527,13.527,0,0,0-.709,6.172,15.273,15.273,0,0,1-.035,1.566.7.7,0,0,1-.534.722c-.487.1-.455-.358-.535-.626-.172-.576-.283-1.17-.434-1.753-.861-3.323-2.61-4.369-5.982-3.643-.852.184-1.9.7-2.571.136a20.7,20.7,0,0,1-2.516-2.854c-.5-.609-.51-1.623-1.566-1.829-.218-.043-.292-.267-.323-.469a2.549,2.549,0,0,0-1.382-1.733,21.485,21.485,0,0,0-6.4-2.728c-.594-.149-1.3-.273-1.73.189-.622.672-1.019.3-1.5-.086-1.393-1.143-2.694-2.4-4.589-2.766a.9.9,0,0,1-.647-1.464,1.517,1.517,0,0,0,.2-.922c-.065-.578.249-.681.694-.716,2.109-.168,3.129-1.59,3.86-3.349a1.446,1.446,0,0,0-.7-2.118" transform="translate(-7.347 -7.591)" fill="#c9e357"/>
        <path id="Trazado_718298" data-name="Trazado 718298" d="M6.6,32.594a1.446,1.446,0,0,1,.7,2.118c-.73,1.759-1.75,3.182-3.86,3.349-.445.035-.759.138-.694.716a1.52,1.52,0,0,1-.2.923.9.9,0,0,0,.647,1.464c1.895.37,3.2,1.623,4.589,2.765.476.391.874.759,1.5.086.427-.462,1.136-.338,1.729-.189a21.485,21.485,0,0,1,6.4,2.728,2.549,2.549,0,0,1,1.382,1.733c.03.2.105.426.323.469,1.055.206,1.067,1.22,1.566,1.829a20.7,20.7,0,0,0,2.516,2.854c.67.562,1.718.048,2.571-.136,3.372-.727,5.121.32,5.982,3.643.151.583.262,1.177.434,1.753.08.268.048.73.535.626a.7.7,0,0,0,.534-.722,15.276,15.276,0,0,0,.035-1.566,13.527,13.527,0,0,1,.709-6.172,3.283,3.283,0,0,0-.43-2.656c-1.027-2.315-.549-3.615,1.773-4.588.506-.212.71-.465.59-.982-.054-.234-.112-.468-.186-.7-.316-.988-.568-2,.343-2.8a3.117,3.117,0,0,1,3.486-.567,25.626,25.626,0,0,1,2.405,1.365c.326.187.7.334,1.013.077s.065-.6-.041-.883c-.278-.753-.585-1.5-.862-2.249a2.927,2.927,0,0,1-.013-2.67,1.057,1.057,0,0,0,.013-.922c-.3-1.022-.83-1.407-2.021-1.512a7.051,7.051,0,0,0-6.655,2.632,27.1,27.1,0,0,1-2.465,2.306,1.373,1.373,0,0,1-1.631.41c-.588-.275-.679-.826-.678-1.429.011-4.588-.012-9.176.022-13.764.006-.781-.135-1.187-.982-1.437a4.206,4.206,0,0,1-3.4-4.5,1.451,1.451,0,0,0-.8-1.358,3.212,3.212,0,0,1-1.394-4.088A10.448,10.448,0,0,1,29.193,3.9c.252-.083.649.031.7-.321s-.261-.568-.521-.753A2.365,2.365,0,0,0,27.3,2.534a4.409,4.409,0,0,0-1.936.946C23.144,5.585,20.34,6.444,17.5,7.211a2.311,2.311,0,0,0-1.781,1.661c-.654,1.8-1.406,3.622-3.452,4.39-.22.082-.361.411-.509.645A4.69,4.69,0,0,1,8.424,16.23C6.811,16.5,5.758,19,6.5,20.513c.265.538.527,1.08.742,1.639A1.393,1.393,0,0,1,6.4,24.2a1.413,1.413,0,0,1-1.439-1.205,4.266,4.266,0,0,0-.394-1A5.539,5.539,0,0,1,8.327,13.78a2.557,2.557,0,0,0,1.591-1.53c.418-.756.833-1.487,1.829-1.554.383-.026.506-.362.693-.612A7.183,7.183,0,0,0,13.629,7.6a3.329,3.329,0,0,1,2.513-2.5c.772-.22,1.534-.473,2.305-.7a13.73,13.73,0,0,0,5.111-2.576C25.273.4,27.267-.455,29.593.254A4.086,4.086,0,0,1,32.1,2.37c.979,1.9.231,3.387-1.855,3.807a8.1,8.1,0,0,0-5.7,4.593,1.363,1.363,0,0,0,.615,2.1,3.2,3.2,0,0,1,1.52,3.2,1.891,1.891,0,0,0,1.256,1.977c.5.219.722.155.707-.46-.032-1.247-.024-2.5-.006-3.743a3.537,3.537,0,0,1,3.7-3.735q9.6-.045,19.2,0a3.523,3.523,0,0,1,3.663,3.77q.026,7,0,14.008a3.649,3.649,0,0,1-3.894,3.951c-2.332.034-4.665.007-7.158.007.449,1.252.79,2.427.1,3.639-.136.238.181.747.314,1.122.267.756.58,1.5.82,2.261a2.6,2.6,0,0,1-.637,2.889,3.063,3.063,0,0,1-3.257.616,14.137,14.137,0,0,1-2.4-1.366c-.29-.165-.627-.359-.9-.207-.379.211-.066.563.006.848.565,2.225.035,3.333-2.131,4.245-.621.261-.678.577-.4,1.1a6.343,6.343,0,0,1,.264,5.79,8.538,8.538,0,0,0-.252,3.585,20.078,20.078,0,0,1-.04,2.649,3.155,3.155,0,0,1-2.985,2.822c-1.343.108-2.3-.672-2.786-2.327-.273-.923-.478-1.866-.75-2.79a1.57,1.57,0,0,0-2.025-1.215c-.828.164-1.652.372-2.488.459-1.851.194-3.46-.194-4.308-2.09a.955.955,0,0,0-.567-.557c-.291-.115-.708-.3-.772-.533-.409-1.507-2.115-2.127-2.457-3.667a1.009,1.009,0,0,0-.43-.546,19.947,19.947,0,0,0-5.157-2.28.781.781,0,0,0-.755.223,2.376,2.376,0,0,1-2.921-.026c-.766-.512-1.466-1.124-2.19-1.7a5.555,5.555,0,0,0-2.322-1.18c-2.158-.471-2.938-2.8-2.675-4.873.3-2.4,1.527-2.959,3.511-3.186.9-.1,1.2-.994,1.463-1.757A1.506,1.506,0,0,1,6.6,32.594M41.926,18.629c3.261,0,6.522-.023,9.782.017.778.009,1.171-.092,1.106-1.012-.086-1.2-.033-2.414-.018-3.622.013-1-.44-1.494-1.45-1.493q-9.42.006-18.839,0c-1.012,0-1.462.5-1.45,1.494.015,1.208.048,2.418-.013,3.622-.038.768.165,1.026.981,1.014,3.3-.049,6.6-.02,9.9-.02M31.054,33.314c1.249-1.138,2.318-2.039,3.3-3.029a2.878,2.878,0,0,1,2.26-.863c4.669.033,9.339.017,14.008.013a4.535,4.535,0,0,0,1.2-.071c1.249-.35.924-1.408.985-2.3.047-.691-.395-.655-.859-.654Q41.92,26.416,31.9,26.4c-.6,0-.869.125-.856.8.038,1.928.014,3.858.014,6.115M41.925,24c3.3,0,6.6-.027,9.895.019.808.011,1.088-.243.979-1.015a2.388,2.388,0,0,1,0-.722c.167-.991-.2-1.27-1.221-1.261-6.194.052-12.389.026-18.583.026-1.969,0-1.932,0-1.957,1.958-.01.771.183,1.026.992,1.015,3.3-.046,6.6-.019,9.895-.019" transform="translate(0 0)" fill="#050504"/>
        <path id="Trazado_718299" data-name="Trazado 718299" d="M22.615,112.173c.626.246,1.176.586,1.121,1.357s-.631,1.046-1.3,1.188c-.61-.249-1.129-.561-1.083-1.349s.644-1,1.258-1.2" transform="translate(-16.193 -85.06)" fill="#090a05"/>
        <path id="Trazado_718300" data-name="Trazado 718300" d="M139.3,57.9c-3.3,0-6.6-.029-9.9.02-.816.012-1.019-.246-.98-1.014.06-1.2.027-2.415.013-3.622-.012-.994.439-1.494,1.45-1.494q9.42.006,18.84,0c1.011,0,1.463.5,1.45,1.493-.015,1.208-.068,2.42.018,3.622.066.92-.327,1.021-1.106,1.012-3.26-.04-6.521-.017-9.782-.017" transform="translate(-97.377 -39.274)" fill="#fec044"/>
        <path id="Trazado_718301" data-name="Trazado 718301" d="M128.436,116.148c0-2.257.025-4.186-.014-6.115-.013-.67.261-.8.856-.8q10.023.023,20.047.007c.464,0,.906-.037.859.654-.061.891.264,1.949-.985,2.3a4.535,4.535,0,0,1-1.2.071c-4.67,0-9.339.021-14.008-.013a2.878,2.878,0,0,0-2.26.863c-.979.99-2.048,1.891-3.3,3.029" transform="translate(-97.382 -82.834)" fill="#f25554"/>
        <path id="Trazado_718302" data-name="Trazado 718302" d="M139.3,89.955c-3.3,0-6.6-.027-9.895.019-.809.011-1-.243-.992-1.015C128.441,87,128.4,87,130.373,87c6.194,0,12.389.026,18.583-.026,1.022-.009,1.388.271,1.221,1.261a2.387,2.387,0,0,0,0,.722c.11.772-.17,1.027-.979,1.015-3.3-.046-6.6-.019-9.895-.019" transform="translate(-97.377 -65.953)" fill="#5fa2fb"/>
      </g>
    </g>
  </g>
</svg>
