<svg id="físicos" xmlns="http://www.w3.org/2000/svg" width="310" height="188.983" viewBox="0 0 310 188.983">
  <path id="Trazado_719505" data-name="Trazado 719505" d="M189.515.69c-68.511-6.352-73.5,32.667-82.577,54.9A45.223,45.223,0,0,1,91.752,74.547,56.891,56.891,0,0,1,65.135,85.194c-61.9,8.245-51.8,91.772-28.523,98.8H283.435C344.233,68.294,258.027,7.042,189.515.69Z" transform="translate(-1.449 0)" fill="#d9f9f8"/>
  <path id="Trazado_719506" data-name="Trazado 719506" d="M72.523,20.928c-35.68.218-45.216,35.219-25.862,54.9C73.431,103.052,146.933,20.474,72.523,20.928Z" transform="translate(-2.878 -1.635)" fill="#d9f9f8"/>
  <path id="Trazado_719507" data-name="Trazado 719507" d="M166.035,21.049a6.35,6.35,0,1,1,6.35-6.35A6.357,6.357,0,0,1,166.035,21.049Zm0-12.3a5.953,5.953,0,1,0,5.952,5.953A5.959,5.959,0,0,0,166.035,8.748Z" transform="translate(-12.476 -0.652)" fill="#a6f1ef"/>
  <path id="Trazado_719508" data-name="Trazado 719508" d="M166.9,19.7h-1.114V18.538a3.418,3.418,0,0,1-1.659-.53l-.123-.088.41-1.143.211.14a2.821,2.821,0,0,0,1.528.456c.691,0,1.157-.369,1.157-.917,0-.5-.336-.837-1.163-1.17-1.039-.407-2-.951-2-2.154a2.032,2.032,0,0,1,1.719-2V9.952h1.1v1.115a3.171,3.171,0,0,1,1.382.415l.145.085-.427,1.125-.2-.115a2.547,2.547,0,0,0-1.335-.361c-.744,0-1.009.42-1.009.781,0,.451.289.7,1.29,1.115,1.322.539,1.887,1.217,1.887,2.266a2.142,2.142,0,0,1-1.8,2.1V19.7Zm-.717-.4h.32V18.146l.166-.027A1.778,1.778,0,0,0,168.3,16.38c0-.892-.475-1.424-1.64-1.9-1.019-.421-1.536-.766-1.536-1.481,0-.586.434-1.178,1.4-1.178a2.9,2.9,0,0,1,1.329.3l.143-.378a2.936,2.936,0,0,0-1.24-.291l-.192-.006v-1.1h-.31v1.12l-.166.027a1.662,1.662,0,0,0-1.552,1.637c0,.79.491,1.29,1.752,1.784.7.284,1.413.687,1.413,1.539a1.386,1.386,0,0,1-1.553,1.313,3.256,3.256,0,0,1-1.534-.393l-.137.387a3.3,3.3,0,0,0,1.505.384l.195,0V19.3Z" transform="translate(-12.814 -0.778)" fill="#a6f1ef"/>
  <path id="Trazado_719509" data-name="Trazado 719509" d="M275.894,59.944a5.325,5.325,0,1,1,5.325-5.325A5.331,5.331,0,0,1,275.894,59.944Zm0-10.253a4.928,4.928,0,1,0,4.928,4.928A4.933,4.933,0,0,0,275.894,49.691Z" transform="translate(-21.14 -3.851)" fill="#a6f1ef"/>
  <path id="Trazado_719510" data-name="Trazado 719510" d="M275.183,58.131a.613.613,0,0,1-.129-.013.681.681,0,0,1-.378-.217l-2.535-2.859a.676.676,0,1,1,1.014-.895l2,2.257,3.433-4.264a.677.677,0,0,1,1.055.848l-3.937,4.888a.675.675,0,0,1-.512.253h-.015Zm-2.537-3.815a.279.279,0,0,0-.278.262.271.271,0,0,0,.069.2l2.536,2.859a.278.278,0,0,0,.157.09.441.441,0,0,0,.059.005.277.277,0,0,0,.212-.1l3.936-4.888a.28.28,0,1,0-.436-.351l-3.727,4.629-2.317-2.609a.279.279,0,0,0-.21-.1Z" transform="translate(-21.25 -4.054)" fill="#a6f1ef"/>
  <path id="Trazado_719511" data-name="Trazado 719511" d="M22.832,137.592H12.08l.009-.206a5.511,5.511,0,0,1,5.367-5.437,5.511,5.511,0,0,1,5.367,5.437l.009.206ZM12.5,137.2h9.916a5.1,5.1,0,0,0-4.959-4.851A5.1,5.1,0,0,0,12.5,137.2Z" transform="translate(-0.944 -10.309)" fill="#a6f1ef"/>
  <path id="Trazado_719512" data-name="Trazado 719512" d="M17.676,130.891a2.785,2.785,0,1,1,2.786-2.786A2.789,2.789,0,0,1,17.676,130.891Zm0-5.175a2.389,2.389,0,1,0,2.389,2.389A2.391,2.391,0,0,0,17.676,125.715Z" transform="translate(-1.163 -9.792)" fill="#a6f1ef"/>
  <path id="Trazado_719513" data-name="Trazado 719513" d="M65.929,90.289a6.049,6.049,0,1,1,6.05-6.049A6.056,6.056,0,0,1,65.929,90.289Zm0-11.7a5.652,5.652,0,1,0,5.654,5.652A5.659,5.659,0,0,0,65.929,78.586Z" transform="translate(-4.679 -6.109)" fill="#a6f1ef"/>
  <path id="Trazado_719514" data-name="Trazado 719514" d="M64.269,87.476l-1.056-1.057L65.134,84.5l-1.921-1.921,1.056-1.057,1.921,1.921,1.921-1.921,1.057,1.057L67.246,84.5l1.921,1.921L68.11,87.476l-1.921-1.921Zm1.921-2.481,1.921,1.921.495-.495L66.684,84.5,68.6,82.579l-.495-.495L66.189,84l-1.921-1.921-.495.495L65.694,84.5l-1.921,1.921.495.495Z" transform="translate(-4.939 -6.369)" fill="#a6f1ef"/>
  <path id="Trazado_719515" data-name="Trazado 719515" d="M95.064,106.726a.528.528,0,0,1-.311-.1l-3.3-2.4a.133.133,0,0,0-.155,0l-3.3,2.4a.529.529,0,0,1-.813-.591l1.261-3.878a.131.131,0,0,0-.048-.147l-3.3-2.4a.528.528,0,0,1,.311-.955H89.49a.132.132,0,0,0,.125-.09l1.261-3.879a.529.529,0,0,1,1.005,0l1.261,3.879a.132.132,0,0,0,.125.09h4.078a.528.528,0,0,1,.311.955l-3.3,2.4a.131.131,0,0,0-.048.147l1.261,3.878a.521.521,0,0,1-.192.591.528.528,0,0,1-.311.1Zm-9.652-7.673a.131.131,0,0,0-.077.237l3.3,2.4a.528.528,0,0,1,.192.591l-1.261,3.878a.131.131,0,0,0,.2.147l3.3-2.4a.526.526,0,0,1,.621,0l3.3,2.4a.131.131,0,0,0,.2-.147l-1.261-3.878a.528.528,0,0,1,.192-.591l3.3-2.4a.131.131,0,0,0-.077-.237H93.262a.528.528,0,0,1-.5-.365L91.5,94.809a.125.125,0,0,0-.125-.09.127.127,0,0,0-.125.09l-1.261,3.879a.527.527,0,0,1-.5.365H85.412Z" transform="translate(-6.632 -7.37)" fill="#a6f1ef"/>
  <path id="Trazado_719516" data-name="Trazado 719516" d="M305.868,93.763c-.135,0-.267,0-.4-.005a.175.175,0,0,1-.171-.179.179.179,0,0,1,.18-.17,16.255,16.255,0,0,0,2.067-.083.174.174,0,1,1,.038.347A16.471,16.471,0,0,1,305.868,93.763Zm-2.479-.191a.1.1,0,0,1-.028,0,16.057,16.057,0,0,1-2.063-.463.175.175,0,1,1,.1-.335,15.638,15.638,0,0,0,2.019.452.175.175,0,0,1-.028.348Zm6.234-.253a.175.175,0,0,1-.041-.344,15.683,15.683,0,0,0,1.974-.616.175.175,0,1,1,.125.326,15.955,15.955,0,0,1-2.019.629.148.148,0,0,1-.041.005Zm-10.24-.927a.176.176,0,0,1-.071-.015,15.89,15.89,0,0,1-1.871-.985.174.174,0,1,1,.182-.3,15.815,15.815,0,0,0,1.832.963.175.175,0,0,1,.089.231.173.173,0,0,1-.159.1Zm14.132-.576a.174.174,0,0,1-.083-.327,15.858,15.858,0,0,0,1.746-1.109.174.174,0,1,1,.206.281,16.206,16.206,0,0,1-1.786,1.133A.179.179,0,0,1,313.515,91.817ZM295.822,90.21a.175.175,0,0,1-.11-.039,16.37,16.37,0,0,1-1.553-1.435.174.174,0,1,1,.253-.24,15.956,15.956,0,0,0,1.52,1.4.174.174,0,0,1-.11.309Zm21.065-.857a.174.174,0,0,1-.126-.054.172.172,0,0,1,.006-.246,16.015,16.015,0,0,0,1.4-1.522.174.174,0,0,1,.271.219,16.23,16.23,0,0,1-1.433,1.556.173.173,0,0,1-.12.048Zm-23.939-2.169a.175.175,0,0,1-.142-.072,16.281,16.281,0,0,1-1.13-1.787.174.174,0,1,1,.306-.168,16.1,16.1,0,0,0,1.106,1.748.174.174,0,0,1-.039.244.169.169,0,0,1-.1.034Zm26.562-1.08a.168.168,0,0,1-.09-.026.174.174,0,0,1-.057-.24,15.7,15.7,0,0,0,.96-1.833.175.175,0,1,1,.32.142,16.253,16.253,0,0,1-.982,1.873A.176.176,0,0,1,319.509,86.1Zm-28.558-2.583a.174.174,0,0,1-.162-.112,16.067,16.067,0,0,1-.628-2.02.174.174,0,0,1,.339-.081,15.739,15.739,0,0,0,.613,1.976.174.174,0,0,1-.1.226.172.172,0,0,1-.063.012Zm-.974-4.059a.174.174,0,0,1-.172-.156,16.431,16.431,0,0,1-.088-1.694c0-.14,0-.28.006-.419a.172.172,0,0,1,.179-.17.175.175,0,0,1,.171.179c0,.137-.006.273-.006.41a15.773,15.773,0,0,0,.087,1.658.176.176,0,0,1-.157.192h-.019Zm.109-4.173a.091.091,0,0,1-.027,0,.175.175,0,0,1-.146-.2,16.208,16.208,0,0,1,.464-2.062.174.174,0,1,1,.334.1,15.834,15.834,0,0,0-.454,2.019.174.174,0,0,1-.173.147Zm1.184-4a.175.175,0,0,1-.159-.246,16.129,16.129,0,0,1,.987-1.872.174.174,0,1,1,.3.183,15.7,15.7,0,0,0-.965,1.83.175.175,0,0,1-.159.1Zm28.654-1.094a.175.175,0,0,1-.154-.092,15.955,15.955,0,0,0-1.1-1.75.174.174,0,0,1,.282-.205,16,16,0,0,1,1.127,1.789.174.174,0,0,1-.153.257Zm-26.47-2.463a.174.174,0,0,1-.136-.284,16.707,16.707,0,0,1,1.435-1.552.174.174,0,1,1,.24.253,16.005,16.005,0,0,0-1.4,1.518A.173.173,0,0,1,293.455,67.728Zm24.019-.918a.174.174,0,0,1-.127-.054,15.964,15.964,0,0,0-1.516-1.408.174.174,0,0,1,.219-.271,16.393,16.393,0,0,1,1.551,1.439.174.174,0,0,1-.126.294Zm-20.991-1.955a.175.175,0,0,1-.1-.316,16.09,16.09,0,0,1,1.787-1.128.175.175,0,1,1,.167.307,16.03,16.03,0,0,0-1.749,1.1A.18.18,0,0,1,296.484,64.854Zm17.751-.679a.172.172,0,0,1-.092-.026,15.873,15.873,0,0,0-1.829-.968.175.175,0,1,1,.144-.318,16.2,16.2,0,0,1,1.869.989.174.174,0,0,1-.091.322ZM300.15,62.864a.175.175,0,0,1-.062-.338,16.228,16.228,0,0,1,2.02-.625.174.174,0,1,1,.081.339,15.747,15.747,0,0,0-1.976.611.179.179,0,0,1-.063.012Zm10.273-.393a.167.167,0,0,1-.05-.008,15.841,15.841,0,0,0-2.019-.458.175.175,0,1,1,.054-.345,15.881,15.881,0,0,1,2.062.468.175.175,0,0,1-.051.342Zm-6.214-.575a.174.174,0,0,1-.018-.348,16.264,16.264,0,0,1,2.112-.08.175.175,0,1,1-.008.349,16.045,16.045,0,0,0-2.068.079Z" transform="translate(-22.636 -4.802)" fill="#a6f1ef"/>
  <path id="Trazado_719517" data-name="Trazado 719517" d="M104.706,79.292c.162.121.323.245.481.37a.265.265,0,0,1,.043.371.27.27,0,0,1-.371.044,24.5,24.5,0,0,0-2.579-1.778.264.264,0,1,1,.27-.454A24.854,24.854,0,0,1,104.706,79.292Zm2.828,2.483c.01.008.02.017.031.027a24.444,24.444,0,0,1,2.079,2.434.264.264,0,0,1-.424.316,23.681,23.681,0,0,0-2.035-2.381.264.264,0,0,1,.348-.4Zm-7.779-5.356a.264.264,0,0,1-.264.454,23.546,23.546,0,0,0-2.95-1.047.264.264,0,0,1,.143-.509,24.4,24.4,0,0,1,3.015,1.07.362.362,0,0,1,.054.031ZM111.314,86.84a.291.291,0,0,1,.072.083,24.566,24.566,0,0,1,1.373,2.893.264.264,0,0,1-.491.195,23.8,23.8,0,0,0-1.343-2.831.265.265,0,0,1,.39-.34ZM93.675,74.7a.263.263,0,0,1-.2.472,24.091,24.091,0,0,0-3.122-.244.264.264,0,0,1,.006-.527,24.483,24.483,0,0,1,3.192.249A.257.257,0,0,1,93.675,74.7Zm19.968,18.014a.262.262,0,0,1,.1.147,24.652,24.652,0,0,1,.578,3.148.264.264,0,1,1-.525.061,23.97,23.97,0,0,0-.566-3.081.265.265,0,0,1,.416-.276ZM87.356,74.622a.264.264,0,0,1-.126.474,24.158,24.158,0,0,0-3.079.57.264.264,0,0,1-.13-.512,24.594,24.594,0,0,1,3.148-.583.264.264,0,0,1,.189.052Zm27.021,24.37a.261.261,0,0,1,.106.215,24.56,24.56,0,0,1-.253,3.189.264.264,0,1,1-.522-.076,24.024,24.024,0,0,0,.247-3.121.265.265,0,0,1,.268-.261.262.262,0,0,1,.155.053ZM81.23,76.175a.264.264,0,0,1-.062.456,24.065,24.065,0,0,0-2.828,1.347.264.264,0,0,1-.258-.461,24.5,24.5,0,0,1,2.89-1.377.263.263,0,0,1,.256.035Zm32.237,29.065a.263.263,0,0,1,.095.284,24.116,24.116,0,0,1-1.074,3.015.263.263,0,1,1-.484-.208,23.667,23.667,0,0,0,1.05-2.949.263.263,0,0,1,.326-.182.245.245,0,0,1,.087.042Zm-2.507,5.8a.264.264,0,0,1,.068.347,24.689,24.689,0,0,1-1.432,2.13c-.128.171-.256.337-.387.5a.26.26,0,0,1-.371.044.264.264,0,0,1-.044-.372q.192-.243.379-.492a24.57,24.57,0,0,0,1.4-2.084.264.264,0,0,1,.362-.09Zm-3.921,4.955a.2.2,0,0,1,.03.027.265.265,0,0,1,0,.374,24.426,24.426,0,0,1-2.437,2.076.264.264,0,0,1-.316-.424,24.029,24.029,0,0,0,2.384-2.031A.264.264,0,0,1,107.038,115.995Zm-5.07,3.773a.273.273,0,0,1,.073.082.264.264,0,0,1-.1.36,24.394,24.394,0,0,1-2.894,1.369.264.264,0,0,1-.195-.491,24.063,24.063,0,0,0,2.832-1.339.263.263,0,0,1,.288.019Zm-35.695-24.7a.266.266,0,0,1,.1.25,24.052,24.052,0,0,0-.255,3.122.264.264,0,1,1-.529-.007,24.44,24.44,0,0,1,.262-3.19.266.266,0,0,1,.3-.223.262.262,0,0,1,.12.05ZM96.09,122.09a.268.268,0,0,1,.1.147.265.265,0,0,1-.192.321,24.789,24.789,0,0,1-3.149.574.264.264,0,1,1-.061-.525,24.2,24.2,0,0,0,3.081-.561.264.264,0,0,1,.223.045Zm-29.92-20.7a.266.266,0,0,1,.1.182,24.219,24.219,0,0,0,.558,3.082.264.264,0,1,1-.512.127,24.581,24.581,0,0,1-.571-3.15.264.264,0,0,1,.232-.292A.254.254,0,0,1,66.17,101.387Zm23.643,21.431a.262.262,0,0,1,.106.215.266.266,0,0,1-.268.261,24.6,24.6,0,0,1-3.189-.256.265.265,0,0,1,.077-.524,24.194,24.194,0,0,0,3.121.252.26.26,0,0,1,.155.053ZM67.7,107.518a.275.275,0,0,1,.088.114,23.834,23.834,0,0,0,1.337,2.834.265.265,0,1,1-.463.256,24.72,24.72,0,0,1-1.366-2.895.265.265,0,0,1,.4-.309ZM83.565,121.9a.264.264,0,0,1-.231.466,24.235,24.235,0,0,1-3.014-1.078.264.264,0,0,1,.21-.484,23.624,23.624,0,0,0,2.948,1.055.262.262,0,0,1,.086.042Zm-12.8-8.855a.332.332,0,0,1,.054.054,24.071,24.071,0,0,0,2.029,2.388.264.264,0,0,1-.379.369,24.377,24.377,0,0,1-2.074-2.44.265.265,0,0,1,.37-.371Zm7,6.34a.264.264,0,0,1-.294.437A24.764,24.764,0,0,1,74.845,118a.264.264,0,1,1,.329-.414,24.364,24.364,0,0,0,2.574,1.783l.023.016Z" transform="translate(-5.125 -5.813)" fill="#a6f1ef"/>
  <path id="Trazado_719518" data-name="Trazado 719518" d="M334.78,80.578H317.745l-.026-.21a1.746,1.746,0,0,1,.679-1.659,2.9,2.9,0,0,1,2.49-.392,5.467,5.467,0,0,1,1.451-3.864,5.969,5.969,0,0,1,7.847,0,5.467,5.467,0,0,1,1.45,3.864,2.9,2.9,0,0,1,2.49.392,1.745,1.745,0,0,1,.679,1.659l-.026.21Zm-16.6-.481h16.159a1.251,1.251,0,0,0-.509-1.008,2.5,2.5,0,0,0-2.349-.214l-.338.135.008-.365a5.136,5.136,0,0,0-1.311-3.855,5.494,5.494,0,0,0-7.163,0,5.139,5.139,0,0,0-1.309,3.855l.008.365-.338-.135a2.5,2.5,0,0,0-2.349.214A1.252,1.252,0,0,0,318.182,80.1Z" transform="translate(-24.823 -5.702)" fill="#a6f1ef"/>
  <path id="Trazado_719519" data-name="Trazado 719519" d="M219.121,178H209v-11.69l2.073-2.073h8.043Zm-9.758-.359h9.4V164.6h-7.537l-1.862,1.863Z" transform="translate(-16.33 -12.832)" fill="#a6f1ef"/>
  <path id="Trazado_719520" data-name="Trazado 719520" d="M212.027,167.313h-2.248v-.359h1.89v-1.89h.358Z" transform="translate(-16.39 -12.897)" fill="#a6f1ef"/>
  <path id="Trazado_719521" data-name="Trazado 719521" d="M163.75,144.993a1.287,1.287,0,0,1-1.285-1.287v-.324a2.511,2.511,0,0,0-.607-1.606,2.442,2.442,0,0,1-.56-1.693,2.475,2.475,0,0,1,2.335-2.324,2.454,2.454,0,0,1,1.984,4.046,2.329,2.329,0,0,0-.581,1.5v.395a1.287,1.287,0,0,1-1.285,1.286Zm0-6.967c-.035,0-.071,0-.105,0a2.2,2.2,0,0,0-2.081,2.071,2.172,2.172,0,0,0,.5,1.506,2.811,2.811,0,0,1,.669,1.776v.324a1.018,1.018,0,1,0,2.036,0v-.395a2.6,2.6,0,0,1,.645-1.678,2.187,2.187,0,0,0-1.662-3.607Z" transform="translate(-12.602 -10.763)" fill="#a6f1ef"/>
  <path id="Trazado_719522" data-name="Trazado 719522" d="M164.081,135.295h-.268v1.715h.268Z" transform="translate(-12.799 -10.571)" fill="#a6f1ef"/>
  <path id="Trazado_719523" data-name="Trazado 719523" d="M167.39,136.723l-1.212,1.212.19.189,1.212-1.212Z" transform="translate(-12.984 -10.682)" fill="#a6f1ef"/>
  <path id="Trazado_719524" data-name="Trazado 719524" d="M168.941,140.337h-1.715v.268h1.715Z" transform="translate(-13.066 -10.965)" fill="#a6f1ef"/>
  <path id="Trazado_719525" data-name="Trazado 719525" d="M160.388,136.685l-.189.19,1.212,1.212.189-.19Z" transform="translate(-12.517 -10.679)" fill="#a6f1ef"/>
  <path id="Trazado_719526" data-name="Trazado 719526" d="M160.485,140.277h-1.714v.268h1.714Z" transform="translate(-12.405 -10.96)" fill="#a6f1ef"/>
  <path id="Trazado_719527" data-name="Trazado 719527" d="M164.842,143.245h-1.963v.268h1.963Z" transform="translate(-12.726 -11.192)" fill="#a6f1ef"/>
  <path id="Trazado_719528" data-name="Trazado 719528" d="M164.737,144.115h-1.769v.268h1.769Z" transform="translate(-12.733 -11.26)" fill="#a6f1ef"/>
  <path id="Trazado_719529" data-name="Trazado 719529" d="M121.284,32.042A1.286,1.286,0,0,1,120,30.756v-.324a2.507,2.507,0,0,0-.608-1.606,2.45,2.45,0,0,1-.56-1.692,2.475,2.475,0,0,1,2.336-2.324,2.454,2.454,0,0,1,1.984,4.046,2.33,2.33,0,0,0-.582,1.5v.394a1.287,1.287,0,0,1-1.285,1.286Zm0-6.966c-.035,0-.071,0-.106,0a2.2,2.2,0,0,0-2.08,2.07,2.169,2.169,0,0,0,.5,1.507,2.809,2.809,0,0,1,.668,1.776v.324a1.019,1.019,0,0,0,2.037,0v-.394a2.6,2.6,0,0,1,.645-1.678,2.186,2.186,0,0,0-1.663-3.607Z" transform="translate(-9.284 -1.938)" fill="#a6f1ef"/>
  <path id="Trazado_719530" data-name="Trazado 719530" d="M121.614,22.344h-.268v1.714h.268Z" transform="translate(-9.481 -1.746)" fill="#a6f1ef"/>
  <path id="Trazado_719531" data-name="Trazado 719531" d="M124.926,23.774l-1.212,1.212.189.19,1.212-1.212Z" transform="translate(-9.666 -1.858)" fill="#a6f1ef"/>
  <path id="Trazado_719532" data-name="Trazado 719532" d="M126.476,27.387h-1.715v.268h1.715Z" transform="translate(-9.748 -2.14)" fill="#a6f1ef"/>
  <path id="Trazado_719533" data-name="Trazado 719533" d="M117.925,23.733l-.19.19,1.212,1.212.19-.19Z" transform="translate(-9.199 -1.854)" fill="#a6f1ef"/>
  <path id="Trazado_719534" data-name="Trazado 719534" d="M118.019,27.326H116.3v.268h1.715Z" transform="translate(-9.087 -2.135)" fill="#a6f1ef"/>
  <path id="Trazado_719535" data-name="Trazado 719535" d="M122.376,30.295h-1.964v.268h1.964Z" transform="translate(-9.408 -2.367)" fill="#a6f1ef"/>
  <path id="Trazado_719536" data-name="Trazado 719536" d="M122.272,31.165H120.5v.268h1.769Z" transform="translate(-9.415 -2.435)" fill="#a6f1ef"/>
  <path id="Trazado_719537" data-name="Trazado 719537" d="M173.413,73.768a.541.541,0,0,0-.54.54v1.08h-1.079a.54.54,0,1,0,0,1.08h1.622a.541.541,0,0,0,.54-.54V74.307a.54.54,0,0,0-.54-.54Z" transform="translate(-13.38 -5.764)" fill="#fff"/>
  <path id="Trazado_719538" data-name="Trazado 719538" d="M173.413,68.225h-1.622a.54.54,0,1,0,0,1.08h1.08v1.08a.54.54,0,0,0,1.08,0V68.764a.541.541,0,0,0-.54-.54Z" transform="translate(-13.38 -5.33)" fill="#fff"/>
  <path id="Trazado_719539" data-name="Trazado 719539" d="M167.544,66.512a.54.54,0,0,0-.407.647c.117.512.218,1.034.3,1.553a.541.541,0,0,0,.534.458h1.622a.54.54,0,1,0,0-1.08h-1.162c-.068-.393-.148-.786-.237-1.173a.539.539,0,0,0-.647-.406Z" transform="translate(-13.058 -5.196)" fill="#fff"/>
  <path id="Trazado_719540" data-name="Trazado 719540" d="M165.316,62.015a21.753,21.753,0,0,1,.973,2.318.541.541,0,0,0,.509.361.55.55,0,0,0,.181-.031.54.54,0,0,0,.329-.69,23.251,23.251,0,0,0-1.022-2.434.541.541,0,0,0-.971.476Z" transform="translate(-12.912 -4.785)" fill="#fff"/>
  <path id="Trazado_719541" data-name="Trazado 719541" d="M163,58.119c.314.422.617.86.9,1.3a.538.538,0,0,0,.454.249.53.53,0,0,0,.29-.085.539.539,0,0,0,.163-.746q-.318-.5-.667-.987l.82-.819a.54.54,0,0,0-.764-.764l-1.146,1.146a.542.542,0,0,0-.052.705Z" transform="translate(-12.727 -4.384)" fill="#fff"/>
  <path id="Trazado_719542" data-name="Trazado 719542" d="M165.8,55.332a.538.538,0,0,0,.762,0l1.146-1.146a.539.539,0,0,0,0-.764l-1.146-1.146a.54.54,0,0,0-.764.764l.764.764-.764.764a.54.54,0,0,0,0,.764Z" transform="translate(-12.942 -4.072)" fill="#fff"/>
  <path id="Trazado_719543" data-name="Trazado 719543" d="M161.4,50.268l.765-.764.764.764a.54.54,0,0,0,.763-.764l-1.146-1.146a.558.558,0,0,0-.765,0L160.638,49.5a.54.54,0,1,0,.764.764Z" transform="translate(-12.539 -3.766)" fill="#fff"/>
  <path id="Trazado_719544" data-name="Trazado 719544" d="M156.51,52.2c.444.28.884.579,1.308.891a.539.539,0,0,0,.7-.054l1.147-1.146a.541.541,0,1,0-.765-.764l-.822.821c-.325-.229-.658-.451-.994-.663a.54.54,0,0,0-.576.914Z" transform="translate(-12.209 -3.982)" fill="#fff"/>
  <path id="Trazado_719545" data-name="Trazado 719545" d="M151.637,49.871a22.044,22.044,0,0,1,2.3.953.54.54,0,1,0,.469-.973,23.036,23.036,0,0,0-2.416-1,.54.54,0,0,0-.355,1.021Z" transform="translate(-11.819 -3.814)" fill="#fff"/>
  <path id="Trazado_719546" data-name="Trazado 719546" d="M149.133,47.908c-.386-.086-.778-.165-1.172-.232V46.515a.54.54,0,0,0-1.08,0v1.622a.542.542,0,0,0,.461.535c.52.079,1.044.177,1.555.293a.547.547,0,0,0,.12.013.54.54,0,0,0,.119-1.067Z" transform="translate(-11.476 -3.592)" fill="#fff"/>
  <path id="Trazado_719547" data-name="Trazado 719547" d="M145.662,43.1h1.08v1.08a.54.54,0,0,0,1.08,0V42.559a.541.541,0,0,0-.54-.54h-1.622a.54.54,0,1,0,0,1.08Z" transform="translate(-11.339 -3.283)" fill="#fff"/>
  <path id="Trazado_719548" data-name="Trazado 719548" d="M141.742,42.019H140.12a.541.541,0,0,0-.54.54v1.622a.54.54,0,1,0,1.08,0V43.1h1.08a.54.54,0,1,0,0-1.08Z" transform="translate(-10.906 -3.283)" fill="#fff"/>
  <path id="Trazado_719549" data-name="Trazado 719549" d="M138.39,48.961a.517.517,0,0,0,.117-.013c.512-.113,1.035-.21,1.556-.287a.539.539,0,0,0,.461-.535V46.5a.54.54,0,1,0-1.08,0v1.159c-.394.066-.785.143-1.172.228a.54.54,0,0,0,.117,1.067Z" transform="translate(-10.77 -3.591)" fill="#fff"/>
  <path id="Trazado_719550" data-name="Trazado 719550" d="M135.348,48.826a23.275,23.275,0,0,0-2.419.993.541.541,0,0,0,.233,1.029.534.534,0,0,0,.232-.053,22.193,22.193,0,0,1,2.306-.946.541.541,0,1,0-.352-1.022Z" transform="translate(-10.362 -3.813)" fill="#fff"/>
  <path id="Trazado_719551" data-name="Trazado 719551" d="M130.236,51.243c-.336.21-.669.431-1,.66l-.822-.822a.54.54,0,0,0-.764.764l1.146,1.146a.544.544,0,0,0,.382.158.535.535,0,0,0,.319-.1c.426-.311.867-.608,1.311-.887a.541.541,0,0,0-.574-.917Z" transform="translate(-9.961 -3.979)" fill="#fff"/>
  <path id="Trazado_719552" data-name="Trazado 719552" d="M125.541,48.3a.557.557,0,0,0-.764,0l-1.146,1.146a.54.54,0,0,0,.764.764l.764-.764.764.764a.54.54,0,0,0,.763-.764Z" transform="translate(-9.647 -3.762)" fill="#fff"/>
  <path id="Trazado_719553" data-name="Trazado 719553" d="M120.858,55.279a.54.54,0,1,0,.763-.764l-.764-.764.764-.764a.54.54,0,0,0-.764-.764l-1.146,1.146a.541.541,0,0,0,0,.766l1.146,1.146Z" transform="translate(-9.341 -4.068)" fill="#fff"/>
  <path id="Trazado_719554" data-name="Trazado 719554" d="M123.27,57.788c-.23.321-.455.65-.67.983a.541.541,0,0,0,.909.585c.286-.445.59-.882.9-1.3a.54.54,0,0,0-.051-.706L123.216,56.2a.54.54,0,1,0-.764.764Z" transform="translate(-9.555 -4.379)" fill="#fff"/>
  <path id="Trazado_719555" data-name="Trazado 719555" d="M121.126,61.469A22.965,22.965,0,0,0,120.1,63.9a.54.54,0,0,0,.327.691.529.529,0,0,0,.182.032.541.541,0,0,0,.509-.358,22.069,22.069,0,0,1,.981-2.315.54.54,0,1,0-.969-.477Z" transform="translate(-9.381 -4.779)" fill="#fff"/>
  <path id="Trazado_719556" data-name="Trazado 719556" d="M117.722,69.095h1.622a.54.54,0,0,0,.534-.456c.083-.521.184-1.044.3-1.553a.54.54,0,0,0-1.053-.245c-.09.387-.171.78-.242,1.173h-1.163a.54.54,0,1,0,0,1.08Z" transform="translate(-9.156 -5.19)" fill="#fff"/>
  <path id="Trazado_719557" data-name="Trazado 719557" d="M115.536,68.148h-1.622a.541.541,0,0,0-.54.54V70.31a.54.54,0,1,0,1.08,0V69.23h1.08a.54.54,0,1,0,0-1.08Z" transform="translate(-8.858 -5.325)" fill="#fff"/>
  <path id="Trazado_719558" data-name="Trazado 719558" d="M115.536,75.313h-1.08v-1.08a.54.54,0,0,0-1.08,0v1.622a.541.541,0,0,0,.54.54h1.622a.54.54,0,1,0,0-1.08Z" transform="translate(-8.858 -5.758)" fill="#fff"/>
  <path id="Trazado_719559" data-name="Trazado 719559" d="M119.678,78.114a.539.539,0,0,0,.415-.642c-.109-.513-.2-1.038-.276-1.558a.54.54,0,0,0-.535-.465h-1.622a.54.54,0,1,0,0,1.08h1.156c.064.392.136.784.219,1.169a.541.541,0,0,0,.527.428.57.57,0,0,0,.113-.012Z" transform="translate(-9.151 -5.895)" fill="#fff"/>
  <path id="Trazado_719560" data-name="Trazado 719560" d="M121.947,82.634a22.168,22.168,0,0,1-.957-2.359.54.54,0,0,0-1.023.348,23.249,23.249,0,0,0,1,2.475.542.542,0,0,0,.489.309.528.528,0,0,0,.23-.053.54.54,0,0,0,.257-.719Z" transform="translate(-9.371 -6.243)" fill="#fff"/>
  <path id="Trazado_719561" data-name="Trazado 719561" d="M124.224,86.576c-.309-.424-.608-.866-.885-1.31a.541.541,0,0,0-.916.574c.21.336.431.67.66,1l-.822.822a.54.54,0,1,0,.762.764l1.146-1.146a.539.539,0,0,0,.054-.7Z" transform="translate(-9.54 -6.642)" fill="#fff"/>
  <path id="Trazado_719562" data-name="Trazado 719562" d="M121.567,89.229a.54.54,0,0,0-.764,0l-1.146,1.146a.54.54,0,0,0,0,.764l1.146,1.146a.54.54,0,0,0,.763-.764l-.764-.764.764-.764a.54.54,0,0,0,0-.764Z" transform="translate(-9.337 -6.959)" fill="#fff"/>
  <path id="Trazado_719563" data-name="Trazado 719563" d="M125.869,94.391l-.764.764-.764-.764a.541.541,0,0,0-.765.764l1.146,1.146a.539.539,0,0,0,.763,0l1.146-1.146a.54.54,0,0,0-.764-.764Z" transform="translate(-9.643 -7.363)" fill="#fff"/>
  <path id="Trazado_719564" data-name="Trazado 719564" d="M130.536,92.679c-.437-.282-.876-.586-1.3-.9a.54.54,0,0,0-.706.05l-1.146,1.146a.541.541,0,0,0,.382.923.535.535,0,0,0,.382-.159l.819-.819c.324.233.654.458.984.67a.54.54,0,0,0,.584-.909Z" transform="translate(-9.94 -7.162)" fill="#fff"/>
  <path id="Trazado_719565" data-name="Trazado 719565" d="M135.544,95.124a22.02,22.02,0,0,1-2.367-.994.54.54,0,1,0-.476.971,23.268,23.268,0,0,0,2.485,1.043.54.54,0,0,0,.358-1.02Z" transform="translate(-10.345 -7.35)" fill="#fff"/>
  <path id="Trazado_719566" data-name="Trazado 719566" d="M139.368,98.429a.54.54,0,0,0,1.08,0V96.807a.542.542,0,0,0-.461-.535c-.519-.079-1.043-.177-1.555-.291a.54.54,0,1,0-.238,1.054c.387.086.779.165,1.172.232v1.161Z" transform="translate(-10.764 -7.498)" fill="#fff"/>
  <path id="Trazado_719567" data-name="Trazado 719567" d="M141.665,101.519h-1.08v-1.08a.54.54,0,0,0-1.08,0v1.622a.541.541,0,0,0,.54.54h1.622a.54.54,0,0,0,0-1.08Z" transform="translate(-10.9 -7.805)" fill="#fff"/>
  <path id="Trazado_719568" data-name="Trazado 719568" d="M147.207,99.9a.541.541,0,0,0-.54.54v1.08h-1.08a.54.54,0,1,0,0,1.08h1.622a.541.541,0,0,0,.54-.54v-1.622a.541.541,0,0,0-.54-.54Z" transform="translate(-11.333 -7.805)" fill="#fff"/>
  <path id="Trazado_719569" data-name="Trazado 719569" d="M148.822,96c-.512.113-1.035.21-1.556.286a.54.54,0,0,0-.462.535v1.622a.54.54,0,0,0,1.08,0V97.28c.394-.066.785-.142,1.172-.228A.54.54,0,1,0,148.822,96Z" transform="translate(-11.47 -7.499)" fill="#fff"/>
  <path id="Trazado_719570" data-name="Trazado 719570" d="M154.013,94.162a21.774,21.774,0,0,1-2.372.985A.541.541,0,0,0,152,96.168a22.914,22.914,0,0,0,2.487-1.034.54.54,0,1,0-.471-.972Z" transform="translate(-11.82 -7.353)" fill="#fff"/>
  <path id="Trazado_719571" data-name="Trazado 719571" d="M158.661,91.873a.54.54,0,0,0-.705-.052c-.42.313-.858.616-1.3.9a.54.54,0,1,0,.583.91c.334-.213.664-.437.987-.668l.82.819a.54.54,0,0,0,.763-.764l-1.146-1.146Z" transform="translate(-12.22 -7.166)" fill="#fff"/>
  <path id="Trazado_719572" data-name="Trazado 719572" d="M162.875,94.446l-.764.764-.765-.764a.54.54,0,0,0-.764.764l1.146,1.146a.539.539,0,0,0,.763,0l1.146-1.146a.54.54,0,0,0-.764-.764Z" transform="translate(-12.534 -7.367)" fill="#fff"/>
  <path id="Trazado_719573" data-name="Trazado 719573" d="M166.51,89.283a.54.54,0,0,0-.764.764l.764.764-.764.764a.541.541,0,0,0,.382.923.535.535,0,0,0,.382-.159l1.146-1.146a.54.54,0,0,0,0-.764l-1.146-1.146Z" transform="translate(-12.938 -6.963)" fill="#fff"/>
  <path id="Trazado_719574" data-name="Trazado 719574" d="M164.241,86.9c.23-.326.451-.659.663-.994a.54.54,0,0,0-.914-.576c-.279.445-.579.884-.891,1.308a.539.539,0,0,0,.053.7l1.146,1.146a.54.54,0,0,0,.763-.764l-.821-.821Z" transform="translate(-12.735 -6.647)" fill="#fff"/>
  <path id="Trazado_719575" data-name="Trazado 719575" d="M165.889,83.478a.544.544,0,0,0,.489-.307A23.2,23.2,0,0,0,167.39,80.7a.541.541,0,0,0-1.022-.352A22.15,22.15,0,0,1,165.4,82.7a.541.541,0,0,0,.254.721.534.534,0,0,0,.233.053Z" transform="translate(-12.919 -6.249)" fill="#fff"/>
  <path id="Trazado_719576" data-name="Trazado 719576" d="M169.63,75.527h-1.622a.542.542,0,0,0-.536.464c-.075.521-.169,1.044-.28,1.557a.54.54,0,0,0,.412.643.509.509,0,0,0,.116.013.54.54,0,0,0,.527-.425c.084-.387.159-.779.223-1.17h1.157a.54.54,0,1,0,0-1.08Z" transform="translate(-13.062 -5.901)" fill="#fff"/>
  <g id="Grupo_1017440" data-name="Grupo 1017440" transform="translate(247.582 109.176)">
    <path id="Trazado_719577" data-name="Trazado 719577" d="M271.415,165.837a.32.32,0,0,1,.377.245l1.469,6.887q.723-2.12,1.592-4.411a147.831,147.831,0,0,1,13.238-26.312.326.326,0,0,1-.036-.093l-1.718-8.056a.318.318,0,1,1,.622-.133l1.608,7.535a155.818,155.818,0,0,1,17.976-22.971.318.318,0,1,1,.463.437,155.99,155.99,0,0,0-11.545,13.706l5.825-1.108a.318.318,0,1,1,.119.624l-6.5,1.235H294.9A151.79,151.79,0,0,0,279.19,159.9l8.454-.961a.318.318,0,1,1,.072.631l-8.636.981a.329.329,0,0,1-.074,0,.3.3,0,0,1-.1-.03c-1.351,2.961-2.491,5.723-3.447,8.234q-1.086,2.853-1.939,5.44a.316.316,0,0,1-.064.191,96,96,0,0,0-4.256,17.421.318.318,0,0,1-.35.281h0a.318.318,0,0,1-.278-.35,96.638,96.638,0,0,1,4.3-17.59l-1.693-7.939a.318.318,0,0,1,.244-.377Z" transform="translate(-268.566 -118.429)" fill="#dedede"/>
  </g>
  <g id="Grupo_1017441" data-name="Grupo 1017441" transform="translate(261.73 161.057)">
    <path id="Trazado_719578" data-name="Trazado 719578" d="M283.931,196.289a45.975,45.975,0,0,1,6.832-7.913,64.375,64.375,0,0,1,10.148-7.829.172.172,0,0,1,0-.043l.843-3.485a.139.139,0,0,1,.269.066l-.789,3.261a67.778,67.778,0,0,1,11.38-5.629.139.139,0,0,1,.1.259,68.114,68.114,0,0,0-7.11,3.2l2.495.663a.138.138,0,0,1-.071.266l-2.78-.738h0A66.059,66.059,0,0,0,294.1,185.8l3.5,1.215a.139.139,0,0,1-.091.262l-3.573-1.241a.121.121,0,0,1-.029-.015.1.1,0,0,1-.033-.03c-1.087.906-2.056,1.776-2.9,2.58a45.653,45.653,0,0,0-6.8,7.865.138.138,0,0,1-.191.044.14.14,0,0,1-.043-.191Z" transform="translate(-283.913 -174.707)" fill="#dedede"/>
  </g>
  <g id="Grupo_1017442" data-name="Grupo 1017442" transform="translate(34.763 80.577)">
    <path id="Trazado_719579" data-name="Trazado 719579" d="M75.973,153a.408.408,0,0,0-.517.254l-2.905,8.535q-.6-2.8-1.359-5.846A189.215,189.215,0,0,0,58.327,120.5a.38.38,0,0,0,.061-.113l3.4-9.982a.407.407,0,1,0-.771-.263l-3.179,9.338A199.547,199.547,0,0,0,38.444,87.57a.407.407,0,1,0-.654.486A199.563,199.563,0,0,1,50.4,107.218l-7.238-2.285a.407.407,0,0,0-.245.776l8.07,2.548a.021.021,0,0,1,.009,0,194.29,194.29,0,0,1,15.985,36.028l-10.6-2.494a.407.407,0,1,0-.187.793l10.831,2.548a.407.407,0,0,0,.094.01.387.387,0,0,0,.134-.023c1.271,3.966,2.3,7.651,3.14,10.986.634,2.525,1.178,4.933,1.645,7.207a.409.409,0,0,0,.052.253c2.823,13.851,2.787,22.683,2.786,22.787a.408.408,0,0,0,.4.41h0a.408.408,0,0,0,.407-.4c0-.1.04-9.032-2.813-23.007l3.349-9.838a.407.407,0,0,0-.254-.516Z" transform="translate(-37.71 -87.406)" fill="#dedede"/>
  </g>
  <g id="Grupo_1017443" data-name="Grupo 1017443" transform="translate(85.52 126.9)">
    <path id="Trazado_719580" data-name="Trazado 719580" d="M92.782,188.791a85.005,85.005,0,0,1,8.952-17.17A119.157,119.157,0,0,1,116.7,153.19a.293.293,0,0,1-.013-.081l.038-6.64a.256.256,0,0,1,.513,0l-.035,6.214a125.534,125.534,0,0,1,18.12-14.986.256.256,0,1,1,.287.423,125.671,125.671,0,0,0-11.455,8.8l4.777.133a.256.256,0,0,1-.014.512l-5.327-.148h0a122.484,122.484,0,0,0-16.946,18.136l6.822.7a.256.256,0,1,1-.053.509l-6.97-.718a.242.242,0,0,1-.058-.013.233.233,0,0,1-.073-.04c-1.575,2.1-2.951,4.076-4.136,5.888a84.507,84.507,0,0,0-8.906,17.07.256.256,0,0,1-.325.161h0a.257.257,0,0,1-.159-.324Z" transform="translate(-92.768 -137.656)" fill="#dedede"/>
  </g>
  <g id="Grupo_1017444" data-name="Grupo 1017444" transform="translate(0 139.853)">
    <path id="Trazado_719581" data-name="Trazado 719581" d="M48.743,192.879a81.186,81.186,0,0,0-11.234-14.7,113.746,113.746,0,0,0-17.1-14.908.233.233,0,0,0,0-.078l-1.12-6.246a.245.245,0,1,0-.482.087l1.048,5.844A120.126,120.126,0,0,0,.346,151.728a.245.245,0,0,0-.2.447,120.108,120.108,0,0,1,12.222,6.412l-4.475.906a.245.245,0,0,0,.1.481l4.991-1.011h0A117,117,0,0,1,31.9,173.27l-6.307,1.776a.245.245,0,0,0,.133.471l6.445-1.815a.284.284,0,0,0,.053-.022.24.24,0,0,0,.063-.05c1.824,1.717,3.443,3.355,4.856,4.867a80.754,80.754,0,0,1,11.173,14.615.246.246,0,0,0,.333.1h0a.247.247,0,0,0,.1-.333Z" transform="translate(0 -151.707)" fill="#dedede"/>
  </g>
  <g id="Grupo_1017445" data-name="Grupo 1017445" transform="translate(209.475 147.106)">
    <path id="Trazado_719582" data-name="Trazado 719582" d="M255.456,193.168a55.88,55.88,0,0,0-5.886-11.281,78.226,78.226,0,0,0-9.837-12.109.175.175,0,0,0,.007-.053l-.026-4.363a.168.168,0,1,0-.336,0l.025,4.084a82.525,82.525,0,0,0-11.909-9.846.169.169,0,1,0-.19.279,82.432,82.432,0,0,1,7.529,5.78l-3.139.089a.168.168,0,0,0,.009.336l3.5-.1h0a80.414,80.414,0,0,1,11.138,11.916l-4.483.463a.168.168,0,1,0,.033.335l4.58-.473a.118.118,0,0,0,.039-.009.194.194,0,0,0,.049-.027c1.034,1.378,1.941,2.678,2.719,3.868a55.653,55.653,0,0,1,5.856,11.215.17.17,0,0,0,.215.106h0a.169.169,0,0,0,.1-.214Z" transform="translate(-227.229 -159.573)" fill="#dedede"/>
  </g>
  <path id="Trazado_719583" data-name="Trazado 719583" d="M31.967,196.633H288.926a2.193,2.193,0,0,1,2.191,2.191v5.522H29.775v-5.522A2.193,2.193,0,0,1,31.967,196.633Z" transform="translate(-2.326 -15.363)" fill="#00aca7"/>
  <path id="Trazado_719584" data-name="Trazado 719584" d="M264.442,104.1h54.992c-.932-4.349-5.593-5.283-11.805-2.175,3.728-13.359-22.992-6.836-29.826,0-.311-4.661-10.874-.932-13.36,2.175Z" transform="translate(-20.661 -7.357)" fill="#fff"/>
  <path id="Trazado_719585" data-name="Trazado 719585" d="M51.1,50.508H106.1c-.932-4.349-5.593-5.282-11.806-2.175,3.728-13.359-22.992-6.836-29.826,0-.311-4.661-10.874-.932-13.359,2.175Z" transform="translate(-3.993 -3.17)" fill="#fff"/>
  <path id="Trazado_719586" data-name="Trazado 719586" d="M203.1,29.735h47c-.8-3.718-4.78-4.514-10.091-1.859,3.187-11.418-19.65-5.842-25.491,0-.265-3.983-9.294-.8-11.418,1.859Z" transform="translate(-15.869 -1.66)" fill="#fff"/>
  <path id="Trazado_719587" data-name="Trazado 719587" d="M200.227,139.473V126.131H190.078a44.635,44.635,0,0,0-8.339-19.867l7.294-7.295L179.6,89.535l-7.333,7.332a44.618,44.618,0,0,0-19.789-8.183V78.244h-13.34V88.668a44.629,44.629,0,0,0-19.814,8.118l-7.348-7.349-9.434,9.434,7.28,7.28a44.655,44.655,0,0,0-8.4,19.84H91.248v13.341H101.31a44.627,44.627,0,0,0,8.159,20.134L102.44,166.5l9.433,9.434,6.961-6.961A44.653,44.653,0,0,0,139,177.422v9.8h13.341v-9.784a44.637,44.637,0,0,0,20.187-8.383l6.975,6.975,9.433-9.434-7.012-7.013a44.631,44.631,0,0,0,8.224-20.11h10.082Zm-54.489,17.084a23.5,23.5,0,1,1,23.5-23.5A23.5,23.5,0,0,1,145.738,156.557Z" transform="translate(-7.129 -6.113)" fill="#01d8d1"/>
  <path id="Trazado_719588" data-name="Trazado 719588" d="M233.952,67.088l.292-7.3-5.551-.223a24.455,24.455,0,0,0-4.126-11.052l4.15-3.831-4.953-5.367-4.172,3.85a24.45,24.45,0,0,0-10.646-4.911l.229-5.712-7.3-.293-.229,5.7A24.432,24.432,0,0,0,190.63,41.96l-3.859-4.182L181.4,42.732l3.823,4.143a24.43,24.43,0,0,0-5.03,10.669l-5.566-.223-.292,7.3,5.5.22a24.458,24.458,0,0,0,4.022,11.194l-4,3.69,4.954,5.367,3.959-3.654A24.434,24.434,0,0,0,199.622,86.5l-.215,5.361,7.3.293.215-5.352a24.433,24.433,0,0,0,11.227-4.144l3.663,3.969,5.367-4.954L223.5,77.686a24.438,24.438,0,0,0,4.94-10.82l5.514.222Zm-30.184,8.15A12.868,12.868,0,1,1,217.141,62.9a12.868,12.868,0,0,1-13.374,12.341Z" transform="translate(-13.621 -2.52)" fill="#01d8d1"/>
  <path id="Trazado_719589" data-name="Trazado 719589" d="M272.488,74.507a.205.205,0,0,0-.207.191l-.04.991-.993-.04-.013,0c-.006,0-.01,0-.016,0l-1.189-.048a.2.2,0,0,0-.2.162,10.5,10.5,0,0,1-.277,1.136.2.2,0,0,0,.134.248.173.173,0,0,0,.057.009.2.2,0,0,0,.19-.14c.1-.329.184-.668.254-1.009l1.02.041.015,0s.009,0,.014,0l1.19.048h.007a.2.2,0,0,0,.2-.191l.047-1.19a.2.2,0,0,0-.191-.206Z" transform="translate(-21.06 -5.821)" fill="#fff"/>
  <path id="Trazado_719590" data-name="Trazado 719590" d="M272.722,72.3a.194.194,0,0,0-.138-.063l-1.189-.048a.123.123,0,0,0-.021,0,.128.128,0,0,0-.023-.005l-1.022-.041c-.044-.347-.107-.691-.183-1.027a.2.2,0,1,0-.387.089,10.538,10.538,0,0,1,.2,1.152.2.2,0,0,0,.19.175l1.189.048h.007a.073.073,0,0,0,.018,0c.006,0,.013.005.02.005l.991.04-.04.991a.2.2,0,0,0,.191.206h.007a.2.2,0,0,0,.2-.191l.047-1.19a.2.2,0,0,0-.053-.143Z" transform="translate(-21.076 -5.544)" fill="#fff"/>
  <path id="Trazado_719591" data-name="Trazado 719591" d="M268.078,66.833a.2.2,0,0,0-.03.258,10.406,10.406,0,0,1,.606,1A.2.2,0,1,0,269,67.9c-.162-.3-.34-.6-.532-.895l.75-.692a.2.2,0,0,0,.024-.035.181.181,0,0,0,.038-.023l.875-.808a.2.2,0,0,0,.065-.138.2.2,0,0,0-.053-.143l-.809-.875a.2.2,0,0,0-.291.269l.673.73-.729.673a.127.127,0,0,0-.026.036.178.178,0,0,0-.038.023l-.875.808Z" transform="translate(-20.94 -5.019)" fill="#fff"/>
  <path id="Trazado_719592" data-name="Trazado 719592" d="M264.7,63.995a10.54,10.54,0,0,1,.953.678.192.192,0,0,0,.124.044.194.194,0,0,0,.134-.053l.876-.808a.193.193,0,0,0,.029-.041.218.218,0,0,0,.042-.026l.729-.673.673.73a.2.2,0,0,0,.146.063.2.2,0,0,0,.146-.334l-.808-.875a.2.2,0,0,0-.138-.063.209.209,0,0,0-.143.053l-.876.808a.193.193,0,0,0-.03.041.218.218,0,0,0-.042.026l-.751.694c-.276-.213-.562-.414-.855-.6a.2.2,0,1,0-.211.335Z" transform="translate(-20.674 -4.894)" fill="#fff"/>
  <path id="Trazado_719593" data-name="Trazado 719593" d="M259.619,59.773l.991.04-.04.991a.185.185,0,0,0,.01.061.161.161,0,0,0-.015.054l-.047,1.19a.2.2,0,0,0,.161.2,10.77,10.77,0,0,1,1.134.284.188.188,0,0,0,.059.009.2.2,0,0,0,.06-.388c-.33-.1-.669-.191-1.009-.262l.041-1.021a.223.223,0,0,0-.009-.057.2.2,0,0,0,.014-.058l.048-1.19a.2.2,0,0,0-.191-.206l-1.19-.048a.206.206,0,0,0-.206.191.2.2,0,0,0,.191.206Z" transform="translate(-20.27 -4.639)" fill="#fff"/>
  <path id="Trazado_719594" data-name="Trazado 719594" d="M256.075,62.37a.164.164,0,0,0,.042-.005,10.6,10.6,0,0,1,1.153-.188.2.2,0,0,0,.178-.189l.048-1.19a.185.185,0,0,0-.009-.055.191.191,0,0,0,.014-.057l.039-.991.993.04a.2.2,0,0,0,.207-.191.2.2,0,0,0-.191-.206l-1.19-.048a.215.215,0,0,0-.142.053.2.2,0,0,0-.065.138l-.047,1.19a.137.137,0,0,1-.006.112l-.041,1.02c-.344.043-.69.1-1.027.177a.2.2,0,0,0,.042.393Z" transform="translate(-19.992 -4.632)" fill="#fff"/>
  <path id="Trazado_719595" data-name="Trazado 719595" d="M249.486,63.06l.73-.673.673.73a.17.17,0,0,0,.042.03.179.179,0,0,0,.028.046l.808.875a.2.2,0,0,0,.146.065.2.2,0,0,0,.111-.034,10.733,10.733,0,0,1,1.006-.6.2.2,0,0,0-.183-.353c-.306.16-.609.335-.9.525l-.693-.752a.2.2,0,0,0-.042-.031.211.211,0,0,0-.028-.045l-.807-.875a.194.194,0,0,0-.138-.063.2.2,0,0,0-.143.053l-.875.808a.2.2,0,1,0,.268.293Z" transform="translate(-19.467 -4.837)" fill="#fff"/>
  <path id="Trazado_719596" data-name="Trazado 719596" d="M248.419,65.4a.2.2,0,0,0,.032.023.164.164,0,0,0,.022.036l.692.75c-.216.273-.418.557-.6.847a.2.2,0,0,0,.059.275.2.2,0,0,0,.274-.059,10.662,10.662,0,0,1,.687-.945.2.2,0,0,0-.007-.26l-.808-.875a.276.276,0,0,0-.034-.025.246.246,0,0,0-.021-.036l-.673-.73.729-.673a.2.2,0,1,0-.268-.293l-.875.808a.2.2,0,0,0-.065.138.2.2,0,0,0,.053.143Z" transform="translate(-19.342 -4.952)" fill="#fff"/>
  <path id="Trazado_719597" data-name="Trazado 719597" d="M244.488,72.667h.008a.2.2,0,0,0,.2-.191l.039-.991.991.04c.009,0,.018,0,.028,0s.015.005.024.006l1.19.048h.007a.2.2,0,0,0,.195-.16,10.772,10.772,0,0,1,.293-1.132.2.2,0,0,0-.378-.12c-.106.333-.2.67-.268,1.008l-1.022-.041c-.007,0-.017,0-.024,0a.189.189,0,0,0-.026-.006l-1.19-.048a.207.207,0,0,0-.143.053.2.2,0,0,0-.065.138l-.048,1.19A.2.2,0,0,0,244.488,72.667Z" transform="translate(-19.087 -5.471)" fill="#fff"/>
  <path id="Trazado_719598" data-name="Trazado 719598" d="M246.634,75.014c.041.345.1.69.17,1.027A.2.2,0,0,0,247,76.2a.216.216,0,0,0,.041,0,.2.2,0,0,0,.152-.236,10.527,10.527,0,0,1-.18-1.155.2.2,0,0,0-.19-.179l-1.189-.048-.012,0c-.006,0-.009,0-.013,0l-.991-.04.04-.991a.2.2,0,0,0-.191-.206.212.212,0,0,0-.206.191l-.047,1.19a.2.2,0,0,0,.191.206l1.189.048h.015l.01,0,1.02.041Z" transform="translate(-19.081 -5.73)" fill="#fff"/>
  <path id="Trazado_719599" data-name="Trazado 719599" d="M247.307,81.773l1.6-1.478a.2.2,0,0,0,.029-.256,10.426,10.426,0,0,1-.6-1.005.2.2,0,1,0-.353.183c.159.307.336.61.525.9l-1.622,1.5a.2.2,0,0,0-.012.28l.807.875a.2.2,0,1,0,.291-.269l-.672-.73Z" transform="translate(-19.285 -6.167)" fill="#fff"/>
  <path id="Trazado_719600" data-name="Trazado 719600" d="M252.108,83.33a10.617,10.617,0,0,1-.945-.687.2.2,0,0,0-.26.008l-1.585,1.462-.673-.73a.2.2,0,0,0-.291.268l.809.875a.2.2,0,0,0,.279.01l1.6-1.481c.272.214.556.418.847.6a.2.2,0,1,0,.215-.334Z" transform="translate(-19.4 -6.454)" fill="#fff"/>
  <path id="Trazado_719601" data-name="Trazado 719601" d="M257.4,87.365l-.991-.04.086-2.144a.2.2,0,0,0-.161-.2A10.553,10.553,0,0,1,255.2,84.7a.2.2,0,0,0-.119.379c.33.1.669.191,1.009.262L256,87.51a.2.2,0,0,0,.191.206l1.19.048h.007a.2.2,0,0,0,.007-.4Z" transform="translate(-19.919 -6.617)" fill="#fff"/>
  <path id="Trazado_719602" data-name="Trazado 719602" d="M260.872,84.939a10.5,10.5,0,0,1-1.153.188.2.2,0,0,0-.178.189l-.085,2.14-.993-.04a.212.212,0,0,0-.206.191.2.2,0,0,0,.191.206l1.19.048h.007a.2.2,0,0,0,.2-.191l.086-2.168c.346-.043.69-.1,1.028-.175a.2.2,0,0,0,.15-.237.2.2,0,0,0-.237-.151Z" transform="translate(-20.178 -6.636)" fill="#fff"/>
  <path id="Trazado_719603" data-name="Trazado 719603" d="M267.425,84.158l-.729.673-1.466-1.588a.2.2,0,0,0-.258-.03,10.45,10.45,0,0,1-1,.606.2.2,0,0,0,.187.351c.3-.162.6-.342.894-.532l1.485,1.609a.193.193,0,0,0,.137.063h.008a.2.2,0,0,0,.134-.053l.876-.808a.2.2,0,0,0-.268-.293Z" transform="translate(-20.617 -6.499)" fill="#fff"/>
  <path id="Trazado_719604" data-name="Trazado 719604" d="M267.966,80.928c.212-.276.413-.562.6-.855a.2.2,0,1,0-.336-.211,10.657,10.657,0,0,1-.677.953.2.2,0,0,0,.009.258l1.473,1.6-.729.673a.2.2,0,0,0-.012.281.2.2,0,0,0,.146.063.2.2,0,0,0,.135-.053l.875-.808a.2.2,0,0,0,.065-.138.2.2,0,0,0-.053-.143l-1.494-1.619Z" transform="translate(-20.901 -6.233)" fill="#fff"/>
  <path id="Trazado_719605" data-name="Trazado 719605" d="M264.441,75.321a.181.181,0,0,0,.052.006.2.2,0,0,0,.193-.147,5.817,5.817,0,0,0,.191-1.27c0-.08,0-.16,0-.238a5.792,5.792,0,0,0-.1-1.079.2.2,0,1,0-.39.073,5.473,5.473,0,0,1,.092,1.005c0,.073,0,.147,0,.222a5.486,5.486,0,0,1-.178,1.185.2.2,0,0,0,.14.242Z" transform="translate(-20.65 -5.659)" fill="#fff"/>
  <path id="Trazado_719606" data-name="Trazado 719606" d="M261.545,68.2a.2.2,0,1,0-.185.351,5.485,5.485,0,0,1,1.827,1.575.2.2,0,1,0,.319-.235,5.887,5.887,0,0,0-1.963-1.69Z" transform="translate(-20.412 -5.327)" fill="#fff"/>
  <path id="Trazado_719607" data-name="Trazado 719607" d="M255.642,79.328a5.789,5.789,0,0,0,2.5.675h.03a.189.189,0,0,0,.187-.191.209.209,0,0,0-.2-.206,5.383,5.383,0,0,1-2.33-.629.2.2,0,0,0-.268.083.2.2,0,0,0,.082.268Z" transform="translate(-19.966 -6.169)" fill="#fff"/>
  <path id="Trazado_719608" data-name="Trazado 719608" d="M256.087,67.951a.2.2,0,0,0,.16.363,5.34,5.34,0,0,1,2.37-.445.19.19,0,0,0,.206-.191.2.2,0,0,0-.191-.206,5.713,5.713,0,0,0-2.544.478Z" transform="translate(-19.999 -5.271)" fill="#fff"/>
  <path id="Trazado_719609" data-name="Trazado 719609" d="M252.8,74.852a.2.2,0,1,0-.39.073,5.851,5.851,0,0,0,1.031,2.376.2.2,0,1,0,.32-.235,5.443,5.443,0,0,1-.962-2.212Z" transform="translate(-19.721 -5.836)" fill="#fff"/>
  <path id="Trazado_719610" data-name="Trazado 719610" d="M253.733,69.651a5.82,5.82,0,0,0-1.214,2.287.2.2,0,0,0,.14.244.185.185,0,0,0,.052.006.2.2,0,0,0,.193-.147,5.446,5.446,0,0,1,1.131-2.131.2.2,0,1,0-.3-.259Z" transform="translate(-19.729 -5.437)" fill="#fff"/>
  <path id="Trazado_719611" data-name="Trazado 719611" d="M262.9,77.611a5.482,5.482,0,0,1-1.941,1.436.2.2,0,0,0,.16.364,5.863,5.863,0,0,0,2.08-1.54.2.2,0,1,0-.3-.259Z" transform="translate(-20.38 -6.059)" fill="#fff"/>
  <path id="Trazado_719612" data-name="Trazado 719612" d="M276.837,130.793l.916-9.051-6.885-.7A30.454,30.454,0,0,0,266.578,107l5.45-4.447L266.277,95.5l-5.477,4.47a30.445,30.445,0,0,0-12.862-6.91l.718-7.083-9.05-.916-.717,7.07a30.413,30.413,0,0,0-14,4.145l-4.481-5.49-7.047,5.752,4.438,5.439a30.439,30.439,0,0,0-7.061,12.88l-6.9-.7-.916,9.05,6.826.69a30.415,30.415,0,0,0,4.15,14.218l-5.25,4.285,5.751,7.047,5.2-4.243a30.445,30.445,0,0,0,13.1,7.119l-.673,6.649,9.05.917.673-6.637a30.43,30.43,0,0,0,14.271-4.3l4.252,5.21,7.047-5.752-4.275-5.239A30.421,30.421,0,0,0,270,130.1l6.838.692ZM238.7,138.637A16.025,16.025,0,1,1,256.26,124.31,16.026,16.026,0,0,1,238.7,138.637Z" transform="translate(-15.855 -6.646)" fill="#01d8d1"/>
  <path id="Trazado_719613" data-name="Trazado 719613" d="M73.526,144.955s20.8,2.33,21.159,4.394-5.021,17.842-5.021,17.842S82.044,155,81.954,154.548s-6.366-2.958-6.635-3.049a27.28,27.28,0,0,1-1.226-4.209c-.317-1.271-.568-2.335-.568-2.335Z" transform="translate(-5.745 -11.326)" fill="#00817d"/>
  <path id="Trazado_719614" data-name="Trazado 719614" d="M87.8,177.177l-.306,2.712a8.012,8.012,0,0,0-1.222,3.138l9.439,2.387c-.534-2.47-4.307-3.407-4.537-4.582a17.444,17.444,0,0,1,.407-4.283l-3.783.628Z" transform="translate(-6.741 -13.794)" fill="#ff8762"/>
  <path id="Trazado_719615" data-name="Trazado 719615" d="M89.4,180.772c.089-.375.744-1.632,1.818-1.754a7.66,7.66,0,0,0-.044,2.007c.229,1.175,4,2.112,4.537,4.582l-9.439-2.387a8.012,8.012,0,0,1,1.222-3.138S89.18,181.432,89.4,180.772Z" transform="translate(-6.741 -13.987)" fill="#2b1710"/>
  <path id="Trazado_719616" data-name="Trazado 719616" d="M95.547,185.436a2.381,2.381,0,0,1,.168.49l-9.439-2.387s.025-.165.084-.429Z" transform="translate(-6.741 -14.307)" fill="#693e2f"/>
  <path id="Trazado_719617" data-name="Trazado 719617" d="M90.595,181.458a.062.062,0,0,0,.066-.024,1.151,1.151,0,0,1,.63-.439.526.526,0,0,1,.409.125.062.062,0,0,0,.089-.01.063.063,0,0,0-.01-.089.651.651,0,0,0-.505-.152,1.253,1.253,0,0,0-.715.49.062.062,0,0,0,.014.088.088.088,0,0,0,.022.01Z" transform="translate(-7.074 -14.131)" fill="#693e2f"/>
  <path id="Trazado_719618" data-name="Trazado 719618" d="M91.463,182.53a.064.064,0,0,0,.066-.025,1.147,1.147,0,0,1,.63-.438.521.521,0,0,1,.409.124.063.063,0,1,0,.079-.1.644.644,0,0,0-.505-.152,1.248,1.248,0,0,0-.715.49.062.062,0,0,0,.014.088.064.064,0,0,0,.022.01Z" transform="translate(-7.142 -14.215)" fill="#693e2f"/>
  <path id="Trazado_719619" data-name="Trazado 719619" d="M93.1,183.546a.062.062,0,0,0,.066-.025,1.152,1.152,0,0,1,.63-.438.522.522,0,0,1,.409.125.064.064,0,0,0,.089-.01.063.063,0,0,0-.01-.089.644.644,0,0,0-.505-.152,1.253,1.253,0,0,0-.715.49.062.062,0,0,0,.014.088.067.067,0,0,0,.022.011Z" transform="translate(-7.27 -14.294)" fill="#693e2f"/>
  <path id="Trazado_719620" data-name="Trazado 719620" d="M83.8,140.832a35.236,35.236,0,0,0,8.772,4l-2.118,2.791a51.725,51.725,0,0,1-8.977-2.22l2.324-4.573Z" transform="translate(-6.366 -11.003)" fill="#ff7a52"/>
  <path id="Trazado_719621" data-name="Trazado 719621" d="M82.6,139.876a1.244,1.244,0,0,1,1.97.535c.289.705-.827,3.117-1.919,4.206s-2.088,1.442-2.868,1.131a1.425,1.425,0,0,1-.847-1.152l3.663-4.722Z" transform="translate(-6.168 -10.906)" fill="#d9f9f8"/>
  <path id="Trazado_719622" data-name="Trazado 719622" d="M71.375,127c2.623-1.144,4.505,4.237,6.859,7.464A23.748,23.748,0,0,0,82.7,139.14a.494.494,0,0,1,.147.6c-.5,1.08-2.065,4.164-3.692,4.182C72.63,141.367,65.592,131.773,71.375,127Z" transform="translate(-5.409 -9.91)" fill="#d9f9f8"/>
  <path id="Trazado_719623" data-name="Trazado 719623" d="M88.723,151.316c-.09-.269-16.3-4.348-16.3-4.348a6.258,6.258,0,0,1-.115-1.5l-15.151,5.879c1.917,7.173,9.372,6.036,23.874,6.2.807.628,2.6,19.276,2.6,19.276l6.725-.716s-1.547-24.522-1.636-24.792Z" transform="translate(-4.466 -11.366)" fill="#00817d"/>
  <g id="Grupo_1017446" data-name="Grupo 1017446" transform="translate(66.821 136.433)">
    <path id="Trazado_719624" data-name="Trazado 719624" d="M90.48,163.368a.066.066,0,0,1-.064-.058c-.01-.1-1.034-9.83-1.254-11.114-.159-.92-10.028-2.94-16.624-4.072a.066.066,0,0,1-.053-.075A.064.064,0,0,1,72.56,148c1.689.289,16.5,2.869,16.729,4.176.222,1.288,1.245,11.024,1.255,11.121a.065.065,0,0,1-.057.071H90.48Z" transform="translate(-72.484 -147.996)" fill="#e0e0e0"/>
  </g>
  <path id="Trazado_719625" data-name="Trazado 719625" d="M74,132.692c.179-4.483-.358-5.379-.941-6.41s-4.214-1.727-4.214-1.727c-4.764,2.223-13.126,14.434-12.086,23.218a13.392,13.392,0,0,0,.428,2.176c.044.15.092.3.14.442a52.762,52.762,0,0,0,14.95-5.905c-.156-2.986,1.56-7.722,1.722-11.792Z" transform="translate(-4.428 -9.732)" fill="#fff"/>
  <path id="Trazado_719626" data-name="Trazado 719626" d="M72.626,142.864s7.352,1.793,7.935,1.434a14.152,14.152,0,0,1,3.721-.941,19.155,19.155,0,0,1,2.645.874c-.09.336-1.165.135-1.165.135s.9.739.516.9a.383.383,0,0,1-.313.4c-.179.27-1.659,0-2.488.382s-2.242,1.368-2.824,1.189-1.368-.449-1.368-.449l-8.675,1.367,2.017-5.29Z" transform="translate(-5.517 -11.162)" fill="#ff8762"/>
  <path id="Trazado_719627" data-name="Trazado 719627" d="M70.684,142.482a1.334,1.334,0,0,1,1.905-.179c.561.515,0,3.5-.829,4.8s-1.726,1.86-2.555,1.727a1.428,1.428,0,0,1-1.076-.941Z" transform="translate(-5.323 -11.094)" fill="#d9f9f8"/>
  <path id="Trazado_719628" data-name="Trazado 719628" d="M71.776,120.809s.807-5.794,3.464-5.626c1.85-.673,4.068,1.446,4.068,1.446,1.681,1.009,1.311,2.824.1,2.958s-4.64,2.69-4.64,2.69l-2.657-.841-.336-.628Z" transform="translate(-5.608 -8.989)" fill="#2b1710"/>
  <path id="Trazado_719629" data-name="Trazado 719629" d="M79.069,118.081a3.985,3.985,0,0,1,.269,2.107,9.559,9.559,0,0,1-1.031,1.569,10.264,10.264,0,0,0,.516,1.7,2.159,2.159,0,0,1-1.031-.09c-.425.808-1.569,2.287-2.017,2.33s-1.413-.694-1.413-.694a.669.669,0,0,0-.494.56s.852.716.112.9-4.1-1.951-4.1-2.488a34.175,34.175,0,0,0,1.748-3c.4.2,1.143-.313,1.143-.313s.358-.067.4-.135c.4-.2.606.112.807.313s.986-.382.874-.852a3.575,3.575,0,0,1-.2-1.21c.068-.224,1.143-1.951,1.569-1.592s2.2,1.3,2.846.9Z" transform="translate(-5.46 -9.152)" fill="#ff8762"/>
  <path id="Trazado_719630" data-name="Trazado 719630" d="M73.2,122.43a.862.862,0,1,0-.862-.862A.862.862,0,0,0,73.2,122.43Z" transform="translate(-5.652 -9.431)" fill="#ff7e5e"/>
  <g id="Grupo_1017447" data-name="Grupo 1017447" transform="translate(67.059 111.66)">
    <path id="Trazado_719631" data-name="Trazado 719631" d="M73.414,122.05a.056.056,0,0,0,.052-.034.054.054,0,0,0-.03-.073.171.171,0,0,1-.12-.135.182.182,0,0,1,.088-.159.2.2,0,0,1,.2-.009.056.056,0,0,0,.083-.053.482.482,0,0,0-.362-.438.513.513,0,0,0-.574.169.056.056,0,0,0,.09.067.406.406,0,0,1,.45-.129.391.391,0,0,1,.268.25.3.3,0,0,0-.222.048.293.293,0,0,0-.138.263.275.275,0,0,0,.188.228.072.072,0,0,0,.022.006Z" transform="translate(-72.743 -121.123)" fill="#e0b3a8"/>
  </g>
  <g id="Grupo_1017448" data-name="Grupo 1017448" transform="translate(71.175 112.171)">
    <path id="Trazado_719632" data-name="Trazado 719632" d="M77.4,122.211a.043.043,0,0,1-.015,0,.285.285,0,0,1-.162-.2.365.365,0,0,1,.054-.318.043.043,0,1,1,.068.053.277.277,0,0,0-.039.242.2.2,0,0,0,.11.139.042.042,0,0,1-.015.082Z" transform="translate(-77.208 -121.678)" fill="#e0b3a8"/>
  </g>
  <path id="Trazado_719633" data-name="Trazado 719633" d="M78.761,120.958h-.008a12.481,12.481,0,0,0-1.5-.179.044.044,0,0,1-.042-.043c0-.024.021-.037.044-.043,2.129-.5,1.5.178,1.508.181a.044.044,0,0,1,.035.051.043.043,0,0,1-.043.034Z" transform="translate(-6.033 -9.416)" fill="#2b1710"/>
  <g id="Grupo_1017449" data-name="Grupo 1017449" transform="translate(78.228 133.251)">
    <path id="Trazado_719634" data-name="Trazado 719634" d="M87.258,145.365l-1.289-.683a2.679,2.679,0,0,0-1.058,0,.044.044,0,0,1-.052-.032.044.044,0,0,1,.033-.052,2.754,2.754,0,0,1,1.116,0c.168.09,1.289.683,1.289.683Z" transform="translate(-84.858 -144.545)" fill="#e0b3a8"/>
  </g>
  <g id="Grupo_1017450" data-name="Grupo 1017450" transform="translate(78.284 134.109)">
    <path id="Trazado_719635" data-name="Trazado 719635" d="M86.957,145.79a.037.037,0,0,1-.014,0,5.287,5.287,0,0,0-1.968-.179.045.045,0,0,1-.054-.029.045.045,0,0,1,.028-.054,5.255,5.255,0,0,1,2.021.181.043.043,0,0,1,.026.055.042.042,0,0,1-.04.029Z" transform="translate(-84.919 -145.475)" fill="#e0b3a8"/>
  </g>
  <path id="Trazado_719636" data-name="Trazado 719636" d="M77.575,121.527c-.13.195-.16.4-.064.467s.277-.043.407-.238.16-.4.064-.468S77.706,121.333,77.575,121.527Z" transform="translate(-6.052 -9.475)" fill="#2b1710"/>
  <path id="Trazado_719637" data-name="Trazado 719637" d="M67.54,126.712a1.385,1.385,0,0,1,1.123-.12c2.3.728,3.6,2.415,2.477,5.985-1.21,3.855-3.139,7.89-.358,8.787.562,1.02-.86,3.691-1.521,4.885a1.4,1.4,0,0,1-1.039.705c-3.534.478-6.727-.835-6.854-5.411-.128-4.658,2.472-12.655,6.172-14.83Z" transform="translate(-4.794 -9.886)" fill="#d9f9f8"/>
  <g id="Grupo_1017451" data-name="Grupo 1017451" transform="translate(63.355 129.969)">
    <path id="Trazado_719638" data-name="Trazado 719638" d="M68.739,141.709a.052.052,0,0,1,.048-.086c.146.028.451-.235.654-.407s.3-.251.361-.226a.076.076,0,0,1,.046.059c.028.174-.229.507-.282.572a.051.051,0,0,1-.08-.065,1.372,1.372,0,0,0,.259-.452,2.774,2.774,0,0,0-.237.191c-.255.219-.545.468-.74.431a.052.052,0,0,1-.028-.015Z" transform="translate(-68.725 -140.985)" fill="#e0e0e0"/>
  </g>
  <g id="Grupo_1017452" data-name="Grupo 1017452" transform="translate(76.586 144.403)">
    <path id="Trazado_719639" data-name="Trazado 719639" d="M84.446,156.649a.08.08,0,0,1-.032.148c-.227.025-.558.546-.779.89s-.322.5-.429.492a.112.112,0,0,1-.094-.065c-.12-.242.112-.845.159-.964a.079.079,0,1,1,.147.059,2.156,2.156,0,0,0-.18.78,4.039,4.039,0,0,0,.263-.385c.278-.436.593-.93.895-.962a.094.094,0,0,1,.048.01Z" transform="translate(-83.077 -156.642)" fill="#e0e0e0"/>
  </g>
  <g id="Grupo_1017453" data-name="Grupo 1017453" transform="translate(57.181 140.109)">
    <path id="Trazado_719640" data-name="Trazado 719640" d="M85.852,175.38a.065.065,0,0,1-.064-.06c-.449-5.206-1.7-18.82-2.092-19.285a1.894,1.894,0,0,0-.607-.471c-.12-.065-.206-.109-.223-.195a.184.184,0,0,1,.034-.133c-.285-.071-1.744-.06-3.417-.047-2.2.017-5.211.04-8.247-.073-6.62-.244-8.366-1.671-9.2-3.034a.065.065,0,1,1,.111-.067c.815,1.334,2.533,2.731,9.093,2.972,3.033.112,6.043.089,8.242.073,2.877-.022,3.5-.015,3.564.123a.082.082,0,0,1-.013.089c-.043.052-.041.071-.04.073.005.024.085.066.157.105a2.034,2.034,0,0,1,.646.5c.5.592,2.056,18.591,2.122,19.358a.065.065,0,0,1-.059.07h-.006Z" transform="translate(-62.027 -151.984)" fill="#e0e0e0"/>
  </g>
  <g id="Grupo_1017454" data-name="Grupo 1017454" transform="translate(79.462 163.645)">
    <path id="Trazado_719641" data-name="Trazado 719641" d="M86.262,178.317a.065.065,0,0,1-.008-.129l5.56-.673a.065.065,0,0,1,.072.057.066.066,0,0,1-.057.072l-5.559.673Z" transform="translate(-86.197 -177.515)" fill="#e0e0e0"/>
  </g>
  <path id="Trazado_719642" data-name="Trazado 719642" d="M77.99,123.76c-1.21-.57-1.726-.463-2.472-1.015s-.2-2.166-.384-2.524-.874.853-.874.853c.138.622-.307,1.049-.485,1.458a3,3,0,0,0-.3,1.406,4.887,4.887,0,0,0,1.21,1.529c.623.427,1.3,1.049,1.868.6a9.7,9.7,0,0,0,1.441-2.312Z" transform="translate(-5.738 -9.388)" fill="#2b1710"/>
  <path id="Trazado_719643" data-name="Trazado 719643" d="M77.815,124.568c-.7-.392-1.863-.675-1.993-.426S77.434,125.956,77.815,124.568Z" transform="translate(-5.924 -9.692)" fill="#ff8762"/>
  <path id="Trazado_719644" data-name="Trazado 719644" d="M77.588,124.755c.037,0,.075,0,.112,0a.072.072,0,0,0,.068-.076.076.076,0,0,0-.076-.069,2.147,2.147,0,0,1-1.441-.49.073.073,0,1,0-.1.107,2.259,2.259,0,0,0,1.435.532Z" transform="translate(-5.948 -9.696)" fill="#2b1710"/>
  <path id="Trazado_719645" data-name="Trazado 719645" d="M107.755,148.857h-57.1v2.02h57.1Z" transform="translate(-3.958 -11.63)" fill="#00aca7"/>
  <path id="Trazado_719646" data-name="Trazado 719646" d="M102.536,135.621H87.349l-2.635,11.2H99.9Z" transform="translate(-6.619 -10.596)" fill="#a6f1ef"/>
  <path id="Trazado_719647" data-name="Trazado 719647" d="M103.251,135.621H88.063l-2.635,11.2h15.188Z" transform="translate(-6.675 -10.596)" fill="#01d8d1"/>
  <path id="Trazado_719648" data-name="Trazado 719648" d="M94.67,142.468H93.605a1.684,1.684,0,0,1,1.683-1.684h1.065A1.684,1.684,0,0,1,94.67,142.468Z" transform="translate(-7.314 -11)" fill="#a6f1ef"/>
  <path id="Trazado_719649" data-name="Trazado 719649" d="M100.048,147.773H79.016v1h21.031Z" transform="translate(-6.174 -11.546)" fill="#a6f1ef"/>
  <path id="Trazado_719650" data-name="Trazado 719650" d="M77.645,158.714H72.852a3.721,3.721,0,0,0-3.649,3.015l-6.038,31.438a.548.548,0,0,0,0,.189h1.179l6.031-31.4a2.529,2.529,0,0,1,2.48-2.049h4.794a2.526,2.526,0,0,1,2.517,2.715l-2.3,30.613a.648.648,0,0,0,0,.123h1.178c0-.012.005-.022.006-.034l2.3-30.614a3.716,3.716,0,0,0-3.706-4Z" transform="translate(-4.934 -12.4)" fill="#00817d"/>
  <path id="Trazado_719651" data-name="Trazado 719651" d="M76.784,158.714H71.99a3.721,3.721,0,0,0-3.649,3.015L62.3,193.167a.552.552,0,0,0,0,.189H63.48l6.031-31.4a2.529,2.529,0,0,1,2.48-2.049h4.794a2.525,2.525,0,0,1,2.517,2.715L77,193.232a.646.646,0,0,0,0,.123h1.178c0-.012.005-.022.006-.034l2.3-30.614a3.716,3.716,0,0,0-3.706-4Z" transform="translate(-4.867 -12.4)" fill="#00817d"/>
  <path id="Trazado_719652" data-name="Trazado 719652" d="M78.86,180.2H58.276v.7H78.86Z" transform="translate(-4.553 -14.079)" fill="#003759"/>
  <path id="Trazado_719653" data-name="Trazado 719653" d="M68.6,158.714H63.809a3.721,3.721,0,0,0-3.649,3.015l-6.038,31.438a.548.548,0,0,0,0,.189H55.3l6.031-31.4a2.529,2.529,0,0,1,2.48-2.049H68.6a2.526,2.526,0,0,1,2.517,2.715l-2.3,30.613a.646.646,0,0,0,0,.123H70c0-.012.005-.022.006-.034l2.3-30.614a3.716,3.716,0,0,0-3.706-4Z" transform="translate(-4.228 -12.4)" fill="#00817d"/>
  <path id="Trazado_719654" data-name="Trazado 719654" d="M67.742,158.714H62.948a3.721,3.721,0,0,0-3.649,3.015l-6.038,31.438a.548.548,0,0,0,0,.189h1.179l6.031-31.4a2.529,2.529,0,0,1,2.48-2.049h4.794a2.526,2.526,0,0,1,2.517,2.715l-2.3,30.613a.648.648,0,0,0,0,.123H69.14c0-.012.005-.022.006-.034l2.3-30.614a3.716,3.716,0,0,0-3.706-4Z" transform="translate(-4.161 -12.4)" fill="#00817d"/>
  <path id="Trazado_719655" data-name="Trazado 719655" d="M74.666,157.975s-12.707-1.949-15.193-6.843H57.686l.195,3.779a3.959,3.959,0,0,0,3.953,3.755H74.7Z" transform="translate(-4.507 -11.808)" fill="#00aca7"/>
  <path id="Trazado_719656" data-name="Trazado 719656" d="M279.174,118.484a2.154,2.154,0,0,0,2.489-2.869c.157-2.893-1.077-5.74-5.4-4.194-2.153.269-2.981,3.117-1.21,3.857A35.844,35.844,0,0,0,279.174,118.484Z" transform="translate(-21.415 -8.672)" fill="#2b1710"/>
  <path id="Trazado_719657" data-name="Trazado 719657" d="M277.523,119.68a2.3,2.3,0,0,1-1.009,2.556c.034,3.632,5.347-.151,5.33-.69,0-.067-.975-.287-1.328-.908a9.644,9.644,0,0,1-.387-4.322c-.823.219-1.11-.437-1.127-1.563s-.554-2.926-2.741-2.64a3.79,3.79,0,0,0-1.193,2.96,24.207,24.207,0,0,0,.078,2.869A2.334,2.334,0,0,0,277.523,119.68Z" transform="translate(-21.491 -8.757)" fill="#ff8762"/>
  <g id="Grupo_1017455" data-name="Grupo 1017455" transform="translate(254.416 108.72)">
    <path id="Trazado_719658" data-name="Trazado 719658" d="M277.805,118.094c-.832-.253-1.744-.191-1.826.077A2.832,2.832,0,0,0,277.805,118.094Z" transform="translate(-275.979 -117.934)" fill="#e0b3a8"/>
  </g>
  <path id="Trazado_719659" data-name="Trazado 719659" d="M280.96,117.774a.672.672,0,1,0-.672-.671A.671.671,0,0,0,280.96,117.774Z" transform="translate(-21.899 -9.097)" fill="#ff8762"/>
  <g id="Grupo_1017456" data-name="Grupo 1017456" transform="translate(258.702 107.635)">
    <path id="Trazado_719660" data-name="Trazado 719660" d="M280.842,117.478a.045.045,0,0,1-.04-.026.044.044,0,0,1,.023-.058.133.133,0,0,0,.094-.105.142.142,0,0,0-.068-.124.149.149,0,0,0-.159-.006.045.045,0,0,1-.044,0,.047.047,0,0,1-.02-.039.377.377,0,0,1,.281-.342.4.4,0,0,1,.446.132.044.044,0,1,1-.07.052.316.316,0,0,0-.35-.1.309.309,0,0,0-.209.195.239.239,0,0,1,.173.038.228.228,0,0,1,.107.2.213.213,0,0,1-.146.176.041.041,0,0,1-.017,0Z" transform="translate(-280.628 -116.757)" fill="#e0b3a8"/>
  </g>
  <g id="Grupo_1017457" data-name="Grupo 1017457" transform="translate(256.124 108.482)">
    <path id="Trazado_719661" data-name="Trazado 719661" d="M277.874,120.115h.011a3.3,3.3,0,0,0,2.272-2.386.042.042,0,0,0-.032-.052.042.042,0,0,0-.051.032,3.213,3.213,0,0,1-2.212,2.323.042.042,0,0,0,.012.083Z" transform="translate(-277.831 -117.676)" fill="#e0b3a8"/>
  </g>
  <path id="Trazado_719662" data-name="Trazado 719662" d="M278.928,115.05a.043.043,0,0,0,.038-.022.042.042,0,0,0-.016-.058,2.224,2.224,0,0,0-1.5-.262.043.043,0,0,0,.026.083,2.167,2.167,0,0,1,1.434.254.045.045,0,0,0,.021.006Z" transform="translate(-21.675 -8.959)" fill="#2b1710"/>
  <path id="Trazado_719663" data-name="Trazado 719663" d="M275.246,115.105a.049.049,0,0,0,.035-.017c.007-.009.181-.231.734-.162a.042.042,0,0,0,.047-.037.043.043,0,0,0-.037-.048c-.592-.074-.793.169-.813.2a.043.043,0,0,0,.008.061.049.049,0,0,0,.026.009Z" transform="translate(-21.502 -8.972)" fill="#2b1710"/>
  <path id="Trazado_719664" data-name="Trazado 719664" d="M276.283,117.424a.037.037,0,0,0,.033-.017.045.045,0,0,0-.006-.061,4.038,4.038,0,0,1-.524-.47,1.454,1.454,0,0,1,.184-.01,1.049,1.049,0,0,0,.436-.065c.23-.129.007-1.1-.195-1.557a.044.044,0,0,0-.057-.022.044.044,0,0,0-.022.057c.236.531.371,1.369.231,1.447a1.024,1.024,0,0,1-.395.054c-.173,0-.278,0-.278.085s.308.344.566.549a.039.039,0,0,0,.027.009Z" transform="translate(-21.54 -9.002)" fill="#2b1710"/>
  <path id="Trazado_719665" data-name="Trazado 719665" d="M276.653,118.352a3.053,3.053,0,0,0,1.212-.206.043.043,0,1,0-.038-.077,3.3,3.3,0,0,1-1.856.113.042.042,0,0,0-.058.017.043.043,0,0,0,.018.058,1.944,1.944,0,0,0,.72.094Z" transform="translate(-21.557 -9.225)" fill="#2b1710"/>
  <g id="Grupo_1017458" data-name="Grupo 1017458" transform="translate(254.75 109.777)">
    <path id="Trazado_719666" data-name="Trazado 719666" d="M276.9,119.275a.87.87,0,0,0,.472-.116.043.043,0,1,0-.046-.072,1.168,1.168,0,0,1-.914.013.044.044,0,0,0-.061.007.043.043,0,0,0,.006.06A1.24,1.24,0,0,0,276.9,119.275Z" transform="translate(-276.341 -119.081)" fill="#e0b3a8"/>
  </g>
  <path id="Trazado_719667" data-name="Trazado 719667" d="M277.75,116.008c0,.255.118.463.261.463s.26-.207.26-.463-.117-.463-.26-.463S277.75,115.752,277.75,116.008Z" transform="translate(-21.701 -9.028)" fill="#2b1710"/>
  <g id="Grupo_1017459" data-name="Grupo 1017459" transform="translate(256.325 107.207)">
    <path id="Trazado_719668" data-name="Trazado 719668" d="M278.093,116.686c.089,0,.288-.039.352-.366a.023.023,0,0,0-.017-.026.022.022,0,0,0-.026.017c-.062.319-.252.336-.33.33a.021.021,0,1,0,0,.042h.024Z" transform="translate(-278.05 -116.293)" fill="#e0b3a8"/>
  </g>
  <path id="Trazado_719669" data-name="Trazado 719669" d="M275.61,116.069c0,.255.117.463.26.463s.261-.207.261-.463-.118-.463-.261-.463S275.61,115.813,275.61,116.069Z" transform="translate(-21.534 -9.033)" fill="#2b1710"/>
  <g id="Grupo_1017460" data-name="Grupo 1017460" transform="translate(254.352 107.263)">
    <path id="Trazado_719670" data-name="Trazado 719670" d="M275.952,116.746c.089,0,.288-.039.352-.366a.022.022,0,0,0-.017-.026.023.023,0,0,0-.026.017c-.062.319-.252.336-.33.33a.022.022,0,0,0-.023.019.023.023,0,0,0,.019.024h.024Z" transform="translate(-275.909 -116.354)" fill="#e0b3a8"/>
  </g>
  <path id="Trazado_719671" data-name="Trazado 719671" d="M278.4,117.149c.1.138.17.261.152.275s-.118-.087-.219-.224-.171-.261-.152-.275S278.294,117.011,278.4,117.149Z" transform="translate(-21.734 -9.135)" fill="#ff7e57"/>
  <path id="Trazado_719672" data-name="Trazado 719672" d="M278.109,117.185c.1.138.171.261.152.275s-.117-.086-.219-.224-.17-.261-.152-.275S278.008,117.048,278.109,117.185Z" transform="translate(-21.712 -9.138)" fill="#ff7e57"/>
  <path id="Trazado_719673" data-name="Trazado 719673" d="M277.793,117.215c.1.137.17.26.152.275s-.117-.087-.219-.225-.17-.26-.152-.275S277.691,117.077,277.793,117.215Z" transform="translate(-21.687 -9.141)" fill="#ff7e57"/>
  <path id="Trazado_719674" data-name="Trazado 719674" d="M284.425,165.372c-.25-.564,1-9.527.564-11.469l-7.522.063s1,11.156,1,12.535c0,1.05,1.966,12.917,2.52,18.5a10.856,10.856,0,0,1-.1,2.979,2.986,2.986,0,0,1-.178.684c-.238.488-1.966,2.177-2.753,3.631-.074.177-1.865.468-1.595.878.164.089,3.291.322,3.639-.017a4.809,4.809,0,0,1,2.108-1.373,13.6,13.6,0,0,1,.064,1.518h1.354s.152-1.339.21-1.742.516-1.021.2-1.643a7.253,7.253,0,0,1-.571-3.475C284,181.714,285.833,168.444,284.425,165.372Z" transform="translate(-21.591 -12.025)" fill="#ff8762"/>
  <path id="Trazado_719675" data-name="Trazado 719675" d="M277.948,195.308a4.693,4.693,0,0,0,1.4.089c.293-.129,2.213-2.533,4.333-3.133a4.191,4.191,0,0,0,.257.647c.315.621-.144,1.239-.2,1.642s-.21,1.743-.21,1.743h-1.353a13.377,13.377,0,0,0-.065-1.518A4.811,4.811,0,0,0,280,196.152c-.348.337-3.476.106-3.639.017-.264-.4,1.419-.671,1.583-.861Z" transform="translate(-21.591 -15.022)" fill="#2b1710"/>
  <path id="Trazado_719676" data-name="Trazado 719676" d="M276.367,165.372c-.25-.564,2.444-9.527,2.006-11.469l-7.522.063s-.439,11.156-.439,12.535c0,1.05,1.165,12.917,1.72,18.5a10.892,10.892,0,0,1-.1,2.979,3.035,3.035,0,0,1-.178.684,45.44,45.44,0,0,0-2.754,3.631c-.073.177-1.865.468-1.594.878.163.089,3.291.322,3.639-.017a4.811,4.811,0,0,1,2.107-1.373,13.37,13.37,0,0,1,.065,1.518h1.353s.152-1.339.21-1.742.517-1.021.2-1.643a7.262,7.262,0,0,1-.572-3.475c.632-4.727,2.429-18.731,1.858-21.069Z" transform="translate(-20.898 -12.025)" fill="#ff8762"/>
  <path id="Trazado_719677" data-name="Trazado 719677" d="M284.273,123.373c3.51,3.134,6.216,11.807,5.715,13.979s-5.725,2.047-8.607.168,2.894-14.147,2.894-14.147Z" transform="translate(-21.922 -9.639)" fill="#d9f9f8"/>
  <path id="Trazado_719678" data-name="Trazado 719678" d="M276.511,121.988a4.733,4.733,0,0,0-2.174,1.253s-4.679,3.969-3.489,6.1,1.5,6.832,1.5,6.832l9.464.124c0-.313,2.57-5.264,3.008-7.771s-.668-5.745-3.092-6.288a18.879,18.879,0,0,0-5.223-.25Z" transform="translate(-21.147 -9.525)" fill="#fff"/>
  <path id="Trazado_719679" data-name="Trazado 719679" d="M272.05,139.135c-4.638,3.824-2.256,22.125-2.256,22.125h15.481c.751-11.908.064-20.432-3.7-22.313S272.05,139.135,272.05,139.135Z" transform="translate(-21.032 -10.795)" fill="#00817d"/>
  <path id="Trazado_719680" data-name="Trazado 719680" d="M281.9,137.4h-9.61v1.671h9.61Z" transform="translate(-21.275 -10.736)" fill="#2b1710"/>
  <path id="Trazado_719681" data-name="Trazado 719681" d="M273.544,123.354c-2.716,1-5.516,6.852-6.978,6.768s-4.678-3.217-4.678-3.217l-1.379,1.5c0,2.173,2.13,9.652,6.225,10.237s8.113-5.567,8.774-9.192C276.386,124.649,273.544,123.354,273.544,123.354Z" transform="translate(-20.354 -9.638)" fill="#d9f9f8"/>
  <g id="Grupo_1017461" data-name="Grupo 1017461" transform="translate(245.645 120.571)">
    <path id="Trazado_719682" data-name="Trazado 719682" d="M266.808,132.164a.059.059,0,0,1-.059-.053,3.013,3.013,0,0,1,.129-.871c.026-.11.056-.239.066-.313-.11.07-.359.309-.359.44a.06.06,0,1,1-.121,0c0-.161.2-.371.325-.469.147-.12.2-.11.217-.105a.074.074,0,0,1,.046.032c.031.047.018.127-.059.444a3.011,3.011,0,0,0-.126.828.059.059,0,0,1-.052.066h-.006Z" transform="translate(-266.464 -130.79)" fill="#d9f9f8"/>
  </g>
  <path id="Trazado_719683" data-name="Trazado 719683" d="M273.987,137.28h-.675v1.976h.675Z" transform="translate(-21.354 -10.726)" fill="#00817d"/>
  <path id="Trazado_719684" data-name="Trazado 719684" d="M279.4,137.325h-.674V139.3h.674Z" transform="translate(-21.778 -10.729)" fill="#00817d"/>
  <path id="Trazado_719685" data-name="Trazado 719685" d="M282.348,137.258h-.674v1.975h.674Z" transform="translate(-22.008 -10.724)" fill="#00817d"/>
  <path id="Trazado_719686" data-name="Trazado 719686" d="M261.718,126.7c.006-.334.068-2.448.006-2.7a18.719,18.719,0,0,0-1.5-2.35c-.157-.14-1.457-.987-1.5-.987-.344.267-.218.642.079,1.019s.736.814.751.893.157.548.063.564a7.6,7.6,0,0,0-1.081,1.175,1.514,1.514,0,0,0-.03,1.364,24.939,24.939,0,0,0,1.843,2.528l1.379-1.5Z" transform="translate(-20.185 -9.427)" fill="#ff8762"/>
  <g id="Grupo_1017462" data-name="Grupo 1017462" transform="translate(260.589 142.863)">
    <path id="Trazado_719687" data-name="Trazado 719687" d="M282.755,162.308a.08.08,0,0,1-.08-.08v-5.516a.081.081,0,0,1,.019-.053l1.441-1.66a.08.08,0,1,1,.122.105l-1.422,1.639v5.486a.08.08,0,0,1-.079.079Z" transform="translate(-282.675 -154.971)" fill="#d9f9f8"/>
  </g>
  <g id="Grupo_1017463" data-name="Grupo 1017463" transform="translate(249.92 128.846)">
    <path id="Trazado_719688" data-name="Trazado 719688" d="M271.447,160.985a.081.081,0,0,1-.079-.074c-.013-.157-1.262-15.755,1.764-21.1a.08.08,0,1,1,.139.08c-3,5.306-1.758,20.855-1.745,21.011a.081.081,0,0,1-.074.087h-.005Z" transform="translate(-271.101 -139.766)" fill="#d9f9f8"/>
  </g>
  <path id="Trazado_719689" data-name="Trazado 719689" d="M269.087,195.308a4.7,4.7,0,0,0,1.4.089c.292-.129,2.212-2.533,4.332-3.133a4.185,4.185,0,0,0,.258.647c.314.621-.145,1.239-.2,1.642s-.21,1.743-.21,1.743h-1.353a13.37,13.37,0,0,0-.065-1.518,4.816,4.816,0,0,0-2.107,1.373c-.348.337-3.476.106-3.639.017-.263-.4,1.419-.671,1.583-.861Z" transform="translate(-20.898 -15.022)" fill="#2b1710"/>
  <g id="Grupo_1017464" data-name="Grupo 1017464" transform="translate(253.651 151.857)">
    <path id="Trazado_719690" data-name="Trazado 719690" d="M276.025,166.674a.051.051,0,0,1-.023,0,1.281,1.281,0,0,1-.832-.992.927.927,0,0,1,.3-.934.08.08,0,1,1,.1.125.768.768,0,0,0-.246.778,1.131,1.131,0,0,0,.722.869.08.08,0,0,1,.053.1.079.079,0,0,1-.077.056Z" transform="translate(-275.149 -164.727)" fill="#e0b3a8"/>
  </g>
  <g id="Grupo_1017465" data-name="Grupo 1017465" transform="translate(261.297 151.773)">
    <path id="Trazado_719691" data-name="Trazado 719691" d="M284.32,166.584a.045.045,0,0,1-.024,0,1.283,1.283,0,0,1-.832-.992.927.927,0,0,1,.3-.934.081.081,0,0,1,.112.013.08.08,0,0,1-.013.112.771.771,0,0,0-.246.779,1.133,1.133,0,0,0,.722.868.081.081,0,0,1-.023.158Z" transform="translate(-283.443 -164.637)" fill="#e0b3a8"/>
  </g>
  <path id="Trazado_719692" data-name="Trazado 719692" d="M278.8,124.886c.2,1.327,1.194,1.526,5.571,1.592s1.725-4.709.332-5.638.089-7.849-4.245-9.086c0,0,.885,4.93.885,5.063s-.044.508-.044.508l-.31.089-.376.111h-.4l-.133-.288c.022,1.858-5.852,2.6-5.435,5.211,2.8-1.409,3.2-.325,3.334.78s.022,1.99.819,1.658Z" transform="translate(-21.457 -8.732)" fill="#2b1710"/>
  <path id="Trazado_719693" data-name="Trazado 719693" d="M149.8,57.63a.106.106,0,0,1-.044-.009,1.15,1.15,0,0,1-.7-.675c-.155-.514.219-1.1.549-1.614.241-.375.49-.764.395-.955A1.562,1.562,0,0,1,150,53.163a2.476,2.476,0,0,1,1.349-1.413,1.83,1.83,0,0,0,1.245-2.135,2.328,2.328,0,0,1,1.146-2.905,4.332,4.332,0,0,0,2.422-3.451.107.107,0,0,1,.112-.091l7.565.4a.1.1,0,0,1,.08.044.1.1,0,0,1,.018.089,2.343,2.343,0,0,0,.816,2.68,2.454,2.454,0,0,1,.814,3c-.469.88-.008,1.548,1.134,2.624a3.413,3.413,0,0,1,.58,3.14c-.17.616-.46,1-.82,1.079a.107.107,0,0,1-.046-.209c.269-.059.515-.406.658-.925a3.231,3.231,0,0,0-.519-2.926c-1.022-.964-1.76-1.788-1.177-2.881a2.257,2.257,0,0,0-.741-2.718,2.5,2.5,0,0,1-.936-2.784l-7.341-.388A4.524,4.524,0,0,1,153.84,46.9a2.117,2.117,0,0,0-1.039,2.642,2.015,2.015,0,0,1-1.363,2.4,2.259,2.259,0,0,0-1.233,1.29,1.37,1.37,0,0,0-.017,1.043c.149.3-.107.7-.4,1.167s-.651,1.017-.525,1.436a.933.933,0,0,0,.583.541.108.108,0,0,1-.044.206Z" transform="translate(-11.643 -3.373)" fill="#2b1710"/>
  <path id="Trazado_719694" data-name="Trazado 719694" d="M165.888,52.034c-.966-1.219-1.3-1.555-.966-2.521a2.355,2.355,0,0,0-.588-2.9c-1.093-1.051-.714-1.891-.5-2.733l-5.8-2.648A2.445,2.445,0,0,0,156.1,43.88c0,1.387-.253,2.354-1.43,2.984a2.425,2.425,0,0,0-1.219,2.9c.336,1.009-.714,2.017-1.555,2.438a1.974,1.974,0,0,0-.966,2.27c.253.8-.967.883-.967,1.975s2.017.883,2.017.883c1.387.5,14.416-1.009,14.711-1.975A3.509,3.509,0,0,0,165.888,52.034Z" transform="translate(-11.717 -3.222)" fill="#2b1710"/>
  <path id="Trazado_719695" data-name="Trazado 719695" d="M174.663,109a7.076,7.076,0,0,0,.541-3.382c-.085-.613-.191-1.388-.308-2.276-.06-.441-.12-.912-.184-1.4l2.94.787c-.05.53-.1,1.026-.14,1.48a10.631,10.631,0,0,0,.111,2.9,2.876,2.876,0,0,0,.176.666,44.076,44.076,0,0,1,2.693,3.522c.073.171,1.817.447,1.555.846-.159.089-3.2.326-3.54,0a4.68,4.68,0,0,0-2.055-1.327,13.07,13.07,0,0,0-.056,1.478l-1.317,0s-.154-1.3-.212-1.694S174.36,109.609,174.663,109Z" transform="translate(-13.639 -7.965)" fill="#ff8762"/>
  <path id="Trazado_719696" data-name="Trazado 719696" d="M180.5,111.856a4.523,4.523,0,0,1-1.365.091c-.285-.124-2.163-2.455-4.227-3.029a4.433,4.433,0,0,1-.247.632c-.3.606.146,1.2.2,1.6s.212,1.7.212,1.7l1.317-.006a13.054,13.054,0,0,1,.056-1.477,4.671,4.671,0,0,1,2.055,1.326c.34.328,3.381.089,3.54,0C182.3,112.3,180.663,112.04,180.5,111.856Z" transform="translate(-13.639 -8.51)" fill="#2b1710"/>
  <path id="Trazado_719697" data-name="Trazado 719697" d="M176.857,88.409a7.069,7.069,0,0,0,1.472-3.094c.091-.612.208-1.386.344-2.271.068-.44.14-.907.218-1.4l2.6,1.583c-.2.494-.381.956-.55,1.381a10.662,10.662,0,0,0-.709,2.813,2.943,2.943,0,0,0-.018.688c.091.521,1.25,2.565,1.593,4.136.02.184,1.616.94,1.253,1.25-.176.039-3.162-.588-3.4-1a4.685,4.685,0,0,0-1.6-1.851,12.945,12.945,0,0,0-.469,1.4l-1.265-.365s.219-1.293.275-1.686-.207-1.093.254-1.589Z" transform="translate(-13.777 -6.379)" fill="#ff8762"/>
  <path id="Trazado_719698" data-name="Trazado 719698" d="M181.812,92.794a4.559,4.559,0,0,1-1.337-.3c-.239-.2-1.385-2.965-3.2-4.1a4.243,4.243,0,0,1-.415.536c-.462.5-.2,1.2-.254,1.589s-.275,1.686-.275,1.686l1.267.365a12.949,12.949,0,0,1,.469-1.4,4.667,4.667,0,0,1,1.6,1.851c.233.41,3.22,1.036,3.4,1,.353-.3-1.145-1.011-1.248-1.232Z" transform="translate(-13.777 -6.907)" fill="#2b1710"/>
  <path id="Trazado_719699" data-name="Trazado 719699" d="M164.394,51.587c4.127,1.876,3.4,11.347,15.1,2.031l1.243,1.76c-1.863,3.622-6.262,8.487-11.541,8.28a11.562,11.562,0,0,1-8.021-3.416Z" transform="translate(-12.593 -4.031)" fill="#fff"/>
  <path id="Trazado_719700" data-name="Trazado 719700" d="M161.986,51.285l1.842.278c.234,2.523,2.523,5.24,2.64,6.637s-1.708,3.493-2.445,4.813a5.613,5.613,0,0,0-.738,2.484h-7.724c0-.349-1.862-9-1.63-11.14s2.979-2.935,2.979-2.935A25.977,25.977,0,0,0,161.986,51.285Z" transform="translate(-12.025 -4.007)" fill="#d9f9f8"/>
  <path id="Trazado_719701" data-name="Trazado 719701" d="M159.684,47.683a2.077,2.077,0,0,1-2.4-2.767c-.151-2.788,1.037-5.534,5.209-4.042,2.075.259,2.876,3,1.168,3.719A34.594,34.594,0,0,1,159.684,47.683Z" transform="translate(-12.278 -3.161)" fill="#2b1710"/>
  <path id="Trazado_719702" data-name="Trazado 719702" d="M161.351,48.836c-.13.779-.174.942.928,1.689-.032,3.5-5.112.63-5.1.112,0-.064.94-.276,1.281-.875a9.292,9.292,0,0,0,.372-4.167c.794.211,1.069-.422,1.086-1.508s.536-2.822,2.643-2.546a3.657,3.657,0,0,1,1.15,2.854,23.463,23.463,0,0,1-.076,2.767,2.252,2.252,0,0,1-2.292,1.676Z" transform="translate(-12.281 -3.243)" fill="#ff8762"/>
  <g id="Grupo_1017466" data-name="Grupo 1017466" transform="translate(148.902 43.41)">
    <path id="Trazado_719703" data-name="Trazado 719703" d="M161.522,47.4c.963-.409,1.89-.394,1.811-.054C163.388,48.171,162.358,49.045,161.522,47.4Z" transform="translate(-161.522 -47.089)" fill="#e0b3a8"/>
  </g>
  <path id="Trazado_719704" data-name="Trazado 719704" d="M157.835,46.351a.647.647,0,1,0,.647-.647A.648.648,0,0,0,157.835,46.351Z" transform="translate(-12.332 -3.571)" fill="#ff8762"/>
  <g id="Grupo_1017467" data-name="Grupo 1017467" transform="translate(145.786 42.421)">
    <path id="Trazado_719705" data-name="Trazado 719705" d="M158.645,46.711a.041.041,0,0,0,.039-.026.041.041,0,0,0-.022-.055.132.132,0,0,1-.09-.1.141.141,0,0,1,.066-.12.146.146,0,0,1,.153-.006.042.042,0,0,0,.042,0,.038.038,0,0,0,.019-.037.361.361,0,0,0-.272-.329.388.388,0,0,0-.431.126.042.042,0,0,0,.009.059.041.041,0,0,0,.059-.009.306.306,0,0,1,.338-.1.294.294,0,0,1,.2.188.227.227,0,0,0-.167.036.222.222,0,0,0-.1.2.208.208,0,0,0,.14.171.042.042,0,0,0,.017,0Z" transform="translate(-158.142 -46.016)" fill="#e0b3a8"/>
  </g>
  <g id="Grupo_1017468" data-name="Grupo 1017468" transform="translate(146.737 43.238)">
    <path id="Trazado_719706" data-name="Trazado 719706" d="M161.377,49.256h-.011a3.179,3.179,0,0,1-2.191-2.3.042.042,0,0,1,.03-.05.043.043,0,0,1,.051.031,3.1,3.1,0,0,0,2.133,2.239.041.041,0,0,1-.012.081Z" transform="translate(-159.174 -46.902)" fill="#e0b3a8"/>
  </g>
  <path id="Trazado_719707" data-name="Trazado 719707" d="M160.423,44.345a.042.042,0,0,1-.036-.021c-.012-.019,0-.037.016-.057.363-.508,1.125-.9,1.448-.253.011.021.035.03.028.052a.04.04,0,0,1-.052.027,2.09,2.09,0,0,0-1.383.245.043.043,0,0,1-.021.005Z" transform="translate(-12.531 -3.412)" fill="#2b1710"/>
  <path id="Trazado_719708" data-name="Trazado 719708" d="M164.03,44.405a.042.042,0,0,1-.034-.017c-.006-.009-.173-.223-.707-.157a.041.041,0,0,1-.047-.036c0-.023.028-.026.036-.046.294-.643.765.162.785.189a.041.041,0,0,1-.008.058.044.044,0,0,1-.024.008Z" transform="translate(-12.754 -3.43)" fill="#2b1710"/>
  <path id="Trazado_719709" data-name="Trazado 719709" d="M163.036,46.66a.041.041,0,0,1-.026-.073,4.287,4.287,0,0,0,.505-.452,1.32,1.32,0,0,0-.178-.01,1.02,1.02,0,0,1-.42-.062c-.222-.125-.008-1.061.188-1.5a.041.041,0,1,1,.075.034c-.227.512-.357,1.32-.223,1.4a.985.985,0,0,0,.381.052c.166,0,.268.005.268.081s-.3.331-.546.53a.038.038,0,0,1-.026.009Z" transform="translate(-12.722 -3.48)" fill="#2b1710"/>
  <path id="Trazado_719710" data-name="Trazado 719710" d="M161.644,45.294c0,.246-.112.446-.251.446s-.252-.2-.252-.446.112-.446.252-.446S161.644,45.048,161.644,45.294Z" transform="translate(-12.59 -3.504)" fill="#2b1710"/>
  <g id="Grupo_1017469" data-name="Grupo 1017469" transform="translate(148.405 42.01)">
    <path id="Trazado_719711" data-name="Trazado 719711" d="M161.323,45.948c-.087,0-.277-.037-.339-.353a.021.021,0,0,1,.042-.008c.061.307.242.325.318.318a.02.02,0,0,1,.022.019.02.02,0,0,1-.019.022h-.023Z" transform="translate(-160.983 -45.57)" fill="#e0b3a8"/>
  </g>
  <path id="Trazado_719712" data-name="Trazado 719712" d="M163.708,45.353c0,.246-.112.446-.251.446s-.252-.2-.252-.446.112-.446.252-.446S163.708,45.106,163.708,45.353Z" transform="translate(-12.752 -3.509)" fill="#2b1710"/>
  <g id="Grupo_1017470" data-name="Grupo 1017470" transform="translate(150.308 42.064)">
    <path id="Trazado_719713" data-name="Trazado 719713" d="M163.387,46.007c-.087,0-.277-.037-.339-.353a.02.02,0,0,1,.017-.024.021.021,0,0,1,.025.017c.06.307.242.325.318.318a.02.02,0,0,1,.022.019.021.021,0,0,1-.019.022h-.023Z" transform="translate(-163.047 -45.629)" fill="#e0b3a8"/>
  </g>
  <path id="Trazado_719714" data-name="Trazado 719714" d="M161.034,46.394c-.1.133-.165.251-.147.264s.112-.084.211-.217.165-.251.147-.264S161.134,46.261,161.034,46.394Z" transform="translate(-12.57 -3.608)" fill="#ff7e57"/>
  <path id="Trazado_719715" data-name="Trazado 719715" d="M161.309,46.429c-.1.133-.164.251-.147.264s.112-.084.211-.217.165-.251.148-.264S161.409,46.3,161.309,46.429Z" transform="translate(-12.592 -3.611)" fill="#ff7e57"/>
  <path id="Trazado_719716" data-name="Trazado 719716" d="M161.614,46.458c-.1.133-.165.251-.147.264s.112-.084.211-.217.165-.251.147-.264S161.714,46.326,161.614,46.458Z" transform="translate(-12.616 -3.613)" fill="#ff7e57"/>
  <path id="Trazado_719717" data-name="Trazado 719717" d="M158.969,47.343a.3.3,0,1,1-.3-.3A.3.3,0,0,1,158.969,47.343Z" transform="translate(-12.373 -3.675)" fill="#fff"/>
  <g id="Grupo_1017471" data-name="Grupo 1017471" transform="translate(149.641 44.87)">
    <path id="Trazado_719718" data-name="Trazado 719718" d="M162.564,48.8a1.032,1.032,0,0,0,.356-.061.034.034,0,0,0,.019-.043.034.034,0,0,0-.043-.019,1.008,1.008,0,0,1-.531.037.033.033,0,1,0-.015.064A1.039,1.039,0,0,0,162.564,48.8Z" transform="translate(-162.324 -48.673)" fill="#e0b3a8"/>
  </g>
  <path id="Trazado_719719" data-name="Trazado 719719" d="M161.522,47.419l1.811-.054C163.333,48.177,162.149,48.556,161.522,47.419Z" transform="translate(-12.62 -3.701)" fill="#2b1710"/>
  <path id="Trazado_719720" data-name="Trazado 719720" d="M163,47.986a1.529,1.529,0,0,0-.59-.492l-.557-.081-.329.01C161.941,48.182,162.6,48.257,163,47.986Z" transform="translate(-12.62 -3.704)" fill="#7d2727"/>
  <path id="Trazado_719721" data-name="Trazado 719721" d="M163.333,47.365l-1.811.054C161.944,47.711,163.058,47.793,163.333,47.365Z" transform="translate(-12.62 -3.701)" fill="#fff"/>
  <path id="Trazado_719722" data-name="Trazado 719722" d="M179.327,61.981c-3.106-.311-12.111,7.038-12.525,7.038s-2.829-2.124-2.829-2.124l-1.673-.308-2.121.984-.414,8.28,9.108,1.243s6.313-4.968,7.038-5.382-2.173,13.041-2.173,13.041L180,86.461s2.224-11.748,2.95-16.2-.518-7.97-3.622-8.281Z" transform="translate(-12.483 -4.842)" fill="#00817d"/>
  <g id="Grupo_1017472" data-name="Grupo 1017472" transform="translate(162.707 77.999)">
    <path id="Trazado_719723" data-name="Trazado 719723" d="M181.358,86.206a.1.1,0,0,0,.1-.071.1.1,0,0,0-.067-.124l-4.761-1.4a.1.1,0,1,0-.056.191l4.761,1.4A.1.1,0,0,0,181.358,86.206Z" transform="translate(-176.497 -84.61)" fill="#d9f9f8"/>
  </g>
  <path id="Trazado_719724" data-name="Trazado 719724" d="M155.765,67.237s-3.416,5.8-1.657,10.04,12.731,4.762,13.766,7.246,4.192,19.251,4.192,19.251h7.194s-1.294-17.854-3.933-22.667-10.247-8.384-11.334-9.16-2.173-4.968-2.173-4.968l-6.055.259Z" transform="translate(-12.001 -5.233)" fill="#00817d"/>
  <path id="Trazado_719725" data-name="Trazado 719725" d="M155.553,67.251h8.092v-.737h-8.092Z" transform="translate(-12.154 -5.197)" fill="#2b1710"/>
  <path id="Trazado_719726" data-name="Trazado 719726" d="M159.858,66.234h-.388V67.4h.388Z" transform="translate(-12.46 -5.175)" fill="#00817d"/>
  <path id="Trazado_719727" data-name="Trazado 719727" d="M156.882,66.234h-.388V67.4h.388Z" transform="translate(-12.227 -5.175)" fill="#00817d"/>
  <g id="Grupo_1017473" data-name="Grupo 1017473" transform="translate(144.337 62.421)">
    <path id="Trazado_719728" data-name="Trazado 719728" d="M156.669,72.724a.076.076,0,0,0,.024,0c1.784-.432,2.665-2.365,2.248-4.925a.1.1,0,1,0-.2.031c.4,2.449-.424,4.295-2.1,4.7a.1.1,0,0,0,.023.2Z" transform="translate(-156.57 -67.712)" fill="#d9f9f8"/>
  </g>
  <g id="Grupo_1017474" data-name="Grupo 1017474" transform="translate(143.898 62.475)">
    <path id="Trazado_719729" data-name="Trazado 719729" d="M174.279,101.968h.018a.1.1,0,0,0,.078-.116c-.122-.65-3.021-15.936-4.511-18.915-.976-1.95-4.889-2.956-8.032-3.763a16.066,16.066,0,0,1-4.058-1.346c-1.943-1.366-1.707-6.029-.84-9.937a.1.1,0,0,0-.194-.044c-.883,3.97-1.1,8.72.919,10.143a16.008,16.008,0,0,0,4.122,1.375c3.106.8,6.97,1.789,7.905,3.659,1.477,2.954,4.464,18.705,4.493,18.864a.1.1,0,0,0,.1.081Z" transform="translate(-156.094 -67.77)" fill="#d9f9f8"/>
  </g>
  <g id="Grupo_1017475" data-name="Grupo 1017475" transform="translate(160.069 96.811)">
    <path id="Trazado_719730" data-name="Trazado 719730" d="M180.411,105.24a.1.1,0,0,0,0-.2l-6.676-.026a.1.1,0,1,0,0,.2Z" transform="translate(-173.635 -105.016)" fill="#d9f9f8"/>
  </g>
  <path id="Trazado_719731" data-name="Trazado 719731" d="M162.708,41.507c-.4,2.025-3.723,2.319-3.723,2.319l.547-2.521,2.437-.21Z" transform="translate(-12.422 -3.211)" fill="#2b1710"/>
  <path id="Trazado_719732" data-name="Trazado 719732" d="M168.345,51.5a.114.114,0,0,1-.037-.006c-.038-.014-.914-.351-1.123-.985a.963.963,0,0,1,.146-.855,2.84,2.84,0,0,0-.874-3.573,3.942,3.942,0,0,1-1.728-3.226.108.108,0,0,1,.091-.121.109.109,0,0,1,.122.093,3.758,3.758,0,0,0,1.635,3.078,3.026,3.026,0,0,1,.933,3.867.754.754,0,0,0-.122.672c.176.538.985.848.994.851a.107.107,0,0,1-.038.208Z" transform="translate(-12.871 -3.339)" fill="#2b1710"/>
  <path id="Trazado_719733" data-name="Trazado 719733" d="M150.155,61.367a26.076,26.076,0,0,0-1.039,6.87c.066,3.217,1.541,7.64,1.541,8.109a1.929,1.929,0,0,0,1.977,1.944c.8-.1,1.324-.2,1.408-.017.1.285.637.721.888.654a.543.543,0,0,0,.5.084.332.332,0,0,0,.419-.067,3.978,3.978,0,0,0-.067-.821c-.066-.134-.218-.57-.218-.57s.352.318.369.486-.034.7.2.754a2.812,2.812,0,0,0,.1-1.173c-.017-.235-.553-1.072-1.006-1.156a17.33,17.33,0,0,1-2.413-.218c-.135-.168.419-8.277.57-9.031s1.658-5.077,1.658-5.077Z" transform="translate(-11.65 -4.795)" fill="#ff8762"/>
  <g id="Grupo_1017476" data-name="Grupo 1017476" transform="translate(143.498 72.199)">
    <path id="Trazado_719734" data-name="Trazado 719734" d="M155.972,78.7a.05.05,0,0,1-.036-.015l-.264-.289a.048.048,0,1,1,.07-.066l.265.289a.048.048,0,0,1,0,.068A.045.045,0,0,1,155.972,78.7Z" transform="translate(-155.66 -78.318)" fill="#e0b3a8"/>
  </g>
  <g id="Grupo_1017477" data-name="Grupo 1017477" transform="translate(143.222 72.627)">
    <path id="Trazado_719735" data-name="Trazado 719735" d="M155.864,80.144s-.1-.628-.113-.7a5.2,5.2,0,0,0-.382-.583.047.047,0,0,1,.012-.067.047.047,0,0,1,.066.012,4.3,4.3,0,0,1,.4.624c.013.076.113.7.113.7l-.095.015Z" transform="translate(-155.36 -78.782)" fill="#e0b3a8"/>
  </g>
  <g id="Grupo_1017478" data-name="Grupo 1017478" transform="translate(142.67 72.889)">
    <path id="Trazado_719736" data-name="Trazado 719736" d="M155.362,80.119a.046.046,0,0,1-.044-.034s-.125-.376-.15-.437c-.017-.037-.214-.285-.395-.5a.049.049,0,0,1,.076-.062,5.913,5.913,0,0,1,.409.529c.026.063.147.427.152.442a.046.046,0,0,1-.03.061l-.016,0Z" transform="translate(-154.762 -79.066)" fill="#e0b3a8"/>
  </g>
  <path id="Trazado_719737" data-name="Trazado 719737" d="M154.617,52.579c2.484,1.785,2.173,5.589.932,8.617A28.173,28.173,0,0,0,153.3,73.229a7.532,7.532,0,0,1-3.338.155,22.753,22.753,0,0,1-.776-10.636c1.087-5.279,3.416-10.169,5.434-10.169Z" transform="translate(-11.629 -4.108)" fill="#fff"/>
  <path id="Trazado_719738" data-name="Trazado 719738" d="M180.943,53.465c.253-.7.133-.869-.1-1.163a7.586,7.586,0,0,1-.981-1.393c-.147-.4-.5-.987-.567-1.156.273-.189,1.093.231,1.26.651s1.135.757,1.682,1.24A2.049,2.049,0,0,1,183,53.01a16.6,16.6,0,0,1-.846,2.22l-1.208-1.765Z" transform="translate(-14.009 -3.884)" fill="#ff8762"/>
  <path id="Trazado_719739" data-name="Trazado 719739" d="M181.645,50.7c.226,0,.409-.466.409-1.04s-.183-1.04-.409-1.04-.41.466-.41,1.04S181.418,50.7,181.645,50.7Z" transform="translate(-14.16 -3.799)" fill="#ff8762"/>
  <path id="Trazado_719740" data-name="Trazado 719740" d="M182.328,51.017c.227,0,.41-.466.41-1.04s-.183-1.04-.41-1.04-.409.466-.409,1.04S182.1,51.017,182.328,51.017Z" transform="translate(-14.214 -3.823)" fill="#ff8762"/>
  <path id="Trazado_719741" data-name="Trazado 719741" d="M182.944,51.541c.226,0,.409-.466.409-1.04s-.183-1.04-.409-1.04-.41.466-.41,1.04S182.717,51.541,182.944,51.541Z" transform="translate(-14.262 -3.864)" fill="#ff8762"/>
  <path id="Trazado_719742" data-name="Trazado 719742" d="M183.936,51.3c-.178.467-.446.8-.6.739s-.13-.483.049-.949.446-.8.6-.739S184.115,50.83,183.936,51.3Z" transform="translate(-14.317 -3.933)" fill="#ff8762"/>
</svg>
