<svg xmlns="http://www.w3.org/2000/svg" xmlns:xlink="http://www.w3.org/1999/xlink" width="159.352" height="159.352" viewBox="0 0 159.352 159.352">
  <defs>
    <clipPath id="clip-path">
      <rect id="Rectángulo_349883" data-name="Rectángulo 349883" width="97.311" height="97.519" fill="none"/>
    </clipPath>
  </defs>
  <g id="Grupo_1018012" data-name="Grupo 1018012" transform="translate(-370 -5087.669)">
    <circle id="Elipse_5862" data-name="Elipse 5862" cx="79.676" cy="79.676" r="79.676" transform="translate(370 5087.669)" fill="#01d8d1"/>
    <g id="Grupo_1016908" data-name="Grupo 1016908" transform="translate(409.176 5118.209)">
      <g id="Grupo_1016907" data-name="Grupo 1016907" clip-path="url(#clip-path)">
        <path id="Trazado_716996" data-name="Trazado 716996" d="M69.07,22.864c0,4.285.025,8.207-.02,12.128-.009.839.216,1.285,1.063,1.447a7.7,7.7,0,0,1,3.812,2.346A55.764,55.764,0,0,1,87.172,57.778a4.88,4.88,0,0,0,1.545,1.867c2.531,2.1,5.035,4.239,7.6,6.293a2.348,2.348,0,0,1,.971,2.073c-.03,9.306-.047,18.611.015,27.917.008,1.252-.462,1.267-1.5,1.438-4.1.676-6.62-.887-8.821-4.461-4.072-6.613-8.79-12.825-13.061-19.32-1.144-1.739-2.645-1.7-4.241-1.809-.964-.064-.6.795-.6,1.254-.029,5.064-.014,10.128-.019,15.193,0,4.26-1.724,5.983-5.977,5.984-11.585,0-23.17.035-34.754-.038-1.577-.01-2.045.468-1.623,1.885.3,1.007,0,1.287-1.036,1.281q-9.97-.057-19.941.006c-1.074.008-1.256-.342-1.123-1.3.41-2.944.614-5.923,1.169-8.837a14.763,14.763,0,0,0-.764-7.577A103.379,103.379,0,0,1,0,46.589c.032-3.646,1.663-5.515,5.328-5.706,1.419-.074.927-.952.93-1.557.034-6.33.021-12.661.021-18.991,0-2.912-.029-5.824.008-8.736.044-3.488,1.778-5.27,5.289-5.275q26.113-.042,52.227,0a3.473,3.473,0,0,1,1.856.245c1.623,1.161,2.233.164,3.124-1.035A13.082,13.082,0,0,1,79.537.071a26.426,26.426,0,0,1,6.807.3c5.546,1.354,9.174,4.784,10.5,10.294,1.373,5.695-.305,10.7-5.06,14.086-2.727,1.944-4.4,3.691-4.1,7.333.259,3.076-2.842,5.556-6.017,5.591-3.327.036-6.433-2.431-6.254-5.788.183-3.451-.991-5.544-3.965-6.982a13.37,13.37,0,0,1-2.382-2.045M19.476,50.242c.923.637,2.1.98,2.693,2a2.289,2.289,0,0,0,2.353,1.138c2.658-.057,5.318,0,7.976-.027,1.173-.011,2.164-.2,2.125,1.659-.036,1.731-.937,1.561-2.035,1.553-2.585-.02-5.169-.006-8.025-.006a30.125,30.125,0,0,1,3.048,8.135c.2,1.118.728,1.253,1.66,1.236,2.342-.044,4.689.067,7.026-.045,1.351-.065,1.392.607,1.367,1.61-.023.942.076,1.724-1.328,1.645-2.082-.117-4.178.019-6.265-.048-1.221-.039-1.922.033-1.939,1.646s.75,1.517,1.832,1.5c2.215-.041,4.433.043,6.647-.031,1.475-.049.968.976,1.023,1.68.059.744.206,1.531-1.054,1.467-1.768-.09-3.544-.022-5.317-.022-3.3,0-3.3,0-4.231,3.051a19.479,19.479,0,0,1-.685,1.966c-.407.95-.248,1.33.9,1.326q15.574-.048,31.148,0c1.034,0,1.276-.373,1.261-1.326a86.3,86.3,0,0,1,.051-9.3c.24-2.573-1.31-3.444-3.184-4.614,0,2.958.032,5.674-.01,8.389-.038,2.463-1.16,3.613-3.607,3.659q-4.272.079-8.546,0c-2.435-.047-3.541-1.208-3.587-3.679-.037-2.025-.008-4.052-.009-6.077,0-5.548.4-5.949,5.911-5.949H53.2c-1.307-2.6-3.151-3.5-5.713-3.118a18.292,18.292,0,0,1-3.224.019c-2.116-.062-3.406-1.167-3.467-3.218q-.14-4.648,0-9.3c.061-2,1.277-3.025,3.314-3.162a3.849,3.849,0,0,0,2.454-.446c-1.748-.442-1.592-2.448-3.167-2.785a3.145,3.145,0,0,1-2.625-3.433c-.033-2.848-.046-5.7,0-8.547.04-2.458,1.209-3.61,3.635-3.635,2.785-.029,5.571-.024,8.357,0,2.551.02,3.763,1.154,3.734,3.717-.037,3.284.293,6.578-.208,9.851-.073.477-.1.932.557.915.761-.019,2.785-2.246,2.786-3.033,0-4.305-.054-8.611.035-12.914.028-1.345-.363-1.671-1.682-1.666Q37.664,22.084,17.342,22c-1.548-.008-1.71.567-1.7,1.865.052,7.724.022,15.447.031,23.171,0,1.134.07,2.269.107,3.4l3.159-.264.538.065m-6.928,2.722V51.128q0-13.767,0-27.534c0-3.925.829-4.75,4.812-4.751q20.319-.005,40.637,0A15.652,15.652,0,0,1,59.7,18.9a3.022,3.022,0,0,1,3.022,3.222c.049,1.771.013,3.544.013,5.316,0,3.165-.011,6.33.016,9.495,0,.4-.156,1.4.583.956,1.111-.665,2.625-.923,2.58-3-.16-7.592-.058-15.19-.067-22.785,0-2.364-.251-2.608-2.621-2.609q-25.54-.007-51.081,0c-2.5,0-2.687.2-2.688,2.734,0,9.747-.092,19.5.042,29.242a27.41,27.41,0,0,0,3.044,11.488m53.49-12.88A4.505,4.505,0,0,0,67.651,41.9c1.073.84.619,1.387-.138,2.06-.655.583-1.135,1.416-2.061.253a27.974,27.974,0,0,0-2.532-2.565,2.29,2.29,0,0,0-2.785-.5c-.723.357-1.108.793-.233,1.516,1.413,1.169,2.712,2.476,4.136,3.631.97.787,1.328,1.268.321,2.487-1.162,1.407-1.708.5-2.471-.172-1.848-1.635-3.687-3.281-5.533-4.92q-3.052-2.709-6.112-5.41a1.753,1.753,0,0,0-2.693,0c-.861.951-.474,1.861.412,2.619.336.288.676.573,1,.874,4.038,3.732,8.5,6.983,12.311,10.98.853.9.89,1.365-.02,2.181-.778.7-1.266,1.289-2.208.156a48.453,48.453,0,0,0-3.467-3.51c-1.634-1.6-3.179-1.767-4.48-.508-1.271,1.229-1.2,2.886.249,4.553,1.7,1.957,3.6,3.763,5.145,5.836,4,5.37,9.595,7.1,15.911,7.416a2.181,2.181,0,0,0,1.69-.623c3.082-2.723,6.153-5.459,9.295-8.112a1.558,1.558,0,0,0,.473-2.215A54.35,54.35,0,0,0,71.217,40.563c-1.631-1.523-3.1-1.633-5.18-.479m-50.4,41.564c1.9,0,3.8-.032,5.7.015a1.4,1.4,0,0,0,1.545-1.027A27.869,27.869,0,0,0,25.106,70.9c.211-5.821-2.189-10.806-4.791-15.758-.714-1.358-1.639-2.1-3.186-1.529-1.336.494-1.732,1.843-1.039,3.513.9,2.156,1.858,4.285,2.768,6.436a8.876,8.876,0,0,1,.372,6.3c-.168.529-.168,1.736-1.225,1.1-.723-.436-2.322-.158-1.8-2.009a6.736,6.736,0,0,0-1.792-6.637A28.416,28.416,0,0,1,7.79,49.9c-.352-1.408-.613-2.84-.912-4.262a1.767,1.767,0,0,0-2-1.592c-1.156.076-1.619.852-1.739,1.9a8.213,8.213,0,0,0-.015.948A107.868,107.868,0,0,0,8.1,79.194c.618,1.976,1.516,2.755,3.555,2.487a30.786,30.786,0,0,1,3.984-.033m78.522-.537c0-1.455.014-2.909,0-4.364-.034-2.837.725-6.049-.362-8.406-1.056-2.289-4.014-3.7-6.136-5.5a1.283,1.283,0,0,1-.145-.122c-.766-.868-1.408-.895-2.335-.039q-4.039,3.731-8.281,7.241c-1,.829-.829,1.38-.189,2.3,3.511,5.024,6.961,10.09,10.434,15.141,1.324,1.926,2.714,3.812,3.951,5.793a2.077,2.077,0,0,0,2.4,1.017c1.2-.225.627-1.237.637-1.868.061-3.73.03-7.462.03-11.193M62.742,70.458c0,3.425.006,6.824,0,10.224-.007,3.076-1.015,4.089-4.085,4.091-9.552.005-19.1-.014-28.657.019-1.5.005-3.519-.685-4.344.329-.656.806.154,2.758.21,4.2.049,1.269.554,1.711,1.864,1.706q17.84-.069,35.679-.006c1.77.006,2.5-.611,2.471-2.441-.079-4.933-.026-9.868-.026-14.8,0-2.769,0-2.769-3.109-3.324m14.3-45.782c.159-1.456.25-2.888.487-4.3.2-1.171-.228-1.455-1.354-1.6A4.486,4.486,0,0,1,72.2,13.5a4.5,4.5,0,0,1,4.718-4,4.568,4.568,0,0,1,4.373,4.784c.011.453-.445,1.137.407,1.384.577-.517.2-1.1.22-1.626a4.528,4.528,0,0,1,9.056-.089,4.581,4.581,0,0,1-4.057,4.889c-.5.092-1.452-.347-1.35.776.153,1.681.368,3.356.584,5.28,1.211-.8,2.214-1.429,3.185-2.106A10.661,10.661,0,0,0,84.772,3.31a21.3,21.3,0,0,0-6.994.1,10.223,10.223,0,0,0-8.225,7.277c-1.84,5.657,1.053,11.023,7.487,13.986M15.612,94.2c2.088,0,4.177-.054,6.263.022,1.1.04,1.468-.3,1.31-1.4-.333-2.314-.606-4.638-.861-6.962-.1-.884-.532-1.112-1.378-1.1q-5.219.063-10.439,0c-.9-.01-1.345.153-1.429,1.2-.187,2.329-.476,4.656-.864,6.96-.182,1.085.143,1.319,1.135,1.3,2.087-.051,4.176-.015,6.263-.015M48.76,75.319c1.275-.15,3.319.687,4.276-.309.94-.979.189-3.007.28-4.572,0-.063,0-.127,0-.19,0-4.324,0-4.355-4.319-4.308-1.627.017-3.718-.707-4.753.331-.948.951-.255,3.019-.268,4.592-.035,4.456-.012,4.456,4.782,4.456m4.558-38.781c0-2.5-.02-4.766.011-7.031.011-.817-.139-1.288-1.125-1.265-2.393.055-4.789.032-7.183.01-.677-.006-1.067.162-1.062.934.019,2.737.008,5.473.008,8.475,2.929-3.733,5.225-4,9.352-1.123M51,47.25c-2.693,0-5.2-.706-6.672.223-1.181.744-.241,3.508-.366,5.371,0,.063,0,.126,0,.189,0,3.711,0,3.711,3.871,3.408-1.577-3.714-.69-6.728,3.169-9.191m30.607-19c-3.522.045-3.151-.426-3.18,2.032-.032,2.752,1.125,4.288,3.143,4.295s3.155-1.538,3.158-4.273c0-2.054,0-2.054-3.121-2.054m1.245-4.6c-.15-1.419-.3-2.6-.39-3.79-.044-.557-.125-.966-.823-.984-.66-.016-.886.324-.944.9-.149,1.5-.285,3-.469,4.491-.081.666.157.852.806.89,1.281.073,2.306-.009,1.818-1.506m-4.7-9.5c-.1-.8-.431-1.54-1.464-1.523A1.357,1.357,0,0,0,75.3,14.105c-.015,1.062.595,1.54,1.66,1.624,1.224.1,1.037-.791,1.193-1.581m6.923.159c.069.644-.166,1.456.97,1.415,1-.036,1.739-.306,1.775-1.466.03-.97-.415-1.643-1.4-1.626s-1.4.714-1.343,1.676" transform="translate(0 0)" fill="#060606"/>
        <path id="Trazado_716997" data-name="Trazado 716997" d="M44.442,86.051l-3.159.264c-.038-1.134-.106-2.269-.107-3.4-.01-7.724.022-15.447-.031-23.171-.009-1.3.154-1.873,1.7-1.865q20.322.1,40.645.009c1.318,0,1.709.321,1.681,1.666-.089,4.3-.031,8.609-.035,12.914,0,.787-2.025,3.013-2.786,3.033-.656.017-.63-.438-.557-.915.5-3.273.171-6.567.208-9.85.029-2.563-1.183-3.7-3.734-3.717-2.785-.022-5.571-.027-8.357,0-2.425.025-3.594,1.177-3.635,3.635-.046,2.848-.034,5.7,0,8.546A3.146,3.146,0,0,0,68.9,76.63c1.575.337,1.419,2.342,3.167,2.785a3.853,3.853,0,0,1-2.455.447c-2.037.137-3.253,1.163-3.313,3.161q-.141,4.649,0,9.3c.062,2.052,1.351,3.156,3.467,3.218a18.3,18.3,0,0,0,3.225-.019c2.561-.384,4.4.522,5.713,3.118H72.174c-5.512,0-5.911.4-5.91,5.949,0,2.026-.029,4.052.009,6.077.045,2.471,1.152,3.632,3.587,3.679q4.272.083,8.546,0c2.447-.046,3.569-1.2,3.607-3.659.042-2.715.01-5.43.01-8.389,1.873,1.17,3.424,2.041,3.183,4.614a86.2,86.2,0,0,0-.05,9.3c.014.954-.228,1.33-1.262,1.326q-15.574-.05-31.148,0c-1.145,0-1.3-.376-.9-1.326a19.385,19.385,0,0,0,.685-1.966c.933-3.049.929-3.05,4.231-3.051,1.773,0,3.549-.068,5.317.022,1.261.064,1.113-.724,1.055-1.467-.056-.7.452-1.729-1.023-1.68-2.213.073-4.431-.01-6.647.031-1.082.02-1.849.111-1.832-1.5s.718-1.685,1.939-1.646c2.087.067,4.183-.068,6.266.049,1.4.079,1.305-.7,1.327-1.645.024-1-.017-1.675-1.367-1.61-2.337.112-4.684,0-7.026.045-.933.017-1.465-.117-1.66-1.236a30.138,30.138,0,0,0-3.048-8.135c2.855,0,5.44-.013,8.025.006,1.1.008,2,.178,2.035-1.553.039-1.863-.952-1.67-2.125-1.659-2.659.025-5.319-.03-7.977.027a2.288,2.288,0,0,1-2.353-1.138c-.592-1.016-1.771-1.359-2.693-2,1.317-.006,2.64-.094,3.949.006,1.248.1,1.713-.2,1.731-1.589.02-1.477-.6-1.662-1.772-1.535a15.9,15.9,0,0,1-1.692.01c-2.961,0-2.961,0-2.753,3.043m7.857-12.5c2.147,0,4.3-.06,6.441.025,1.138.045,1.416-.408,1.32-1.425-.079-.834.278-1.748-1.221-1.719q-6.629.125-13.262,0c-1.488-.028-1.152.879-1.228,1.716-.092,1.012.174,1.474,1.32,1.429,2.207-.087,4.42-.025,6.631-.025m6.272-9.446c-1.264,0-2.53.047-3.791-.014-1.215-.059-1.128.741-1.073,1.5.052.726-.4,1.765,1.009,1.754,2.464-.02,4.929-.03,7.393.008.85.013,1.02-.353,1.078-1.128.111-1.485-.086-2.475-1.967-2.151a15.951,15.951,0,0,1-2.65.026m-.119,18.9c-1.2,0-2.4.063-3.6-.018-1.163-.079-1.217.6-1.129,1.42.076.715-.421,1.737,1.03,1.7,2.462-.054,4.926-.009,7.389-.021.408,0,.826.106,1.008-.538.482-1.71-.087-2.544-1.857-2.549-.947,0-1.895,0-2.842,0M47.421,67.347a11.863,11.863,0,0,1,1.7.013c1.336.2,1.461-.486,1.546-1.618.121-1.6-.65-1.754-1.892-1.651a13.8,13.8,0,0,1-2.641,0c-1.344-.148-1.884.218-1.873,1.715s.68,1.668,1.842,1.551c.436-.044.88-.007,1.321-.007" transform="translate(-25.503 -35.874)" fill="#67d1ef"/>
        <path id="Trazado_716998" data-name="Trazado 716998" d="M27.922,68.447a27.422,27.422,0,0,1-3.044-11.488c-.135-9.746-.046-19.495-.043-29.242,0-2.536.193-2.733,2.689-2.734q25.54-.005,51.08,0c2.369,0,2.618.245,2.621,2.609.008,7.6-.094,15.193.067,22.785.044,2.073-1.47,2.331-2.58,3-.739.442-.58-.555-.583-.957-.027-3.164-.015-6.33-.016-9.494,0-1.772.036-3.546-.013-5.316a3.022,3.022,0,0,0-3.022-3.222,15.662,15.662,0,0,0-1.706-.056q-20.318,0-40.637,0c-3.984,0-4.812.825-4.812,4.751q0,13.767,0,27.534Zm25.09-40.372c-1.645,0-3.293.072-4.932-.024-1.2-.07-1.332.522-1.3,1.479.028.924-.092,1.719,1.312,1.681q4.835-.133,9.676,0c1.259.033,1.612-.36,1.623-1.6.011-1.275-.407-1.641-1.634-1.562-1.575.1-3.161.025-4.742.025" transform="translate(-15.375 -15.484)" fill="#939ba6"/>
        <path id="Trazado_716999" data-name="Trazado 716999" d="M142.783,101.476c2.078-1.154,3.549-1.044,5.18.479a54.341,54.341,0,0,1,12.644,17.367,1.558,1.558,0,0,1-.473,2.215c-3.141,2.653-6.213,5.389-9.295,8.112a2.182,2.182,0,0,1-1.689.623c-6.316-.314-11.912-2.046-15.911-7.416-1.543-2.073-3.441-3.88-5.145-5.836-1.453-1.668-1.519-3.324-.249-4.553,1.3-1.259,2.847-1.093,4.48.508a48.446,48.446,0,0,1,3.467,3.51c.941,1.133,1.43.542,2.208-.156.91-.817.873-1.286.02-2.181-3.809-4-8.274-7.248-12.311-10.98-.325-.3-.664-.586-1-.874-.887-.758-1.273-1.668-.412-2.619a1.753,1.753,0,0,1,2.693,0q3.068,2.691,6.112,5.41c1.846,1.638,3.684,3.284,5.533,4.919.763.675,1.31,1.579,2.471.173,1.007-1.22.649-1.7-.321-2.487-1.424-1.155-2.723-2.462-4.136-3.631-.875-.724-.49-1.16.233-1.517a2.29,2.29,0,0,1,2.784.5,28.027,28.027,0,0,1,2.532,2.565c.926,1.162,1.405.329,2.061-.253.757-.673,1.211-1.221.138-2.061a4.5,4.5,0,0,1-1.613-1.816" transform="translate(-76.746 -61.392)" fill="#eccdb1"/>
        <path id="Trazado_717000" data-name="Trazado 717000" d="M20.718,153.46a30.72,30.72,0,0,0-3.984.032c-2.04.269-2.937-.511-3.555-2.487a107.841,107.841,0,0,1-4.983-32.3,8.306,8.306,0,0,1,.015-.949c.12-1.047.584-1.822,1.739-1.9a1.767,1.767,0,0,1,2,1.592c.3,1.422.56,2.853.913,4.262a28.419,28.419,0,0,0,6.624,12.415,6.736,6.736,0,0,1,1.792,6.637c-.523,1.851,1.076,1.573,1.8,2.009,1.057.637,1.057-.57,1.224-1.1a8.869,8.869,0,0,0-.372-6.3c-.909-2.151-1.872-4.28-2.767-6.436-.693-1.669-.3-3.018,1.039-3.512,1.546-.572,2.472.171,3.186,1.529,2.6,4.952,5,9.937,4.791,15.758a27.871,27.871,0,0,1-2.223,9.734,1.4,1.4,0,0,1-1.545,1.027c-1.9-.047-3.8-.015-5.7-.015" transform="translate(-5.077 -71.812)" fill="#ebccb0"/>
        <path id="Trazado_717001" data-name="Trazado 717001" d="M218.4,182.3c0,3.731.031,7.463-.03,11.193-.01.63.563,1.643-.637,1.868a2.077,2.077,0,0,1-2.4-1.017c-1.237-1.981-2.626-3.867-3.951-5.793-3.472-5.051-6.923-10.117-10.434-15.141-.64-.915-.814-1.466.189-2.295q4.237-3.5,8.281-7.241c.927-.856,1.569-.829,2.335.039a1.4,1.4,0,0,0,.144.122c2.123,1.8,5.081,3.207,6.136,5.5,1.087,2.357.328,5.568.362,8.406.018,1.454,0,2.909,0,4.363" transform="translate(-124.232 -101.186)" fill="#fa7f6c"/>
        <path id="Trazado_717002" data-name="Trazado 717002" d="M104.155,185.34c3.109.556,3.109.556,3.109,3.324,0,4.934-.052,9.869.026,14.8.029,1.83-.7,2.447-2.471,2.441q-17.84-.061-35.679.006c-1.31,0-1.815-.437-1.864-1.706-.056-1.447-.866-3.4-.21-4.2.826-1.014,2.846-.324,4.345-.329,9.552-.033,19.1-.013,28.657-.019,3.07,0,4.078-1.015,4.085-4.091.008-3.4,0-6.8,0-10.225" transform="translate(-41.413 -114.883)" fill="#959ea9"/>
        <path id="Trazado_717003" data-name="Trazado 717003" d="M189.563,29.684c-6.433-2.963-9.327-8.329-7.487-13.986A10.221,10.221,0,0,1,190.3,8.421a21.278,21.278,0,0,1,6.994-.1A10.661,10.661,0,0,1,201.862,27.8c-.97.678-1.974,1.308-3.185,2.106-.216-1.924-.43-3.6-.584-5.28-.1-1.123.847-.684,1.349-.776a4.581,4.581,0,0,0,4.057-4.889,4.528,4.528,0,0,0-9.056.089c-.017.523.357,1.109-.22,1.626-.852-.247-.4-.931-.407-1.384a4.567,4.567,0,0,0-4.372-4.784,4.5,4.5,0,0,0-4.718,4,4.486,4.486,0,0,0,3.97,5.272c1.127.15,1.552.434,1.354,1.605-.237,1.408-.329,2.84-.487,4.3" transform="translate(-112.522 -5.008)" fill="#f7e3a2"/>
        <path id="Trazado_717004" data-name="Trazado 717004" d="M28.927,232.391c-2.088,0-4.177-.035-6.263.016-.992.024-1.318-.211-1.135-1.3.387-2.3.677-4.631.864-6.96.084-1.05.531-1.212,1.429-1.2q5.219.055,10.439,0c.845-.01,1.28.218,1.378,1.1.256,2.324.529,4.648.861,6.962.159,1.1-.211,1.442-1.309,1.4-2.085-.075-4.175-.022-6.263-.022" transform="translate(-13.314 -138.193)" fill="#fa7f6c"/>
        <path id="Trazado_717005" data-name="Trazado 717005" d="M120.088,182.461c-4.795,0-4.817,0-4.783-4.456.012-1.574-.68-3.641.268-4.592,1.035-1.038,3.126-.313,4.753-.331,4.317-.047,4.318-.016,4.318,4.307,0,.064,0,.127,0,.19-.091,1.565.66,3.593-.28,4.572-.957,1-3,.16-4.275.309" transform="translate(-71.328 -107.142)" fill="#e1e4e8"/>
        <path id="Trazado_717006" data-name="Trazado 717006" d="M124.993,82.586c-4.127-2.874-6.423-2.61-9.352,1.123,0-3,.012-5.738-.008-8.475-.006-.772.385-.94,1.062-.934,2.394.022,4.79.045,7.183-.01.986-.022,1.136.448,1.125,1.265-.031,2.266-.011,4.532-.011,7.031" transform="translate(-71.676 -46.048)" fill="#e0e2e6"/>
        <path id="Trazado_717007" data-name="Trazado 717007" d="M122.3,123.874c-3.859,2.463-4.746,5.477-3.169,9.191-3.871.3-3.871.3-3.871-3.408,0-.063,0-.127,0-.189.126-1.863-.815-4.627.366-5.371,1.475-.929,3.979-.223,6.672-.223" transform="translate(-71.299 -76.624)" fill="#e0e2e6"/>
        <path id="Trazado_717008" data-name="Trazado 717008" d="M209.494,74.3c3.123,0,3.123,0,3.121,2.054,0,2.735-1.144,4.279-3.158,4.273s-3.175-1.542-3.143-4.295c.029-2.458-.343-1.987,3.18-2.032" transform="translate(-127.883 -46.052)" fill="#c1c6cd"/>
        <path id="Trazado_717009" data-name="Trazado 717009" d="M49.691,126.96c-.208-3.043-.208-3.043,2.753-3.043a15.8,15.8,0,0,0,1.692-.011c1.17-.127,1.792.059,1.772,1.536-.019,1.392-.484,1.685-1.731,1.589-1.309-.1-2.632-.012-3.949-.007l-.538-.064" transform="translate(-30.752 -76.783)" fill="#000101"/>
        <path id="Trazado_717010" data-name="Trazado 717010" d="M213.651,54.42c.488,1.5-.536,1.579-1.818,1.506-.649-.037-.888-.224-.806-.89.183-1.494.319-2.993.469-4.491.057-.576.283-.916.943-.9.7.017.779.427.823.984.094,1.187.24,2.371.39,3.79" transform="translate(-130.795 -30.773)" fill="#f7e3a2"/>
        <path id="Trazado_717011" data-name="Trazado 717011" d="M200.942,34.731c-.156.79.031,1.677-1.193,1.581-1.066-.083-1.675-.561-1.66-1.623a1.357,1.357,0,0,1,1.389-1.481c1.033-.017,1.36.722,1.464,1.523" transform="translate(-122.785 -20.584)" fill="#ebc868"/>
        <path id="Trazado_717012" data-name="Trazado 717012" d="M223.793,34.9c-.052-.962.355-1.659,1.345-1.676s1.431.656,1.4,1.626c-.036,1.16-.772,1.43-1.775,1.466-1.135.041-.9-.772-.971-1.416" transform="translate(-138.715 -20.593)" fill="#ebc868"/>
        <path id="Trazado_717013" data-name="Trazado 717013" d="M57.5,94.027c-2.211,0-4.423-.061-6.631.025-1.145.045-1.411-.417-1.32-1.429.076-.838-.26-1.744,1.228-1.716q6.63.124,13.263,0c1.5-.029,1.143.886,1.221,1.72.1,1.017-.182,1.47-1.32,1.425-2.144-.086-4.294-.025-6.441-.025" transform="translate(-30.7 -56.348)" fill="#000101"/>
        <path id="Trazado_717014" data-name="Trazado 717014" d="M79,74.123a15.869,15.869,0,0,0,2.65-.026c1.881-.324,2.078.666,1.967,2.151-.058.775-.228,1.14-1.078,1.128-2.464-.038-4.929-.029-7.393-.008-1.412.012-.958-1.028-1.009-1.754-.054-.762-.142-1.562,1.073-1.5,1.261.061,2.527.014,3.791.013" transform="translate(-45.937 -45.891)" fill="#091316"/>
        <path id="Trazado_717015" data-name="Trazado 717015" d="M78.918,123.945c.947,0,1.895,0,2.842,0,1.77,0,2.339.839,1.857,2.549-.182.645-.6.537-1.009.539-2.463.011-4.927-.033-7.389.021-1.451.032-.953-.991-1.03-1.7-.088-.823-.034-1.5,1.129-1.421,1.194.082,2.4.018,3.6.018" transform="translate(-45.969 -76.812)" fill="#020202"/>
        <path id="Trazado_717016" data-name="Trazado 717016" d="M52.5,77.427c-.441,0-.885-.036-1.321.007-1.162.117-1.832-.068-1.842-1.552s.53-1.863,1.873-1.715a13.8,13.8,0,0,0,2.641,0c1.242-.1,2.014.048,1.892,1.651-.086,1.132-.21,1.814-1.546,1.618a11.863,11.863,0,0,0-1.7-.013" transform="translate(-30.58 -45.954)" fill="#091316"/>
        <path id="Trazado_717017" data-name="Trazado 717017" d="M88.837,33.064c1.581,0,3.167.076,4.742-.025,1.227-.078,1.645.288,1.634,1.562-.011,1.24-.364,1.633-1.623,1.6q-4.835-.128-9.676,0c-1.4.039-1.283-.756-1.312-1.68-.029-.957.1-1.549,1.3-1.479,1.639.1,3.288.024,4.932.024" transform="translate(-51.199 -20.473)" fill="#020202"/>
      </g>
    </g>
  </g>
</svg>
