<svg xmlns="http://www.w3.org/2000/svg" xmlns:xlink="http://www.w3.org/1999/xlink" width="400" height="306.303" viewBox="0 0 400 306.303">
  <defs>
    <clipPath id="clip-path">
      <rect id="Rectángulo_350166" data-name="Rectángulo 350166" width="240.566" height="270.011" fill="none"/>
    </clipPath>
  </defs>
  <g id="Grupo_1018018" data-name="Grupo 1018018" transform="translate(-180 -1121.262)">
    <g id="Image_Place_Holder" data-name="Image Place Holder" transform="translate(180 1156.796)">
      <rect id="Image_Place_Holder-2" data-name="Image Place Holder" width="400" height="270.769" rx="10" fill="#005d95"/>
    </g>
    <g id="Grupo_1017393" data-name="Grupo 1017393" transform="translate(256.1 1121.262)">
      <g id="Grupo_1017392" data-name="Grupo 1017392" clip-path="url(#clip-path)">
        <path id="Trazado_718088" data-name="Trazado 718088" d="M212.217,220.5c2.681-1.622,4.845-.978,6.98,1.214,5.757,5.906,11.749,11.585,17.444,17.548,5.242,5.489,5.2,12.366.069,17.906-2.861,3.087-5.852,6.065-8.933,8.932-5.364,4.99-12.365,5.346-17.5.283-19.364-19.1-38.534-38.4-57.749-57.652-1.646-1.651-3.108-3.843-2.624-6.085.937-4.345-1.445-6.707-4.154-9.308q-8.162-7.836-15.983-16.024c-1.8-1.889-3.059-1.811-5.175-.427A77.068,77.068,0,0,1,75.126,189.5c-3.337-.266-3.713.937-3.645,3.682.15,6.138.014,12.283.056,18.424.032,4.714-2.133,7.242-6.954,7.257-3.685.011-7.374-.077-11.056.033-3,.089-5.092-.982-6.04-3.931.867-3.679,3.493-4.187,6.8-4.173,9.132.041,9.133-.057,9.133-9.3,0-11.908-.926-23.911.27-35.7,1.112-10.95-3.056-18.3-11.065-24.6a6.908,6.908,0,0,0-4.657-1.864c-8.576.135-17.154.157-25.731.22-3.143-.075-6.312.07-9.424-.281-3.881-.438-5.106.827-5.056,4.86.223,17.676.1,35.356.1,53.034,0,14.283,0,14.283,14.345,13.529,3.159.051,6.32.206,9.475.121,3.057-.082,5.117.937,5.63,4.17-.585,2.974-2.637,3.888-5.388,3.884-8.428-.012-16.856.052-25.284-.026-4.469-.04-6.643-2.3-6.63-6.934q.1-36.868.015-73.737c0-1.826.035-4.186,1.58-4.745,4.73-1.711,2.991-5.006,2.412-7.99-7.794-40.115,17.416-80.4,57.035-90.524,4.726-1.208,6.033-3.034,5.707-7.651-.443-6.29-.181-12.634-.089-18.953C66.749,2.354,69.072.033,75.008.026q46.092-.051,92.183,0c5.756.007,8,2.216,8.031,7.911.076,12.289-.05,24.58.076,36.869.032,3.119-1.081,5.022-4.045,5.869-2.913-1-3.868-3.043-3.82-6.074.138-8.937.047-17.877.047-26.816,0-9.788,0-9.819-10.016-9.783q-34.428.125-68.856.3c-2.792-.093-5.611.028-8.369-.327-4.3-.554-5.621.881-5.58,5.373.232,24.851.112,49.7.112,74.556,0,13.56,0,13.56,13.837,12.4,14.132-1.164,11.456,9.48,11.687,19.5,5.715-5.993,10.258-10.589,14.595-15.37a11.5,11.5,0,0,1,9.316-3.872c12.808.12,25.621-.118,38.424.141,4.043.081,5.047-1.193,4.938-5.072-.269-9.642-.034-19.3-.117-28.946-.026-2.931.543-5.235,3.821-5.917,2.924.5,4.02,2.27,4,5.188-.075,11.768.054,23.538-.067,35.307-.056,5.373-2.492,7.618-8.615,7.219-4.823-.314-6.41.728-6.468,6.031-.155,14.154-4.6,27.236-12.414,39.05-1.663,2.515-1.672,3.925.609,6.006,4.534,4.14,8.714,8.668,13.092,12.982,3.613,3.559,6.525,8.171,12.961,6.93,2.115-.408,4.147,1.577,5.8,3.235,7.81,7.841,15.6,15.7,23.494,23.457,2.13,2.091,3.119,4.178,1.626,6.981-2.794,1.833-5.066,1.1-7.244-1.225-1.861-1.983-3.969-3.735-5.969-5.589-.542-.674-1.133-1.315-1.619-2.028-2.784-4.07-5.366-4.476-8.634-.229a60.745,60.745,0,0,1-8.514,8.561c-2.414,2.094-2.423,3.358-.057,5.678,13.388,13.129,26.576,26.461,39.847,39.71,5.247,5.24,6.744,5.149,11.662-.581,1.291-1.146,2.641-2.231,3.863-3.446,5.1-5.079,5.108-6.409.105-11.438-4.9-4.93-9.76-9.913-14.78-14.724-2.277-2.181-3.293-4.391-1.733-7.348m-42.34-15.944c2.718-2.6,5.3-5.371,8.2-7.747,2.445-2,2.056-3.44-.166-5.095-.954-.711-1.814-1.546-2.718-2.326-1.581-2.852-3.311-2.414-5.3-.364-3.388,3.487-6.871,6.882-10.305,10.325-1.114,1.117-2.215,2.141-1.2,4.027,3.278,6.117,6.9,6.521,11.5,1.179M49.647,131.377c1.665.495,3.8-.332,5.048,1.064,7.24,8.135,19.5,13.23,16.847,27.452-.577,3.1.787,4.442,3.983,4.539,5.981.182,11.9.234,17.816-1.038,23.4-5.038,41.392-26.658,41.768-50.452.022-1.423.956-3.248-.918-4.269-2.4-1.31-12.768.487-14.816,2.528q-7.838,7.806-15.648,15.642a6.619,6.619,0,0,1-7.256,1.678c-2.832-.943-4.085-3.259-4.228-6.084a74.567,74.567,0,0,1-.032-9.476c.253-3.268-.535-4.8-4.209-4.437-3.48.346-7.02.076-10.533.074-9.135,0-10.8-1.652-10.84-10.583-.045-10.182-.135-20.362-.206-30.543.071-1.393.041-2.8.231-4.176.543-3.924-1.247-3.8-4.171-2.757-26.655,9.5-41.681,41.441-31.908,67.8.837,2.258,1.755,3.455,4.391,3.31,4.883-.271,9.784-.2,14.678-.276M82.129,181.9c2.809-.211,4.21-.319,5.609-.422,35.42-2.6,64.3-33.363,64.724-68.991.016-1.4.79-3.157-1.517-3.884-4.569-1.44-7.377.4-7.721,5.12-.19,2.62-.513,5.239-.919,7.836-4.866,31.052-35.317,54.335-66.58,50.664-3.922-.46-4.177.888-4.306,4.069-.15,3.685.632,5.627,4.768,5.319a37.245,37.245,0,0,1,5.94.288M23.1,131.609c-6.333-21.984-3.555-41.679,10.32-59.3A60.31,60.31,0,0,1,63.9,51.747c5.037-1.544,2.68-5.647,2.43-8.347-.256-2.769-3.031-1-4.6-.556C25.548,52.973,3.189,91.684,12.518,127.7c.755,2.916,1.815,4.294,4.893,3.94a53.4,53.4,0,0,1,5.689-.036m117.584,31.643c-1.994,2-4.071,3.834-5.829,5.933-1.69,2.019.845,2.654,1.7,3.544,5.46,5.656,11.3,10.961,16.544,16.8,3.428,3.814,4.551.117,6.324-1.342s4.032-2.694.917-5.542c-6.054-5.533-11.684-11.533-17.495-17.335-.615-.614-1.259-1.2-2.167-2.058" transform="translate(0 0)" fill="#050808"/>
        <path id="Trazado_718089" data-name="Trazado 718089" d="M84.007,7.89q34.428-.153,68.856-.3c10.016-.036,10.016-.006,10.016,9.782,0,8.939.091,17.88-.047,26.816-.047,3.032.907,5.077,3.82,6.074q.009,5.046.018,10.091c-3.276.682-3.846,2.986-3.819,5.918.083,9.648-.152,19.3.117,28.945.109,3.879-.9,5.154-4.938,5.072-12.8-.258-25.616-.021-38.424-.141a11.5,11.5,0,0,0-9.316,3.872c-4.337,4.782-8.88,9.377-14.595,15.37-.231-10.021,2.445-20.667-11.687-19.5v-92m44.019,55.884c0-4.9.017-9.805-.006-14.708-.014-3.059-.936-6-4.333-6.182-6.809-.358-13.649-.172-20.475-.1a3.461,3.461,0,0,0-3.274,2.939c-.389,1.482.043,3.386,1.312,3.664,5.028,1.1,3.811,4.854,3.826,8.107q.046,9.98,0,19.961c-.006,1.985.573,4.113-2.632,4.6-1.8.275-2.8,2.158-2.364,4.115a3.652,3.652,0,0,0,3.686,3.142c8.579.03,17.157.034,25.735-.031a3.3,3.3,0,0,0,3.287-2.869c.328-1.457.139-3.371-1.168-3.717-4.658-1.235-3.541-4.78-3.579-7.9-.044-3.676-.011-7.354-.017-11.031M116.73,16.3c-1.754,0-3.509.056-5.261-.011-4.428-.168-6.459,1.985-6.394,6.351.053,3.506-.01,7.014.021,10.521.027,3.244,1.444,5.62,4.876,5.653,19.121.186,18.2,2.347,18.052-16.246,0-.175,0-.351-.009-.525-.272-3.734-2.1-5.822-6.024-5.749-1.753.034-3.507.006-5.261.005" transform="translate(4.602 0.416)" fill="#2ecedf"/>
        <path id="Trazado_718090" data-name="Trazado 718090" d="M36.151,207.751c-.514-3.234-2.574-4.252-5.63-4.17-3.155.084-6.317-.071-9.475-.121q-.013-6.8-.028-13.606c8.018-.027,16.037-.095,24.055-.062,3.032.012,6.023-.4,6.032-4.08s-2.981-4.138-6.011-4.128c-8.018.024-16.037-.023-24.055-.042q0-4.754-.007-9.508c8.075-.023,16.151-.1,24.226-.04,2.892.021,5.7-.44,5.87-3.762.188-3.7-2.716-4.38-5.831-4.375-8.075.015-16.151-.035-24.226-.059q-.013-4.811-.024-9.622c4.736-.025,9.471-.068,14.206-.071,2.853,0,4.9-1.044,4.8-4.2-.09-2.984-2.3-3.621-4.786-3.641-4.735-.039-9.471-.045-14.206-.065l.022-13.879c8.577-.063,17.155-.087,25.731-.222a6.914,6.914,0,0,1,4.656,1.864c8.01,6.3,12.177,13.655,11.066,24.6-1.2,11.786-.27,23.788-.27,35.7,0,9.24,0,9.338-9.133,9.3-3.306-.015-5.931.493-6.8,4.173l-10.185.02" transform="translate(1.151 7.236)" fill="#fddf76"/>
        <path id="Trazado_718091" data-name="Trazado 718091" d="M174.776,64.57c0-8.427-.047-16.854.017-25.28.042-5.543,1.707-7.214,7.227-7.248,9.481-.06,18.964.088,28.443-.074a9.538,9.538,0,0,1,7.9,3.265,61.615,61.615,0,0,0,5.963,5.947c2.9,2.476,4,5.419,3.946,9.244-.168,12.814-.028,25.631-.078,38.447-.025,6.5-1.629,8.111-8.093,8.135q-18.7.073-37.4,0c-6.418-.027-7.9-1.612-7.925-8.207-.028-8.075-.006-16.152-.006-24.227m19.181,24.22c7.685.056,15.377-.03,23.054.239,3.015.105,3.343-1.156,3.318-3.665-.11-11.357-.015-22.717-.066-34.075-.018-3.974-6.7-11.111-10.634-11.185-5.231-.1-10.467.131-15.7.219a55.776,55.776,0,0,1-5.739-.34c-4.576-.724-5.981.912-5.807,5.654.4,10.847.124,21.718.126,32.58,0,11.244,0,11.244,11.449,10.572" transform="translate(9.573 1.751)" fill="#070708"/>
        <path id="Trazado_718092" data-name="Trazado 718092" d="M207.4,133.382c0,5.439-.126,10.884.037,16.32.145,4.833-2.048,7.288-6.813,7.312q-16.586.082-33.173.005c-4.416-.016-6.827-2.085-6.8-6.763.069-11.231.031-22.464.021-33.695,0-4.348,2.234-6.481,6.486-6.493q16.848-.054,33.7,0c4.543.022,6.642,2.441,6.563,6.989-.1,5.439-.023,10.881-.022,16.322m-38.9-.565c0,4.694.111,8.558-.039,12.414-.1,2.519.37,3.84,3.377,3.775,8.068-.173,16.144-.084,24.216.01,2.266.026,3.6-.346,3.559-3.095-.129-8.245-.094-16.495-.021-24.741.02-2.273-.869-3.1-3.113-3.045-4.209.107-8.423-.027-12.634.04-4.89.08-11.376-1.583-14.25.894-3.353,2.889-.577,9.573-1.095,13.748" transform="translate(8.8 6.027)" fill="#050808"/>
        <path id="Trazado_718093" data-name="Trazado 718093" d="M97.449,224.657c-3.507,0-7.015-.024-10.522.005-4.329.036-6.571-2.213-6.64-6.4q-.179-11.045.007-22.094c.077-4.181,2.3-6.377,6.674-6.33,7.19.079,14.382.055,21.572.007,4.329-.027,6.525,2.019,6.528,6.36q.009,11.048,0,22.1c-.005,4.363-2.3,6.375-6.568,6.363-3.683-.011-7.367,0-11.05,0m-1.536-26.6c-7.586-.958-7.587-.958-7.588,6.3q0,2.862,0,5.722c0,7.275,0,7.275,7.529,6.309,11.44.856,11.44.856,11.44-8.947,0-10.608,0-10.608-11.381-9.38" transform="translate(4.393 10.398)" fill="#070708"/>
        <path id="Trazado_718094" data-name="Trazado 718094" d="M182.428,195.625c2,1.854,4.108,3.606,5.969,5.589,2.178,2.32,4.45,3.058,7.244,1.225q3.462,3.672,6.926,7.342c-1.559,2.955-.543,5.165,1.734,7.348,5.02,4.81,9.875,9.793,14.78,14.723,5,5.029,5,6.359-.105,11.438-1.221,1.215-2.572,2.3-3.864,3.447C204.921,235.1,193.481,224.7,182.64,213.7c-7.787-7.9-9.226-8.96-.717-17.159a3.586,3.586,0,0,0,.505-.917" transform="translate(9.648 10.716)" fill="#2ecedf"/>
        <path id="Trazado_718095" data-name="Trazado 718095" d="M28.049,8.175c15.135,0,15.074,0,15.152,15.3.083,16.436.7,15.764-15.826,15.685-15.172-.074-15.074-.017-15.2-15.3C12.043,7.456,11.8,7.971,28.049,8.175m-1.2,22.851c8.365.37,8.365.37,8.365-7.28,0-7.723,0-7.723-8.38-7.236-3.3-.215-6.867-1.744-6.65,4.377.368,10.464.021,10.476,6.665,10.139" transform="translate(0.666 0.445)" fill="#0b0b0a"/>
        <path id="Trazado_718096" data-name="Trazado 718096" d="M64.018,63.968c.071,10.181.16,20.362.2,30.543.04,8.931,1.706,10.579,10.841,10.583,3.513,0,7.053.272,10.532-.074,3.675-.365,4.462,1.17,4.21,4.437a74.389,74.389,0,0,0,.032,9.477c.142,2.824,1.4,5.14,4.226,6.083a6.618,6.618,0,0,0,7.256-1.678q7.791-7.855,15.649-15.642c2.048-2.041,12.412-3.838,14.816-2.528,1.873,1.021.94,2.847.918,4.269-.377,23.794-18.37,45.414-41.768,50.452-5.914,1.272-11.837,1.22-17.817,1.038-3.195-.1-4.56-1.436-3.982-4.539,2.649-14.222-9.607-19.316-16.847-27.452-1.244-1.4-3.383-.57-5.049-1.064-3.04-7.247-3.4-14.84-3.27-22.585.3-16.929,6.887-30.69,20.049-41.32" transform="translate(2.407 3.504)" fill="#d6eafc"/>
        <path id="Trazado_718097" data-name="Trazado 718097" d="M84.731,7.9v92c-13.838,1.166-13.838,1.166-13.838-12.4,0-24.852.12-49.705-.11-74.556-.043-4.491,1.283-5.926,5.578-5.373,2.757.355,5.577.234,8.37.327" transform="translate(3.877 0.408)" fill="#03bdd6"/>
        <path id="Trazado_718098" data-name="Trazado 718098" d="M64.993,64.36C51.831,74.99,45.241,88.751,44.944,105.68c-.135,7.745.23,15.337,3.27,22.585-4.893.074-9.795.005-14.677.276-2.636.146-3.555-1.052-4.391-3.31-9.772-26.363,5.253-58.309,31.908-67.8,2.924-1.041,4.714-1.166,4.171,2.757-.191,1.376-.16,2.783-.231,4.176" transform="translate(1.432 3.112)" fill="#b0d6f9"/>
        <path id="Trazado_718099" data-name="Trazado 718099" d="M78.421,176.287A37.253,37.253,0,0,0,72.48,176c-4.136.308-4.917-1.634-4.768-5.319.129-3.181.384-4.529,4.3-4.069,31.263,3.671,61.715-19.613,66.58-50.664.407-2.6.729-5.215.92-7.836.344-4.724,3.152-6.56,7.72-5.12,2.308.727,1.534,2.486,1.517,3.884-.422,35.628-29.3,66.39-64.723,68.991-1.4.1-2.8.211-5.609.422" transform="translate(3.708 5.615)" fill="#00eaa1"/>
        <path id="Trazado_718100" data-name="Trazado 718100" d="M22.56,129.434a53.407,53.407,0,0,0-5.689.036c-3.078.354-4.138-1.023-4.893-3.94C2.649,89.509,25.007,50.8,61.189,40.669c1.572-.44,4.348-2.213,4.6.556.25,2.7,2.605,6.8-2.431,8.347A60.315,60.315,0,0,0,32.88,70.132c-13.875,17.622-16.652,37.318-10.32,59.3" transform="translate(0.54 2.175)" fill="#00eaa1"/>
        <path id="Trazado_718101" data-name="Trazado 718101" d="M21.778,172.04q0,4.754.008,9.508c-4.232,3.581-4.235,4.676-.021,8.314l.028,13.6c-14.346.754-14.346.754-14.346-13.529,0-17.678.127-35.358-.1-53.034-.051-4.033,1.175-5.3,5.056-4.86,3.113.35,6.281.206,9.424.281L21.81,146.2c-4.281,3.378-4.283,4.427-.016,7.979q.011,4.811.023,9.622c-4.3,3.474-4.3,4.582-.039,8.237" transform="translate(0.403 7.228)" fill="#f0b943"/>
        <path id="Trazado_718102" data-name="Trazado 718102" d="M183.171,195.9a3.585,3.585,0,0,1-.505.917c-8.509,8.2-7.071,9.26.717,17.159,10.841,10.995,22.281,21.4,32.471,33.036-4.916,5.73-6.413,5.82-11.661.58-13.271-13.249-26.459-26.581-39.847-39.71-2.366-2.319-2.357-3.584.057-5.678a60.745,60.745,0,0,0,8.514-8.561c3.269-4.248,5.851-3.841,8.634.229.486.713,1.077,1.354,1.619,2.028" transform="translate(8.906 10.442)" fill="#03bdd6"/>
        <path id="Trazado_718103" data-name="Trazado 718103" d="M133.711,154.774c.907.86,1.552,1.444,2.167,2.058,5.811,5.8,11.44,11.8,17.495,17.335,3.116,2.848.85,4.087-.917,5.542s-2.9,5.156-6.324,1.342c-5.248-5.838-11.085-11.144-16.544-16.8-.86-.89-3.394-1.525-1.7-3.544,1.757-2.1,3.835-3.929,5.829-5.933" transform="translate(6.974 8.478)" fill="#87b8d2"/>
        <path id="Trazado_718104" data-name="Trazado 718104" d="M161.672,194.822c-4.6,5.341-8.218,4.937-11.5-1.179-1.012-1.886.091-2.91,1.2-4.027,3.434-3.443,6.918-6.838,10.305-10.325,1.991-2.05,3.721-2.488,5.3.364-1.344,2.759-4.041,4.324-5.871,6.642-2.331,2.952-2.98,5.9.557,8.526" transform="translate(8.204 9.73)" fill="#b9d6f1"/>
        <path id="Trazado_718105" data-name="Trazado 718105" d="M161.183,194.717c-3.537-2.621-2.888-5.573-.557-8.526,1.83-2.318,4.527-3.883,5.871-6.642.9.779,1.765,1.615,2.718,2.326,2.221,1.655,2.611,3.092.166,5.095-2.9,2.376-5.48,5.147-8.2,7.747" transform="translate(8.693 9.835)" fill="#d6eafc"/>
        <path id="Trazado_718106" data-name="Trazado 718106" d="M127.209,61.952c0,3.677-.032,7.355.014,11.031.038,3.116-1.08,6.662,3.579,7.9,1.306.346,1.495,2.26,1.167,3.717a3.294,3.294,0,0,1-3.287,2.869c-8.577.065-17.157.06-25.734.031a3.652,3.652,0,0,1-3.687-3.142c-.437-1.957.567-3.839,2.364-4.115,3.2-.49,2.625-2.618,2.632-4.6q.033-9.98,0-19.961c-.015-3.253,1.2-7-3.826-8.107-1.269-.278-1.7-2.182-1.312-3.664a3.459,3.459,0,0,1,3.274-2.938c6.827-.076,13.667-.261,20.476.1,3.4.177,4.318,3.124,4.333,6.182.022,4.9.005,9.805.009,14.708m-8.088,2.374c0-4.195-.13-8.394.047-12.581.11-2.6-.909-3.287-3.349-3.2-2.167.08-3.674.193-3.635,3.01.117,8.387.153,16.779-.015,25.165-.064,3.217,1.732,3.021,3.981,3.177,2.9.2,3.046-1.344,3-3.516-.091-4.018-.026-8.038-.026-12.058" transform="translate(5.422 2.238)" fill="#050808"/>
        <path id="Trazado_718107" data-name="Trazado 718107" d="M115.636,15.847c1.754,0,3.508.027,5.261-.005,3.922-.075,5.752,2.014,6.024,5.747.013.174.008.35.009.525.146,18.593,1.068,16.431-18.052,16.246-3.432-.033-4.849-2.408-4.876-5.653-.031-3.507.032-7.014-.021-10.521-.065-4.365,1.966-6.519,6.394-6.351,1.752.066,3.507.011,5.261.012m3.358,12.638c-.278-2.728.661-5.185-2.939-5-2.465.129-4.492-.047-4.234,3.448.17,2.286.054,4.134,3.258,3.85,2.162-.192,4.438.263,3.914-2.3" transform="translate(5.696 0.867)" fill="#050808"/>
        <path id="Trazado_718108" data-name="Trazado 718108" d="M21.195,170.387c-4.261-3.655-4.256-4.762.039-8.237,8.075.024,16.151.074,24.226.059,3.115-.005,6.019.679,5.831,4.375-.169,3.323-2.977,3.783-5.87,3.763-8.074-.059-16.151.017-24.226.039" transform="translate(0.986 8.882)" fill="#110f08"/>
        <path id="Trazado_718109" data-name="Trazado 718109" d="M21.181,187.287c-4.214-3.638-4.211-4.732.021-8.314,8.018.019,16.037.068,24.055.043,3.03-.01,6.021.458,6.011,4.128s-3,4.091-6.033,4.079c-8.017-.032-16.036.036-24.054.063" transform="translate(0.987 9.803)" fill="#110f08"/>
        <path id="Trazado_718110" data-name="Trazado 718110" d="M21.21,153.442c-4.268-3.552-4.266-4.6.016-7.978,4.736.019,9.471.026,14.207.064,2.488.021,4.7.657,4.784,3.642.094,3.158-1.949,4.2-4.8,4.2-4.735,0-9.47.045-14.2.07" transform="translate(0.987 7.968)" fill="#070708"/>
        <path id="Trazado_718111" data-name="Trazado 718111" d="M192.933,39.9c5.234-.089,10.47-.316,15.7-.219,3.931.074,10.616,7.21,10.634,11.185.052,11.358-.043,22.718.066,34.075.024,2.509-.3,3.771-3.318,3.665-7.678-.269-15.369-.184-23.054-.239q0-3.618-.011-7.236c5.053-.072,10.107-.156,15.16-.21,2.95-.032,5.406-.936,5.249-4.343-.142-3.073-2.506-3.8-5.237-3.8-5.054-.006-10.109-.109-15.165-.172q-.011-2.119-.023-4.236c5.052-.089,10.1-.2,15.156-.255,2.947-.032,5.439-.884,5.285-4.3-.138-3.058-2.488-3.794-5.241-3.781-5.057.023-10.114-.085-15.171-.139q.008-2.289.016-4.577c2.776-.034,5.554-.008,8.327-.118,2.318-.092,4.144-1.094,4.218-3.645.079-2.732-1.582-4.08-4.242-4.173-2.771-.1-5.546-.12-8.319-.176Z" transform="translate(10.568 2.172)" fill="#d6eafc"/>
        <path id="Trazado_718112" data-name="Trazado 718112" d="M193.551,81.146q0,3.618.011,7.236c-11.449.671-11.449.671-11.449-10.572,0-10.862.271-21.734-.126-32.58-.174-4.741,1.231-6.377,5.807-5.654a55.777,55.777,0,0,0,5.739.34q.016,3.65.033,7.3c-2.658.238-5.362.566-5.386,4.095-.024,3.622,2.768,3.789,5.4,4.017l-.016,4.578c-2.66.286-5.335.661-5.4,4.177-.065,3.635,2.936,3.661,5.369,4.3q.013,2.119.023,4.237c-2.607.385-5.369.7-5.384,4.236-.015,3.557,2.839,3.787,5.376,4.293" transform="translate(9.968 2.159)" fill="#b9d6f1"/>
        <path id="Trazado_718113" data-name="Trazado 718113" d="M168.118,132.419c.518-4.175-2.258-10.859,1.095-13.748,2.874-2.478,9.36-.814,14.25-.894,4.211-.068,8.426.066,12.634-.04,2.243-.057,3.133.772,3.113,3.045-.073,8.246-.108,16.5.021,24.741.042,2.749-1.293,3.121-3.559,3.095-8.071-.094-16.148-.182-24.216-.01-3.007.065-3.475-1.256-3.377-3.775.15-3.855.039-7.72.039-12.414" transform="translate(9.176 6.425)" fill="#00eaa1"/>
        <path id="Trazado_718114" data-name="Trazado 718114" d="M95.1,197.66c11.381-1.228,11.381-1.228,11.381,9.38,0,9.8,0,9.8-11.44,8.947q.03-9.162.059-18.327" transform="translate(5.206 10.797)" fill="#f9626d"/>
        <path id="Trazado_718115" data-name="Trazado 718115" d="M95.491,197.655q-.03,9.164-.059,18.327c-7.528.966-7.528.966-7.529-6.309q0-2.861,0-5.722c0-7.254,0-7.254,7.588-6.3" transform="translate(4.815 10.802)" fill="#ed4451"/>
        <path id="Trazado_718116" data-name="Trazado 718116" d="M26.075,16.083c8.38-.487,8.38-.487,8.38,7.236,0,7.65,0,7.65-8.365,7.28q-.008-7.257-.015-14.516" transform="translate(1.428 0.871)" fill="#fddf76"/>
        <path id="Trazado_718117" data-name="Trazado 718117" d="M26.421,16.091q.008,7.257.015,14.516c-6.644.338-6.3.325-6.666-10.139-.215-6.121,3.355-4.594,6.651-4.377" transform="translate(1.082 0.864)" fill="#f0b943"/>
        <path id="Trazado_718118" data-name="Trazado 718118" d="M118.437,63.927c0,4.02-.065,8.041.026,12.058.05,2.172-.1,3.718-3,3.516-2.249-.156-4.046.04-3.982-3.177.169-8.385.133-16.778.016-25.165-.039-2.817,1.468-2.93,3.635-3.01,2.44-.09,3.459.6,3.349,3.2-.177,4.187-.047,8.387-.047,12.581" transform="translate(6.107 2.637)" fill="#f6f8f9"/>
        <path id="Trazado_718119" data-name="Trazado 718119" d="M118.589,28.088c.524,2.563-1.752,2.108-3.914,2.3-3.2.284-3.088-1.564-3.258-3.85-.258-3.5,1.769-3.319,4.234-3.448,3.6-.188,2.66,2.27,2.939,5" transform="translate(6.102 1.264)" fill="#d6eafc"/>
        <path id="Trazado_718120" data-name="Trazado 718120" d="M193.229,79.422c-2.537-.506-5.391-.736-5.376-4.293.015-3.536,2.776-3.851,5.384-4.236,5.056.062,10.11.166,15.165.172,2.732,0,5.095.732,5.237,3.8.158,3.406-2.3,4.311-5.249,4.341-5.053.055-10.107.139-15.16.211" transform="translate(10.29 3.883)" fill="#0b0b0a"/>
        <path id="Trazado_718121" data-name="Trazado 718121" d="M193.215,67.316c-2.433-.636-5.435-.663-5.37-4.3.063-3.517,2.738-3.892,5.4-4.178,5.056.054,10.112.162,15.169.139,2.754-.013,5.1.724,5.242,3.781.154,3.416-2.338,4.268-5.287,4.3-5.051.055-10.1.167-15.154.254" transform="translate(10.289 3.223)" fill="#0b0b0a"/>
        <path id="Trazado_718122" data-name="Trazado 718122" d="M193.258,54.923c-2.633-.229-5.425-.4-5.4-4.018.023-3.527,2.728-3.855,5.385-4.095,2.773.056,5.548.08,8.319.176,2.66.093,4.321,1.442,4.242,4.173-.074,2.552-1.9,3.555-4.218,3.646-2.773.11-5.551.084-8.327.117" transform="translate(10.29 2.564)" fill="#070708"/>
      </g>
    </g>
  </g>
</svg>
