<svg xmlns="http://www.w3.org/2000/svg" xmlns:xlink="http://www.w3.org/1999/xlink" width="116.999" height="115" viewBox="0 0 116.999 115">
  <defs>
    <clipPath id="clip-path">
      <rect id="Rect치ngulo_350176" data-name="Rect치ngulo 350176" width="64.311" height="64.372" fill="none"/>
    </clipPath>
  </defs>
  <g id="Grupo_1018032" data-name="Grupo 1018032" transform="translate(-1162 -3318.564)">
    <g id="Grupo_1017422" data-name="Grupo 1017422" transform="translate(736.563 -4179.906)">
      <g id="Grupo_1015374" data-name="Grupo 1015374" transform="translate(425.927 7498.205)">
        <g id="Grupo_1015448" data-name="Grupo 1015448" transform="translate(0 0)">
          <g id="Grupo_1014855" data-name="Grupo 1014855" transform="translate(0 0)">
            <path id="Uni칩n_12" data-name="Uni칩n 12" d="M58.5,0C90.809,0,117,25.744,117,57.5S90.809,115,58.5,115,0,89.256,0,57.5,26.192,0,58.5,0Z" transform="translate(-0.49 0.265)" fill="#81c539"/>
            <path id="Trazado_608322" data-name="Trazado 608322" d="M49,0C76.062,0,98,22.162,98,49.5S76.062,99,49,99,0,76.838,0,49.5,21.938,0,49,0Z" transform="translate(9.51 7.265)" fill="#fff"/>
          </g>
        </g>
      </g>
    </g>
    <g id="Grupo_1017413" data-name="Grupo 1017413" transform="translate(1188.345 3343.879)">
      <g id="Grupo_1017412" data-name="Grupo 1017412" clip-path="url(#clip-path)">
        <path id="Trazado_718335" data-name="Trazado 718335" d="M0,34.379A30.041,30.041,0,0,1,31.867,4.471,5.868,5.868,0,0,0,35.861,3.36C41.892-.672,48.309-1.13,54.707,2.288c6.351,3.393,9.529,8.943,9.6,16.145.033,3.195-1.236,6.119-2.735,8.851a13.05,13.05,0,0,0-1.587,6.8A29.943,29.943,0,0,1,.3,37.841C.172,36.69.1,35.533,0,34.379M5.915,47.932c0,.044-.021.1,0,.132C10.4,55.943,17.235,60.4,26.083,61.936c.6.1.708-.159.785-.716.225-1.619-.5-2.93-1.174-4.289a3.1,3.1,0,0,1,.811-4.185c.729-.655,1.568-1.2,2.231-1.913a7.7,7.7,0,0,1,6.917-2.578c2,.219,2.127-.051,2.427-2.078.2-1.364.278-2.786,1.553-3.69.483-.342.147-.6-.044-.873q-2.689-3.9-5.381-7.806a91.427,91.427,0,0,1-4.859-9.355c-2.5-5.964-1.566-11.483,1.968-16.722.222-.33.725-.579.5-1.136a28.085,28.085,0,0,0-7.324.488c-.642.115-.934.395-.862,1.067a10.8,10.8,0,0,1,.008,1.337,3.169,3.169,0,0,1-3,3.444,1.288,1.288,0,0,0-1.288,1.5q.031,2.341,0,4.682a3.239,3.239,0,0,1-3.52,3.476c-1.293.014-2.587-.006-3.879.012a1.015,1.015,0,0,0-1.132,1.053c0,.686.448,1.032,1.12,1.069.311.017.624.008.936.008,3.211,0,6.422-.024,9.632.008a5.328,5.328,0,0,1,5.412,5.435c.018,1.07.027,2.141,0,3.21A5.355,5.355,0,0,1,22.6,38.66c-1.928.057-4.256,2.524-4.288,4.545-.011,2.588.014,5.176-.046,7.762-.044,1.847-1.919,2.948-3.275,1.851-1.61-1.3-3.3-2.645-3.477-5.009a9.688,9.688,0,0,0-.42-1.668.938.938,0,0,0-.976-1.03c-1.865-.037-3.731-.013-5.786-.013a11.13,11.13,0,0,0,1.581,2.834M54.741,4.855a8.3,8.3,0,0,0-.75-.541A16.038,16.038,0,0,0,36.052,5.8a15.215,15.215,0,0,0-5.161,16.652,43.324,43.324,0,0,0,4.828,9.511A133.4,133.4,0,0,0,45.5,45.813c.516.657.753.63,1.26-.008,2.083-2.617,4.089-5.29,5.992-8.039A76.932,76.932,0,0,0,61.213,22.94c2.917-7.219-1.348-15.253-6.472-18.085m-38.6,46.021c0-2.052.112-3.961-.028-5.851a8.059,8.059,0,0,1,2.023-6.249c1.211-1.4,2.328-2.424,4.348-2.3A3.1,3.1,0,0,0,25.77,33.2c.027-.846.009-1.694,0-2.541C25.763,28.1,24.557,26.887,22,26.882c-3.344-.007-6.688.015-10.032-.009a3.211,3.211,0,1,1-.031-6.418c1.248-.023,2.5-.029,3.745,0,1.073.027,1.55-.446,1.53-1.523-.03-1.6.009-3.21-.013-4.815a3.058,3.058,0,0,1,.925-2.283,3.445,3.445,0,0,1,2.236-1.051,1.638,1.638,0,0,0,1.087-2.4c-.351-.762-.989-.118-1.421.047a26.324,26.324,0,0,0-11.113,7.88C2.638,23.922.8,32.549,3.313,42.1a.979.979,0,0,0,1.124.854c1.559-.042,3.121-.013,4.681-.013,2.891,0,3.892.765,4.317,3.587a5.758,5.758,0,0,0,2.7,4.348M30.883,62.26c.8-.088,1.593-.16,2.387-.266,9.761-1.3,16.913-6.367,21.583-15,.164-.3.413-.735.311-.974-.324-.76-.6-1.824-1.5-1.9-1.1-.095-2.384-.675-3.319.576-.96,1.284-1.963,2.537-2.978,3.779s-1.494,1.224-2.515-.029c-.984-1.209-1.922-2.457-2.909-3.663-.222-.272-.333-.825-.884-.6a1.1,1.1,0,0,0-.615.964q-.2,1.251-.458,2.494c-.38,1.84-1.517,2.991-3.343,2.753a8.106,8.106,0,0,0-7.439,2.874,6,6,0,0,1-1.029.85,1.443,1.443,0,0,0-.439,2.179,7.508,7.508,0,0,1,1.288,4.126c-.105,1.915-.46,1.8,1.852,1.84m21.666-20.4a3.935,3.935,0,0,1,3.338,1.127c.382.423.568.242.711-.213a26.859,26.859,0,0,0,1.3-8.74l-5.345,7.826" transform="translate(0 0)" fill="#262223"/>
        <path id="Trazado_718336" data-name="Trazado 718336" d="M22.215,72.777a5.759,5.759,0,0,1-2.7-4.348c-.425-2.821-1.426-3.586-4.317-3.587-1.56,0-3.122-.029-4.681.013A.979.979,0,0,1,9.392,64C6.875,54.45,8.717,45.823,15,38.209a26.324,26.324,0,0,1,11.113-7.88c.432-.165,1.07-.809,1.421-.047a1.638,1.638,0,0,1-1.087,2.4,3.447,3.447,0,0,0-2.236,1.051,3.058,3.058,0,0,0-.925,2.283c.021,1.6-.017,3.211.013,4.815.02,1.077-.457,1.55-1.53,1.523-1.247-.031-2.5-.025-3.745,0a3.211,3.211,0,1,0,.031,6.418c3.344.024,6.688,0,10.032.009,2.555.005,3.761,1.219,3.772,3.776,0,.847.022,1.695,0,2.541a3.1,3.1,0,0,1-3.292,3.273c-2.02-.121-3.136.9-4.348,2.3a8.059,8.059,0,0,0-2.023,6.249c.14,1.89.028,3.8.028,5.851" transform="translate(-6.079 -21.901)" fill="#5daa24"/>
        <path id="Trazado_718337" data-name="Trazado 718337" d="M152.334,18.117c5.123,2.833,9.389,10.866,6.472,18.086a76.929,76.929,0,0,1-8.459,14.826c-1.9,2.749-3.908,5.422-5.992,8.039-.508.638-.744.664-1.26.007a133.354,133.354,0,0,1-9.783-13.855c.618-.023.884-.55,1.27-.9a54.663,54.663,0,0,1,4.435-4.221l1.244.462a9.639,9.639,0,0,0,13.092-9.375,9.965,9.965,0,0,0-3.786-7.359c1.336-1.7,1.751-3.854,2.768-5.714" transform="translate(-97.593 -13.263)" fill="#cd1820"/>
        <path id="Trazado_718338" data-name="Trazado 718338" d="M50.341,126.176q2.691,3.9,5.38,7.806c.191.278.527.531.044.873-1.276.9-1.351,2.326-1.553,3.69-.3,2.027-.426,2.3-2.427,2.078a7.7,7.7,0,0,0-6.917,2.578c-.663.713-1.5,1.258-2.231,1.913a3.1,3.1,0,0,0-.811,4.185c.676,1.359,1.4,2.67,1.174,4.289-.078.557-.19.82-.785.716-8.848-1.536-15.686-5.994-20.171-13.872-.018-.033,0-.088,0-.132.142-.427.536-.39.868-.488,1.44-.425,2.875-.867,4.313-1.3a9.665,9.665,0,0,1,.419,1.667c.175,2.364,1.867,3.707,3.477,5.009,1.357,1.1,3.232,0,3.275-1.85.061-2.586.035-5.175.046-7.762a4.745,4.745,0,0,0,2.129-.683,77,77,0,0,0,7.584-4.39c2.086-1.4,4.122-2.881,6.181-4.325" transform="translate(-16.132 -92.369)" fill="#4b8fdd"/>
        <path id="Trazado_718339" data-name="Trazado 718339" d="M105.84,182.22c-2.312-.042-1.958.075-1.852-1.84a7.508,7.508,0,0,0-1.288-4.126,1.444,1.444,0,0,1,.439-2.179,6.013,6.013,0,0,0,1.029-.85,8.105,8.105,0,0,1,7.439-2.874c1.825.238,2.963-.913,3.343-2.753q.256-1.241.458-2.494a1.1,1.1,0,0,1,.614-.964c.551-.221.662.332.884.6.987,1.207,1.925,2.454,2.909,3.663,1.021,1.254,1.509,1.26,2.515.029s2.018-2.495,2.978-3.779c.935-1.251,2.222-.671,3.319-.576.9.078,1.171,1.141,1.5,1.9.1.239-.147.671-.311.974-4.67,8.629-11.823,13.692-21.583,15-.793.106-1.591.178-2.387.267" transform="translate(-74.957 -119.96)" fill="#7dd43e"/>
        <path id="Trazado_718340" data-name="Trazado 718340" d="M123.733,32.973a54.659,54.659,0,0,0-4.435,4.22c-.385.348-.652.875-1.27.9A43.319,43.319,0,0,1,113.2,28.58a15.215,15.215,0,0,1,5.161-16.652A16.038,16.038,0,0,1,136.3,10.447a8.4,8.4,0,0,1,.75.541c-1.016,1.859-1.432,4.009-2.767,5.713-.464-.264-.915-.553-1.393-.789a9.183,9.183,0,0,0-10.306.921,9.21,9.21,0,0,0-3.48,9.99,10.36,10.36,0,0,0,4.629,6.15" transform="translate(-82.31 -6.134)" fill="#ea1c24"/>
        <path id="Trazado_718341" data-name="Trazado 718341" d="M63.763,51.626c-2.059,1.444-4.095,2.921-6.181,4.325A77,77,0,0,1,50,60.341a4.745,4.745,0,0,1-2.129.683c.032-2.021,2.36-4.489,4.288-4.545a5.355,5.355,0,0,0,5.312-5.272c.031-1.069.021-2.141,0-3.21a5.328,5.328,0,0,0-5.412-5.435c-3.21-.032-6.421-.008-9.632-.008-.312,0-.625.01-.936-.007-.673-.038-1.124-.384-1.121-1.069A1.015,1.015,0,0,1,41.5,40.424c1.293-.018,2.586,0,3.879-.012a3.239,3.239,0,0,0,3.52-3.477q.027-2.341,0-4.682a1.288,1.288,0,0,1,1.288-1.5,3.169,3.169,0,0,0,3-3.444,10.849,10.849,0,0,0-.007-1.337c-.073-.673.22-.952.861-1.068a28.088,28.088,0,0,1,7.324-.488c.229.557-.274.807-.5,1.136-3.535,5.239-4.465,10.759-1.968,16.722a91.4,91.4,0,0,0,4.859,9.355" transform="translate(-29.554 -17.819)" fill="#56a2fc"/>
        <path id="Trazado_718342" data-name="Trazado 718342" d="M196.129,134.835l5.345-7.826a26.859,26.859,0,0,1-1.3,8.74c-.144.455-.33.635-.711.213a3.936,3.936,0,0,0-3.338-1.127" transform="translate(-143.58 -92.979)" fill="#4a8cd8"/>
        <path id="Trazado_718343" data-name="Trazado 718343" d="M22.938,169.34c-1.437.436-2.873.877-4.313,1.3-.333.1-.726.061-.868.488a11.108,11.108,0,0,1-1.582-2.834c2.055,0,3.921-.023,5.786.013a.938.938,0,0,1,.976,1.03" transform="translate(-11.842 -123.199)" fill="#56a2fc"/>
        <path id="Trazado_718344" data-name="Trazado 718344" d="M141.1,50.395a10.361,10.361,0,0,1-4.629-6.15A9.647,9.647,0,0,1,150.26,33.334c.478.236.929.525,1.393.789a9.965,9.965,0,0,1,3.785,7.359,9.639,9.639,0,0,1-13.092,9.374l-1.244-.462m1.5-1.851a7.412,7.412,0,0,0,8.042-12.326,7.443,7.443,0,0,0-12.3,5.793,6.87,6.87,0,0,0,4.254,6.534" transform="translate(-99.679 -23.555)" fill="#272022"/>
        <path id="Trazado_718345" data-name="Trazado 718345" d="M148.555,54.422a6.87,6.87,0,0,1-4.254-6.534A7.443,7.443,0,0,1,156.6,42.1a5.443,5.443,0,0,1-.856,1.941,81.427,81.427,0,0,1-7.186,10.385" transform="translate(-105.636 -29.434)" fill="#cfe4f5"/>
        <path id="Trazado_718346" data-name="Trazado 718346" d="M160.184,59.583A81.43,81.43,0,0,0,167.37,49.2a5.444,5.444,0,0,0,.856-1.941,7.412,7.412,0,0,1-8.042,12.326" transform="translate(-117.265 -34.595)" fill="#b5c7d6"/>
      </g>
    </g>
  </g>
</svg>
