<svg xmlns="http://www.w3.org/2000/svg" xmlns:xlink="http://www.w3.org/1999/xlink" width="159.352" height="159.352" viewBox="0 0 159.352 159.352">
  <defs>
    <clipPath id="clip-path">
      <rect id="Rectángulo_349884" data-name="Rectángulo 349884" width="84.354" height="84.364" fill="none"/>
    </clipPath>
  </defs>
  <g id="Grupo_1018013" data-name="Grupo 1018013" transform="translate(-720 -5087.669)">
    <circle id="Elipse_5863" data-name="Elipse 5863" cx="79.676" cy="79.676" r="79.676" transform="translate(720 5087.669)" fill="#01d8d1"/>
    <g id="Grupo_1016910" data-name="Grupo 1016910" transform="translate(757.822 5124.786)">
      <g id="Grupo_1016909" data-name="Grupo 1016909" clip-path="url(#clip-path)">
        <path id="Trazado_717018" data-name="Trazado 717018" d="M39.5,10.4c0,2.25.019,4.5-.006,6.751a2.988,2.988,0,0,1-2.535,3.323c-8.515,2.4-13.991,7.821-16.3,16.4A3.032,3.032,0,0,1,17.237,39.5q-6.751.03-13.5,0C1.255,39.483.123,38,.513,35.506A41.071,41.071,0,0,1,3.408,25.432c.33-.759.283-1.084-.484-1.518A5.638,5.638,0,0,1,0,18.584C.029,14.413-.008,10.241.014,6.07.033,2.375,2.394.034,6.108.018,10.224,0,14.341.049,18.457,0a5.717,5.717,0,0,1,5.478,2.956c.434.774.774.663,1.4.38A42.245,42.245,0,0,1,34.9.434c3.289-.615,4.6.5,4.6,3.87q0,3.046,0,6.093M21.8,28.038a34.685,34.685,0,0,1,6.215-6.275A27.573,27.573,0,0,1,36.2,18.126c.613-.135.771-.5.77-1.055q-.01-6.724,0-13.447c0-.679-.188-1.01-.962-.851a32.008,32.008,0,0,0-7.682,2.138c-.568.191-1.124.429-1.7.565-1.613.38-2.033,1.353-1.963,2.977.145,3.34.058,6.691.04,10.037-.021,3.79-2.386,6.179-6.147,6.207-2.907.022-5.815,0-8.722,0-3.675,0-3.675,0-4.827,3.489a.575.575,0,0,0,0,.164A31.532,31.532,0,0,0,2.98,35.784c-.146.8,0,1.207.964,1.2,4.392-.039,8.785-.027,13.177-.007.643,0,1-.171,1.151-.845A28.088,28.088,0,0,1,21.8,28.038M2.538,12.374c0,2.085,0,4.171,0,6.256a3.315,3.315,0,0,0,.306,1.761c.161.267.384.629.634.68.389.079.443-.392.588-.671a8.784,8.784,0,0,1,3.1-3.554c.751-.469.814-.755.212-1.456a6.22,6.22,0,0,1-1.216-6.6,6.261,6.261,0,0,1,5.868-4.306,6.186,6.186,0,0,1,6.1,3.442,6.217,6.217,0,0,1-.642,7.234c-.655.832-.779,1.208.211,1.822a8.351,8.351,0,0,1,2.726,3.032c.226.391.232,1.172.84,1.033.516-.118.7-.79.812-1.339a4.306,4.306,0,0,0,.07-.819c0-4.335.029-8.671-.006-13.006a3.007,3.007,0,0,0-3.248-3.327q-6.5-.073-13.006,0c-2.178.02-3.3,1.195-3.341,3.4-.038,2.14-.008,4.281-.009,6.421m13.938-1.335a4.121,4.121,0,1,0-8.242.067,4.089,4.089,0,0,0,4.228,4.078,4.132,4.132,0,0,0,4.015-4.145m-4.15,11.128c1.756,0,3.512-.025,5.266.01.94.019,1.042-.307.591-1.05a6.477,6.477,0,0,0-5.809-3.4,6.483,6.483,0,0,0-5.84,3.342c-.561.906-.231,1.12.69,1.1,1.7-.033,3.4-.009,5.1-.01" transform="translate(0 0)" fill="#090707"/>
        <path id="Trazado_717019" data-name="Trazado 717019" d="M136.052,165.215c0-2.25-.017-4.5,0-6.751.02-2.006.681-2.822,2.64-3.4,8.4-2.468,13.874-7.831,16.182-16.338.525-1.934,1.421-2.644,3.407-2.653q6.751-.028,13.5,0c2.513.013,3.653,1.462,3.263,3.945a40.331,40.331,0,0,1-2.891,10.073c-.387.876-.2,1.18.57,1.626a5.482,5.482,0,0,1,2.816,5.055c0,4.281.022,8.562-.007,12.843a5.689,5.689,0,0,1-5.889,5.939c-4.281.037-8.562.009-12.842.009a5.469,5.469,0,0,1-5.07-2.789c-.479-.836-.865-.865-1.654-.5a40.221,40.221,0,0,1-9.565,2.883c-3.137.576-4.46-.525-4.466-3.684,0-2.086,0-4.171,0-6.257m11.077-11.105-.036-.038a28.536,28.536,0,0,1-7.644,3.339c-.694.16-.863.523-.861,1.15q.016,6.668,0,13.335c0,.63.084,1.062.92.9a31.485,31.485,0,0,0,7.715-2.135c.567-.19,1.123-.428,1.7-.562,1.619-.374,2.042-1.348,1.969-2.973-.146-3.23-.047-6.472-.042-9.709.007-4.244,2.265-6.531,6.463-6.543,2.8-.008,5.6,0,8.394,0,3.678,0,3.678,0,4.838-3.477a.587.587,0,0,0,.006-.164,32.67,32.67,0,0,0,2.014-7.395c.176-.922-.114-1.252-1.087-1.242-4.317.042-8.634.03-12.952.006-.691,0-1.112.149-1.279.9a27.439,27.439,0,0,1-3.552,8.043,35.222,35.222,0,0,1-6.176,6.234l-.4.338m25.89,9.039c0-2.03.019-4.06,0-6.09-.029-2.507-1.123-3.624-3.614-3.639q-6.172-.039-12.344,0c-2.514.014-3.635,1.12-3.648,3.6q-.033,6.254.006,12.509a5.829,5.829,0,0,0,.255,1.607c.1.338.255.781.71.8.423.018.445-.434.58-.7a8.124,8.124,0,0,1,2.989-3.432c.986-.6.773-.953.164-1.7a6.576,6.576,0,1,1,10.906-7.246,6.039,6.039,0,0,1-.606,7.079c-.837,1.025-.724,1.387.3,2.041a7.83,7.83,0,0,1,2.655,3.086c.176.34.218,1.036.784.845.324-.109.594-.645.707-1.04a6.165,6.165,0,0,0,.155-1.63c.015-2.03.006-4.06.006-6.09m-5.7-1.232a4.121,4.121,0,1,0-8.241.057,4.121,4.121,0,0,0,8.241-.057m-4.048,11.147c1.7,0,3.4-.026,5.1.01,1.055.022,1.112-.371.62-1.158a6.72,6.72,0,0,0-11.573-.019c-.626.975-.251,1.2.745,1.18,1.7-.042,3.4-.012,5.1-.012" transform="translate(-91.2 -91.21)" fill="#090707"/>
        <path id="Trazado_717020" data-name="Trazado 717020" d="M4.3,149.173c-.987.1-1.479-.408-1.794-1.307a42.4,42.4,0,0,1-2.245-9.9C.128,136.6.647,136.043,2,136.048q8.229.032,16.457-.006a1.756,1.756,0,0,1,2.01,1.635c1.956,8.936,7.382,14.681,16.126,17.3,2.331.7,2.914,1.416,2.918,3.854q.009,6.336,0,12.672c0,3.064-1.321,4.189-4.348,3.653a39.169,39.169,0,0,1-9.568-2.856c-.826-.379-1.23-.364-1.789.506a5.722,5.722,0,0,1-5.11,2.751c-4.114-.028-8.229,0-12.343-.012-4.028-.014-6.319-2.3-6.334-6.327-.014-3.84,0-7.68,0-11.52,0-4.01,1.157-5.606,4.973-6.874,4.546.01,9.092,0,13.637.036a5.741,5.741,0,0,1,6.074,6.084c.025,3.013.006,6.026.006,9.039,0,3.595,0,3.595,3.469,4.651a.67.67,0,0,0,.163.009,32.047,32.047,0,0,0,7.694,2.138c1,.2.94-.393.94-1.02q0-6.572,0-13.145c0-.588-.055-1.035-.791-1.2a28.043,28.043,0,0,1-7.786-3.362l.03.041-.4-.3a34.936,34.936,0,0,1-6.214-6.27l-.309-.426.047.019a27.718,27.718,0,0,1-3.261-7.667.941.941,0,0,0-1.1-.878q-6.662.046-13.323,0c-.856-.007-1.035.3-.9,1.06A31.768,31.768,0,0,0,5,147.22a1.787,1.787,0,0,1-.7,1.953m-.7,23.033a9.852,9.852,0,0,1,3.608-4.521c.819-.517.689-.817.149-1.463a6.266,6.266,0,0,1-.846-7.348,6.568,6.568,0,0,1,9.321-2.547,6.5,6.5,0,0,1,1.731,9.586c-.788,1-.791,1.39.286,2.049a7.847,7.847,0,0,1,2.589,2.931c.221.387.222,1.147.857,1.008.458-.1.653-.71.755-1.2a5.722,5.722,0,0,0,.1-1.144c.007-4.223.025-8.446,0-12.669-.015-2.3-1.158-3.458-3.438-3.476q-6.334-.05-12.669,0c-2.312.016-3.469,1.145-3.487,3.423-.035,4.278-.009,8.556-.01,12.834A3.105,3.105,0,0,0,3.6,172.206m12.879-10.29a4.12,4.12,0,1,0-8.24.035,4.072,4.072,0,0,0,4.21,4.083,4.113,4.113,0,0,0,4.03-4.119m-4.2,11.135c1.7,0,3.4-.029,5.1.011.986.023,1.379-.192.749-1.176a6.531,6.531,0,0,0-5.875-3.295,6.5,6.5,0,0,0-5.7,3.308c-.49.781-.443,1.182.617,1.16,1.7-.035,3.4-.009,5.1-.009" transform="translate(-0.007 -91.199)" fill="#090907"/>
        <path id="Trazado_717021" data-name="Trazado 717021" d="M171.336,26.963a1.631,1.631,0,0,1,1.922,1.341,47.022,47.022,0,0,1,1.846,7.651,2.908,2.908,0,0,1-2.933,3.537c-4.771.061-9.545.047-14.317,0-1.83-.017-2.628-1.224-3.068-2.878a21.874,21.874,0,0,0-12.921-15,25.015,25.015,0,0,0-3.418-1.14,2.9,2.9,0,0,1-2.4-2.935c-.043-4.772-.052-9.545,0-14.317A2.8,2.8,0,0,1,139.414.314a35.678,35.678,0,0,1,10.549,2.954c.82.365,1.26.412,1.781-.507a5.317,5.317,0,0,1,4.92-2.737C161,.018,165.332,0,169.665.03a5.656,5.656,0,0,1,5.854,5.953c.027,3.95.007,7.9.006,11.849,0,3.978-1.172,5.608-4.959,6.9-4.541-.008-9.083,0-13.624-.031a5.775,5.775,0,0,1-6.1-6.066c-.028-3.01-.006-6.02-.006-9.03,0-3.66,0-3.66-3.614-4.692a32.5,32.5,0,0,0-7.693-2.137c-.97-.2-.957.361-.957,1.009q0,6.567,0,13.134c0,.572.018,1.056.763,1.223a28.11,28.11,0,0,1,8.182,3.657,34.511,34.511,0,0,1,6.177,6.244,26.969,26.969,0,0,1,3.542,8.043c.192.885.748.893,1.442.891,4.208-.015,8.416-.04,12.623.015,1.093.014,1.476-.288,1.249-1.391a37.119,37.119,0,0,0-1.974-7.243,2.209,2.209,0,0,1,.763-1.4M153.381,12.4c0,1.866-.016,3.732.009,5.6a11.039,11.039,0,0,0,.2,2.116c.082.391.263.919.766.953s.5-.529.657-.837a8.148,8.148,0,0,1,2.905-3.3c.963-.6.793-.948.175-1.7a6.19,6.19,0,0,1-1.12-6.33,6.273,6.273,0,0,1,5.8-4.4,6.2,6.2,0,0,1,6.156,3.334,6.092,6.092,0,0,1-.533,7.23c-.833,1.034-.7,1.414.313,2.045a8.282,8.282,0,0,1,2.585,2.94c.225.375.2,1.176.844,1,.511-.142.715-.791.787-1.357a7.873,7.873,0,0,0,.077-.983c.005-4.226.026-8.452-.006-12.677-.017-2.3-1.151-3.453-3.438-3.472q-6.338-.054-12.677,0c-2.371.019-3.461,1.171-3.487,3.593-.021,2.085,0,4.171-.005,6.256m9.78,2.788a4.121,4.121,0,0,0,.052-8.242,4.121,4.121,0,1,0-.052,8.242m-.145,6.981c1.756,0,3.512-.018,5.267.008.846.012,1.326-.105.731-1.074a6.723,6.723,0,0,0-11.654,0c-.59.958-.144,1.089.718,1.074,1.646-.029,3.292-.009,4.938-.009" transform="translate(-91.179 -0.008)" fill="#070808"/>
        <path id="Trazado_717022" data-name="Trazado 717022" d="M194.088,36.942a2.207,2.207,0,0,0-.763,1.4c-5.626-.167-11.265.349-16.882-.314a34.509,34.509,0,0,0-6.177-6.244,17.034,17.034,0,0,1-.3-2.261c-.02-4.875,0-9.749.01-14.624,3.613,1.032,3.613,1.032,3.614,4.692,0,3.01-.022,6.02.006,9.03a5.775,5.775,0,0,0,6.1,6.066c4.541.032,9.083.022,13.624.031l.769,2.226" transform="translate(-113.932 -9.987)" fill="#56bc90"/>
        <path id="Trazado_717023" data-name="Trazado 717023" d="M13.028,171.673a1.787,1.787,0,0,0,.7-1.953l16.55-.095-.047-.018.309.426a34.935,34.935,0,0,0,6.214,6.27l.4.3-.03-.041q-.03,8.293-.061,16.585a.686.686,0,0,1-.164-.009c-3.469-1.056-3.469-1.056-3.469-4.651,0-3.013.02-6.026-.006-9.039a5.741,5.741,0,0,0-6.074-6.084c-4.546-.032-9.092-.026-13.638-.036l-.686-1.656" transform="translate(-8.734 -113.699)" fill="#fbdd30"/>
        <path id="Trazado_717024" data-name="Trazado 717024" d="M103.968,93.658c0,3.258-2.283,5.846-5.174,5.865-2.951.02-5.309-2.649-5.263-5.955.046-3.26,2.357-5.789,5.271-5.77s5.166,2.588,5.166,5.86M95.99,93.7c.022,1.889,1.333,3.434,2.858,3.369,1.46-.063,2.68-1.6,2.7-3.386.017-1.835-1.3-3.472-2.8-3.465S95.968,91.84,95.99,93.7" transform="translate(-62.7 -58.858)" fill="#090707"/>
        <path id="Trazado_717025" data-name="Trazado 717025" d="M141.152,138.336c.034,3.239-2.242,5.872-5.118,5.921-2.933.05-5.256-2.445-5.313-5.706-.058-3.34,2.238-6.01,5.181-6.026,2.884-.015,5.216,2.567,5.25,5.811m-2.456.048c-.007-1.886-1.3-3.436-2.829-3.4-1.468.039-2.692,1.544-2.725,3.348-.033,1.83,1.27,3.482,2.761,3.5s2.8-1.588,2.793-3.453" transform="translate(-87.63 -88.841)" fill="#090707"/>
        <path id="Trazado_717026" data-name="Trazado 717026" d="M112.266,114.859c-.989-.057-1.362-1.021-.832-2.291q3.068-7.346,6.163-14.681,1.238-2.952,2.457-5.912c.354-.859.9-1.482,1.874-1.025.873.41.78,1.159.438,1.97q-4.366,10.362-8.692,20.741c-.264.63-.619,1.174-1.407,1.2" transform="translate(-74.54 -60.866)" fill="#070808"/>
        <path id="Trazado_717027" data-name="Trazado 717027" d="M7.678,17.5c0-2.14-.03-4.281.009-6.421C7.725,8.87,8.85,7.7,11.027,7.676q6.5-.061,13.006,0a3.007,3.007,0,0,1,3.248,3.328c.035,4.335.011,8.671.006,13.006a4.306,4.306,0,0,1-.07.819c-.108.549-.3,1.221-.812,1.339-.607.139-.613-.642-.84-1.033a8.352,8.352,0,0,0-2.727-3.032c-.991-.613-.866-.989-.211-1.822a6.218,6.218,0,0,0,.642-7.234,6.186,6.186,0,0,0-6.1-3.442,6.262,6.262,0,0,0-5.869,4.306,6.221,6.221,0,0,0,1.216,6.6c.6.7.539.987-.212,1.456a8.782,8.782,0,0,0-3.1,3.553c-.144.28-.2.751-.587.672-.25-.051-.473-.413-.634-.68a3.308,3.308,0,0,1-.306-1.761c-.008-2.085,0-4.171,0-6.256" transform="translate(-5.14 -5.125)" fill="#8e7f8e"/>
        <path id="Trazado_717028" data-name="Trazado 717028" d="M85.3,10.47a32,32,0,0,1,7.682-2.138c.774-.159.963.172.962.851q-.013,6.723,0,13.447c0,.558-.157.92-.77,1.055A27.573,27.573,0,0,0,85,27.321a19.176,19.176,0,0,0,.308-2.418c.023-4.811,0-9.622,0-14.434" transform="translate(-56.98 -5.559)" fill="#fb9367"/>
        <path id="Trazado_717029" data-name="Trazado 717029" d="M27.764,85.058a28.086,28.086,0,0,0-3.532,8.093c-.15.674-.508.848-1.151.845C18.69,93.976,14.3,93.964,9.9,94c-.961.009-1.111-.4-.965-1.2a31.526,31.526,0,0,1,2.014-7.429c5.6-.181,11.217.366,16.81-.316" transform="translate(-5.961 -57.02)" fill="#fb9367"/>
        <path id="Trazado_717030" data-name="Trazado 717030" d="M31.951,38.024c-5.593.683-11.208.135-16.81.316a.575.575,0,0,1,0-.164c1.152-3.489,1.152-3.489,4.827-3.489,2.907,0,5.815.017,8.722,0,3.761-.028,6.126-2.417,6.147-6.207.018-3.346.105-6.7-.04-10.037-.071-1.624.35-2.6,1.963-2.977.58-.137,1.137-.374,1.7-.565.006,4.811.027,9.623,0,14.434a19.292,19.292,0,0,1-.308,2.418,34.679,34.679,0,0,0-6.215,6.276" transform="translate(-10.148 -9.986)" fill="#fb7c42"/>
        <path id="Trazado_717031" data-name="Trazado 717031" d="M33.221,25.157A4.132,4.132,0,0,1,29.206,29.3a4.089,4.089,0,0,1-4.228-4.078,4.121,4.121,0,1,1,8.242-.067" transform="translate(-16.745 -14.119)" fill="#facabb"/>
        <path id="Trazado_717032" data-name="Trazado 717032" d="M25.057,58.225c-1.7,0-3.4-.023-5.1.01-.92.018-1.251-.2-.69-1.1a6.483,6.483,0,0,1,5.84-3.342,6.475,6.475,0,0,1,5.809,3.4c.451.743.349,1.068-.591,1.05-1.755-.035-3.511-.01-5.266-.01" transform="translate(-12.731 -36.059)" fill="#87c5f9"/>
        <path id="Trazado_717033" data-name="Trazado 717033" d="M208.3,198.415c0,2.03.01,4.06-.006,6.09a6.149,6.149,0,0,1-.155,1.629c-.113.4-.384.931-.708,1.041-.566.191-.607-.5-.784-.845A7.826,7.826,0,0,0,204,203.243c-1.024-.655-1.137-1.016-.3-2.041a6.039,6.039,0,0,0,.606-7.079,6.578,6.578,0,1,0-10.906,7.246c.609.746.822,1.1-.164,1.7a8.126,8.126,0,0,0-2.989,3.432c-.134.269-.157.72-.579.7-.455-.019-.609-.461-.71-.8a5.841,5.841,0,0,1-.255-1.607q-.03-6.254-.006-12.509c.013-2.483,1.133-3.59,3.648-3.6q6.172-.033,12.344,0c2.491.015,3.585,1.133,3.614,3.639.024,2.03,0,4.06,0,6.09" transform="translate(-126.484 -126.477)" fill="#8e7f8e"/>
        <path id="Trazado_717034" data-name="Trazado 717034" d="M189.614,152.686a27.43,27.43,0,0,0,3.552-8.043c.167-.747.588-.9,1.279-.9,4.317.023,8.634.035,12.951-.007.973-.009,1.263.32,1.087,1.242a32.67,32.67,0,0,1-2.014,7.395c-2.9,0-5.8-.044-8.693.019-2.721.059-5.46-.3-8.162.289" transform="translate(-127.111 -96.359)" fill="#fb636e"/>
        <path id="Trazado_717035" data-name="Trazado 717035" d="M152.4,207.289a31.482,31.482,0,0,1-7.715,2.135c-.836.165-.921-.267-.92-.9q.006-6.668,0-13.335c0-.627.167-.99.861-1.151a28.529,28.529,0,0,0,7.644-3.339c.041.6.116,1.2.118,1.8q.02,7.394.017,14.79" transform="translate(-96.37 -127.841)" fill="#fb636e"/>
        <path id="Trazado_717036" data-name="Trazado 717036" d="M169.693,193.3q-.006-7.395-.017-14.79c0-.6-.077-1.2-.118-1.8l.037.037.4-.338a35.243,35.243,0,0,0,6.176-6.234c2.7-.592,5.441-.231,8.162-.289,2.9-.062,5.8-.017,8.693-.019a.574.574,0,0,1-.006.164c-1.16,3.477-1.16,3.477-4.838,3.477-2.8,0-5.6-.006-8.394,0-4.2.012-6.456,2.3-6.463,6.543-.006,3.237-.1,6.479.042,9.709.074,1.625-.35,2.6-1.969,2.973-.58.134-1.137.372-1.7.562" transform="translate(-113.667 -113.85)" fill="#fa4654"/>
        <path id="Trazado_717037" data-name="Trazado 717037" d="M214.169,206.144a4.121,4.121,0,0,1-8.241.057,4.121,4.121,0,1,1,8.241-.057" transform="translate(-138.048 -135.438)" fill="#facabb"/>
        <path id="Trazado_717038" data-name="Trazado 717038" d="M206.132,239.244c-1.7,0-3.4-.03-5.1.012-1,.024-1.371-.2-.745-1.18a6.72,6.72,0,0,1,11.573.02c.492.786.435,1.18-.62,1.158-1.7-.036-3.4-.01-5.1-.01" transform="translate(-134.058 -157.391)" fill="#87c5f9"/>
        <path id="Trazado_717039" data-name="Trazado 717039" d="M170.069,189.791l-.4.338.4-.338" transform="translate(-113.742 -127.23)" fill="#fb636e"/>
        <path id="Trazado_717040" data-name="Trazado 717040" d="M8.742,207.48a3.105,3.105,0,0,1-1.056-2.539c0-4.278-.025-8.556.01-12.834.019-2.278,1.175-3.406,3.488-3.423q6.334-.045,12.668,0c2.28.018,3.423,1.181,3.439,3.476.028,4.223.01,8.446,0,12.669a5.724,5.724,0,0,1-.1,1.144c-.1.49-.3,1.1-.755,1.2-.635.139-.635-.621-.856-1.008a7.85,7.85,0,0,0-2.59-2.931c-1.077-.659-1.074-1.053-.286-2.049a6.5,6.5,0,0,0-1.731-9.586,6.568,6.568,0,0,0-9.321,2.547A6.266,6.266,0,0,0,12.5,201.5c.541.646.67.947-.149,1.463a9.854,9.854,0,0,0-3.608,4.521" transform="translate(-5.147 -126.473)" fill="#8e7f8e"/>
        <path id="Trazado_717041" data-name="Trazado 717041" d="M85.947,207.3q.03-8.292.061-16.585a28.055,28.055,0,0,0,7.785,3.362c.736.161.792.608.791,1.2q-.009,6.572,0,13.144c0,.628.056,1.225-.94,1.021a32.042,32.042,0,0,1-7.693-2.138" transform="translate(-57.616 -127.848)" fill="#fbe259"/>
        <path id="Trazado_717042" data-name="Trazado 717042" d="M27.483,152.28l-16.55.095A31.763,31.763,0,0,1,8.9,144.794c-.134-.765.046-1.068.9-1.06q6.662.057,13.324,0a.941.941,0,0,1,1.1.878,27.727,27.727,0,0,0,3.262,7.667" transform="translate(-5.938 -96.355)" fill="#fbe259"/>
        <path id="Trazado_717043" data-name="Trazado 717043" d="M33.222,206.156a4.113,4.113,0,0,1-4.03,4.119,4.072,4.072,0,0,1-4.21-4.083,4.12,4.12,0,1,1,8.24-.035" transform="translate(-16.747 -135.439)" fill="#facabb"/>
        <path id="Trazado_717044" data-name="Trazado 717044" d="M25,239.244c-1.7,0-3.4-.026-5.1.009-1.06.022-1.107-.379-.617-1.16a6.722,6.722,0,0,1,11.574-.013c.63.984.237,1.2-.749,1.176-1.7-.041-3.4-.011-5.1-.012" transform="translate(-12.724 -157.392)" fill="#87c5f9"/>
        <path id="Trazado_717045" data-name="Trazado 717045" d="M65.525,170.033l-.309-.426.309.426" transform="translate(-43.719 -113.699)" fill="#fbe259"/>
        <path id="Trazado_717046" data-name="Trazado 717046" d="M85.405,190.222l-.4-.3.4.3" transform="translate(-56.984 -127.317)" fill="#fbe259"/>
        <path id="Trazado_717047" data-name="Trazado 717047" d="M188.689,17.527c0-2.086-.017-4.171,0-6.256.025-2.422,1.115-3.575,3.486-3.593q6.338-.049,12.677,0c2.288.019,3.421,1.169,3.438,3.473.032,4.226.011,8.451.006,12.677a7.878,7.878,0,0,1-.077.984c-.072.566-.275,1.215-.787,1.357-.641.178-.618-.623-.844-1a8.283,8.283,0,0,0-2.585-2.94c-1.016-.631-1.146-1.01-.313-2.045a6.092,6.092,0,0,0,.533-7.23,6.2,6.2,0,0,0-6.156-3.334,6.272,6.272,0,0,0-5.8,4.4,6.189,6.189,0,0,0,1.12,6.33c.618.755.788,1.106-.175,1.7a8.144,8.144,0,0,0-2.905,3.3c-.158.308-.167.87-.657.837s-.684-.562-.766-.953a11.014,11.014,0,0,1-.2-2.116c-.024-1.865-.008-3.731-.008-5.6" transform="translate(-126.487 -5.13)" fill="#8e7f8e"/>
        <path id="Trazado_717048" data-name="Trazado 717048" d="M152.414,10.468c-.008,4.875-.03,9.749-.01,14.624a17.024,17.024,0,0,0,.3,2.261,28.11,28.11,0,0,0-8.182-3.657c-.745-.166-.763-.651-.763-1.223q.005-6.567,0-13.134c0-.648-.013-1.208.957-1.009a32.5,32.5,0,0,1,7.693,2.137" transform="translate(-96.374 -5.558)" fill="#96d3b7"/>
        <path id="Trazado_717049" data-name="Trazado 717049" d="M189.639,85.064c5.617.664,11.256.148,16.882.314a37.129,37.129,0,0,1,1.974,7.243c.227,1.1-.156,1.405-1.249,1.391-4.207-.054-8.415-.029-12.623-.014-.694,0-1.25-.006-1.442-.891a26.979,26.979,0,0,0-3.542-8.044" transform="translate(-127.128 -57.024)" fill="#96d3b7"/>
        <path id="Trazado_717050" data-name="Trazado 717050" d="M210.029,29.3a4.121,4.121,0,1,1,4.138-4,4.132,4.132,0,0,1-4.138,4" transform="translate(-138.048 -14.12)" fill="#facabb"/>
        <path id="Trazado_717051" data-name="Trazado 717051" d="M205.883,58.226c-1.646,0-3.292-.021-4.938.009-.862.015-1.308-.116-.718-1.074a6.723,6.723,0,0,1,11.654,0c.6.969.115,1.086-.731,1.074-1.755-.026-3.511-.008-5.267-.008" transform="translate(-134.046 -36.06)" fill="#87c5f9"/>
        <path id="Trazado_717052" data-name="Trazado 717052" d="M100.989,98.632c-.022-1.864,1.255-3.476,2.758-3.482s2.813,1.63,2.8,3.465c-.016,1.791-1.237,3.323-2.7,3.386-1.525.066-2.836-1.479-2.858-3.369" transform="translate(-67.7 -63.786)" fill="#eff1f2"/>
        <path id="Trazado_717053" data-name="Trazado 717053" d="M143.62,143.392c.007,1.865-1.292,3.472-2.793,3.453s-2.794-1.67-2.761-3.5c.033-1.8,1.258-3.309,2.725-3.348,1.53-.041,2.822,1.51,2.829,3.4" transform="translate(-92.555 -93.849)" fill="#eff1f2"/>
      </g>
    </g>
  </g>
</svg>
