<svg xmlns="http://www.w3.org/2000/svg" xmlns:xlink="http://www.w3.org/1999/xlink" width="116.999" height="115" viewBox="0 0 116.999 115">
  <defs>
    <clipPath id="clip-path">
      <rect id="Rect치ngulo_350170" data-name="Rect치ngulo 350170" width="53" height="52.935" fill="none"/>
    </clipPath>
  </defs>
  <g id="Grupo_1018024" data-name="Grupo 1018024" transform="translate(-327 -2286.564)">
    <g id="Grupo_1017400" data-name="Grupo 1017400" transform="translate(-98.438 -5211.906)">
      <g id="Grupo_1015374" data-name="Grupo 1015374" transform="translate(425.927 7498.205)">
        <g id="Grupo_1015448" data-name="Grupo 1015448" transform="translate(0 0)">
          <g id="Grupo_1014855" data-name="Grupo 1014855" transform="translate(0 0)">
            <path id="Uni칩n_12" data-name="Uni칩n 12" d="M58.5,0C90.809,0,117,25.744,117,57.5S90.809,115,58.5,115,0,89.256,0,57.5,26.192,0,58.5,0Z" transform="translate(-0.49 0.265)" fill="#81c539"/>
            <ellipse id="Elipse_4842" data-name="Elipse 4842" cx="49" cy="49.5" rx="49" ry="49.5" transform="translate(9.51 7.265)" fill="#fff"/>
          </g>
        </g>
      </g>
    </g>
    <g id="Grupo_1017406" data-name="Grupo 1017406" transform="translate(359 2315.686)">
      <g id="Grupo_1017400-2" data-name="Grupo 1017400" clip-path="url(#clip-path)">
        <path id="Trazado_718175" data-name="Trazado 718175" d="M41.409,38.726c.449-7.592.9-15,1.306-22.414.038-.695.144-.994.931-.963,1.668.066,3.341.049,5.01.006.662-.017.888.133.927.854.483,8.834,1.007,17.666,1.522,26.5a5.948,5.948,0,0,1,.066.849c-.065.727.3.928.938.822.673-.111.9.123.885.843-.051,2.2-.064,4.408,0,6.609.027.868-.17,1.107-1.078,1.1q-21.482-.05-42.964-.023c-2.63,0-5.26-.028-7.889.018-.749.013-1.012-.11-1.009-.956Q.113,37.526.07,23.079c0-.638.083-1.035.836-.884.788.157.915-.224.9-.933-.047-2.167-.108-4.34,0-6.5A22.436,22.436,0,0,0,.311,4.98C-.284,3.514.174,1.886.089.334.068-.058.384.014.617.014,5.378.011,10.14.023,14.9,0c.654,0,.5.388.541.758A16.111,16.111,0,0,1,14.07,8.521a5.437,5.437,0,0,0-.345,2.077c.017,3.554.027,7.108-.009,10.662-.007.7.106,1.092.9.935.75-.149.845.24.839.883-.028,3.3-.015,6.61-.011,9.916,0,.6-.226,1.219.88,1.2,1.029-.022.822-.577.822-1.145,0-3.483,0-6.966,0-10.449,0-2.379,1.238-3.691,3.62-3.8.5-.022.635-.134.66-.648.14-2.914,1.795-4.479,4.681-4.486,1.528,0,3.056-.015,4.584,0a4.23,4.23,0,0,1,4.354,4.277c.015.578.043.857.773.865a3.342,3.342,0,0,1,3.5,3.58c.015,4.229.129,8.464-.054,12.685-.078,1.8.788,2.685,2.142,3.653M1.789,37.573c0,4.228.016,8.455-.015,12.683-.005.7.1.983.9.981.772,0,.842-.314.832-.938-.031-1.882.056-3.769-.037-5.647a2.7,2.7,0,0,1,1.154-2.5c2.859-2.28,5.628-4.673,8.456-6.993a1.64,1.64,0,0,0,.668-1.438c-.032-2.984-.037-5.969,0-8.952.009-.7-.19-.885-.883-.878q-5.115.053-10.23,0c-.729-.009-.864.234-.86.9.028,4.263.014,8.526.014,12.789M15.331,51.2c3.2,0,6.392-.015,9.587.013.6.005.784-.151.77-.761q-.06-2.662,0-5.326c.013-.607-.171-.764-.769-.762q-9.481.031-18.962,0c-.6,0-.784.151-.77.761.04,1.739.049,3.481,0,5.22-.021.7.187.881.878.872,3.089-.038,6.179-.016,9.268-.016M43.695,28.976h0c-.169,2.764-.2,5.546-.55,8.287-.279,2.217.187,3.909,2.134,5.123.358.223.91.5.842,1.011-.139,1.043.445,1.045,1.178.988a7.081,7.081,0,0,1,1.383,0c.749.09.834-.226.792-.9q-.736-11.854-1.4-23.711c-.152-2.73-.1-2.708-2.805-2.717-.672,0-.9.169-.934.858-.186,3.688-.423,7.373-.642,11.059m-36.98,13.7c6.526,0,12.738,0,18.951.01a1.408,1.408,0,0,0,1.02-.449c2.124-1.941,4.26-3.869,6.381-5.813.151-.139.475-.218.337-.573q-8.954,0-17.906,0a1.256,1.256,0,0,0-.893.236c-2.55,2.14-5.108,4.27-7.889,6.59m29.1,0c1.491,0,2.984.03,4.474-.015.615-.018.769.179.756.771-.038,1.7-.013,3.409-.013,5.114,0,2.81,0,2.792,2.78,2.677.521-.022.649-.171.643-.668-.025-2.024-.016-4.049-.005-6.073a1.106,1.106,0,0,0-.373-.93Q40.233,40.1,36.428,36.6c-.412-.38-.646-.356-1.04.014C33.913,38,32.4,39.347,30.9,40.709c-1.155,1.051-2.765,1.9-3.337,3.211-.589,1.347-.177,3.136-.183,4.732-.009,2.628,0,2.605,2.673,2.57.618-.008.758-.194.75-.779-.032-2.308.018-4.617-.031-6.925-.015-.717.207-.886.885-.861,1.383.051,2.769.015,4.154.015M27.382,27.717c0,1.813.017,3.626-.009,5.439-.009.619-.041,1.04.841,1.021.8-.016.9-.282.89-.978-.035-3.483-.018-6.967-.015-10.451,0-2.56,1.139-3.8,3.682-3.951.462-.028.585-.137.6-.6a2.6,2.6,0,0,0-2.551-2.817c-1.705-.039-3.413-.034-5.118,0a2.59,2.59,0,0,0-2.6,2.667c-.021.62.182.74.767.755a3.368,3.368,0,0,1,3.51,3.584c.016,1.777,0,3.555,0,5.332M12.025,16.3c0-1.776-.016-3.552.01-5.328.007-.516-.08-.744-.683-.735-2.379.038-4.759.028-7.139.006-.518,0-.738.086-.732.684.031,3.516.023,7.033.006,10.549,0,.516.081.744.683.734q3.568-.056,7.138,0c.653.011.74-.24.729-.8-.032-1.7-.012-3.41-.012-5.115M32.5,47.742c0,.888.048,1.78-.015,2.664-.05.692.216.826.846.811,1.74-.04,3.482-.037,5.223,0,.592.012.8-.141.784-.763q-.061-2.664,0-5.33c.014-.627-.211-.766-.791-.755q-2.664.049-5.329,0c-.546-.009-.759.13-.728.708.046.886.012,1.776.012,2.665M2.13,5.132C2.481,6.2,2.8,7.1,3.068,8.009a.665.665,0,0,0,.761.543q3.94-.025,7.881,0c.361,0,.6-.075.716-.457q.373-1.218.8-2.419c.162-.447.006-.548-.42-.547-3.512.01-7.024.006-10.68.006m49.138,43.4c-.078-.684.372-1.823-.177-2.275-.515-.424-1.611-.16-2.452-.163-2.488-.011-2.5,0-2.479,2.519.008.837-.38,1.975.168,2.427.514.424,1.611.16,2.452.163,2.488.011,2.488,0,2.488-2.671M37.618,35.4c0-1.492-.035-2.715.014-3.935.026-.64-.231-.759-.8-.744-1.31.035-2.621.011-3.932.011-2.107,0-2.04,0-2.134,2.064-.05,1.1.268,1.345,1.364,1.395,1.812.082,3.842-.8,5.486,1.209M34.276,25.61h-.852c-2.761,0-2.761,0-2.628,2.729a1.478,1.478,0,0,1,0,.213c-.037.389.178.473.517.471,1.918-.008,3.837,0,5.755-.005.239,0,.542.047.537-.328a8.778,8.778,0,0,0-.155-2.927c-.177-.459-1.306-.1-2-.148-.389-.028-.781,0-1.172,0m-11.96,5.119h-.959c-2.583,0-2.564,0-2.52,2.639.01.583.14.81.762.785,1.17-.047,2.344-.013,3.516-.013,2.664,0,2.648,0,2.572-2.692-.015-.538-.127-.761-.708-.731-.886.047-1.776.012-2.664.012M22.21,29.02h.959c2.583,0,2.564,0,2.52-2.638-.01-.582-.139-.81-.762-.786-1.17.047-2.344.013-3.516.013-2.664,0-2.648,0-2.572,2.692.015.537.126.762.708.731.886-.047,1.776-.012,2.664-.012m12-5.119c.922,0,1.844,0,2.766,0,.2,0,.438.063.592-.136.713-.926-.235-3.148-1.448-3.239a25.908,25.908,0,0,0-3.827,0c-1.173.086-1.683,1.119-1.491,2.827.126,1.125.995.413,1.5.52a9.34,9.34,0,0,0,1.909.03m-11.931,0c.922,0,1.844,0,2.767,0,.2,0,.439.06.589-.145.7-.963-.248-3.145-1.471-3.233a26.233,26.233,0,0,0-3.827,0c-1.139.085-1.582,1.011-1.486,2.732.07,1.259,1.007.494,1.52.611a8.7,8.7,0,0,0,1.908.032M7.762,3.424c1.736,0,3.474-.041,5.208.019.734.025.776-.3.778-.873s-.055-.878-.781-.87q-5.207.063-10.416,0c-.732-.009-.776.3-.778.873s.053.894.782.87c1.734-.059,3.472-.019,5.208-.019" transform="translate(0 0)" fill="#020202"/>
        <path id="Trazado_718176" data-name="Trazado 718176" d="M154.162,8.847c.181.719-.133.879-.822.879a1.638,1.638,0,0,0-1.712,1.657,1.7,1.7,0,0,0,1.772,1.723,22.388,22.388,0,0,0,2.66-.01c.852-.074.649.468.691.934.049.544-.035.83-.71.808-1.631-.053-3.265-.008-4.9-.022-.632-.005-1.2.118-1.2.864s.584.853,1.211.85c2.662-.011,5.324-.018,7.986,0a2.621,2.621,0,0,1,2.735,2.848c-.015.5-.209.668-.62.547-.379-.112-1.122.459-1.093-.476.032-1.037-.529-1.237-1.413-1.227-2.52.029-5.04.013-7.56.009a2.689,2.689,0,0,1-2.917-1.956,2.514,2.514,0,0,1,1.636-2.963c.527-.252.313-.486.214-.808a3.408,3.408,0,0,1,3.209-4.525c.685-.025,1.012.137.829.865" transform="translate(-116.565 -6.276)" fill="#030303"/>
        <path id="Trazado_718177" data-name="Trazado 718177" d="M205.426,19.895c-.89.224-1.071-.1-1.026-.788a2.62,2.62,0,0,1,2.38-2.558c1.286-.162,1.963-.818,1.89-1.831s-.827-1.578-2.128-1.584c-1.065,0-2.132-.027-3.2.01-.512.018-.715-.136-.647-.652a5.164,5.164,0,0,0,0-.745c-.02-1.352-.567-2.012-1.9-2-1,.008-.565-.645-.653-1.071-.125-.607.21-.677.718-.675a3.4,3.4,0,0,1,3.481,2.832c.112.508.265.628.735.6.637-.038,1.278-.025,1.917-.005a3.426,3.426,0,0,1,3.381,3.185,3.366,3.366,0,0,1-2.935,3.59c-.9.1-1.4.352-1.334,1.342.045.712-.557.283-.684.351" transform="translate(-157.41 -6.292)" fill="#050505"/>
        <path id="Trazado_718178" data-name="Trazado 718178" d="M185.821,8.868c.23.842-.33.738-.89.8-.819.092-.763-.352-.819-.931-.079-.82.355-.767.934-.818.8-.07.9.312.775.948" transform="translate(-144.811 -6.223)"/>
        <path id="Trazado_718179" data-name="Trazado 718179" d="M8.325,125.6c0-4.263.013-8.526-.014-12.789,0-.666.131-.908.86-.9q5.114.061,10.23,0c.693-.007.892.176.883.877-.039,2.984-.035,5.968,0,8.952a1.64,1.64,0,0,1-.668,1.438c-2.828,2.32-5.6,4.713-8.456,6.993a2.7,2.7,0,0,0-1.154,2.5c.093,1.878.006,3.765.037,5.647.01.625-.06.936-.832.938-.8,0-.9-.282-.9-.981.031-4.227.015-8.455.015-12.683m3.391-7.643c.134-.65-.02-.978-.786-.931-.6.036-.977.05-.923.83.042.6.051.985.831.92.583-.049,1.087-.013.878-.818m2.629.762c.742.274.8-.162.824-.809.021-.678-.164-.9-.867-.887-.674.007-.9.17-.884.872.015.659.135,1.019.926.824m4.182-.9c.309-.81-.25-.741-.837-.789-.729-.06-.84.24-.86.89-.022.727.247.846.9.858.712.014.97-.211.8-.959m-6.811,3.535c.145-.668-.057-.948-.8-.918-.625.026-.95.088-.912.843.032.624.09.958.845.909.607-.039,1.066-.052.865-.835m1.74-.178c-.05.585-.121,1.113.744,1.005.521-.065,1.08.1.965-.772-.068-.52.1-1.089-.773-.961-.5.074-1.161-.151-.936.728m4.165.965c.55.081,1.056.123.955-.731-.062-.521.1-1.081-.772-.965-.52.069-1.089-.1-.961.773.074.5-.151,1.161.778.923m-6.714,3.417c.756.19.825-.217.853-.851.031-.728-.246-.84-.9-.86-.727-.022-.846.247-.858.9-.014.712.212.97.9.812m3.365,0c.69.158.915-.1.9-.812-.013-.651-.131-.921-.858-.9-.65.02-.927.133-.9.86.027.634.1,1.041.853.851m3.38-10.238c.65.134.977-.02.931-.786-.036-.6-.05-.977-.829-.923-.6.042-.986.051-.92.831.049.583.013,1.087.818.878m-2.539-.848c.225-.673-.071-.874-.784-.859-.627.014-.951.085-.912.841.033.623.089.959.845.909.607-.039,1.065-.053.851-.891m-4.175-.817c-.651-.134-.976.022-.931.787.036.6.048.978.829.923.6-.043.986-.051.92-.831-.049-.583-.013-1.087-.819-.878" transform="translate(-6.536 -88.025)" fill="#a9b1bc"/>
        <path id="Trazado_718180" data-name="Trazado 718180" d="M34.433,214.715c-3.089,0-6.179-.021-9.268.016-.691.009-.9-.169-.878-.873.052-1.739.043-3.48,0-5.22-.014-.61.175-.763.77-.761q9.481.031,18.962,0c.6,0,.782.155.769.762q-.059,2.662,0,5.327c.014.61-.175.766-.77.761-3.2-.028-6.392-.013-9.587-.013" transform="translate(-19.102 -163.511)" fill="#cbd0d8"/>
        <path id="Trazado_718181" data-name="Trazado 718181" d="M202.442,91.845c.219-3.686.456-7.371.642-11.059.035-.689.262-.86.934-.858,2.7.009,2.653-.013,2.8,2.717q.659,11.858,1.4,23.711c.042.675-.042.991-.792.9a7.081,7.081,0,0,0-1.383,0c-.733.057-1.317.055-1.178-.988.068-.511-.484-.788-.842-1.011-1.947-1.214-2.414-2.906-2.134-5.123.346-2.742.381-5.523.55-8.287h0" transform="translate(-158.747 -62.87)" fill="#c9ced6"/>
        <path id="Trazado_718182" data-name="Trazado 718182" d="M31.463,174.779c2.781-2.32,5.339-4.45,7.889-6.59a1.257,1.257,0,0,1,.893-.236q8.952,0,17.906,0c.138.355-.186.434-.337.573-2.121,1.944-4.257,3.872-6.381,5.813a1.408,1.408,0,0,1-1.02.449c-6.212-.015-12.424-.01-18.95-.01" transform="translate(-24.748 -132.107)" fill="#fad56f"/>
        <path id="Trazado_718183" data-name="Trazado 718183" d="M136.241,176.55c-1.385,0-2.771.036-4.154-.015-.678-.025-.9.144-.886.861.05,2.307,0,4.617.031,6.925.008.585-.132.77-.75.779-2.675.036-2.682.059-2.672-2.57.006-1.6-.406-3.385.183-4.732.572-1.307,2.182-2.16,3.337-3.211,1.5-1.362,3.009-2.709,4.484-4.094.395-.371.628-.394,1.04-.014q3.8,3.5,7.648,6.948a1.106,1.106,0,0,1,.373.93c-.011,2.024-.02,4.049.005,6.073.006.5-.122.647-.643.668-2.781.115-2.78.133-2.78-2.677,0-1.7-.025-3.41.013-5.114.013-.592-.141-.79-.756-.771-1.49.045-2.982.015-4.474.015" transform="translate(-100.426 -133.877)" fill="#e4e7eb"/>
        <path id="Trazado_718184" data-name="Trazado 718184" d="M24.851,54.024c0,1.7-.02,3.41.012,5.114.01.558-.076.809-.729.8q-3.568-.062-7.138,0c-.6.01-.686-.218-.683-.734.018-3.516.025-7.033-.006-10.55-.005-.6.214-.689.732-.684,2.38.022,4.76.032,7.139-.006.6-.01.69.218.683.735-.025,1.776-.01,3.552-.01,5.328m-1.706-.079c0-1.207-.024-2.416.012-3.622.015-.516-.147-.665-.657-.652q-1.916.051-3.834,0c-.519-.014-.655.152-.65.658q.037,3.622,0,7.245c-.005.515.147.665.657.652q1.916-.05,3.834,0c.518.014.664-.151.65-.658-.034-1.207-.011-2.415-.011-3.622" transform="translate(-12.826 -37.724)" fill="#e5e8ec"/>
        <path id="Trazado_718185" data-name="Trazado 718185" d="M152.2,211.256c0-.888.034-1.778-.012-2.664-.03-.578.183-.718.728-.709q2.664.045,5.329,0c.58-.011.805.128.791.755q-.06,2.664,0,5.33c.014.622-.192.775-.784.763-1.74-.036-3.483-.039-5.223,0-.63.014-.9-.12-.846-.811.064-.884.016-1.776.016-2.664" transform="translate(-119.703 -163.514)" fill="#ce9d76"/>
        <path id="Trazado_718186" data-name="Trazado 718186" d="M9.978,24.027c3.656,0,7.168,0,10.68-.006.427,0,.582.1.42.547q-.433,1.2-.8,2.419c-.117.382-.355.458-.716.457q-3.94-.016-7.881,0a.665.665,0,0,1-.761-.543c-.271-.912-.587-1.811-.938-2.877" transform="translate(-7.848 -18.894)" fill="#cacfd7"/>
        <path id="Trazado_718187" data-name="Trazado 718187" d="M220.921,218.1c0,2.675,0,2.682-2.488,2.671-.841,0-1.938.26-2.452-.163-.548-.452-.16-1.591-.168-2.427-.024-2.523-.009-2.53,2.479-2.519.841,0,1.938-.26,2.452.163.549.452.1,1.592.177,2.275" transform="translate(-169.653 -169.574)" fill="#a9b1bc"/>
        <path id="Trazado_718188" data-name="Trazado 718188" d="M150.991,148.6c-1.644-2.011-3.674-1.128-5.486-1.209-1.1-.05-1.414-.293-1.364-1.395.094-2.06.027-2.064,2.134-2.064,1.311,0,2.622.024,3.932-.011.567-.015.824.1.8.744-.049,1.22-.014,2.443-.014,3.935" transform="translate(-113.374 -113.203)" fill="#ce9d76"/>
        <path id="Trazado_718189" data-name="Trazado 718189" d="M147.607,119.686c.391,0,.783-.023,1.172.005.7.05,1.827-.311,2,.147a8.794,8.794,0,0,1,.155,2.927c0,.375-.3.328-.538.328-1.918,0-3.837,0-5.755.005-.339,0-.554-.082-.517-.471a1.48,1.48,0,0,0,0-.213c-.133-2.729-.133-2.729,2.628-2.729Z" transform="translate(-113.331 -94.076)" fill="#ce9d76"/>
        <path id="Trazado_718190" data-name="Trazado 718190" d="M91.7,143.923c.888,0,1.778.035,2.664-.012.582-.031.693.193.708.731.076,2.692.092,2.692-2.572,2.692-1.172,0-2.346-.034-3.517.013-.622.025-.752-.2-.762-.785-.045-2.639-.063-2.639,2.52-2.639H91.7" transform="translate(-69.384 -113.194)" fill="#ce9d76"/>
        <path id="Trazado_718191" data-name="Trazado 718191" d="M91.556,123.347c-.888,0-1.778-.035-2.664.012-.582.031-.693-.194-.708-.731-.076-2.692-.092-2.692,2.572-2.692,1.172,0,2.346.034,3.517-.013.623-.025.752.2.762.786.045,2.639.063,2.638-2.52,2.638h-.959" transform="translate(-69.347 -94.327)" fill="#ce9d76"/>
        <path id="Trazado_718192" data-name="Trazado 718192" d="M147.574,99.28a9.356,9.356,0,0,1-1.909-.031c-.5-.107-1.372.6-1.5-.52-.192-1.708.317-2.741,1.491-2.827a25.939,25.939,0,0,1,3.827,0c1.214.091,2.162,2.313,1.449,3.239-.153.2-.388.135-.592.136-.922.006-1.844,0-2.767,0" transform="translate(-113.366 -75.378)" fill="#cc9c74"/>
        <path id="Trazado_718193" data-name="Trazado 718193" d="M91.7,99.283a8.714,8.714,0,0,1-1.908-.032c-.514-.118-1.45.647-1.52-.611-.1-1.721.347-2.647,1.486-2.732a26.235,26.235,0,0,1,3.827,0c1.223.088,2.171,2.27,1.471,3.233-.149.205-.384.144-.589.145-.922.006-1.844,0-2.767,0" transform="translate(-69.419 -75.381)" fill="#cc9c74"/>
        <path id="Trazado_718194" data-name="Trazado 718194" d="M14.293,9.692c-1.736,0-3.474-.04-5.208.019-.729.025-.784-.287-.782-.87s.046-.882.778-.873q5.207.064,10.416,0c.727-.009.783.287.781.87s-.044.9-.778.873c-1.734-.06-3.472-.019-5.208-.019" transform="translate(-6.531 -6.267)" fill="#a9b1bc"/>
        <path id="Trazado_718195" data-name="Trazado 718195" d="M17.953,136.789c.209.806-.295.769-.878.818-.78.066-.789-.319-.831-.92-.054-.78.321-.794.923-.83.766-.046.92.281.786.931" transform="translate(-12.773 -106.858)"/>
        <path id="Trazado_718196" data-name="Trazado 718196" d="M33.172,137.552c-.792.194-.911-.165-.926-.824-.016-.7.21-.865.884-.873.7-.008.887.209.867.887-.02.647-.082,1.084-.824.809" transform="translate(-25.363 -106.86)"/>
        <path id="Trazado_718197" data-name="Trazado 718197" d="M49.925,136.657c.171.747-.087.972-.8.959-.651-.013-.92-.132-.9-.858.02-.65.131-.95.86-.89.587.048,1.146-.021.837.789" transform="translate(-37.933 -106.864)"/>
        <path id="Trazado_718198" data-name="Trazado 718198" d="M17.956,152.767c.2.782-.258.8-.865.835-.755.049-.813-.285-.845-.909-.039-.755.287-.817.912-.843.741-.031.943.25.8.918" transform="translate(-12.777 -119.439)"/>
        <path id="Trazado_718199" data-name="Trazado 718199" d="M32.255,152.571c-.225-.879.433-.655.936-.728.875-.128.7.441.773.961.115.877-.445.707-.965.772-.865.108-.794-.42-.744-1.005" transform="translate(-25.335 -119.421)"/>
        <path id="Trazado_718200" data-name="Trazado 718200" d="M49,153.535c-.929.238-.7-.421-.778-.924-.128-.875.441-.7.961-.773.877-.115.71.444.772.965.1.854-.4.813-.955.731" transform="translate(-37.919 -119.42)"/>
        <path id="Trazado_718201" data-name="Trazado 718201" d="M17.158,169.545c-.69.158-.915-.1-.9-.812.013-.652.132-.92.858-.9.65.02.927.132.9.86-.028.634-.1,1.041-.853.851" transform="translate(-12.787 -132.013)"/>
        <path id="Trazado_718202" data-name="Trazado 718202" d="M33.1,169.545c-.756.19-.826-.216-.853-.851-.031-.727.246-.84.9-.86.727-.022.845.247.858.9.015.713-.212.969-.9.812" transform="translate(-25.359 -132.013)"/>
        <path id="Trazado_718203" data-name="Trazado 718203" d="M49.044,121.568c-.806.209-.769-.295-.818-.878-.066-.78.319-.789.92-.831.78-.054.794.321.83.923.046.766-.281.92-.931.786" transform="translate(-37.928 -94.273)"/>
        <path id="Trazado_718204" data-name="Trazado 718204" d="M33.93,120.744c.214.838-.244.852-.851.891-.756.049-.812-.286-.845-.909-.039-.756.285-.827.912-.841.713-.016,1.009.186.784.859" transform="translate(-25.352 -94.297)"/>
        <path id="Trazado_718205" data-name="Trazado 718205" d="M17.183,119.907c.805-.208.769.295.819.878.066.781-.32.788-.92.831-.781.055-.793-.321-.829-.923-.046-.764.28-.921.931-.787" transform="translate(-12.78 -94.278)"/>
        <path id="Trazado_718206" data-name="Trazado 718206" d="M29.443,60.243c0,1.207-.023,2.416.011,3.622.015.507-.131.673-.65.658q-1.916-.053-3.834,0c-.51.013-.662-.137-.657-.652q.038-3.622,0-7.245c-.005-.506.131-.673.65-.658q1.916.053,3.834,0c.51-.013.672.136.656.652-.036,1.206-.011,2.415-.011,3.622m-1.706.061c0-.673-.043-1.349.012-2.017.058-.7-.384-.627-.806-.6-.4.03-.957-.237-.924.586.049,1.237.049,2.479,0,3.716-.027.643.14.832.809.842.743.01,1.014-.187.924-.939a13.456,13.456,0,0,1-.012-1.592" transform="translate(-19.124 -44.023)"/>
        <path id="Trazado_718207" data-name="Trazado 718207" d="M34,66.587a13.411,13.411,0,0,0,.012,1.592c.09.752-.181.949-.924.939-.67-.009-.836-.2-.809-.842.051-1.237.051-2.479,0-3.716-.033-.823.525-.556.924-.586.422-.031.864-.105.806.6-.055.668-.012,1.344-.012,2.017" transform="translate(-25.39 -50.306)" fill="#69d5f3"/>
      </g>
    </g>
  </g>
</svg>
