<svg id="administración" xmlns="http://www.w3.org/2000/svg" width="315" height="183.014" viewBox="0 0 315 183.014">
  <path id="Trazado_719383" data-name="Trazado 719383" d="M310.575,158.136q0,.146,0,.293c-.005.205-.01.409-.017.614a25.584,25.584,0,0,1-1.339,7.425l-.113.32c-1.549,4.324-4.444,8.546-9.239,12.733q-1.455,1.27-3.148,2.535c-.263.2-.534.393-.806.592l-8.13,0-166.566-.052-11.983,0-94.287-.031s-.066-.172-.19-.5A181.185,181.185,0,0,1,9.061,163.08c-2.509-10.251-4.752-26.553-4.822-43.605,0-.59,0-1.182,0-1.774.1-20.2,3.323-41.187,12.813-54.213q.167-.232.338-.458c.165-.218.33-.437.494-.652.075-.1.148-.192.224-.289C44.321,28.19,86.192,28.243,106.456,30.4c1.987.211,3.764.442,5.3.663.924.133,1.761.262,2.5.382,28.957,4.67,42.026-9.889,42.026-9.889C176.7,2.748,196-1.844,222.719.605c3.352.3,6.683.762,9.971,1.363a104.2,104.2,0,0,1,35.989,13.553q1.725,1.068,3.387,2.2.6.408,1.188.827,2.112,1.5,4.109,3.1a69.947,69.947,0,0,1,18.18,21.615,59.875,59.875,0,0,1,6.595,21.116q.273,2.307.373,4.681.13,3.11-.045,6.332a72.741,72.741,0,0,1-2.027,13.343.008.008,0,0,1,0,0c-.088.358-.172.717-.251,1.073a59.525,59.525,0,0,0-1.315,17.277c1.351,20.076,11.793,36.334,11.7,51.045Z" transform="translate(0.071 0)" fill="#d9f9f8"/>
  <path id="Trazado_719384" data-name="Trazado 719384" d="M270.336,76.529h-6.679V61.749l-.31-.176h-1.992v-.007H249.769v.007h-.01v2.215h.01v1.523h-.01v2.215h.01v1.529h-.01v2.215h.01v.008l-1.227-.008V59.681h-13v1.468h-.006v2.215h.006v1.947h-.006v2.215h.006v1.529h-.006v2.215h.006v1.415h-.006V74.9h.006v1.415h-.006v2.215h.006v1.332h-.006v1.407h.006v.153H220.885V94.1H215.41V97.3h-5.9V91.8h-10.62V76.852h-1.661V75.364h-.237v1.489h-1.378v0h-6.887V75.364h-.237V76.85h-1.8v7.515l-8.92-.041v4.638H170.21V60.29H147.8V91.007h-6.843V74.4H118.554V181.856l153.111-.579L270.34,76.529Z" transform="translate(1.985 0.999)" fill="#d9f9f8"/>
  <path id="Trazado_719385" data-name="Trazado 719385" d="M118.757,93.4v87.158H107.5V93.4Z" transform="translate(1.8 1.564)" fill="#d9f9f8"/>
  <path id="Trazado_719386" data-name="Trazado 719386" d="M222.295,75.25h-.413v6.023h.413Z" transform="translate(3.715 1.26)" fill="#d9f9f8"/>
  <path id="Trazado_719387" data-name="Trazado 719387" d="M229.367,70.164h-.643V81.826h.643Z" transform="translate(3.83 1.175)" fill="#d9f9f8"/>
  <path id="Trazado_719388" data-name="Trazado 719388" d="M149.049,58.168h-.268v2.148h.268Z" transform="translate(2.491 0.974)" fill="#d9f9f8"/>
  <path id="Trazado_719389" data-name="Trazado 719389" d="M154.627,58.168h-.267v2.148h.267Z" transform="translate(2.585 0.974)" fill="#d9f9f8"/>
  <path id="Trazado_719390" data-name="Trazado 719390" d="M167.417,58.168h-.267v2.148h.267Z" transform="translate(2.799 0.974)" fill="#d9f9f8"/>
  <path id="Trazado_719391" data-name="Trazado 719391" d="M235.089,58.052h-.207v1.658h.207Z" transform="translate(3.933 0.972)" fill="#d9f9f8"/>
  <path id="Trazado_719392" data-name="Trazado 719392" d="M244.689,58.052h-.207v1.658h.207Z" transform="translate(4.094 0.972)" fill="#d9f9f8"/>
  <path id="Trazado_719393" data-name="Trazado 719393" d="M162.416,58.168h-.267v2.148h.267Z" transform="translate(2.715 0.974)" fill="#d9f9f8"/>
  <path id="Trazado_719394" data-name="Trazado 719394" d="M124.4,78.974h-2.639v4.472H124.4Z" transform="translate(2.039 1.322)" fill="#d9f9f8"/>
  <path id="Trazado_719395" data-name="Trazado 719395" d="M195.038,80.045H192.4v4.472h2.639Z" transform="translate(3.222 1.34)" fill="#d9f9f8"/>
  <path id="Trazado_719396" data-name="Trazado 719396" d="M153.55,63.812h-2.638v4.472h2.638Z" transform="translate(2.527 1.068)" fill="#d9f9f8"/>
  <path id="Trazado_719397" data-name="Trazado 719397" d="M158.7,63.812h-2.638v4.472H158.7Z" transform="translate(2.613 1.068)" fill="#d9f9f8"/>
  <path id="Trazado_719398" data-name="Trazado 719398" d="M257.546,97.884h-2.638v4.472h2.638Z" transform="translate(4.268 1.639)" fill="#d9f9f8"/>
  <path id="Trazado_719399" data-name="Trazado 719399" d="M125.692,100.258h-2.638v4.473h2.638Z" transform="translate(2.06 1.679)" fill="#d9f9f8"/>
  <path id="Trazado_719400" data-name="Trazado 719400" d="M294.2,105.85a59.558,59.558,0,0,1,1.314-17.277c.081-.356.164-.714.252-1.073a.009.009,0,0,1,0,0A72.83,72.83,0,0,0,297.8,74.155H283.112V181.4l8.13,0c.272-.2.542-.393.806-.592q1.693-1.264,3.148-2.535c4.795-4.187,7.689-8.408,9.238-12.734.039-.106.076-.212.113-.319a25.515,25.515,0,0,0,1.338-7.425c.007-.205.012-.408.017-.614,0-.1,0-.2,0-.293.089-14.71-10.353-30.968-11.7-51.045Z" transform="translate(4.74 1.242)" fill="#d9f9f8"/>
  <path id="Trazado_719401" data-name="Trazado 719401" d="M283.3,93.4v87.158H272.89V93.4Z" transform="translate(4.569 1.564)" fill="#d9f9f8"/>
  <path id="Trazado_719402" data-name="Trazado 719402" d="M288.52,78.974h-2.441v4.472h2.441Z" transform="translate(4.79 1.322)" fill="#d9f9f8"/>
  <path id="Trazado_719403" data-name="Trazado 719403" d="M295.564,87.279a0,0,0,0,0,0,0c-.088.358-.172.717-.252,1.073V87.28h.253Z" transform="translate(4.945 1.461)" fill="#d9f9f8"/>
  <path id="Trazado_719404" data-name="Trazado 719404" d="M289.721,100.258h-2.442v4.473h2.442Z" transform="translate(4.81 1.679)" fill="#d9f9f8"/>
  <path id="Trazado_719405" data-name="Trazado 719405" d="M108.14,78.689h-5.613V63.911c-.085-.061-.173-.118-.257-.177H100.6v-.007H90.864v.007h-.009v2.217h.009v1.523h-.009v2.215h.009v1.528h-.009v2.215h.009v.007l-1.032-.007V61.844H78.913v1.467h-.005v2.215h.005v1.947h-.005v2.215h.005v1.528h-.005v2.215h.005v1.413h-.005v2.218h.005v1.413h-.005v2.215h.005v1.333h-.005v1.407h.005v.154H66.6V96.264h-4.6v3.193H57.049v-5.5h-8.92V79.013h-1.4V77.525h-.2v1.489H39.592V77.525h-.2v1.487H37.886v7.514l-7.492-.04v4.637H24.041V62.451H17.055C7.565,75.477,4.341,96.464,4.243,116.664c0,.592,0,1.185,0,1.774.07,17.051,2.313,33.354,4.822,43.605a180.788,180.788,0,0,0,5.692,18.975c.124.33.19.5.19.5l94.287.035v0Z" transform="translate(0.071 1.036)" fill="#d9f9f8"/>
  <path id="Trazado_719406" data-name="Trazado 719406" d="M68.178,77.411h-.346v6.023h.346Z" transform="translate(1.136 1.296)" fill="#d9f9f8"/>
  <path id="Trazado_719407" data-name="Trazado 719407" d="M74.117,72.325h-.54V83.987h.54Z" transform="translate(1.232 1.211)" fill="#d9f9f8"/>
  <path id="Trazado_719408" data-name="Trazado 719408" d="M22.087,60.329h-.225v2.148h.225Z" transform="translate(0.366 1.01)" fill="#d9f9f8"/>
  <path id="Trazado_719409" data-name="Trazado 719409" d="M78.923,60.214h-.173v1.658h.173Z" transform="translate(1.319 1.008)" fill="#d9f9f8"/>
  <path id="Trazado_719410" data-name="Trazado 719410" d="M86.985,60.214h-.173v1.658h.173Z" transform="translate(1.454 1.008)" fill="#d9f9f8"/>
  <path id="Trazado_719411" data-name="Trazado 719411" d="M17.887,61.067v1.4h-.224V61.355C17.738,61.258,17.812,61.163,17.887,61.067Z" transform="translate(0.296 1.023)" fill="#d9f9f8"/>
  <path id="Trazado_719412" data-name="Trazado 719412" d="M19.879,65.1H17.663v4.472h2.216Z" transform="translate(0.296 1.09)" fill="#d9f9f8"/>
  <path id="Trazado_719413" data-name="Trazado 719413" d="M26.838,100.841H24.622v4.473h2.216Z" transform="translate(0.412 1.688)" fill="#d9f9f8"/>
  <path id="Trazado_719414" data-name="Trazado 719414" d="M38.983,113.718H36.767v4.472h2.216Z" transform="translate(0.616 1.904)" fill="#d9f9f8"/>
  <path id="Trazado_719415" data-name="Trazado 719415" d="M12.469,92.418H10.253V96.89h2.216Z" transform="translate(0.172 1.547)" fill="#d9f9f8"/>
  <path id="Trazado_719416" data-name="Trazado 719416" d="M82.07,64.005H79.854v4.472H82.07Z" transform="translate(1.337 1.072)" fill="#d9f9f8"/>
  <path id="Trazado_719417" data-name="Trazado 719417" d="M73.3,100.841H71.084v4.473H73.3Z" transform="translate(1.19 1.688)" fill="#d9f9f8"/>
  <path id="Trazado_719418" data-name="Trazado 719418" d="M91.1,109.319H88.879v4.473H91.1Z" transform="translate(1.488 1.83)" fill="#d9f9f8"/>
  <path id="Trazado_719419" data-name="Trazado 719419" d="M110.074,30.559v151.38h-5.3V29.9C106.762,30.107,108.538,30.338,110.074,30.559Z" transform="translate(1.754 0.501)" fill="#a6f1ef"/>
  <path id="Trazado_719420" data-name="Trazado 719420" d="M272.951,21.361V182.148h-5.3V17.431q.6.408,1.187.827Q270.955,19.755,272.951,21.361Z" transform="translate(4.482 0.292)" fill="#a6f1ef"/>
  <path id="Trazado_719421" data-name="Trazado 719421" d="M141.951,177.587h-3.286l-.922-41.817h5.02Z" transform="translate(2.306 2.273)" fill="#2b478b"/>
  <path id="Trazado_719422" data-name="Trazado 719422" d="M156.454,176.97H124.5v-2.887l16.289-1.469,15.67,1.469Z" transform="translate(2.085 2.89)" fill="#2b478b"/>
  <path id="Trazado_719423" data-name="Trazado 719423" d="M121.441,176.5a2.629,2.629,0,1,1,2.628,2.628A2.628,2.628,0,0,1,121.441,176.5Z" transform="translate(2.033 2.911)" fill="#2b478b"/>
  <path id="Trazado_719424" data-name="Trazado 719424" d="M152.875,176.5a2.629,2.629,0,1,1,2.629,2.628A2.629,2.629,0,0,1,152.875,176.5Z" transform="translate(2.56 2.911)" fill="#2b478b"/>
  <path id="Trazado_719425" data-name="Trazado 719425" d="M155.336,138.513H125.667a2.743,2.743,0,0,1-2.743-2.743H158.08a2.743,2.743,0,0,1-2.743,2.743Z" transform="translate(2.058 2.273)" fill="#2b478b"/>
  <path id="Trazado_719426" data-name="Trazado 719426" d="M118.445,136.661a4.562,4.562,0,0,1-4.562-4.562V95.652c0-7.216,4.718-13.066,10.537-13.066h23.828c5.82,0,10.536,5.849,10.536,13.066v41.009H118.445Z" transform="translate(1.907 1.383)" fill="#00817d"/>
  <path id="Trazado_719427" data-name="Trazado 719427" d="M118.875,136.661a2.5,2.5,0,0,1-2.5-2.5V95.652c0-7.216,4.718-13.066,10.537-13.066h23.827c5.82,0,10.537,5.849,10.537,13.066v41.009h-42.4Z" transform="translate(1.949 1.383)" fill="#00aca7"/>
  <path id="Trazado_719428" data-name="Trazado 719428" d="M174.14,135.865H116.677a2.891,2.891,0,1,1,0-5.782H174.14a2.891,2.891,0,1,1,0,5.782Z" transform="translate(1.905 2.178)" fill="#00817d"/>
  <path id="Trazado_719429" data-name="Trazado 719429" d="M173.357,21.793a8.929,8.929,0,0,1,8.42-3.71s8.619-6.957,17.811-.928c0,0,9.77-1.494,17.006,1.293,4.825,1.858,6.419,3.808,6.419,3.808l-49.656-.464Z" transform="translate(2.903 0.246)" fill="#f8fcff"/>
  <path id="Trazado_719430" data-name="Trazado 719430" d="M209.68,33.011a5.128,5.128,0,0,1,4.89-2.262s5.006-4.242,10.345-.566c0,0,5.674-.911,9.877.788a9.337,9.337,0,0,1,3.728,2.322l-28.841-.282Z" transform="translate(3.511 0.48)" fill="#f8fcff"/>
  <path id="Trazado_719431" data-name="Trazado 719431" d="M119.167,51.176a6.924,6.924,0,0,1,6.606-3.056s6.762-5.73,13.973-.764c0,0,7.666-1.23,13.343,1.066,3.785,1.531,5.035,3.137,5.035,3.137Z" transform="translate(1.995 0.759)" fill="#f8fcff"/>
  <path id="Trazado_719432" data-name="Trazado 719432" d="M234.146,179.187a12.251,12.251,0,0,1,.321-3c.321-.75,1.5-3.8,1.5-3.8h4.6a28.272,28.272,0,0,1,.91,3.693c.054.911,0,3.11,0,3.11Z" transform="translate(3.921 2.886)" fill="#003759"/>
  <path id="Trazado_719433" data-name="Trazado 719433" d="M263.008,179.187a12.251,12.251,0,0,0-.321-3c-.321-.75-1.5-3.8-1.5-3.8h-4.6a28.108,28.108,0,0,0-.91,3.693c-.054.911,0,3.11,0,3.11Z" transform="translate(4.281 2.886)" fill="#003759"/>
  <path id="Trazado_719434" data-name="Trazado 719434" d="M244.849,54.735a43.035,43.035,0,0,1-.8,7.264l-5.083,3.545,19.132,2.863-4.562-6.3s-1.378-6.727-.656-9.216-8.027,1.847-8.027,1.847Z" transform="translate(4.001 0.873)" fill="#ffb27d"/>
  <path id="Trazado_719435" data-name="Trazado 719435" d="M244.725,55.374s1.513,3.642,4.363,3.562,3.5-3.3,3.5-3.3l-7.86-.259Z" transform="translate(4.098 0.927)" fill="#ed985f"/>
  <path id="Trazado_719436" data-name="Trazado 719436" d="M243.082,52.712a45.821,45.821,0,0,0-1.562-5.986c-.643-1.391-1.177-7.6,5.941-7.921,0,0,2.729.321,4.228-.589,0,0,0,.91-.375,1.231A4.73,4.73,0,0,1,255.7,41c1.927,2.141-1.284,9.633-1.124,11.4Z" transform="translate(4.038 0.64)" fill="#004a77"/>
  <path id="Trazado_719437" data-name="Trazado 719437" d="M248.791,57.719c-2.065-.037-5.866-2.786-5.866-6.191V46.215a2.12,2.12,0,0,1,1.927-2.26h7.878a2.12,2.12,0,0,1,1.927,2.26v5.013c0,3.57-3.5,6.533-5.866,6.492Z" transform="translate(4.068 0.736)" fill="#ffb27d"/>
  <path id="Trazado_719438" data-name="Trazado 719438" d="M242.929,49.072s.011-3.192,2.54-3.684,8.188,1.556,8.99-.772-10.938-2.287-11.531-.8,0,5.258,0,5.258Z" transform="translate(4.063 0.716)" fill="#004a77"/>
  <path id="Trazado_719439" data-name="Trazado 719439" d="M234.728,102.329s.805,24.589-.4,38.62.008,33.555.008,33.555a9.1,9.1,0,0,0,8.025,0s4.578-27.1,4.549-33.555c-.031-6.87,4.982-37.548,4.982-37.548l-17.167-1.072Z" transform="translate(3.915 1.713)" fill="#2b478b"/>
  <path id="Trazado_719440" data-name="Trazado 719440" d="M263.012,174.5a9.1,9.1,0,0,1-8.024,0s-4.577-27.1-4.549-33.555c.013-2.9-.873-10.051-1.9-17.34-1.407-9.972-3.081-20.207-3.081-20.207l17.833-1.114s-1.47,24.631-.266,38.661S263.012,174.5,263.012,174.5Z" transform="translate(4.11 1.713)" fill="#2b478b"/>
  <path id="Trazado_719441" data-name="Trazado 719441" d="M263.267,107.1a89.3,89.3,0,0,1-14.537,1.471,70.379,70.379,0,0,1-8.928-.682c-2.893-.384-4.968-.789-4.968-.789s-1.54.135-.63-7.464a106.994,106.994,0,0,0,.321-16.376c-.018-.6-.005-1.3.033-2.09.295-6.263,2.189-17.539,3.633-18.143a26.439,26.439,0,0,1,5.939-1.186c0,.074,2.2,3.291,4.813,3.652a9.055,9.055,0,0,0,4.674-3.548,50.781,50.781,0,0,1,7.326,1.413s.273,1.195,1.3,21.918c.409,8.209,3.211,21.852,1.022,21.825Z" transform="translate(3.917 1.035)" fill="#01d8d1"/>
  <path id="Trazado_719442" data-name="Trazado 719442" d="M250.388,140.738c.013-2.9-.873-10.051-1.9-17.34a34.3,34.3,0,0,1,3.669-8.545c3.291,9.232-1.766,25.884-1.766,25.884Z" transform="translate(4.161 1.923)" fill="#003759"/>
  <path id="Trazado_719443" data-name="Trazado 719443" d="M227.757,87.675c-.181.151.451,1.717,1.383,3.76,1.917,4.195,5.1,10.391,5.1,10.391a18.319,18.319,0,0,1-.967,2.83A67.39,67.39,0,0,1,222.26,94.121c-3.1-3.861-3.733-6.075-3.733-6.075,11.925-24.275,20.318-25.17,20.318-25.17l-.99,16.043s-9.544,8.3-10.1,8.756Z" transform="translate(3.659 1.053)" fill="#01d8d1"/>
  <path id="Trazado_719444" data-name="Trazado 719444" d="M233.363,101.512s2.891-2.676,4.067-1.178,1.391,3.854.482,3.694-2.783-1.018-3.05-.59-1.467,1.247-1.831.6.331-2.523.331-2.523Z" transform="translate(3.9 1.672)" fill="#ffb27d"/>
  <path id="Trazado_719445" data-name="Trazado 719445" d="M234.178,101.355a18.32,18.32,0,0,1-.967,2.83A67.394,67.394,0,0,1,222.2,93.651a13.74,13.74,0,0,0,6.879-2.686C230.994,95.159,234.178,101.355,234.178,101.355Z" transform="translate(3.72 1.523)" fill="#ffb27d"/>
  <path id="Trazado_719446" data-name="Trazado 719446" d="M279.611,88.042s-.636,2.214-3.735,6.075a67.474,67.474,0,0,1-11.013,10.534,18.321,18.321,0,0,1-.967-2.83s3.184-6.2,5.1-10.391c.931-2.042,1.565-3.609,1.383-3.76-.428-.357-6.259-5.422-8.859-7.68l-1.237-1.076-.595-15.8s8,.656,19.923,24.931Z" transform="translate(4.348 1.057)" fill="#01d8d1"/>
  <path id="Trazado_719447" data-name="Trazado 719447" d="M264.535,101.512s-2.891-2.676-4.067-1.178-1.391,3.854-.482,3.694,2.783-1.018,3.05-.59,1.467,1.247,1.831.6-.331-2.523-.331-2.523Z" transform="translate(4.344 1.672)" fill="#ffb27d"/>
  <path id="Trazado_719448" data-name="Trazado 719448" d="M263.826,101.355a18.316,18.316,0,0,0,.967,2.83,67.4,67.4,0,0,0,11.013-10.534,13.746,13.746,0,0,1-6.879-2.686C267.01,95.159,263.826,101.355,263.826,101.355Z" transform="translate(4.418 1.523)" fill="#ffb27d"/>
  <path id="Trazado_719449" data-name="Trazado 719449" d="M244.241,60.634a2.034,2.034,0,0,0-1.091,1.317s3.408,3.505,5.638,3.559Z" transform="translate(4.071 1.015)" fill="#00aca7"/>
  <path id="Trazado_719450" data-name="Trazado 719450" d="M248.7,65.513l4.4-5.053a2.066,2.066,0,0,1,.9,1.581s-3.4,3.606-5.293,3.472Z" transform="translate(4.164 1.012)" fill="#00aca7"/>
  <path id="Trazado_719451" data-name="Trazado 719451" d="M247.954,65.065s-3.357,28.979-2.187,32.512a24.177,24.177,0,0,0,2.047,4.49,1.191,1.191,0,0,0,2.06,0c.891-1.548,2.056-3.788,2.056-4.925,0-1.841-2.546-32.1-2.546-32.1l-1.429.025Z" transform="translate(4.111 1.089)" fill="#00817d"/>
  <path id="Trazado_719452" data-name="Trazado 719452" d="M247.055,63.668a21.079,21.079,0,0,1,3.264-.078.342.342,0,0,1,.262.508c-.346.624-1.052,1.7-1.79,1.7-1.038,0-2.655-2.062-1.736-2.133Z" transform="translate(4.132 1.064)" fill="#00aca7"/>
  <path id="Trazado_719453" data-name="Trazado 719453" d="M247.076,54.128a2.258,2.258,0,0,0,1.767.839,2.1,2.1,0,0,0,1.651-.839A11.21,11.21,0,0,0,247.076,54.128Z" transform="translate(4.137 0.904)" fill="#fff"/>
  <path id="Trazado_719454" data-name="Trazado 719454" d="M207.487,111.256l-38.2.064,5.625-25.205,38.2-.064Z" transform="translate(2.835 1.441)" fill="#003759"/>
  <path id="Trazado_719455" data-name="Trazado 719455" d="M208.676,111.286l-38.2.065L176.1,86.113l38.2-.064Z" transform="translate(2.854 1.441)" fill="#003759"/>
  <path id="Trazado_719456" data-name="Trazado 719456" d="M191.526,117.327l-7.936.073,5.493-16.746,7.937-.074Z" transform="translate(3.074 1.684)" fill="#112544"/>
  <path id="Trazado_719457" data-name="Trazado 719457" d="M196.1,116.337H178.77v.8H196.1Z" transform="translate(2.993 1.948)" fill="#112544"/>
  <path id="Trazado_719458" data-name="Trazado 719458" d="M98.6,116.148h.715V103.832L92,85.164l13.064-10.124-.438-.565L91.139,84.926,98.6,103.969Z" transform="translate(1.526 1.247)" fill="#003759"/>
  <path id="Trazado_719459" data-name="Trazado 719459" d="M106.324,76.346a.729.729,0,0,0,.173-1.017l-1.088-1.535a.73.73,0,1,0-1.191.844l1.089,1.535A.729.729,0,0,0,106.324,76.346Z" transform="translate(1.743 1.23)" fill="#003759"/>
  <path id="Trazado_719460" data-name="Trazado 719460" d="M92.685,84.791a.947.947,0,1,0-.947.947A.947.947,0,0,0,92.685,84.791Z" transform="translate(1.52 1.404)" fill="#003759"/>
  <path id="Trazado_719461" data-name="Trazado 719461" d="M102.613,117.162h-7.2v-.674a1.376,1.376,0,0,1,1.375-1.375h4.5a1.322,1.322,0,0,1,1.322,1.322v.726Z" transform="translate(1.598 1.927)" fill="#003759"/>
  <path id="Trazado_719462" data-name="Trazado 719462" d="M98.09,115.651H99.6V104.208H98.09Z" transform="translate(1.642 1.745)" fill="#003759"/>
  <path id="Trazado_719463" data-name="Trazado 719463" d="M104.727,86.96c.034.038.068.077.1.112l.007.008q.05.055.1.107c.978.848,4.216-.672,7.35-3.474s5-5.851,4.27-6.917c-.031-.038-.062-.076-.1-.112l-.007-.008c-.032-.039-.065-.077-.1-.115a7.8,7.8,0,1,0-11.63,10.4Z" transform="translate(1.72 1.238)" fill="#00817d"/>
  <path id="Trazado_719464" data-name="Trazado 719464" d="M104.8,87.032l.007.007a.41.41,0,0,0,.033.039.718.718,0,0,0,.07.068c.976.847,4.215-.671,7.348-3.474s5-5.85,4.271-6.916a.643.643,0,0,0-.061-.077.194.194,0,0,0-.036-.036l-.007-.009c-.666-.63-2.472-.068-4.58,1.3a23.044,23.044,0,0,0-2.794,2.153,24.455,24.455,0,0,0-1.994,2c-1.9,2.158-2.858,4.15-2.256,4.948Z" transform="translate(1.752 1.279)" fill="#f9ddbf"/>
  <path id="Trazado_719465" data-name="Trazado 719465" d="M107.015,82.059a3.215,3.215,0,0,0,4.788-4.152,23.042,23.042,0,0,0-2.794,2.153A24.471,24.471,0,0,0,107.015,82.059Z" transform="translate(1.792 1.304)" fill="#ffefe1"/>
  <g id="Grupo_1017438" data-name="Grupo 1017438" transform="translate(169.186 127.717)" opacity="0.7">
    <path id="Trazado_719466" data-name="Trazado 719466" d="M198.423,157.372s-3.954-4.613-.244-7.543c0,0,2.711-1.641,4.92-1.508,0,0-3.132,5.25-2.119,5.773s3.068-6.1,3.068-6.1,6.168-.6,8.15.356c0,0-5.272,4.315-4.162,4.571s6.805-3.978,6.805-3.978,5.74.976,5.433,4.478-2.283,4.582-3.153,4.49-5.955-2.035-6.065-1.322,2.95,3.04,5.094,3.149c0,0-4.048,4.462-6.737,3.174s-2.919-3.33-4.6-4.1-3.107-.764-2.416.017,3.726,1.539,4.685,3.235,1.819,2.84-.964,2.421-7.305-2.454-7.5-4.786l-.2-2.331Z" transform="translate(-165.894 -125.242)" fill="#a6c6da"/>
    <path id="Trazado_719467" data-name="Trazado 719467" d="M217.482,153.419s-15.59-.6-19.032,3.859a11.277,11.277,0,0,1-3.1,4.356l-.366,1s2.7-2.848,3.668-3.02C198.647,159.609,197.136,154.085,217.482,153.419Z" transform="translate(-165.921 -125.148)" fill="#a6c6da"/>
    <path id="Trazado_719468" data-name="Trazado 719468" d="M195.4,161.5a9.787,9.787,0,0,0-3.579,6.9l.608.055s1.069-4.572,3-6.36S195.4,161.5,195.4,161.5Z" transform="translate(-165.974 -125.019)" fill="#a6c6da"/>
    <path id="Trazado_719469" data-name="Trazado 719469" d="M186.736,153.737s5.545-3.105,2.958-7.32c0,0-2.07-2.588-4.288-3.252,0,0,1.184,6.283,0,6.432s-.813-7.1-.813-7.1-5.84-2.809-8.132-2.588c0,0,3.624,6.136,2.44,5.988s-5.249-6.358-5.249-6.358-5.988-1.108-6.949,2.44.592,5.323,1.478,5.545,6.579.147,6.432.887-3.992,1.923-6.136,1.257c0,0,2.367,5.84,5.471,5.544s4.065-2.219,5.988-2.366,3.327.37,2.365.888-4.213.17-5.766,1.49-2.809,2.133.073,2.724,8.058.222,9.093-2l1.035-2.218Z" transform="translate(-166.399 -125.383)" fill="#a6c6da"/>
    <path id="Trazado_719470" data-name="Trazado 719470" d="M169.387,143.031s15.525,5.028,17.3,10.646a11.807,11.807,0,0,0,1.478,5.4v1.108s-1.626-3.769-2.513-4.288c0,0,3.475-4.879-16.263-12.863Z" transform="translate(-166.349 -125.322)" fill="#a6c6da"/>
    <path id="Trazado_719471" data-name="Trazado 719471" d="M187.867,158.82a10.235,10.235,0,0,1,1.029,8.061l-.616-.166s.6-4.874-.655-7.327.241-.569.241-.569Z" transform="translate(-166.052 -125.069)" fill="#a6c6da"/>
    <path id="Trazado_719472" data-name="Trazado 719472" d="M194.728,147.085s-8.292-4.643-4.422-10.944c0,0,3.1-3.87,6.412-4.864,0,0-1.768,9.4,0,9.617s1.216-10.612,1.216-10.612,8.733-4.2,12.159-3.87c0,0-5.416,9.175-3.648,8.953s7.848-9.507,7.848-9.507,8.953-1.659,10.391,3.648-.884,7.959-2.21,8.291-9.839.222-9.617,1.327S218.826,142,222.031,141c0,0-3.538,8.734-8.18,8.292s-6.081-3.317-8.954-3.537-4.974.553-3.537,1.327,6.3.253,8.623,2.227,4.2,3.189-.111,4.074-12.048.331-13.6-2.985l-1.547-3.316Z" transform="translate(-166.016 -125.613)" fill="#01d8d1"/>
    <path id="Trazado_719473" data-name="Trazado 719473" d="M220.541,131.074s-23.213,7.518-25.867,15.919a17.646,17.646,0,0,1-2.211,8.07v1.657s2.433-5.638,3.759-6.413c0,0-5.2-7.3,24.32-19.235Z" transform="translate(-165.963 -125.522)" fill="#01d8d1"/>
    <path id="Trazado_719474" data-name="Trazado 719474" d="M192.5,154.685a15.31,15.31,0,0,0-1.538,12.055l.92-.248s-.895-7.289.979-10.955S192.5,154.685,192.5,154.685Z" transform="translate(-165.999 -125.144)" fill="#01d8d1"/>
    <path id="Trazado_719475" data-name="Trazado 719475" d="M195.071,179.416A14.316,14.316,0,0,0,209.388,165.1H180.755a14.316,14.316,0,0,0,14.317,14.317Z" transform="translate(-166.159 -124.952)" fill="#01d8d1"/>
    <path id="Trazado_719476" data-name="Trazado 719476" d="M198.565,179.306A14.331,14.331,0,0,1,182.471,165.1h3.557A14.319,14.319,0,0,0,198.565,179.3Z" transform="translate(-166.13 -124.952)" fill="#a6f1ef"/>
    <path id="Trazado_719477" data-name="Trazado 719477" d="M209.721,165.1h-29.43v.438h29.43Z" transform="translate(-166.167 -124.952)" fill="#a6c6da"/>
    <path id="Trazado_719478" data-name="Trazado 719478" d="M188.822,179.2h13.4a1.149,1.149,0,0,0-1.149-1.149H189.97A1.149,1.149,0,0,0,188.822,179.2Z" transform="translate(-166.024 -124.735)" fill="#a6c6da"/>
  </g>
  <path id="Trazado_719479" data-name="Trazado 719479" d="M88.295,180.888H88.24c-.323,0-.584-.424-.576-.939l.874-60.348,2.575-.479-2.2,60.83c-.019.525-.292.935-.622.935Z" transform="translate(1.468 1.995)" fill="#2b478b"/>
  <path id="Trazado_719480" data-name="Trazado 719480" d="M215.689,180.888h.054c.323,0,.585-.424.576-.939l-.874-60.348-2.575-.479,2.2,60.83c.019.525.293.935.622.935Z" transform="translate(3.564 1.995)" fill="#2b478b"/>
  <path id="Trazado_719481" data-name="Trazado 719481" d="M83.577,117.1H223.43a1.592,1.592,0,0,1,1.591,1.592v.459a1.592,1.592,0,0,1-1.591,1.591H83.577a1.592,1.592,0,0,1-1.591-1.591V118.7A1.592,1.592,0,0,1,83.577,117.1Z" transform="translate(1.373 1.961)" fill="#2b478b"/>
  <path id="Trazado_719482" data-name="Trazado 719482" d="M44.564,76.741c-.49-.946,10.7-4.353,10.88,4.984,0,0,20.967-.515,10.956-12.2-3.466-4.046-3.109-7.392-3.005-10.505s-2.158-12.166-9.919-11.254a5.777,5.777,0,0,0-4.569.489C43.137,51.246,30.215,80.185,44.564,76.741Z" transform="translate(0.637 0.795)" fill="#163560"/>
  <path id="Trazado_719483" data-name="Trazado 719483" d="M78.171,86.568s1.365-2.078,2.465-2.118,3.137-.611,2.974-.2-1.426.448-1.549.693,1.874.611,2.444.652,1.915,0,1.874.285a6.472,6.472,0,0,1-4.1,1.3,11.4,11.4,0,0,0-3.758.489l-.346-1.1Z" transform="translate(1.309 1.408)" fill="#ffb27d"/>
  <path id="Trazado_719484" data-name="Trazado 719484" d="M79.107,89.172a19.674,19.674,0,0,1-6.681,5.586h-.005a7.793,7.793,0,0,1-4.314.7,8.729,8.729,0,0,1-3.029-1.073,15.145,15.145,0,0,1-4.234-3.769c-.32-.4-.6-.788-.855-1.146a18.659,18.659,0,0,1-1.234-2.01l.97-16.591s3.471.805,4.49,2.353,5.3,13.872,6.029,14.238S78.68,86.1,78.68,86.1a3.134,3.134,0,0,1,.427,3.077Z" transform="translate(0.984 1.187)" fill="#01d8d1"/>
  <path id="Trazado_719485" data-name="Trazado 719485" d="M30.536,168.953s-2.349,2.143-1.891,3.667,2.578,2.54,2.865,4.4,1.433,2.877,2.464,2.877h4.917s.759-1.31-1.075-1.705-2.525-2.584-2.41-4.615a35.826,35.826,0,0,0-.172-4.74l-3.9-.9-.8,1.017Z" transform="translate(0.479 2.812)" fill="#003759"/>
  <path id="Trazado_719486" data-name="Trazado 719486" d="M50.068,169.831s-.845,9.084.186,9.591l13.2-.027s0-1.523-2.121-1.863-5.845-1.58-6.475-4.345-4.791-3.357-4.791-3.357Z" transform="translate(0.833 2.844)" fill="#003759"/>
  <path id="Trazado_719487" data-name="Trazado 719487" d="M65.059,94.182a15.148,15.148,0,0,1-4.234-3.769c-.32-.4-.6-.788-.854-1.146.727-3.439,1.8-8.167,1.564-5.173-.3,3.886,2.735,8.866,3.524,10.089Z" transform="translate(1.004 1.392)" fill="#80a3d8"/>
  <path id="Trazado_719488" data-name="Trazado 719488" d="M40.811,106.462c2.717-6.092,4.379-7.841,4.062-9.732-.236-1.408.719-26.239.719-26.239.322-.1.968-.189,1.322-.268a3.316,3.316,0,0,0,2.421-2.1,16.882,16.882,0,0,0,.821-5.6l.348.068,5.85,1.159s-.133,1.841-.138,3.576v.043a3.366,3.366,0,0,0,2.428,3.254c.739.213,1.383.4,1.383.4a53.615,53.615,0,0,1,2.558,12.435c.41,6.3-3.907,9.039.033,21.631,4.022,12.861-23.308,4.75-21.807,1.385Z" transform="translate(0.682 1.047)" fill="#ffb27d"/>
  <path id="Trazado_719489" data-name="Trazado 719489" d="M56.194,63.74s-.133,1.841-.138,3.576c-3.274-.092-5-3.079-5.714-4.734l5.85,1.159Z" transform="translate(0.843 1.048)" fill="#e8945b"/>
  <path id="Trazado_719490" data-name="Trazado 719490" d="M57.3,65.552s-7.746.128-7.752-4.7S48.542,52.8,53.488,52.51s5.908,1.555,6.3,3.165S59.317,65.394,57.3,65.552Z" transform="translate(0.828 0.879)" fill="#ffb27d"/>
  <path id="Trazado_719491" data-name="Trazado 719491" d="M57.057,52.41s-2.121,5.662-5.376,6.5-4.667-.035-4.667-.035a9.219,9.219,0,0,0,3.015-5.445s5.428-3.712,7.028-1.017Z" transform="translate(0.787 0.861)" fill="#163560"/>
  <path id="Trazado_719492" data-name="Trazado 719492" d="M56.374,52.861a4.806,4.806,0,0,1,2.22,1.735,7.8,7.8,0,0,1,1.048,4.43s1.6-3.847-.2-6.025c-1.9-2.309-3.07-.141-3.07-.141Z" transform="translate(0.944 0.87)" fill="#163560"/>
  <path id="Trazado_719493" data-name="Trazado 719493" d="M55.515,62.4a1.947,1.947,0,0,0,1.6.653,1.425,1.425,0,0,0,1.194-.788A5.209,5.209,0,0,0,55.515,62.4Z" transform="translate(0.93 1.04)" fill="#d9f9f8"/>
  <path id="Trazado_719494" data-name="Trazado 719494" d="M40.077,81.343a52.68,52.68,0,0,0,0,6.1c.131,2.206,2.362,5.161,2.679,5.891.795,1.833,1.69,2.131,1.69,2.131l6.931,1.7,2.437.6,7.685-2.3s3.5-9.77,2.1-15.27a42.29,42.29,0,0,0-3.553-9.319s-6.271,6.14-14.437-.521L40.077,81.341Z" transform="translate(0.67 1.178)" fill="#01d8d1"/>
  <path id="Trazado_719495" data-name="Trazado 719495" d="M42.071,88.086a21.648,21.648,0,0,0,.65,4.992c.795,1.833,1.69,2.131,1.69,2.131l6.931,1.7,3.01-.885S44.3,94.5,45.416,85.854l-3.347,2.232Z" transform="translate(0.704 1.438)" fill="#f2ccaa"/>
  <path id="Trazado_719496" data-name="Trazado 719496" d="M60.874,96.513s3.805,11.847,4.05,15.88-7.275,57.3-7.577,59.154c-.286,1.752-2.461,2.868-2.461,2.868a3.291,3.291,0,0,1-2.428.186,6.007,6.007,0,0,1-2.608-1.229s-2.962-37.986-1.129-51.555a215.037,215.037,0,0,0,1.855-25.3h10.3Z" transform="translate(0.806 1.616)" fill="#003759"/>
  <path id="Trazado_719497" data-name="Trazado 719497" d="M45.031,96.166s-5.805,7.789-6.347,13.055-.849,23.762-2,28.9-5.39,15.012-5.39,31.022a3.192,3.192,0,0,0,1.8,1.407,15.094,15.094,0,0,0,1.583.437,2.489,2.489,0,0,0,2.784-1.322c2.864-5.766,11.987-24.365,12.456-28.226.331-2.733,3.211-20.816,9.5-31.426,1.509-2.548-.926-12.677-.926-12.677L45.032,96.167Z" transform="translate(0.524 1.61)" fill="#2b478b"/>
  <path id="Trazado_719498" data-name="Trazado 719498" d="M55.684,62.525s.134.569,1.548.481c0,0,1.187-.074,1.152-.7A3.819,3.819,0,0,0,55.684,62.525Z" transform="translate(0.932 1.041)" fill="#fff"/>
  <path id="Trazado_719499" data-name="Trazado 719499" d="M61.551,94.715a7.976,7.976,0,0,1-4.563,1.269c-3.626.074-12.609-.924-12.609-.924A7.442,7.442,0,0,0,44,97.353s10.972,2.767,17.329.4a4.017,4.017,0,0,0,.226-3.042Z" transform="translate(0.737 1.586)" fill="#003759"/>
  <path id="Trazado_719500" data-name="Trazado 719500" d="M56,97.226A1.667,1.667,0,1,1,57.657,99.1,1.776,1.776,0,0,1,56,97.226Zm.548,0A1.124,1.124,0,1,0,57.657,95.9,1.231,1.231,0,0,0,56.551,97.226Z" transform="translate(0.938 1.597)" fill="#fff"/>
  <path id="Trazado_719501" data-name="Trazado 719501" d="M32.76,97.077,44,106.866,57.4,91.478,46.159,81.69Z" transform="translate(0.549 1.368)" fill="#00aca7"/>
  <path id="Trazado_719502" data-name="Trazado 719502" d="M46.88,96.858s4.118.482,4.106,1.459-1.027,2.987-1.535,3.075S46.1,98.676,46.1,98.676Z" transform="translate(0.772 1.622)" fill="#ffb27d"/>
  <path id="Trazado_719503" data-name="Trazado 719503" d="M45.738,70.358s-5.5.385-7.607,5.509-6.108,13.727-6.108,15.175,2.234,5.909,14.232,8.474c0,0,1.241-1.3,1.165-2.338,0,0-7.489-6.433-7.469-7.185.038-1.423,1.228-3.3,7.8-9.877,1.788-1.788-2.018-9.759-2.018-9.759Z" transform="translate(0.536 1.178)" fill="#01d8d1"/>
  <path id="Trazado_719504" data-name="Trazado 719504" d="M314.618,179.056H.382a.382.382,0,0,0-.382.382v.2a.383.383,0,0,0,.382.382H314.618a.382.382,0,0,0,.381-.382v-.2A.382.382,0,0,0,314.618,179.056Z" transform="translate(0 2.998)" fill="#00817d"/>
</svg>
