<svg id="Grupo_1017095" data-name="Grupo 1017095" xmlns="http://www.w3.org/2000/svg" xmlns:xlink="http://www.w3.org/1999/xlink" width="505" height="266.492" viewBox="0 0 505 266.492">
  <defs>
    <clipPath id="clip-path">
      <rect id="Rectángulo_349987" data-name="Rectángulo 349987" width="505" height="266.492" fill="none"/>
    </clipPath>
    <clipPath id="clip-path-2">
      <rect id="Rectángulo_349981" data-name="Rectángulo 349981" width="505" height="266.493" fill="none"/>
    </clipPath>
    <clipPath id="clip-path-3">
      <path id="Trazado_717513" data-name="Trazado 717513" d="M781.892,70.3l-9.1,36.5h29.057l9.1-36.5Z" transform="translate(-772.796 -70.301)" fill="none"/>
    </clipPath>
    <clipPath id="clip-path-5">
      <rect id="Rectángulo_349983" data-name="Rectángulo 349983" width="70.418" height="70.419" fill="none"/>
    </clipPath>
    <clipPath id="clip-path-6">
      <rect id="Rectángulo_349984" data-name="Rectángulo 349984" width="64.856" height="64.856" fill="none"/>
    </clipPath>
    <clipPath id="clip-path-7">
      <rect id="Rectángulo_349985" data-name="Rectángulo 349985" width="69.306" height="69.306" fill="none"/>
    </clipPath>
  </defs>
  <g id="Grupo_1017094" data-name="Grupo 1017094" clip-path="url(#clip-path)">
    <g id="Grupo_1017080" data-name="Grupo 1017080" transform="translate(0 -0.001)">
      <g id="Grupo_1017079" data-name="Grupo 1017079" clip-path="url(#clip-path-2)">
        <path id="Trazado_717451" data-name="Trazado 717451" d="M78.55,390.468S23.515,400.575,6,362.338c-22.729-49.607,23.967-87.221,59.781-80.213,78.039,15.27,59.247-153.194,184.49-118.812,35.217,9.668,130.367-47.763,156.9,44.322,6.31,21.9,28.668,24.309,61.124,38.2,63.519,27.192,34.476,145.088-10.911,145.551s-378.835-.922-378.835-.922" transform="translate(0 -125.184)" fill="#01d8d1"/>
        <rect id="Rectángulo_349971" data-name="Rectángulo 349971" width="32.413" height="120.782" transform="translate(351.474 145.161)" fill="#82b479"/>
        <rect id="Rectángulo_349972" data-name="Rectángulo 349972" width="23.817" height="120.782" transform="translate(336.34 145.161)" fill="#a8d29f"/>
        <path id="Trazado_717452" data-name="Trazado 717452" d="M1825.873,1315.627a5.317,5.317,0,1,1-5.317-5.317,5.317,5.317,0,0,1,5.317,5.317" transform="translate(-1471.908 -1062.479)" fill="#82b479"/>
        <rect id="Rectángulo_349973" data-name="Rectángulo 349973" width="32.413" height="120.782" transform="translate(399.021 145.161)" fill="#699dee"/>
        <rect id="Rectángulo_349974" data-name="Rectángulo 349974" width="23.817" height="120.782" transform="translate(383.887 145.161)" fill="#afcdfb"/>
        <path id="Trazado_717453" data-name="Trazado 717453" d="M2077.26,1315.627a5.316,5.316,0,1,1-5.316-5.317,5.316,5.316,0,0,1,5.316,5.317" transform="translate(-1675.748 -1062.479)" fill="#699dee"/>
        <rect id="Rectángulo_349975" data-name="Rectángulo 349975" width="10.633" height="63.396" transform="translate(390.879 157.453)" fill="#fff"/>
        <rect id="Rectángulo_349976" data-name="Rectángulo 349976" width="32.413" height="120.782" transform="translate(446.01 145.161)" fill="#ffee58"/>
        <rect id="Rectángulo_349977" data-name="Rectángulo 349977" width="23.817" height="120.782" transform="translate(430.877 145.161)" fill="#fff388"/>
        <path id="Trazado_717454" data-name="Trazado 717454" d="M2325.7,1315.627a5.317,5.317,0,1,1-5.317-5.317,5.317,5.317,0,0,1,5.317,5.317" transform="translate(-1877.198 -1062.479)" fill="#e7d536"/>
        <rect id="Rectángulo_349978" data-name="Rectángulo 349978" width="10.633" height="63.396" transform="translate(437.868 157.453)" fill="#fff"/>
        <rect id="Rectángulo_349979" data-name="Rectángulo 349979" width="10.633" height="63.396" transform="translate(342.932 158.263)" fill="#fff"/>
        <path id="Trazado_717455" data-name="Trazado 717455" d="M1234.642,638.225l11.428,135.883s1.2,8.237-4.929,8.252c-10.074.024-50.141,0-50.141,0s7.582-1.715,7.49-5.572c-.108-4.548-13.357-139.848-13.357-139.848Z" transform="translate(-960.978 -516.469)" fill="#00354f"/>
        <path id="Trazado_717456" data-name="Trazado 717456" d="M1173.472,769.324c1.981.006,40.25.126,50.061,0,4.275-.053,5.025-3.8,5.061-6.227a12.161,12.161,0,0,0-.13-2.023l-.3-3.532-.758-9-.669-7.953-.86-10.219-.724-8.626-8.12-96.554-49.51-1.285s5.58,56.623,9.527,97.839c.441,4.592.86,9,1.247,13.106q.189,1.968.364,3.845c.366,3.9.7,7.481.992,10.642.154,1.667.3,3.215.423,4.634.5,5.558.8,9.108.8,9.783a5.729,5.729,0,0,1-.1,1.1c-.813,4.331-6.57,4.472-7.313,4.472" transform="translate(-946.702 -505.898)" fill="#004e75"/>
        <path id="Trazado_717457" data-name="Trazado 717457" d="M621,252.794H858.7L830.861,364.609l-3.811,15.313L814.085,432H573.215Z" transform="translate(-464.798 -204.98)" fill="#005d95"/>
        <path id="Trazado_717458" data-name="Trazado 717458" d="M1891.337,252.793l3.858,1.286-43.343,181.813L1846.723,432Z" transform="translate(-1497.436 -204.98)" fill="#00354f"/>
        <path id="Trazado_717459" data-name="Trazado 717459" d="M819.217,1204.186H579.829l-6.611-3.89H814.088Z" transform="translate(-464.801 -973.274)" fill="#00354f"/>
        <rect id="Rectángulo_349980" data-name="Rectángulo 349980" width="51.831" height="2.463" transform="translate(218.519 263.48)" fill="#00354f"/>
        <path id="Trazado_717460" data-name="Trazado 717460" d="M1225,1220.855l.267,1.883,48.745,9.848-.669-7.953-.319-3.778Z" transform="translate(-993.306 -989.944)" fill="#00354f"/>
        <path id="Trazado_717461" data-name="Trazado 717461" d="M1198.963,1326.933c1.981.006,40.25.126,50.061,0,4.276-.053,5.025-3.8,5.061-6.227l-48.514-9.128c.5,5.558.8,9.108.8,9.782a5.711,5.711,0,0,1-.1,1.1c-.813,4.33-6.57,4.472-7.313,4.472" transform="translate(-972.193 -1063.507)" fill="#005d95"/>
        <path id="Trazado_717462" data-name="Trazado 717462" d="M1303.844,1014.064l102.68,35.206,8.769-35.227Z" transform="translate(-1057.237 -822.248)" fill="#005d95"/>
        <path id="Trazado_717463" data-name="Trazado 717463" d="M660.533,252.793h237.7L862.4,396.775l-240.439.046Z" transform="translate(-504.328 -204.98)" fill="#004e75"/>
        <path id="Trazado_717464" data-name="Trazado 717464" d="M1175.691,1083.128a8.145,8.145,0,0,1,7.639-6.4,5.118,5.118,0,0,1,5.153,6.4,8.146,8.146,0,0,1-7.639,6.4,5.118,5.118,0,0,1-5.152-6.4" transform="translate(-953.224 -873.081)" fill="#005d95"/>
        <path id="Trazado_717465" data-name="Trazado 717465" d="M681.237,423.654H903.793L929,323.25l1.932-7.7,1.649-6.568,3.865-15.4H717.095l-4.245,15.4-1.811,6.568-2.122,7.7Z" transform="translate(-552.389 -238.055)" fill="#e9f3fe"/>
        <path id="Trazado_717466" data-name="Trazado 717466" d="M852.625,293.583h219.348l-3.865,15.4H848.38Z" transform="translate(-687.919 -238.054)" fill="#a8d29f"/>
        <path id="Trazado_717467" data-name="Trazado 717467" d="M1964.364,320.2a1.454,1.454,0,0,1,1.445,1.925,2.63,2.63,0,0,1-2.405,1.925,1.455,1.455,0,0,1-1.445-1.925,2.63,2.63,0,0,1,2.405-1.925" transform="translate(-1590.828 -259.638)" fill="#e9f3fe"/>
        <path id="Trazado_717468" data-name="Trazado 717468" d="M1930.545,320.2a1.454,1.454,0,0,1,1.445,1.925,2.63,2.63,0,0,1-2.405,1.925,1.454,1.454,0,0,1-1.445-1.925,2.629,2.629,0,0,1,2.405-1.925" transform="translate(-1563.406 -259.638)" fill="#e9f3fe"/>
        <path id="Trazado_717469" data-name="Trazado 717469" d="M1891.724,322.126a2.629,2.629,0,0,1,2.405-1.925,1.454,1.454,0,0,1,1.445,1.925,2.63,2.63,0,0,1-2.405,1.925,1.454,1.454,0,0,1-1.445-1.925" transform="translate(-1533.878 -259.638)" fill="#e9f3fe"/>
        <path id="Trazado_717470" data-name="Trazado 717470" d="M246.37,1327.546s-2.833,2.626-2.28,4.491,3.109,3.109,3.455,5.39,1.727,3.524,2.971,3.524h5.93s.915-1.6-1.3-2.088-3.045-3.163-2.907-5.651a44.551,44.551,0,0,0-.207-5.8l-4.7-1.105Z" transform="translate(-197.865 -1075.447)" fill="#233862"/>
        <path id="Trazado_717471" data-name="Trazado 717471" d="M456,1367.056H440.251a1.382,1.382,0,0,1-.307-.092c-1.049-.525-.722-4.54-.6-5.784.025-.23.042-.366.042-.366s5.529-4.421,6.288-1.035c.023.105.052.209.082.311.956,3.167,5.248,4.608,7.726,5.008a2.7,2.7,0,0,1,2.51,1.958" transform="translate(-356.129 -1101.556)" fill="#233862"/>
        <path id="Trazado_717472" data-name="Trazado 717472" d="M410.7,918.219s-.84,10.474-1.826,23.066c-1.341,17.1-2.954,38.113-3.113,42.093-.276,6.911-1.383,17.966-1.383,17.966s-2.624,2.626-7.877,1.519a180.858,180.858,0,0,1-6.018-32.479c-.021-.274-.041-.549-.062-.825-1.244-17-3.178-52.791-3.178-52.791Z" transform="translate(-314 -743.371)" fill="#699dee"/>
        <path id="Trazado_717473" data-name="Trazado 717473" d="M410.7,918.219s-.84,10.474-1.826,23.066l-18.391,29.1c-.021-.274-.041-.549-.062-.825-1.244-17-3.178-52.791-3.178-52.791Z" transform="translate(-314 -743.371)" fill="#4a75cb"/>
        <path id="Trazado_717474" data-name="Trazado 717474" d="M300.813,901.689s-15.132,37.935-25.082,55.762-13.059,22.8-13.059,22.8-5.7-2.28-6.219-3.835c0,0,3.8-34.416,10.468-42.806,3.765-4.74,8.188-18.967,8.4-23.942s1.347-14.821,1.347-14.821Z" transform="translate(-207.947 -725.598)" fill="#699dee"/>
        <path id="Trazado_717475" data-name="Trazado 717475" d="M559.9,875.646l.865,1.724a3.873,3.873,0,0,1,3.188,5.2s-.652,1.886-1.865,1.289-.615-.546-2.354-1.35-2.744-2.347-2.356-3.763l-.278-1.5Z" transform="translate(-451.728 -710.027)" fill="#ffb27d"/>
        <path id="Trazado_717476" data-name="Trazado 717476" d="M397.866,567.773a44.431,44.431,0,0,0,.693-6.327l-7.678-6.188c.285,8.508-5.167,12.6-5.167,12.6s10.231,5.036,16.145,3.171a14.171,14.171,0,0,0-3.994-3.256" transform="translate(-312.761 -450.237)" fill="#ffb27d"/>
        <path id="Trazado_717477" data-name="Trazado 717477" d="M413.1,517.953s-9.767,1.623-10.684-4.476-2.795-10,3.4-11.29,7.762.85,8.563,2.811,1.236,12.374-1.281,12.954" transform="translate(-325.493 -406.885)" fill="#ffb27d"/>
        <path id="Trazado_717478" data-name="Trazado 717478" d="M391,496.005a10.109,10.109,0,0,1,9.1-9.48c6.1-.9,2.4-5.992,1.707-6.8,0,0-4.66.889-9.429,1.936-10.011,2.2-2.433,13.128-1.375,14.342" transform="translate(-314.009 -388.992)" fill="#163560"/>
        <path id="Trazado_717479" data-name="Trazado 717479" d="M418.962,690.6a16.719,16.719,0,0,0,2.275-3.084s-11.1-13.788-12-15.218-7.642-24.364-7.642-24.364l-17.044-3.453s14.226,29.351,16.583,32.929c3.895,5.913,15.546,14.713,15.546,14.713a7.017,7.017,0,0,0,2.281-1.523" transform="translate(-311.818 -522.585)" fill="#82b479"/>
        <path id="Trazado_717480" data-name="Trazado 717480" d="M387,669.633a.956.956,0,0,1-.621.237c-2.221-.03-8.7,1.2-14.175.64a40.815,40.815,0,0,1-13.1-3.78c-.583-.261-1.925-.977-1.895-1.629.02-.714.091-1.748.179-3.052a163.191,163.191,0,0,0,.324-21.319c-.095-1.674-.145-3.335-.151-4.971-.045-12.188,2.33-22.967,7.186-26.6.415-.3,3,1.007,5.343,2.161a7.825,7.825,0,0,0,5.716.629L378.5,613.9a20.411,20.411,0,0,1,6.4,10.216c1.008,4.057,1.6,11.371,1.925,18.952.148,3.435.267,6.9.3,10.187v.118c.029.326.029.682.029,1.008.119,8.439,0,15.131-.148,15.25" transform="translate(-289.648 -493.913)" fill="#a8d29f"/>
        <path id="Trazado_717481" data-name="Trazado 717481" d="M358.162,739.957a163.227,163.227,0,0,0,.324-21.319c-.095-1.674-.145-3.335-.151-4.971,2.023-4.907,3.676-8.466,3.676-8.466h5.1s3.738,25.534-8.949,34.755" transform="translate(-290.42 -571.821)" fill="#82b479"/>
        <path id="Trazado_717482" data-name="Trazado 717482" d="M280.458,891.069l-.968,1.668a3.873,3.873,0,0,1-2.6,5.516s-1.936.488-2.1-.853.12-.814-.161-2.709.459-3.581,1.856-4.032l1.1-1.055Z" transform="translate(-222.636 -721.345)" fill="#ffb27d"/>
        <path id="Trazado_717483" data-name="Trazado 717483" d="M281.325,668.01a16.7,16.7,0,0,0,3.827.213s5.451-16.839,6.153-18.377S307.5,630.1,307.5,630.1l-6.453-16.149s-16.754,27.985-18.455,31.917c-2.811,6.5-3.787,21.067-3.787,21.067a7.014,7.014,0,0,0,2.524,1.073" transform="translate(-226.069 -497.829)" fill="#a8d29f"/>
        <path id="Trazado_717484" data-name="Trazado 717484" d="M880.82,245.272h-103.9l35.519-143.7h103.9Z" transform="translate(-629.975 -82.363)" fill="#afcdfb"/>
        <path id="Trazado_717485" data-name="Trazado 717485" d="M798.767,197.869h-103.9l35.519-143.7h103.9Z" transform="translate(-563.441 -43.926)" fill="#c0d8f9"/>
        <path id="Trazado_717486" data-name="Trazado 717486" d="M709.856,143.695h-103.9L641.475,0h103.9Z" transform="translate(-491.346 0.003)" fill="#d4e3f4"/>
        <path id="Trazado_717487" data-name="Trazado 717487" d="M909.562,101.575,876.689,235.447l-86.376.859,88.985,1.957Z" transform="translate(-640.834 -82.363)" fill="#699dee"/>
        <path id="Trazado_717488" data-name="Trazado 717488" d="M825.361,54.172,794.13,186.763l-86.377.859,87.843,2.171Z" transform="translate(-573.89 -43.926)" fill="#699dee"/>
        <path id="Trazado_717489" data-name="Trazado 717489" d="M801.853,106.8H772.8l9.1-36.5h29.057Z" transform="translate(-626.631 -57.003)" fill="#e9f3fe"/>
        <path id="Trazado_717490" data-name="Trazado 717490" d="M1053.959,75.344H1001.9l1.281-5.043h52.061Z" transform="translate(-812.401 -57.003)" fill="#afcdfb"/>
        <path id="Trazado_717491" data-name="Trazado 717491" d="M1041.544,130.083H989.483l1.281-5.043h52.061Z" transform="translate(-802.334 -101.389)" fill="#afcdfb"/>
        <path id="Trazado_717492" data-name="Trazado 717492" d="M1028.565,184.822H976.5l1.281-5.043h52.061Z" transform="translate(-791.809 -145.775)" fill="#afcdfb"/>
        <path id="Trazado_717493" data-name="Trazado 717493" d="M1013.328,239.561H961.267l1.281-5.043h52.061Z" transform="translate(-779.455 -190.161)" fill="#afcdfb"/>
        <path id="Trazado_717494" data-name="Trazado 717494" d="M827.947,296.557h-95.3l1.281-5.043h95.3Z" transform="translate(-594.073 -236.377)" fill="#afcdfb"/>
        <path id="Trazado_717495" data-name="Trazado 717495" d="M814.5,353.553h-95.3l1.281-5.043h95.3Z" transform="translate(-583.166 -282.593)" fill="#afcdfb"/>
        <path id="Trazado_717496" data-name="Trazado 717496" d="M795.873,417.739h-95.3l1.281-5.043h95.3Z" transform="translate(-568.066 -334.639)" fill="#afcdfb"/>
        <path id="Trazado_717497" data-name="Trazado 717497" d="M778.944,473.159h-95.3l1.281-5.043h95.3Z" transform="translate(-554.338 -379.577)" fill="#afcdfb"/>
      </g>
    </g>
    <g id="Grupo_1017082" data-name="Grupo 1017082" transform="translate(146.166 13.297)">
      <g id="Grupo_1017081" data-name="Grupo 1017081" clip-path="url(#clip-path-3)">
        <path id="Trazado_717498" data-name="Trazado 717498" d="M935.921,279.978s1.7-.777,2.369-.54,2.47,1.016,2.429,1.8-2.936,1.646-4.87.7.072-1.957.072-1.957" transform="translate(-904.327 -239.845)" fill="#e49963"/>
        <path id="Trazado_717499" data-name="Trazado 717499" d="M891.645,194.121a1.159,1.159,0,0,1-.121.27c-.574.924-10.018.97-11.1.2-.482-.346-.63-5.125-.645-10.3-.019-6.4.164-13.413.164-13.413s3.7,1.715,3.876,3.826-1.374,14.8-.294,15.572,6.058.876,7.719,1.364a4.4,4.4,0,0,1,.4,2.488" transform="translate(-859.545 -151.849)" fill="#a8d2a0"/>
        <path id="Trazado_717500" data-name="Trazado 717500" d="M854.387,88.078a3.574,3.574,0,0,0-2.382-.784,1.152,1.152,0,0,1,.547-.178,3.818,3.818,0,0,0-1.4.177s-3.3-2.268-5.538,2.161c0,0,.327-.314.766-.661-1.292,2.547-.859,6.71,2.028,7.815,1.877.718,12.6-1.634,5.977-8.531" transform="translate(-831.844 -83.609)" fill="#163560"/>
        <path id="Trazado_717501" data-name="Trazado 717501" d="M858.759,149.254a5.407,5.407,0,0,1-3.367.174,4.3,4.3,0,0,1-1.918-2.384c.58-.039.844-.8,1.265-4.137l.249.084,4.19,1.409s-.273,1.34-.441,2.615c-.142,1.07-.208,2.094.022,2.24" transform="translate(-838.215 -129.174)" fill="#e49963"/>
        <path id="Trazado_717502" data-name="Trazado 717502" d="M865.673,144.757s-.273,1.341-.442,2.615c-2.4-.38-3.385-2.74-3.748-4.024Z" transform="translate(-844.709 -129.532)" fill="#d68d5d"/>
        <path id="Trazado_717503" data-name="Trazado 717503" d="M854.8,103.912a12.754,12.754,0,0,1-1.085-3.9c-.058-1.244,1.146-5.672,5.592-4.436a6.205,6.205,0,0,1,2.428,1.3c.9.792,2.131,2.41.034,6.139l-.585,1.276Z" transform="translate(-838.406 -90.621)" fill="#163560"/>
        <path id="Trazado_717504" data-name="Trazado 717504" d="M864.438,115s-5.705-.644-5.249-4.191.026-6.019,3.688-5.757,4.194,1.705,4.33,2.926-1.273,7.1-2.769,7.022" transform="translate(-842.828 -98.463)" fill="#e49963"/>
        <path id="Trazado_717505" data-name="Trazado 717505" d="M889.028,198.342c-.047-.417.844-.61,1.007-.223a7.8,7.8,0,0,1,.339,2.283,14.334,14.334,0,0,1-.594,4.582Z" transform="translate(-867.043 -173.774)" fill="#82b479"/>
        <path id="Trazado_717506" data-name="Trazado 717506" d="M860.1,103.156c-.74-1.179-1.435-1.033-1.849-.762-.992-2-5.225.157-5.225.157a6.831,6.831,0,0,1-2.735,3.715s.955.775,3.427.47c1.945-.24,3.659-2.743,4.3-3.8a4.557,4.557,0,0,1,1.049,1.842c.167.94.053,2.816.6,2.823,0,0,1.541-2.676.429-4.446" transform="translate(-835.634 -95.636)" fill="#163560"/>
        <path id="Trazado_717507" data-name="Trazado 717507" d="M881.837,144.9s.048.464,1.177.54c0,0,.948.064.984-.435a3.053,3.053,0,0,0-2.161-.1" transform="translate(-861.213 -130.678)" fill="#fff"/>
        <path id="Trazado_717508" data-name="Trazado 717508" d="M892.918,246.891a1.162,1.162,0,0,1-.121.27c-.574.924-10.018.97-11.1.195-.482-.346-.638-6.284.691-11.406.316,3.069-.262,9.2,1.344,9.7,1.821.568,6.793.579,9.184,1.238" transform="translate(-860.818 -204.619)" fill="#82b479"/>
        <path id="Trazado_717509" data-name="Trazado 717509" d="M803.4,178.386c-3.749,10.824-2.04,12.782-3.38,13.72-.007,0-1.124.324-1.132.33-1.39.922-1.251-.4-5.4.8a64.066,64.066,0,0,1-6.691,1.7,13.159,13.159,0,0,1-2.257.208c-1.281-.015-2.194-.357-2.391-1.249-.572-2.593,4.565-8.615,4.076-13.243,0-.04-.008-.08-.011-.12a4.953,4.953,0,0,1,.122-1.345c.525-2.479,2.578-5.913,4.62-8.809,2.254-3.194,4.492-5.731,4.648-5.61,4.4,3.451,5.141,1.152,5.141,1.152s3.933,8.779,2.654,12.471" transform="translate(-780.343 -146.893)" fill="#a8d2a0"/>
        <path id="Trazado_717510" data-name="Trazado 717510" d="M799.285,226.045h0c-1.39.922-1.651-.288-5.8.9a64.07,64.07,0,0,1-6.691,1.7,13.373,13.373,0,0,0-2.257.208c-1.281-.016-2.194-.357-2.391-1.249-.572-2.593,4.565-8.615,4.076-13.243,0-.04-.008-.08-.011-.119a4.183,4.183,0,0,1,.122-1.345c.472-1.874,2.14-3.757,4.115-6.558.915,1.258,9.047.991,5.729,11.815-1.017,3.318,2.953,5.193,3.107,7.89" transform="translate(-780.343 -180.61)" fill="#82b479"/>
        <path id="Trazado_717511" data-name="Trazado 717511" d="M866.575,313.069a5.946,5.946,0,0,1,2.57.242c.761.431,2.259,1.473,2.053,1.9s-2.142.418-2.887-.132-1.414-.062-2.353-.517.617-1.493.617-1.493" transform="translate(-848.093 -267.119)" fill="#e49963"/>
        <path id="Trazado_717512" data-name="Trazado 717512" d="M810.709,164.416s-6.486-.753-8.051,2.221-2.631,14-1.364,17.521,10.329,9.235,11.377,9.552,1.932-1.247,1.91-1.431-9.049-9.659-8.894-10.5,5.022-17.361,5.022-17.361" transform="translate(-795.449 -146.547)" fill="#a8d2a0"/>
      </g>
    </g>
    <g id="Grupo_1017093" data-name="Grupo 1017093" transform="translate(0 -0.001)">
      <g id="Grupo_1017092" data-name="Grupo 1017092" clip-path="url(#clip-path-2)">
        <path id="Trazado_717514" data-name="Trazado 717514" d="M1973.669,1313.69l-2.317,9.757-3.47-.02-.127-9.737Z" transform="translate(-1595.577 -1065.22)" fill="#e49963"/>
        <path id="Trazado_717515" data-name="Trazado 717515" d="M1805.428,1310.383l-6.592,9.341-2.569-3.3,3.967-7.327Z" transform="translate(-1456.524 -1061.497)" fill="#e49963"/>
        <path id="Trazado_717516" data-name="Trazado 717516" d="M1919.182,631.139a6.719,6.719,0,0,1,3.637-.7,1.7,1.7,0,0,0-.767-.364,5.636,5.636,0,0,1,2.012.525c8.661-3.337,10.023,9.415,9.841,12.378s2.91,3.93,7.417,6.264c8.6,4.454,9.353,10.418,9.353,10.418-.067.04-.137.085-.211.136-.427-.723-1.305-2.08-2.046-2.285a30.7,30.7,0,0,1,1.191,2.9c-2.536,1.93-7.282,6.2-10.589,9.236a4.863,4.863,0,0,0-.225-1.878l-.408,2.46c-1.77,1.627-2.99,2.771-2.99,2.771.219-2.394-10.828-15.029-16.592-18.813-1.4-2.065-1.9-5.714-1.939-6a15.754,15.754,0,0,0,1.18,5.43c-4.88-4.492-2.039-20.679,1.136-22.484" transform="translate(-1553.141 -510.884)" fill="#163560"/>
        <path id="Trazado_717517" data-name="Trazado 717517" d="M1935.118,722.109c-.029.013,2.783,1.473,4.9.894,1.99-.542,3.289-3.122,3.262-3.128-.843-.167-1.085-1.325-1.068-6.3l-.381.075-6.4,1.268s.146,2.015.15,3.914c0,1.594-.092,3.106-.457,3.276" transform="translate(-1569.112 -578.611)" fill="#e49963"/>
        <path id="Trazado_717518" data-name="Trazado 717518" d="M1936.744,715.241s.146,2.015.15,3.914c3.583-.1,5.478-3.37,6.254-5.182Z" transform="translate(-1570.431 -578.933)" fill="#d68d5d"/>
        <path id="Trazado_717519" data-name="Trazado 717519" d="M1926.519,653.878a18.827,18.827,0,0,0,2.329-5.5c.322-1.812-.6-8.526-7.348-7.559a9.167,9.167,0,0,0-3.8,1.437c-1.465.989-3.579,3.126-1.215,8.984l.614,1.979Z" transform="translate(-1553.141 -519.535)" fill="#163560"/>
        <path id="Trazado_717520" data-name="Trazado 717520" d="M1801.8,1019.412l3.394.1,3.675.112a72.526,72.526,0,0,0,13.247-24.6q.166-.528.352-1.069c2.605-7.6,8.006-17.132,10.853-25.764.453-1.375.86-2.669,1.225-3.894.117-.392.231-.778.339-1.157a91.56,91.56,0,0,0,3.265-17.186l-20.553.165a383.109,383.109,0,0,1-15.8,73.285" transform="translate(-1461.008 -767.044)" fill="#2b478b"/>
        <path id="Trazado_717521" data-name="Trazado 717521" d="M1887.756,770.2c.052,9.78-1.435,13.976-1.435,13.976a27.618,27.618,0,0,0,19.259,1.18c.123-.039,7.866-1.593,7.866-1.593-.175-.4-2.311-7.162-2.481-7.525a29.1,29.1,0,0,1-2.774-8.5,31,31,0,0,1-.254-8.194,65.755,65.755,0,0,1,2.536-12.868,66.839,66.839,0,0,1-8.484-2.9,6.627,6.627,0,0,1-4.577,1.7c-2.083-.046-2.759-.938-2.651-1.911-2.22,1.235-3.991,2.4-3.991,2.4-1.887,3.278-5.714,6.46-5.991,11.488-.068,1.236,2.977,12.471,2.978,12.745" transform="translate(-1528.293 -602.928)" fill="#e7f1fd"/>
        <path id="Trazado_717522" data-name="Trazado 717522" d="M1762.778,755.671c3.017-3.525,10.834-11.168,18.9-12.106l-6.961,13.561a6,6,0,0,1-2.452,3.678,40.393,40.393,0,0,1-11.469,4.785,60.235,60.235,0,0,1-10.29-6.251c-1.866-1.367-5.143-6.58-5.143-6.58l.884-2.958s5.565,3.112,7.553,4.009c1.133.512,3.741,1.733,5.579,2.6a2.868,2.868,0,0,0,3.4-.733" transform="translate(-1415.247 -602.928)" fill="#699dee"/>
        <path id="Trazado_717523" data-name="Trazado 717523" d="M1918.31,668.849s8.478.14,8.484-5.141,1.1-8.82-4.309-9.133-6.467,1.7-6.9,3.464.517,10.638,2.723,10.81" transform="translate(-1553.194 -530.743)" fill="#e49963"/>
        <path id="Trazado_717524" data-name="Trazado 717524" d="M1932.076,649.427s2.321,6.2,5.884,7.112,5.108-.038,5.108-.038a10.088,10.088,0,0,1-3.3-5.96s-5.941-4.062-7.692-1.114" transform="translate(-1566.646 -525.724)" fill="#163560"/>
        <path id="Trazado_717525" data-name="Trazado 717525" d="M1916.714,652.358a7.49,7.49,0,0,0-2.156,2.728c-.423,1.345-.613,4.113-1.42,4.019,0,0-1.749-4.211.216-6.594,2.084-2.526,3.359-.154,3.359-.154" transform="translate(-1550.708 -528.152)" fill="#163560"/>
        <path id="Trazado_717526" data-name="Trazado 717526" d="M1718.4,760.414a5.292,5.292,0,0,0-5.931-3.7c-.544.17-2.132.8-1.117,2.5.748,1.253,1.072.607,2.249,2.291a3.751,3.751,0,0,0,3.914,1.863Z" transform="translate(-1387.402 -613.543)" fill="#e49963"/>
        <path id="Trazado_717527" data-name="Trazado 717527" d="M1968.147,1362.393a9.4,9.4,0,0,0,.442,4s.568,2.587-1.98,2.636-3.174-.193-2.885-1.779.837-4.332.837-4.332Z" transform="translate(-1592.255 -1104.711)" fill="#e49963"/>
        <path id="Trazado_717528" data-name="Trazado 717528" d="M1962.72,1387s.054.034.16.085h4.989a1.2,1.2,0,0,0,.141-.085,12.522,12.522,0,0,0-.182-3.741c-2.887,2.645-4.693-.066-4.693-.066a13.53,13.53,0,0,0-.415,3.807" transform="translate(-1591.492 -1121.577)" fill="#d86713"/>
        <path id="Trazado_717529" data-name="Trazado 717529" d="M1763.786,1355.705s4.7-5.215,6.141-7.869l3.494,1.79-7.81,7.335-1.827-.24Z" transform="translate(-1430.185 -1092.907)" fill="#e49963"/>
        <path id="Trazado_717530" data-name="Trazado 717530" d="M1748.383,1366.089h6.43a9.14,9.14,0,0,0,1.916-2.972,3.151,3.151,0,0,1,2.128-1.422v4.344h1.334l1.263-4.617c.831-1.529.066-2.915-.52-4.123-.68,0-2.512.464-5.983,4.376a4.55,4.55,0,0,1-3.652,1.7.292.292,0,0,1-.051.027c-2.094.942-2.693,2.112-2.864,2.683" transform="translate(-1417.696 -1100.581)" fill="#d86713"/>
        <path id="Trazado_717531" data-name="Trazado 717531" d="M1882.517,743.565s-4.905,12.118-5.05,14.571-.577,40.1-.577,40.1.288,1.731-3.029,1.01-4.184-1.443-4.184-1.443,3.174-23.226,2.308-31.3,6.636-21.255,6.636-21.255Z" transform="translate(-1516.049 -602.928)" fill="#699dee"/>
        <path id="Trazado_717532" data-name="Trazado 717532" d="M1819.744,1083.348l3.674.112a72.527,72.527,0,0,0,13.247-24.6q.166-.528.352-1.069c2.605-7.6,8.006-17.132,10.853-25.764.453-1.375.86-2.669,1.225-3.894.117-.392.231-.777.339-1.157l-3.027-2.3s-9.087,14.715-11.9,28.562c-2.444,12.028-12.231,26.5-14.764,30.1" transform="translate(-1475.56 -830.876)" fill="#233862"/>
        <path id="Trazado_717533" data-name="Trazado 717533" d="M1950.39,1037.794c-.052,6.734.288,22.216,1.166,28.626h3.254c1.8,0,2.7-.026,2.7-.026,2.2-11.144,3.765-20.365,4.905-28.311.935-6.521,1.766-12.111,2.4-16.923.643-4.843,1.091-8.9,1.251-12.324.024-.54.043-1.065.053-1.574s.013-1.01.009-1.493l-17.759-1.731c.224,11.8,2.049,29.844,2.02,33.757" transform="translate(-1579.858 -814.134)" fill="#2b478b"/>
        <path id="Trazado_717534" data-name="Trazado 717534" d="M1982.418,1086.991c1.8,0,2.7-.026,2.7-.026,2.2-11.145,3.765-20.365,4.9-28.311.935-6.521,1.766-12.111,2.4-16.923.644-4.843,1.091-8.9,1.251-12.324l-6.517,3.833s4.159,1.467,2.572,12.575-5.1,39.6-7.313,41.176" transform="translate(-1607.466 -834.705)" fill="#233862"/>
        <path id="Trazado_717535" data-name="Trazado 717535" d="M1951.968,798.578s1.251,4.52,5.578,3.943,10.482-3.174,10.482-3.174-1.849-5.844-4.149-13.522c-2.784-9.295-6.231-21.277-7.855-28.835a46.675,46.675,0,0,1-.883-5.153l-3.591-6.966s-5.353,12.016-5.642,15.045,6.059,38.662,6.059,38.662" transform="translate(-1577.855 -603.986)" fill="#699dee"/>
        <path id="Trazado_717536" data-name="Trazado 717536" d="M1978.983,818.221c.193,4.905,1.347,14.426,11.637,19.523.027.013.055.028.082.039-2.784-9.295-6.23-21.277-7.855-28.835-1.89,2.824-3.97,6.573-3.865,9.273" transform="translate(-1604.678 -655.944)" fill="#4a75cb"/>
        <rect id="Rectángulo_349982" data-name="Rectángulo 349982" width="4.59" height="18.252" transform="translate(313.191 125.538) rotate(-45)" fill="#2b478b"/>
        <path id="Trazado_717537" data-name="Trazado 717537" d="M1782.723,772.284l-1.132,1.132a5.7,5.7,0,0,1-8.066,0l-63.156-63.156a5.7,5.7,0,0,1,0-8.066l1.132-1.132a5.7,5.7,0,0,1,8.066,0l63.156,63.156a5.7,5.7,0,0,1,0,8.066" transform="translate(-1385.518 -567.109)" fill="#01d8d1"/>
        <path id="Trazado_717538" data-name="Trazado 717538" d="M1192.592,183.286a53.976,53.976,0,1,0,76.334,0,53.976,53.976,0,0,0-76.334,0m72.13,72.13a48.031,48.031,0,1,1,0-67.925,48.031,48.031,0,0,1,0,67.925" transform="translate(-954.207 -135.8)" fill="#01d8d1"/>
        <path id="Trazado_717539" data-name="Trazado 717539" d="M1929.118,759.465l-4.739-14.594a73.137,73.137,0,0,1,8.99,3.295s1.878,2.421,3.04,8.006c0,0,1.228,13.409-1.514,18.315,0,0-8.656,1.731-22.5-3.03v-3.174s15.147.793,18.249,1.154Z" transform="translate(-1550.683 -603.986)" fill="#e49963"/>
        <path id="Trazado_717540" data-name="Trazado 717540" d="M1973.6,744.871s8.785.619,10.9,5.331,2.789,20.389.1,25.005c0,0-3.707,1.056-10.265-.17l-.242-.046s-2.092-5.121-.216-6.131c0,0,5.53.288,4.953-1.539s-5.226-22.45-5.226-22.45" transform="translate(-1599.905 -603.986)" fill="#699dee"/>
        <path id="Trazado_717541" data-name="Trazado 717541" d="M1888.122,847.318a7.571,7.571,0,0,1-1.464-2.956,3.213,3.213,0,0,0-3.139-2.874c-2.083-.274-2.978-.3-2.973.284a15.545,15.545,0,0,0,4.691,7.134c2.989,2.448,2.885-1.588,2.885-1.588" transform="translate(-1524.862 -682.177)" fill="#e49963"/>
        <g id="Grupo_1017085" data-name="Grupo 1017085" transform="translate(233.495 42.245)" opacity="0.4">
          <g id="Grupo_1017084" data-name="Grupo 1017084">
            <g id="Grupo_1017083" data-name="Grupo 1017083" clip-path="url(#clip-path-5)">
              <path id="Trazado_717542" data-name="Trazado 717542" d="M1298.845,223.35l-64.326,64.326a48.01,48.01,0,0,0,3.591,6.093l66.828-66.828a48,48,0,0,0-6.093-3.591" transform="translate(-1234.519 -223.35)" fill="#fff"/>
            </g>
          </g>
        </g>
        <g id="Grupo_1017088" data-name="Grupo 1017088" transform="translate(228.553 37.302)" opacity="0.4">
          <g id="Grupo_1017087" data-name="Grupo 1017087">
            <g id="Grupo_1017086" data-name="Grupo 1017086" clip-path="url(#clip-path-6)">
              <path id="Trazado_717543" data-name="Trazado 717543" d="M1273.245,200.254a48.055,48.055,0,0,0-61.823,61.823Z" transform="translate(-1208.389 -197.221)" fill="#fff"/>
            </g>
          </g>
        </g>
        <g id="Grupo_1017091" data-name="Grupo 1017091" transform="translate(255.309 64.058)" opacity="0.4">
          <g id="Grupo_1017090" data-name="Grupo 1017090">
            <g id="Grupo_1017089" data-name="Grupo 1017089" clip-path="url(#clip-path-7)">
              <path id="Trazado_717544" data-name="Trazado 717544" d="M1349.847,403.024a48.044,48.044,0,0,0,64.345-64.345Z" transform="translate(-1349.848 -338.679)" fill="#fff"/>
            </g>
          </g>
        </g>
        <path id="Trazado_717545" data-name="Trazado 717545" d="M44.435,1404.641H531.921a.435.435,0,0,0,0-.87H44.435a.435.435,0,1,0,0,.87" transform="translate(-35.678 -1138.263)" fill="#283250"/>
      </g>
    </g>
  </g>
</svg>
