<svg xmlns="http://www.w3.org/2000/svg" xmlns:xlink="http://www.w3.org/1999/xlink" width="116.999" height="115" viewBox="0 0 116.999 115">
  <defs>
    <clipPath id="clip-path">
      <rect id="Rect치ngulo_350178" data-name="Rect치ngulo 350178" width="67.862" height="55.554" fill="none"/>
    </clipPath>
  </defs>
  <g id="Grupo_1018030" data-name="Grupo 1018030" transform="translate(-327 -3318.564)">
    <g id="Grupo_1017418" data-name="Grupo 1017418" transform="translate(-98.438 -4179.906)">
      <g id="Grupo_1015374" data-name="Grupo 1015374" transform="translate(425.927 7498.205)">
        <g id="Grupo_1015448" data-name="Grupo 1015448" transform="translate(0 0)">
          <g id="Grupo_1014855" data-name="Grupo 1014855" transform="translate(0 0)">
            <path id="Uni칩n_12" data-name="Uni칩n 12" d="M58.5,0C90.809,0,117,25.744,117,57.5S90.809,115,58.5,115,0,89.256,0,57.5,26.192,0,58.5,0Z" transform="translate(-0.49 0.265)" fill="#81c539"/>
            <ellipse id="Elipse_4842" data-name="Elipse 4842" cx="49" cy="49.5" rx="49" ry="49.5" transform="translate(9.51 7.265)" fill="#fff"/>
          </g>
        </g>
      </g>
    </g>
    <g id="Grupo_1017424" data-name="Grupo 1017424" transform="translate(351.568 3342.639)">
      <g id="Grupo_1017416" data-name="Grupo 1017416" clip-path="url(#clip-path)">
        <path id="Trazado_718374" data-name="Trazado 718374" d="M17.04,12.005a1.155,1.155,0,0,1-.29-1.73,17.368,17.368,0,0,1,1.041-1.684C19.88,6,21.754,3.22,24.258.97A3.4,3.4,0,0,1,26.631,0q7.218.007,14.435,0a2.425,2.425,0,0,1,1.753.466C47.29,4.8,51.8,9.149,53.022,15.633c1.391,7.352-.773,13.571-6.278,18.633-.162.149-.332.29-.493.44-.022.02-.015.07-.053.277,1.274,0,2.527.041,3.775-.014a2.589,2.589,0,0,1,2.217.931c.464.531,1.046.962,1.481,1.513,1.585,2.008,3.437,3.349,6.181,2.776a1.525,1.525,0,0,1,1.381.63q2.989,3,5.99,5.995a1.45,1.45,0,0,1,.546,1.64c-.289.739-.909.856-1.621.854-3.929-.012-7.858.011-11.786-.021a2.151,2.151,0,0,0-1.724.722c-1.5,1.559-3.073,3.045-4.57,4.605a2.825,2.825,0,0,1-2.211.939q-13.574-.03-27.149,0c-.806,0-1.513-.077-1.758-1.009.227-1.036,1.01-1.047,1.847-1.046,7.449.009,14.906-.215,22.342.091,3.751.154,6.671-.634,8.844-3.745,1.474-2.11,3.48-2.756,6.045-2.548,2.824.229,5.681.052,8.523.052l.157-.3c-1.3-1.283-2.656-2.518-3.886-3.866a2.637,2.637,0,0,0-2.788-.989c-1.157-.227-2.409.226-3.416-.956-1.279-1.5-2.588-3.323-4.288-4.018s-3.918-.064-5.89-.23a3.814,3.814,0,0,0-3.731,1.941q-2.56,3.7-5.192,7.348c-1.011,1.408-2.154,1.4-3.173-.006-1.138-1.572-2.236-3.172-3.369-4.748-.875-1.217-1.7-2.48-2.686-3.6-1.176-1.339-2.336-1.285-3.6-.025-1.872,1.872-3.829,3.669-5.589,5.642a4.6,4.6,0,0,1-4.279,1.738c-.65-.076-1.387-.256-1.989.367C8.813,47.737,6.76,49.8,4.718,51.87L2.982,53.505H4.6c2.738,0,5.475.01,8.212-.006.784,0,1.411.148,1.563,1.049-.155.822-.733,1-1.466,1q-5.623-.012-11.247,0a1.492,1.492,0,0,1-1.584-.945c-.255-.682.127-1.173.585-1.63,3.03-3.02,6.066-6.034,9.071-9.079a2.2,2.2,0,0,1,2.043-.664,4.867,4.867,0,0,0,4.8-1.979A65.632,65.632,0,0,1,21.62,36.2c.783-.725.609-1.01-.117-1.64A19.165,19.165,0,0,1,14.8,15.727c.14-.818.447-1.318,1.338-1.285,1.149.555.615,1.509.51,2.32-.93,7.2,1.405,13.125,7.432,17.143a23.383,23.383,0,0,1,6.872,6.925c.452.7.975,1.357,1.465,2.033a12.171,12.171,0,0,1,.8,1.21c.558,1.1.953.733,1.486-.053,1.388-2.043,2.856-4.031,4.257-6.065A9.914,9.914,0,0,1,42.364,34.9a17.4,17.4,0,0,0,8.779-18.567A16.33,16.33,0,0,0,47.189,8.17a5.11,5.11,0,0,1-.572,3.06c-1.293.582-1.606,1.575-1.533,2.956.125,2.371.058,4.753.023,7.13-.013.879.036,1.585.977,2.066a2.561,2.561,0,0,1,1.138,2c-.048,1.273.2,2.667-1.374,3.309-.936.23-1.748.176-2.112-.915.173-.355.293-.808.727-.886.762-.137.9-.594.77-1.244-.165-.8-.724-1.026-1.469-1.025q-9.937.009-19.873,0c-.926,0-1.371.408-1.374,1.363,0,1.086.787.746,1.317.748q7.684.031,15.368,0c.852,0,1.6.075,1.9,1.038A1.283,1.283,0,0,1,39.752,28.8c-5.688-.006-11.376,0-17.064-.012a2.011,2.011,0,0,1-2.043-1.382A3.762,3.762,0,0,1,21.9,23.16a1.252,1.252,0,0,0,.665-1.153c-.024-3.042-.01-6.084-.014-9.126,0-.3.074-.652-.275-.819-1.388-.66-1.724-1.952-1.922-3.481a11.721,11.721,0,0,0-1.825,2.634,1.255,1.255,0,0,1-1.49.791m26.138,5.526c0-1.06-.067-2.125.017-3.178.1-1.31.047-2.355-1.727-2.141a1.887,1.887,0,0,1-.977-.353.79.79,0,0,0-.829-.057,6.4,6.4,0,0,1-5.486-.021c-.215-.1-.37-.177-.594-.023a4.6,4.6,0,0,1-3.837.491,9.364,9.364,0,0,0-4.236.035c-.727.125-.952.271-.936,1,.045,2.119.016,4.239.016,6.359,0,3.111,0,3.066,3.1,3.073.944,0,1.1-.347,1.067-1.154-.051-1.323-.049-2.65,0-3.974a2.932,2.932,0,0,1,3.166-3.127c1.324-.024,2.65-.029,3.974,0a2.9,2.9,0,0,1,3.073,3.072c.028,1.457.052,2.916-.009,4.371-.047,1.108.783.892,1.238.744.983-.321,2.56.99,2.925-.761a21.792,21.792,0,0,0,.059-4.36M22.519,7.97c0,2.335,0,2.335,2.075,2.336,2.1,0,2.135-.028,2.121-2.316-.014-2.155.268-1.866-1.765-1.879-2.431-.016-2.432,0-2.431,1.858M30.9,6.105c-2.526.031-2.212-.281-2.228,1.55-.024,2.647-.008,2.647,2.048,2.648,2.156,0,2.156,0,2.156-2.27,0-1.928,0-1.928-1.976-1.928m6.166,0c-2.22,0-2.22,0-2.22,1.7,0,2.5.005,2.506,2.047,2.507,2.132,0,2.132,0,2.133-2.262,0-1.94,0-1.94-1.96-1.94m6.044,0c-2.286.031-2.035-.281-2.048,1.585C41.04,10.3,41.052,10.3,43.089,10.3c2.133,0,2.163-.023,2.152-2.408-.01-2.118.2-1.756-2.135-1.79M34.827,19.481c0,.832.007,1.665,0,2.5-.006.462.128.814.661.716.505-.093,1.388.387,1.453-.384a19.732,19.732,0,0,0-.066-5.233c-.139-.755-.9-.7-1.524-.678-.722.029-.5.593-.515.98-.031.7-.009,1.4-.007,2.1m-1.957-.015a17.011,17.011,0,0,0-.016-1.847c-.051-.46.408-1.232-.646-1.221-.872.009-1.468.246-1.462,1.252.008,1.409.027,2.818-.01,4.226-.016.63.2.8.825.838.98.06,1.486-.156,1.327-1.269a14.179,14.179,0,0,1-.017-1.978m3.617-15.3c1.745,0,1.745,0,1.71-.434a1.944,1.944,0,0,0-2.013-1.708C35.428,2.015,34.8,1.9,34.793,3.1c-.012,1.628,1.105.886,1.7,1.068m-7.107-.006c.9,0,1.649-.046,2.385.012.813.064,1.156-.145,1.138-1.057-.017-.836-.244-1.014-1.084-1.126-1.651-.22-1.939.873-2.439,2.17M43.5,4.031C41.985,2.081,41.6,1.624,39.8,2.3c.913,2.138.913,2.138,3.7,1.728m-19.433.029c3.116.3,3.116.3,3.891-1.9-1.871-.7-2.757.653-3.891,1.9" transform="translate(0 0)" fill="#070606"/>
        <path id="Trazado_718375" data-name="Trazado 718375" d="M61.749,35.778a1.255,1.255,0,0,0,1.49-.791,11.715,11.715,0,0,1,1.825-2.634c.2,1.529.534,2.822,1.922,3.481.35.166.275.519.275.819,0,3.042-.011,6.084.014,9.126a1.252,1.252,0,0,1-.665,1.153,3.762,3.762,0,0,0-1.257,4.25A2.011,2.011,0,0,0,67.4,52.565c5.688.016,11.376.007,17.064.012A1.283,1.283,0,0,0,85.81,51.55h2.636c.363,1.091,1.176,1.145,2.112.916a11.652,11.652,0,0,1-4.481,5.374c-2.532,1.874-5.326,3.373-6.926,6.288a5.66,5.66,0,0,1-2.025,2.51c-.49-.676-1.013-1.332-1.465-2.033a23.376,23.376,0,0,0-6.872-6.925c-6.027-4.018-8.362-9.945-7.432-17.143.105-.811.64-1.764-.51-2.32l.9-2.438" transform="translate(-44.709 -23.773)" fill="#e3384f"/>
        <path id="Trazado_718376" data-name="Trazado 718376" d="M22.639,171.2c-.152-.9-.779-1.054-1.563-1.049-2.737.016-5.475.006-8.212.006H11.243l1.736-1.635q17.667.01,35.334.026a3.528,3.528,0,0,0,2.574-1.151c1.313-1.307,2.643-2.6,3.923-3.937a3.055,3.055,0,0,1,2.456-1.032c1.807.054,3.617.042,5.425.008,2.36-.044,3.561-1.263,3.6-3.59a2.636,2.636,0,0,1,2.788.989c1.231,1.348,2.584,2.583,3.886,3.866l-.157.3c-2.842,0-5.7.177-8.523-.052-2.565-.208-4.571.438-6.045,2.548-2.173,3.111-5.093,3.9-8.844,3.744-7.436-.306-14.894-.082-22.343-.091-.838,0-1.62.009-1.847,1.046l-2.572,0" transform="translate(-8.261 -116.648)" fill="#67c743"/>
        <path id="Trazado_718377" data-name="Trazado 718377" d="M71.106,144.385c-.043,2.328-1.244,3.547-3.6,3.59-1.808.033-3.618.046-5.425-.008A3.055,3.055,0,0,0,59.621,149c-1.28,1.339-2.61,2.63-3.923,3.937a3.529,3.529,0,0,1-2.574,1.151q-17.667-.022-35.334-.026c2.041-2.073,4.1-4.133,6.117-6.225.6-.623,1.339-.443,1.989-.367a4.6,4.6,0,0,0,4.28-1.738c1.759-1.973,3.716-3.77,5.589-5.642,1.261-1.261,2.421-1.314,3.6.025.985,1.122,1.812,2.385,2.687,3.6,1.133,1.576,2.231,3.176,3.369,4.748,1.019,1.406,2.162,1.414,3.173.006q2.624-3.655,5.192-7.348a3.813,3.813,0,0,1,3.731-1.941c1.972.167,4.184-.467,5.89.23s3.009,2.518,4.288,4.018c1.007,1.181,2.259.729,3.416.956" transform="translate(-13.072 -102.191)" fill="#7fd060"/>
        <path id="Trazado_718378" data-name="Trazado 718378" d="M111.257,49.865a21.753,21.753,0,0,1-.059,4.36c-.365,1.751-1.942.441-2.925.761-.455.149-1.285.365-1.238-.744.061-1.455.036-2.914.009-4.371a2.9,2.9,0,0,0-3.073-3.072c-1.324-.031-2.65-.027-3.974,0a2.932,2.932,0,0,0-3.166,3.127c-.046,1.323-.049,2.651,0,3.974.032.808-.123,1.157-1.067,1.154-3.1-.007-3.1.038-3.1-3.073,0-2.12.029-4.24-.016-6.359-.015-.733.21-.878.937-1a9.363,9.363,0,0,1,4.236-.035,4.6,4.6,0,0,0,3.837-.491c.224-.154.379-.075.594.023a6.4,6.4,0,0,0,5.485.021.79.79,0,0,1,.829.057,1.888,1.888,0,0,0,.977.353c1.773-.214,1.83.831,1.727,2.141-.083,1.053-.017,2.118-.017,3.178" transform="translate(-68.08 -32.334)" fill="#f9f9f9"/>
        <path id="Trazado_718379" data-name="Trazado 718379" d="M122.228,65.5a5.66,5.66,0,0,0,2.025-2.51c1.6-2.914,4.394-4.414,6.926-6.288a11.65,11.65,0,0,0,4.481-5.374c1.57-.642,1.326-2.036,1.374-3.309a.515.515,0,0,0,.472-.38,19.977,19.977,0,0,0,.816-4.49,19.52,19.52,0,0,0-1.893-9.283,5.108,5.108,0,0,0,.572-3.06,16.327,16.327,0,0,1,3.954,8.161,17.4,17.4,0,0,1-8.779,18.567,9.914,9.914,0,0,0-3.408,3.057c-1.4,2.034-2.87,4.022-4.257,6.065-.534.786-.928,1.155-1.486.053a12.224,12.224,0,0,0-.8-1.21" transform="translate(-89.812 -22.636)" fill="#c62d42"/>
        <path id="Trazado_718380" data-name="Trazado 718380" d="M106.125,96h-2.636c-.3-.963-1.046-1.04-1.9-1.038q-7.684.025-15.368,0c-.529,0-1.32.338-1.316-.748,0-.955.448-1.364,1.374-1.363q9.936.006,19.873,0c.745,0,1.3.225,1.469,1.025.134.65-.008,1.107-.77,1.244-.435.078-.555.53-.727.886" transform="translate(-62.389 -68.219)" fill="#00529d"/>
        <path id="Trazado_718381" data-name="Trazado 718381" d="M171.5,42.344a19.517,19.517,0,0,1,1.893,9.283,19.976,19.976,0,0,1-.816,4.49.515.515,0,0,1-.472.38,2.562,2.562,0,0,0-1.138-2c-.942-.48-.99-1.187-.977-2.066.035-2.377.1-4.759-.023-7.13-.073-1.381.24-2.374,1.533-2.956" transform="translate(-124.885 -31.114)" fill="#dd374d"/>
        <path id="Trazado_718382" data-name="Trazado 718382" d="M84.911,24.883c0-1.862,0-1.874,2.431-1.858,2.033.013,1.751-.276,1.765,1.879.014,2.287-.023,2.316-2.121,2.316-2.075,0-2.075,0-2.075-2.336" transform="translate(-62.392 -16.914)" fill="#f4bb41"/>
        <path id="Trazado_718383" data-name="Trazado 718383" d="M110.309,23.012c1.976,0,1.976,0,1.976,1.928,0,2.272,0,2.272-2.156,2.27-2.056,0-2.072,0-2.048-2.648.016-1.832-.3-1.519,2.228-1.55" transform="translate(-79.413 -16.907)" fill="#7bca5d"/>
        <path id="Trazado_718384" data-name="Trazado 718384" d="M133.594,23.02c1.961,0,1.961,0,1.96,1.94,0,2.264,0,2.264-2.133,2.262-2.042,0-2.048-.009-2.047-2.507,0-1.7,0-1.7,2.22-1.7" transform="translate(-96.532 -16.915)" fill="#f1b940"/>
        <path id="Trazado_718385" data-name="Trazado 718385" d="M156.855,23.008c2.331.034,2.125-.328,2.135,1.79.011,2.384-.02,2.409-2.152,2.408-2.037,0-2.049,0-2.031-2.613.013-1.866-.238-1.554,2.048-1.585" transform="translate(-113.748 -16.903)" fill="#7bca5d"/>
        <path id="Trazado_718386" data-name="Trazado 718386" d="M131.285,64.885c0-.7-.023-1.4.008-2.1.017-.387-.207-.951.515-.98.622-.025,1.385-.077,1.524.678a19.755,19.755,0,0,1,.066,5.233c-.065.771-.948.291-1.454.384-.533.1-.667-.255-.662-.716.01-.832,0-1.665,0-2.5" transform="translate(-96.458 -45.404)" fill="#57c2de"/>
        <path id="Trazado_718387" data-name="Trazado 718387" d="M118.025,64.9a14.18,14.18,0,0,0,.017,1.978c.159,1.113-.347,1.329-1.327,1.269-.626-.038-.841-.208-.825-.838.037-1.408.018-2.817.01-4.226-.006-1.005.59-1.243,1.462-1.252,1.054-.011.595.761.646,1.221a16.945,16.945,0,0,1,.016,1.847" transform="translate(-85.155 -45.435)" fill="#60d6f5"/>
        <path id="Trazado_718388" data-name="Trazado 718388" d="M132.885,9.76c-.59-.182-1.708.56-1.7-1.068.009-1.2.635-1.085,1.393-1.074A1.944,1.944,0,0,1,134.6,9.326c.035.434.035.434-1.71.434" transform="translate(-96.397 -5.592)" fill="#edc255"/>
        <path id="Trazado_718389" data-name="Trazado 718389" d="M110.783,9.6c.5-1.3.788-2.391,2.439-2.17.84.112,1.067.289,1.084,1.126.019.912-.325,1.121-1.138,1.057-.736-.058-1.48-.012-2.385-.012" transform="translate(-81.402 -5.44)" fill="#92d276"/>
        <path id="Trazado_718390" data-name="Trazado 718390" d="M153.753,9.6c-2.787.41-2.787.41-3.7-1.727,1.806-.68,2.19-.223,3.7,1.727" transform="translate(-110.258 -5.564)" fill="#92d276"/>
        <path id="Trazado_718391" data-name="Trazado 718391" d="M90.73,9.519c1.134-1.244,2.02-2.6,3.891-1.9-.775,2.2-.775,2.2-3.891,1.9" transform="translate(-66.667 -5.459)" fill="#edc255"/>
      </g>
    </g>
  </g>
</svg>
