<svg xmlns="http://www.w3.org/2000/svg" xmlns:xlink="http://www.w3.org/1999/xlink" width="159.352" height="159.352" viewBox="0 0 159.352 159.352">
  <defs>
    <clipPath id="clip-path">
      <rect id="Rectángulo_349885" data-name="Rectángulo 349885" width="92.297" height="92.262" fill="none"/>
    </clipPath>
  </defs>
  <g id="Grupo_1018014" data-name="Grupo 1018014" transform="translate(-1078 -5087.669)">
    <circle id="Elipse_5864" data-name="Elipse 5864" cx="79.676" cy="79.676" r="79.676" transform="translate(1078 5087.669)" fill="#01d8d1"/>
    <g id="Grupo_1016912" data-name="Grupo 1016912" transform="translate(1106.176 5124.786)">
      <g id="Grupo_1016911" data-name="Grupo 1016911" transform="translate(6.676 -7.15)" clip-path="url(#clip-path)">
        <path id="Trazado_717054" data-name="Trazado 717054" d="M1.816,42.939A2.111,2.111,0,0,1,0,40.482C.047,37.24-.028,34,.029,30.756a10.812,10.812,0,0,1,21.618-.041c.037,1.244-.555,2.893.235,3.626.858.8,2.509.224,3.813.241,2.881.039,5.762.012,8.7.012.1-.683-.366-1.117-.632-1.6A88.105,88.105,0,0,1,29.4,23.945C25.257,13.96,31.953,3.049,41.645.564c11.343-2.909,22.671,5.825,22.51,17.514-.045,3.252-1.291,6.2-2.628,9.082-1.13,2.436-2.437,4.79-3.8,7.435,2.989,0,5.88.008,8.771,0,1.313-.005,3,.435,3.837-.208.9-.689.257-2.458.3-3.753A10.868,10.868,0,0,1,81.384,20.181a10.728,10.728,0,0,1,10.862,10.48q.1,25.575,0,51.15C92.218,87.718,87.3,92.244,81.165,92.25q-26.567.024-53.134.006c-5.463,0-10.927.018-16.391,0C4.736,92.223.02,87.479.017,80.591c0-8.1.016-16.21-.017-24.315-.005-1.37.335-2.359,1.816-2.636A2.106,2.106,0,0,1,3.637,56.09c-.041,3.72-.014,7.441-.014,11.162v6.033c4.916-3.577,9.622-3.463,14.411-.052,0-14.155.014-28.068-.009-41.981a7.18,7.18,0,0,0-7.136-7.46c-4.119-.032-7.229,3.171-7.262,7.515-.023,3.06-.035,6.121.009,9.181a2.106,2.106,0,0,1-1.821,2.451M88.657,73.156c0-14.306.027-28.406-.022-42.506a7.018,7.018,0,0,0-4.881-6.482A7.178,7.178,0,0,0,74.268,31.2c-.032,13.807-.01,27.615,0,41.422,0,.155-.072.378.2.42,5.43-3.256,8.827-3.262,14.2.117m-64.3,15.493c3.237,0,6-.046,8.759.024a3.127,3.127,0,0,0,2.509-1.045c6.385-6.437,12.825-12.82,19.2-19.265A4.17,4.17,0,0,1,58.16,67c3.6.083,7.206-.023,10.807.056,1.251.027,1.88-.151,1.714-1.612a19.986,19.986,0,0,1-.006-3.957c.113-1.3-.218-1.72-1.627-1.7-7.024.085-14.05.01-21.075.065a4.2,4.2,0,0,1-3.188-1.287q-10-9.612-20.065-19.154a7.4,7.4,0,0,0-1.06-.971c-1.154-.728-2-.253-2.015,1.1-.013,1.741.061,3.486-.026,5.223a3.292,3.292,0,0,0,1.175,2.8c6.774,6.381,13.5,12.815,20.236,19.235,1.811,1.726,1.8,2.342-.039,4.094q-4.7,4.472-9.395,8.941c-2.981,2.841-5.957,5.687-9.234,8.816m15.46-.129a8.124,8.124,0,0,0,.829.123q20.352.005,40.7-.008a7.2,7.2,0,1,0-7.067-7.618c-.117,1.232-.5,2.2-1.843,2.182-1.461-.021-1.817-1.081-1.805-2.378.027-3-.029-6,.031-9,.019-.951-.255-1.219-1.2-1.2-3.6.054-7.2.035-10.806.01a2.027,2.027,0,0,0-1.586.638C51.4,76.958,45.71,82.636,39.822,88.52m6.3-84.913C35.8,3.647,29.281,14.144,32.66,22.436c3.286,8.065,8.055,15.228,12.922,22.356.461.675.741.566,1.15-.032,4.836-7.077,9.548-14.2,12.856-22.189C63.054,14.2,56.506,3.615,46.125,3.607M21.641,51.415c0,10.027-.008,19.624.009,29.22,0,1.327-.215,2.532-1.8,2.56-1.464.026-1.737-1.083-1.857-2.353a7.2,7.2,0,0,0-14.357.164,7.389,7.389,0,0,0,7.244,7.611c2.336.1,4.682-.018,7.02.054a2.814,2.814,0,0,0,2.205-.93c2.8-2.716,5.639-5.392,8.462-8.083C32.04,76.344,35.505,73.021,39,69.724c.6-.565.937-.926.135-1.681-5.756-5.42-11.466-10.889-17.489-16.628M28.681,38.2c6.362,6.059,12.4,11.8,18.412,17.553a2.128,2.128,0,0,0,1.665.462c6.842,0,13.684-.029,20.526.026,1.127.009,1.4-.31,1.39-1.408-.058-5.041-.075-10.083.008-15.123.022-1.327-.428-1.559-1.628-1.538-4.08.072-8.163.065-12.243,0a2.229,2.229,0,0,0-2.148,1.2q-3.21,4.885-6.584,9.661c-1.38,1.962-2.492,1.955-3.886-.027-2.242-3.187-4.449-6.4-6.579-9.664a2.188,2.188,0,0,0-2.166-1.168c-2.092.073-4.188.022-6.766.022" transform="translate(0 0)" fill="#030303"/>
        <path id="Trazado_717055" data-name="Trazado 717055" d="M5.036,85.127a2.106,2.106,0,0,0,1.821-2.451c-.045-3.06-.033-6.121-.009-9.181.033-4.344,3.143-7.547,7.262-7.515a7.18,7.18,0,0,1,7.136,7.46c.023,13.913.009,27.827.009,41.981-4.789-3.411-9.5-3.525-14.411.052V109.44c0-3.721-.027-7.442.014-11.162a2.106,2.106,0,0,0-1.821-2.449q0-1.745,0-3.489c1.029-.206,1.787-.726,1.787-1.862s-.756-1.657-1.787-1.861q0-1.744,0-3.489" transform="translate(-3.22 -42.188)" fill="#eaeaef"/>
        <path id="Trazado_717056" data-name="Trazado 717056" d="M1.879,128.755c1.031.2,1.787.725,1.787,1.861s-.758,1.656-1.787,1.862C.855,132.268.1,131.75.1,130.616s.755-1.652,1.78-1.861" transform="translate(-0.063 -82.327)" fill="#0d0d0d"/>
        <path id="Trazado_717057" data-name="Trazado 717057" d="M220.321,115.323c-5.369-3.379-8.766-3.373-14.195-.117-.27-.042-.2-.265-.2-.419-.005-13.807-.027-27.615,0-41.422a7.177,7.177,0,0,1,9.486-7.029,7.019,7.019,0,0,1,4.881,6.483c.049,14.1.022,28.2.022,42.505" transform="translate(-131.664 -42.168)" fill="#eaeaef"/>
        <path id="Trazado_717058" data-name="Trazado 717058" d="M62.687,156.2c3.277-3.129,6.253-5.975,9.234-8.816q4.694-4.474,9.395-8.941c1.84-1.752,1.849-2.368.039-4.094q-10.1-9.632-20.236-19.236a3.291,3.291,0,0,1-1.175-2.8c.087-1.737.013-3.481.026-5.223.01-1.353.861-1.828,2.015-1.1a7.443,7.443,0,0,1,1.061.971q10.04,9.569,20.065,19.154A4.205,4.205,0,0,0,86.3,127.4c7.025-.055,14.051.02,21.075-.065,1.409-.017,1.739.406,1.627,1.7a19.987,19.987,0,0,0,.006,3.957c.166,1.461-.464,1.64-1.714,1.612-3.6-.079-7.206.027-10.807-.056a4.17,4.17,0,0,0-3.329,1.363c-6.377,6.445-12.817,12.828-19.2,19.265a3.125,3.125,0,0,1-2.509,1.045c-2.76-.07-5.522-.023-8.759-.023" transform="translate(-38.325 -67.554)" fill="#fbd0a2"/>
        <path id="Trazado_717059" data-name="Trazado 717059" d="M110.437,213.73c5.887-5.884,11.579-11.562,17.252-17.259a2.027,2.027,0,0,1,1.586-.638c3.6.024,7.2.044,10.806-.01.95-.014,1.223.254,1.2,1.2-.059,3,0,6-.03,9-.012,1.3.345,2.357,1.805,2.378,1.343.02,1.726-.95,1.843-2.182a7.194,7.194,0,1,1,7.067,7.618q-20.352.047-40.7.008a8.227,8.227,0,0,1-.829-.123" transform="translate(-70.615 -125.21)" fill="#75e0f6"/>
        <path id="Trazado_717060" data-name="Trazado 717060" d="M102.445,10c10.381.007,16.929,10.6,13.464,18.964-3.309,7.989-8.021,15.112-12.857,22.189-.409.6-.689.707-1.15.032C97.036,44.06,92.267,36.9,88.981,28.832,85.6,20.539,92.119,10.043,102.445,10m9.03,14.472a9.01,9.01,0,1,0-9.114,8.949,9.03,9.03,0,0,0,9.114-8.949" transform="translate(-56.321 -6.396)" fill="#fb6179"/>
        <path id="Trazado_717061" data-name="Trazado 717061" d="M28.069,142.585c6.023,5.738,11.733,11.207,17.489,16.628.8.755.463,1.117-.135,1.681-3.49,3.3-6.955,6.62-10.429,9.933-2.823,2.692-5.662,5.367-8.462,8.084a2.815,2.815,0,0,1-2.205.93c-2.338-.071-4.684.049-7.02-.054a7.389,7.389,0,0,1-7.244-7.612,7.2,7.2,0,0,1,14.357-.164c.12,1.27.393,2.379,1.857,2.353,1.587-.028,1.8-1.234,1.8-2.56-.018-9.6-.009-19.193-.009-29.22" transform="translate(-6.427 -91.17)" fill="#75dff5"/>
        <path id="Trazado_717062" data-name="Trazado 717062" d="M79.54,105.891c2.577,0,4.674.051,6.766-.022a2.188,2.188,0,0,1,2.166,1.168c2.13,3.263,4.337,6.477,6.579,9.664,1.394,1.982,2.506,1.989,3.886.027q3.363-4.781,6.584-9.661a2.229,2.229,0,0,1,2.148-1.2c4.08.063,8.163.07,12.243,0,1.2-.021,1.65.211,1.628,1.538-.083,5.04-.066,10.082-.008,15.123.013,1.1-.263,1.417-1.39,1.408-6.841-.055-13.684-.028-20.526-.026a2.128,2.128,0,0,1-1.665-.462C91.935,117.689,85.9,111.95,79.54,105.891" transform="translate(-50.859 -67.689)" fill="#7ee680"/>
        <path id="Trazado_717063" data-name="Trazado 717063" d="M121,34.057a9.01,9.01,0,1,1-8.993-9.069A9.033,9.033,0,0,1,121,34.057m-8.939,5.34a5.4,5.4,0,1,0-5.47-5.286,5.426,5.426,0,0,0,5.47,5.286" transform="translate(-65.85 -15.978)" fill="#060304"/>
        <path id="Trazado_717064" data-name="Trazado 717064" d="M118.464,45.793a5.4,5.4,0,1,1,5.329-5.427,5.423,5.423,0,0,1-5.329,5.427" transform="translate(-72.249 -22.374)" fill="#e7e7ec"/>
      </g>
    </g>
  </g>
</svg>
