<svg xmlns="http://www.w3.org/2000/svg" xmlns:xlink="http://www.w3.org/1999/xlink" width="116.999" height="115" viewBox="0 0 116.999 115">
  <defs>
    <clipPath id="clip-path">
      <rect id="Rect치ngulo_350168" data-name="Rect치ngulo 350168" width="59.579" height="55.057" fill="none"/>
    </clipPath>
  </defs>
  <g id="Grupo_1018022" data-name="Grupo 1018022" transform="translate(-742 -1721.564)">
    <g id="Grupo_1016361" data-name="Grupo 1016361" transform="translate(316.563 -5776.906)">
      <g id="Grupo_1015374" data-name="Grupo 1015374" transform="translate(425.927 7498.205)">
        <g id="Grupo_1015448" data-name="Grupo 1015448" transform="translate(0 0)">
          <g id="Grupo_1014855" data-name="Grupo 1014855" transform="translate(0 0)">
            <path id="Uni칩n_12" data-name="Uni칩n 12" d="M58.5,0C90.809,0,117,25.744,117,57.5S90.809,115,58.5,115,0,89.256,0,57.5,26.192,0,58.5,0Z" transform="translate(-0.49 0.265)" fill="#81c539"/>
            <ellipse id="Elipse_4842" data-name="Elipse 4842" cx="49" cy="49.5" rx="49" ry="49.5" transform="translate(9.51 7.265)" fill="#fff"/>
          </g>
        </g>
      </g>
    </g>
    <g id="Grupo_1017397" data-name="Grupo 1017397" transform="translate(767.036 1748.564)">
      <g id="Grupo_1017396" data-name="Grupo 1017396" clip-path="url(#clip-path)">
        <path id="Trazado_718132" data-name="Trazado 718132" d="M6.334,53.827c-.5,1.692-1.893,1.155-3,1.132a3.514,3.514,0,0,1-3.284-2.8A3.655,3.655,0,0,1,2.288,47.9a5.237,5.237,0,0,1,1.948-.254c2.951,0,5.9-.024,8.853.015.73.01,1.007-.141.981-.94-.062-1.939-.036-3.882-.01-5.823a1.217,1.217,0,0,0-.586-1.133,7.363,7.363,0,0,1-3.124-6.3c0-3.961,0-7.921,0-11.881a6.812,6.812,0,0,1,4.426-6.765c-.02-.459-.463-.643-.716-.943-1.285-1.527-1.35-3.345-1.221-5.182.069-.982-.259-1.341-1.216-1.19a4.611,4.611,0,0,1-.814,0A1.075,1.075,0,0,1,9.6,6.377a1.038,1.038,0,0,1,1.166-1.163c1.458.2,1.462-.573,1.451-1.656A3.314,3.314,0,0,1,15.8.009C17.427,0,19.058,0,20.689.008c2.351.011,3.678,1.3,3.653,3.682-.011,1.018.025,1.716,1.367,1.514A1.085,1.085,0,0,1,27,6.375c-.014.777-.545,1.111-1.331,1.142-1.617.063-1.616.086-1.616,1.78,0,3.249-.7,4.569-3.33,6.207,1.86,1.528,3.011,3.61,4.409,5.493a2,2,0,0,0,1.888.992c1.977-.083,3.96-.028,5.94-.025A3.753,3.753,0,0,1,36.9,24.6c.124.358.225.594.715.514A9.412,9.412,0,0,1,46,27.894c.044.042.134.035.343.085,0-1.288-.012-2.546,0-3.8.009-.7-.5-.547-.895-.577-3.721-.281-6.666-2.625-7.258-6.25-.7-4.295.113-4.6,3.878-4.276a7.309,7.309,0,0,1,4.038,1.922c.35-1.079.35-1.079-.453-1.886a7.261,7.261,0,0,1,.8-11.016,1.564,1.564,0,0,1,2.1.009,7.22,7.22,0,0,1,.832,10.922,2.1,2.1,0,0,0-.719,1.709c.05,1.579.016,3.161.016,4.955a9.157,9.157,0,0,1,7.076-2.7c1.911.129,2.2.376,2.377,2.246a8.763,8.763,0,0,1-8.568,9.574c-.708.035-.908.178-.9.9q.052,6.639,0,13.279c0,.645.153.956.824,1.131a5.421,5.421,0,0,1,2.42,1.55q3.449,3.47,6.921,6.917c.639.632,1.134,1.314.348,2.078-.754.733-1.411.2-1.985-.4a6.739,6.739,0,0,0-.521-.45c-2.231-2.253-4.425-4.545-6.708-6.744a3.494,3.494,0,0,0-4.944.024c-2.257,2.171-4.422,4.438-6.626,6.664-.259.23-.53.449-.776.693-.577.571-1.207.771-1.821.125s-.353-1.271.213-1.826c.471-.462.934-.931,1.4-1.4,1.811-1.81,3.63-3.613,5.429-5.435a6.326,6.326,0,0,1,2.891-1.867c.552-.141.623-.461.618-.935-.017-1.474-.052-2.95.013-4.422.034-.776-.213-.931-.958-.936a9.473,9.473,0,0,1-9.112-6.645,7.881,7.881,0,0,1-.408-2.6c-1.36,1.11-2.813.921-4.233.924-2.832.005-5.665.035-8.5-.019-.847-.016-1.144.166-1.116,1.072.059,1.895,0,1.9,1.877,1.9,1.164,0,2.328-.007,3.492,0a6.261,6.261,0,0,1,6.571,6.362c.078,4.15.053,8.3.006,12.453a3.649,3.649,0,0,1-3.718,3.792,3.7,3.7,0,0,1-3.635-3.878c-.021-2.987-.039-5.975.016-8.961.015-.841-.245-1.07-1.038-.991-1.031.1-2.395-.42-3.019.2s-.164,1.985-.186,3.022c-.03,1.435.019,2.871-.015,4.306a6.33,6.33,0,0,1-6.406,6.309c-.427.006-.854-.014-1.28,0a1.264,1.264,0,0,1-1.464-1.159c.171-1.147.995-1.188,1.91-1.186,3.506.01,4.914-1.419,4.915-4.939q0-2.209,0-4.418c0-2.074,0-2.073-2.117-2.125a3.529,3.529,0,0,1-.809-.061c-.675-.179-.766.147-.76.72.024,2.17.016,4.34.007,6.511-.006,1.321-.313,1.637-1.655,1.647-2.325.017-4.651,0-6.976.006-1.395,0-2.791-.014-4.185.027a1.184,1.184,0,0,0-1.258,1.247,1.252,1.252,0,0,0,1.257,1.381,5.066,5.066,0,0,0,1.045.007,1.443,1.443,0,0,1,1.725,1.173M12.683,26.2c0,1.747.041,3.5-.018,5.241-.027.793.248.994.993.952,1.045-.06,2.1,0,3.144-.018.925-.013,2.149.294,2.7-.175.646-.554.189-1.818.208-2.771.024-1.21.265-2.465-.829-3.461a.964.964,0,0,1,.149-1.455,1.06,1.06,0,0,1,1.569.013c.637.623,1.219,1.3,1.8,1.982a1.416,1.416,0,0,0,1.175.6c3.183-.025,6.367-.013,9.551-.014a1.531,1.531,0,0,0,1.185-.37,1.3,1.3,0,0,0,.356-1.487,1.533,1.533,0,0,0-1.592-.94c-2.407,0-4.815-.027-7.221.013a1.985,1.985,0,0,1-1.855-.925c-1.081-1.563-2.216-3.089-3.348-4.616a4.261,4.261,0,0,0-4.884-1.778,4.33,4.33,0,0,0-3.072,4.321c-.027,1.63-.005,3.261-.006,4.892m8.055,8.509c-2.326,0-4.653.043-6.978-.02-1-.027-1,.328-.656,1.057a5.067,5.067,0,0,0,4.907,3.084c3.062.021,6.125,0,9.188.008,1.522,0,1.752.239,1.754,1.763q.007,5.175,0,10.35c0,.934.322,1.661,1.342,1.674s1.367-.733,1.368-1.653c0-4.07.044-8.141-.017-12.211a3.921,3.921,0,0,0-4.162-4.049c-2.248-.018-4.5,0-6.745,0m24.37.721c.6-.012,1.232.192,1.247-.845A7.426,7.426,0,0,0,39.1,27.272c-.735.009-.907.28-.917.956a7.226,7.226,0,0,0,6.926,7.206M18.416,7.507h-.465c-2.952,0-2.952,0-2.792,2.944a3.214,3.214,0,0,0,3.235,3.128,3.246,3.246,0,0,0,3.312-3.062c.038-.579-.044-1.168.025-1.741.116-.967-.131-1.446-1.226-1.287a14.648,14.648,0,0,1-2.089.018M48.688,25.55c-.035.47-.078.956.781.96a6.586,6.586,0,0,0,6.377-6.421c-.01-.613-.219-.778-.813-.792a6.451,6.451,0,0,0-6.345,6.253m-7.6-10.226c-.526-.1-.764.075-.766.725a5.566,5.566,0,0,0,5.343,5.222c.491-.025.667-.171.664-.681a5.56,5.56,0,0,0-5.242-5.266M18.222,5.172c.93,0,1.861.026,2.789-.012.387-.016,1.06.286,1-.529s.45-2.086-.815-2.217a28.357,28.357,0,0,0-5.8,0c-1.247.128-.8,1.384-.847,2.211s.612.517,1,.533c.89.038,1.782.012,2.673.012M49.183,8.007a5.245,5.245,0,0,0-1.236-3.3c-.329-.387-.557-.379-.918,0a5.052,5.052,0,0,0,.006,6.493c.364.379.579.368.905-.01a5.244,5.244,0,0,0,1.242-3.182" transform="translate(0 0)" fill="#060605"/>
        <path id="Trazado_718133" data-name="Trazado 718133" d="M164.664,205.218c2.2-2.226,4.368-4.493,6.626-6.664a3.494,3.494,0,0,1,4.943-.024c2.283,2.2,4.477,4.491,6.708,6.744l-18.277-.056" transform="translate(-126.272 -151.466)" fill="#d9a789"/>
        <path id="Trazado_718134" data-name="Trazado 718134" d="M13.92,188.869A1.443,1.443,0,0,0,12.2,187.7a5.049,5.049,0,0,1-1.045-.007,1.252,1.252,0,0,1-1.257-1.381,1.184,1.184,0,0,1,1.258-1.247c1.394-.041,2.79-.025,4.185-.027,2.325,0,4.651.011,6.976-.006,1.342-.01,1.649-.326,1.655-1.647.009-2.17.017-4.341-.007-6.511-.006-.573.084-.9.76-.72a3.531,3.531,0,0,0,.809.061c2.117.052,2.117.051,2.117,2.125q0,2.209,0,4.418c0,3.519-1.409,4.949-4.915,4.939-.915,0-1.739.038-1.909,1.186l-2.24-.01c-.2-.611-.484-1.161-1.233-1.155s-1.069.49-1.19,1.16l-2.24,0" transform="translate(-7.586 -135.043)" fill="#77affa"/>
        <path id="Trazado_718135" data-name="Trazado 718135" d="M36.774,227.069c.121-.671.451-1.154,1.19-1.16s1.033.544,1.233,1.155c-.26.6-.509,1.233-1.337,1.152a1.2,1.2,0,0,1-1.086-1.146" transform="translate(-28.2 -173.238)" fill="#080a0b"/>
        <path id="Trazado_718136" data-name="Trazado 718136" d="M54.333,81.414c0-1.631-.021-3.262.006-4.892A4.33,4.33,0,0,1,57.41,72.2a4.261,4.261,0,0,1,4.884,1.778c1.132,1.527,2.267,3.053,3.348,4.616a1.985,1.985,0,0,0,1.855.925c2.407-.039,4.814-.014,7.221-.012a1.532,1.532,0,0,1,1.592.94,1.3,1.3,0,0,1-.356,1.487,1.532,1.532,0,0,1-1.185.37c-3.184,0-6.368-.012-9.551.013a1.416,1.416,0,0,1-1.175-.6c-.58-.678-1.162-1.359-1.8-1.982a1.06,1.06,0,0,0-1.569-.013.965.965,0,0,0-.149,1.455c1.094,1,.853,2.251.829,3.461-.019.953.438,2.217-.208,2.771-.547.469-1.772.162-2.7.175-1.048.015-2.1-.041-3.144.018-.745.043-1.02-.158-.993-.952.059-1.745.018-3.494.019-5.241" transform="translate(-41.649 -55.209)" fill="#fac77a"/>
        <path id="Trazado_718137" data-name="Trazado 718137" d="M63.159,148.816c2.249,0,4.5-.014,6.746,0a3.921,3.921,0,0,1,4.162,4.049c.061,4.069.021,8.14.017,12.21,0,.919-.335,1.666-1.368,1.653s-1.344-.74-1.342-1.674q.011-5.175,0-10.35c0-1.524-.232-1.759-1.754-1.763-3.063-.008-6.125.012-9.188-.008a5.067,5.067,0,0,1-4.907-3.084c-.344-.729-.344-1.083.656-1.057,2.324.062,4.652.02,6.978.02" transform="translate(-42.42 -114.103)" fill="#75acf7"/>
        <path id="Trazado_718138" data-name="Trazado 718138" d="M170.692,125.132a7.227,7.227,0,0,1-6.926-7.206c.01-.676.182-.947.917-.956a7.427,7.427,0,0,1,7.256,7.317c-.016,1.038-.652.833-1.247.846" transform="translate(-125.584 -89.698)" fill="#c7e056"/>
        <path id="Trazado_718139" data-name="Trazado 718139" d="M68.1,32.037a14.647,14.647,0,0,0,2.089-.018c1.095-.159,1.342.321,1.226,1.287-.069.573.013,1.162-.025,1.741a3.246,3.246,0,0,1-3.312,3.062,3.214,3.214,0,0,1-3.235-3.128c-.16-2.944-.16-2.944,2.792-2.944Z" transform="translate(-49.68 -24.53)" fill="#eccca1"/>
        <path id="Trazado_718140" data-name="Trazado 718140" d="M208.778,89.013a6.45,6.45,0,0,1,6.345-6.253c.594.013.8.179.813.792a6.587,6.587,0,0,1-6.377,6.421c-.859,0-.816-.49-.781-.96" transform="translate(-160.09 -63.464)" fill="#c7e056"/>
        <path id="Trazado_718141" data-name="Trazado 718141" d="M173.732,65.636a5.56,5.56,0,0,1,5.242,5.266c0,.51-.173.655-.664.681a5.566,5.566,0,0,1-5.343-5.222c0-.65.24-.828.766-.725" transform="translate(-132.639 -50.312)" fill="#c6df56"/>
        <path id="Trazado_718142" data-name="Trazado 718142" d="M65.936,12.624c-.892,0-1.784.026-2.673-.012-.391-.017-1.053.279-1-.533s-.4-2.083.847-2.211a28.359,28.359,0,0,1,5.8,0c1.264.131.751,1.4.815,2.217s-.608.513-1,.529c-.928.038-1.859.012-2.789.012" transform="translate(-47.714 -7.452)" fill="#fcbf59"/>
        <path id="Trazado_718143" data-name="Trazado 718143" d="M199.989,22.549a5.244,5.244,0,0,1-1.242,3.182c-.326.378-.541.389-.905.01a5.052,5.052,0,0,1-.006-6.493c.361-.375.589-.384.918,0a5.245,5.245,0,0,1,1.236,3.3" transform="translate(-150.806 -14.542)" fill="#c4dd55"/>
      </g>
    </g>
  </g>
</svg>
