<svg id="Grupo_1017105" data-name="Grupo 1017105" xmlns="http://www.w3.org/2000/svg" xmlns:xlink="http://www.w3.org/1999/xlink" width="253.126" height="257.104" viewBox="0 0 253.126 257.104">
  <defs>
    <clipPath id="clip-path">
      <rect id="Rectángulo_350003" data-name="Rectángulo 350003" width="253.126" height="257.104" fill="none"/>
    </clipPath>
  </defs>
  <path id="Trazado_717617" data-name="Trazado 717617" d="M99.217,64.247,53.174,37.665,99.217,11.082,145.26,37.665Z" transform="translate(29.951 6.242)" fill="#fff"/>
  <path id="Trazado_717618" data-name="Trazado 717618" d="M99.217,184.789,53.174,158.206V28.086L99.217,54.67Z" transform="translate(29.951 15.82)" fill="#7cb342"/>
  <path id="Trazado_717619" data-name="Trazado 717619" d="M128.67,158.206,82.627,184.79V54.669L128.67,28.087Z" transform="translate(46.54 15.82)" fill="#93d645"/>
  <path id="Trazado_717620" data-name="Trazado 717620" d="M128.67,134.169,82.627,160.752V81.163l2.736-10.4Z" transform="translate(46.54 39.858)" fill="#cdbcbc"/>
  <path id="Trazado_717621" data-name="Trazado 717621" d="M68.166,140.112,22.123,113.529,68.166,86.947l46.043,26.582Z" transform="translate(12.461 48.974)" fill="#fff"/>
  <path id="Trazado_717622" data-name="Trazado 717622" d="M68.166,170.39,22.123,143.807V103.951l46.043,26.583Z" transform="translate(12.461 58.552)" fill="#cdbcbc"/>
  <path id="Trazado_717623" data-name="Trazado 717623" d="M97.618,143.807,51.576,170.391V130.534l46.043-26.582Z" transform="translate(29.051 58.552)" fill="#cdbcbc"/>
  <path id="Trazado_717624" data-name="Trazado 717624" d="M145.754,115.777,84.377,80.341,130.42,53.759,191.8,89.195Z" transform="translate(47.526 30.28)" fill="#fff"/>
  <path id="Trazado_717625" data-name="Trazado 717625" d="M118.517,100.052,84.377,80.34l46.043-26.582-3.886,46.349Z" transform="translate(47.526 30.28)" fill="#cdbcbc"/>
  <path id="Trazado_717626" data-name="Trazado 717626" d="M84.377,162.33V70.763L145.754,106.2v91.568" transform="translate(47.526 39.858)" fill="#01d8d1"/>
  <path id="Trazado_717627" data-name="Trazado 717627" d="M169.681,167.993l-46.043,26.583V103.009l46.043-26.582Z" transform="translate(69.641 43.048)" fill="#b3e5fc"/>
  <path id="Trazado_717628" data-name="Trazado 717628" d="M99.2,146.207,53.155,119.624,99.2,93.042l46.043,26.582Z" transform="translate(29.94 52.407)" fill="#fff"/>
  <path id="Trazado_717629" data-name="Trazado 717629" d="M53.156,168.383,99.2,194.966V136.63L53.156,110.046Z" transform="translate(29.94 61.985)" fill="#005d95"/>
  <g id="Grupo_1017104" data-name="Grupo 1017104">
    <g id="Grupo_1017103" data-name="Grupo 1017103" clip-path="url(#clip-path)">
      <path id="Trazado_717630" data-name="Trazado 717630" d="M99.255,195.176a.15.15,0,0,1-.078-.02l-46.043-26.58a.159.159,0,0,1-.078-.136V110.1a.159.159,0,0,1,.078-.136.163.163,0,0,1,.156,0l46.041,26.582a.157.157,0,0,1,.08.136v58.336a.153.153,0,0,1-.08.134.148.148,0,0,1-.077.02M53.369,168.349l45.728,26.4V136.776l-45.728-26.4Z" transform="translate(29.884 61.929)" fill="#fff8f8"/>
      <path id="Trazado_717631" data-name="Trazado 717631" d="M128.651,168.382,82.608,194.965V136.629l46.043-26.582Z" transform="translate(46.53 61.985)" fill="#0081c1"/>
      <path id="Trazado_717632" data-name="Trazado 717632" d="M56.148,128.247l.016,5.345-6.306,3.639.014,5.345-6.314,3.646.016,5.345-6.306,3.641.016,5.343-6.306,3.641.014,5.343-6.314,3.647.013,5.343L62.853,156.49V124.376Z" transform="translate(13.899 70.056)" fill="#eadcdb"/>
      <path id="Trazado_717633" data-name="Trazado 717633" d="M58.708,134.923l-38.575-22.4.014,5.345,38.577,22.4Z" transform="translate(11.34 63.38)" fill="#cdbcbc"/>
      <path id="Trazado_717634" data-name="Trazado 717634" d="M65.412,132.447l-38.575-22.4-6.7,3.872,38.575,22.4Z" transform="translate(11.34 61.985)" fill="#fff"/>
      <path id="Trazado_717635" data-name="Trazado 717635" d="M54.683,140.67l-38.575-22.4.014,5.345,38.577,22.4Z" transform="translate(9.073 66.617)" fill="#cdbcbc"/>
      <path id="Trazado_717636" data-name="Trazado 717636" d="M60.989,138.341l-38.575-22.4-6.306,3.641,38.575,22.4Z" transform="translate(9.073 65.305)" fill="#fff"/>
      <path id="Trazado_717637" data-name="Trazado 717637" d="M50.654,146.421l-38.575-22.4.014,5.345,38.577,22.4Z" transform="translate(6.803 69.856)" fill="#cdbcbc"/>
      <path id="Trazado_717638" data-name="Trazado 717638" d="M56.969,144.089l-38.575-22.4-6.316,3.646,38.577,22.4Z" transform="translate(6.803 68.542)" fill="#fff"/>
      <path id="Trazado_717639" data-name="Trazado 717639" d="M46.629,152.169l-38.575-22.4.014,5.345,38.577,22.4Z" transform="translate(4.537 73.093)" fill="#cdbcbc"/>
      <path id="Trazado_717640" data-name="Trazado 717640" d="M52.935,149.84,14.36,127.44,8.054,131.08l38.575,22.4Z" transform="translate(4.537 71.781)" fill="#fff"/>
      <path id="Trazado_717641" data-name="Trazado 717641" d="M48.911,155.587l-38.575-22.4L4.03,136.828l38.575,22.4Z" transform="translate(2.27 75.019)" fill="#fff"/>
      <path id="Trazado_717642" data-name="Trazado 717642" d="M42.605,157.916,4.03,135.516l.014,5.345,38.577,22.4Z" transform="translate(2.27 76.331)" fill="#cdbcbc"/>
      <path id="Trazado_717643" data-name="Trazado 717643" d="M38.575,163.667,0,141.267l.014,5.345,38.577,22.4Z" transform="translate(0 79.57)" fill="#cdbcbc"/>
      <path id="Trazado_717644" data-name="Trazado 717644" d="M44.89,161.334l-38.575-22.4L0,142.58l38.577,22.4Z" transform="translate(0 78.256)" fill="#fff"/>
      <path id="Trazado_717645" data-name="Trazado 717645" d="M93.636,52.64l-.016,5.345,6.306,3.639-.014,5.345,6.314,3.646-.016,5.345,6.306,3.641-.014,5.343,6.3,3.641-.014,5.343,6.314,3.647-.012,5.343L86.931,80.884V48.77Z" transform="translate(48.965 27.47)" fill="#cdbcbc"/>
      <path id="Trazado_717646" data-name="Trazado 717646" d="M91.226,59.317l38.575-22.4-.014,5.345L91.21,64.661Z" transform="translate(51.375 20.794)" fill="#eadcdb"/>
      <path id="Trazado_717647" data-name="Trazado 717647" d="M86.931,56.84l38.575-22.4,6.7,3.871-38.575,22.4Z" transform="translate(48.965 19.399)" fill="#fff"/>
      <path id="Trazado_717648" data-name="Trazado 717648" d="M95.25,65.064l38.575-22.4-.014,5.345-38.577,22.4Z" transform="translate(53.641 24.031)" fill="#eadcdb"/>
      <path id="Trazado_717649" data-name="Trazado 717649" d="M91.21,62.735l38.575-22.4,6.306,3.641-38.575,22.4Z" transform="translate(51.375 22.719)" fill="#fff"/>
      <path id="Trazado_717650" data-name="Trazado 717650" d="M99.28,70.815l38.575-22.4-.014,5.345-38.577,22.4Z" transform="translate(55.911 27.27)" fill="#eadcdb"/>
      <path id="Trazado_717651" data-name="Trazado 717651" d="M95.234,68.482l38.575-22.4,6.316,3.646-38.577,22.4Z" transform="translate(53.642 25.956)" fill="#fff"/>
      <path id="Trazado_717652" data-name="Trazado 717652" d="M103.3,76.562l38.575-22.4-.014,5.345-38.577,22.4Z" transform="translate(58.178 30.507)" fill="#eadcdb"/>
      <path id="Trazado_717653" data-name="Trazado 717653" d="M99.264,74.233l38.575-22.4,6.306,3.641-38.575,22.4Z" transform="translate(55.911 29.196)" fill="#fff"/>
      <path id="Trazado_717654" data-name="Trazado 717654" d="M103.288,79.981l38.575-22.4,6.306,3.641-38.575,22.4Z" transform="translate(58.178 32.433)" fill="#fff"/>
      <path id="Trazado_717655" data-name="Trazado 717655" d="M107.328,82.31,145.9,59.91l-.014,5.345-38.577,22.4Z" transform="translate(60.445 33.745)" fill="#eadcdb"/>
      <path id="Trazado_717656" data-name="Trazado 717656" d="M111.358,88.06l38.575-22.4-.014,5.345-38.577,22.4Z" transform="translate(62.714 36.984)" fill="#eadcdb"/>
      <path id="Trazado_717657" data-name="Trazado 717657" d="M107.313,85.728l38.575-22.4,6.316,3.646-38.577,22.4Z" transform="translate(60.445 35.67)" fill="#fff"/>
      <path id="Trazado_717658" data-name="Trazado 717658" d="M150.611,79.619a23.627,23.627,0,0,0-4.088-2.88,19.244,19.244,0,0,1-3.061.077c-2.151-.108-4.669-.38-6.525-1.616a7.808,7.808,0,0,0-.011,1.269,1.788,1.788,0,0,0,1.115,1.807c4.974,3.042,5.654,3.447,6.556,3.894a5.856,5.856,0,0,0,4.948.381c1.357-.6,1.443-1.166,1.38-1.66-.033-.264.028-.974-.314-1.272" transform="translate(77.113 42.357)" fill="#ebe5ed"/>
      <path id="Trazado_717659" data-name="Trazado 717659" d="M150.367,80.34c-1.223-.99-4.215-2.992-5.7-4.313a8.415,8.415,0,0,1-1.6-1.877c-.575-1.33-3.622-1.323-5.321-.438-.8.416-.944,1.787-.858,3.058A1.788,1.788,0,0,0,138,78.577a60.03,60.03,0,0,0,6.989,3.989,5.3,5.3,0,0,0,3.769.325,3.312,3.312,0,0,0,1.748-.96.958.958,0,0,0-.142-1.591" transform="translate(77.092 41.17)" fill="#221c3a"/>
      <path id="Trazado_717660" data-name="Trazado 717660" d="M121.414,89c1.605,1.451,5.584,2.126,6.7-.1.519-1.033-.764-8.105-.8-10.131-.011-.578-.028-1.6-.028-1.6-.148-.2-.743-.36-.968-.471-.957-.477-2.719-.091-3.785-.163-.544-.038-1.058,3.592-1.108,3.953-.3,2.2-1.257,7.374-.006,8.5" transform="translate(68.034 43.068)" fill="#ebe5ed"/>
      <path id="Trazado_717661" data-name="Trazado 717661" d="M121.407,88.231c1.605,1.451,5.584,2.126,6.7-.1.519-1.033-.611-8.087-.65-10.113-.011-.58-.028-1.6-.028-1.6-.149-.2-.9-.378-1.121-.489-.957-.477-2.719-.091-3.785-.163-.544-.038-1.058,3.592-1.108,3.953-.3,2.2-1.257,7.374-.006,8.5" transform="translate(68.03 42.635)" fill="#221c3a"/>
      <path id="Trazado_717662" data-name="Trazado 717662" d="M152.766,76.783a23.489,23.489,0,0,1-.477-5.379c-.008-12.906-1.741-22.844-2.112-23.857a5.832,5.832,0,0,0-6.608-3.6l-12.137,2.346a3.052,3.052,0,0,0-2.314,1.94c-2.262,6.331-3.059,13.654-3.728,20.4a18,18,0,0,1-.971,4.394c-1.308,3.583-2.446,3.578-2.7,11.137-.124,3.638-.149,6.642-.336,10.271-.249,1.666,5.748,2.368,6.076.433a60.51,60.51,0,0,1,1.779-6.05,48.6,48.6,0,0,0,2.143-8.495,15.2,15.2,0,0,1,1.938-5.74,86.61,86.61,0,0,0,6.847-15.115c1.313,4.429,2.529,8.906,3.78,12.959a7.607,7.607,0,0,1,.256,4.479c-.592,4.768.7,7.69,1.269,13.522.186,1.9,6.628,2.436,6.758-.369.227-4.9,1.324-9.073.538-13.278" transform="translate(68.365 24.691)" fill="#221c3a"/>
      <path id="Trazado_717663" data-name="Trazado 717663" d="M155.549,55.082c-.56-1.162-4.805-12.4-4.805-12.4s-1.585-14.71-4.261-14.535c-2.873.188-4.487,5.234-6.442,6.123,0,0,3.273,8.987,4.416,11.757.538,1.3,6.58,11.84,6.874,12.211,1.273,1.6,5.179-1.163,4.219-3.155" transform="translate(78.879 15.852)" fill="#221c3a"/>
      <path id="Trazado_717664" data-name="Trazado 717664" d="M151.538,46.13c-.708-1.509-5,.335-3.925,2.167.838,1.684,5.048-.727,3.925-2.167" transform="translate(83.048 25.67)" fill="#fffcfb"/>
      <path id="Trazado_717665" data-name="Trazado 717665" d="M150.02,58.026c-.017-.089-.028-.175-.034-.245-.047-.467-.111-.933-.181-1.4-.089-.586-.186-1.172-.3-1.756a20.776,20.776,0,0,0-1.263-2.21,3.047,3.047,0,0,1-.222-.489c-.217-.6-.156-.993-.661-1.54a6.88,6.88,0,0,0,.872-2.243c-.353-1.262,3.117-2.9,3.663-1.157.58,1.826.525,1.766,1.044,3.206.306.855.905,5.276.245,5.9a3.091,3.091,0,0,0-.3.244,1.491,1.491,0,0,1-.691.958c-.092.794-.558.868-.711.908a.333.333,0,0,1-.4-.167,1.039,1.039,0,0,1-.37.5c-.447.26-.619-.156-.688-.511" transform="translate(83.002 26.04)" fill="#fcbe9f"/>
      <path id="Trazado_717666" data-name="Trazado 717666" d="M146.866,52.758c.341-1.032-.1-2.54.5-3.308a8.159,8.159,0,0,0,.564-.8l.8,2.149-.149.125c-.039.073-.025.474-.1.905-.208,1.177-.916,2.045-1.441,1.968-.325-.047-.427-.278-.177-1.036" transform="translate(82.645 27.401)" fill="#fcbe9f"/>
      <path id="Trazado_717667" data-name="Trazado 717667" d="M140.705,68c-1-4.261-.983-8.318,2.159-11.745-2.017,4.138.009,7.518,1.515,10.091,0,0,5-2.451,4.227-5.54l-3.1-7.007s3.844-4.2,7.446-9.033c.914-1.229,1.774-2.351,2.522-3.513a13.444,13.444,0,0,0,1.38-11.782c-.907-2.5-4.15-3.452-6.373-2.767a24.423,24.423,0,0,0-6.8,4.327c-5,4.8-7.68,9.77-10.044,16.283-.771,2.12-2.711,4.044-5,7.868-2.7,4.5-3.619,6.341-4.238,11.187-.047.37,8.163,3.877,16.306,1.63" transform="translate(70.069 14.923)" fill="#221c3a"/>
      <path id="Trazado_717668" data-name="Trazado 717668" d="M135.753,35.269a8.924,8.924,0,0,0,1.237,4.855,14.123,14.123,0,0,1,1.513,9.95c-.2.893-.449,1.8-.743,2.726,1.906-.5,12.4-11.792,11.779-18.975-.258-2.992-2.064-6.1-5.918-5.636-4.075.489-7.608,2.983-7.868,7.078" transform="translate(76.456 15.853)" fill="#302a51"/>
      <path id="Trazado_717669" data-name="Trazado 717669" d="M138.276,34.439c-.108,1.571,2.855,8.676,2.117,13.474-.9,5.823-6.023,6.867-5.834,12.386a6.018,6.018,0,0,0,1.768-.669c-1.133-3.544,11.781-16.466,12.534-25.183.26-2.992-1.254-6.14-4.1-5.732-3.241.464-6.292,2.889-6.486,5.725" transform="translate(75.789 16.153)" fill="#fffcfb"/>
      <path id="Trazado_717670" data-name="Trazado 717670" d="M140.478,37.107c.149,1.407,1.448,1.427,2.179.63a2.987,2.987,0,0,0,.929-2c.061-1.559-3.416-1.552-3.108,1.374" transform="translate(79.115 19.544)" fill="#5b59d6"/>
      <path id="Trazado_717671" data-name="Trazado 717671" d="M137.319,33.477c-.02,3.07,1.8,6.481,3.51,9.2.592-.564,2.944-3.406,2.944-3.406s2.176.056,3.289.214c-.716-2.9-1.19-5.9-2.659-8.5-1.61-2.851-7.06-1.038-7.083,2.49" transform="translate(77.346 16.661)" fill="#fffcfb"/>
      <path id="Trazado_717672" data-name="Trazado 717672" d="M141.765,39.427a2.32,2.32,0,0,0,2.359-.466c.816-.763,1.085-2.129,1.87-4.608.116-.364-1.635-3.319-3.3-4.732a1.652,1.652,0,0,0-2.024-.059c-.386.274-.936.647-1.71,1.146a3.738,3.738,0,0,0-.913,2.364c.033,3.167,2.511,5.9,3.716,6.356" transform="translate(77.757 16.472)" fill="#f1a782"/>
      <path id="Trazado_717673" data-name="Trazado 717673" d="M145.589,51.447l-.73-.5A7.305,7.305,0,0,1,141.8,43.8c.636-4.044,1.416-7.483,1.416-7.483l-1.021.367c-.08.03-1.507,4.946-2.442,8.654a7.244,7.244,0,0,0,3.85,8.334c.958.013,1.856,0,2.753-.019-.256-.735-.769-2.207-.769-2.207" transform="translate(78.592 20.456)" fill="#5b59d6"/>
      <path id="Trazado_717674" data-name="Trazado 717674" d="M145.273,29.037l-.052.508,2.634,5.345.416-.317Z" transform="translate(81.797 16.355)" fill="#221c3a"/>
      <path id="Trazado_717675" data-name="Trazado 717675" d="M151.635,28.5a5.767,5.767,0,0,0-3.825-4.6,7.774,7.774,0,0,0-2.382-.058c-2.354.017-3.968,3.342-4.744,5.273-.982,2.436-1.832,5.163-.9,7.662,1.8,4.832,5.2,6.545,6.45,4.322.113-.2.22-.455.447-.481a1.637,1.637,0,0,1,.245.019c.383.019.638-.388.769-.749a6.279,6.279,0,0,0,.272-.98,2.84,2.84,0,0,1,.2-.758c.258-.519.846-.764,1.3-1.126,1.082-.858,1.618-2.628,1.957-3.911a10.364,10.364,0,0,0,.211-4.613" transform="translate(78.507 13.393)" fill="#fbbd9e"/>
      <path id="Trazado_717676" data-name="Trazado 717676" d="M152.819,27.631a6.347,6.347,0,0,0-7.05-4.027c-5.984-.644-8.184,5.764-6.336,11.071.041-1.216,1.709-1.307,1.793-.886.242,1.221.086,2.051.663,2.3.469.206.475-.822,2.067-.915.278-.016,4.349,1.4,6.761.483a1.158,1.158,0,0,0,.474-.352c.635-.782,3.28-3.732,1.629-7.679" transform="translate(78.179 13.23)" fill="#221c3a"/>
      <path id="Trazado_717677" data-name="Trazado 717677" d="M140.051,29.786l.116.711,4.222,5.043.444-.336Z" transform="translate(78.885 16.777)" fill="#221c3a"/>
      <path id="Trazado_717678" data-name="Trazado 717678" d="M140.843,29.751c-.7-1.243-3.131-.658-1.126,2.819.2.352.5.732.979.674,1.051-.127.555-2.765.147-3.492" transform="translate(78.26 16.421)" fill="#fbbd9e"/>
      <path id="Trazado_717679" data-name="Trazado 717679" d="M149.92,32.51l-2.314.369a1.238,1.238,0,0,0-.43.17.61.61,0,0,0-.338-.019,3.184,3.184,0,0,0-.478.127c.025-.064-.025-.075-.113-.063l-2.314.369a1.25,1.25,0,0,0-.43.17l-.889.592c-.149.1-.23.188-.228.249,0,.028.02.05.058.063a.58.58,0,0,0,.252,0l1.574-.25a3.327,3.327,0,0,0,1.116-.441l.771-.513c.114-.044.2-.059.308-.089s.186-.061.255-.073c.142-.022.219-.009.241.022l-.611.408c-.013.055-.023.113-.033.167a.379.379,0,0,1,.094-.084l.888-.592a.611.611,0,0,1,.189-.072l2.3-.364-.849.566a2.66,2.66,0,0,1-.875.341l-1.574.252c-.1.016-.161.009-.175-.016-.009.052-.02.1-.03.155a.544.544,0,0,0,.088,0l1.574-.252a3.324,3.324,0,0,0,1.116-.439l.89-.592c.072-.047.111-.094.111-.125s-.052-.047-.139-.033M145.263,33.8a2.66,2.66,0,0,1-.875.341l-1.574.252c-.116.019-.186.009-.186-.02s.069-.081.109-.109l.889-.591a.639.639,0,0,1,.191-.073l2.3-.364Z" transform="translate(80.201 18.308)" fill="#221c3a"/>
      <path id="Trazado_717680" data-name="Trazado 717680" d="M150.714,66.591c-.436-1.093-6.055-13.772-6.055-13.772l-4.418-14.072c-1.49-4.593-8.342-3.089-7.807,2.583A121.3,121.3,0,0,0,138.248,57.2c.694,1.313,7.454,11.084,7.607,11.42.844,1.863,5.587-.211,4.859-2.034" transform="translate(74.578 20.298)" fill="#221c3a"/>
      <path id="Trazado_717681" data-name="Trazado 717681" d="M145.573,56.132l-.092-.228c-.908-1.276-4.87,1.129-4.129,2.018l.214.31c.91,1.274,4.652-.763,4.007-2.1" transform="translate(79.566 31.282)" fill="#fffcfb"/>
      <path id="Trazado_717682" data-name="Trazado 717682" d="M149.3,59.684c1.047.216,2-.086,2.114-.549.067-.286-.092-.447-.8-.489a4.166,4.166,0,0,1-2.623-.924,8.551,8.551,0,0,0-2.447-1.033.5.5,0,0,1-.33-.328c-.314-.946-3.886.833-3.489,1.768.58,1.826.83,2.395,1.237,3.869.233.841,2.69,3.2,3.508,3.561a10.553,10.553,0,0,0,1.751.617,4.862,4.862,0,0,0,1.212.252,1.393,1.393,0,0,0,.491-.1c.039-.022.319-.3.286-.3.588-.017.5-.472.335-.907-.464-1.246-1.882-1.835-2.7-2.808a2.037,2.037,0,0,1-.583-1.76,2.007,2.007,0,0,1,2.042-.875" transform="translate(79.808 31.594)" fill="#fcbe9f"/>
      <path id="Trazado_717683" data-name="Trazado 717683" d="M155,74.789a2.3,2.3,0,0,0,.228.6,3.257,3.257,0,0,1,.266.929,13.114,13.114,0,0,0,1.4,4q.028.056.056.117a5.844,5.844,0,0,1,.578,2.562,45.423,45.423,0,0,1-.641,8.79,14.747,14.747,0,0,0,.383,5.686c.941,4.069-2.115,9.648-.993,12.386.5,1.221,3.927,4.81,5.074,2.85.485-.827-.517-10.518-.65-14.4-.17-5.01.036-9.55-.447-15.014-.12-1.363.591-2.132,1.293-3.242.75-1.188,1.818-2.3,2.092-3.717a1.522,1.522,0,0,0-.159-1.093.269.269,0,0,0-.158-.133c-.069-.014-.153.047-.134.116a7.581,7.581,0,0,0,.109-1.48c-.006-.18.063-.316-.1-.467-.028-.028-.367-.214-.372-.081q.016-.469.034-.938a1.484,1.484,0,0,0-.044-.527.51.51,0,0,0-.358-.358c-.313-.061-.552.264-.7.547a.554.554,0,0,0-.722.149,13.437,13.437,0,0,0-1.1,2.661,5.47,5.47,0,0,1-1.89,2.22c-1.86,1.183-.771-1.74-2.182-2.553-.424-.244-.947-.17-.861.394" transform="translate(87.302 40.197)" fill="#fabc9d"/>
      <path id="Trazado_717684" data-name="Trazado 717684" d="M164.613,141.089c-1.4-1.8-.131-5.756.607-8.329,2.009-7.011,3.674-14.423-1.824-22.194l-12.651,7.91c-2.021,8.962-.134,18.079.211,22.73.372,5.018-.092,5.04-.225,9.536-.219,7.393,1.737,10.414,1.94,18.656,0,.034,2.5,1.127,2.565-1.268,2.534-13.664,3.27-18.759,1.9-22.955-.858-2.633,1.466-12.267,1.9-15.386-2.98-4.49-3.61.966-.216,11.305.319.971.81,1.909,1.116,2.862a16.081,16.081,0,0,1,.3,3.728c.066,1.072.133,2.146.286,3.211.547,3.8,1.9,9.5,2.7,13.84.222,1.2,2.225,1.024,2.557-.744.18-3.9.425-7.783.764-11.674s.469-8.141-1.924-11.229" transform="translate(84.389 62.277)" fill="#221c3a"/>
      <path id="Trazado_717685" data-name="Trazado 717685" d="M151.135,155.827c-1.473.442-2.34,1.632-1.963,2.35.489.935,2.245,1.016,2.245,1.016,3.244-1.132,4.311-2.941,6.442-8.217,1.371-3.4-4.526-5.986-5-2.215a8.538,8.538,0,0,0,0,1.166c.023,1.854-.739,3.109-1.727,5.9" transform="translate(83.973 82.744)" fill="#221c3a"/>
      <path id="Trazado_717686" data-name="Trazado 717686" d="M156.082,157.045c.516-1.379.685-3.366,1.9-6.381.494-1.222.089-2.751-.872-3.125-1.591-.227-3.059,2.745-3.791,4.618a33.474,33.474,0,0,0-1.949,6.1c-.025.183-.916-.059-2.279-.725a.94.94,0,0,0,.192.791,3.665,3.665,0,0,0,2.04.827c1.552-.607,3.2-1.518,4.757-2.1" transform="translate(83.962 83.095)" fill="#ff637b"/>
      <path id="Trazado_717687" data-name="Trazado 717687" d="M158.606,152.747s-1.781.508-1.915,1.391c-.067.446,1.025,1.071,1.734,1.466a1.5,1.5,0,0,0,1.448.022c2.526-1.366,3.366-2.862,4.76-7.9.979-3.528-5.174-5.434-5.218-1.634a8.246,8.246,0,0,0,.136,1.157c.233,1.84-.278,2.612-.944,5.5" transform="translate(88.256 81.114)" fill="#221c3a"/>
      <path id="Trazado_717688" data-name="Trazado 717688" d="M163.649,154.075c.416-1.44.225-3.314,1.133-6.589.35-1.268-.225-2.742-1.222-3-1.605-.045-2.728,3.073-3.242,5.018a29.169,29.169,0,0,0-1.151,5.284,10.031,10.031,0,0,1-2.448-.911c-.122-.059-.113.5.08.708a13.145,13.145,0,0,0,2.389,1.144c1.466-.6,2.959-1.133,4.462-1.649" transform="translate(88.228 81.38)" fill="#ff637b"/>
      <path id="Trazado_717689" data-name="Trazado 717689" d="M166.34,114.976a22.34,22.34,0,0,0-2.709-4.41l-12.6,8.045c-2.5,7.211-1.293,14.409-1.6,20.837-.172,3.625,17.415.557,17.083-2.908-.666-6.966,3.514-12.72-.181-21.564" transform="translate(84.154 62.277)" fill="#221c3a"/>
      <path id="Trazado_717690" data-name="Trazado 717690" d="M149.309,109.282c-1.26,2.495-2.786,5.085.045,7.494,2.542,2.164,3.075,3.011,2.887,5.393-.155,1.962-.2,3.066-.466,5.329-.391,4.895,15.214-4.776,12.872-8.41-.646-1-2.081-2.614-2.342-4.2-.735-4.441,5.059-13.8,1.982-17.967-2.412-3.266-5.639-1.637-7.938.807-5.532,5.876-6.062,9.614-7.041,11.553" transform="translate(83.221 53.561)" fill="#fff"/>
      <path id="Trazado_717691" data-name="Trazado 717691" d="M154.725,102.312a2.667,2.667,0,0,0-2.218,2.2c-.22,1.1-.052,10.363-.231,12.8-.014.2-4.337,10.522-4.716,10.8a3.15,3.15,0,0,1-1.2.4,5.96,5.96,0,0,0-1.446.738c-.274.149-1.319.442-1.322.78-.006.669,1.452.519,1.829.414-.607.732-1.093,1.621-1.709,2.5a10.419,10.419,0,0,0-1.266,2.411c-.116.339.183.507.449.316.125-.089.349-.274.588-.483-.23.475-.99,2-.508,2.215s1.648-1.734,1.888-2.19c-.27.513-1.23,2.021-.786,2.395.557.469,1.091-.839,1.426-1.444q.436-.79.927-1.546a7.159,7.159,0,0,0-.519,2.395c.067.267.455.261.691-.066,1.052-1.923,1.823-3.225,2.567-4.8a16.071,16.071,0,0,1,.947-3.238c3.225-3.938,5.5-9.434,6.076-10.552,1.5-2.93,2.634-16.4-1.466-16.034" transform="translate(80.219 57.624)" fill="#fabc9d"/>
      <path id="Trazado_717692" data-name="Trazado 717692" d="M163.8,94.945a3.852,3.852,0,0,0-.492-1.6,5.66,5.66,0,0,0-1.407-1.416c-1.429-1.132-3.183-2.3-5.1-1.718a7.132,7.132,0,0,0-1.9,1.019c-.546.389-1.263,1.771-2.039,1.609-.217-.047-.491-.3-.718-.216a.533.533,0,0,0-.269.524,1.76,1.76,0,0,1,.013.76c-.108.263-.411.386-.574.618a4.28,4.28,0,0,0-.264.666c-.2.424-.691.694-.777,1.157-.089.483.3.905.6,1.294a4.378,4.378,0,0,1,.821,1.771c.066.313.957,3.574.985,3.925.152,2.289,6.967,1.219,6.586-.713-.073-.374-.255-.929-.255-.929a5.566,5.566,0,0,0,2.9-1.705,6.128,6.128,0,0,0,1.887-5.045" transform="translate(84.633 50.725)" fill="#fabc9d"/>
      <path id="Trazado_717693" data-name="Trazado 717693" d="M154.25,96.266a1.119,1.119,0,0,1,.561,2.1,17.113,17.113,0,0,1-1.874.536c-1.451.632.453,3.314,3.585,3.416,7.41.242,8.4-7.127,5.711-10.5-3.71-4.654-10.224-1.573-8.4,1.152.557.832.925,1.279.169,2.095-.222.241-.924.678-.872,1.035.075.522.639.177,1.122.164" transform="translate(85.865 50.367)" fill="#b77763"/>
      <path id="Trazado_717694" data-name="Trazado 717694" d="M163.446,99.959c1.038-1.168,1.985-2.714,1.585-4.34-.825-3.341-6.569-5.7-8.371-1.582-1.882,4.3,2.862,10.338,6.786,5.922" transform="translate(88.001 51.733)" fill="#b77763"/>
      <path id="Trazado_717695" data-name="Trazado 717695" d="M151.871,102.152c-3.5-.666-3.292,4.834-3.5,9.383-.038.847,6.616,2.037,6.8.31-.458-3.6.019-9.059-3.3-9.692" transform="translate(83.574 57.507)" fill="#fff"/>
      <path id="Trazado_717696" data-name="Trazado 717696" d="M68.323,74.744c.033-.771,11.035-11.534,12.309-12.515a3.9,3.9,0,0,1,3-.877,3.207,3.207,0,0,1,2.362,1.868c.677,1.657-.783,3.638-1.738,4.859-2.7,3.449-8.487,8.165-10.405,8.889C71.1,78,68.259,76.3,68.323,74.744" transform="translate(38.483 34.53)" fill="#221c3a"/>
      <path id="Trazado_717697" data-name="Trazado 717697" d="M86.4,117.347c.588-.63.424-1.308.782-2.093.474-1.036.657-1.638,1.208-2.636a1,1,0,0,1,.514-.5c.144-.048.456.114.608.119a2.193,2.193,0,0,1,2.067,2.581,14.334,14.334,0,0,0-.358,4.021l.02.555s-.707.818-.716.832l-.983-.569a7.517,7.517,0,0,1-.491,2.693c-2.531,3.263-3.988,2.823-5.168,2.392-1.87-.685-2.17-2.371,2.517-7.4" transform="translate(46.534 63.147)" fill="#221c3a"/>
      <path id="Trazado_717698" data-name="Trazado 717698" d="M92.657,102.418c2.937,7.11-.638,10.364-2.368,17.091-.259,1.007-.813,2.257-.214,3.269a2.29,2.29,0,0,1-.066,2.024,22.356,22.356,0,0,1-1.172,2.328,10.423,10.423,0,0,1-2.107,3.067,2.363,2.363,0,0,1-2.2.009c-.81-.444-.6-1.065-.264-1.654a16.407,16.407,0,0,0,1.49-2.572,9.82,9.82,0,0,0,.922-3.353c.253-2.758.291-6.684.291-8.925,0-4.937-.02-4.283.114-8.615a12.521,12.521,0,0,0-.9-3.783c-.546-1.3-2.117-5.353-1.061-6.247.739-.622,5.123,2.168,7.863,2.77a4.893,4.893,0,0,0-.322,4.59" transform="translate(47.295 53.492)" fill="#fbbd9e"/>
      <path id="Trazado_717699" data-name="Trazado 717699" d="M87.382,114.981a11.8,11.8,0,0,1-.768,1.788,14.027,14.027,0,0,0-.392,3.6l-1.068.433-.649-.574.008-1.024c-.689.727-1.818,1.754-2.49,2.356a5,5,0,0,1-3.2,1.124,4.3,4.3,0,0,1-2.625-.225c-1.115-.616-1.179-1.906.929-3.033a18.083,18.083,0,0,0,1.751-.94,9.359,9.359,0,0,0,1.817-1.827l2.978-3.616a3.745,3.745,0,0,1,2.009-.735c1.468.138,1.89,1.763,1.7,2.668" transform="translate(42.486 63.26)" fill="#221c3a"/>
      <path id="Trazado_717700" data-name="Trazado 717700" d="M84.332,103.056a16.827,16.827,0,0,0,.866,2.608c.975,3.178.177,6.706-.481,9.781a25.861,25.861,0,0,0-.575,4.213,6.121,6.121,0,0,0,.174,1.99c.285.986,1.554,2.115.76,2.962a33.417,33.417,0,0,1-3.71,3.469,10.41,10.41,0,0,1-2.054,1.394c-.6.241-1.81-.477-1.371-.793a6.412,6.412,0,0,0,2.49-3.9,9.1,9.1,0,0,0,.236-1.951c.075-5.135-1.154-10.172-1.584-15.279a11.644,11.644,0,0,0-.874-3.569l-.13-.31a3.869,3.869,0,0,1-.225-.722,26.639,26.639,0,0,1-.43-5.157,9.509,9.509,0,0,1,.521-3.76c1.157-.464,2.059,4.5,3.289,4.7a5.294,5.294,0,0,1,2.736,1.119c1,.908.208,2.012.363,3.206" transform="translate(43.61 52.947)" fill="#fbbd9e"/>
      <path id="Trazado_717701" data-name="Trazado 717701" d="M98.763,106.2c-1.429,2.575-6.23,2.557-8.47,2.573-6.134.044-10.815-1.687-13.482-4.7-.36-.406-.3-.589-.26-1.121.524-7.815.652-13.147,1.484-19.875,1.252.664,20.1,2.067,20.932,4.646Z" transform="translate(43.103 46.792)" fill="#221c3a"/>
      <path id="Trazado_717702" data-name="Trazado 717702" d="M81.917,61.527c-2.368-1.266-4.3.416-5.412,3.012a8.563,8.563,0,0,0-.131,4.9,12.1,12.1,0,0,1,.294,4.932c-.274,1.165-.924,2.221-1.14,3.4a4.82,4.82,0,0,0,.893,3.733c.511.669,1.19,1.191,1.732,1.834,1.591,1.884,1.842,4.583,1.449,7.017a66.6,66.6,0,0,1-1.718,6.48c-.935,3.647,6.952,7.283,10.916,7.555,5.284.366,10.682-1.046,11.382-3.234a28.661,28.661,0,0,0-3.289-9.767c-1.773-3.247-3.469-6.875-2.781-10.51a14.1,14.1,0,0,1,2.006-4.649,9.076,9.076,0,0,0,1-2.626,3.985,3.985,0,0,0-1.5-4.043,65.31,65.31,0,0,0-6.133-3.611c-3.025-1.752-4.755-2.915-7.571-4.422" transform="translate(42.5 34.413)" fill="#221c3a"/>
      <path id="Trazado_717703" data-name="Trazado 717703" d="M80.561,81.054c-.428-1.541-1.28-8.137-1.537-9.794a10.935,10.935,0,0,1-.006-4.9,10.905,10.905,0,0,1,.63-1.48,3.436,3.436,0,0,1,.775-1.162c.557-.475,1.69-.339,2.423-.339a5.967,5.967,0,0,1,3.055.571c1.529.9,1.548,2.171,1.158,3.608-.521,1.926-1.945,4.363-2.659,6.273-.291.777-1.92,3.774-3.839,7.227" transform="translate(44.348 35.687)" fill="#fffcfb"/>
      <path id="Trazado_717704" data-name="Trazado 717704" d="M82.057,64.078l-1.221,5.346-2.489.5s.771-1.615,1.818-3.817a8.1,8.1,0,0,1,1.892-2.029" transform="translate(44.13 36.093)" fill="#fffcfb"/>
      <path id="Trazado_717705" data-name="Trazado 717705" d="M84.607,62.03c-1.107,1.093-4.505,4.354-4.515,4.412-.283,1.674-.8,2.592,0,4.136l.31,1.265.494-.8A8.327,8.327,0,0,0,84.936,68.3a3.884,3.884,0,0,0,.76-2.936c-.117-.41-.61-1.579-.8-2.21-.155-.533-.152-.557-.292-1.126" transform="translate(44.873 34.939)" fill="#f2a883"/>
      <path id="Trazado_717706" data-name="Trazado 717706" d="M84.977,63.674a2.855,2.855,0,0,1,1.262,1.757c.1.528-.075,1.843-2.25,6.312-.216.444-.424.891-.635,1.338l-2.9-2.961c2.234-1.38,5.473-4.111,4.524-6.447" transform="translate(45.316 35.865)" fill="#fffcfb"/>
      <path id="Trazado_717707" data-name="Trazado 717707" d="M72.428,69.669c3.81,2.176,7.924,5.007,8.138,5.182,1.088.885-1.358,3.933-2.631,3.4-.613-.26-5.3-2.34-7.949-3.624a3.272,3.272,0,0,1-1.795-3.814,2.156,2.156,0,0,1,.5-.9,3.325,3.325,0,0,1,3.739-.239" transform="translate(38.339 38.983)" fill="#221c3a"/>
      <path id="Trazado_717708" data-name="Trazado 717708" d="M77.129,73.074s.311.3.366.36c.952,1.061-1.852,3.652-2.715,2.808l-.227-.2c-.954-.863,1.591-3.688,2.576-2.969" transform="translate(41.874 41.094)" fill="#fffcfb"/>
      <path id="Trazado_717709" data-name="Trazado 717709" d="M87.332,106.913l-.219-.127a1.05,1.05,0,0,0-1.335-.771l-.15-.086-.006-12.222,6.3-1.665Z" transform="translate(48.227 51.844)" fill="#221c3a"/>
      <path id="Trazado_717710" data-name="Trazado 717710" d="M87.118,103.858l.019-6.645v-.888L103.087,88v6.633l-.419.242v5.1l-15.951,9.209v-5.562Z" transform="translate(48.844 49.57)" fill="#221c3a"/>
      <path id="Trazado_717711" data-name="Trazado 717711" d="M87.752,97.656l-2.129-1.229,15.95-9.209,2.129,1.229Z" transform="translate(48.228 49.126)" fill="#221c3a"/>
      <path id="Trazado_717712" data-name="Trazado 717712" d="M85.722,93.327,87.51,94.36v6.5l-.227-.131V94.895l-1.559-.925Z" transform="translate(48.284 52.567)" fill="#221c3a"/>
      <path id="Trazado_717713" data-name="Trazado 717713" d="M88.96,97.167l-.224-.128V95.618l.224.13Z" transform="translate(49.982 53.858)" fill="#ebe5ed"/>
      <path id="Trazado_717714" data-name="Trazado 717714" d="M90.616,96.479l-1.737,1V96.062l1.737-1Z" transform="translate(50.062 53.543)" fill="#ebe5ed"/>
      <path id="Trazado_717715" data-name="Trazado 717715" d="M88.96,96.108l-.224-.128,1.737-1,.224.128Z" transform="translate(49.982 53.497)" fill="#ebe5ed"/>
      <path id="Trazado_717716" data-name="Trazado 717716" d="M94.571,93.927l-.224-.128V92.379l.224.128Z" transform="translate(53.142 52.034)" fill="#ebe5ed"/>
      <path id="Trazado_717717" data-name="Trazado 717717" d="M96.227,93.24l-1.737,1V92.822l1.737-1Z" transform="translate(53.222 51.719)" fill="#ebe5ed"/>
      <path id="Trazado_717718" data-name="Trazado 717718" d="M94.571,92.869l-.224-.128,1.737-1,.224.128Z" transform="translate(53.142 51.672)" fill="#ebe5ed"/>
      <path id="Trazado_717719" data-name="Trazado 717719" d="M91.558,89.416a2.086,2.086,0,0,0,1.926.907,1.578,1.578,0,0,0,1.618-.081c.488-.3.342-.689.2-.843-1.138-1.241-4.249-.955-3.744.017" transform="translate(51.54 49.89)" fill="#221c3a"/>
      <path id="Trazado_717720" data-name="Trazado 717720" d="M90.106,87.032a1.528,1.528,0,0,1,.213-.657c.372-.549,1.194-.508,1.826-.3a1.932,1.932,0,0,1,1.227,1.118c.194,1.01,1.494,3.209,1.715,4.138a1.888,1.888,0,0,1-.3,1.691c-.485.536-2.6,1.785-3.263,1.538a1.044,1.044,0,0,1-.8-.763c-.053-.158-.075-.2-.217-.236a1.539,1.539,0,0,1-.982-1.036,3.406,3.406,0,0,1-.152-1.39,11.181,11.181,0,0,1,.3-1.269,11.613,11.613,0,0,0,.311-1.38c.045-.483.052-.969.119-1.449" transform="translate(50.333 48.402)" fill="#fbbd9e"/>
      <path id="Trazado_717721" data-name="Trazado 717721" d="M93.769,86.81s.011.317.017.406c.116,1.551-4.032,2.093-4.213.788l-.088-.436c-.225-1.687,4.135-2.187,4.283-.758" transform="translate(50.399 48.426)" fill="#fffcfb"/>
      <path id="Trazado_717722" data-name="Trazado 717722" d="M90.922,67.653c.755,1.2,4.521,13.341,4.593,14.3.12,1.576.435,11.038.628,15.592.081,1.91-4.257,2.2-4.552,1.14a135.023,135.023,0,0,0-1.816-14.349c-.392-1.463-3.494-7.6-4.177-11.537a5.034,5.034,0,0,1,.2-3.4,5.1,5.1,0,0,1,2.359-2.8c1.215-.66,2.053-.066,2.762,1.063" transform="translate(48.103 37.353)" fill="#221c3a"/>
      <path id="Trazado_717723" data-name="Trazado 717723" d="M75.166,74.505a2.116,2.116,0,0,1,1.423-.98.686.686,0,0,1,.333.1A16.324,16.324,0,0,1,79.3,75.87a6.234,6.234,0,0,1,1.047,1.58c.521,1.136.66,1.391,1.026,6,.056.721-.255.943-.528.88-.245-.055-.338-.35-.381-.6-.084-.475-.234-1.166-.3-1.563a4.557,4.557,0,0,1-.2,1.305,1.89,1.89,0,0,1-1.29.863.45.45,0,0,1-.406-.506.9.9,0,0,1,.471-.521s-1.14-.1-1.352-.145a.875.875,0,0,1-.758-.708c-.469.045-.768-.2-.689-.5.03-.114.3-.32.522-.539a1.55,1.55,0,0,0,.1-.94A3.835,3.835,0,0,0,76.074,79a3.1,3.1,0,0,1-.283-.446,1.645,1.645,0,0,1-.038-.841c.073-.594.114-.68.119-.911s-.08-.572-.96-1.166c-.209-.142-.041-.613.253-1.133" transform="translate(42.143 41.413)" fill="#fbbd9e"/>
      <path id="Trazado_717724" data-name="Trazado 717724" d="M77.2,73.7c.119.041.6.441.6.583a1.744,1.744,0,0,0-1.276.027,1.339,1.339,0,0,0-.875,1.892,2.07,2.07,0,0,1-.838-.736A1.793,1.793,0,0,1,77.2,73.7" transform="translate(42.117 41.449)" fill="#dc9c1d"/>
      <path id="Trazado_717725" data-name="Trazado 717725" d="M75.305,74.157c0-.041,0-.113,0-.222a.5.5,0,0,1,.15-.366c.5-.528,1.648-.13,1.632.43a3.411,3.411,0,0,1-.048.352c-.149.522-1.4.542-1.687-.031a.412.412,0,0,1-.044-.163" transform="translate(42.414 41.299)" fill="#dc9c1d"/>
      <path id="Trazado_717726" data-name="Trazado 717726" d="M76.817,74.091c-.453.639-1.842.063-1.291-.519.458-.483,1.59-.016,1.291.519" transform="translate(42.469 41.326)" fill="#fffcfb"/>
      <path id="Trazado_717727" data-name="Trazado 717727" d="M91.855,91.082a11.992,11.992,0,0,0-1.326,1.946,1.221,1.221,0,0,1-1.518.091.553.553,0,0,1-.2-.843,9.107,9.107,0,0,1,1.513-2.2c.458-.458,1.887.594,1.53,1.005" transform="translate(49.958 50.673)" fill="#221c3a"/>
      <path id="Trazado_717728" data-name="Trazado 717728" d="M88.288,62.489c.335,2.312-1.92,4.83-4.333.9-2.851-4.641,3.366-7.571,4.333-.9" transform="translate(46.87 32.995)" fill="#272c93"/>
      <path id="Trazado_717729" data-name="Trazado 717729" d="M82.559,70.178c-.511.355-1.765.927-2.348.464a4.845,4.845,0,0,1-1.054-1.91c-.341-.816-.732-1.585-1.1-2.387a4.725,4.725,0,0,1-.306-.894c-.224-.985.122-2.218-.333-3.131-1.274-2.553-.066-3.991,2.6-3.631,2.729.369,5.318,1.316,6.345,4.105.485,1.315.788,2.911-.027,4.107a13.738,13.738,0,0,1-3.777,3.278" transform="translate(43.321 33.026)" fill="#fcbe9f"/>
      <path id="Trazado_717730" data-name="Trazado 717730" d="M85.818,56.035c.589.291,1.6.113,2.626,1.141A6.543,6.543,0,0,1,90.1,60.648a9.738,9.738,0,0,1,.234,2.378,7.823,7.823,0,0,1-3.991,6.191c-1.13-2.126-.53-4.291-2.561-5.99-1.4-1.168-5.315-.872-4.962-2.636-.4,1.981-1.992.272-1.449,2.826a1.905,1.905,0,0,1-.824-1.147,5.559,5.559,0,0,1,1.688-5.39,6.577,6.577,0,0,1,7.583-.844" transform="translate(43.029 31.096)" fill="#272c93"/>
      <path id="Trazado_717731" data-name="Trazado 717731" d="M82.038,64.526c.175-1.143.33-3.131,1.773-3.122,2.395.017-.932,5.359-1.773,3.122" transform="translate(46.209 34.586)" fill="#fcbe9f"/>
      <path id="Trazado_717732" data-name="Trazado 717732" d="M87.542,62.323c1.158.868.924,3.109.419,4.21-.411.894-1.612,1.635-2.367.66-2.35-3.031.36-6.059,1.948-4.87" transform="translate(47.694 34.955)" fill="#272c93"/>
      <path id="Trazado_717733" data-name="Trazado 717733" d="M87.284,65.155a3.431,3.431,0,0,1,.647,1.953c.278,2.035-1.973,3.336-2.864,2.368-1.391-1.51.219-6.07,2.217-4.321" transform="translate(47.621 36.477)" fill="#272c93"/>
      <path id="Trazado_717734" data-name="Trazado 717734" d="M86.484,67.9c.388.263.2.99,0,1.38-.352.666-2.581-.336-2.225-1.019.525-1.007.935-1.238,2.228-.361" transform="translate(47.436 37.938)" fill="#ff9fdd"/>
      <path id="Trazado_717735" data-name="Trazado 717735" d="M85.13,68.053c-2.292.294-1.5,3.452-1.232,4.965.344-.219.547-.657.869-.924a6.088,6.088,0,0,0,1.848-2.106,1.138,1.138,0,0,0,.061-1.118,2.653,2.653,0,0,0-1.546-.818" transform="translate(47.059 38.331)" fill="#272c93"/>
      <path id="Trazado_717736" data-name="Trazado 717736" d="M12.2,147.907a1.357,1.357,0,0,0,.921,1.127c2.328.929,7.561-.639,8.146-.824a19.275,19.275,0,0,0,4.518-1.807c.9-.546,2.031-1.226,2.045-2.276.022-1.781-1.677-2.983-8.668-1.715-1.365.249-5.748.513-6.228,1.867a15.825,15.825,0,0,0-.733,3.628" transform="translate(6.873 79.919)" fill="#eadcdb"/>
      <path id="Trazado_717737" data-name="Trazado 717737" d="M1.428,160.1c.175.805,5.489.946,5.767-.133a32.73,32.73,0,0,0,.274-5.071l-5.732-.683a40.444,40.444,0,0,0-.308,5.887" transform="translate(0.773 86.862)" fill="#eadcdb"/>
      <path id="Trazado_717738" data-name="Trazado 717738" d="M12.272,147.191a1.355,1.355,0,0,0,.921,1.127c2.328.929,7.561-.639,8.146-.824a19.273,19.273,0,0,0,4.518-1.807c.9-.546,2.031-1.226,2.045-2.276.022-1.781-1.677-2.983-8.668-1.715-1.365.249-5.748.513-6.228,1.867a15.825,15.825,0,0,0-.733,3.628" transform="translate(6.912 79.516)" fill="#221c3a"/>
      <path id="Trazado_717739" data-name="Trazado 717739" d="M1.647,159.2c.177.805,5.49.944,5.768-.133.322-1.258.7-5.071.7-5.071l-6.942-.17s.249,4.34.475,5.374" transform="translate(0.66 86.644)" fill="#221c3a"/>
      <path id="Trazado_717740" data-name="Trazado 717740" d="M5.058,99.229c-4.637,4.807,1.523,21.026,4.177,21.2,1.4.094,2.631-.89,3.744-1.735a119.722,119.722,0,0,0,8.551-9.254c0-.732-2.239-3.23-3.164-3.191,0,0-6.009,4.391-6.694,4.907,0,0-1.468-9.806-2-11.39a2.71,2.71,0,0,0-4.615-.539" transform="translate(1.903 55.287)" fill="#221c3a"/>
      <path id="Trazado_717741" data-name="Trazado 717741" d="M3.913,149.664c-.549,2.915-3.108,6.825-3.139,24.859,0,1.856,7.762,1.9,8.182.366,1.243-4.541,2.371-14.807,2.976-20.571a30.026,30.026,0,0,1,1.519-6.817c.553-1.573,6.237-16.608,7.214-20.841,1.271-5.5.885-9.822-.385-9.816-3.611.02-9.791-1.036-11.921,2.278a20.264,20.264,0,0,0-2.9,9.925c-.6,10.077-1.121,18.335-1.551,20.618" transform="translate(0.436 65.731)" fill="#221c3a"/>
      <path id="Trazado_717742" data-name="Trazado 717742" d="M35.28,130.186c.594-3.822-4.272-3.958-12.919-9.02-3.086,1.072-13.666,8.521-13.491,8.762,1.473,2.013,14.215,3.622,14.177,4.23-.411,2.309-7.812,19.006-7.812,19.006-1.785,3.352,5.664,3.589,6.684,1.208,0,0,12.415-18.117,13.36-24.187" transform="translate(4.995 68.248)" fill="#221c3a"/>
      <path id="Trazado_717743" data-name="Trazado 717743" d="M27.458,110.818a14.512,14.512,0,0,0-.383-4.829c-.527-2.062-.514-2.154-5.7-5a19.96,19.96,0,0,1-8.093.067c-1.44-.458-2.686-1.791-1.937-2.872a17.141,17.141,0,0,0-2.553-.17c-8.57-.064-1.358,10.36-1.823,23.78A31.2,31.2,0,0,1,3.56,134.908c-1.007,2.5,4.7,4.163,8.182,5.077l2.656-7.621-.363,8.1c.557.1,1.058.186,1.48.247a61.081,61.081,0,0,0,6.37-.138c5.42-1.191,6.927-3.364,7.336-4.307a1.369,1.369,0,0,0,.094-.738c-1.473-9.988-2.525-16.871-1.859-24.712" transform="translate(1.939 55.208)" fill="#221c3a"/>
      <path id="Trazado_717744" data-name="Trazado 717744" d="M23.053,98.089a3.831,3.831,0,0,1-.827-2.636,20.906,20.906,0,0,0-.847-3.05c-.256-.938-.13-1.882-.985-2.534a3.766,3.766,0,0,0-1.444-.569c-.261-.064-.521-.127-.782-.192a7.352,7.352,0,0,0-1.312-.236,7.43,7.43,0,0,0-2.228.335A6.341,6.341,0,0,0,11,91.062a5.985,5.985,0,0,0-.73,1.39,7.313,7.313,0,0,0-.752,3.161c.078,1.355.861,2.592.946,3.946a3.939,3.939,0,0,1-1.269,3.122l1.423,1.629a8.833,8.833,0,0,0,4.483,1.268,1.658,1.658,0,0,0,.563-.009c.866-.219.958-1.63,1.823-1.856a1.606,1.606,0,0,1,.6-.006,7.508,7.508,0,0,0,1.906.1,2.13,2.13,0,0,0,1.6-.932,3.392,3.392,0,0,0,.33-1.3,17.113,17.113,0,0,1,.336-1.8,1.022,1.022,0,0,1,.139-.356c.245-.345.883-.391.915-.814a.79.79,0,0,0-.253-.517" transform="translate(5.178 50.055)" fill="#603a29"/>
      <path id="Trazado_717745" data-name="Trazado 717745" d="M16.084,98.854c-3.12.077-.7,5.453-5.34,2.944-.528-.286-.544-.431-.583-.935-.149-1.974-2.729-4.982-.431-9.308,1.541-2.9,5.876-3.817,8.726-2.926,1.063.333,2.5.894,3,1.976a4.292,4.292,0,0,1,.219,2,3.431,3.431,0,0,1-1.444,1.607c-.755.456-.9.488-1.074,1.679a10.169,10.169,0,0,1-.868,2.867c-.488,1.033-.808.063-2.209.1" transform="translate(4.946 49.737)" fill="#221c3a"/>
      <path id="Trazado_717746" data-name="Trazado 717746" d="M18.491,101.533l-1.269-1.695S9.785,99.5,9.955,97.486c-.994.006-1.577,1.637-1.577,1.637s-.564,1.648,3.175,2.719a10.662,10.662,0,0,0,5.329.22,8.014,8.014,0,0,0,1.609-.528" transform="translate(4.702 54.91)" fill="#fff"/>
      <path id="Trazado_717747" data-name="Trazado 717747" d="M7.986,101.035c2.089,2.146,8.979,2.149,11.967.452a1.647,1.647,0,0,0-1.166-.557c-4.852.3-7.268-.028-8.585-.789-.735-.424-1.265-1.076-.93-1.879.144-.35-.824-.475-1.221-.156a2.035,2.035,0,0,0-.064,2.93" transform="translate(4.166 55.155)" fill="#221c3a"/>
      <path id="Trazado_717748" data-name="Trazado 717748" d="M31.841,135.43l-.224.016a.932.932,0,0,0-1.363.1l-.153.011L24.015,126.6l3.792-4.358Z" transform="translate(13.527 68.854)" fill="#221c3a"/>
      <path id="Trazado_717749" data-name="Trazado 717749" d="M28.859,135.1l-3.294-4.88-.442-.652,7.552-14.038,3.3,4.863-.188.386,2.539,3.738-7.11,14.69-2.769-4.077Z" transform="translate(14.15 65.074)" fill="#221c3a"/>
      <path id="Trazado_717750" data-name="Trazado 717750" d="M26.189,130.221l-2.173.159,7.11-14.692,2.173-.158Z" transform="translate(13.527 65.074)" fill="#221c3a"/>
      <path id="Trazado_717751" data-name="Trazado 717751" d="M24.2,125.188l1.826-.133.253.375.08.116,2.9,4.271-.231.017-2.9-4.274-1.6.1Z" transform="translate(13.629 70.439)" fill="#221c3a"/>
      <path id="Trazado_717752" data-name="Trazado 717752" d="M28.482,126.35l-.227.017-.708-1.041.228-.017Z" transform="translate(15.516 70.581)" fill="#eadcdb"/>
      <path id="Trazado_717753" data-name="Trazado 717753" d="M29.174,125.327l-.774,1.6-.707-1.041.774-1.6Z" transform="translate(15.598 70.005)" fill="#eadcdb"/>
      <path id="Trazado_717754" data-name="Trazado 717754" d="M27.775,125.885l-.228.017.775-1.6.227-.017Z" transform="translate(15.516 70.005)" fill="#eadcdb"/>
      <path id="Trazado_717755" data-name="Trazado 717755" d="M30.983,121.182l-.227.017-.708-1.041.228-.017Z" transform="translate(16.925 67.671)" fill="#eadcdb"/>
      <path id="Trazado_717756" data-name="Trazado 717756" d="M31.674,120.159l-.774,1.6-.707-1.041.774-1.6Z" transform="translate(17.007 67.094)" fill="#eadcdb"/>
      <path id="Trazado_717757" data-name="Trazado 717757" d="M30.276,120.718l-.228.017.775-1.6.227-.017Z" transform="translate(16.925 67.095)" fill="#eadcdb"/>
      <path id="Trazado_717758" data-name="Trazado 717758" d="M26.432,119.848a1.848,1.848,0,0,0,1.863-.294,1.391,1.391,0,0,0,1.144-.866c.209-.463-.091-.674-.272-.716-1.452-.344-3.589,1.413-2.736,1.876" transform="translate(14.778 66.424)" fill="#221c3a"/>
      <path id="Trazado_717759" data-name="Trazado 717759" d="M24.421,119.418a2.4,2.4,0,0,1,.644-1.366,2.482,2.482,0,0,1,2.421-.341c.358.247.644.489,1.032.71a3.9,3.9,0,0,1,1.441,1.235.63.63,0,0,1,.028.719c-.119.266-.234.234-.363.5-.047.1-.214.761-.278.846-.392.521-.3.839-.832,1.215a1.6,1.6,0,0,1-1.405.114,3.846,3.846,0,0,1-.929-.358,3.715,3.715,0,0,1-1.166-1.745,4.893,4.893,0,0,1-.594-1.524" transform="translate(13.755 66.195)" fill="#603a29"/>
      <path id="Trazado_717760" data-name="Trazado 717760" d="M27.159,120.849a10.605,10.605,0,0,0,0,2.087,1.083,1.083,0,0,1-1.068.822c-.508.022-.538-.335-.566-.517a8.135,8.135,0,0,1,.014-2.368c.108-.563,1.679-.5,1.623-.023" transform="translate(14.33 67.856)" fill="#221c3a"/>
      <path id="Trazado_717761" data-name="Trazado 717761" d="M27.112,116.924c.491.591.835,1,.919,1.1,1.008,1.143-2.029,3.57-2.522,3.242a23.139,23.139,0,0,1-1.852-1.462,36.8,36.8,0,0,0,3.455-2.878" transform="translate(13.325 65.859)" fill="#fff"/>
      <path id="Trazado_717762" data-name="Trazado 717762" d="M25.05,115.68a3.32,3.32,0,0,0,.553,1.129c1.455,1.938,6.563,8.732,6.919,9.137,1.138,1.291-2.292,4.032-2.848,3.661-1.473-.985-6.753-6.186-8.832-8.251a5.311,5.311,0,0,1-1.254-1.981c-2.406-6.725-3.774-10.169-4.274-11.8a5.029,5.029,0,0,1,1.035-4.9c1.757-1.89,4.774-1.979,7.16,7.254.389,1.51,1.193,4.469,1.541,5.75" transform="translate(8.493 57.262)" fill="#221c3a"/>
      <path id="Trazado_717763" data-name="Trazado 717763" d="M82.112,8.3c.325.921.807,1.791,1.147,2.686a26.49,26.49,0,0,1,1.272,8.077.518.518,0,0,0,.134.388.481.481,0,0,0,.217.08c2.564.453,4.607-3.161,5.692-5.049,1.183-2.06,2.368-4.87,2.012-7.291C92.132,4.1,90.414.13,86.769,0c-4.416-.152-5.9,4.788-4.657,8.3" transform="translate(46.013 0)" fill="#221c3a"/>
      <path id="Trazado_717764" data-name="Trazado 717764" d="M119.485,58.7c-.447-1.005-6.764-6.844-7-8.432l-3.544.336c.547.425,0,1.2-.314,1.82a3.266,3.266,0,0,0-.347,1.754c.019,1.484,1.62,2.7,2.664,3.93a19.573,19.573,0,0,0,4.477,4.207c1.313.569,3.589.456,4.243-1.113a3.159,3.159,0,0,0-.178-2.5" transform="translate(60.989 28.316)" fill="#ebe5ed"/>
      <path id="Trazado_717765" data-name="Trazado 717765" d="M110.149,55.251a1.3,1.3,0,0,1-.349-1.21l-4.115-.592a1.457,1.457,0,0,0-1.477.722c-.546.957-1.282,2.106-.008,3.252.383.344,5.617,5.276,7.472,5.918,2.973,1.029,6.592-.341,5.206-2.95-.669-1.26-6.434-4.816-6.73-5.14" transform="translate(58.295 30.097)" fill="#ebe5ed"/>
      <path id="Trazado_717766" data-name="Trazado 717766" d="M119,58.057c-.447-1.005-6.341-7.135-6.575-8.723l-3.545.338c.549.425.389,1.294.072,1.912a4.181,4.181,0,0,0-.586,1.943c.017,1.484,1.473,2.417,2.518,3.647a19.506,19.506,0,0,0,4.476,4.207c1.313.569,3.167.747,3.819-.822a3.159,3.159,0,0,0-.178-2.5" transform="translate(61.035 27.788)" fill="#fff"/>
      <path id="Trazado_717767" data-name="Trazado 717767" d="M109.239,52.811l-3.427-.6c-.286.4-3.378,3.109-1.684,4.633.383.344,5.618,5.276,7.472,5.918,2.973,1.029,6.267-.125,4.881-2.734-1.2-2.262-6.387-4.149-7.243-7.216" transform="translate(58.367 29.407)" fill="#fff"/>
      <path id="Trazado_717768" data-name="Trazado 717768" d="M123.948,64.213c-1.323-3.328-4.724-13.278-6-17.979a19.727,19.727,0,0,1-.488-2.751,5.773,5.773,0,0,0-1.5-3.372C108.5,32.505,96.377,28.628,93.372,24.156l-3.93,13.572c5.668,4.1,20.593,6.85,21.323,7.169-.192,4.144.3,8.564,2.828,11.853a85.22,85.22,0,0,1,5.687,8.423c.339,1.368,5.362.785,4.668-.96" transform="translate(50.379 13.606)" fill="#272c93"/>
      <path id="Trazado_717769" data-name="Trazado 717769" d="M111.867,48.96A6.76,6.76,0,0,0,109.7,45.82c-4-3.206-13.541-9.891-13.752-10.532a3.807,3.807,0,0,1,.713-2.839,21.41,21.41,0,0,0,1.454-3.409,4.053,4.053,0,0,0,.266-1.918c-.239-1.368-1.724-2.654-1.058-3.874L83.461,26.367c-3.034,2.64-2.786,10.006.444,13.879,1.716,2.057,4.99,3.814,7.308,5.157,3.661,2.12,8.288,4.483,12.256,6.251,3.694,7.479,7.319,8.362,13.765,18.582.827,1.837,5.4-.147,4.61-1.371-11.077-17.219-8.668-16-9.977-19.9" transform="translate(45.808 13.095)" fill="#272c93"/>
      <path id="Trazado_717770" data-name="Trazado 717770" d="M105.053,38.973c-.675-2.5-5.795-13.313-6.578-15.017,0,0-1.621-13.385-3.406-16.044a2.9,2.9,0,0,0-2.989-1.237c-1.827.632-1.751,1.765-1.476,3.344s2.085,15.153,2.911,16.624c1.788,3.189,7.541,13.764,7.652,13.993.8,1.616,4.457.025,3.886-1.663" transform="translate(50.95 3.72)" fill="#ffeb39"/>
      <path id="Trazado_717771" data-name="Trazado 717771" d="M84.829,13.2c-2.134,1.685-1.97,3.489-1.283,5.9.725,2.542,2.026,5.029,1.856,7.741-.178,2.85-1.968,5.3-3.017,7.959a3.723,3.723,0,0,0-.338,1.488c.055,1.5,1.605,2.467,3.041,2.9a12.817,12.817,0,0,0,11.828-2.52,3.814,3.814,0,0,0,1.307-1.782c.577-2.093-1.956-4.11-1.4-6.208.416-1.563,2.256-2.182,3.438-3.286a4.735,4.735,0,0,0,1.465-3.788C101.5,18.8,98.842,16.7,98.4,13.92A21.573,21.573,0,0,1,98.617,9.6c.058-1.344-.417-2.944-2.093-2.825-1.818.13-4.185,2.106-5.808,2.933A34.771,34.771,0,0,0,84.829,13.2" transform="translate(46.213 3.814)" fill="#ffeb39"/>
      <path id="Trazado_717772" data-name="Trazado 717772" d="M93.128,9.193a5.48,5.48,0,0,0-1.307-.564C91.5,8.533,89.3,6.471,89.1,6.746c-.977,1.352-.353,2.375-1.879,4.057-2.548,2.809,4.977,8.36,6.78,2.9a12.739,12.739,0,0,0,.649-2.106c.153-.985-.758-1.942-1.521-2.409" transform="translate(48.834 3.786)" fill="#f1a782"/>
      <path id="Trazado_717773" data-name="Trazado 717773" d="M88.047,1.266a1.631,1.631,0,0,1-.478,2.209,1.633,1.633,0,0,1-2.256.163,1.633,1.633,0,0,1,.478-2.21,1.633,1.633,0,0,1,2.256-.161" transform="translate(47.905 0.498)" fill="#ff637b"/>
      <path id="Trazado_717774" data-name="Trazado 717774" d="M97.516,12.932a5.485,5.485,0,0,0-.069-2.2c-.483-1.688.971-4.282-.538-6.276C95.229,2.234,93.874,2.6,92.651,3.024c-2.206.774-7.815,2.784-6.971,4.963,1.988,5.137,4.6,6.656,6.136,7.418,1.091.539,3.824,2.171,4.846.7a5.226,5.226,0,0,0,.571-1.74,13.944,13.944,0,0,0,.283-1.43" transform="translate(48.212 1.522)" fill="#fabc9d"/>
      <path id="Trazado_717775" data-name="Trazado 717775" d="M96.729,3.417c-4.766-5.7-12.717-1.94-12.142,4.025a8.377,8.377,0,0,0,5.238,7.332,9.484,9.484,0,0,1-1.171-2.467c.006-.557.5-.694.958-.521a2.264,2.264,0,0,1,.868.671c.2.236,1.015,1.612,1.032.5.011-.7-.255-1.565.419-2.06a4.819,4.819,0,0,1,1.043-.489,7.059,7.059,0,0,0,2.6-2.089c.607-.708,2.095-.8,2.478-1.549.46-.9-.78-2.712-1.321-3.358" transform="translate(47.628 0.337)" fill="#221c3a"/>
      <path id="Trazado_717776" data-name="Trazado 717776" d="M99.409,41.347c-2.457-2.415-11.721-11.406-11.721-11.406,0-5.071,1.949-18.224-3.374-18.2-1.674.008-2.884,1.79-3.308,3.409-.308,1.176-.416,15.614,1.174,17.405,2.235,2.515,9.664,8.784,14.595,11.127,1.535.646,3.742-1.166,2.634-2.334" transform="translate(45.523 6.612)" fill="#ffeb39"/>
      <path id="Trazado_717777" data-name="Trazado 717777" d="M86.866,8.53c0,1.24.9,1.818,1.988,2.226l.891-1.274c-1.326-2.7-2.88-2.079-2.88-.952" transform="translate(48.928 4.263)" fill="#fabc9d"/>
      <path id="Trazado_717778" data-name="Trazado 717778" d="M89.915,35.1l0,.408a.229.229,0,0,0,.136.189l10.338,5.969a.712.712,0,0,0,.65,0l14.624-8.5a.226.226,0,0,0,.133-.186l0-.408Z" transform="translate(50.644 18.348)" fill="#ada4b8"/>
      <path id="Trazado_717779" data-name="Trazado 717779" d="M115.661,34.631l-10.338-5.969a.719.719,0,0,0-.649,0l-14.626,8.5a.2.2,0,0,0,0,.377l10.338,5.969a.722.722,0,0,0,.65,0l14.626-8.5a.2.2,0,0,0,0-.377" transform="translate(50.645 16.101)" fill="#fff7f5"/>
      <path id="Trazado_717780" data-name="Trazado 717780" d="M95.044,38.624l-.65.375a.245.245,0,0,1-.228,0l-.547-.316a.069.069,0,0,1,0-.131l.65-.375a.246.246,0,0,1,.228,0l.547.316a.069.069,0,0,1,0,.131m1.051-.738-.547-.316a.255.255,0,0,0-.228,0l-.65.375c-.064.038-.064.1,0,.133l.546.316a.258.258,0,0,0,.23,0l.65-.375a.071.071,0,0,0,0-.133m1.049-.607-.547-.316a.255.255,0,0,0-.228,0l-.65.375a.071.071,0,0,0,0,.133l.547.316a.255.255,0,0,0,.228,0l.65-.375c.064-.038.064-.1,0-.133m1.05-.607-.547-.314a.245.245,0,0,0-.228,0l-.65.375a.069.069,0,0,0,0,.131l.547.316a.255.255,0,0,0,.228,0l.65-.375a.071.071,0,0,0,0-.133m1.051-.6-.547-.316a.249.249,0,0,0-.23,0l-.65.375a.069.069,0,0,0,0,.131l.547.316a.249.249,0,0,0,.23,0l.65-.375a.069.069,0,0,0,0-.131m1.049-.607-.547-.316a.255.255,0,0,0-.228,0l-.65.375a.071.071,0,0,0,0,.133l.547.316a.255.255,0,0,0,.228,0l.65-.377a.069.069,0,0,0,0-.131m1.05-.607-.547-.316a.255.255,0,0,0-.228,0l-.65.375c-.064.038-.064.1,0,.133l.546.316a.258.258,0,0,0,.23,0l.65-.375a.071.071,0,0,0,0-.133m1.049-.607-.546-.316a.258.258,0,0,0-.23,0l-.65.377a.069.069,0,0,0,0,.131l.547.316a.255.255,0,0,0,.228,0l.65-.375c.064-.036.064-.1,0-.133m1.051-.6-.547-.316a.245.245,0,0,0-.228,0l-.65.375a.069.069,0,0,0,0,.131l.547.316a.245.245,0,0,0,.228,0l.65-.375a.069.069,0,0,0,0-.131m1.388-.8-.547-.316a.255.255,0,0,0-.228,0l-.99.571a.071.071,0,0,0,0,.133l.547.316a.258.258,0,0,0,.23,0l.988-.572a.069.069,0,0,0,0-.131m3.944,1.047-.547-.316a.255.255,0,0,0-.228,0l-.65.375c-.064.038-.064.1,0,.133l.546.316a.258.258,0,0,0,.23,0l.65-.375a.071.071,0,0,0,0-.133m1.049-.6-.547-.316a.246.246,0,0,0-.228,0l-.65.375a.069.069,0,0,0,0,.131l.547.316a.245.245,0,0,0,.228,0l.65-.375a.069.069,0,0,0,0-.131m1.051-.607-.547-.316a.245.245,0,0,0-.228,0l-.65.375c-.064.036-.064.1,0,.133l.547.316a.255.255,0,0,0,.228,0l.65-.377a.069.069,0,0,0,0-.131m-1.14,1.766-.547-.316a.255.255,0,0,0-.228,0l-.65.375c-.064.036-.064.1,0,.133l.546.316a.258.258,0,0,0,.23,0l.65-.377a.069.069,0,0,0,0-.131m1.049-.607-.547-.316a.255.255,0,0,0-.228,0l-.65.375a.071.071,0,0,0,0,.133l.547.316a.255.255,0,0,0,.228,0l.65-.375c.064-.038.064-.1,0-.133m1.05-.607-.547-.316a.255.255,0,0,0-.228,0l-.65.377a.069.069,0,0,0,0,.131l.546.316a.258.258,0,0,0,.23,0l.65-.375a.071.071,0,0,0,0-.133M96.36,38.845l-.547-.316a.255.255,0,0,0-.228,0l-.99.572a.069.069,0,0,0,0,.131l.547.316a.258.258,0,0,0,.23,0l.988-.571c.064-.036.064-.1,0-.133m1.05-.6-.547-.316a.245.245,0,0,0-.228,0l-.65.375a.069.069,0,0,0,0,.131l.546.316a.249.249,0,0,0,.23,0l.65-.375a.069.069,0,0,0,0-.131m1.049-.607-.546-.316a.258.258,0,0,0-.23,0l-.65.375a.071.071,0,0,0,0,.133l.547.316a.255.255,0,0,0,.228,0l.65-.377a.069.069,0,0,0,0-.131m1.051-.607-.547-.316a.255.255,0,0,0-.228,0l-.65.375c-.064.038-.064.1,0,.133l.547.316a.255.255,0,0,0,.228,0l.65-.375a.071.071,0,0,0,0-.133m1.05-.607-.547-.316a.258.258,0,0,0-.23,0l-.65.377a.069.069,0,0,0,0,.131l.547.316a.258.258,0,0,0,.23,0l.65-.375a.071.071,0,0,0,0-.133m1.049-.6-.547-.316a.245.245,0,0,0-.228,0l-.65.375a.069.069,0,0,0,0,.131l.547.316a.245.245,0,0,0,.228,0l.65-.375a.069.069,0,0,0,0-.131m1.051-.607-.547-.316a.255.255,0,0,0-.228,0l-.65.375c-.064.036-.064.1,0,.133l.546.316a.258.258,0,0,0,.23,0l.65-.377a.069.069,0,0,0,0-.131m1.049-.607-.546-.316a.258.258,0,0,0-.23,0l-.65.375a.071.071,0,0,0,0,.133l.547.316a.255.255,0,0,0,.228,0l.65-.375c.064-.038.064-.1,0-.133M104.76,34l-.547-.316a.255.255,0,0,0-.228,0l-.65.377a.069.069,0,0,0,0,.131l.547.316a.255.255,0,0,0,.228,0l.65-.375a.071.071,0,0,0,0-.133m1.051-.6-.547-.316a.249.249,0,0,0-.23,0l-.65.375a.069.069,0,0,0,0,.131l.547.316a.249.249,0,0,0,.23,0l.65-.375a.069.069,0,0,0,0-.131m-8.857,6.2-.547-.316a.258.258,0,0,0-.23,0l-.65.377a.069.069,0,0,0,0,.131l.547.316a.258.258,0,0,0,.23,0l.65-.375a.071.071,0,0,0,0-.133m1.049-.6-.547-.316a.245.245,0,0,0-.228,0l-.65.375a.069.069,0,0,0,0,.131l.547.316a.245.245,0,0,0,.228,0L98,39.12a.069.069,0,0,0,0-.131m1.051-.607-.547-.316a.255.255,0,0,0-.228,0l-.65.375c-.064.036-.064.1,0,.133l.546.316a.258.258,0,0,0,.23,0l.65-.377a.069.069,0,0,0,0-.131m1.049-.607-.547-.316a.255.255,0,0,0-.228,0l-.65.375a.071.071,0,0,0,0,.133l.547.316a.255.255,0,0,0,.228,0l.65-.375c.064-.038.064-.1,0-.133m-1.246,2.917-.546-.316a.258.258,0,0,0-.23,0l-.65.377a.069.069,0,0,0,0,.131l.547.316a.245.245,0,0,0,.228,0l.65-.375c.064-.036.064-.1,0-.133m1.051-.6-.547-.316a.245.245,0,0,0-.228,0l-.65.375a.069.069,0,0,0,0,.131l.547.316a.245.245,0,0,0,.228,0l.65-.375a.069.069,0,0,0,0-.131m1.051-.607-.547-.316a.255.255,0,0,0-.228,0l-.65.375c-.064.038-.064.1,0,.133l.546.316a.258.258,0,0,0,.23,0l.65-.375a.071.071,0,0,0,0-.133m1.049-.607-.547-.316a.255.255,0,0,0-.228,0l-.65.375a.071.071,0,0,0,0,.133l.547.316a.255.255,0,0,0,.228,0l.65-.375c.064-.038.064-.1,0-.133m6.631-3.828-.546-.316a.258.258,0,0,0-.23,0l-.988.571c-.064.038-.064.1,0,.133l.547.316a.255.255,0,0,0,.228,0l.988-.571c.064-.038.064-.1,0-.133m-7.485,2.123-.547-.316a.255.255,0,0,0-.228,0l-.65.377a.069.069,0,0,0,0,.131l.547.316a.255.255,0,0,0,.228,0l.65-.375a.071.071,0,0,0,0-.133m1.051-.607-.547-.314a.249.249,0,0,0-.23,0l-.65.375a.069.069,0,0,0,0,.131l.547.316a.249.249,0,0,0,.23,0l.65-.375a.071.071,0,0,0,0-.133m1.049-.6-.547-.316a.255.255,0,0,0-.228,0l-.65.375a.069.069,0,0,0,0,.131l.547.317a.255.255,0,0,0,.228,0l.65-.377a.069.069,0,0,0,0-.131m1.051-.607-.547-.316a.255.255,0,0,0-.228,0l-.65.375c-.064.038-.064.1,0,.133l.546.316a.258.258,0,0,0,.23,0l.65-.375a.071.071,0,0,0,0-.133m1.049-.607-.547-.316a.255.255,0,0,0-.228,0l-.65.375a.071.071,0,0,0,0,.133l.547.316a.255.255,0,0,0,.228,0l.65-.375c.064-.038.064-.1,0-.133m1.39-.8-.547-.316a.249.249,0,0,0-.23,0l-.988.571a.069.069,0,0,0,0,.131l.547.316a.246.246,0,0,0,.228,0l.99-.571a.069.069,0,0,0,0-.131m-8.473,6-.546-.316a.258.258,0,0,0-.23,0L96.5,40.2c-.064.038-.064.1,0,.133l.547.316a.255.255,0,0,0,.228,0l.988-.571c.064-.038.064-.1,0-.133m1.051-.607-.547-.316a.255.255,0,0,0-.228,0l-.65.375a.071.071,0,0,0,0,.133l.547.316a.255.255,0,0,0,.228,0l.65-.375c.064-.036.064-.1,0-.133m1.051-.6-.547-.316a.245.245,0,0,0-.228,0l-.65.375a.069.069,0,0,0,0,.131l.546.316a.249.249,0,0,0,.23,0l.65-.375a.069.069,0,0,0,0-.131m1.049-.607-.546-.316a.249.249,0,0,0-.23,0l-.65.375a.071.071,0,0,0,0,.133l.547.314a.245.245,0,0,0,.228,0l.65-.375a.069.069,0,0,0,0-.131m1.051-.607-.547-.316a.255.255,0,0,0-.228,0l-.65.375c-.064.036-.064.1,0,.133l.547.316a.255.255,0,0,0,.228,0l.65-.375a.071.071,0,0,0,0-.133m1.051-.607-.547-.316a.258.258,0,0,0-.23,0l-.65.377a.069.069,0,0,0,0,.131l.547.316a.258.258,0,0,0,.23,0l.65-.375a.071.071,0,0,0,0-.133m1.049-.6-.547-.317a.255.255,0,0,0-.228,0l-.65.377a.069.069,0,0,0,0,.131l.547.316a.245.245,0,0,0,.228,0l.65-.375a.069.069,0,0,0,0-.131m1.051-.607-.547-.316a.245.245,0,0,0-.228,0l-.65.375a.069.069,0,0,0,0,.131l.546.316a.249.249,0,0,0,.23,0l.65-.375a.069.069,0,0,0,0-.131m1.049-.607-.546-.316a.258.258,0,0,0-.23,0l-.65.375a.071.071,0,0,0,0,.133l.547.316a.255.255,0,0,0,.228,0l.65-.377a.069.069,0,0,0,0-.131m1.051-.607-.547-.316a.255.255,0,0,0-.228,0l-.65.375c-.064.038-.064.1,0,.133l.547.316a.255.255,0,0,0,.228,0l.65-.375a.071.071,0,0,0,0-.133m-1.817-2.26-.547-.316a.255.255,0,0,0-.228,0l-.65.375a.071.071,0,0,0,0,.133l.547.316a.255.255,0,0,0,.228,0l.65-.377a.069.069,0,0,0,0-.131m1.051-.607-.547-.316a.255.255,0,0,0-.228,0l-.65.375c-.064.038-.064.1,0,.133l.547.316a.255.255,0,0,0,.228,0l.65-.375a.071.071,0,0,0,0-.133M108,31.017l-.546-.316a.258.258,0,0,0-.23,0l-.65.377a.069.069,0,0,0,0,.131l.547.316a.255.255,0,0,0,.228,0l.65-.375c.064-.036.064-.1,0-.133m.958.553-.547-.316a.255.255,0,0,0-.228,0l-.65.375c-.064.038-.064.1,0,.133l.547.316a.255.255,0,0,0,.228,0l.65-.375a.071.071,0,0,0,0-.133" transform="translate(52.704 17.278)" fill="#dfd7e2"/>
      <path id="Trazado_717781" data-name="Trazado 717781" d="M99.741,37.167a1.452,1.452,0,0,0,.127-.092,1.984,1.984,0,0,0,.649-.963c.439-1.405-.755-2.939-1.509-4.019a2.448,2.448,0,0,0-.968-1.027,6.048,6.048,0,0,0-1.152-.294c-1.032-.219-2.1.106-3.309-.089-.924-.149-2.922,1.5-2.284,2.082,1.823,1.662,3.983,1.779,4.379,2.032a4.914,4.914,0,0,1,1.477,2.054,2.913,2.913,0,0,0,.571.954.78.78,0,0,0,1.015.092c.127-.119.194-.3.331-.4a1.267,1.267,0,0,1,.327-.15,1.82,1.82,0,0,0,.347-.178" transform="translate(51.353 17.277)" fill="#fabc9d"/>
      <path id="Trazado_717782" data-name="Trazado 717782" d="M102.342,30.584c-.732-1.241-1.215-2.151-1.681-2.756-.639-1.141-3.166-.392-2.955.816.1.492.775,2.878.916,3.359.244.824.388,3.994,1.238,4.225.719.2,3.889-.635,3.772-1.946a13.553,13.553,0,0,0-1.291-3.7" transform="translate(55.027 15.356)" fill="#fabc9d"/>
      <path id="Trazado_717783" data-name="Trazado 717783" d="M97.038,42l3.531-9.9-.106-.1-3.531,9.9c-.042.12-.036.2.008.249l.106.1c-.045-.044-.052-.128-.008-.25" transform="translate(54.581 18.019)" fill="#ada4b8"/>
      <path id="Trazado_717784" data-name="Trazado 717784" d="M114.668,26.121c-.063-.061-.2-.044-.386.063L99.947,34.461a1.938,1.938,0,0,0-.766.855l.106.1a1.933,1.933,0,0,1,.766-.857l14.334-8.276c.186-.108.324-.125.388-.064Z" transform="translate(55.865 14.693)" fill="#fff7f5"/>
      <path id="Trazado_717785" data-name="Trazado 717785" d="M115.632,26.25,101.3,34.526a1.942,1.942,0,0,0-.766.857L97,45.286c-.1.291.078.37.394.188L111.728,37.2a1.938,1.938,0,0,0,.766-.855l3.531-9.9c.1-.291-.077-.369-.394-.186" transform="translate(54.619 14.73)" fill="#dfd7e2"/>
    </g>
  </g>
</svg>
