<svg xmlns="http://www.w3.org/2000/svg" width="315" height="212.463" viewBox="0 0 315 212.463">
  <g id="económico_vector" data-name="económico vector" transform="translate(-5)">
    <path id="Trazado_719255" data-name="Trazado 719255" d="M90.233,50.644A78.451,78.451,0,0,1,121.4,57.058a104.047,104.047,0,1,1,92.849,151.02H90.233a78.717,78.717,0,1,1,0-157.435Z" transform="translate(-1.164)" fill="#d9f9f8" fill-rule="evenodd"/>
    <g id="Grupo_1017436" data-name="Grupo 1017436" transform="translate(21.009 96.872)">
      <path id="Trazado_719256" data-name="Trazado 719256" d="M162.891,117.947H24.491V230.7h138.4Z" transform="translate(-24.491 -117.947)" fill="#00aca7"/>
    </g>
    <path id="Trazado_719257" data-name="Trazado 719257" d="M131.293,123.343c.524,1.538,1.069,2.149.418,4.126-.986,2.993-5.734,8.555-7.554,10.74-3.458,4.148-3.862,8.375-1.536,10.594,9.117,8.7,55.362,79.979,3.825,81.473,10.152-12.551,10.143-19.929,6.69-33.349-3.6-14-11.006-34.077-16.95-48.745,0,0-.908-.443-.276-4.808C117.193,134.512,129.508,130.9,131.293,123.343Z" transform="translate(-19.778 -22.039)" fill="#00817d" fill-rule="evenodd"/>
    <path id="Trazado_719258" data-name="Trazado 719258" d="M117.987,145.671H80.268v6.5h37.719Z" transform="translate(-13.449 -26.029)" fill="#00817d"/>
    <path id="Trazado_719259" data-name="Trazado 719259" d="M109.368,145.671H91.977v6.5h17.391Z" transform="translate(-15.541 -26.029)" fill="#00817d"/>
    <path id="Trazado_719260" data-name="Trazado 719260" d="M116.6,153.587H82.511V154.9H116.6Z" transform="translate(-13.85 -27.443)" fill="#0482d7"/>
    <path id="Trazado_719261" data-name="Trazado 719261" d="M92.523,195.586a9.918,9.918,0,0,0-.076,1.905l-.027.078c.1.145.28,1.244.381,1.538.167.491.481.96.6,1.343.09.063.594.766.718.912a10.159,10.159,0,0,0,.85.79c.343.228.649.482,1.066.747a18.021,18.021,0,0,0,3.623,1.736c1.647.586,3.891,1.374,4.737,2.471,1.188,1.538.347,3.756-2.1,4.112a15.228,15.228,0,0,1-4.969-.255c-.452-.109-.913-.28-1.364-.388a20.077,20.077,0,0,1-2.149-.925l-.392-.1a.927.927,0,0,1-.156.479,2.652,2.652,0,0,1-.225,1.043,19.4,19.4,0,0,1-.674,2.51c.016.2-.059.746-.061,1.046a.782.782,0,0,1,.124.083l.206.193a3.862,3.862,0,0,1,1.059.4l2.439.7,1.134.232,1.714.223a.788.788,0,0,1,.35,0s.113.035.129.04c.118.048.057.023.1.059l.066.176c.049.31-.068,3.226.025,3.851h4.258c.087-1.294.041-2.8.05-4.1,0-.458.1-.353.534-.457,1.19-.28,1.72-.62,2.4-.8.129-.12.935-.506,1.188-.673.2-.131.376-.241.561-.39a2.057,2.057,0,0,1,.505-.372,15.361,15.361,0,0,0,1.571-2.079,8.536,8.536,0,0,0,.907-2.747v-1.775a7.267,7.267,0,0,1-.145-1.03,7.584,7.584,0,0,0-3.537-4.625c-2.838-1.765-8.495-2.806-8.8-5.235-.177-1.4,1.031-2.19,2.167-2.461a10.376,10.376,0,0,1,4.284.085c.92.2,3.462,1.115,3.534,1.119.2-.258.149-.551.324-.752a3.035,3.035,0,0,1,.224-.968,23.525,23.525,0,0,0,.643-3.156c-.478-.326-.738-.286-.981-.489l-.032.02a5.561,5.561,0,0,1-1.4-.434,10.577,10.577,0,0,1-1.732-.3,13.852,13.852,0,0,1-1.8-.232c-.451-.265-.147-2.746-.253-3.8H99.844c-.057.783.122,3.669-.135,4.1-.353.393-5.953.744-7.189,6.557" transform="translate(-15.6 -33.043)" fill="#fff" fill-rule="evenodd"/>
    <path id="Trazado_719262" data-name="Trazado 719262" d="M273.036,128.482H257.221V232.395h15.815Z" transform="translate(-45.067 -22.957)" fill="#a6f1ef"/>
    <path id="Trazado_719263" data-name="Trazado 719263" d="M305.9,84.715H290.385V223.92H305.9Z" transform="translate(-50.993 -15.137)" fill="#a6f1ef"/>
    <path id="Trazado_719264" data-name="Trazado 719264" d="M273.036,128.482H257.221v18.062h15.815Z" transform="translate(-45.067 -22.957)" fill="#01d8d1"/>
    <path id="Trazado_719265" data-name="Trazado 719265" d="M305.9,84.715H290.385v25.713H305.9Z" transform="translate(-50.993 -15.137)" fill="#01d8d1"/>
    <path id="Trazado_719266" data-name="Trazado 719266" d="M339.066,69.022H323.551V221.77h15.515Z" transform="translate(-56.919 -12.333)" fill="#a6f1ef"/>
    <path id="Trazado_719267" data-name="Trazado 719267" d="M339.066,63.118H323.551v33.3h15.515Z" transform="translate(-56.919 -11.278)" fill="#01d8d1"/>
    <path id="Trazado_719268" data-name="Trazado 719268" d="M272.355,147.726l13.569,9.557,6.443,4.539,38.946-55-3.3-2.324.012,0-2.5-1.737,21.237-7.2v21.971l-1.806-1.257,0,.161-3.3-2.324-38.946,55-7.289,10.347-10.346-7.288-9.665-6.808L233.23,225.887l-15.3-.03,47.133-67.785Z" transform="translate(-38.047 -17.074)" fill="#00aca7" fill-rule="evenodd"/>
    <path id="Trazado_719269" data-name="Trazado 719269" d="M321.373,254.205H12.687v.653H321.373Z" transform="translate(-1.373 -45.421)" fill="#000446"/>
    <path id="Trazado_719270" data-name="Trazado 719270" d="M85.309,248.475H40.271v4.576H85.309Z" transform="translate(-6.302 -44.398)" fill="#fbb44a"/>
    <path id="Trazado_719271" data-name="Trazado 719271" d="M93.866,248.475H88.159v4.576h5.707Z" transform="translate(-14.859 -44.398)" fill="#fbb44a"/>
    <path id="Trazado_719272" data-name="Trazado 719272" d="M86.9,248.475H81.126v4.576H86.9Z" transform="translate(-13.602 -44.398)" fill="#ffcc69"/>
    <path id="Trazado_719273" data-name="Trazado 719273" d="M76.61,248.475H55.844v4.576H76.61Z" transform="translate(-9.085 -44.398)" fill="#fbb44a"/>
    <path id="Trazado_719274" data-name="Trazado 719274" d="M55.134,248.475H45.211v4.576h9.923Z" transform="translate(-7.185 -44.398)" fill="#fbb44a"/>
    <path id="Trazado_719275" data-name="Trazado 719275" d="M83.574,254.047H42.868v.436H83.574Z" transform="translate(-6.766 -45.393)" fill="#df641e"/>
    <path id="Trazado_719276" data-name="Trazado 719276" d="M85.309,242.37H40.271v4.576H85.309Z" transform="translate(-6.302 -43.307)" fill="#fbb44a"/>
    <path id="Trazado_719277" data-name="Trazado 719277" d="M93.866,242.37H88.159v4.576h5.707Z" transform="translate(-14.859 -43.307)" fill="#fbb44a"/>
    <path id="Trazado_719278" data-name="Trazado 719278" d="M86.9,242.37H81.126v4.576H86.9Z" transform="translate(-13.602 -43.307)" fill="#ffcc69"/>
    <path id="Trazado_719279" data-name="Trazado 719279" d="M76.61,242.37H55.844v4.576H76.61Z" transform="translate(-9.085 -43.307)" fill="#fbb44a"/>
    <path id="Trazado_719280" data-name="Trazado 719280" d="M55.134,242.37H45.211v4.576h9.923Z" transform="translate(-7.185 -43.307)" fill="#fbb44a"/>
    <path id="Trazado_719281" data-name="Trazado 719281" d="M83.574,247.944H42.868v.436H83.574Z" transform="translate(-6.766 -44.303)" fill="#df641e"/>
    <path id="Trazado_719282" data-name="Trazado 719282" d="M85.309,236.267H40.271v4.577H85.309Z" transform="translate(-6.302 -42.216)" fill="#fbb44a"/>
    <path id="Trazado_719283" data-name="Trazado 719283" d="M93.866,236.267H88.159v4.577h5.707Z" transform="translate(-14.859 -42.216)" fill="#fbb44a"/>
    <path id="Trazado_719284" data-name="Trazado 719284" d="M86.9,236.267H81.126v4.577H86.9Z" transform="translate(-13.602 -42.216)" fill="#ffcc69"/>
    <path id="Trazado_719285" data-name="Trazado 719285" d="M76.61,236.267H55.844v4.577H76.61Z" transform="translate(-9.085 -42.216)" fill="#fbb44a"/>
    <path id="Trazado_719286" data-name="Trazado 719286" d="M55.134,236.267H45.211v4.577h9.923Z" transform="translate(-7.185 -42.216)" fill="#fbb44a"/>
    <path id="Trazado_719287" data-name="Trazado 719287" d="M83.574,241.839H42.868v.436H83.574Z" transform="translate(-6.766 -43.212)" fill="#df641e"/>
    <path id="Trazado_719288" data-name="Trazado 719288" d="M85.309,224.06H40.271v4.576H85.309Z" transform="translate(-6.302 -40.035)" fill="#fbb44a"/>
    <path id="Trazado_719289" data-name="Trazado 719289" d="M93.866,224.06H88.159v4.576h5.707Z" transform="translate(-14.859 -40.035)" fill="#fbb44a"/>
    <path id="Trazado_719290" data-name="Trazado 719290" d="M86.9,224.06H81.126v4.576H86.9Z" transform="translate(-13.602 -40.035)" fill="#ffcc69"/>
    <path id="Trazado_719291" data-name="Trazado 719291" d="M76.61,224.06H55.844v4.576H76.61Z" transform="translate(-9.085 -40.035)" fill="#fbb44a"/>
    <path id="Trazado_719292" data-name="Trazado 719292" d="M55.134,224.06H45.211v4.576h9.923Z" transform="translate(-7.185 -40.035)" fill="#fbb44a"/>
    <path id="Trazado_719293" data-name="Trazado 719293" d="M83.574,229.632H42.868v.436H83.574Z" transform="translate(-6.766 -41.031)" fill="#df641e"/>
    <path id="Trazado_719294" data-name="Trazado 719294" d="M85.309,211.851H40.271v4.576H85.309Z" transform="translate(-6.302 -37.854)" fill="#fbb44a"/>
    <path id="Trazado_719295" data-name="Trazado 719295" d="M93.866,211.851H88.159v4.576h5.707Z" transform="translate(-14.859 -37.854)" fill="#fbb44a"/>
    <path id="Trazado_719296" data-name="Trazado 719296" d="M86.9,211.851H81.126v4.576H86.9Z" transform="translate(-13.602 -37.854)" fill="#ffcc69"/>
    <path id="Trazado_719297" data-name="Trazado 719297" d="M76.61,211.851H55.844v4.576H76.61Z" transform="translate(-9.085 -37.854)" fill="#fbb44a"/>
    <path id="Trazado_719298" data-name="Trazado 719298" d="M55.134,211.851H45.211v4.576h9.923Z" transform="translate(-7.185 -37.854)" fill="#fbb44a"/>
    <path id="Trazado_719299" data-name="Trazado 719299" d="M83.574,217.425H42.868v.435H83.574Z" transform="translate(-6.766 -38.85)" fill="#df641e"/>
    <path id="Trazado_719300" data-name="Trazado 719300" d="M85.309,230.163H40.271v4.576H85.309Z" transform="translate(-6.302 -41.126)" fill="#fbb44a"/>
    <path id="Trazado_719301" data-name="Trazado 719301" d="M93.866,230.163H88.159v4.576h5.707Z" transform="translate(-14.859 -41.126)" fill="#fbb44a"/>
    <path id="Trazado_719302" data-name="Trazado 719302" d="M86.9,230.163H81.126v4.576H86.9Z" transform="translate(-13.602 -41.126)" fill="#ffcc69"/>
    <path id="Trazado_719303" data-name="Trazado 719303" d="M76.61,230.163H55.844v4.576H76.61Z" transform="translate(-9.085 -41.126)" fill="#fbb44a"/>
    <path id="Trazado_719304" data-name="Trazado 719304" d="M55.134,230.163H45.211v4.576h9.923Z" transform="translate(-7.185 -41.126)" fill="#fbb44a"/>
    <path id="Trazado_719305" data-name="Trazado 719305" d="M83.574,235.737H42.868v.435H83.574Z" transform="translate(-6.766 -42.122)" fill="#df641e"/>
    <path id="Trazado_719306" data-name="Trazado 719306" d="M85.309,217.955H40.271v4.577H85.309Z" transform="translate(-6.302 -38.944)" fill="#fbb44a"/>
    <path id="Trazado_719307" data-name="Trazado 719307" d="M93.866,217.955H88.159v4.577h5.707Z" transform="translate(-14.859 -38.944)" fill="#fbb44a"/>
    <path id="Trazado_719308" data-name="Trazado 719308" d="M86.9,217.955H81.126v4.577H86.9Z" transform="translate(-13.602 -38.944)" fill="#ffcc69"/>
    <path id="Trazado_719309" data-name="Trazado 719309" d="M76.61,217.955H55.844v4.577H76.61Z" transform="translate(-9.085 -38.944)" fill="#fbb44a"/>
    <path id="Trazado_719310" data-name="Trazado 719310" d="M55.134,217.955H45.211v4.577h9.923Z" transform="translate(-7.185 -38.944)" fill="#fbb44a"/>
    <path id="Trazado_719311" data-name="Trazado 719311" d="M83.574,223.528H42.868v.435H83.574Z" transform="translate(-6.766 -39.94)" fill="#df641e"/>
    <path id="Trazado_719312" data-name="Trazado 719312" d="M85.309,205.748H40.271v4.576H85.309Z" transform="translate(-6.302 -36.763)" fill="#fbb44a"/>
    <path id="Trazado_719313" data-name="Trazado 719313" d="M93.866,205.748H88.159v4.576h5.707Z" transform="translate(-14.859 -36.763)" fill="#fbb44a"/>
    <path id="Trazado_719314" data-name="Trazado 719314" d="M86.9,205.748H81.126v4.576H86.9Z" transform="translate(-13.602 -36.763)" fill="#ffcc69"/>
    <path id="Trazado_719315" data-name="Trazado 719315" d="M76.61,205.748H55.844v4.576H76.61Z" transform="translate(-9.085 -36.763)" fill="#fbb44a"/>
    <path id="Trazado_719316" data-name="Trazado 719316" d="M55.134,205.748H45.211v4.576h9.923Z" transform="translate(-7.185 -36.763)" fill="#fbb44a"/>
    <path id="Trazado_719317" data-name="Trazado 719317" d="M83.574,211.32H42.868v.436H83.574Z" transform="translate(-6.766 -37.759)" fill="#df641e"/>
    <path id="Trazado_719318" data-name="Trazado 719318" d="M85.309,199.644H40.271v4.576H85.309Z" transform="translate(-6.302 -35.672)" fill="#fbb44a"/>
    <path id="Trazado_719319" data-name="Trazado 719319" d="M93.866,199.644H88.159v4.576h5.707Z" transform="translate(-14.859 -35.672)" fill="#fbb44a"/>
    <path id="Trazado_719320" data-name="Trazado 719320" d="M86.9,199.644H81.126v4.576H86.9Z" transform="translate(-13.602 -35.672)" fill="#ffcc69"/>
    <path id="Trazado_719321" data-name="Trazado 719321" d="M76.61,199.644H55.844v4.576H76.61Z" transform="translate(-9.085 -35.672)" fill="#fbb44a"/>
    <path id="Trazado_719322" data-name="Trazado 719322" d="M55.134,199.644H45.211v4.576h9.923Z" transform="translate(-7.185 -35.672)" fill="#fbb44a"/>
    <path id="Trazado_719323" data-name="Trazado 719323" d="M83.574,205.216H42.868v.436H83.574Z" transform="translate(-6.766 -36.668)" fill="#df641e"/>
    <path id="Trazado_719324" data-name="Trazado 719324" d="M85.309,187.436H40.271v4.577H85.309Z" transform="translate(-6.302 -33.491)" fill="#fbb44a"/>
    <path id="Trazado_719325" data-name="Trazado 719325" d="M93.866,187.436H88.159v4.577h5.707Z" transform="translate(-14.859 -33.491)" fill="#fbb44a"/>
    <path id="Trazado_719326" data-name="Trazado 719326" d="M86.9,187.436H81.126v4.577H86.9Z" transform="translate(-13.602 -33.491)" fill="#ffcc69"/>
    <path id="Trazado_719327" data-name="Trazado 719327" d="M76.61,187.436H55.844v4.577H76.61Z" transform="translate(-9.085 -33.491)" fill="#fbb44a"/>
    <path id="Trazado_719328" data-name="Trazado 719328" d="M55.134,187.436H45.211v4.577h9.923Z" transform="translate(-7.185 -33.491)" fill="#fbb44a"/>
    <path id="Trazado_719329" data-name="Trazado 719329" d="M83.574,193.009H42.868v.435H83.574Z" transform="translate(-6.766 -34.487)" fill="#df641e"/>
    <path id="Trazado_719330" data-name="Trazado 719330" d="M85.309,193.539H40.271v4.577H85.309Z" transform="translate(-6.302 -34.582)" fill="#fbb44a"/>
    <path id="Trazado_719331" data-name="Trazado 719331" d="M93.866,193.539H88.159v4.577h5.707Z" transform="translate(-14.859 -34.582)" fill="#fbb44a"/>
    <path id="Trazado_719332" data-name="Trazado 719332" d="M86.9,193.539H81.126v4.577H86.9Z" transform="translate(-13.602 -34.582)" fill="#ffcc69"/>
    <path id="Trazado_719333" data-name="Trazado 719333" d="M76.61,193.539H55.844v4.577H76.61Z" transform="translate(-9.085 -34.582)" fill="#fbb44a"/>
    <path id="Trazado_719334" data-name="Trazado 719334" d="M55.134,193.539H45.211v4.577h9.923Z" transform="translate(-7.185 -34.582)" fill="#fbb44a"/>
    <path id="Trazado_719335" data-name="Trazado 719335" d="M83.574,199.113H42.868v.436H83.574Z" transform="translate(-6.766 -35.578)" fill="#df641e"/>
    <path id="Trazado_719336" data-name="Trazado 719336" d="M7.973,230.094A21.446,21.446,0,1,1,34.77,244.3,21.446,21.446,0,0,1,7.973,230.094Z" transform="translate(-0.361 -36.155)" fill="#ccbe46"/>
    <path id="Trazado_719337" data-name="Trazado 719337" d="M5.951,228.78a21.446,21.446,0,1,1,26.8,14.2A21.446,21.446,0,0,1,5.951,228.78Z" transform="translate(0 -35.921)" fill="#ffef95"/>
    <path id="Trazado_719338" data-name="Trazado 719338" d="M7,229.372a21.446,21.446,0,1,1,26.8,14.206A21.447,21.447,0,0,1,7,229.372Z" transform="translate(-0.187 -36.026)" fill="#ffcc69"/>
    <path id="Trazado_719339" data-name="Trazado 719339" d="M7.194,232.631c-.018-.06-.035-.118-.052-.178l41-12.591c.019.059.038.117.057.177a21.446,21.446,0,1,1-41,12.592" transform="translate(-0.383 -39.285)" fill="#ffcc69"/>
    <path id="Trazado_719340" data-name="Trazado 719340" d="M41.078,236.654a18.2,18.2,0,1,0-25.741,0A18.2,18.2,0,0,0,41.078,236.654Z" transform="translate(-0.894 -36.734)" fill="#fbb44a"/>
    <path id="Trazado_719341" data-name="Trazado 719341" d="M41.078,236.654a18.2,18.2,0,1,0-25.741,0A18.2,18.2,0,0,0,41.078,236.654Z" transform="translate(-0.894 -36.734)" fill="none" stroke="#fca700" stroke-miterlimit="10" stroke-width="0.03"/>
    <path id="Trazado_719342" data-name="Trazado 719342" d="M26.461,216.866l-.712-2.379,2.663-.8.7,2.323q4.617-.841,7.108,2.507l-3.929,2.653a2.733,2.733,0,0,0-3.231-.946q-1.714.513-1.383,1.618a.96.96,0,0,0,.5.6,4.148,4.148,0,0,0,1.776.09A31.436,31.436,0,0,1,34.6,222.4a5,5,0,0,1,2.694,1.112,5.2,5.2,0,0,1,1.74,2.668,5.5,5.5,0,0,1-.493,4.47,8.116,8.116,0,0,1-4.058,3.318l.713,2.379-2.663.8-.712-2.379a7.1,7.1,0,0,1-7.867-3.391l4.573-2.351a3.018,3.018,0,0,0,3.772,1.185q1.961-.588,1.642-1.664a1.049,1.049,0,0,0-.723-.747,4.887,4.887,0,0,0-1.786-.072q-4.843.447-6.5-.627a5.17,5.17,0,0,1-2.212-2.939,5.79,5.79,0,0,1,.245-4.061,6.663,6.663,0,0,1,3.5-3.237" transform="translate(-3.12 -38.182)" fill="#ffe1a7" fill-rule="evenodd"/>
    <path id="Trazado_719343" data-name="Trazado 719343" d="M214.774,106.376c3.583,7.865,4.925,16.429,15.181,17.957,7.256.2,22.162-6.267,21.18-8.769-1.067-2.72,2.737-4.876-1.432-4.8-5.541-.017-19.1,1.388-20.355,1.3-1.184-.083-5.767-17.594-13.038-20.234C215.448,91.275,212.25,102.576,214.774,106.376Z" transform="translate(-37.312 -16.405)" fill="#1b326b" fill-rule="evenodd"/>
    <path id="Trazado_719344" data-name="Trazado 719344" d="M258.811,113.679c.5-.779,2.507-3.841,3.316-4.178.412-.172.434-.015.5.217a1.69,1.69,0,0,1-.156.958c-.307.593-.3,1.8-.513,2.105,3.54,1.413,8.159-1.022,8.5.962-.168.369-1.846,2.038-2.165,2.581-1.013,1.727-1.7,2.471-9.272,2.829-.358.017-1.305.255-1.694.268a6.6,6.6,0,0,1-.334-4.431l1.817-1.308Z" transform="translate(-44.985 -19.553)" fill="#f7aaac" fill-rule="evenodd"/>
    <path id="Trazado_719345" data-name="Trazado 719345" d="M165.988,164.613s.143-3.437-.853-3.846-4.783-.04-4.783-.04a1.6,1.6,0,0,0-1.124,1.534c-.086,1.289-.086,2.353-.086,2.353h1.282a7.416,7.416,0,0,1,.128-2.169c.228-.266,3.78-.091,3.78-.091s.485.01.506.981,0,1.279,0,1.279h1.151Z" transform="translate(-27.542 -28.692)" fill="#ce5600" fill-rule="evenodd"/>
    <path id="Trazado_719346" data-name="Trazado 719346" d="M170.721,164.779l-22.035.54-.056,33.247h22.091Z" transform="translate(-25.664 -29.443)" fill="#ea6200" fill-rule="evenodd"/>
    <path id="Trazado_719347" data-name="Trazado 719347" d="M149.255,165.437h-.271l-.3,2.907-.057,30.34h22.091V188.43C158.539,204.652,150.655,179.64,149.255,165.437Z" transform="translate(-25.664 -29.56)" fill="#ce5600" fill-rule="evenodd"/>
    <path id="Trazado_719348" data-name="Trazado 719348" d="M217.668,147.224c3.253,14.277-1.394,47.452-3.157,74.154-.12,1.817.182,4.04,2.14,5.108,1.79.977,5.365,1.779,6.424,2.792.763.729,3.685,4.865-6.773,4.59-7.43-.195-9.2-.712-10-1.919-.112-.168-5.389-56.873-6.163-61.524-1.326,5.928-17.138,56.624-17.134,56.655a12.683,12.683,0,0,0,2.636,4.748c.406,1.45,1.376,4-5.827,3.94s-5.517-2.859-5.541-3.3c3.2-30.062,8.12-69.247,9.438-86.674,0,0,9.584-.137,14.809-3.089,7.941-4.485,12.845-22.734,11.361-3.952C209.607,142.274,216.431,142.371,217.668,147.224Z" transform="translate(-30.219 -23.306)" fill="#1b326b" fill-rule="evenodd"/>
    <path id="Trazado_719349" data-name="Trazado 719349" d="M171.438,108.04c-4.867,11.879-7.432,24.523-8.952,37.173-.154,1.275.9,2.773,2.473,3.617,1,.537,1.657.549,3.51-1.081,2.813-3.387,4.891-15.884,7.951-20.885,6.04-9.869,11.857-19.442,8.648-25.767-.153-.887-12.667,3.058-13.631,6.943" transform="translate(-28.137 -18.042)" fill="#003759" fill-rule="evenodd"/>
    <path id="Trazado_719350" data-name="Trazado 719350" d="M180.086,118.118a146.457,146.457,0,0,1,1.473,30.082c14.02,2.407,27.406,1.646,35.778-1.02-.392-9.251,2.342-53.646-11.37-56.586-9.275-2.6-21.715-1.777-26.853,3.289l-.044.042c-3.927,3.678-8.778,15.805-11.063,24.593-4.79,18.426,8.064,8.251,12.079-.4" transform="translate(-28.938 -15.93)" fill="#1b326b" fill-rule="evenodd"/>
    <path id="Trazado_719351" data-name="Trazado 719351" d="M207.086,89.629c1.684,7.64,2.268,33.437,2.091,41.96-.326-.641-14.6-36.158-15.81-42.055A29.321,29.321,0,0,1,207.086,89.629Z" transform="translate(-33.657 -15.86)" fill="#fff" fill-rule="evenodd"/>
    <path id="Trazado_719352" data-name="Trazado 719352" d="M211.4,118.544l-.569,14.511L204.5,119.713l-.38-18.907-1.487-2.081,1.6-1.754,1.97,1.058-.657,2.394c1.947,5.191,4.567,14.075,5.863,18.12" transform="translate(-35.312 -17.327)" fill="#ef7911"/>
    <path id="Trazado_719353" data-name="Trazado 719353" d="M182.943,122.992c1.092,6.954,1.732,21.356,1.473,30.082,3.675-9.114,1.725-32.969,1.013-36.642a45.8,45.8,0,0,1-2.484,6.559" transform="translate(-31.795 -20.804)" fill="#003759" fill-rule="evenodd"/>
    <path id="Trazado_719354" data-name="Trazado 719354" d="M207.718,78.167a9.071,9.071,0,0,1-3.907,4.213l.053,2.851.416.353c1.625,1.741-.134,5.316-1.985,5.206-4.679.23-8.271-3.607-6.865-5.689l.611-.681.135-4.036c-.241-.014-2-1.013-2.521-1.173a2.713,2.713,0,0,1-1.343-2.234c-.051-1.064,1.593-.719,1.593-.719-1.992-2.726-4.247-4.953-1.322-7.406s9.642-3.887,9.642-3.887l4.044-1.4c-.515,1.395.173,6.049,1.211,8.956.931,2.607,1.563,3.012.239,5.647" transform="translate(-33.267 -11.358)" fill="#f7aaac" fill-rule="evenodd"/>
    <path id="Trazado_719355" data-name="Trazado 719355" d="M199.58,84.726s2.287,3.923,4.166,4.277.918.093,1.618.009l-.053-2.852c-1.294.208-2.561.106-5.73-1.435" transform="translate(-34.768 -15.139)" fill="#ea8287" fill-rule="evenodd"/>
    <path id="Trazado_719356" data-name="Trazado 719356" d="M205.044,68.773c-3.362,1.722-7.233-.321-9.191,1.985-.97,1.142-.871,2.788.214,5.331.32.749.747,1.3-.518.715-.581-.269-1.537-.645-1.864-.381a1.5,1.5,0,0,0,.22,2.22c.259.177.749.443.749.443a7.964,7.964,0,0,1-6.341-8.221,13.978,13.978,0,0,1,.356-2.983,3.274,3.274,0,0,1-.144-.961,3.116,3.116,0,0,1,2.153-3.008,3.033,3.033,0,0,1,2.949-2.625,2.853,2.853,0,0,1,1.252.288l.149-.04a3.167,3.167,0,0,1,4.849-.745,4.309,4.309,0,0,1,3.463-1.834,4.8,4.8,0,0,1,4.493,5.051,5.24,5.24,0,0,1-1.987,4.193,5.052,5.052,0,0,1-.8.576" transform="translate(-32.754 -10.534)" fill="#1b326b" fill-rule="evenodd"/>
    <path id="Trazado_719357" data-name="Trazado 719357" d="M167.1,157.148c-.505,2.041-.6,2.967-1.006,4.976-.1.483-1.037.87-1.769,1.253l-3.809-.094a2.68,2.68,0,0,1-.632-.953c-.488-.587-.2-2.242,0-2.809a3.015,3.015,0,0,1,.471-.769c.514-.731,1.28-1.746,1.422-1.95.337-.486.813-.87.859-1.478a6.55,6.55,0,0,1,4.47,1.824" transform="translate(-27.625 -27.753)" fill="#f7aaac"/>
    <path id="Trazado_719358" data-name="Trazado 719358" d="M167.268,160.911h-2.32c-1,.313-.611,1.467,0,1.4h.807v1.936h1.513v-3.338Z" transform="translate(-28.47 -28.752)" fill="#ce5600" fill-rule="evenodd"/>
    <path id="Trazado_719359" data-name="Trazado 719359" d="M212.161,131.776,216.073,99.8,212.9,97.125l2.006-2.376-1.969-4.232a19.743,19.743,0,0,1-2.871-.7C211.754,97.456,212.339,123.251,212.161,131.776Z" transform="translate(-36.642 -16.049)" fill="#3c5695" fill-rule="evenodd"/>
    <path id="Trazado_719360" data-name="Trazado 719360" d="M208.338,131.763l-19.3-29.646,2.247-3.483-2.613-1.686.936-6.483a25.833,25.833,0,0,1,2.926-.718c1.256,6,15.466,41.357,15.8,42.017" transform="translate(-32.819 -16.036)" fill="#3c5695" fill-rule="evenodd"/>
    <path id="Trazado_719361" data-name="Trazado 719361" d="M181.841,164.779h-6.314v33.787h6.314Z" transform="translate(-30.47 -29.443)" fill="#f1841a"/>
    <path id="Trazado_719362" data-name="Trazado 719362" d="M265.255,27.478A20.267,20.267,0,1,1,239.132,39.27,20.266,20.266,0,0,1,265.255,27.478Z" transform="translate(-41.6 -4.675)" fill="#a6f1ef"/>
    <path id="Trazado_719363" data-name="Trazado 719363" d="M255.226,43.884a6.294,6.294,0,0,0-.048,1.2l-.016.05c.063.091.177.785.239.969.105.309.3.605.377.846.057.04.374.483.452.575a6.482,6.482,0,0,0,.536.5c.216.145.409.3.672.471a11.43,11.43,0,0,0,2.283,1.094,7.359,7.359,0,0,1,2.985,1.557c.749.97.219,2.367-1.32,2.592a9.59,9.59,0,0,1-3.132-.161c-.285-.069-.576-.177-.859-.245a12.558,12.558,0,0,1-1.354-.583l-.247-.061a.578.578,0,0,1-.1.3,1.646,1.646,0,0,1-.142.657,12.145,12.145,0,0,1-.425,1.582c.01.126-.036.47-.039.659a.447.447,0,0,1,.078.052l.13.121a2.465,2.465,0,0,1,.669.252l1.537.439.715.147,1.081.14a.488.488,0,0,1,.221,0s.071.022.081.025c.076.03.036.015.061.038l.042.111c.03.2-.043,2.034.016,2.428H262.4c.054-.815.026-1.765.032-2.584,0-.289.059-.222.336-.288.75-.176,1.084-.391,1.511-.5.081-.076.589-.32.748-.425a4.307,4.307,0,0,0,.355-.246,1.326,1.326,0,0,1,.317-.234,9.6,9.6,0,0,0,.991-1.311,5.422,5.422,0,0,0,.572-1.731V51.2a4.628,4.628,0,0,1-.092-.649,4.776,4.776,0,0,0-2.23-2.916c-1.789-1.112-5.353-1.768-5.548-3.3-.112-.881.65-1.381,1.366-1.552a6.583,6.583,0,0,1,2.7.053c.581.126,2.181.7,2.227.7.128-.163.094-.348.2-.474a1.9,1.9,0,0,1,.141-.61,14.763,14.763,0,0,0,.406-1.99c-.3-.206-.464-.18-.619-.308l-.02.012a3.5,3.5,0,0,1-.885-.273,6.867,6.867,0,0,1-1.092-.192,8.668,8.668,0,0,1-1.133-.147c-.284-.167-.093-1.731-.159-2.4h-2.69a16.787,16.787,0,0,1-.085,2.587c-.223.246-3.751.469-4.53,4.132" transform="translate(-44.686 -6.64)" fill="#fff"/>
    <path id="Trazado_719364" data-name="Trazado 719364" d="M123.692,248.475H78.654v4.576h45.038Z" transform="translate(-13.16 -44.398)" fill="#fbb44a"/>
    <path id="Trazado_719365" data-name="Trazado 719365" d="M132.249,248.475h-5.707v4.576h5.707Z" transform="translate(-21.717 -44.398)" fill="#fbb44a"/>
    <path id="Trazado_719366" data-name="Trazado 719366" d="M125.285,248.475h-5.776v4.576h5.776Z" transform="translate(-20.46 -44.398)" fill="#ffcc69"/>
    <path id="Trazado_719367" data-name="Trazado 719367" d="M114.991,248.475H94.226v4.576h20.766Z" transform="translate(-15.943 -44.398)" fill="#fbb44a"/>
    <path id="Trazado_719368" data-name="Trazado 719368" d="M93.517,248.475H83.594v4.576h9.923Z" transform="translate(-14.043 -44.398)" fill="#fbb44a"/>
    <path id="Trazado_719369" data-name="Trazado 719369" d="M121.958,254.047H81.251v.436h40.707Z" transform="translate(-13.625 -45.393)" fill="#df641e"/>
    <path id="Trazado_719370" data-name="Trazado 719370" d="M123.692,242.37H78.654v4.576h45.038Z" transform="translate(-13.16 -43.307)" fill="#fbb44a"/>
    <path id="Trazado_719371" data-name="Trazado 719371" d="M132.249,242.37h-5.707v4.576h5.707Z" transform="translate(-21.717 -43.307)" fill="#fbb44a"/>
    <path id="Trazado_719372" data-name="Trazado 719372" d="M125.285,242.37h-5.776v4.576h5.776Z" transform="translate(-20.46 -43.307)" fill="#ffcc69"/>
    <path id="Trazado_719373" data-name="Trazado 719373" d="M114.991,242.37H94.226v4.576h20.766Z" transform="translate(-15.943 -43.307)" fill="#fbb44a"/>
    <path id="Trazado_719374" data-name="Trazado 719374" d="M93.517,242.37H83.594v4.576h9.923Z" transform="translate(-14.043 -43.307)" fill="#fbb44a"/>
    <path id="Trazado_719375" data-name="Trazado 719375" d="M121.958,247.944H81.251v.436h40.707Z" transform="translate(-13.625 -44.303)" fill="#df641e"/>
    <path id="Trazado_719376" data-name="Trazado 719376" d="M123.692,236.267H78.654v4.577h45.038Z" transform="translate(-13.16 -42.216)" fill="#fbb44a"/>
    <path id="Trazado_719377" data-name="Trazado 719377" d="M132.249,236.267h-5.707v4.577h5.707Z" transform="translate(-21.717 -42.216)" fill="#fbb44a"/>
    <path id="Trazado_719378" data-name="Trazado 719378" d="M125.285,236.267h-5.776v4.577h5.776Z" transform="translate(-20.46 -42.216)" fill="#ffcc69"/>
    <path id="Trazado_719379" data-name="Trazado 719379" d="M114.991,236.267H94.226v4.577h20.766Z" transform="translate(-15.943 -42.216)" fill="#fbb44a"/>
    <path id="Trazado_719380" data-name="Trazado 719380" d="M93.517,236.267H83.594v4.577h9.923Z" transform="translate(-14.043 -42.216)" fill="#fbb44a"/>
    <path id="Trazado_719381" data-name="Trazado 719381" d="M121.958,241.839H81.251v.436h40.707Z" transform="translate(-13.625 -43.212)" fill="#df641e"/>
    <path id="Trazado_719382" data-name="Trazado 719382" d="M149.127,82.291l-.867-.177a.825.825,0,0,1-.66-.75,8.483,8.483,0,0,0-.4-2.074.826.826,0,0,1,.333-.942l.738-.49a.831.831,0,0,0,.237-1.152l-.935-1.415a.833.833,0,0,0-1.153-.235l-.738.489a.825.825,0,0,1-1-.063,8.531,8.531,0,0,0-1.752-1.183.821.821,0,0,1-.429-.9l.176-.867a.831.831,0,0,0-.648-.981l-1.662-.339a.831.831,0,0,0-.981.648l-.177.867a.826.826,0,0,1-.749.661,8.5,8.5,0,0,0-2.074.4.823.823,0,0,1-.943-.332l-.49-.738a.83.83,0,0,0-1.151-.235l-1.416.935a.831.831,0,0,0-.235,1.153l.489.739a.823.823,0,0,1-.064,1,8.644,8.644,0,0,0-1.184,1.751.823.823,0,0,1-.9.431l-.867-.177a.831.831,0,0,0-.981.648l-.339,1.662a.832.832,0,0,0,.65.981l.867.177a.825.825,0,0,1,.66.75,8.522,8.522,0,0,0,.4,2.073.826.826,0,0,1-.33.944l-.74.488a.832.832,0,0,0-.235,1.153l.935,1.415a.834.834,0,0,0,1.155.235l.737-.489a.826.826,0,0,1,1,.064,8.537,8.537,0,0,0,1.75,1.182.823.823,0,0,1,.431.9l-.177.867a.83.83,0,0,0,.648.981l1.662.34a.834.834,0,0,0,.981-.649l.176-.867a.827.827,0,0,1,.75-.661,8.5,8.5,0,0,0,2.073-.4.825.825,0,0,1,.943.332l.488.738a.834.834,0,0,0,1.154.236l1.415-.936a.83.83,0,0,0,.235-1.153l-.489-.74a.825.825,0,0,1,.063-1,8.452,8.452,0,0,0,1.184-1.751.822.822,0,0,1,.9-.43l.869.176a.831.831,0,0,0,.981-.648l.339-1.662a.83.83,0,0,0-.65-.98M136.1,79.109a4.087,4.087,0,1,1,.1,5.779,4.087,4.087,0,0,1-.1-5.779Z" transform="translate(-22.029 -12.721)" fill="#a6f1ef" fill-rule="evenodd"/>
  </g>
</svg>
