<svg xmlns="http://www.w3.org/2000/svg" xmlns:xlink="http://www.w3.org/1999/xlink" width="116.999" height="115" viewBox="0 0 116.999 115">
  <defs>
    <clipPath id="clip-path">
      <rect id="Rect치ngulo_350177" data-name="Rect치ngulo 350177" width="69.301" height="69.328" fill="none"/>
    </clipPath>
  </defs>
  <g id="Grupo_1018031" data-name="Grupo 1018031" transform="translate(-742 -3318.564)">
    <g id="Grupo_1017420" data-name="Grupo 1017420" transform="translate(316.563 -4179.906)">
      <g id="Grupo_1015374" data-name="Grupo 1015374" transform="translate(425.927 7498.205)">
        <g id="Grupo_1015448" data-name="Grupo 1015448" transform="translate(0 0)">
          <g id="Grupo_1014855" data-name="Grupo 1014855" transform="translate(0 0)">
            <path id="Uni칩n_12" data-name="Uni칩n 12" d="M58.5,0C90.809,0,117,25.744,117,57.5S90.809,115,58.5,115,0,89.256,0,57.5,26.192,0,58.5,0Z" transform="translate(-0.49 0.265)" fill="#81c539"/>
            <ellipse id="Elipse_4842" data-name="Elipse 4842" cx="49" cy="49.5" rx="49" ry="49.5" transform="translate(9.51 7.265)" fill="#fff"/>
          </g>
        </g>
      </g>
    </g>
    <g id="Grupo_1017415" data-name="Grupo 1017415" transform="translate(765.35 3333.754)">
      <g id="Grupo_1017414" data-name="Grupo 1017414" clip-path="url(#clip-path)">
        <path id="Trazado_718347" data-name="Trazado 718347" d="M165.685,175.1q-4.866,0-9.733,0c-.625,0-1.327.114-1.6-.668-.232-.676.092-1.1.732-1.366.439-.18.291-.614.292-.952.008-3.469-.006-6.939.015-10.408,0-.635-.061-.974-.857-.929a2.672,2.672,0,0,1-2.8-1.919,2.871,2.871,0,0,1,.858-3.315c3.7-3.233,7.38-6.479,11.1-9.683a2.8,2.8,0,0,1,3.934-.012q5.587,4.8,11.1,9.688a2.806,2.806,0,0,1,.866,3.3,2.682,2.682,0,0,1-2.777,1.936c-.818-.044-.841.306-.838.919.018,3.469,0,6.939.016,10.408,0,.37-.183.837.359,1.039a.926.926,0,0,1,.655,1.272c-.241.671-.842.7-1.459.7-2.658-.013-5.317-.006-7.975-.006h-1.892m-.5-9.493a8.759,8.759,0,0,1-.934-.075c-1.336-.248-1.7.335-1.584,1.608.113,1.2.024,2.419.024,3.63,0,2.428,0,2.428,2.491,2.2,3.5.324,3.5.324,3.5-3.075v-1.212c0-3.374,0-3.374-3.5-3.079m-10.863-6.917c.785.293,1.14-.381,1.579-.759,2.733-2.351,5.435-4.739,8.156-7.1,1.478-1.285,1.8-1.264,3.316.061q4.219,3.7,8.446,7.388c.514.451,1.089.815,1.643.189.523-.591.223-1.154-.323-1.625q-5.266-4.549-10.519-9.112c-.63-.8-1.28-.664-1.953-.053-.534.484-1.079.957-1.622,1.431q-4.377,3.823-8.753,7.649c-.719.632-1.248,1.31.029,1.935m4.919-.886a3.5,3.5,0,0,0-1.917,3.6c.17,3.321.05,6.657.05,9.986,0,1.783,0,1.783,1.873,1.588,1.036.308,1.418,0,1.391-1.149-.074-3.063-.03-6.129-.023-9.193,0-2,.693-2.7,2.647-2.709,1.442-.006,2.884,0,4.327,0,2.621,0,3.105.495,3.106,3.176,0,2.839.072,5.681-.033,8.517-.046,1.244.357,1.635,1.513,1.447a2.357,2.357,0,0,1,.675,0c.779.1,1.1-.124,1.093-1.009-.05-3.965-.023-7.932-.02-11.9a1.4,1.4,0,0,0-.4-1.219q-3.681-3.181-7.328-6.4c-.441-.39-.7-.309-1.108.061-1.93,1.754-3.895,3.472-5.847,5.2m6.334,5.665v.008c.761,0,1.522-.008,2.283,0,.473.007.876.025.854-.669-.019-.58-.1-.92-.8-.9q-2.214.064-4.43.012c-.7-.016-.791.326-.8.907-.015.712.432.642.882.64.671,0,1.343,0,2.014,0" transform="translate(-110.512 -105.777)" fill="#070605"/>
        <path id="Trazado_718348" data-name="Trazado 718348" d="M23.5,167.784a1.3,1.3,0,0,1,.937,1.447c-.04.99,0,1.983-.012,2.975,0,.419-.008.789.5.971a.9.9,0,0,1,.547,1.216c-.162.565-.622.71-1.164.708-2.119-.006-4.238,0-6.357,0q-6.762,0-13.525,0c-.637,0-1.326.08-1.611-.667-.26-.683.1-1.1.737-1.346.383-.149.267-.53.268-.827.006-3.561-.012-7.123.019-10.684.006-.651-.15-.827-.82-.8a2.72,2.72,0,0,1-2.794-1.922,2.79,2.79,0,0,1,.844-3.3q5.523-4.879,11.1-9.7a2.8,2.8,0,0,1,3.935,0c3.725,3.2,7.411,6.451,11.108,9.686a2.877,2.877,0,0,1,.859,3.318,2.671,2.671,0,0,1-2.8,1.918c-.8-.045-.886.3-.854.932.036.72-.007,1.442.011,2.163a1.11,1.11,0,0,1-.92,1.284c-.85-.09-1.1-.614-1.079-1.4.029-1.213-.006-2.427.014-3.639a1.37,1.37,0,0,0-.477-1.181q-3.671-3.171-7.3-6.391c-.384-.342-.637-.35-1.006-.018-1.934,1.739-3.881,3.463-5.824,5.192A3.614,3.614,0,0,0,5.85,161.4c.174,3.259.05,6.533.05,9.8,0,1.957,0,1.957,1.963,1.775.918.272,1.3.013,1.28-1.024-.055-3.062-.024-6.125-.018-9.187,0-2.206.618-2.832,2.766-2.836,1.576,0,3.153-.007,4.729,0,1.869.01,2.575.726,2.581,2.638.01,2.972.078,5.948-.032,8.916-.048,1.312.316,1.621,1.611,1.63,1.365.009,1.879-.34,1.676-1.718-.1-.705.014-1.44-.026-2.159a1.231,1.231,0,0,1,1.071-1.455m-9.936-5.759c-.579-.03-1.159-.047-1.737-.094-.655-.053-.7.336-.709.844-.014.523.167.733.692.7.58-.038,1.163-.036,1.745-.051.938.016,1.878.008,2.814.057.575.03.784-.164.771-.755-.013-.561-.176-.829-.772-.8-.934.052-1.87.067-2.806.1M13.55,172.97c.94.026,1.882.034,2.821.085.6.032.774-.239.761-.8-.026-1.167-.007-2.335-.007-3.5,0-3.455,0-3.455-3.573-3.144-.311-.024-.628-.022-.934-.077-1.268-.226-1.61.34-1.512,1.538.1,1.248.023,2.51.023,3.766,0,2.358,0,2.358,2.42,2.134m1.609-25.2c-.661-.842-1.323-.717-2.045-.051-.824.76-1.692,1.473-2.537,2.211q-3.9,3.41-7.8,6.827c-.665.585-1.15,1.212-.073,1.881.716.433,1.072-.195,1.477-.545,2.827-2.444,5.635-4.908,8.45-7.365,1.277-1.115,1.714-1.127,3.005-.007q4.386,3.806,8.754,7.634c.531.463,1.1.7,1.625.027.482-.615.12-1.1-.352-1.508q-5.249-4.556-10.506-9.1" transform="translate(0 -105.777)" fill="#080604"/>
        <path id="Trazado_718349" data-name="Trazado 718349" d="M99.12,22.751a1.227,1.227,0,0,1,1.075,1.45c-.037.81-.013,1.623-.007,2.434.005.647-.176,1.347.72,1.651.367.125.413.562.354.942a.938.938,0,0,1-.806.8,5.637,5.637,0,0,1-1.077.043q-9.467,0-18.935,0c-.7,0-1.531.2-1.873-.677-.3-.763.229-1.129.844-1.442.336-.171.174-.573.175-.869.01-3.471-.022-6.943.027-10.414.011-.808-.258-.929-.984-.925a2.7,2.7,0,0,1-2.663-1.924,2.688,2.688,0,0,1,.665-3.11c3.808-3.381,7.632-6.745,11.5-10.054a2.743,2.743,0,0,1,3.722.158c3.72,3.208,7.411,6.451,11.1,9.693a2.838,2.838,0,0,1,.851,3.309,2.692,2.692,0,0,1-2.793,1.927c-.8-.041-.873.3-.84.925.035.674-.017,1.353.014,2.028.036.79-.243,1.31-1.071,1.438-.76-.177-.957-.712-.946-1.418.017-1.171-.018-2.344.012-3.515a1.626,1.626,0,0,0-.591-1.414Q94.01,10.7,90.476,7.557c-.4-.352-.66-.464-1.117-.048C87.4,9.3,85.4,11.045,83.411,12.807a3.411,3.411,0,0,0-1.86,3.488c.143,3.358.042,6.725.043,10.089,0,1.7,0,1.7,1.807,1.553,1.093.285,1.486-.063,1.455-1.254-.081-3.105-.045-6.215-.02-9.322.014-1.735.756-2.445,2.485-2.46,1.621-.014,3.243-.007,4.864,0,2.1.006,2.759.647,2.766,2.726.011,2.883.078,5.768-.03,8.646-.052,1.376.286,1.835,1.731,1.784,1.215-.044,1.71-.312,1.545-1.573-.1-.753,0-1.529-.023-2.294a1.267,1.267,0,0,1,.946-1.437M89.356,18.4c.889.015,1.778.01,2.666.054.577.028.893-.071.884-.775-.008-.679-.284-.832-.882-.8-.887.049-1.776.047-2.664.067-.576-.019-1.153-.017-1.726-.064-.609-.05-.74.249-.745.792s.132.83.74.778c.573-.05,1.152-.038,1.728-.053m0,9.532c.893.022,1.789,0,2.678.078.769.064.884-.305.863-.951-.038-1.162-.011-2.326-.011-3.49,0-3.416,0-3.416-3.515-3.015-.354-.033-.712-.044-1.062-.1-1.086-.181-1.52.2-1.429,1.355.1,1.292.024,2.6.024,3.9,0,2.419,0,2.419,2.453,2.229m1.6-25.163a1.231,1.231,0,0,0-2.062-.141q-.856.763-1.719,1.518-4.316,3.775-8.632,7.55c-.709.622-1.272,1.265-.027,1.924.714.343,1.068-.253,1.477-.606C82.78,10.6,85.55,8.161,88.334,5.74c1.356-1.179,1.757-1.181,3.1-.012q4.279,3.72,8.54,7.461c.547.48,1.137.886,1.745.2.551-.624.153-1.158-.368-1.609q-5.2-4.5-10.4-9.01" transform="translate(-55.239 0)" fill="#060606"/>
        <path id="Trazado_718350" data-name="Trazado 718350" d="M104.028,32.316c1.986-1.762,3.986-3.51,5.948-5.3.456-.416.72-.3,1.117.048q3.54,3.138,7.121,6.229a1.627,1.627,0,0,1,.591,1.413c-.03,1.171,0,2.343-.012,3.515-.011.706.187,1.241.946,1.418q0,1.309,0,2.619a1.267,1.267,0,0,0-.946,1.437c.025.765-.076,1.542.023,2.294.165,1.261-.329,1.529-1.545,1.573-1.444.052-1.783-.408-1.731-1.783.108-2.878.041-5.764.03-8.646-.008-2.08-.667-2.72-2.766-2.726-1.621,0-3.243-.012-4.864,0-1.729.015-2.47.725-2.485,2.46-.025,3.107-.061,6.217.02,9.322.031,1.191-.362,1.539-1.455,1.254q0-7.565.01-15.13" transform="translate(-75.857 -19.508)" fill="#8dd3f4"/>
        <path id="Trazado_718351" data-name="Trazado 718351" d="M28.947,177.194c1.943-1.729,3.89-3.453,5.824-5.192.37-.332.622-.324,1.006.018q3.625,3.224,7.3,6.391a1.37,1.37,0,0,1,.477,1.181c-.019,1.213.016,2.427-.014,3.639-.019.788.229,1.312,1.079,1.4q0,1.315-.009,2.63a1.231,1.231,0,0,0-1.071,1.455c.04.718-.078,1.453.026,2.159.2,1.379-.311,1.727-1.676,1.718-1.295-.009-1.659-.318-1.611-1.63.11-2.969.042-5.944.032-8.916-.006-1.912-.713-2.628-2.581-2.638-1.576-.008-3.153,0-4.729,0-2.148,0-2.762.63-2.766,2.836-.005,3.063-.037,6.126.018,9.187.019,1.037-.362,1.3-1.28,1.024q-.013-7.631-.027-15.263" transform="translate(-21.11 -125.257)" fill="#f8da7a"/>
        <path id="Trazado_718352" data-name="Trazado 718352" d="M105.3,120.231c-.947,3.263.724,5.106,3.4,6.526a38.089,38.089,0,0,1,3.554,2.45c.613.422,1.1.941.606,1.669s-1.153.463-1.759.036c-1.948-1.375-3.926-2.712-5.842-4.13a1.371,1.371,0,0,0-1.968-.039c-1.86,1.416-3.817,2.706-5.728,4.056-.615.435-1.3.911-1.88.12-.627-.863.082-1.363.748-1.824,2-1.384,3.964-2.812,5.979-4.17a1.581,1.581,0,0,0,.818-1.525c-.051-2.116-.013-4.235-.021-6.353,0-.807.028-1.678,1.083-1.659.95.017,1.021.83,1.011,1.6-.014,1.081,0,2.163,0,3.244" transform="translate(-69.6 -84.149)" fill="#0a0b0b"/>
        <path id="Trazado_718353" data-name="Trazado 718353" d="M179.985,177.3c1.952-1.731,3.916-3.448,5.847-5.2.406-.369.667-.451,1.108-.06q3.643,3.225,7.329,6.4a1.4,1.4,0,0,1,.4,1.219c0,3.966-.03,7.932.02,11.9.011.885-.314,1.111-1.092,1.009a2.346,2.346,0,0,0-.675,0c-1.157.189-1.56-.2-1.513-1.447.105-2.835.034-5.678.033-8.517,0-2.681-.485-3.175-3.107-3.176-1.442,0-2.884,0-4.327,0-1.954.008-2.643.709-2.647,2.709-.007,3.064-.051,6.13.023,9.193.028,1.145-.354,1.457-1.391,1.149q0-7.589-.005-15.179" transform="translate(-131.257 -125.273)" fill="#dff1f9"/>
        <path id="Trazado_718354" data-name="Trazado 718354" d="M174.114,154.952q5.259,4.557,10.519,9.112c.547.472.847,1.034.323,1.626-.554.625-1.128.261-1.643-.19q-4.22-3.7-8.447-7.388c-1.512-1.326-1.838-1.346-3.316-.061-2.721,2.365-5.423,4.753-8.156,7.1-.439.378-.795,1.052-1.579.759a1.742,1.742,0,0,1,.763-1.219c2.986-2.627,5.934-5.3,9-7.833.8-.663,1.383-1.691,2.534-1.91" transform="translate(-118.006 -113.001)" fill="#d45f69"/>
        <path id="Trazado_718355" data-name="Trazado 718355" d="M174.8,192.167q0,7.59.005,15.179c-1.873.195-1.873.195-1.873-1.588,0-3.329.12-6.665-.05-9.986a3.5,3.5,0,0,1,1.917-3.6" transform="translate(-126.07 -140.141)" fill="#c9e4ef"/>
        <path id="Trazado_718356" data-name="Trazado 718356" d="M201.932,220.668c3.5-.3,3.5-.3,3.5,3.079v1.213c0,3.4,0,3.4-3.5,3.075q0-3.683,0-7.366" transform="translate(-147.261 -160.838)" fill="#fca85a"/>
        <path id="Trazado_718357" data-name="Trazado 718357" d="M172.029,153.45c-1.151.219-1.73,1.248-2.534,1.91-3.068,2.53-6.015,5.205-9,7.833a1.742,1.742,0,0,0-.763,1.219c-1.276-.625-.748-1.3-.029-1.935q4.366-3.837,8.753-7.649c.543-.474,1.088-.946,1.622-1.431.673-.611,1.323-.752,1.953.053" transform="translate(-115.921 -111.499)" fill="#d24851"/>
        <path id="Trazado_718358" data-name="Trazado 718358" d="M195.1,220.635q0,3.683,0,7.366c-2.491.224-2.491.224-2.491-2.2,0-1.211.089-2.43-.024-3.63-.12-1.273.248-1.856,1.584-1.608a8.686,8.686,0,0,0,.934.075" transform="translate(-140.426 -160.806)" fill="#fc9637"/>
        <path id="Trazado_718359" data-name="Trazado 718359" d="M195.576,208.892c-.671,0-1.343,0-2.014,0-.451,0-.9.071-.882-.64.013-.581.107-.923.8-.907q2.214.05,4.43-.012c.7-.02.781.321.8.9.022.694-.38.676-.854.669-.761-.011-1.522,0-2.283,0v-.008" transform="translate(-140.515 -151.201)" fill="#fca85a"/>
        <path id="Trazado_718360" data-name="Trazado 718360" d="M22.446,155.11q5.254,4.55,10.506,9.1c.473.41.835.893.352,1.508-.528.673-1.094.436-1.625-.027q-4.378-3.816-8.754-7.634c-1.291-1.12-1.728-1.108-3.005.007-2.815,2.457-5.624,4.922-8.45,7.365-.406.35-.761.978-1.477.545a2.753,2.753,0,0,1,.3-.445c2.881-2.94,6.132-5.468,9.185-8.218.907-.817,1.668-1.9,2.974-2.2" transform="translate(-7.287 -113.116)" fill="#d45f69"/>
        <path id="Trazado_718361" data-name="Trazado 718361" d="M23.572,191.838q.013,7.631.027,15.263c-1.963.181-1.963.181-1.963-1.775,0-3.268.125-6.543-.05-9.8a3.614,3.614,0,0,1,1.986-3.687" transform="translate(-15.735 -139.901)" fill="#fbce63"/>
        <path id="Trazado_718362" data-name="Trazado 718362" d="M50.053,220.658c3.573-.31,3.573-.31,3.573,3.144,0,1.167-.019,2.336.007,3.5.012.56-.16.832-.762.8-.939-.051-1.88-.059-2.82-.085q0-3.68,0-7.361" transform="translate(-36.5 -160.826)" fill="#fca85a"/>
        <path id="Trazado_718363" data-name="Trazado 718363" d="M20.742,153.517c-1.306.3-2.067,1.388-2.974,2.2-3.053,2.75-6.3,5.278-9.185,8.218a2.751,2.751,0,0,0-.3.445c-1.077-.669-.592-1.3.073-1.881q3.891-3.423,7.8-6.827c.845-.738,1.712-1.451,2.537-2.211.722-.666,1.383-.791,2.045.051" transform="translate(-5.583 -111.524)" fill="#d24851"/>
        <path id="Trazado_718364" data-name="Trazado 718364" d="M43.431,220.659q0,3.681,0,7.361c-2.42.224-2.42.224-2.42-2.134,0-1.256.079-2.518-.023-3.766-.1-1.2.244-1.765,1.512-1.538.306.055.622.053.934.077" transform="translate(-29.878 -160.827)" fill="#fc9637"/>
        <path id="Trazado_718365" data-name="Trazado 718365" d="M50.081,207.491c.935-.031,1.871-.045,2.805-.1.6-.033.759.234.772.8.013.59-.2.784-.771.755-.936-.048-1.876-.041-2.814-.057q0-.7.009-1.4" transform="translate(-36.516 -151.243)" fill="#fbb77b"/>
        <path id="Trazado_718366" data-name="Trazado 718366" d="M43.514,207.493q0,.7-.009,1.4c-.582.015-1.165.013-1.745.051-.525.035-.706-.175-.692-.7.013-.508.054-.9.709-.844.577.047,1.158.064,1.737.094" transform="translate(-29.949 -151.245)" fill="#fca85a"/>
        <path id="Trazado_718367" data-name="Trazado 718367" d="M98.4,10.224q5.2,4.505,10.4,9.01c.521.451.919.985.368,1.609-.607.688-1.2.282-1.745-.2q-4.264-3.737-8.54-7.461c-1.346-1.17-1.747-1.167-3.1.012C93,15.617,90.23,18.055,87.44,20.469c-.409.354-.763.949-1.477.606a3.852,3.852,0,0,1,1.109-1.5c2.617-2.252,5.168-4.584,7.857-6.746,1.121-.9,1.889-2.316,3.475-2.6" transform="translate(-62.69 -7.456)" fill="#d45f69"/>
        <path id="Trazado_718368" data-name="Trazado 718368" d="M99.03,47.306q-.005,7.565-.01,15.13c-1.806.152-1.807.152-1.807-1.553,0-3.364.1-6.732-.043-10.089a3.41,3.41,0,0,1,1.86-3.488" transform="translate(-70.858 -34.499)" fill="#6ec1e9"/>
        <path id="Trazado_718369" data-name="Trazado 718369" d="M126.017,75.432c3.515-.4,3.515-.4,3.515,3.015,0,1.164-.028,2.328.011,3.49.021.646-.094,1.015-.862.951-.889-.074-1.785-.056-2.678-.077q.007-3.69.014-7.379" transform="translate(-91.89 -54.88)" fill="#fca85a"/>
        <path id="Trazado_718370" data-name="Trazado 718370" d="M119.314,75.522q-.007,3.689-.014,7.379c-2.453.19-2.453.19-2.453-2.229,0-1.3.079-2.606-.023-3.9-.092-1.158.343-1.535,1.429-1.355.35.058.708.07,1.062.1" transform="translate(-85.186 -54.969)" fill="#fc9637"/>
        <path id="Trazado_718371" data-name="Trazado 718371" d="M96.422,8.524c-1.586.286-2.354,1.7-3.475,2.6-2.688,2.162-5.24,4.494-7.857,6.746a3.852,3.852,0,0,0-1.109,1.5c-1.245-.659-.682-1.3.027-1.924q4.312-3.78,8.632-7.55.863-.755,1.719-1.518a1.231,1.231,0,0,1,2.062.141" transform="translate(-60.709 -5.756)" fill="#d24851"/>
        <path id="Trazado_718372" data-name="Trazado 718372" d="M126.018,62.4c.888-.02,1.777-.019,2.664-.067.6-.033.874.12.882.8.009.7-.306.8-.884.775-.887-.044-1.777-.039-2.666-.054q0-.726,0-1.452" transform="translate(-91.898 -45.455)" fill="#fbb77b"/>
        <path id="Trazado_718373" data-name="Trazado 718373" d="M119.368,62.408q0,.726,0,1.452c-.576.015-1.155,0-1.728.053-.608.053-.745-.227-.74-.778s.136-.841.745-.792c.573.047,1.151.045,1.726.064" transform="translate(-85.249 -45.461)" fill="#fca85a"/>
      </g>
    </g>
  </g>
</svg>
