<svg xmlns="http://www.w3.org/2000/svg" xmlns:xlink="http://www.w3.org/1999/xlink" width="295" height="295" viewBox="0 0 295 295">
  <defs>
    <clipPath id="clip-path">
      <circle id="Elipse_5878" data-name="Elipse 5878" cx="147.5" cy="147.5" r="147.5" transform="translate(179.336 408)" fill="#fff"/>
    </clipPath>
  </defs>
  <g id="Enmascarar_grupo_87" data-name="Enmascarar grupo 87" transform="translate(-179.336 -408)" clip-path="url(#clip-path)">
    <g id="Grupo_1017050" data-name="Grupo 1017050" transform="translate(180 388.023)">
      <path id="Trazado_717244" data-name="Trazado 717244" d="M293.392,366.74H0V0H293.392V366.74" transform="translate(0.001 0.002)" fill="#005d95"/>
      <path id="Trazado_717245" data-name="Trazado 717245" d="M186.264,1983.638a8.751,8.751,0,1,0,2.81,17.033L188,1983.812A8.827,8.827,0,0,0,186.264,1983.638Z" transform="translate(-150.065 -1676.904)" fill="none"/>
      <path id="Trazado_717246" data-name="Trazado 717246" d="M326.885,186.259c-.041-.044-.072-.1-.114-.139a4.374,4.374,0,0,0-6.187,0,4.416,4.416,0,0,0-.47.57Z" transform="translate(-270.614 -156.257)" fill="none"/>
      <path id="Trazado_717247" data-name="Trazado 717247" d="M1652.072,294.525a8.751,8.751,0,1,0-6.187-14.938,8.889,8.889,0,0,0-.776.9l.727,11.417c.017.017.032.037.049.054A8.713,8.713,0,0,0,1652.072,294.525Z" transform="translate(-1390.723 -234.186)" fill="none"/>
      <path id="Trazado_717248" data-name="Trazado 717248" d="M1633.555,304.734a8.707,8.707,0,0,0,2.514,6.133l-.727-11.417A8.688,8.688,0,0,0,1633.555,304.734Z" transform="translate(-1380.955 -253.145)" fill="#9bcbac"/>
      <path id="Trazado_717249" data-name="Trazado 717249" d="M360.612,147.274a12.494,12.494,0,0,1,5.241-10.173l-1.523-23.913L170.274,125.546a6.256,6.256,0,1,1-11.218.714l-26.832,1.709L149.468,398.75a12.5,12.5,0,0,1,1.563,24.545l1.353,21.237,122.389-7.794-28.314-42.234h-74.8V387.7h-4.307V348.007c-.139-.2-.283-.4-.42-.6a51.194,51.194,0,0,1-2.724-4.581q-.815-1.086-1.582-2.225a50.628,50.628,0,0,1,4.726-62.383V152.694h54.66V142.026h21.291c-.006-.161-.025-.319-.025-.481a12.895,12.895,0,0,1,25.4-3.163,12.954,12.954,0,0,1,3.05,3.645h18.623v6.807h4.307v3.861h55.557V159.5h4.308v235H276.351L293.41,419.95c.118.291.223.577.32.859l3.987,5.948a11.956,11.956,0,0,1,.5,8.489l86.272-5.494L367.2,158.3A12.512,12.512,0,0,1,360.612,147.274ZM185.25,420.687h23.981a3.439,3.439,0,1,1,0,6.878H185.25a3.439,3.439,0,1,1,0-6.878Zm-12.66,0H176.5a3.439,3.439,0,0,1,0,6.878H172.59a3.439,3.439,0,1,1,0-6.878ZM316.14,135.521h-3.908a3.439,3.439,0,0,1,0-6.878h3.908a3.439,3.439,0,0,1,0,6.878Zm32.733,0h-23.98a3.439,3.439,0,1,1,0-6.878h23.98a3.439,3.439,0,1,1,0,6.878Z" transform="translate(-111.778 -95.685)" fill="#01d8d1"/>
      <path id="Trazado_717250" data-name="Trazado 717250" d="M245.325,1984.76l1.074,16.86a8.749,8.749,0,0,0-1.074-16.86Z" transform="translate(-207.39 -1677.853)" fill="#9bcbac"/>
      <path id="Trazado_717251" data-name="Trazado 717251" d="M314.866,196.979a4.375,4.375,0,1,0,7.583-2.955l-6.771.431A4.337,4.337,0,0,0,314.866,196.979Z" transform="translate(-266.178 -164.021)" fill="#9bcbac"/>
      <path id="Trazado_717252" data-name="Trazado 717252" d="M911.574,268.135a12.871,12.871,0,0,1,1.658-1.077A4.9,4.9,0,0,0,911.574,268.135Z" transform="translate(-770.616 -225.762)" fill="#9bcbac"/>
      <path id="Trazado_717253" data-name="Trazado 717253" d="M456.339,2108.656H480.32a3.439,3.439,0,1,0,0-6.878H456.339a3.439,3.439,0,1,0,0,6.878Z" transform="translate(-382.867 -1776.776)" fill="#fff"/>
      <path id="Trazado_717254" data-name="Trazado 717254" d="M374.468,2108.656h3.908a3.439,3.439,0,0,0,0-6.878h-3.908a3.439,3.439,0,1,0,0,6.878Z" transform="translate(-313.656 -1776.776)" fill="#fff"/>
      <path id="Trazado_717255" data-name="Trazado 717255" d="M1452.91,2212.154a3.439,3.439,0,1,0,0,6.878h23.981a3.439,3.439,0,1,0,0-6.878Z" transform="translate(-1225.337 -1870.084)" fill="#fff"/>
      <path id="Trazado_717256" data-name="Trazado 717256" d="M1371.039,2212.154a3.439,3.439,0,0,0,0,6.878h3.908a3.439,3.439,0,1,0,0-6.878Z" transform="translate(-1156.126 -1870.084)" fill="#fff"/>
      <path id="Trazado_717257" data-name="Trazado 717257" d="M1383.384,213.133H1359.4a3.439,3.439,0,1,0,0,6.878h23.98a3.439,3.439,0,1,0,0-6.878Z" transform="translate(-1146.289 -180.176)" fill="#fff"/>
      <path id="Trazado_717258" data-name="Trazado 717258" d="M1281.441,213.133h-3.908a3.439,3.439,0,0,0,0,6.878h3.908a3.439,3.439,0,0,0,0-6.878Z" transform="translate(-1077.078 -180.176)" fill="#fff"/>
      <path id="Trazado_717259" data-name="Trazado 717259" d="M353.653,1326.2c.051-.175.105-.348.159-.521C353.758,1325.855,353.7,1326.028,353.653,1326.2Z" transform="translate(-298.967 -1120.689)" fill="#5a8867"/>
      <path id="Trazado_717260" data-name="Trazado 717260" d="M344.4,1375c.012-.121.026-.242.039-.363C344.421,1374.755,344.407,1374.876,344.4,1375Z" transform="translate(-291.14 -1162.072)" fill="#5a8867"/>
      <rect id="Rectángulo_375559" data-name="Rectángulo 375559" width="4.307" height="3.861" transform="translate(178.574 53.148)" fill="#5a8867"/>
      <path id="Trazado_717261" data-name="Trazado 717261" d="M345.743,1363.168c.022-.159.044-.318.068-.477C345.787,1362.85,345.765,1363.009,345.743,1363.168Z" transform="translate(-292.28 -1151.975)" fill="#5a8867"/>
      <path id="Trazado_717262" data-name="Trazado 717262" d="M1015.06,279.759h2.667a12.953,12.953,0,0,0-3.05-3.645,12.883,12.883,0,0,1,.407,3.163C1015.085,279.44,1015.066,279.6,1015.06,279.759Z" transform="translate(-857.776 -233.418)" fill="#5a8867"/>
      <path id="Trazado_717263" data-name="Trazado 717263" d="M902.179,270.233h9.762c.015-.159.024-.319.024-.481a4.9,4.9,0,0,0-6.7-4.564,12.875,12.875,0,0,0-1.658,1.076,4.891,4.891,0,0,0-1.457,3.487C902.155,269.914,902.164,270.075,902.179,270.233Z" transform="translate(-762.653 -223.892)" fill="#5a8867"/>
      <path id="Trazado_717264" data-name="Trazado 717264" d="M513.328,1927.5l-3.987-5.947c3.189,9.324-5.031,14.216-5.031,14.216a19.331,19.331,0,0,1-2.49,1.423l-.029.014c-.263.124-.522.237-.777.342l-.053.022c-.25.1-.5.192-.739.275l-.063.022c-.242.081-.479.153-.713.217l-.059.016q-.353.094-.695.165l-.049.01q-.346.07-.681.117l-.032,0q-.343.047-.674.071h-.006a9.7,9.7,0,0,1-6.957-2.264l0,0c-.1-.083-.2-.164-.286-.245l-.014-.012c-.087-.078-.171-.154-.25-.229l-.024-.023c-.076-.073-.148-.143-.217-.212l-.026-.026c-.066-.067-.129-.132-.188-.2l-.029-.031c-.055-.06-.108-.118-.157-.173l-.031-.036c-.046-.052-.089-.1-.128-.149l-.027-.032c-.038-.045-.073-.088-.1-.127l-.022-.028-.079-.1-.021-.028-.053-.07-.014-.02-.044-.062-30.811-45.958h-70.49v6.806h74.8l28.314,42.234,2.5,3.725.044.063.014.019.053.07.02.027.077.1.026.033.1.121.034.039.123.145.034.039.155.17.032.035.183.189.031.033.212.207.029.028c.078.074.159.148.245.225l.021.017q.134.119.28.24l.01.008a10,10,0,0,0,3.738,1.957,9.592,9.592,0,0,0,3.213.3h.009q.33-.025.672-.07l.034-.005q.334-.046.679-.116l.051-.011c.227-.047.458-.1.692-.164l.062-.017q.351-.1.71-.216l.067-.023q.362-.123.735-.273l.06-.026c.253-.1.509-.215.769-.338l.039-.019q.4-.191.817-.415l-.006-.009a19.359,19.359,0,0,0,1.671-1,13.216,13.216,0,0,0,5.214-6.586A11.956,11.956,0,0,0,513.328,1927.5Z" transform="translate(-327.39 -1596.43)" fill="#064972"/>
      <path id="Trazado_717265" data-name="Trazado 717265" d="M348.027,1350.732c-.016.081-.034.162-.049.243.006-.03.01-.06.016-.09C348,1350.834,348.017,1350.784,348.027,1350.732Z" transform="translate(-294.169 -1141.866)" fill="#5a8867"/>
      <path id="Trazado_717266" data-name="Trazado 717266" d="M350.583,1337.592c.043-.175.091-.348.136-.522C350.674,1337.244,350.626,1337.417,350.583,1337.592Z" transform="translate(-296.372 -1130.316)" fill="#5a8867"/>
      <path id="Trazado_717267" data-name="Trazado 717267" d="M357.317,1315.111c.051-.15.1-.3.156-.448C357.42,1314.812,357.369,1314.962,357.317,1315.111Z" transform="translate(-302.064 -1111.374)" fill="#5a8867"/>
      <path id="Trazado_717268" data-name="Trazado 717268" d="M1034.781,640.887l4.563,6.806h78.173v-235h-4.308v228.2Z" transform="translate(-874.771 -348.873)" fill="#064972"/>
      <path id="Trazado_717269" data-name="Trazado 717269" d="M357.338,1485.757c-.078-.214-.155-.428-.228-.643C357.184,1485.329,357.261,1485.543,357.338,1485.757Z" transform="translate(-301.889 -1255.468)" fill="#5a8867"/>
      <path id="Trazado_717270" data-name="Trazado 717270" d="M353.421,1473.476c-.053-.173-.1-.347-.153-.521C353.318,1473.129,353.368,1473.3,353.421,1473.476Z" transform="translate(-298.641 -1245.189)" fill="#5a8867"/>
      <path id="Trazado_717271" data-name="Trazado 717271" d="M343.2,1400.45c0-.075,0-.15,0-.225C343.2,1400.3,343.2,1400.375,343.2,1400.45Z" transform="translate(-290.129 -1183.706)" fill="#5a8867"/>
      <path id="Trazado_717272" data-name="Trazado 717272" d="M350.257,1461.541q-.067-.266-.131-.534Q350.189,1461.274,350.257,1461.541Z" transform="translate(-295.985 -1235.089)" fill="#5a8867"/>
      <path id="Trazado_717273" data-name="Trazado 717273" d="M339.089,1598.242a51.206,51.206,0,0,0,2.724,4.581c.137.2.281.4.42.6v-1.387Q340.585,1600.234,339.089,1598.242Z" transform="translate(-286.655 -1351.103)" fill="#5a8867"/>
      <path id="Trazado_717274" data-name="Trazado 717274" d="M345.657,1437.253c-.015-.1-.028-.2-.042-.3C345.629,1437.053,345.642,1437.153,345.657,1437.253Z" transform="translate(-292.172 -1214.754)" fill="#5a8867"/>
      <path id="Trazado_717275" data-name="Trazado 717275" d="M343.436,1413.274a.059.059,0,0,1,0-.007A.059.059,0,0,0,343.436,1413.274Z" transform="translate(-290.33 -1194.731)" fill="#5a8867"/>
      <path id="Trazado_717276" data-name="Trazado 717276" d="M344.288,1425.585c0-.045-.01-.09-.014-.135C344.278,1425.495,344.283,1425.54,344.288,1425.585Z" transform="translate(-291.038 -1205.03)" fill="#5a8867"/>
      <path id="Trazado_717277" data-name="Trazado 717277" d="M347.82,1450.413c-.01-.052-.022-.1-.033-.156C347.8,1450.309,347.81,1450.361,347.82,1450.413Z" transform="translate(-294.008 -1226.001)" fill="#5a8867"/>
      <path id="Trazado_717278" data-name="Trazado 717278" d="M1090.81,598.986h-76.369l3.145,4.691h78.428v-235h-5.2Z" transform="translate(-857.576 -311.664)" fill="#003453"/>
      <path id="Trazado_717279" data-name="Trazado 717279" d="M431.075,1858.1H359.424v4.691h74.8Z" transform="translate(-303.845 -1570.781)" fill="#003453"/>
      <path id="Trazado_717280" data-name="Trazado 717280" d="M368.553,486.349a51.051,51.051,0,0,1,5.329-3.108V385.029H403.64V372.068h10.443v-3.4h-54.66V494.194A50.712,50.712,0,0,1,368.553,486.349Z" transform="translate(-303.845 -311.663)" fill="#005d95"/>
      <path id="Trazado_717281" data-name="Trazado 717281" d="M372.346,1280.771c.055-.107.114-.212.17-.318C372.46,1280.558,372.4,1280.664,372.346,1280.771Z" transform="translate(-314.769 -1082.453)" fill="#624153"/>
      <path id="Trazado_717282" data-name="Trazado 717282" d="M361.82,1304.2c.03-.075.059-.152.09-.227C361.879,1304.05,361.85,1304.126,361.82,1304.2Z" transform="translate(-305.871 -1102.339)" fill="#624153"/>
      <path id="Trazado_717283" data-name="Trazado 717283" d="M377.872,1270.055c.086-.148.172-.3.26-.444Q378,1269.833,377.872,1270.055Z" transform="translate(-319.441 -1073.289)" fill="#624153"/>
      <path id="Trazado_717284" data-name="Trazado 717284" d="M438.579,1601.681c-.193-.151-.388-.3-.578-.457C438.192,1601.38,438.385,1601.53,438.579,1601.681Z" transform="translate(-370.272 -1353.624)" fill="#624153"/>
      <path id="Trazado_717285" data-name="Trazado 717285" d="M447.779,1608.788q-.286-.2-.567-.414Q447.494,1608.583,447.779,1608.788Z" transform="translate(-378.059 -1359.668)" fill="#624153"/>
      <path id="Trazado_717286" data-name="Trazado 717286" d="M424.518,1210.6c.21-.2.424-.391.639-.584Q424.833,1210.3,424.518,1210.6Z" transform="translate(-358.874 -1022.907)" fill="#624153"/>
      <path id="Trazado_717287" data-name="Trazado 717287" d="M391.933,1247.668c.138-.191.282-.376.423-.564C392.215,1247.292,392.07,1247.478,391.933,1247.668Z" transform="translate(-331.328 -1054.262)" fill="#624153"/>
      <path id="Trazado_717288" data-name="Trazado 717288" d="M433.564,1203.123c.187-.159.372-.321.561-.476C433.935,1202.8,433.751,1202.964,433.564,1203.123Z" transform="translate(-366.521 -1016.679)" fill="#624153"/>
      <path id="Trazado_717289" data-name="Trazado 717289" d="M445.756,1194.162c.145-.109.293-.213.44-.32C446.049,1193.949,445.9,1194.054,445.756,1194.162Z" transform="translate(-376.828 -1009.236)" fill="#624153"/>
      <path id="Trazado_717290" data-name="Trazado 717290" d="M405.745,1229.629c.2-.228.393-.457.6-.68C406.138,1229.173,405.942,1229.4,405.745,1229.629Z" transform="translate(-343.004 -1038.914)" fill="#624153"/>
      <path id="Trazado_717291" data-name="Trazado 717291" d="M398.626,1238.259q.269-.34.545-.673Q398.9,1237.92,398.626,1238.259Z" transform="translate(-336.986 -1046.216)" fill="#624153"/>
      <path id="Trazado_717292" data-name="Trazado 717292" d="M1003.9,372.068h10.444v12.961H1044.1v4.992h4.461V590.188H976.3l5.9,8.8h76.369V368.672H1003.9Z" transform="translate(-825.33 -311.664)" fill="#005d95"/>
      <path id="Trazado_717293" data-name="Trazado 717293" d="M367.337,1510.428c-.09-.186-.183-.369-.27-.556C367.154,1510.058,367.247,1510.243,367.337,1510.428Z" transform="translate(-310.307 -1276.398)" fill="#624153"/>
      <path id="Trazado_717294" data-name="Trazado 717294" d="M361.277,1496.309c-.1-.231-.185-.465-.276-.7C361.092,1495.844,361.181,1496.078,361.277,1496.309Z" transform="translate(-305.179 -1264.342)" fill="#624153"/>
      <path id="Trazado_717295" data-name="Trazado 717295" d="M378.938,1532.383c-.071-.118-.137-.238-.207-.356C378.8,1532.146,378.867,1532.265,378.938,1532.383Z" transform="translate(-320.167 -1295.127)" fill="#624153"/>
      <path id="Trazado_717296" data-name="Trazado 717296" d="M372.637,1521.067q-.155-.286-.306-.574Q372.481,1520.781,372.637,1521.067Z" transform="translate(-314.757 -1285.376)" fill="#624153"/>
      <path id="Trazado_717297" data-name="Trazado 717297" d="M415.187,1217.814q-.481.471-.944.955Q414.707,1218.283,415.187,1217.814Z" transform="translate(-350.188 -1029.501)" fill="#624153"/>
      <path id="Trazado_717298" data-name="Trazado 717298" d="M431.074,1659.173l-5.9-8.8H378.344v-4.992h-4.462v-11.646a50.259,50.259,0,0,1-14.459-10.952v36.388Z" transform="translate(-303.845 -1371.851)" fill="#005d95"/>
      <path id="Trazado_717299" data-name="Trazado 717299" d="M410.613,1575.273c-.172-.182-.345-.364-.513-.55C410.269,1574.91,410.441,1575.091,410.613,1575.273Z" transform="translate(-346.685 -1331.221)" fill="#624153"/>
      <path id="Trazado_717300" data-name="Trazado 717300" d="M418.538,1583.561c-.2-.191-.39-.384-.583-.579C418.148,1583.177,418.341,1583.371,418.538,1583.561Z" transform="translate(-353.326 -1338.203)" fill="#624153"/>
      <path id="Trazado_717301" data-name="Trazado 717301" d="M386.5,1544.466c.053.079.11.153.163.231-.074-.109-.151-.216-.224-.326C386.463,1544.4,386.481,1544.435,386.5,1544.466Z" transform="translate(-326.686 -1305.562)" fill="#624153"/>
      <path id="Trazado_717302" data-name="Trazado 717302" d="M680.639,433.406h78.316V425.9h-4.99v3.8H685.63v-3.8h-4.99Z" transform="translate(-575.391 -360.04)" fill="#005d95"/>
      <path id="Trazado_717303" data-name="Trazado 717303" d="M427.239,1591.881c-.225-.2-.446-.4-.666-.6C426.794,1591.479,427.014,1591.683,427.239,1591.881Z" transform="translate(-360.611 -1345.214)" fill="#624153"/>
      <path id="Trazado_717304" data-name="Trazado 717304" d="M401.572,1564.808c-.084-.1-.163-.205-.246-.307C401.409,1564.6,401.489,1564.707,401.572,1564.808Z" transform="translate(-339.268 -1322.579)" fill="#624153"/>
      <path id="Trazado_717305" data-name="Trazado 717305" d="M393.688,1554.655c-.111-.147-.22-.3-.329-.443C393.468,1554.36,393.578,1554.509,393.688,1554.655Z" transform="translate(-332.533 -1313.881)" fill="#624153"/>
      <path id="Trazado_717306" data-name="Trazado 717306" d="M384.081,1260.063c.088-.137.173-.276.263-.412C384.254,1259.787,384.169,1259.926,384.081,1260.063Z" transform="translate(-324.69 -1064.869)" fill="#624153"/>
      <path id="Trazado_717307" data-name="Trazado 717307" d="M954.653,701.912,958,706.9h72.269V506.738h-4.461V701.912Z" transform="translate(-807.033 -428.38)" fill="#003453"/>
      <path id="Trazado_717308" data-name="Trazado 717308" d="M481.785,1768.924v4.992h46.832l-3.347-4.992Z" transform="translate(-407.285 -1495.392)" fill="#003453"/>
      <rect id="Rectángulo_375560" data-name="Rectángulo 375560" width="78.316" height="6.763" transform="translate(105.249 73.366)" fill="#e9eae9"/>
      <path id="Trazado_717309" data-name="Trazado 717309" d="M456.812,1615.128c-.3-.193-.6-.391-.891-.592C456.216,1614.737,456.512,1614.936,456.812,1615.128Z" transform="translate(-385.421 -1364.878)" fill="#e9eae9"/>
      <path id="Trazado_717310" data-name="Trazado 717310" d="M467.911,1622.206q-.416-.239-.824-.488C467.36,1621.884,467.634,1622.047,467.911,1622.206Z" transform="translate(-394.86 -1370.949)" fill="#e9eae9"/>
      <path id="Trazado_717311" data-name="Trazado 717311" d="M478.469,1628.235q.387.208.777.408Q478.855,1628.443,478.469,1628.235Z" transform="translate(-404.482 -1376.458)" fill="#e9eae9"/>
      <path id="Trazado_717312" data-name="Trazado 717312" d="M455.842,1186.821c-.093.063-.181.13-.273.193.171-.116.342-.233.515-.347C456,1186.72,455.922,1186.767,455.842,1186.821Z" transform="translate(-385.123 -1003.17)" fill="#e9eae9"/>
      <path id="Trazado_717313" data-name="Trazado 717313" d="M466.669,1180.508c.122-.074.241-.152.363-.225C466.91,1180.356,466.79,1180.434,466.669,1180.508Z" transform="translate(-394.507 -997.774)" fill="#e9eae9"/>
      <path id="Trazado_717314" data-name="Trazado 717314" d="M502.533,1639.628c-.27-.105-.54-.211-.807-.321C501.993,1639.418,502.263,1639.523,502.533,1639.628Z" transform="translate(-424.143 -1385.818)" fill="#e9eae9"/>
      <path id="Trazado_717315" data-name="Trazado 717315" d="M514.533,1644.223c-.307-.1-.613-.2-.916-.31C513.921,1644.022,514.227,1644.122,514.533,1644.223Z" transform="translate(-434.195 -1389.712)" fill="#e9eae9"/>
      <path id="Trazado_717316" data-name="Trazado 717316" d="M490.791,1634.447c-.257-.115-.513-.232-.766-.353C490.279,1634.215,490.534,1634.331,490.791,1634.447Z" transform="translate(-414.251 -1381.411)" fill="#e9eae9"/>
      <path id="Trazado_717317" data-name="Trazado 717317" d="M606.313,1658.744c-.5.027-1.006.039-1.512.047C605.3,1658.783,605.808,1658.771,606.313,1658.744Z" transform="translate(-511.279 -1402.249)" fill="#e9eae9"/>
      <path id="Trazado_717318" data-name="Trazado 717318" d="M735.957,1614.681c.072-.048.139-.1.211-.149q-.841.571-1.71,1.1C734.961,1615.326,735.462,1615.012,735.957,1614.681Z" transform="translate(-620.886 -1364.874)" fill="#e9eae9"/>
      <path id="Trazado_717319" data-name="Trazado 717319" d="M599.179,1659.118c-.058,0-.117,0-.175,0C599.063,1659.115,599.121,1659.118,599.179,1659.118Z" transform="translate(-506.379 -1402.562)" fill="#e9eae9"/>
      <path id="Trazado_717320" data-name="Trazado 717320" d="M709.217,1630.192q-.907.471-1.839.9Q708.3,1630.666,709.217,1630.192Z" transform="translate(-597.995 -1378.112)" fill="#e9eae9"/>
      <path id="Trazado_717321" data-name="Trazado 717321" d="M722.484,1622.271q-.988.595-2.01,1.132Q721.489,1622.868,722.484,1622.271Z" transform="translate(-609.066 -1371.416)" fill="#e9eae9"/>
      <path id="Trazado_717322" data-name="Trazado 717322" d="M695.523,1637.172q-.829.367-1.676.7Q694.691,1637.542,695.523,1637.172Z" transform="translate(-586.556 -1384.013)" fill="#e9eae9"/>
      <path id="Trazado_717323" data-name="Trazado 717323" d="M585.725,1658.654c-.127-.007-.255-.02-.382-.028C585.47,1658.634,585.6,1658.647,585.725,1658.654Z" transform="translate(-494.83 -1402.15)" fill="#e9eae9"/>
      <path id="Trazado_717324" data-name="Trazado 717324" d="M650.744,1651.582q-1.092.272-2.2.48Q649.645,1651.854,650.744,1651.582Z" transform="translate(-548.254 -1396.195)" fill="#e9eae9"/>
      <path id="Trazado_717325" data-name="Trazado 717325" d="M570.863,1657.313c-.284-.028-.569-.07-.854-.1C570.294,1657.243,570.577,1657.285,570.863,1657.313Z" transform="translate(-481.867 -1400.952)" fill="#e9eae9"/>
      <path id="Trazado_717326" data-name="Trazado 717326" d="M526.884,1648.255c-.389-.105-.779-.21-1.162-.327C526.107,1648.045,526.5,1648.149,526.884,1648.255Z" transform="translate(-444.428 -1393.106)" fill="#e9eae9"/>
      <path id="Trazado_717327" data-name="Trazado 717327" d="M621.744,1657.528q-.678.075-1.361.126Q621.064,1657.6,621.744,1657.528Z" transform="translate(-524.452 -1401.221)" fill="#e9eae9"/>
      <path id="Trazado_717328" data-name="Trazado 717328" d="M773.223,1586.172q-.633.614-1.292,1.2Q772.593,1586.785,773.223,1586.172Z" transform="translate(-652.566 -1340.899)" fill="#e9eae9"/>
      <path id="Trazado_717329" data-name="Trazado 717329" d="M785.468,1562.18a39.752,39.752,0,0,1-3.047,3.391A39.475,39.475,0,0,0,785.468,1562.18Z" transform="translate(-661.434 -1320.617)" fill="#e9eae9"/>
      <path id="Trazado_717330" data-name="Trazado 717330" d="M636.244,1655.274c-.534.093-1.07.178-1.609.249C635.172,1655.452,635.708,1655.367,636.244,1655.274Z" transform="translate(-536.5 -1399.316)" fill="#e9eae9"/>
      <path id="Trazado_717331" data-name="Trazado 717331" d="M479.3,1172.633c-.218.113-.437.224-.654.34C478.866,1172.857,479.085,1172.746,479.3,1172.633Z" transform="translate(-404.635 -991.307)" fill="#e9eae9"/>
      <path id="Trazado_717332" data-name="Trazado 717332" d="M804.313,1550.875q-.559.785-1.153,1.539Q803.756,1551.657,804.313,1550.875Z" transform="translate(-678.966 -1311.06)" fill="#e9eae9"/>
      <path id="Trazado_717333" data-name="Trazado 717333" d="M853.4,1440.645q.2-.988.339-1.986c-.1.658-.207,1.316-.337,1.976Z" transform="translate(-721.437 -1216.196)" fill="#e9eae9"/>
      <path id="Trazado_717334" data-name="Trazado 717334" d="M762.117,1596.589q-.609.524-1.239,1.022Q761.509,1597.11,762.117,1596.589Z" transform="translate(-643.222 -1349.705)" fill="#e9eae9"/>
      <path id="Trazado_717335" data-name="Trazado 717335" d="M538.112,1651.37q1.925.482,3.89.774-.955-.141-1.914-.329C539.421,1651.683,538.763,1651.533,538.112,1651.37Z" transform="translate(-454.903 -1396.015)" fill="#e9eae9"/>
      <path id="Trazado_717336" data-name="Trazado 717336" d="M750.331,1605.977c-.42.322-.849.631-1.282.936C749.484,1606.607,749.913,1606.3,750.331,1605.977Z" transform="translate(-633.222 -1357.642)" fill="#e9eae9"/>
      <path id="Trazado_717337" data-name="Trazado 717337" d="M828.389,1520.22q-.088.169-.176.337Q828.3,1520.389,828.389,1520.22Z" transform="translate(-700.145 -1285.145)" fill="#e9eae9"/>
      <path id="Trazado_717338" data-name="Trazado 717338" d="M500.8,1705.135l2.577-1.728-6.03-8.994.931-.624a50.622,50.622,0,0,1-45.343-.178v11.646h47.947Z" transform="translate(-382.894 -1431.725)" fill="#e9eae9"/>
      <path id="Trazado_717339" data-name="Trazado 717339" d="M681.426,1642.866q-.843.315-1.7.592Q680.579,1643.182,681.426,1642.866Z" transform="translate(-574.616 -1388.827)" fill="#e9eae9"/>
      <path id="Trazado_717340" data-name="Trazado 717340" d="M516.146,664.208l5.1-3.417,9.271,13.829h71.155V474.453H571.912v12.216H482.69V474.453H452.932v98.212a50.606,50.606,0,0,1,64.034,15.741h60.58v3.718H519.394a50.68,50.68,0,0,1,3.317,6.691h38.757v3.718H524.042a50.21,50.21,0,0,1,1.354,5.2h9.514v3.718H526a50.6,50.6,0,0,1,.4,6.2h51.141v3.718H526.269a50.873,50.873,0,0,1-.92,6.691h36.12v3.717H524.432a50.813,50.813,0,0,1-1.792,5.2h12.269V640.7H520.933a50.261,50.261,0,0,1-11.749,15.139l.932-.625Zm57.331-97-2.4,1.549a1.847,1.847,0,0,1-2.847-1.335H483.849a1.859,1.859,0,0,1-1.859-1.859V514.493a1.849,1.849,0,0,1-1.369-2.928l1.716-2.4a1.859,1.859,0,0,1,3.074.073l1.55,2.4a1.858,1.858,0,0,1-1.253,2.841V563.7h4.666v-9.839a1.859,1.859,0,0,1,1.859-1.859h11.382a1.859,1.859,0,0,1,1.859,1.859V563.7h3.239V542.2a1.859,1.859,0,0,1,1.859-1.859h11.38a1.859,1.859,0,0,1,1.859,1.859V563.7h3.754V528.454a1.859,1.859,0,0,1,1.859-1.859H540.8a1.859,1.859,0,0,1,1.859,1.859V563.7h4.761V512.646a1.859,1.859,0,0,1,1.859-1.859h11.38a1.859,1.859,0,0,1,1.859,1.859V563.7h5.709a1.834,1.834,0,0,1,.325-.856,1.859,1.859,0,0,1,2.593-.431l2.4,1.717a1.859,1.859,0,0,1-.074,3.074Zm4.069,44.248H542.23v-3.717h35.315Zm0-8.922h-7.752v-3.718h7.752Zm-7.752,25.527h7.752v3.718h-7.752Z" transform="translate(-382.894 -401.087)" fill="#e9eae9"/>
      <path id="Trazado_717341" data-name="Trazado 717341" d="M856.394,1425.978c-.036.373-.085.747-.131,1.12C856.309,1426.725,856.358,1426.353,856.394,1425.978Z" transform="translate(-723.857 -1205.476)" fill="#e9eae9"/>
      <path id="Trazado_717342" data-name="Trazado 717342" d="M834,1509.832c-.028.06-.057.119-.085.179C833.939,1509.951,833.968,1509.892,834,1509.832Z" transform="translate(-704.962 -1276.364)" fill="#e9eae9"/>
      <path id="Trazado_717343" data-name="Trazado 717343" d="M847.106,1473.972c-.046.157-.093.313-.141.469Q847.037,1474.207,847.106,1473.972Z" transform="translate(-715.997 -1246.049)" fill="#e9eae9"/>
      <path id="Trazado_717344" data-name="Trazado 717344" d="M850.266,1462.633c-.038.156-.081.311-.12.466C850.186,1462.944,850.229,1462.789,850.266,1462.633Z" transform="translate(-718.686 -1236.463)" fill="#e9eae9"/>
      <path id="Trazado_717345" data-name="Trazado 717345" d="M843.508,1485.785c-.037.107-.073.216-.111.323C843.435,1486,843.47,1485.892,843.508,1485.785Z" transform="translate(-712.981 -1256.035)" fill="#e9eae9"/>
      <path id="Trazado_717346" data-name="Trazado 717346" d="M642.593,1147.68a40.126,40.126,0,0,0-4.319-.892q.952.141,1.907.328C641,1147.277,641.8,1147.472,642.593,1147.68Z" transform="translate(-539.576 -969.458)" fill="#e9eae9"/>
      <path id="Trazado_717347" data-name="Trazado 717347" d="M735.55,1182.147q.8.489,1.566,1.012Q736.343,1182.633,735.55,1182.147Z" transform="translate(-621.81 -999.349)" fill="#e9eae9"/>
      <path id="Trazado_717348" data-name="Trazado 717348" d="M686.133,1158.6c.725.254,1.436.533,2.139.825C687.565,1159.126,686.854,1158.848,686.133,1158.6Z" transform="translate(-580.035 -979.439)" fill="#e9eae9"/>
      <path id="Trazado_717349" data-name="Trazado 717349" d="M823.96,1273.245c.261.453.519.908.762,1.371C824.48,1274.155,824.222,1273.7,823.96,1273.245Z" transform="translate(-696.549 -1076.361)" fill="#e9eae9"/>
      <path id="Trazado_717350" data-name="Trazado 717350" d="M761.6,1200.391q.973.78,1.891,1.619C762.877,1201.449,762.248,1200.907,761.6,1200.391Z" transform="translate(-643.834 -1014.772)" fill="#e9eae9"/>
      <path id="Trazado_717351" data-name="Trazado 717351" d="M815.631,1259.695c.344.521.68,1.047,1,1.584C816.312,1260.745,815.977,1260.218,815.631,1259.695Z" transform="translate(-689.508 -1064.906)" fill="#e9eae9"/>
      <path id="Trazado_717352" data-name="Trazado 717352" d="M705.065,1166.152q.756.334,1.492.7Q705.818,1166.486,705.065,1166.152Z" transform="translate(-596.039 -985.828)" fill="#e9eae9"/>
      <path id="Trazado_717353" data-name="Trazado 717353" d="M719.29,1172.921q1.019.528,2,1.108Q720.305,1173.445,719.29,1172.921Z" transform="translate(-608.065 -991.55)" fill="#e9eae9"/>
      <path id="Trazado_717354" data-name="Trazado 717354" d="M749.28,1191.18c.6.426,1.2.864,1.771,1.322C750.472,1192.042,749.88,1191.6,749.28,1191.18Z" transform="translate(-633.417 -1006.985)" fill="#e9eae9"/>
      <path id="Trazado_717355" data-name="Trazado 717355" d="M797.982,1235.989c.359.429.7.869,1.046,1.312C798.686,1236.856,798.339,1236.416,797.982,1235.989Z" transform="translate(-674.588 -1044.865)" fill="#e9eae9"/>
      <path id="Trazado_717356" data-name="Trazado 717356" d="M855.491,1363.553c.024.159.046.319.068.478Q855.526,1363.792,855.491,1363.553Z" transform="translate(-723.205 -1152.704)" fill="#e9eae9"/>
      <path id="Trazado_717357" data-name="Trazado 717357" d="M665.842,1647.646q-.993.308-2,.565C664.509,1648.042,665.177,1647.852,665.842,1647.646Z" transform="translate(-561.188 -1392.867)" fill="#e9eae9"/>
      <path id="Trazado_717358" data-name="Trazado 717358" d="M857.032,1376.008c.011.109.024.217.033.326C857.056,1376.226,857.043,1376.117,857.032,1376.008Z" transform="translate(-724.507 -1163.233)" fill="#e9eae9"/>
      <path id="Trazado_717359" data-name="Trazado 717359" d="M846.481,1324.5c.148.47.285.945.416,1.422C846.767,1325.448,846.63,1324.974,846.481,1324.5Z" transform="translate(-715.588 -1119.692)" fill="#e9eae9"/>
      <path id="Trazado_717360" data-name="Trazado 717360" d="M836.617,1298.269c.206.468.405.94.593,1.417C837.023,1299.211,836.824,1298.739,836.617,1298.269Z" transform="translate(-707.249 -1097.515)" fill="#e9eae9"/>
      <path id="Trazado_717361" data-name="Trazado 717361" d="M830.645,1285.621c.233.461.461.924.676,1.394C831.107,1286.547,830.879,1286.083,830.645,1285.621Z" transform="translate(-702.201 -1086.823)" fill="#e9eae9"/>
      <path id="Trazado_717362" data-name="Trazado 717362" d="M841.905,1311.25q.265.706.5,1.422Q842.172,1311.958,841.905,1311.25Z" transform="translate(-711.72 -1108.489)" fill="#e9eae9"/>
      <path id="Trazado_717363" data-name="Trazado 717363" d="M807.9,1248.656q-.6-.892-1.237-1.74.643.856,1.24,1.745Z" transform="translate(-681.93 -1054.103)" fill="#e9eae9"/>
      <path id="Trazado_717364" data-name="Trazado 717364" d="M524.633,1154.213q.4-.124.8-.241C525.168,1154.049,524.9,1154.13,524.633,1154.213Z" transform="translate(-443.508 -975.531)" fill="#e9eae9"/>
      <path id="Trazado_717365" data-name="Trazado 717365" d="M536.3,1151.278c.223-.058.445-.119.669-.173C536.744,1151.159,536.522,1151.22,536.3,1151.278Z" transform="translate(-453.37 -973.108)" fill="#e9eae9"/>
      <path id="Trazado_717366" data-name="Trazado 717366" d="M513.73,1157.623c.272-.1.547-.188.822-.28C514.277,1157.435,514,1157.525,513.73,1157.623Z" transform="translate(-434.291 -978.381)" fill="#e9eae9"/>
      <path id="Trazado_717367" data-name="Trazado 717367" d="M670.662,1153.772q.969.272,1.914.59Q671.626,1154.043,670.662,1153.772Z" transform="translate(-566.956 -975.362)" fill="#e9eae9"/>
      <path id="Trazado_717368" data-name="Trazado 717368" d="M551.4,1148.393c.123-.024.247-.043.371-.066C551.647,1148.35,551.523,1148.369,551.4,1148.393Z" transform="translate(-466.136 -970.759)" fill="#e9eae9"/>
      <path id="Trazado_717369" data-name="Trazado 717369" d="M562.971,1146.429c.159-.024.32-.044.48-.066C563.291,1146.385,563.131,1146.406,562.971,1146.429Z" transform="translate(-475.918 -969.099)" fill="#e9eae9"/>
      <path id="Trazado_717370" data-name="Trazado 717370" d="M588.674,1144.269l.067,0Z" transform="translate(-497.646 -967.325)" fill="#e9eae9"/>
      <path id="Trazado_717371" data-name="Trazado 717371" d="M575.039,1145.09c.134-.013.269-.027.4-.04C575.308,1145.062,575.173,1145.076,575.039,1145.09Z" transform="translate(-486.12 -967.989)" fill="#e9eae9"/>
      <path id="Trazado_717372" data-name="Trazado 717372" d="M488.827,1167.7c.251-.121.5-.242.756-.358C489.33,1167.457,489.078,1167.577,488.827,1167.7Z" transform="translate(-413.239 -986.833)" fill="#e9eae9"/>
      <path id="Trazado_717373" data-name="Trazado 717373" d="M601.413,1144.013h0Z" transform="translate(-508.415 -967.112)" fill="#e9eae9"/>
      <path id="Trazado_717374" data-name="Trazado 717374" d="M499.454,1162.263q.564-.242,1.136-.468Q500.019,1162.019,499.454,1162.263Z" transform="translate(-422.222 -982.144)" fill="#e9eae9"/>
      <path id="Trazado_717375" data-name="Trazado 717375" d="M613.751,1144.352c.061,0,.122.01.183.013C613.873,1144.362,613.812,1144.355,613.751,1144.352Z" transform="translate(-518.845 -967.399)" fill="#e9eae9"/>
      <path id="Trazado_717376" data-name="Trazado 717376" d="M626.025,1145.277c.195.02.391.049.587.072C626.416,1145.326,626.221,1145.3,626.025,1145.277Z" transform="translate(-529.222 -968.18)" fill="#e9eae9"/>
      <path id="Trazado_717377" data-name="Trazado 717377" d="M645.374,415.809H734.6V390.631H724.153v5.453h4.99v14.271H650.827V396.085h4.99v-5.453H645.374v25.178Z" transform="translate(-545.579 -330.227)" fill="#b4c4ce"/>
      <rect id="Rectángulo_375561" data-name="Rectángulo 375561" width="7.664" height="7.98" transform="translate(111.197 154.636)" fill="#01d8d1"/>
      <rect id="Rectángulo_375562" data-name="Rectángulo 375562" width="7.663" height="33.39" transform="translate(148.388 129.225)" fill="#005d95"/>
      <rect id="Rectángulo_375563" data-name="Rectángulo 375563" width="7.663" height="49.198" transform="translate(168.248 113.418)" fill="#81c539"/>
      <rect id="Rectángulo_375564" data-name="Rectángulo 375564" width="7.663" height="19.649" transform="translate(129.536 142.967)" fill="#ffee58"/>
      <path id="Trazado_717378" data-name="Trazado 717378" d="M723.028,749.648l-2.4-1.717a1.859,1.859,0,0,0-2.593.431,1.836,1.836,0,0,0-.325.856H712V698.161a1.859,1.859,0,0,0-1.859-1.859h-11.38a1.859,1.859,0,0,0-1.859,1.859v51.056h-4.761V713.969a1.859,1.859,0,0,0-1.859-1.859H678.9a1.859,1.859,0,0,0-1.859,1.859v35.249h-3.754V727.71a1.859,1.859,0,0,0-1.859-1.859H660.05a1.859,1.859,0,0,0-1.859,1.859v21.508h-3.239v-9.839a1.859,1.859,0,0,0-1.859-1.859H641.711a1.859,1.859,0,0,0-1.859,1.859v9.839h-4.666V699.993a1.858,1.858,0,0,0,1.253-2.841l-1.55-2.4a1.859,1.859,0,0,0-3.074-.073l-1.716,2.4a1.849,1.849,0,0,0,1.369,2.928v51.069a1.859,1.859,0,0,0,1.859,1.859h84.381a1.847,1.847,0,0,0,2.847,1.335l2.4-1.549a1.859,1.859,0,0,0,.074-3.074ZM700.62,700.02h7.663v49.2H700.62Zm-19.86,15.807h7.663v33.39h-7.664Zm-18.853,13.741h7.663v19.649h-7.663Zm-18.339,11.669h7.664v7.98h-7.665Z" transform="translate(-532.373 -586.602)" fill="#3f2c66"/>
      <path id="Trazado_717379" data-name="Trazado 717379" d="M927.616,1211.386h-60.58c.29.406.586.806.866,1.224.55.821,1.066,1.654,1.562,2.494h58.152Z" transform="translate(-732.965 -1024.067)" fill="#005d95"/>
      <path id="Trazado_717380" data-name="Trazado 717380" d="M775.765,1212.67q.733.68,1.43,1.4Q776.495,1213.347,775.765,1212.67Z" transform="translate(-655.807 -1025.152)" fill="#3f2c66"/>
      <path id="Trazado_717381" data-name="Trazado 717381" d="M787.52,1224.3q.691.73,1.344,1.493Q788.207,1225.025,787.52,1224.3Z" transform="translate(-665.744 -1034.983)" fill="#3f2c66"/>
      <path id="Trazado_717382" data-name="Trazado 717382" d="M942.95,1278.7H904.193c.5,1.227.935,2.468,1.331,3.718H942.95Z" transform="translate(-764.376 -1080.975)" fill="#005d95"/>
      <rect id="Rectángulo_375565" data-name="Rectángulo 375565" width="7.752" height="3.718" transform="translate(186.9 197.728)" fill="#005d95"/>
      <path id="Trazado_717383" data-name="Trazado 717383" d="M853.2,1350.539c.06.295.113.592.166.889C853.313,1351.131,853.26,1350.835,853.2,1350.539Z" transform="translate(-721.268 -1141.703)" fill="#3f2c66"/>
      <path id="Trazado_717384" data-name="Trazado 717384" d="M850.377,1338.154c.084.329.159.66.235.992C850.537,1338.815,850.461,1338.484,850.377,1338.154Z" transform="translate(-718.882 -1131.233)" fill="#3f2c66"/>
      <path id="Trazado_717385" data-name="Trazado 717385" d="M931.067,1336.4h-9.514c.251,1.235.45,2.475.606,3.718h8.907Z" transform="translate(-779.051 -1129.751)" fill="#005d95"/>
      <rect id="Rectángulo_375566" data-name="Rectángulo 375566" width="35.315" height="3.718" transform="translate(159.336 206.65)" fill="#005d95"/>
      <path id="Trazado_717386" data-name="Trazado 717386" d="M978.476,1400.51H927.335c0,1.243-.048,2.482-.136,3.718h51.277Z" transform="translate(-783.824 -1183.946)" fill="#005d95"/>
      <path id="Trazado_717387" data-name="Trazado 717387" d="M857.787,1414.041c-.009.179-.025.359-.036.538C857.763,1414.4,857.779,1414.221,857.787,1414.041Z" transform="translate(-725.115 -1195.385)" fill="#3f2c66"/>
      <path id="Trazado_717388" data-name="Trazado 717388" d="M858.268,1401.942c0,.11-.006.22-.007.33C858.262,1402.162,858.267,1402.052,858.268,1401.942Z" transform="translate(-725.546 -1185.157)" fill="#3f2c66"/>
      <path id="Trazado_717389" data-name="Trazado 717389" d="M952.359,1467.828h-36.12q-.388,1.875-.917,3.717h37.036Z" transform="translate(-773.784 -1240.855)" fill="#005d95"/>
      <rect id="Rectángulo_375567" data-name="Rectángulo 375567" width="7.752" height="3.718" transform="translate(186.9 226.973)" fill="#005d95"/>
      <path id="Trazado_717390" data-name="Trazado 717390" d="M821.525,1528.775c-.188.331-.379.66-.576.984Q821.244,1529.271,821.525,1528.775Z" transform="translate(-694.004 -1292.378)" fill="#3f2c66"/>
      <path id="Trazado_717391" data-name="Trazado 717391" d="M814.042,1540.059q-.343.538-.7,1.063C813.578,1540.771,813.814,1540.417,814.042,1540.059Z" transform="translate(-687.57 -1301.917)" fill="#3f2c66"/>
      <path id="Trazado_717392" data-name="Trazado 717392" d="M906.67,1525.526H894.4c-.514,1.261-1.09,2.5-1.707,3.718H906.67Z" transform="translate(-754.655 -1289.631)" fill="#005d95"/>
      <path id="Trazado_717393" data-name="Trazado 717393" d="M712.91,246.033v.934h68.336v-20.45h-21.29c.006-.161.024-.319.024-.481a12.9,12.9,0,1,0-25.8,0c0,.163.019.32.025.481H712.91v19.517Zm30.72-23.485a4.9,4.9,0,0,1,8.353,3.487c0,.163-.009.323-.024.481H742.2c-.015-.159-.024-.319-.024-.481A4.89,4.89,0,0,1,743.63,222.548Z" transform="translate(-602.671 -180.176)" fill="#ffee58"/>
      <rect id="Rectángulo_375568" data-name="Rectángulo 375568" width="68.335" height="2.87" transform="translate(110.239 66.791)" fill="#dac935"/>
      <path id="Trazado_717394" data-name="Trazado 717394" d="M343.235,1327.465a.059.059,0,0,0,0,.007q.042.939.129,1.877c0,.045.009.09.014.135.053.549.118,1.1.194,1.644.014.1.027.2.042.3.086.587.182,1.173.294,1.757.01.052.023.1.033.156.1.5.21,1.005.329,1.506q.063.268.13.534.166.659.355,1.314c.051.174.1.348.153.521q.207.682.441,1.359c.074.215.151.429.228.643.041.114.087.226.129.34v-27.787c-.055.15-.116.3-.169.447s-.105.3-.156.448q-.215.625-.408,1.256c-.053.173-.108.346-.159.521-.121.411-.231.825-.339,1.24-.045.174-.094.347-.136.522q-.193.792-.353,1.59c-.01.052-.023.1-.034.153-.006.03-.01.06-.016.09-.1.533-.2,1.069-.277,1.607-.024.159-.046.318-.068.477q-.1.683-.17,1.369c-.013.121-.027.242-.039.363q-.173,1.79-.185,3.594c0,.075,0,.15,0,.225C343.2,1326.271,343.208,1326.868,343.235,1327.465Z" transform="translate(-290.129 -1108.929)" fill="#5fa094"/>
      <path id="Trazado_717395" data-name="Trazado 717395" d="M359.667,1237.913c.091.233.18.467.276.7q.315.758.662,1.507c.087.187.18.37.27.556.176.364.356.726.544,1.087q.151.289.306.574.331.608.683,1.209c.07.118.137.239.207.356q.472.784.985,1.553c.073.11.149.217.224.326q.414.608.846,1.2c.109.148.218.3.329.443q.442.585.9,1.148c.083.1.162.206.246.307.362.435.733.858,1.111,1.274.168.185.341.367.513.549q.347.369.7.728c.193.194.386.388.583.579.247.239.5.472.75.7.221.2.441.407.666.6q.544.477,1.1.934c.19.155.385.3.578.456.28.22.562.437.847.649q.281.209.567.414c.1.075.212.146.318.22V1251.6a36.32,36.32,0,0,1,0-56.441v-4.381c-.224.157-.45.313-.67.474-.146.107-.295.211-.44.32q-.676.509-1.324,1.041c-.19.156-.375.317-.561.476q-.385.327-.76.663-.322.289-.639.584c-.219.2-.432.413-.645.622q-.479.469-.944.955c-.242.254-.485.507-.719.766-.2.223-.4.452-.6.681s-.373.435-.556.655-.366.446-.545.673c-.208.264-.411.531-.612.8-.141.188-.285.373-.423.564q-.491.68-.951,1.377c-.09.136-.175.275-.263.412-.239.373-.474.748-.7,1.128-.088.147-.174.3-.26.444q-.353.611-.684,1.232c-.057.106-.115.212-.17.318q-.847,1.627-1.538,3.319c-.031.075-.059.151-.09.227-.13.324-.249.652-.371.979v27.787C359.5,1237.487,359.583,1237.7,359.667,1237.913Z" transform="translate(-303.845 -1006.644)" fill="#7c758a"/>
      <path id="Trazado_717396" data-name="Trazado 717396" d="M475.749,1147.521a36.489,36.489,0,0,1,21.352,6.909h5.539l-.087-.082q-.92-.836-1.891-1.619c-.044-.035-.09-.067-.134-.1-.576-.458-1.169-.9-1.771-1.322-.185-.13-.371-.258-.557-.385q-.769-.524-1.566-1.012c-.171-.1-.34-.216-.513-.318q-.981-.582-2-1.108c-.234-.121-.472-.233-.707-.349q-.737-.363-1.492-.7c-.262-.116-.524-.233-.789-.343-.7-.293-1.414-.572-2.139-.826-.158-.056-.319-.1-.478-.155q-.946-.318-1.915-.59-.344-.1-.689-.188c-.794-.208-1.6-.4-2.413-.564q-.955-.188-1.907-.328c-.434-.064-.871-.112-1.307-.162-.2-.023-.392-.052-.587-.072-.57-.056-1.142-.1-1.715-.13-.061,0-.122-.01-.183-.013q-.933-.048-1.87-.052h-.038q-.95,0-1.9.039l-.067,0c-.568.026-1.137.067-1.705.117-.135.012-.269.026-.4.04q-.694.069-1.386.163c-.16.022-.32.042-.48.066-.474.07-.946.15-1.418.238-.123.023-.248.042-.371.066-.557.108-1.112.231-1.666.364-.224.054-.446.115-.669.173-.334.086-.667.176-1,.271q-.4.116-.8.241c-.289.089-.577.184-.864.28s-.55.182-.822.28c-.359.129-.715.268-1.072.408q-.572.225-1.136.468c-.3.127-.593.255-.888.39-.253.116-.5.237-.755.358q-.462.224-.92.46c-.218.113-.438.224-.654.34-.5.27-1,.549-1.49.843-.122.073-.242.151-.363.225q-.6.37-1.2.762-.259.171-.515.347c-.138.094-.271.193-.408.289v4.381A36.293,36.293,0,0,1,475.749,1147.521Z" transform="translate(-382.894 -967.11)" fill="#eaf0f2"/>
      <path id="Trazado_717397" data-name="Trazado 717397" d="M775.955,1251.043h3.635c-.037-.14-.075-.279-.113-.418-.131-.477-.268-.951-.416-1.422-.066-.209-.134-.418-.2-.626q-.238-.717-.5-1.423c-.074-.2-.148-.395-.225-.591-.188-.476-.387-.948-.593-1.416-.082-.187-.162-.376-.247-.562-.215-.47-.444-.933-.676-1.394-.091-.181-.177-.363-.271-.542-.243-.463-.5-.918-.762-1.371-.1-.17-.189-.342-.289-.511-.319-.536-.655-1.063-1-1.584-.05-.076-.1-.154-.146-.231q-.6-.889-1.24-1.745c-.1-.129-.2-.251-.3-.378-.341-.443-.686-.883-1.046-1.312-.025-.029-.051-.057-.075-.086h-4.758A36.482,36.482,0,0,1,775.955,1251.043Z" transform="translate(-648.167 -1044.393)" fill="#eaf0f2"/>
      <path id="Trazado_717398" data-name="Trazado 717398" d="M475.828,1563a36.464,36.464,0,0,1-22.9-8.094v4.386q.23.161.462.319c.294.2.591.4.891.592.276.177.555.349.836.519s.547.329.824.488q.465.267.936.52.386.208.777.408.5.256,1.009.5c.253.12.509.237.766.352.346.155.693.308,1.044.454.267.111.537.216.807.321.343.134.686.267,1.032.391.3.108.609.209.916.31s.635.213.956.311c.383.116.773.221,1.162.327.251.068.5.142.754.205.651.163,1.309.313,1.976.444q.958.189,1.914.33c.346.051.7.087,1.043.129.285.035.57.076.854.1.5.05,1.011.084,1.517.115.127.008.255.021.382.028.576.029,1.153.043,1.73.047.058,0,.117,0,.176,0,.24,0,.481-.011.721-.015.505-.007,1.01-.02,1.512-.047.3-.016.6-.039.9-.062q.683-.052,1.361-.126c.281-.031.562-.062.843-.1.539-.071,1.075-.156,1.609-.249.18-.032.361-.057.541-.091q1.111-.21,2.2-.48c.054-.014.107-.03.161-.044q1.011-.256,2-.565c.151-.047.3-.1.452-.147q.859-.277,1.7-.593.241-.09.481-.183.847-.33,1.676-.7c.139-.062.278-.12.416-.183q.931-.424,1.839-.9c.062-.032.124-.061.186-.093q1.021-.537,2.01-1.131c.051-.031.1-.066.152-.1q.869-.528,1.71-1.1c.185-.126.364-.258.546-.387.433-.3.862-.615,1.282-.936.185-.141.365-.286.547-.43q.629-.5,1.239-1.021.237-.2.47-.411.659-.585,1.292-1.2c.11-.106.222-.211.331-.319a39.749,39.749,0,0,0,3.047-3.391c.055-.069.106-.14.16-.209q.595-.754,1.153-1.539c.047-.067.092-.135.139-.2h-4.39A36.362,36.362,0,0,1,475.828,1563Z" transform="translate(-382.894 -1309.957)" fill="#eaf0f2"/>
      <path id="Trazado_717399" data-name="Trazado 717399" d="M832.565,1366.64h3.5c0-1.154-.054-2.309-.159-3.462-.01-.109-.023-.218-.033-.327q-.072-.724-.17-1.447-.033-.24-.068-.479c-.024-.161-.055-.32-.081-.481h-3.551A36.026,36.026,0,0,1,832.565,1366.64Z" transform="translate(-703.352 -1150.077)" fill="#eaf0f2"/>
      <path id="Trazado_717400" data-name="Trazado 717400" d="M805.041,1428.031a36.24,36.24,0,0,1-4.772,12.137h4.052c.089-.161.182-.321.269-.483q.089-.168.177-.337.366-.708.7-1.428c.028-.06.057-.119.085-.179q.771-1.668,1.382-3.4c.038-.107.074-.215.111-.323q.233-.675.441-1.357c.048-.156.095-.312.141-.469.125-.427.241-.856.351-1.287.04-.156.082-.31.12-.466.139-.571.269-1.145.383-1.722l0-.01c.13-.659.24-1.318.337-1.976.041-.28.069-.56.1-.84.047-.374.1-.748.131-1.121.007-.073.01-.147.016-.22h-3.519Q805.384,1426.286,805.041,1428.031Z" transform="translate(-676.522 -1204.273)" fill="#eaf0f2"/>
      <path id="Trazado_717401" data-name="Trazado 717401" d="M742.929,1215.1h4.758c-.065-.077-.133-.151-.2-.228q-.653-.762-1.344-1.493c-.128-.135-.258-.269-.388-.4q-.7-.715-1.43-1.4c-.071-.066-.141-.133-.212-.2h-5.539A36.267,36.267,0,0,1,742.929,1215.1Z" transform="translate(-624.369 -1024.067)" fill="#40528d"/>
      <path id="Trazado_717402" data-name="Trazado 717402" d="M827.266,1340.119h3.551c-.035-.214-.07-.429-.108-.643-.053-.3-.106-.594-.166-.889s-.132-.616-.2-.923c-.076-.331-.151-.663-.235-.992-.023-.091-.05-.181-.073-.271H826.4A36.11,36.11,0,0,1,827.266,1340.119Z" transform="translate(-698.611 -1129.751)" fill="#40528d"/>
      <path id="Trazado_717403" data-name="Trazado 717403" d="M834.463,1404.228h3.519c.033-.362.06-.724.082-1.088.011-.179.027-.359.036-.538.025-.513.037-1.027.043-1.542,0-.11.006-.22.007-.33,0-.074,0-.148,0-.221h-3.5A36.273,36.273,0,0,1,834.463,1404.228Z" transform="translate(-705.428 -1183.946)" fill="#40528d"/>
      <path id="Trazado_717404" data-name="Trazado 717404" d="M783.125,1529.244h4.39q.142-.2.282-.407.36-.525.7-1.063.241-.378.473-.761.295-.486.576-.984c.095-.167.187-.334.279-.5h-4.052A36.136,36.136,0,0,1,783.125,1529.244Z" transform="translate(-662.029 -1289.631)" fill="#40528d"/>
      <path id="Trazado_717405" data-name="Trazado 717405" d="M369.339,1240.236l.011-.052,9.984,1.97V1219.1a36.32,36.32,0,0,0,0,56.441v-4.276A33.577,33.577,0,0,1,369.339,1240.236Z" transform="translate(-309.296 -1030.592)" fill="#9ca3b6"/>
      <path id="Trazado_717406" data-name="Trazado 717406" d="M478.285,1202.86h33.823a36.035,36.035,0,0,0-.558-6.2H477.056v-3.718h33.626a36.482,36.482,0,0,0-9.227-15.613h-24.4v-3.718H497.1a36.308,36.308,0,0,0-44.17,1.194v23.048Zm-1.229-18.835h27.563v3.717H477.056Z" transform="translate(-382.894 -986.296)" fill="#eef4f7"/>
      <path id="Trazado_717407" data-name="Trazado 717407" d="M750.494,1426.874l-.01.053a33.463,33.463,0,0,1-5.768,13.241h3.541a36.24,36.24,0,0,0,4.772-12.137q.344-1.742.515-3.476h-14.8Z" transform="translate(-624.51 -1204.273)" fill="#eef4f7"/>
      <path id="Trazado_717408" data-name="Trazado 717408" d="M468.76,1562.31a36.254,36.254,0,0,0,35.231-12.74h-4.03a33.617,33.617,0,0,1-47.028,1.064v4.276A36.149,36.149,0,0,0,468.76,1562.31Z" transform="translate(-382.894 -1309.957)" fill="#eef4f7"/>
      <path id="Trazado_717409" data-name="Trazado 717409" d="M608.94,1215.1h24.4a36.273,36.273,0,0,0-4.353-3.718H608.94Z" transform="translate(-514.778 -1024.067)" fill="#567fb5"/>
      <rect id="Rectángulo_375569" data-name="Rectángulo 375569" width="27.563" height="3.717" transform="translate(94.162 197.728)" fill="#567fb5"/>
      <path id="Trazado_717410" data-name="Trazado 717410" d="M608.94,1340.119h34.493a36.078,36.078,0,0,0-.867-3.718H608.94Z" transform="translate(-514.778 -1129.751)" fill="#567fb5"/>
      <path id="Trazado_717411" data-name="Trazado 717411" d="M635.73,1404.228h14.8a36.273,36.273,0,0,0,.178-3.718H616.887Z" transform="translate(-521.497 -1183.946)" fill="#567fb5"/>
      <path id="Trazado_717412" data-name="Trazado 717412" d="M757.062,1529.244h4.03a36.155,36.155,0,0,0,2.651-3.718H760.2A33.465,33.465,0,0,1,757.062,1529.244Z" transform="translate(-639.996 -1289.631)" fill="#567fb5"/>
      <path id="Trazado_717413" data-name="Trazado 717413" d="M384.8,1355.42l-.011.052a33.577,33.577,0,0,0,9.995,31.034V1357.39Z" transform="translate(-324.743 -1145.829)" fill="#b4c4d5"/>
      <path id="Trazado_717414" data-name="Trazado 717414" d="M477.056,1392.493H503.1a33.463,33.463,0,0,0,5.768-13.241l.01-.053-11.751-2.319H477.056v-3.718h1.229l-25.353-5v29.117a33.6,33.6,0,0,0,47.028-1.065h-22.9Zm0-8.922h27.563v3.717H477.056Z" transform="translate(-382.894 -1156.598)" fill="#f1f7fa"/>
      <path id="Trazado_717415" data-name="Trazado 717415" d="M608.94,1404.228h20.072l-18.843-3.718H608.94Z" transform="translate(-514.778 -1183.947)" fill="#73a5d3"/>
      <rect id="Rectángulo_375570" data-name="Rectángulo 375570" width="27.563" height="3.717" transform="translate(94.162 226.973)" fill="#73a5d3"/>
      <path id="Trazado_717416" data-name="Trazado 717416" d="M608.94,1525.526v3.718h22.9a33.5,33.5,0,0,0,3.14-3.718Z" transform="translate(-514.778 -1289.631)" fill="#73a5d3"/>
      <path id="Trazado_717417" data-name="Trazado 717417" d="M301.164,1170.062a50.622,50.622,0,0,0,45.343.178l10.909-7.313a50.258,50.258,0,0,0,11.749-15.139c.617-1.219,1.193-2.457,1.707-3.718a50.806,50.806,0,0,0,1.792-5.2q.527-1.842.917-3.717a50.876,50.876,0,0,0,.92-6.691c.088-1.236.138-2.476.136-3.718a50.6,50.6,0,0,0-.4-6.2c-.156-1.243-.356-2.483-.606-3.718a50.211,50.211,0,0,0-1.354-5.2c-.4-1.249-.832-2.491-1.331-3.718a50.681,50.681,0,0,0-3.318-6.691c-.5-.84-1.012-1.674-1.562-2.494-.28-.417-.576-.817-.866-1.224a50.609,50.609,0,0,0-83.22,57.6q.765,1.141,1.582,2.225,1.494,1.991,3.144,3.8A50.259,50.259,0,0,0,301.164,1170.062Zm34.906.226a51.019,51.019,0,0,1-9.527,1.622,44,44,0,0,1-33.474-11.367c-2.062-1.936,1.044-5.029,3.1-3.1a36.943,36.943,0,0,0,7.919,5.681c9.373,5,20.655,5.693,30.817,2.938C337.636,1165.321,338.79,1169.551,336.071,1170.288Zm-27.614-89.948a59.58,59.58,0,0,1,13.781-2.277,47.4,47.4,0,0,1,23.516,4.991c8.1,4.133,14.611,10.743,19.509,18.332,1.536,2.38-2.26,4.574-3.784,2.212a51.647,51.647,0,0,0-9.658-11.23,41.541,41.541,0,0,0-20.226-9.406,50.438,50.438,0,0,0-21.972,1.6C306.9,1085.342,305.748,1081.112,308.456,1080.34ZM284.381,1121.1c.012-.121.026-.242.039-.363q.073-.686.17-1.37c.022-.159.044-.318.068-.477.082-.537.173-1.073.277-1.606.016-.081.033-.162.049-.243q.161-.8.353-1.59c.042-.175.091-.348.136-.522.107-.415.218-.829.339-1.24.051-.174.105-.348.159-.521q.194-.63.408-1.256c.052-.15.1-.3.156-.448s.114-.3.169-.447c.121-.327.241-.655.371-.979.03-.075.059-.151.09-.227q.69-1.69,1.538-3.319c.055-.107.114-.212.17-.319q.331-.621.684-1.232.128-.222.26-.444c.226-.38.461-.755.7-1.128.088-.137.173-.276.263-.412q.46-.7.951-1.377c.137-.19.282-.376.423-.564.2-.268.4-.535.612-.8q.268-.339.545-.673c.182-.22.368-.438.556-.655s.393-.457.6-.681c.234-.259.477-.513.719-.766q.462-.485.943-.955c.213-.209.427-.418.645-.622s.423-.391.639-.584q.375-.336.76-.663c.187-.159.371-.32.561-.476q.648-.532,1.324-1.041c.144-.109.293-.213.44-.32.22-.161.445-.317.67-.474.137-.1.27-.194.408-.289.092-.063.18-.131.273-.193s.162-.1.242-.153q.6-.394,1.2-.762c.121-.074.241-.152.363-.225.492-.294.989-.572,1.49-.843.217-.117.436-.228.654-.34q.458-.237.92-.46c.251-.122.5-.242.756-.358.295-.135.591-.263.888-.39q.566-.243,1.136-.468c.356-.14.713-.279,1.072-.408.273-.1.547-.189.822-.281s.575-.191.864-.28c.268-.083.535-.164.8-.241.332-.1.666-.184,1-.271.223-.058.445-.119.669-.173.554-.133,1.109-.255,1.666-.364.123-.024.247-.043.371-.066.472-.088.945-.168,1.418-.238.16-.023.32-.044.48-.066q.692-.094,1.386-.163c.134-.013.269-.027.4-.039.568-.051,1.137-.091,1.705-.117l.067,0q.952-.042,1.9-.039h.038q.936,0,1.87.052c.061,0,.122.01.183.013.572.032,1.145.073,1.715.13.2.02.391.049.587.072.436.05.873.1,1.307.162a40.132,40.132,0,0,1,4.319.892q.345.091.689.188.964.272,1.915.59c.159.053.32.1.478.156.721.252,1.432.531,2.139.825.264.11.526.227.789.343q.753.333,1.492.7c.236.116.474.228.707.349q1.014.525,2,1.108c.173.1.341.213.513.318q.793.487,1.566,1.012c.187.127.372.255.557.385.6.424,1.192.862,1.771,1.322.044.035.09.067.134.1.646.516,1.275,1.058,1.891,1.619l.087.082c.071.065.141.133.212.2q.73.677,1.43,1.4c.13.133.259.266.388.4q.688.726,1.343,1.493c.066.077.134.151.2.228l.075.086c.357.427.7.867,1.046,1.312.1.127.2.249.3.378q.637.849,1.236,1.74l0,.005c.051.076.1.154.146.231.346.523.681,1.05,1,1.584.1.169.191.342.289.511.262.455.52.91.762,1.371.094.18.18.362.272.543.234.462.462.926.676,1.393.086.187.165.375.247.562.207.47.406.942.593,1.416.077.2.151.394.225.591q.266.709.5,1.422c.069.209.138.418.2.627.149.472.286.946.416,1.422.038.14.077.279.113.418.023.09.05.181.073.271.084.33.16.661.235.991.07.308.14.615.2.923s.113.592.166.889c.038.214.073.429.108.643.026.16.057.32.081.481s.046.319.068.478q.1.723.17,1.448c.011.109.024.218.033.326.1,1.154.155,2.309.159,3.462,0,.074,0,.148,0,.222,0,.11-.006.22-.007.33-.005.514-.017,1.028-.043,1.541-.009.179-.025.359-.036.538-.023.363-.049.725-.082,1.088-.006.073-.009.147-.016.22-.036.375-.085.747-.131,1.12-.035.28-.063.561-.1.841q-.145,1-.339,1.985c-.114.577-.244,1.151-.383,1.722-.038.156-.08.311-.12.466-.111.431-.226.86-.351,1.287-.046.157-.093.313-.141.469q-.209.682-.441,1.357c-.037.107-.073.215-.111.323q-.612,1.726-1.382,3.4c-.028.06-.057.119-.085.179q-.337.72-.7,1.428-.087.169-.176.337c-.086.163-.18.322-.269.484s-.184.336-.279.5q-.281.5-.576.984-.232.383-.473.761c-.228.358-.464.712-.7,1.063q-.14.2-.282.407c-.047.067-.092.135-.139.2q-.556.782-1.153,1.539c-.054.069-.105.14-.16.209a39.469,39.469,0,0,1-3.047,3.391c-.108.108-.221.212-.331.319q-.63.612-1.292,1.2-.233.207-.471.41-.607.521-1.239,1.021c-.182.144-.362.289-.547.43-.418.32-.848.63-1.282.936-.182.128-.361.261-.546.387-.072.048-.139.1-.211.149-.495.332-1,.645-1.5.951-.051.031-.1.066-.152.1q-.994.6-2.01,1.132c-.062.032-.124.061-.186.093q-.912.474-1.839.9c-.138.063-.278.122-.416.183q-.833.369-1.676.7-.24.093-.481.183-.847.317-1.7.592c-.151.049-.3.1-.452.147q-1,.309-2,.565c-.054.014-.107.03-.161.044q-1.1.272-2.2.48c-.18.034-.361.059-.541.091-.535.093-1.071.178-1.609.249-.281.037-.562.069-.843.1q-.68.075-1.361.126c-.3.023-.6.046-.9.062-.5.026-1.008.039-1.512.047-.24,0-.481.016-.721.015-.059,0-.117,0-.175,0-.577,0-1.155-.018-1.73-.048-.128-.006-.255-.02-.382-.028-.506-.031-1.013-.065-1.517-.115-.286-.028-.57-.07-.854-.1-.348-.042-.7-.078-1.043-.129q-1.963-.29-3.89-.774c-.253-.063-.5-.138-.754-.205-.389-.105-.777-.21-1.162-.327-.321-.1-.638-.205-.956-.311s-.612-.2-.916-.31c-.346-.124-.689-.257-1.032-.391-.27-.105-.54-.21-.807-.321-.35-.146-.7-.3-1.044-.454-.256-.115-.512-.232-.766-.353q-.508-.241-1.009-.5-.391-.2-.777-.408-.471-.253-.936-.52c-.277-.159-.55-.323-.824-.488s-.559-.342-.835-.519c-.3-.192-.6-.391-.891-.592q-.232-.157-.462-.319c-.106-.074-.213-.145-.318-.22q-.285-.2-.567-.414c-.285-.212-.567-.429-.847-.649-.193-.152-.387-.3-.578-.456q-.558-.455-1.1-.934c-.225-.2-.445-.4-.667-.6-.252-.232-.5-.464-.75-.7-.2-.19-.39-.384-.583-.579q-.355-.359-.7-.728c-.172-.182-.344-.363-.513-.55-.377-.416-.749-.839-1.111-1.274-.084-.1-.163-.205-.246-.307q-.459-.564-.9-1.148c-.111-.147-.22-.295-.329-.443q-.432-.588-.846-1.2c-.053-.078-.111-.152-.163-.231-.021-.031-.039-.063-.06-.095q-.513-.769-.985-1.553c-.071-.118-.137-.238-.207-.356q-.353-.6-.683-1.209-.156-.286-.306-.574c-.188-.36-.368-.723-.544-1.087-.09-.185-.183-.37-.27-.556q-.348-.749-.662-1.507c-.1-.232-.185-.465-.276-.7-.084-.213-.164-.426-.244-.64-.042-.113-.088-.226-.129-.339-.078-.214-.154-.428-.228-.643q-.233-.677-.441-1.359c-.053-.173-.1-.347-.153-.521q-.189-.655-.355-1.314-.067-.267-.13-.534c-.119-.5-.23-1-.329-1.506-.01-.052-.022-.1-.033-.157-.112-.584-.209-1.17-.294-1.757-.015-.1-.028-.2-.042-.3-.075-.547-.141-1.1-.194-1.644,0-.045-.01-.09-.014-.134q-.087-.938-.129-1.877a.057.057,0,0,1,0-.007c-.026-.6-.037-1.195-.037-1.792,0-.075,0-.15,0-.225Q284.207,1122.893,284.381,1121.1Z" transform="translate(-231.127 -908.176)" fill="#3c304e"/>
      <path id="Trazado_717418" data-name="Trazado 717418" d="M492.814,1104.911a50.434,50.434,0,0,1,21.972-1.6,41.542,41.542,0,0,1,20.226,9.406,51.646,51.646,0,0,1,9.658,11.23c1.525,2.362,5.32.167,3.784-2.212-4.9-7.59-11.406-14.2-19.509-18.333a47.4,47.4,0,0,0-23.516-4.991,59.593,59.593,0,0,0-13.781,2.277C488.942,1101.456,490.093,1105.687,492.814,1104.911Z" transform="translate(-414.32 -928.521)" fill="#fff"/>
      <path id="Trazado_717419" data-name="Trazado 717419" d="M438.712,1617.286c-10.162,2.756-21.444,2.064-30.817-2.937a36.952,36.952,0,0,1-7.919-5.681c-2.056-1.929-5.162,1.164-3.1,3.1a44,44,0,0,0,33.474,11.367,51.01,51.01,0,0,0,9.527-1.622C442.6,1620.775,441.442,1616.546,438.712,1617.286Z" transform="translate(-334.933 -1359.4)" fill="#fff"/>
      <path id="Trazado_717420" data-name="Trazado 717420" d="M746.175,1660.986l12.772-8.562-6.029-8.994-.932.625-10.909,7.313-.931.624Z" transform="translate(-625.695 -1389.304)" fill="#676178"/>
      <path id="Trazado_717421" data-name="Trazado 717421" d="M1103.767,2210.707q-.346.07-.681.117Q1103.421,2210.777,1103.767,2210.707Z" transform="translate(-932.514 -1868.861)" fill="#e44c66"/>
      <path id="Trazado_717422" data-name="Trazado 717422" d="M1108.5,2209.576q-.353.094-.695.165Q1108.148,2209.671,1108.5,2209.576Z" transform="translate(-936.504 -1867.905)" fill="#e44c66"/>
      <path id="Trazado_717423" data-name="Trazado 717423" d="M1099.2,2211.489q-.343.047-.674.071Q1098.852,2211.536,1099.2,2211.489Z" transform="translate(-928.655 -1869.522)" fill="#e44c66"/>
      <path id="Trazado_717424" data-name="Trazado 717424" d="M1053.492,2197.31a9.693,9.693,0,0,0,6.957,2.264A9.7,9.7,0,0,1,1053.492,2197.31Z" transform="translate(-890.588 -1857.536)" fill="#e44c66"/>
      <path id="Trazado_717425" data-name="Trazado 717425" d="M1118.441,2206.145c-.25.1-.5.192-.739.275C1117.945,2206.337,1118.191,2206.246,1118.441,2206.145Z" transform="translate(-944.87 -1865.005)" fill="#e44c66"/>
      <path id="Trazado_717426" data-name="Trazado 717426" d="M1113.4,2208.065q-.362.121-.713.217C1112.917,2208.218,1113.154,2208.146,1113.4,2208.065Z" transform="translate(-940.626 -1866.628)" fill="#e44c66"/>
      <path id="Trazado_717427" data-name="Trazado 717427" d="M1123.6,2203.793c-.263.124-.522.237-.777.342C1123.08,2204.03,1123.339,2203.917,1123.6,2203.793Z" transform="translate(-949.2 -1863.016)" fill="#e44c66"/>
      <path id="Trazado_717428" data-name="Trazado 717428" d="M1043.313,2186.919l-.079-.1Z" transform="translate(-881.917 -1848.666)" fill="#e44c66"/>
      <path id="Trazado_717429" data-name="Trazado 717429" d="M1043.994,2187.785c-.038-.045-.073-.088-.1-.127Z" transform="translate(-882.471 -1849.376)" fill="#e44c66"/>
      <path id="Trazado_717430" data-name="Trazado 717430" d="M1044.865,2188.837c-.045-.052-.089-.1-.128-.149C1044.776,2188.735,1044.82,2188.785,1044.865,2188.837Z" transform="translate(-883.187 -1850.247)" fill="#e44c66"/>
      <path id="Trazado_717431" data-name="Trazado 717431" d="M1042.812,2186.256l-.053-.07Z" transform="translate(-881.515 -1848.132)" fill="#e44c66"/>
      <path id="Trazado_717432" data-name="Trazado 717432" d="M1051.9,2195.952c-.1-.083-.2-.165-.286-.245Q1051.752,2195.828,1051.9,2195.952Z" transform="translate(-889.003 -1856.181)" fill="#e44c66"/>
      <path id="Trazado_717433" data-name="Trazado 717433" d="M1042.426,2185.716l-.044-.063Z" transform="translate(-881.196 -1847.681)" fill="#e44c66"/>
      <path id="Trazado_717434" data-name="Trazado 717434" d="M1050.156,2194.373c-.088-.078-.17-.154-.25-.229C1049.985,2194.219,1050.068,2194.3,1050.156,2194.373Z" transform="translate(-887.557 -1854.859)" fill="#e44c66"/>
      <path id="Trazado_717435" data-name="Trazado 717435" d="M1047.155,2191.391c-.066-.067-.129-.132-.187-.2C1047.026,2191.259,1047.089,2191.324,1047.155,2191.391Z" transform="translate(-885.073 -1852.367)" fill="#e44c66"/>
      <path id="Trazado_717436" data-name="Trazado 717436" d="M1048.564,2192.836c-.076-.072-.149-.143-.217-.212Q1048.45,2192.728,1048.564,2192.836Z" transform="translate(-886.239 -1853.574)" fill="#e44c66"/>
      <path id="Trazado_717437" data-name="Trazado 717437" d="M1045.925,2190.054c-.055-.06-.108-.118-.157-.173C1045.816,2189.936,1045.869,2189.994,1045.925,2190.054Z" transform="translate(-884.059 -1851.256)" fill="#e44c66"/>
      <path id="Trazado_717438" data-name="Trazado 717438" d="M801.435,1707.113l-5.9-8.8-3.347-4.992-9.271-13.829-5.1,3.417-12.771,8.562-2.577,1.728,8.61-5.772,48.742,72.706c-.279.151-.553.29-.824.418a19.343,19.343,0,0,0,2.49-1.422s8.22-4.892,5.031-14.216c-.1-.283-.2-.568-.32-.859l-17.059-25.445-4.563-6.806Zm19.814,40.578a3.192,3.192,0,0,1-4.429-.874l-37.386-55.766a3.192,3.192,0,1,1,5.3-3.555l37.386,55.766A3.192,3.192,0,0,1,821.249,1747.69Z" transform="translate(-644.57 -1419.791)" fill="#003f65"/>
      <path id="Trazado_717439" data-name="Trazado 717439" d="M771.083,1730.809l-8.61,5.772.082.122,3.347,4.992,5.9,8.8,3.145,4.692,30.811,45.958.044.062.014.02.053.07.021.028.079.1.022.028.1.127.027.032c.039.047.083.1.128.149l.031.036c.049.055.1.113.157.173l.029.031c.059.063.121.128.188.195l.026.026c.069.069.141.14.217.212l.024.023c.08.075.163.152.25.229l.014.012q.137.121.286.245l0,0a9.7,9.7,0,0,0,6.957,2.264h.006q.331-.024.674-.071l.032,0q.335-.047.681-.117l.049-.01q.342-.07.695-.165l.059-.016c.234-.064.472-.136.713-.217l.063-.022c.243-.083.489-.174.739-.275l.053-.022c.255-.1.514-.217.777-.342l.029-.014c.271-.129.546-.267.824-.418Z" transform="translate(-644.57 -1463.171)" fill="#004168"/>
      <path id="Trazado_717440" data-name="Trazado 717440" d="M874.51,1723.5a3.192,3.192,0,0,0-5.3,3.555l37.386,55.766a3.192,3.192,0,0,0,5.3-3.555Z" transform="translate(-734.342 -1455.797)" fill="#fff"/>
      <path id="Trazado_717441" data-name="Trazado 717441" d="M1634.232,265.187a12.515,12.515,0,1,0-12.515,12.515A12.516,12.516,0,0,0,1634.232,265.187Zm-21.265,0a8.689,8.689,0,0,1,1.787-5.284,8.888,8.888,0,0,1,.776-.9,8.75,8.75,0,1,1,0,12.375c-.017-.017-.032-.037-.049-.054A8.708,8.708,0,0,1,1612.967,265.187Z" transform="translate(-1360.367 -213.598)" fill="#fff"/>
      <path id="Trazado_717442" data-name="Trazado 717442" d="M308.947,185.179a6.256,6.256,0,1,0-6.257-6.258A6.258,6.258,0,0,0,308.947,185.179Zm0-10.634a4.356,4.356,0,0,1,3.094,1.282c.043.043.074.094.114.139a4.372,4.372,0,1,1-6.771.431,4.417,4.417,0,0,1,.47-.57A4.356,4.356,0,0,1,308.947,174.545Z" transform="translate(-255.884 -145.963)" fill="#fff"/>
      <path id="Trazado_717443" data-name="Trazado 717443" d="M178.192,1971.8a12.574,12.574,0,1,0-9.461,12.124A12.512,12.512,0,0,0,178.192,1971.8Zm-6.328,6.187a8.75,8.75,0,1,1-6.187-14.939,8.864,8.864,0,0,1,1.736.173,8.753,8.753,0,0,1,4.451,14.766Z" transform="translate(-129.477 -1656.317)" fill="#fff"/>
    </g>
  </g>
</svg>
