<svg xmlns="http://www.w3.org/2000/svg" xmlns:xlink="http://www.w3.org/1999/xlink" width="159.83" height="159.831" viewBox="0 0 159.83 159.831">
  <defs>
    <clipPath id="clip-path">
      <rect id="Rectángulo_349887" data-name="Rectángulo 349887" width="89.837" height="89.842" fill="none"/>
    </clipPath>
  </defs>
  <g id="Grupo_1018016" data-name="Grupo 1018016" transform="translate(18839.912 6612.331)">
    <circle id="Elipse_5866" data-name="Elipse 5866" cx="79.916" cy="79.916" r="79.916" transform="translate(-18839.912 -6612.331)" fill="#01d8d1"/>
    <g id="Grupo_1016921" data-name="Grupo 1016921" transform="translate(-18804.592 -6575.47)">
      <g id="Grupo_1016920" data-name="Grupo 1016920" clip-path="url(#clip-path)">
        <path id="Trazado_717092" data-name="Trazado 717092" d="M44.828,89.833H3.255c-.468,0-.937.019-1.4-.012a1.682,1.682,0,0,1-1.8-1.742,1.654,1.654,0,0,1,1.8-1.737c1.694-.045,3.393-.072,5.086,0,.939.041,1.18-.269,1.156-1.174-.061-2.279-.052-4.561,0-6.84.018-.835-.244-1.055-1.084-1.1-5.026-.25-7-2.353-7-7.343Q0,39.809,0,9.727C0,3.629,3.6,0,9.663,0Q44.922,0,80.18,0c6.055,0,9.654,3.632,9.656,9.73q0,30.171,0,60.341c0,4.754-2.15,7.043-6.833,7.158-1,.025-1.287.3-1.259,1.282.067,2.278.051,4.561,0,6.84-.015.766.207,1.016.983.987,1.518-.057,3.041.007,4.56-.024,1.3-.027,2.486.232,2.481,1.769s-1.2,1.758-2.494,1.757q-21.225-.02-42.45-.008M68.766,57.421A2.106,2.106,0,0,1,67.01,55c.058-2.455.008-4.912.019-7.368.009-2.123.543-2.647,2.725-2.656,2.982-.013,5.965-.006,8.948,0,2.646,0,3.062.413,3.062,3.025,0,8.128.017,16.257-.02,24.386,0,.993.112,1.443,1.292,1.4,2.414-.1,3.289-.914,3.289-3.475,0-17.485-.022-34.97.044-52.455.006-1.544-.472-1.743-1.846-1.741q-39.65.063-79.3.006c-1.275,0-1.758.189-1.752,1.651.06,17.485.038,34.97.042,52.456a6.67,6.67,0,0,0,.086,1.57c.356,1.449,1.713,2.164,3.644,1.95,1.625-.179.61-1.428.79-2.16a8.8,8.8,0,0,0,.035-2.271c-.041-1.633.774-2.314,2.37-2.3,3.333.032,6.667-.006,10,.016,1.8.012,2.343.6,2.369,2.453.029,2.1.042,4.207.061,6.311-.019,2.279-.051,4.559-.056,6.838-.009,3.882,0,3.851,3.858,3.715.841-.03,1.087-.244,1.07-1.084-.064-3.155-.056-6.313-.075-9.469q.029-12.717.06-25.435c.007-2.255.426-2.692,2.631-2.7q4.649-.019,9.3,0c2.437.006,2.8.386,2.807,2.878q.03,12.63.059,25.26c-.019,2.279-.051,4.559-.056,6.838-.009,3.882,0,3.851,3.858,3.715.841-.03,1.087-.244,1.07-1.084-.065-3.155-.057-6.313-.076-9.469q.029-5.348.06-10.7c.014-2.083.526-2.624,2.543-2.633q4.824-.021,9.649,0c2.018.009,2.529.55,2.543,2.633q.036,5.348.06,10.7c-.019,2.279-.05,4.559-.055,6.838-.009,3.882,0,3.851,3.858,3.715.841-.03,1.087-.244,1.07-1.084-.064-3.155-.057-6.313-.076-9.469.02-2.545.085-5.091.04-7.635-.024-1.344.41-2.24,1.771-2.563,1.389.326,1.783,1.256,1.773,2.6-.04,5.554-.007,11.109-.027,16.664,0,.886-.052,1.572,1.228,1.489,1.805-.117,3.625-.069,5.435-.013.854.026,1.082-.275,1.081-1.1q-.033-17.8,0-35.609c0-.766-.124-1.193-1.041-1.164-1.87.059-3.743.053-5.612,0-.855-.024-1.113.293-1.091,1.117.047,1.753-.034,3.509.029,5.261.049,1.354-.372,2.283-1.785,2.575M44.908,12.634H84.367c.409,0,.819-.016,1.227,0,.508.02.656-.212.745-.712C87.308,6.469,84.846,3.51,79.3,3.51H10.381c-.585,0-1.171-.018-1.753.016a5.264,5.264,0,0,0-5.1,5.04c-.048.757.067,1.531-.039,2.277-.207,1.448.3,1.835,1.781,1.828,13.211-.064,26.422-.037,39.634-.037M38.952,68.9c0-5.439-.034-10.878.028-16.316.013-1.161-.32-1.5-1.46-1.44-1.69.094-3.392.063-5.086.008-.863-.028-1.224.16-1.222,1.136q.05,16.491,0,32.983c0,.859.273,1.1,1.1,1.069a43.384,43.384,0,0,1,5.084.018c1.406.12,1.6-.435,1.582-1.669-.066-5.262-.028-10.526-.028-15.789M58.6,76.258c0-3.036-.029-6.072.019-9.107.014-.878-.172-1.244-1.141-1.2-1.806.078-3.62.067-5.428,0-.9-.032-1.2.2-1.19,1.152q.065,9.019,0,18.039c-.01,1.082.413,1.229,1.323,1.2,1.691-.06,3.389-.081,5.077.006,1.055.054,1.407-.214,1.373-1.333-.086-2.916-.029-5.837-.029-8.756M11.583,78.446c0,2.214.051,4.43-.023,6.642-.034,1.012.3,1.3,1.278,1.256,1.745-.074,3.5-.053,5.244-.007.829.022,1.254-.1,1.242-1.109-.052-4.544-.042-9.09-.005-13.634.007-.85-.272-1.1-1.1-1.076-1.864.051-3.731.057-5.593,0-.873-.027-1.076.307-1.06,1.112.044,2.272.016,4.545.015,6.817" transform="translate(0 0)" fill="#010101"/>
        <path id="Trazado_717093" data-name="Trazado 717093" d="M68.585,105.566q-.029-5.348-.06-10.7c-.014-2.084-.526-2.624-2.543-2.633q-4.824-.021-9.649,0c-2.018.009-2.529.549-2.543,2.633q-.036,5.348-.06,10.7h-4.8q-.029-12.63-.059-25.26c-.006-2.492-.371-2.872-2.807-2.878q-4.649-.011-9.3,0c-2.2.009-2.624.446-2.63,2.7q-.035,12.718-.06,25.435h-4.8c-.02-2.1-.032-4.207-.061-6.311-.026-1.853-.573-2.442-2.369-2.453-3.333-.022-6.667.016-10-.016-1.6-.015-2.411.666-2.37,2.3a8.784,8.784,0,0,1-.035,2.271c-.18.731.835,1.98-.79,2.16-1.931.213-3.289-.5-3.645-1.95a6.672,6.672,0,0,1-.086-1.571c0-17.485.018-34.971-.042-52.455,0-1.462.478-1.653,1.752-1.651q39.65.051,79.3-.006c1.374,0,1.851.2,1.846,1.742-.066,17.485-.04,34.97-.044,52.455,0,2.561-.875,3.379-3.29,3.474-1.179.047-1.3-.4-1.292-1.4.037-8.128.022-16.257.02-24.386,0-2.612-.416-3.021-3.063-3.025-2.982,0-5.965-.011-8.947,0-2.182.01-2.715.534-2.725,2.656-.011,2.456.039,4.913-.019,7.368a2.105,2.105,0,0,0,1.755,2.418q-.023,1.3-.046,2.6c-.843.406-1.76.784-1.667,1.95a1.792,1.792,0,0,0,1.727,1.675v1.956c-1.361.323-1.8,1.219-1.771,2.563.045,2.544-.02,5.09-.04,7.636h-4.8M15.46,79.467a5.89,5.89,0,0,0,3.6,5.364,5.886,5.886,0,0,0,6.577-.773A5.719,5.719,0,0,0,27.8,77.667a2.546,2.546,0,0,1,.852-2.977q3.984-3.823,7.814-7.8c.858-.9,1.585-1.306,2.841-.8a4.03,4.03,0,0,0,3.251-.2c.885-.435,1.349-.1,1.935.49q5.113,5.177,10.29,10.291a1.37,1.37,0,0,1,.433,1.773,6.163,6.163,0,0,0,1.942,7.382,6.374,6.374,0,0,0,7.372.226,6.242,6.242,0,0,0,2.411-7.257,1.516,1.516,0,0,1,.407-1.826q5.244-5.17,10.414-10.414a1.581,1.581,0,0,1,1.683-.489A6.281,6.281,0,0,0,84.71,55a6.245,6.245,0,0,0-7.777-.02,6.016,6.016,0,0,0-1.806,7.528c.532,1.073.184,1.537-.482,2.2-3.16,3.122-6.315,6.249-9.418,9.427a1.966,1.966,0,0,1-2.551.645,4.667,4.667,0,0,0-3.438.038,1.461,1.461,0,0,1-1.816-.452q-5.236-5.3-10.538-10.535a1.472,1.472,0,0,1-.471-1.788,6.271,6.271,0,1,0-11.726.2,1.508,1.508,0,0,1-.428,1.935c-2.84,2.778-5.662,5.577-8.429,8.428a1.847,1.847,0,0,1-2.239.559c-4.052-1.293-8.1,1.713-8.131,6.3m5-27.583c-1.344,0-2.689-.026-4.033.008-1.16.03-1.935.63-1.889,1.826a1.675,1.675,0,0,0,1.877,1.662c2.689.016,5.378.021,8.066,0a1.749,1.749,0,1,0,.011-3.488c-1.344-.026-2.689-.006-4.033-.007m-.021,11.924c1.344,0,2.689.019,4.033-.006,1.169-.022,1.932-.624,1.9-1.814A1.672,1.672,0,0,0,24.5,60.314q-4.033-.035-8.066,0c-1.159.012-1.938.619-1.9,1.816A1.675,1.675,0,0,0,16.4,63.8c1.344.021,2.689,0,4.033.006m12.5-10.168c-.133-1.071-.7-1.771-1.811-1.721a1.721,1.721,0,0,0-.012,3.433c1.111.058,1.682-.637,1.823-1.712" transform="translate(-6.413 -29.771)" fill="#fdfdfd"/>
        <path id="Trazado_717094" data-name="Trazado 717094" d="M51.279,19.113c-13.211,0-26.423-.027-39.634.037-1.48.007-1.988-.38-1.782-1.828.106-.745-.009-1.519.039-2.277a5.263,5.263,0,0,1,5.1-5.04c.583-.034,1.169-.016,1.753-.016H85.674c5.544,0,8.006,2.958,7.037,8.412-.089.5-.237.731-.745.712-.408-.016-.818,0-1.228,0H51.279m13.875-2.808c6.309,0,12.619-.01,18.928.008,1.345,0,2.634-.193,2.578-1.846-.052-1.526-1.307-1.68-2.575-1.678q-18.928.021-37.856,0c-1.346,0-2.635.2-2.58,1.846.052,1.521,1.307,1.683,2.576,1.679,6.309-.019,12.619-.009,18.928-.009M17.6,12.8c-1,.149-1.682.679-1.7,1.689a1.606,1.606,0,0,0,1.733,1.774,1.588,1.588,0,0,0,1.688-1.646c.035-1.1-.668-1.667-1.717-1.817m6.973,0c-.991.179-1.665.715-1.66,1.73a1.606,1.606,0,0,0,1.775,1.732,1.587,1.587,0,0,0,1.647-1.686c.005-1.1-.707-1.652-1.763-1.775m6.947-.012c-.874.21-1.591.7-1.59,1.725a1.611,1.611,0,0,0,1.76,1.749,1.587,1.587,0,0,0,1.664-1.67c.018-1.105-.691-1.657-1.834-1.8" transform="translate(-6.372 -6.479)" fill="#fd5959"/>
        <path id="Trazado_717095" data-name="Trazado 717095" d="M195.758,155.15q0-.978,0-1.956c1.015-.183,1.738-.695,1.725-1.806s-.858-1.536-1.785-1.818q.023-1.3.046-2.6c1.414-.292,1.835-1.221,1.786-2.575-.064-1.752.018-3.509-.029-5.261-.022-.824.235-1.14,1.091-1.117,1.87.051,3.743.057,5.612,0,.917-.029,1.042.4,1.041,1.164q-.023,17.8,0,35.609c0,.826-.227,1.128-1.081,1.1-1.811-.055-3.631-.1-5.435.013-1.281.083-1.232-.6-1.229-1.489.02-5.555-.014-11.11.027-16.664.01-1.347-.384-2.278-1.773-2.6" transform="translate(-126.979 -89.553)" fill="#fd5959"/>
        <path id="Trazado_717096" data-name="Trazado 717096" d="M96.626,163.387c0,5.263-.038,10.527.028,15.789.016,1.234-.176,1.789-1.582,1.669a43.318,43.318,0,0,0-5.085-.018c-.825.027-1.1-.21-1.1-1.07q.04-16.491,0-32.983c0-.976.359-1.164,1.222-1.136,1.694.054,3.4.086,5.086-.008,1.14-.064,1.473.279,1.46,1.44-.063,5.438-.028,10.877-.028,16.316" transform="translate(-57.674 -94.488)" fill="#f4c76e"/>
        <path id="Trazado_717097" data-name="Trazado 717097" d="M152.58,198.114c0,2.919-.057,5.84.029,8.756.033,1.118-.318,1.387-1.373,1.333-1.689-.087-3.386-.066-5.077-.006-.911.033-1.333-.115-1.323-1.2q.081-9.019,0-18.039c-.007-.949.293-1.184,1.19-1.152,1.807.064,3.621.075,5.428,0,.969-.042,1.155.323,1.141,1.2-.048,3.035-.018,6.071-.018,9.107" transform="translate(-93.976 -121.856)" fill="#78d1f9"/>
        <path id="Trazado_717098" data-name="Trazado 717098" d="M32.937,208.743c0-2.273.029-4.546-.015-6.817-.015-.805.188-1.14,1.06-1.112,1.863.059,3.73.053,5.593,0,.825-.023,1.1.225,1.1,1.076-.036,4.545-.046,9.09.006,13.634.012,1.005-.413,1.131-1.242,1.109-1.747-.046-3.5-.067-5.243.007-.983.042-1.312-.244-1.279-1.256.074-2.212.023-4.428.023-6.642" transform="translate(-21.355 -130.297)" fill="#a4db69"/>
        <path id="Trazado_717099" data-name="Trazado 717099" d="M65.022,215.85h4.8c.019,3.156.012,6.313.076,9.469.017.839-.229,1.054-1.07,1.084-3.862.136-3.867.167-3.858-3.715.005-2.279.036-4.558.055-6.838" transform="translate(-42.153 -140.054)" fill="#f7f9fa"/>
        <path id="Trazado_717100" data-name="Trazado 717100" d="M120.985,215.85h4.8c.019,3.156.012,6.313.076,9.469.017.839-.229,1.054-1.07,1.084-3.862.136-3.867.167-3.858-3.715.005-2.279.036-4.559.055-6.838" transform="translate(-78.465 -140.054)" fill="#f7f9fa"/>
        <path id="Trazado_717101" data-name="Trazado 717101" d="M176.948,215.85h4.8c.019,3.156.012,6.313.076,9.469.017.839-.229,1.054-1.07,1.084-3.862.136-3.867.167-3.858-3.715.005-2.279.036-4.559.055-6.838" transform="translate(-114.776 -140.054)" fill="#f7f9fa"/>
        <path id="Trazado_717102" data-name="Trazado 717102" d="M25.763,93.786c.031-4.588,4.079-7.595,8.131-6.3a1.847,1.847,0,0,0,2.24-.559c2.767-2.851,5.588-5.65,8.428-8.428a1.507,1.507,0,0,0,.428-1.935,6.173,6.173,0,0,1,2.066-7.342,6.26,6.26,0,0,1,9.66,7.137,1.472,1.472,0,0,0,.471,1.788q5.3,5.24,10.537,10.535a1.461,1.461,0,0,0,1.816.452,4.667,4.667,0,0,1,3.438-.038,1.966,1.966,0,0,0,2.551-.645c3.1-3.178,6.258-6.305,9.417-9.427.667-.659,1.014-1.123.482-2.2A6.016,6.016,0,0,1,87.236,69.3a6.286,6.286,0,0,1,9.585,7.579,6.154,6.154,0,0,1-7.079,3.5,1.58,1.58,0,0,0-1.683.489Q82.88,86.1,77.645,91.278a1.517,1.517,0,0,0-.407,1.826,6.242,6.242,0,0,1-2.411,7.257,6.375,6.375,0,0,1-7.372-.226,6.163,6.163,0,0,1-1.942-7.382,1.37,1.37,0,0,0-.433-1.773q-5.17-5.12-10.29-10.291c-.586-.594-1.051-.925-1.935-.49a4.029,4.029,0,0,1-3.251.2c-1.256-.5-1.983-.1-2.841.8q-3.818,3.989-7.814,7.8a2.545,2.545,0,0,0-.852,2.977,5.718,5.718,0,0,1-2.155,6.391,5.885,5.885,0,0,1-6.577.773,5.89,5.89,0,0,1-3.6-5.364M93.91,74.2a2.8,2.8,0,1,0-2.7,2.856,2.82,2.82,0,0,0,2.7-2.856m-40.322.127a2.764,2.764,0,0,0-2.652-2.865,2.8,2.8,0,1,0-.145,5.592,2.772,2.772,0,0,0,2.8-2.727M32.1,90.714a2.69,2.69,0,0,0-2.814,2.7,2.8,2.8,0,0,0,2.7,2.869,2.907,2.907,0,0,0,2.861-2.759A2.778,2.778,0,0,0,32.1,90.714m41.964,4.366a2.765,2.765,0,1,0-2.7,2.831,2.736,2.736,0,0,0,2.7-2.831" transform="translate(-16.716 -44.09)" fill="#060606"/>
        <path id="Trazado_717103" data-name="Trazado 717103" d="M29.047,62.957c1.344,0,2.689-.019,4.033.006a1.749,1.749,0,1,1-.011,3.488c-2.688.024-5.378.018-8.066,0a1.675,1.675,0,0,1-1.877-1.662c-.046-1.2.729-1.8,1.889-1.826,1.343-.034,2.689-.008,4.033-.008" transform="translate(-15.004 -40.843)" fill="#030303"/>
        <path id="Trazado_717104" data-name="Trazado 717104" d="M29.026,90.439c-1.345,0-2.689.016-4.033-.006a1.676,1.676,0,0,1-1.868-1.671c-.039-1.2.74-1.8,1.9-1.816q4.033-.041,8.066,0a1.672,1.672,0,0,1,1.868,1.674c.033,1.19-.73,1.792-1.9,1.814-1.344.025-2.688.006-4.033.005" transform="translate(-15.004 -56.402)" fill="#030303"/>
        <path id="Trazado_717105" data-name="Trazado 717105" d="M69.207,64.792c-.141,1.075-.712,1.77-1.823,1.712a1.721,1.721,0,0,1,.012-3.433c1.109-.05,1.678.649,1.811,1.721" transform="translate(-42.688 -40.922)" fill="#060606"/>
        <path id="Trazado_717106" data-name="Trazado 717106" d="M192.606,170.914c.926.283,1.772.692,1.785,1.818s-.71,1.623-1.725,1.807a1.792,1.792,0,0,1-1.727-1.675c-.092-1.166.824-1.544,1.667-1.95" transform="translate(-123.887 -110.898)" fill="#0b0404"/>
        <path id="Trazado_717107" data-name="Trazado 717107" d="M127.662,21.485c-6.309,0-12.619-.011-18.928.009-1.269,0-2.525-.158-2.576-1.678-.056-1.649,1.234-1.848,2.58-1.846q18.928.019,37.856,0c1.267,0,2.523.152,2.574,1.678.056,1.654-1.233,1.85-2.578,1.846-6.309-.018-12.619-.008-18.928-.008" transform="translate(-68.879 -11.659)" fill="#010000"/>
        <path id="Trazado_717108" data-name="Trazado 717108" d="M28.813,18c1.049.15,1.752.712,1.717,1.817a1.587,1.587,0,0,1-1.688,1.646,1.606,1.606,0,0,1-1.733-1.774c.021-1.01.7-1.539,1.7-1.689" transform="translate(-17.59 -11.677)" fill="#0b0404"/>
        <path id="Trazado_717109" data-name="Trazado 717109" d="M48.754,18c1.056.124,1.768.671,1.763,1.775a1.588,1.588,0,0,1-1.647,1.687,1.607,1.607,0,0,1-1.775-1.732c-.005-1.015.669-1.551,1.66-1.73" transform="translate(-30.558 -11.677)" fill="#0b0404"/>
        <path id="Trazado_717110" data-name="Trazado 717110" d="M68.667,17.963c1.143.147,1.852.7,1.834,1.8a1.587,1.587,0,0,1-1.664,1.67,1.611,1.611,0,0,1-1.76-1.749c0-1.029.716-1.515,1.59-1.725" transform="translate(-43.523 -11.655)" fill="#0b0404"/>
        <path id="Trazado_717111" data-name="Trazado 717111" d="M209.484,80.7a2.8,2.8,0,1,1-2.81-2.741,2.832,2.832,0,0,1,2.81,2.741" transform="translate(-132.291 -50.581)" fill="#f25555"/>
        <path id="Trazado_717112" data-name="Trazado 717112" d="M94.691,80.823a2.772,2.772,0,0,1-2.8,2.727,2.8,2.8,0,1,1,.145-5.592,2.763,2.763,0,0,1,2.652,2.865" transform="translate(-57.82 -50.582)" fill="#ecc16a"/>
        <path id="Trazado_717113" data-name="Trazado 717113" d="M38.615,132.777a2.777,2.777,0,0,1,2.747,2.812,2.907,2.907,0,0,1-2.861,2.759,2.8,2.8,0,0,1-2.7-2.869,2.689,2.689,0,0,1,2.814-2.7" transform="translate(-23.229 -86.152)" fill="#9fd465"/>
        <path id="Trazado_717114" data-name="Trazado 717114" d="M153.1,140.225a2.765,2.765,0,1,1-2.837-2.7,2.733,2.733,0,0,1,2.837,2.7" transform="translate(-95.753 -89.234)" fill="#75cdf4"/>
      </g>
    </g>
  </g>
</svg>
