<svg xmlns="http://www.w3.org/2000/svg" xmlns:xlink="http://www.w3.org/1999/xlink" width="159.83" height="159.831" viewBox="0 0 159.83 159.831">
  <defs>
    <clipPath id="clip-path">
      <rect id="Rectángulo_349888" data-name="Rectángulo 349888" width="111.784" height="82.048" fill="none"/>
    </clipPath>
  </defs>
  <g id="Grupo_1018017" data-name="Grupo 1018017" transform="translate(18481.912 6612.331)">
    <circle id="Elipse_5867" data-name="Elipse 5867" cx="79.916" cy="79.916" r="79.916" transform="translate(-18481.912 -6612.331)" fill="#01d8d1"/>
    <g id="Grupo_1016923" data-name="Grupo 1016923" transform="translate(-18457.889 -6578.152)">
      <g id="Grupo_1016922" data-name="Grupo 1016922" clip-path="url(#clip-path)">
        <path id="Trazado_717115" data-name="Trazado 717115" d="M94.364,80.338c-.232.874-.643,1.622-1.647,1.7-1.177.086-1.494-.867-1.872-1.709.036-3.993-.217-8.017.2-11.971.359-3.435-2.052-4.834-3.866-6.773-.6-.644-1.293-.136-1.77.166-.5.319.044.743.272,1.067a10.183,10.183,0,0,1,1.655,6.193c-.032,3.777.032,7.554.055,11.332-.2.884-.632,1.606-1.613,1.693-1.15.1-1.5-.832-1.906-1.65.025-4.238.065-8.475.065-12.712a3.782,3.782,0,0,0-1.211-3.1,4.144,4.144,0,0,0-2.567-1.881c-2.927-1.082-5.879-2.1-8.779-3.253a1.677,1.677,0,0,0-2.442.873c-1.036,1.748-2.191,3.433-3.386,5.078-1.487,2.046-3.534,2.235-5.423.566-.774-.684-1.5-1.43-2.456-2.352V80.37c-.29.817-.652,1.6-1.658,1.661-1.151.075-1.513-.81-1.874-1.663V63.963l-.6-.374a14.643,14.643,0,0,1-1.4,1.907c-2.336,2.32-4.379,2.1-6.261-.649-1.027-1.5-2.095-2.975-3-4.546a1.671,1.671,0,0,0-2.448-.86c-2.9,1.142-5.85,2.161-8.774,3.243a4.127,4.127,0,0,0-2.552,1.9A3.489,3.489,0,0,0,27.9,67.453c0,4.316.032,8.631.053,12.947-.4.83-.778,1.733-1.92,1.631-.985-.089-1.38-.846-1.627-1.7.029-3.925.074-7.85.077-11.775a12.716,12.716,0,0,1,.618-3.85c.177-.564,1.077-1.157.009-1.828-.89-.56-1.393-.184-2.052.4-4.3,3.823-6.939,3.791-11.412-.046-.4-.345-.7-1.027-1.44-.587-1.918,1.133-4.162,1.686-5.825,3.273a2.7,2.7,0,0,0-1.06,2.49c-.014,3.994.053,7.989.09,11.983-.415.98-.92,1.955-2.207,1.561C.134,81.631-.008,80.673,0,79.652c.03-3.564.047-7.128,0-10.691a7.125,7.125,0,0,1,4.43-7.1c1.168-.547,2.3-1.175,3.59-1.84-2.033-1.248-4.04-2.3-5.412-4.16-.526-.713-1.065-1.4-.69-2.374,1.582-4.1,1.372-8.431,1.557-12.7.309-7.159,4.838-12.945,11.273-14.215A13.752,13.752,0,0,1,31,38.285c.519,3.511.547,7.094.832,10.641a17.308,17.308,0,0,0,.425,2.577c.853,3.608.558,4.469-2.5,6.673-.875.63-1.825,1.157-2.785,1.759a1.4,1.4,0,0,0,1.872.461,36.511,36.511,0,0,1,6.28-2.41c3.519-.835,5.906-3.035,8.025-5.725,1.007-1.278.808-5.914-.363-7.086a20.23,20.23,0,0,1-6.034-14.711,20.316,20.316,0,0,0-.832-5.751A23.724,23.724,0,0,1,35.8,10.957,15.349,15.349,0,0,1,50.3.05c8-.1,16-.02,24-.043,1.29,0,2.495.222,2.49,1.752-.017,6.614.652,13.287-.29,19.822-.606,4.2-1.357,8.376-1.743,12.624a17.644,17.644,0,0,1-5.614,11.032c-1.359,1.345-1.33,5.634-.348,7.194,2.765,4.392,7.433,5.4,11.815,6.854,2.247.745,5.178-1.228,5.111-3.037a2.116,2.116,0,0,0-.824-1.659,13.044,13.044,0,0,1-4.441-10.683,6.426,6.426,0,0,0-.6-2.937A10.149,10.149,0,0,1,87.326,26.49a10.989,10.989,0,0,1,1.946-.23c4.946-.021,9.892,0,14.838-.023,1.446-.005,2.493.458,2.4,2.089-.253,4.585.906,9.313-1.533,13.7-.441.792-.189,1.991-.191,3a11.671,11.671,0,0,1-4.329,9.575c-1.081.867-.972,1.857-.887,2.914.088,1.108,1.143.962,1.841,1.185,1.8.572,3.638,1,5.427,1.59A6.8,6.8,0,0,1,111.757,67c.053,4.217,0,8.436.027,12.655.007,1.02-.129,1.98-1.2,2.3-1.287.389-1.8-.573-2.2-1.565.036-4.456.1-8.911.083-13.367a2.642,2.642,0,0,0-1.029-2.469c-1.945-1.867-4.6-1.879-6.966-2.645-2.329-.756-6.14,2.011-6.16,4.5-.038,4.642.031,9.286.056,13.929M60.989,53.762c3.975-2.072,4.087-2.236,3.419-5.175A19.272,19.272,0,0,1,47.28,48.53C46.313,51.942,48.9,52.6,50.8,53.752c4.763,4.079,5.1,4.092,9.937.348a1.543,1.543,0,0,0,.249-.339M8.642,44.538c-.18,3.491.95,6.336,4.046,8.214a8.468,8.468,0,0,0,12.678-3.841c1.07-1.382.727-2.662-.265-3.91-2.463-3.1-5.815-4.394-9.621-4.84-1.085-.128-1.558.616-2.128,1.233-.9.976-1.809,1.9-3.281,1.848-1.1-1.5-.75-2.742.6-3.906a27.752,27.752,0,0,0,2.064-2.188,5.378,5.378,0,0,1,3.606-.27,18.305,18.305,0,0,1,11.48,6.014,11.722,11.722,0,0,0-.689-6.276c-2.592-6.982-11.349-9.334-16.237-4.374C8.133,34.39,7.141,37.31,6.874,40.7c-.139,1.766-.449,3.294,1.768,3.837M83.629,40.2c.071,1.872.058,3.751.234,5.613A8.435,8.435,0,0,0,87.7,52.516a6.574,6.574,0,0,0,4.117,1.654c6.129.453,10.188-4.224,9.5-10.945l.587-3.038c2.049-2.713.872-5.865,1.2-8.812.148-1.326-.412-1.765-1.733-1.744-4.123.067-8.248,0-12.371.045a5.934,5.934,0,0,0-5.21,2.58c-2.266,2.642-2.334,5.834-.169,7.939M40.34,28.115A16.238,16.238,0,0,0,51.428,46.529a15.021,15.021,0,0,0,15.308-3.585c4.294-4,5.738-9.059,4.683-14.828.563-2.972,2.125-5.679,2.025-8.849-.144-4.573-.093-9.156,0-13.733.032-1.582-.378-2.156-2.058-2.135-6.976.089-13.953.039-20.93.044a7.725,7.725,0,0,0-4.185.9,12.088,12.088,0,0,0-7.9,10.614A36.2,36.2,0,0,0,40.34,28.115M49.3,64.027c1.2-1.332,2.113-2.471,3.163-3.463.888-.839.54-1.2-.29-1.732-1.831-1.174-3.624-2.411-5.387-3.684-.77-.556-1.3-.649-2.022.126a1.235,1.235,0,0,0-.1,1.857c1.49,2.14,2.915,4.325,4.635,6.9m13.483-.393c1.472-2.2,2.919-4.439,4.454-6.615.57-.807.236-1.24-.287-1.839-.644-.737-1.172-.579-1.837-.074-.8.609-1.663,1.145-2.5,1.714-4.439,3.029-4.44,3.03-.307,6.6a2.152,2.152,0,0,0,.474.211M17.311,62.8c1.675.054,3.837-1.731,3.905-3.03.137-2.615-1.174-2.755-3.248-2.263a9.875,9.875,0,0,1-3-.24c-.485-.046-.912-.221-1.142.552A3.888,3.888,0,0,0,17.311,62.8m72.911-5.54c-.392.01-.926-.347-1.107.25a1.583,1.583,0,0,0,.048,1.247c.943,1.089,1.985,2.092,3.013,3.1a.608.608,0,0,0,.946-.027c.961-.979,1.946-1.937,2.889-2.933a1.2,1.2,0,0,0,.1-1.427c-.259-.484-.774-.267-1.17-.171a9.475,9.475,0,0,1-4.72-.044M6.34,50.691C5.128,54.3,5.214,54.576,7.83,56.068a3.762,3.762,0,0,0,.773.4c.573.166,1.2.986,1.707.346.5-.618.107-1.377-.517-1.9A16.485,16.485,0,0,1,6.34,50.691m22.209-.055c-.674.99-1.1,1.747-1.655,2.4a21.2,21.2,0,0,1-2,1.977,1.346,1.346,0,0,0-.336,1.763c.441.681,1.04.014,1.493-.193,3.285-1.5,3.546-2.1,2.5-5.944" transform="translate(0 0)" fill="#080606"/>
        <path id="Trazado_717116" data-name="Trazado 717116" d="M132.04,156.728V139.957c.96.923,1.681,1.668,2.456,2.352,1.889,1.668,3.936,1.479,5.423-.566,1.2-1.645,2.35-3.329,3.386-5.077a1.676,1.676,0,0,1,2.442-.873c2.9,1.151,5.851,2.17,8.779,3.253a4.139,4.139,0,0,1,2.566,1.881c-1.865,1.047-3.093,2.793-4.587,4.241-.9.874-2.157,1.562-2.208,3.073-1.729-.307-2.42.572-2.453,2.169-.043,2.1-.066,4.2-.1,6.307l-15.707.01" transform="translate(-74.369 -76.357)" fill="#fc4f7c"/>
        <path id="Trazado_717117" data-name="Trazado 717117" d="M66.643,140.938a4.127,4.127,0,0,1,2.552-1.894c2.925-1.083,5.874-2.1,8.774-3.244a1.672,1.672,0,0,1,2.448.86c.9,1.571,1.97,3.049,3,4.546,1.881,2.745,3.925,2.968,6.261.649a14.7,14.7,0,0,0,1.4-1.907l.6.373v16.406l-15.7-.006c-.029-2.066-.063-4.133-.084-6.2-.017-1.661-.677-2.6-2.5-2.266-1.414-3.211-4.272-5.092-6.753-7.319" transform="translate(-37.535 -76.359)" fill="#fc4f7c"/>
        <path id="Trazado_717118" data-name="Trazado 717118" d="M10.032,146.528c1.663-1.587,3.907-2.141,5.825-3.274.744-.439,1.037.243,1.44.587,4.473,3.837,7.113,3.87,11.411.046.66-.587,1.163-.963,2.053-.4,1.068.671.168,1.264-.009,1.828a12.733,12.733,0,0,0-.618,3.85c0,3.925-.048,7.851-.077,11.776l-13.951-.016c-.043-2.39-.17-4.782-.1-7.168.047-1.558-.517-2.459-2.028-2.777a18.458,18.458,0,0,1-1.524-1.825c-.662-1.023-2.278-1.147-2.422-2.625" transform="translate(-5.65 -80.605)" fill="#d3daea"/>
        <path id="Trazado_717119" data-name="Trazado 717119" d="M215.963,160.014c-.024-4.643-.093-9.286-.056-13.929.02-2.484,3.831-5.25,6.16-4.5,2.362.767,5.02.778,6.966,2.645A15.228,15.228,0,0,1,225.2,148c-1.81-.106-2.143,1.032-2.152,2.5-.02,3.166-.072,6.332-.111,9.5l-6.978.019" transform="translate(-121.599 -79.676)" fill="#d3daea"/>
        <path id="Trazado_717120" data-name="Trazado 717120" d="M65.084,147.854c2.482,2.227,5.339,4.108,6.753,7.319a2.943,2.943,0,0,0-.908,2.511c.018,2-.033,4-.055,5.993l-6.945,0c-.021-4.315-.056-8.631-.053-12.946a3.493,3.493,0,0,1,1.209-2.876" transform="translate(-35.977 -83.276)" fill="#d03c68"/>
        <path id="Trazado_717121" data-name="Trazado 717121" d="M173.841,155.148c.051-1.511,1.306-2.2,2.208-3.073,1.494-1.448,2.722-3.194,4.587-4.241a3.781,3.781,0,0,1,1.211,3.1c0,4.238-.04,8.475-.065,12.712l-6.963.024c-.021-1.934-.065-3.869-.053-5.8a2.978,2.978,0,0,0-.924-2.719" transform="translate(-97.912 -83.264)" fill="#d03c68"/>
        <path id="Trazado_717122" data-name="Trazado 717122" d="M197.255,159.347c-.024-3.777-.087-7.555-.055-11.332a10.187,10.187,0,0,0-1.655-6.193c-.228-.324-.776-.748-.272-1.067.477-.3,1.167-.811,1.77-.166,1.814,1.939,4.225,3.338,3.866,6.773-.413,3.954-.16,7.978-.2,11.971l-3.457.015" transform="translate(-109.867 -79.009)" fill="#d3daea"/>
        <path id="Trazado_717123" data-name="Trazado 717123" d="M237.208,151.571a15.235,15.235,0,0,0,3.829-3.762,2.642,2.642,0,0,1,1.029,2.469c.017,4.456-.048,8.911-.083,13.367l-3.528-.046c-.024-3.161-.07-6.323-.06-9.485,0-1.067-.111-2.012-1.188-2.543" transform="translate(-133.603 -83.25)" fill="#bbc3d5"/>
        <path id="Trazado_717124" data-name="Trazado 717124" d="M8.662,150.934c.144,1.479,1.76,1.6,2.422,2.625a18.458,18.458,0,0,0,1.524,1.825,2.573,2.573,0,0,0-1.345,2.67c.045,2.433-.03,4.869-.055,7.3l-3.517.05c-.037-3.995-.1-7.989-.09-11.983a2.7,2.7,0,0,1,1.061-2.49" transform="translate(-4.28 -85.01)" fill="#bbc3d5"/>
        <path id="Trazado_717125" data-name="Trazado 717125" d="M234.289,156.413c1.077.531,1.191,1.476,1.188,2.543-.01,3.162.036,6.324.06,9.485-.2.9-.65,1.621-1.644,1.691-1.173.083-1.494-.873-1.866-1.72.039-3.166.091-6.331.111-9.5.009-1.469.342-2.607,2.152-2.5" transform="translate(-130.684 -88.093)" fill="#0d0e0f"/>
        <path id="Trazado_717126" data-name="Trazado 717126" d="M15.862,171.1c.025-2.435.1-4.87.055-7.3a2.573,2.573,0,0,1,1.344-2.67c1.511.317,2.076,1.218,2.029,2.777-.072,2.387.056,4.779.1,7.168-.383.842-.7,1.8-1.878,1.721-1-.07-1.445-.791-1.649-1.692" transform="translate(-8.934 -90.749)" fill="#0d0e0f"/>
        <path id="Trazado_717127" data-name="Trazado 717127" d="M79.9,173.03c.023-2,.074-4,.055-5.993a2.945,2.945,0,0,1,.908-2.512c1.819-.332,2.479.6,2.5,2.266.021,2.067.056,4.134.085,6.2-.357.8-.672,1.676-1.761,1.674-1.063,0-1.471-.781-1.783-1.635" transform="translate(-45.001 -92.628)" fill="#10070a"/>
        <path id="Trazado_717128" data-name="Trazado 717128" d="M170.552,164.5a2.978,2.978,0,0,1,.924,2.719c-.012,1.934.032,3.869.053,5.8-.273.889-.724,1.621-1.771,1.63-1.092.009-1.382-.895-1.757-1.676.032-2.1.055-4.2.1-6.307.033-1.6.724-2.477,2.453-2.169" transform="translate(-94.623 -92.618)" fill="#10070a"/>
        <path id="Trazado_717129" data-name="Trazado 717129" d="M134.427,55.631c1.055,5.769-.389,10.824-4.683,14.828a15.02,15.02,0,0,1-15.308,3.585c-.319-2.154-1.73-3.91-2.114-6.072-.792-4.472-.283-8.961-.386-13.439-.1-4.376,1.219-5.474,5.692-5.648a38.8,38.8,0,0,1,13.446,1.788c.264,2.23,1.016,4.13,3.353,4.959" transform="translate(-63.008 -27.515)" fill="#eebf86"/>
        <path id="Trazado_717130" data-name="Trazado 717130" d="M129.925,32.5c-2.337-.829-3.089-2.729-3.353-4.959a.679.679,0,0,0,.025-.412c2.228-1.287,2.314-2.164.325-3.819a15.483,15.483,0,0,0-5.35-2.764c-4.773-1.51-9.681-1.348-14.589-1.226-1.4-1.8-3.057-3.393-3.107-5.965-.032-1.651.96-3.022.9-4.628a7.732,7.732,0,0,1,4.185-.9c6.977,0,13.954.045,20.93-.045,1.679-.021,2.09.554,2.058,2.135-.093,4.576-.143,9.159,0,13.733.1,3.17-1.462,5.878-2.025,8.849" transform="translate(-58.506 -4.382)" fill="#684b4b"/>
        <path id="Trazado_717131" data-name="Trazado 717131" d="M119.769,46.268a.676.676,0,0,1-.026.412A38.8,38.8,0,0,0,106.3,44.893c-4.473.174-5.791,1.272-5.691,5.648.1,4.478-.407,8.967.386,13.439.383,2.162,1.794,3.918,2.114,6.073A16.238,16.238,0,0,1,92.018,51.638a4.481,4.481,0,0,0,3.022-3.825c2.333-.151,2.073-1.917,1.945-3.385-.143-1.651.426-2.3,2.069-2.4,7.291-.431,14.587-.982,20.714,4.241" transform="translate(-51.677 -23.524)" fill="#e3ad77"/>
        <path id="Trazado_717132" data-name="Trazado 717132" d="M213.876,97.221c.684,6.722-3.375,11.4-9.5,10.945a6.574,6.574,0,0,1-4.117-1.654c.057-1.808-.471-3.556-.421-5.386.121-4.478,1.794-5.863,6.137-5.028,2.611.5,5.268.756,7.905,1.123" transform="translate(-112.55 -53.996)" fill="#eebf86"/>
        <path id="Trazado_717133" data-name="Trazado 717133" d="M191.859,70.464a5.934,5.934,0,0,1,5.21-2.579c4.124-.048,8.249.021,12.372-.046,1.32-.021,1.88.418,1.733,1.744-.328,2.947.849,6.1-1.2,8.811l-2.489-1.152c.307-1.344-.418-1.973-1.568-2.412a32.283,32.283,0,0,0-9.752-1.654,2.612,2.612,0,0,0-2.146.826c-1.893-.465-2.088-1.964-2.158-3.54" transform="translate(-108.061 -38.209)" fill="#684b4b"/>
        <path id="Trazado_717134" data-name="Trazado 717134" d="M24.937,70.414c4.889-4.96,13.646-2.607,16.237,4.374a11.72,11.72,0,0,1,.689,6.277,18.3,18.3,0,0,0-11.48-6.014,5.378,5.378,0,0,0-3.606.269c-2.076-1.087-1.668-3.106-1.841-4.907" transform="translate(-14.045 -38.173)" fill="#674949"/>
        <path id="Trazado_717135" data-name="Trazado 717135" d="M92.768,29.888a4.482,4.482,0,0,1-3.022,3.825,36.2,36.2,0,0,1-1.969-13.159,12.089,12.089,0,0,1,7.9-10.614c.06,1.606-.933,2.977-.9,4.628.05,2.572,1.712,4.169,3.107,5.965-.911.612-1.966.245-2.943.431-1.775.338-3.364,1.2-3.445,3.049-.086,1.981-1.218,4.386,1.272,5.875" transform="translate(-49.405 -5.598)" fill="#594045"/>
        <path id="Trazado_717136" data-name="Trazado 717136" d="M41.194,105.775a8.468,8.468,0,0,1-12.678,3.841c-.68-2.75-.774-5.09,1.72-7.4,1.5-1.389,2.382-1.571,3.982-.819a38.638,38.638,0,0,1,6.977,4.376" transform="translate(-15.828 -56.865)" fill="#eebf86"/>
        <path id="Trazado_717137" data-name="Trazado 717137" d="M207.266,87.875l2.489,1.152q-.293,1.519-.587,3.039c-2.637-.366-5.295-.62-7.905-1.122-4.342-.835-6.016.55-6.137,5.029-.049,1.83.478,3.578.421,5.385a8.434,8.434,0,0,1-3.842-6.707c-.176-1.862-.162-3.742-.234-5.613l2.445-2.321a5.591,5.591,0,0,0,1.432.442,30.182,30.182,0,0,1,9.941,1.624c.895.34,1.493-.217,1.975-.907" transform="translate(-107.843 -48.84)" fill="#e1ab76"/>
        <path id="Trazado_717138" data-name="Trazado 717138" d="M36.485,100.681a38.639,38.639,0,0,0-6.977-4.376c-1.6-.753-2.48-.571-3.982.819-2.494,2.308-2.4,4.648-1.72,7.4-3.1-1.878-4.226-4.723-4.046-8.214a2.218,2.218,0,0,0,1.429-1.3c1.473.055,2.38-.871,3.282-1.848.57-.617,1.043-1.361,2.127-1.233,3.806.446,7.158,1.742,9.621,4.84.992,1.248,1.335,2.528.266,3.91" transform="translate(-11.12 -51.77)" fill="#e1ab76"/>
        <path id="Trazado_717139" data-name="Trazado 717139" d="M111.5,116.332c-1.907-1.148-4.491-1.81-3.524-5.223a19.271,19.271,0,0,0,17.129.057c.668,2.939.556,3.1-3.42,5.175a38.731,38.731,0,0,1-10.185-.009" transform="translate(-60.698 -62.58)" fill="#cd976b"/>
        <path id="Trazado_717140" data-name="Trazado 717140" d="M106.418,134.581c-1.72-2.571-3.145-4.756-4.635-6.9a1.234,1.234,0,0,1,.1-1.857c.719-.775,1.252-.682,2.021-.126,1.764,1.274,3.557,2.51,5.388,3.684.829.532,1.178.893.29,1.732-1.05.991-1.96,2.131-3.162,3.463" transform="translate(-57.117 -70.553)" fill="#ca3a65"/>
        <path id="Trazado_717141" data-name="Trazado 717141" d="M139.185,134.144a2.174,2.174,0,0,1-.474-.211c-4.133-3.574-4.132-3.575.307-6.6.834-.569,1.693-1.105,2.5-1.714.666-.5,1.193-.663,1.837.074.523.6.857,1.032.287,1.839-1.535,2.176-2.981,4.415-4.454,6.615" transform="translate(-76.402 -70.509)" fill="#ca3a65"/>
        <path id="Trazado_717142" data-name="Trazado 717142" d="M18.806,84.819a2.219,2.219,0,0,1-1.429,1.3c-2.217-.543-1.907-2.07-1.768-3.837.268-3.391,1.259-6.311,4.019-8.46.172,1.8-.235,3.819,1.841,4.906A27.607,27.607,0,0,1,19.4,80.913c-1.348,1.163-1.7,2.4-.6,3.906" transform="translate(-8.736 -41.576)" fill="#594045"/>
        <path id="Trazado_717143" data-name="Trazado 717143" d="M34.929,136.577A3.888,3.888,0,0,1,31.44,131.6c.23-.773.656-.6,1.142-.552a9.858,9.858,0,0,0,3,.24c2.075-.492,3.386-.352,3.248,2.263-.068,1.3-2.23,3.084-3.9,3.03" transform="translate(-17.618 -73.78)" fill="#e1ab76"/>
        <path id="Trazado_717144" data-name="Trazado 717144" d="M205.007,130.967a9.463,9.463,0,0,0,4.719.045c.4-.1.911-.313,1.17.171a1.2,1.2,0,0,1-.1,1.427c-.944,1-1.928,1.954-2.89,2.933a.608.608,0,0,1-.946.027c-1.028-1.012-2.071-2.016-3.013-3.1a1.585,1.585,0,0,1-.048-1.247c.181-.6.715-.24,1.108-.251" transform="translate(-114.785 -73.71)" fill="#e1ab76"/>
        <path id="Trazado_717145" data-name="Trazado 717145" d="M191.883,79.47l-2.445,2.321c-2.165-2.1-2.1-5.3.169-7.94.07,1.576.266,3.075,2.159,3.54a2.382,2.382,0,0,0,.118,2.079" transform="translate(-105.808 -41.595)" fill="#594045"/>
        <path id="Trazado_717146" data-name="Trazado 717146" d="M116.316,123.067a38.731,38.731,0,0,0,10.185.009,1.493,1.493,0,0,1-.248.339c-4.835,3.744-5.175,3.731-9.937-.348" transform="translate(-65.513 -69.315)" fill="#e1ab76"/>
        <path id="Trazado_717147" data-name="Trazado 717147" d="M13.544,116.058A16.493,16.493,0,0,0,17,120.284c.623.52,1.012,1.279.517,1.9-.512.639-1.134-.18-1.707-.346a3.761,3.761,0,0,1-.773-.4c-2.616-1.492-2.7-1.766-1.49-5.377" transform="translate(-7.205 -65.367)" fill="#594045"/>
        <path id="Trazado_717148" data-name="Trazado 717148" d="M59.955,115.931c1.044,3.844.783,4.443-2.5,5.944-.454.207-1.053.874-1.493.193a1.346,1.346,0,0,1,.336-1.763,21.2,21.2,0,0,0,2-1.977c.553-.651.981-1.407,1.655-2.4" transform="translate(-31.407 -65.296)" fill="#674949"/>
        <path id="Trazado_717149" data-name="Trazado 717149" d="M97.213,43.453c-2.49-1.489-1.358-3.894-1.272-5.875.08-1.846,1.67-2.711,3.445-3.049.977-.186,2.032.181,2.943-.431,4.908-.121,9.816-.283,14.589,1.227a15.481,15.481,0,0,1,5.35,2.764c1.989,1.655,1.9,2.532-.326,3.819-6.127-5.222-13.423-4.672-20.714-4.241-1.643.1-2.212.75-2.069,2.4.127,1.468.387,3.235-1.946,3.385" transform="translate(-53.85 -19.163)" fill="#080606"/>
        <path id="Trazado_717150" data-name="Trazado 717150" d="M196.659,82.961a2.382,2.382,0,0,1-.118-2.079,2.61,2.61,0,0,1,2.146-.827,32.3,32.3,0,0,1,9.752,1.654c1.15.439,1.875,1.068,1.568,2.412-.482.689-1.081,1.247-1.975.906a30.17,30.17,0,0,0-9.941-1.624,5.607,5.607,0,0,1-1.432-.442" transform="translate(-110.584 -45.086)" fill="#080606"/>
      </g>
    </g>
  </g>
</svg>
