<svg xmlns="http://www.w3.org/2000/svg" width="295" height="141" viewBox="0 0 295 141">
  <g id="Grupo_1018037" data-name="Grupo 1018037" transform="translate(-284.668 -6501)">
    <rect id="Rectángulo_375667" data-name="Rectángulo 375667" width="295" height="141" transform="translate(284.668 6501)" fill="#d9f9f8"/>
    <g id="normatividad" transform="translate(366.804 6511.623)">
      <path id="Trazado_721540" data-name="Trazado 721540" d="M3.983,315.7v7.364h1.7a10.317,10.317,0,0,1,0-2.335c.163-.869,2.009-3.108,1.955-5.029Z" transform="translate(-2.573 -203.962)" fill="#ebebeb"/>
      <path id="Trazado_721541" data-name="Trazado 721541" d="M42.426,315.7v7.364h1.7a10.316,10.316,0,0,1,0-2.335c.163-.869,2.009-3.108,1.955-5.029Z" transform="translate(-27.41 -203.962)" fill="#9a9a9a"/>
      <path id="Trazado_721542" data-name="Trazado 721542" d="M73.376,315.7v7.364h-1.7a10.336,10.336,0,0,0,0-2.335c-.163-.869-2.009-3.108-1.955-5.029Z" transform="translate(-45.043 -203.962)" fill="#ebebeb"/>
      <path id="Trazado_721543" data-name="Trazado 721543" d="M106.654,315.7v7.364h-1.7a10.309,10.309,0,0,0,0-2.335c-.163-.869-2.009-3.108-1.955-5.029Z" transform="translate(-66.542 -203.962)" fill="#9a9a9a"/>
      <path id="Trazado_721544" data-name="Trazado 721544" d="M41.465,212.979H.715v36.6H41.465Z" transform="translate(-0.462 -137.597)" fill="#cacaca"/>
      <path id="Trazado_721545" data-name="Trazado 721545" d="M84.831,212.977l.3,36.6H95.809v-36.6Z" transform="translate(-54.806 -137.596)" fill="#9a9a9a"/>
      <path id="Trazado_721546" data-name="Trazado 721546" d="M32.059,220.585H5.9V229.9H32.059Z" transform="translate(-3.809 -142.511)" fill="#ebebeb"/>
      <path id="Trazado_721547" data-name="Trazado 721547" d="M32.059,252.139H5.9v9.312H32.059Z" transform="translate(-3.809 -162.897)" fill="#ebebeb"/>
      <path id="Trazado_721548" data-name="Trazado 721548" d="M32.059,283.692H5.9V293H32.059Z" transform="translate(-3.809 -183.282)" fill="#ebebeb"/>
      <path id="Trazado_721549" data-name="Trazado 721549" d="M32.171,183.268l-1.129,10.473H45.5l1.2-10.473Z" transform="translate(-20.056 -118.402)" fill="#9a9a9a"/>
      <path id="Trazado_721550" data-name="Trazado 721550" d="M33.907,185.394l-1.1,9.164H45.858l1.056-9.164Z" transform="translate(-21.197 -119.776)" fill="#fff"/>
      <path id="Trazado_721551" data-name="Trazado 721551" d="M40.882,189.749l-.675,6.081h8.235l.422-6.081Z" transform="translate(-25.976 -122.589)" fill="#ebebeb"/>
      <path id="Trazado_721552" data-name="Trazado 721552" d="M72.577,196.011l2.986,6-3.669-.042Z" transform="translate(-46.448 -126.635)" fill="#ebebeb"/>
      <path id="Trazado_721553" data-name="Trazado 721553" d="M42.065,233.367a.957.957,0,1,1-.957-.957A.957.957,0,0,1,42.065,233.367Z" transform="translate(-25.94 -150.151)" fill="#9a9a9a"/>
      <path id="Trazado_721554" data-name="Trazado 721554" d="M42.065,265.234a.957.957,0,1,1-.957-.957A.957.957,0,0,1,42.065,265.234Z" transform="translate(-25.94 -170.739)" fill="#9a9a9a"/>
      <path id="Trazado_721555" data-name="Trazado 721555" d="M42.065,297.1a.957.957,0,1,1-.957-.957A.957.957,0,0,1,42.065,297.1Z" transform="translate(-25.94 -191.326)" fill="#9a9a9a"/>
      <path id="Trazado_721556" data-name="Trazado 721556" d="M37.523,44.492l-23.106-.225.645,30.112,23.1.085Z" transform="translate(-9.314 -28.599)" fill="#9a9a9a"/>
      <path id="Trazado_721557" data-name="Trazado 721557" d="M38.568,47.738l-20.227-.526.585,27.31,20.221.249Z" transform="translate(-11.85 -30.502)" fill="#ececec"/>
      <path id="Trazado_721558" data-name="Trazado 721558" d="M41.237,59.816l-13.42-.223.409,19.089,13.409-.287Z" transform="translate(-17.972 -38.5)" fill="#ebebeb"/>
      <path id="Trazado_721559" data-name="Trazado 721559" d="M28.226,78.681l13.2-10.094L27.817,59.592Z" transform="translate(-17.972 -38.5)" fill="#cacaca"/>
      <path id="Trazado_721560" data-name="Trazado 721560" d="M323.607.2,303.336,0l.566,26.417,20.268.075Z" transform="translate(-195.974)" fill="#9a9a9a"/>
      <path id="Trazado_721561" data-name="Trazado 721561" d="M324.524,3.045,306.78,2.584l.513,23.958,17.739.219Z" transform="translate(-198.199 -1.669)" fill="#ececec"/>
      <path id="Trazado_721562" data-name="Trazado 721562" d="M326.866,13.641l-11.773-.2.359,16.746,11.763-.252Z" transform="translate(-203.569 -8.686)" fill="#ebebeb"/>
      <path id="Trazado_721563" data-name="Trazado 721563" d="M315.452,30.191l11.579-8.855-11.938-7.891Z" transform="translate(-203.569 -8.686)" fill="#cacaca"/>
      <path id="Trazado_721564" data-name="Trazado 721564" d="M296.45,281.177c-.086.259,2.938,11.751,2.938,11.751l2.074-.432-2.851-11.319Z" transform="translate(-191.523 -181.658)" fill="#ebebeb"/>
      <path id="Trazado_721565" data-name="Trazado 721565" d="M334.289,276.539l-4.147,13.393h2.42l3.974-12.442Z" transform="translate(-213.292 -178.661)" fill="#cacaca"/>
      <path id="Trazado_721566" data-name="Trazado 721566" d="M343.927,270.68l-4.752,15.466h2.419l4.58-14.516Z" transform="translate(-219.128 -174.876)" fill="#ebebeb"/>
      <path id="Trazado_721567" data-name="Trazado 721567" d="M300.6,311.692l2.419,8.382h12.183l2.246-8.382Z" transform="translate(-194.208 -201.372)" fill="#9a9a9a"/>
      <path id="Trazado_721568" data-name="Trazado 721568" d="M307.313,280.129a.414.414,0,0,1-.027-.086l-.064-.256-.234-.99-.837-3.66c-.7-3.11-1.659-7.408-2.734-12.206l.075.059h-2.134l.074-.093,2.751,12.217c.341,1.546.617,2.8.81,3.671.09.425.161.759.212,1l.051.259a.435.435,0,0,1,.013.09.394.394,0,0,1-.027-.086l-.066-.256-.239-.99c-.2-.871-.5-2.118-.856-3.66-.712-3.109-1.7-7.407-2.8-12.206l-.021-.093h2.29l.013.06,2.688,12.216.791,3.671.207,1c.021.107.037.193.05.259A.435.435,0,0,1,307.313,280.129Z" transform="translate(-194.634 -169.809)" fill="#9a9a9a"/>
      <path id="Trazado_721569" data-name="Trazado 721569" d="M124.585,336.224c0,.042-27.891.076-62.289.076S0,336.267,0,336.224s27.885-.076,62.3-.076S124.585,336.182,124.585,336.224Z" transform="translate(0 -217.172)" fill="#263238"/>
      <path id="Trazado_721570" data-name="Trazado 721570" d="M293.566,109.615a1.155,1.155,0,0,0-.208-.064,1.448,1.448,0,0,0-.637.01,2.3,2.3,0,0,0-.926.476,4.91,4.91,0,0,0-.94,1.1,19.64,19.64,0,0,0-1.628,3.683,53.919,53.919,0,0,0-1.657,5.179l0,.007,0,0a1.516,1.516,0,0,1-.343.424.676.676,0,0,1-.534.171.991.991,0,0,1-.492-.284c-.137-.127-.266-.263-.4-.4a9.1,9.1,0,0,0-.814-.794,1.5,1.5,0,0,0-1.029-.421,1.392,1.392,0,0,0-.944.629,2.367,2.367,0,0,0-.325,1.167,11.764,11.764,0,0,0,.34,2.568l.5,2.7.26,1.4q.065.353.132.709a.921.921,0,0,1-.084.752.37.37,0,0,1-.392.133.991.991,0,0,1-.348-.181l-.6-.446a13.393,13.393,0,0,0-1.245-.838,4.738,4.738,0,0,0-1.392-.58,1.642,1.642,0,0,0-.741,0,1.1,1.1,0,0,0-.6.406,2.488,2.488,0,0,0-.4,1.468,8.248,8.248,0,0,0,.154,1.592,20.37,20.37,0,0,0,.9,3.166,4.214,4.214,0,0,1,.257.817.6.6,0,0,1-.109.453.523.523,0,0,1-.085.085.287.287,0,0,1-.114.067.354.354,0,0,1-.256-.056,4.393,4.393,0,0,1-.679-.54l-.63-.584a9.341,9.341,0,0,0-1.336-1.076,2.805,2.805,0,0,0-.771-.351.954.954,0,0,0-.785.1,1.137,1.137,0,0,0-.445.68,3.459,3.459,0,0,0-.1.86,7.225,7.225,0,0,0,.221,1.754,15.248,15.248,0,0,0,1.275,3.376,25.54,25.54,0,0,0,1.9,3.159,18.025,18.025,0,0,0,1.145,1.477l1.192,1.462.014.017-.07-.027,1.867-.272a17.139,17.139,0,0,0,1.843-.317,25.594,25.594,0,0,0,3.533-1.06,15.258,15.258,0,0,0,3.216-1.642,7.241,7.241,0,0,0,1.345-1.15,3.462,3.462,0,0,0,.5-.707,1.14,1.14,0,0,0,.13-.8.954.954,0,0,0-.515-.6,2.8,2.8,0,0,0-.807-.259,9.3,9.3,0,0,0-1.713-.1l-.859.009a4.419,4.419,0,0,1-.866-.057.351.351,0,0,1-.227-.131.289.289,0,0,1-.039-.127.524.524,0,0,1-.005-.12.594.594,0,0,1,.225-.408,4.238,4.238,0,0,1,.739-.432,20.285,20.285,0,0,0,2.792-1.742,8.235,8.235,0,0,0,1.185-1.075,2.488,2.488,0,0,0,.693-1.353,1.1,1.1,0,0,0-.176-.706,1.636,1.636,0,0,0-.546-.5,4.749,4.749,0,0,0-1.421-.506,13.339,13.339,0,0,0-1.485-.216l-.741-.071a.982.982,0,0,1-.379-.1.371.371,0,0,1-.2-.364.928.928,0,0,1,.446-.612l.574-.436,1.131-.859,2.187-1.66a11.723,11.723,0,0,0,1.978-1.672,2.358,2.358,0,0,0,.543-1.082,1.391,1.391,0,0,0-.277-1.1,1.013,1.013,0,0,0-.481-.287,2.325,2.325,0,0,0-.565-.093,9.114,9.114,0,0,0-1.137.041c-.188.014-.374.027-.561.029a.991.991,0,0,1-.555-.121.676.676,0,0,1-.28-.485,1.516,1.516,0,0,1,.031-.544v0l0-.006a53.994,53.994,0,0,0,2.252-4.939,20.246,20.246,0,0,0,1.277-3.812,4.978,4.978,0,0,0,.058-1.44,2.336,2.336,0,0,0-.342-.982,1.409,1.409,0,0,0-.455-.444,1.08,1.08,0,0,0-.2-.1.775.775,0,0,1,.2.084,1.391,1.391,0,0,1,.47.441,2.343,2.343,0,0,1,.358.991,4.965,4.965,0,0,1-.046,1.453,20.052,20.052,0,0,1-1.259,3.831,53.346,53.346,0,0,1-2.238,4.957l0-.011a1.43,1.43,0,0,0-.028.506.581.581,0,0,0,.24.419.9.9,0,0,0,.5.1c.182,0,.367-.016.554-.031a9.172,9.172,0,0,1,1.15-.044,2.448,2.448,0,0,1,.59.1,1.116,1.116,0,0,1,.528.315,1.493,1.493,0,0,1,.306,1.188,2.469,2.469,0,0,1-.564,1.135,11.791,11.791,0,0,1-2,1.7l-2.182,1.662-1.129.86-.573.437a1.325,1.325,0,0,0-.261.23.588.588,0,0,0-.135.294.239.239,0,0,0,.134.241.859.859,0,0,0,.331.085l.739.069a13.446,13.446,0,0,1,1.5.216,4.876,4.876,0,0,1,1.462.521,1.768,1.768,0,0,1,.59.543,1.235,1.235,0,0,1,.2.789,2.611,2.611,0,0,1-.725,1.434,8.39,8.39,0,0,1-1.2,1.1,20.419,20.419,0,0,1-2.811,1.758,4.179,4.179,0,0,0-.711.413.451.451,0,0,0-.176.31.393.393,0,0,0,0,.091c0,.023.012.079.02.074a.254.254,0,0,0,.137.063,4.353,4.353,0,0,0,.832.052l.858-.01a9.433,9.433,0,0,1,1.741.1,2.932,2.932,0,0,1,.851.274,1.1,1.1,0,0,1,.589.7,1.291,1.291,0,0,1-.141.905,3.61,3.61,0,0,1-.523.739,7.406,7.406,0,0,1-1.37,1.175,15.406,15.406,0,0,1-3.247,1.659,25.651,25.651,0,0,1-3.556,1.067,17.257,17.257,0,0,1-1.849.319l-1.871.273-.043.006-.027-.034-.014-.017-1.194-1.464a18.081,18.081,0,0,1-1.149-1.483A25.607,25.607,0,0,1,275.48,139a15.378,15.378,0,0,1-1.287-3.411,7.374,7.374,0,0,1-.224-1.791,3.591,3.591,0,0,1,.111-.9,1.286,1.286,0,0,1,.505-.763,1.1,1.1,0,0,1,.9-.117,2.946,2.946,0,0,1,.813.369,9.455,9.455,0,0,1,1.357,1.093l.629.584a4.324,4.324,0,0,0,.65.521.254.254,0,0,0,.144.046c0,.009.046-.025.065-.041a.408.408,0,0,0,.064-.064.451.451,0,0,0,.079-.347,4.142,4.142,0,0,0-.248-.784,20.474,20.474,0,0,1-.9-3.19,8.337,8.337,0,0,1-.154-1.62,2.616,2.616,0,0,1,.427-1.55,1.231,1.231,0,0,1,.676-.452,1.773,1.773,0,0,1,.8-.006,4.854,4.854,0,0,1,1.433.6,13.42,13.42,0,0,1,1.256.848l.594.446a.88.88,0,0,0,.3.161.239.239,0,0,0,.262-.086.579.579,0,0,0,.1-.308,1.3,1.3,0,0,0-.038-.345l-.131-.709-.257-1.4q-.254-1.38-.5-2.7a11.862,11.862,0,0,1-.337-2.6,2.473,2.473,0,0,1,.345-1.22,1.5,1.5,0,0,1,1.025-.675,1.115,1.115,0,0,1,.6.121,2.419,2.419,0,0,1,.5.326,9.128,9.128,0,0,1,.822.806c.129.136.256.271.389.4a.9.9,0,0,0,.44.261.58.58,0,0,0,.46-.149,1.427,1.427,0,0,0,.32-.394l0,.011a53.3,53.3,0,0,1,1.679-5.183,19.49,19.49,0,0,1,1.654-3.686,4.9,4.9,0,0,1,.958-1.1,2.312,2.312,0,0,1,.945-.471,1.417,1.417,0,0,1,.645,0A.786.786,0,0,1,293.566,109.615Z" transform="translate(-177.001 -70.745)" fill="#263238"/>
      <path id="Trazado_721571" data-name="Trazado 721571" d="M299.5,121.113a.488.488,0,0,1-.029.1l-.1.276c-.1.251-.23.6-.4,1.056-.356.925-.866,2.248-1.495,3.88l-4.879,12.819c-1.9,5.01-3.635,9.54-4.922,12.806-.643,1.634-1.169,2.953-1.54,3.862l-.43,1.046-.115.271a.528.528,0,0,1-.044.09.478.478,0,0,1,.029-.1l.1-.276c.1-.251.23-.6.4-1.056.356-.925.866-2.248,1.495-3.879l4.88-12.821c1.9-5.009,3.634-9.537,4.922-12.8.643-1.634,1.169-2.953,1.54-3.862l.43-1.046.116-.27A.47.47,0,0,1,299.5,121.113Z" transform="translate(-184.477 -78.246)" fill="#263238"/>
      <path id="Trazado_721572" data-name="Trazado 721572" d="M316.055,149.751a5.187,5.187,0,0,1-.735.437l-1.8,1c-.7.391-1.344.739-1.816.976a3.966,3.966,0,0,1-.785.342,6.019,6.019,0,0,1,.734-.437l1.793-1.014c.7-.391,1.349-.731,1.824-.963A4.349,4.349,0,0,1,316.055,149.751Z" transform="translate(-200.873 -96.747)" fill="#263238"/>
      <path id="Trazado_721573" data-name="Trazado 721573" d="M304.8,146.044c-.038.019-.737-1.314-1.56-2.977s-1.461-3.027-1.423-3.045.736,1.314,1.56,2.978S304.836,146.026,304.8,146.044Z" transform="translate(-194.989 -90.462)" fill="#263238"/>
      <path id="Trazado_721574" data-name="Trazado 721574" d="M295.979,170.861a4.537,4.537,0,0,1-.646-.589c-.381-.382-.893-.924-1.424-1.553s-.984-1.223-1.3-1.662a4.47,4.47,0,0,1-.473-.734,5.442,5.442,0,0,1,.56.669c.334.422.8,1,1.327,1.628s1.026,1.178,1.386,1.578A5.381,5.381,0,0,1,295.979,170.861Z" transform="translate(-188.739 -107.455)" fill="#263238"/>
      <path id="Trazado_721575" data-name="Trazado 721575" d="M308.372,175.571a4.225,4.225,0,0,1-.775.227c-.482.121-1.152.278-1.893.442s-1.414.3-1.9.4a4.231,4.231,0,0,1-.8.121,4.228,4.228,0,0,1,.774-.227c.482-.121,1.152-.278,1.893-.442s1.414-.3,1.9-.4A4.2,4.2,0,0,1,308.372,175.571Z" transform="translate(-195.759 -113.427)" fill="#263238"/>
      <path id="Trazado_721576" data-name="Trazado 721576" d="M301.659,195.9a6.925,6.925,0,0,1-1,.267c-.621.145-1.481.336-2.433.537s-1.816.375-2.443.493a6.907,6.907,0,0,1-1.021.161,6.889,6.889,0,0,1,1-.267c.621-.145,1.481-.336,2.433-.537s1.815-.375,2.442-.493A6.9,6.9,0,0,1,301.659,195.9Z" transform="translate(-190.436 -126.563)" fill="#263238"/>
      <path id="Trazado_721577" data-name="Trazado 721577" d="M286.594,189.047a1.111,1.111,0,0,1-.22-.2c-.135-.135-.325-.337-.556-.589-.461-.505-1.082-1.218-1.733-2.033s-1.213-1.576-1.6-2.137c-.2-.28-.35-.51-.453-.671a1.148,1.148,0,0,1-.147-.259,1.122,1.122,0,0,1,.2.225l.492.642c.413.544.985,1.293,1.637,2.105s1.256,1.535,1.695,2.057A8.836,8.836,0,0,1,286.594,189.047Z" transform="translate(-182.111 -118.331)" fill="#263238"/>
      <path id="Trazado_721578" data-name="Trazado 721578" d="M277.051,190.3c-5.1-4.111-5.84-11.142-5.2-17.374a6.8,6.8,0,0,1,.626-3.028,2.128,2.128,0,0,1,2.662-.923c.75.417,1.025,1.341,1.407,2.116a6.115,6.115,0,0,0,2.285,2.5,2.327,2.327,0,0,0,2.127.34c.933-.435,1.124-1.67,1.189-2.707q.18-2.9.361-5.8a9.681,9.681,0,0,1,.524-3.058,3.223,3.223,0,0,1,2.17-2.036,1.955,1.955,0,0,1,2.325,1.473,9.563,9.563,0,0,1-.059,1.293,1.093,1.093,0,0,0,.568,1.07,1.256,1.256,0,0,0,1.171-.4,13.815,13.815,0,0,0,2.731-3.567,19.193,19.193,0,0,1,2.573-3.7,5.621,5.621,0,0,1,3.945-1.871,3.366,3.366,0,0,1,3.286,2.526c.276,1.488-.678,2.913-1.688,4.032a23.217,23.217,0,0,1-5.134,4.263,1.91,1.91,0,0,0-.866.811c-.273.676.336,1.408,1,1.682a12.009,12.009,0,0,0,2.4.439,2.337,2.337,0,0,1,1.907,1.352c.352,1.089-.611,2.139-1.533,2.807a19.875,19.875,0,0,1-6.1,2.985,6.689,6.689,0,0,0-2.253.91,1.924,1.924,0,0,0-.766,2.156,1.958,1.958,0,0,0,2.068.962,13.83,13.83,0,0,0,2.335-.713c1.462-.44,3.3-.216,4.124,1.078a3.288,3.288,0,0,1,.15,2.926,7.574,7.574,0,0,1-1.748,2.455,19.985,19.985,0,0,1-8.924,5.4A13.72,13.72,0,0,1,277.051,190.3Z" transform="translate(-175.507 -99.905)" fill="#01d8d1"/>
      <g id="Grupo_1017494" data-name="Grupo 1017494" transform="translate(96.15 54.732)" opacity="0.1">
        <path id="Trazado_721579" data-name="Trazado 721579" d="M277.051,190.3c-5.1-4.111-5.84-11.142-5.2-17.374a6.8,6.8,0,0,1,.626-3.028,2.128,2.128,0,0,1,2.662-.923c.75.417,1.025,1.341,1.407,2.116a6.115,6.115,0,0,0,2.285,2.5,2.327,2.327,0,0,0,2.127.34c.933-.435,1.124-1.67,1.189-2.707q.18-2.9.361-5.8a9.681,9.681,0,0,1,.524-3.058,3.223,3.223,0,0,1,2.17-2.036,1.955,1.955,0,0,1,2.325,1.473,9.563,9.563,0,0,1-.059,1.293,1.093,1.093,0,0,0,.568,1.07,1.256,1.256,0,0,0,1.171-.4,13.815,13.815,0,0,0,2.731-3.567,19.193,19.193,0,0,1,2.573-3.7,5.621,5.621,0,0,1,3.945-1.871,3.366,3.366,0,0,1,3.286,2.526c.276,1.488-.678,2.913-1.688,4.032a23.217,23.217,0,0,1-5.134,4.263,1.91,1.91,0,0,0-.866.811c-.273.676.336,1.408,1,1.682a12.009,12.009,0,0,0,2.4.439,2.337,2.337,0,0,1,1.907,1.352c.352,1.089-.611,2.139-1.533,2.807a19.875,19.875,0,0,1-6.1,2.985,6.689,6.689,0,0,0-2.253.91,1.924,1.924,0,0,0-.766,2.156,1.958,1.958,0,0,0,2.068.962,13.83,13.83,0,0,0,2.335-.713c1.462-.44,3.3-.216,4.124,1.078a3.288,3.288,0,0,1,.15,2.926,7.574,7.574,0,0,1-1.748,2.455,19.985,19.985,0,0,1-8.924,5.4A13.72,13.72,0,0,1,277.051,190.3Z" transform="translate(-271.657 -154.637)" fill="#003759"/>
      </g>
      <path id="Trazado_721580" data-name="Trazado 721580" d="M285.771,196.753a45.608,45.608,0,0,1,2.28-8.43,93.1,93.1,0,0,1,4.374-9.75l1.278-2.5c.421-.819.839-1.631,1.3-2.4a46.5,46.5,0,0,1,2.883-4.266c.983-1.313,1.963-2.523,2.888-3.647s1.812-2.153,2.658-3.058a36.857,36.857,0,0,1,4.306-3.968c.543-.427.975-.745,1.271-.956l.338-.238a.755.755,0,0,1,.119-.076.719.719,0,0,1-.107.092l-.327.254c-.288.221-.713.548-1.248.984a39.034,39.034,0,0,0-4.254,4c-.838.908-1.714,1.941-2.635,3.067s-1.894,2.34-2.87,3.652a46.987,46.987,0,0,0-2.862,4.256c-.454.765-.867,1.57-1.289,2.391l-1.277,2.5a95.5,95.5,0,0,0-4.38,9.724,46.426,46.426,0,0,0-2.312,8.39" transform="translate(-184.626 -101.734)" fill="#263238"/>
      <path id="Trazado_721581" data-name="Trazado 721581" d="M310.657,182.244a2.1,2.1,0,0,1-.071-.449c-.035-.29-.072-.712-.109-1.233-.076-1.042-.131-2.486-.187-4.077s-.131-3.03-.223-4.069c-.044-.52-.084-.94-.116-1.229a2.108,2.108,0,0,1-.027-.454,2.064,2.064,0,0,1,.1.443c.054.287.115.706.176,1.226.127,1.038.224,2.482.279,4.075.051,1.57.1,2.991.131,4.077.019.49.035.9.048,1.235A2.092,2.092,0,0,1,310.657,182.244Z" transform="translate(-200.227 -110.304)" fill="#263238"/>
      <path id="Trazado_721582" data-name="Trazado 721582" d="M325.5,198.673a2.9,2.9,0,0,1-.536.027c-.344.007-.842.014-1.457.044-1.23.048-2.927.174-4.793.394s-3.546.5-4.756.733c-.606.113-1.094.217-1.431.287a2.838,2.838,0,0,1-.529.092,2.85,2.85,0,0,1,.512-.165c.333-.093.818-.217,1.422-.348,1.206-.269,2.889-.566,4.76-.791a47.06,47.06,0,0,1,4.811-.339c.617-.012,1.117,0,1.462.018A2.811,2.811,0,0,1,325.5,198.673Z" transform="translate(-201.573 -128.309)" fill="#263238"/>
      <path id="Trazado_721583" data-name="Trazado 721583" d="M282.6,212.066a.706.706,0,0,1-.08-.169c-.053-.134-.117-.3-.2-.5-.167-.433-.393-1.066-.662-1.852-.539-1.571-1.214-3.766-1.927-6.2s-1.367-4.629-1.872-6.209l-.6-1.87-.161-.51a.67.67,0,0,1-.044-.183.736.736,0,0,1,.08.169l.195.5c.168.433.393,1.066.662,1.852.538,1.571,1.214,3.765,1.926,6.2s1.367,4.628,1.872,6.209c.248.768.452,1.4.6,1.87l.161.51A.672.672,0,0,1,282.6,212.066Z" transform="translate(-178.996 -125.71)" fill="#263238"/>
      <path id="Trazado_721584" data-name="Trazado 721584" d="M310.831,231.285a.734.734,0,0,1-.18.061l-.527.137-1.939.485c-1.638.41-3.892,1-6.383,1.658s-4.754,1.229-6.4,1.6c-.823.188-1.49.333-1.954.425l-.534.1a.7.7,0,0,1-.189.022.737.737,0,0,1,.181-.061l.526-.137,1.939-.485c1.638-.409,3.893-1,6.384-1.659s4.753-1.229,6.4-1.6c.823-.188,1.491-.334,1.954-.425l.534-.1A.687.687,0,0,1,310.831,231.285Z" transform="translate(-189.118 -149.423)" fill="#263238"/>
      <path id="Trazado_721585" data-name="Trazado 721585" d="M160.212,26.276H88.971V123.9h71.241Z" transform="translate(-57.481 -16.976)" fill="#003759"/>
      <path id="Trazado_721586" data-name="Trazado 721586" d="M168.224,125.292H105.731V37.423h62.493v87.869Z" transform="translate(-68.309 -24.178)" fill="#9a9a9a"/>
      <path id="Trazado_721587" data-name="Trazado 721587" d="M166.463,121.541h-61.93V34.14h61.93v87.4Z" transform="translate(-67.535 -22.057)" fill="#ebebeb"/>
      <path id="Trazado_721588" data-name="Trazado 721588" d="M157.7,115.144l-7.133,5.808h-49.3V34.767h62.493V110.23Z" transform="translate(-65.424 -22.462)" fill="#ececec"/>
      <path id="Trazado_721589" data-name="Trazado 721589" d="M157.558,115.006s.126-.108.38-.317l1.143-.934,4.523-3.682-.009.019c-.007-12.4-.024-39.94-.045-75.463l.069.069-61.947.007h-.545l.076-.076c-.006,32.4-.011,62.292-.016,86.186l-.061-.061,49.3.035-.017.006,5.357-4.345,1.342-1.084c.3-.241.451-.358.451-.358s-.146.125-.442.368l-1.334,1.1-5.341,4.365-.007.006h-.01l-49.3.035h-.062v-.061c0-23.893-.009-53.784-.015-86.186v-.076h.622l61.947.007h.069v.069c-.021,35.524-.037,63.068-.045,75.463v.012l-.009.007-4.537,3.663-1.15.924C157.689,114.9,157.558,115.006,157.558,115.006Z" transform="translate(-65.284 -22.323)" fill="#263238"/>
      <path id="Trazado_721590" data-name="Trazado 721590" d="M179.056,26.517H153.479V22.085a4.335,4.335,0,0,1,4.335-4.335H174.9a4.158,4.158,0,0,1,4.158,4.158v4.61Z" transform="translate(-99.157 -11.467)" fill="#01d8d1"/>
      <path id="Trazado_721591" data-name="Trazado 721591" d="M169.472,9.116l-.935-4.73h14.726l-.818,4.73Z" transform="translate(-108.885 -2.834)" fill="#01d8d1"/>
      <path id="Trazado_721592" data-name="Trazado 721592" d="M130.262,84.09H119.733V73.561h10.529ZM120.027,83.8h9.941V73.855h-9.941Z" transform="translate(-77.355 -47.525)" fill="#01d8d1"/>
      <path id="Trazado_721593" data-name="Trazado 721593" d="M194.841,80.605c0,.042-7.329.076-16.366.076s-16.368-.034-16.368-.076,7.327-.076,16.368-.076S194.841,80.563,194.841,80.605Z" transform="translate(-104.73 -52.027)" fill="#263238"/>
      <path id="Trazado_721594" data-name="Trazado 721594" d="M194.841,86.786c0,.042-7.329.076-16.366.076s-16.368-.034-16.368-.076,7.327-.076,16.368-.076S194.841,86.744,194.841,86.786Z" transform="translate(-104.73 -56.02)" fill="#263238"/>
      <path id="Trazado_721595" data-name="Trazado 721595" d="M194.841,92.967c0,.042-7.329.076-16.366.076s-16.368-.034-16.368-.076,7.327-.076,16.368-.076S194.841,92.925,194.841,92.967Z" transform="translate(-104.73 -60.013)" fill="#263238"/>
      <path id="Trazado_721596" data-name="Trazado 721596" d="M194.841,99.148c0,.042-7.329.076-16.366.076s-16.368-.034-16.368-.076,7.327-.076,16.368-.076S194.841,99.106,194.841,99.148Z" transform="translate(-104.73 -64.007)" fill="#263238"/>
      <path id="Trazado_721597" data-name="Trazado 721597" d="M130.262,129.933H119.733V119.4h10.529Zm-10.235-.294h9.941V119.7h-9.941Z" transform="translate(-77.355 -77.143)" fill="#01d8d1"/>
      <path id="Trazado_721598" data-name="Trazado 721598" d="M125.649,126.1l1.4-1.5,2.329,1.863,5.332-5.176,1.277,1.505-6.712,6.622Z" transform="translate(-81.177 -78.36)" fill="#01d8d1"/>
      <path id="Trazado_721599" data-name="Trazado 721599" d="M194.841,126.449c0,.042-7.329.076-16.366.076s-16.368-.034-16.368-.076,7.327-.076,16.368-.076S194.841,126.407,194.841,126.449Z" transform="translate(-104.73 -81.645)" fill="#263238"/>
      <path id="Trazado_721600" data-name="Trazado 721600" d="M194.841,132.63c0,.042-7.329.076-16.366.076s-16.368-.034-16.368-.076,7.327-.076,16.368-.076S194.841,132.588,194.841,132.63Z" transform="translate(-104.73 -85.638)" fill="#263238"/>
      <path id="Trazado_721601" data-name="Trazado 721601" d="M194.841,138.81c0,.042-7.329.076-16.366.076s-16.368-.034-16.368-.076,7.327-.076,16.368-.076S194.841,138.769,194.841,138.81Z" transform="translate(-104.73 -89.631)" fill="#263238"/>
      <path id="Trazado_721602" data-name="Trazado 721602" d="M194.841,144.992c0,.042-7.329.076-16.366.076s-16.368-.034-16.368-.076,7.327-.076,16.368-.076S194.841,144.95,194.841,144.992Z" transform="translate(-104.73 -93.625)" fill="#263238"/>
      <path id="Trazado_721603" data-name="Trazado 721603" d="M130.262,174.295H119.733V163.766h10.529ZM120.027,174h9.941V164.06h-9.941Z" transform="translate(-77.355 -105.803)" fill="#01d8d1"/>
      <path id="Trazado_721604" data-name="Trazado 721604" d="M125.649,170.465l1.4-1.5,2.329,1.864,5.332-5.176,1.277,1.5-6.712,6.622Z" transform="translate(-81.177 -107.021)" fill="#01d8d1"/>
      <path id="Trazado_721605" data-name="Trazado 721605" d="M194.841,170.81c0,.042-7.329.076-16.366.076s-16.368-.034-16.368-.076,7.327-.076,16.368-.076S194.841,170.768,194.841,170.81Z" transform="translate(-104.73 -110.305)" fill="#263238"/>
      <path id="Trazado_721606" data-name="Trazado 721606" d="M194.841,176.991c0,.042-7.329.076-16.366.076s-16.368-.034-16.368-.076,7.327-.076,16.368-.076S194.841,176.949,194.841,176.991Z" transform="translate(-104.73 -114.298)" fill="#263238"/>
      <path id="Trazado_721607" data-name="Trazado 721607" d="M194.841,183.173c0,.042-7.329.076-16.366.076s-16.368-.034-16.368-.076,7.327-.076,16.368-.076S194.841,183.131,194.841,183.173Z" transform="translate(-104.73 -118.292)" fill="#263238"/>
      <path id="Trazado_721608" data-name="Trazado 721608" d="M194.841,189.354c0,.042-7.329.076-16.366.076s-16.368-.034-16.368-.076,7.327-.076,16.368-.076S194.841,189.312,194.841,189.354Z" transform="translate(-104.73 -122.285)" fill="#263238"/>
      <path id="Trazado_721609" data-name="Trazado 721609" d="M130.262,217.127H119.733V206.6h10.529Zm-10.235-.294h9.941v-9.941h-9.941Z" transform="translate(-77.355 -133.476)" fill="#01d8d1"/>
      <path id="Trazado_721610" data-name="Trazado 721610" d="M125.649,213.3l1.4-1.5,2.329,1.863,5.332-5.176,1.277,1.506-6.712,6.621Z" transform="translate(-81.177 -134.693)" fill="#01d8d1"/>
      <path id="Trazado_721611" data-name="Trazado 721611" d="M194.841,213.643c0,.042-7.329.076-16.366.076s-16.368-.034-16.368-.076,7.327-.076,16.368-.076S194.841,213.6,194.841,213.643Z" transform="translate(-104.73 -137.977)" fill="#263238"/>
      <path id="Trazado_721612" data-name="Trazado 721612" d="M194.841,219.824c0,.042-7.329.076-16.366.076s-16.368-.034-16.368-.076,7.327-.076,16.368-.076S194.841,219.782,194.841,219.824Z" transform="translate(-104.73 -141.971)" fill="#263238"/>
      <path id="Trazado_721613" data-name="Trazado 721613" d="M194.841,226.005c0,.042-7.329.076-16.366.076s-16.368-.034-16.368-.076,7.327-.076,16.368-.076S194.841,225.963,194.841,226.005Z" transform="translate(-104.73 -145.964)" fill="#263238"/>
      <path id="Trazado_721614" data-name="Trazado 721614" d="M194.841,232.186c0,.042-7.329.076-16.366.076s-16.368-.034-16.368-.076,7.327-.076,16.368-.076S194.841,232.144,194.841,232.186Z" transform="translate(-104.73 -149.957)" fill="#263238"/>
      <path id="Trazado_721615" data-name="Trazado 721615" d="M233.582,237.955l-6.852,14.189h4.892Z" transform="translate(-146.481 -153.734)" fill="#9a9a9a"/>
      <path id="Trazado_721616" data-name="Trazado 721616" d="M240.551,252.37l1.96-14.189,11.235,3.467Z" transform="translate(-155.411 -153.88)" fill="#ececec"/>
      <path id="Trazado_721617" data-name="Trazado 721617" d="M240.551,252.2l3.778-3.11,9.369-7.67.025.13-4.338-1.337-6.9-2.133.092-.059-1.448,10.162c-.355,2.44-.537,3.7-.584,4.018,0,0,0-.019.007-.063s.014-.115.024-.2l.1-.773.386-2.925c.338-2.53.814-6.088,1.37-10.242l.011-.084.081.025,6.9,2.124,4.336,1.34.134.041-.109.088-9.483,7.649-2.769,2.225L240.8,252l-.189.15C240.57,252.186,240.549,252.2,240.551,252.2Z" transform="translate(-155.41 -153.709)" fill="#263238"/>
      <g id="Grupo_1017495" data-name="Grupo 1017495" transform="translate(72.549 1.553)" opacity="0.3">
        <path id="Trazado_721618" data-name="Trazado 721618" d="M205.788,4.387l-.812,4.73h1.011l.818-4.73h-1.288" transform="translate(-204.976 -4.387)" fill="#003759"/>
      </g>
      <path id="Trazado_721619" data-name="Trazado 721619" d="M81.333,116.612a2.643,2.643,0,0,0,2.843-2.534c.055-1.439.1-2.893.1-2.893a2.6,2.6,0,0,0,2.338-2.361c.158-2.158.086-7.138.086-7.138a7.518,7.518,0,0,0-7.6.488l.135,7.593v4.084C79.254,115.223,79.966,116.507,81.333,116.612Z" transform="translate(-51.107 -65.176)" fill="#ffbe9d"/>
      <path id="Trazado_721620" data-name="Trazado 721620" d="M82.422,102.889a1.106,1.106,0,0,0-1.474-.322,1.254,1.254,0,0,0-.418,1.568,1.653,1.653,0,0,0,1.058.8.828.828,0,0,1,.649.892,2.762,2.762,0,0,1-.757,1.5,3.981,3.981,0,0,1-2.5,1.183,2.647,2.647,0,0,1-2.506-.838,3.424,3.424,0,0,1-.431-1.941l-.1-4.771a6.841,6.841,0,0,1,.109-1.712,2.3,2.3,0,0,1,.9-1.416,7.048,7.048,0,0,1,1.787-.568,14.765,14.765,0,0,0,2.081-1.095,2.559,2.559,0,0,1,2.258-.219c.5.253.841.756,1.331,1.034.7.4,1.647.307,1.986,1.332a1.738,1.738,0,0,1-.012,1.1,2.535,2.535,0,0,1-3.447,1.355,3.419,3.419,0,0,1-.041,1.509C82.823,102.518,82.795,102.882,82.422,102.889Z" transform="translate(-49.062 -61.874)" fill="#263238"/>
      <path id="Trazado_721621" data-name="Trazado 721621" d="M70.744,94.634a7.338,7.338,0,0,0,.693-2.167,2.484,2.484,0,0,0-.68-2.094,2.043,2.043,0,0,0-1.422-.5,2.4,2.4,0,0,0-2.168,1.718,2.59,2.59,0,0,0,.872,2.654,2.808,2.808,0,0,0,2.795.365" transform="translate(-43.338 -58.061)" fill="#263238"/>
      <path id="Trazado_721622" data-name="Trazado 721622" d="M76.764,101.109a1.062,1.062,0,0,1-1.022,1c-.01-.044.316-.13.6-.411S76.72,101.1,76.764,101.109Z" transform="translate(-48.933 -65.323)" fill="#01d8d1"/>
      <path id="Trazado_721623" data-name="Trazado 721623" d="M72.142,99.018a2.028,2.028,0,0,1-.586.428,1.687,1.687,0,0,1-.772.218,1.073,1.073,0,0,1-.9-.4,1.2,1.2,0,0,1-.16-.975,1.9,1.9,0,0,1,.363-.714,2.242,2.242,0,0,1,.511-.515,6.842,6.842,0,0,1-.423.578,1.935,1.935,0,0,0-.313.681,1.09,1.09,0,0,0,.145.855.956.956,0,0,0,.777.353,1.694,1.694,0,0,0,.724-.174C71.9,99.159,72.127,98.995,72.142,99.018Z" transform="translate(-45.021 -62.704)" fill="#263238"/>
      <path id="Trazado_721624" data-name="Trazado 721624" d="M66.26,105.5a.939.939,0,0,1,.105.239,2.466,2.466,0,0,0,.318.615.891.891,0,0,0,.845.389,1.159,1.159,0,0,0,.813-.819,8.4,8.4,0,0,0,.221-1.253,1.937,1.937,0,0,1,.412-.989,1.062,1.062,0,0,1,.628-.358.418.418,0,0,1,.264.022c0,.015-.1,0-.253.036a1.068,1.068,0,0,0-.557.37,1.906,1.906,0,0,0-.355.94,7.483,7.483,0,0,1-.215,1.28,1.283,1.283,0,0,1-.933.907.859.859,0,0,1-.585-.113,1.218,1.218,0,0,1-.372-.35,2.116,2.116,0,0,1-.287-.66A.812.812,0,0,1,66.26,105.5Z" transform="translate(-42.806 -66.748)" fill="#263238"/>
      <path id="Trazado_721625" data-name="Trazado 721625" d="M62.377,160.689s-1.1,8.055,0,9.076a2.3,2.3,0,0,0,2.158.682l2.094-1.751.412-8.008Z" transform="translate(-39.984 -103.815)" fill="#ffbe9d"/>
      <path id="Trazado_721626" data-name="Trazado 721626" d="M127.558,88.012l1.4-1.5,2.329,1.864,5.332-5.177,1.277,1.506-6.712,6.622Z" transform="translate(-82.41 -53.751)" fill="#01d8d1"/>
      <path id="Trazado_721627" data-name="Trazado 721627" d="M124.366,97.955l-2.027,1.3c-.092-.8-.7-1.6-.672-1.193s0,2.49,0,2.49l-3.615,7.607a3.6,3.6,0,0,1-2.23,2.141l-3.374,1,1.319,4.461,4.69-1.555a4.044,4.044,0,0,0,2.57-2.578l3.233-9.848a15.278,15.278,0,0,0,.522-1.94A3.7,3.7,0,0,0,124.366,97.955Z" transform="translate(-72.651 -63.285)" fill="#ffbe9d"/>
      <path id="Trazado_721628" data-name="Trazado 721628" d="M91.386,328.872l-.051-2.255-4.225.068.039,3.3.262.013a49.96,49.96,0,0,0,6.712-.1C94.989,329.623,91.386,328.872,91.386,328.872Z" transform="translate(-56.279 -211.015)" fill="#01d8d1"/>
      <g id="Grupo_1017496" data-name="Grupo 1017496" transform="translate(30.856 117.723)" opacity="0.5">
        <path id="Trazado_721629" data-name="Trazado 721629" d="M88.724,333.8a1.467,1.467,0,0,0-.553-.892,1.424,1.424,0,0,0-.993-.291L87.2,333.8Z" transform="translate(-87.178 -332.609)" fill="#fff"/>
      </g>
      <g id="Grupo_1017497" data-name="Grupo 1017497" transform="translate(30.87 118.287)" opacity="0.4">
        <path id="Trazado_721630" data-name="Trazado 721630" d="M93.218,334.2s1.264.343,1.11.552a40.449,40.449,0,0,1-7.109.131l.005-.095,5.628-.038S92.972,334.217,93.218,334.2Z" transform="translate(-87.22 -334.203)" fill="#fff"/>
      </g>
      <path id="Trazado_721631" data-name="Trazado 721631" d="M87.047,335.666a.368.368,0,0,0,.073.007l.209.01.768.021c.649.013,1.546.02,2.536.005s1.887-.047,2.535-.08l.768-.044.208-.016a.411.411,0,0,0,.073-.009.36.36,0,0,0-.073,0l-.209.006-.768.027c-.648.023-1.545.05-2.535.065s-1.886.013-2.535.01l-.768-.005h-.209A.416.416,0,0,0,87.047,335.666Z" transform="translate(-56.238 -216.792)" fill="#263238"/>
      <path id="Trazado_721632" data-name="Trazado 721632" d="M103.12,334.723a1.75,1.75,0,0,1,.138-.369,1.724,1.724,0,0,1,.257-.3.684.684,0,0,0-.395.667Z" transform="translate(-66.617 -215.82)" fill="#263238"/>
      <path id="Trazado_721633" data-name="Trazado 721633" d="M99.581,333.559c.012.007.071-.066.131-.164s.1-.184.087-.191-.07.066-.131.164S99.569,333.552,99.581,333.559Z" transform="translate(-64.334 -215.27)" fill="#263238"/>
      <path id="Trazado_721634" data-name="Trazado 721634" d="M98.609,333.27c.01.01.076-.035.147-.1s.122-.129.113-.139-.076.035-.147.1S98.6,333.26,98.609,333.27Z" transform="translate(-63.706 -215.156)" fill="#263238"/>
      <path id="Trazado_721635" data-name="Trazado 721635" d="M97.982,332.547a.961.961,0,1,0,.221-.027A.5.5,0,0,0,97.982,332.547Z" transform="translate(-63.303 -214.828)" fill="#263238"/>
      <path id="Trazado_721636" data-name="Trazado 721636" d="M97.76,331.8a.62.62,0,0,0,.5.03,1.3,1.3,0,0,0-.25-.013A1.387,1.387,0,0,0,97.76,331.8Z" transform="translate(-63.159 -214.357)" fill="#263238"/>
      <path id="Trazado_721637" data-name="Trazado 721637" d="M99.974,332.452a.784.784,0,0,0,.271-.006,1.639,1.639,0,0,0,.288-.068.807.807,0,0,0,.164-.071.147.147,0,0,0,.066-.086.106.106,0,0,0-.043-.108.5.5,0,0,0-.613.155.486.486,0,0,0-.086.182.154.154,0,0,0-.006.074.763.763,0,0,1,.12-.234.49.49,0,0,1,.23-.154.422.422,0,0,1,.324.017c.044.031.028.082-.02.112a.846.846,0,0,1-.152.068,1.86,1.86,0,0,1-.278.077C100.078,332.442,99.974,332.444,99.974,332.452Z" transform="translate(-64.59 -214.534)" fill="#263238"/>
      <path id="Trazado_721638" data-name="Trazado 721638" d="M99.515,332.244a.27.27,0,0,0,.028-.189.447.447,0,0,0-.077-.2.273.273,0,0,0-.228-.135.108.108,0,0,0-.082.127.294.294,0,0,0,.048.121.811.811,0,0,0,.131.162.391.391,0,0,0,.157.108c0-.007-.055-.048-.131-.133a.934.934,0,0,1-.116-.161c-.038-.057-.065-.159,0-.173s.138.059.181.113a.454.454,0,0,1,.08.176A1.01,1.01,0,0,1,99.515,332.244Z" transform="translate(-64.059 -214.313)" fill="#263238"/>
      <path id="Trazado_721639" data-name="Trazado 721639" d="M87.24,332.533c0,.01.121-.013.312.006a1.324,1.324,0,0,1,1.12.865c.067.18.076.3.085.3a.241.241,0,0,0,0-.085,1.1,1.1,0,0,0-.05-.227,1.284,1.284,0,0,0-1.152-.889,1.139,1.139,0,0,0-.232.01A.238.238,0,0,0,87.24,332.533Z" transform="translate(-56.363 -214.816)" fill="#263238"/>
      <path id="Trazado_721640" data-name="Trazado 721640" d="M88.359,327.6a14.772,14.772,0,0,0,0,1.737,7.357,7.357,0,0,0,.023-.869A7.451,7.451,0,0,0,88.359,327.6Z" transform="translate(-57.07 -211.652)" fill="#263238"/>
      <path id="Trazado_721641" data-name="Trazado 721641" d="M93.031,334.759a3.469,3.469,0,0,0,1.235-.007c0-.015-.277.006-.617.008S93.033,334.744,93.031,334.759Z" transform="translate(-60.104 -216.266)" fill="#263238"/>
      <path id="Trazado_721642" data-name="Trazado 721642" d="M90.688,334.812c-.01.011.024.058.053.121s.046.119.06.117.021-.067-.014-.139S90.7,334.8,90.688,334.812Z" transform="translate(-58.589 -216.308)" fill="#263238"/>
      <path id="Trazado_721643" data-name="Trazado 721643" d="M89.789,333.727c-.01.01.018.054.062.1s.088.071.1.061-.018-.053-.063-.1S89.8,333.717,89.789,333.727Z" transform="translate(-58.008 -215.607)" fill="#263238"/>
      <path id="Trazado_721644" data-name="Trazado 721644" d="M88.522,333.2c0,.015.059.013.122.034s.108.053.119.043-.025-.067-.1-.092S88.518,333.19,88.522,333.2Z" transform="translate(-57.191 -215.253)" fill="#263238"/>
      <path id="Trazado_721645" data-name="Trazado 721645" d="M87.62,333.008c0,.013.02.035.055.047s.068.013.073,0-.02-.035-.055-.047S87.625,333,87.62,333.008Z" transform="translate(-56.608 -215.137)" fill="#263238"/>
      <path id="Trazado_721646" data-name="Trazado 721646" d="M49.876,322.833l1.433-1.743-3.247-2.7-2.123,2.527.191.181a49.888,49.888,0,0,0,5.152,4.3C52.117,325.753,49.876,322.833,49.876,322.833Z" transform="translate(-29.679 -205.697)" fill="#01d8d1"/>
      <g id="Grupo_1017498" data-name="Grupo 1017498" transform="translate(16.301 114.266)" opacity="0.5">
        <path id="Trazado_721647" data-name="Trazado 721647" d="M47.213,324.747a1.466,1.466,0,0,0,.162-1.037,1.424,1.424,0,0,0-.562-.868l-.756.907Z" transform="translate(-46.057 -322.841)" fill="#fff"/>
      </g>
      <g id="Grupo_1017499" data-name="Grupo 1017499" transform="translate(16.259 115.148)" opacity="0.4">
        <path id="Trazado_721648" data-name="Trazado 721648" d="M50.93,328.8s.735,1.084.481,1.143a40.476,40.476,0,0,1-5.474-4.537l.066-.068,4.292,3.641S50.734,328.647,50.93,328.8Z" transform="translate(-45.937 -325.334)" fill="#fff"/>
      </g>
      <path id="Trazado_721649" data-name="Trazado 721649" d="M45.983,325.208a.389.389,0,0,0,.051.053l.152.143.569.517c.483.434,1.159,1.023,1.919,1.659s1.462,1.195,1.974,1.593l.61.467.168.124a.392.392,0,0,0,.061.041.361.361,0,0,0-.054-.049l-.162-.132-.6-.48c-.507-.405-1.2-.969-1.964-1.6s-1.439-1.22-1.928-1.646l-.579-.505-.159-.136A.4.4,0,0,0,45.983,325.208Z" transform="translate(-29.708 -210.104)" fill="#263238"/>
      <path id="Trazado_721650" data-name="Trazado 721650" d="M58.125,335.254a1.113,1.113,0,0,1,.734-.248.684.684,0,0,0-.734.248Z" transform="translate(-37.552 -216.415)" fill="#263238"/>
      <path id="Trazado_721651" data-name="Trazado 721651" d="M56.566,331.893a.448.448,0,0,0,.206-.039c.11-.035.195-.074.191-.088a.448.448,0,0,0-.206.039C56.647,331.84,56.561,331.879,56.566,331.893Z" transform="translate(-36.545 -214.338)" fill="#263238"/>
      <path id="Trazado_721652" data-name="Trazado 721652" d="M56.15,331.061c0,.014.08.023.178.019s.177-.018.176-.032-.08-.023-.178-.019S56.15,331.047,56.15,331.061Z" transform="translate(-36.277 -213.865)" fill="#263238"/>
      <path id="Trazado_721653" data-name="Trazado 721653" d="M56.4,329.862c-.009.011.058.084.151.163s.175.134.185.124-.058-.084-.151-.163S56.411,329.851,56.4,329.862Z" transform="translate(-36.439 -213.11)" fill="#263238"/>
      <path id="Trazado_721654" data-name="Trazado 721654" d="M56.748,329.119a.621.621,0,0,0,.36.349c.008-.013-.084-.078-.181-.173S56.761,329.111,56.748,329.119Z" transform="translate(-36.662 -212.631)" fill="#263238"/>
      <path id="Trazado_721655" data-name="Trazado 721655" d="M57.515,331.476a.787.787,0,0,0,.21.172,1.62,1.62,0,0,0,.263.136.811.811,0,0,0,.171.054.146.146,0,0,0,.106-.022.107.107,0,0,0,.038-.11.5.5,0,0,0-.566-.283.485.485,0,0,0-.184.083c-.038.029-.054.05-.052.052a.765.765,0,0,1,.243-.1.489.489,0,0,1,.275.033.421.421,0,0,1,.234.224c.013.052-.033.08-.088.072a.823.823,0,0,1-.159-.048,1.85,1.85,0,0,1-.261-.123C57.6,331.535,57.52,331.469,57.515,331.476Z" transform="translate(-37.148 -214.112)" fill="#263238"/>
      <path id="Trazado_721656" data-name="Trazado 721656" d="M57.55,330.673s.076-.023.145-.125a.447.447,0,0,0,.07-.2.272.272,0,0,0-.085-.251.108.108,0,0,0-.145.042.3.3,0,0,0-.042.123.823.823,0,0,0-.007.208.388.388,0,0,0,.049.184c.008,0-.01-.072-.013-.186a.955.955,0,0,1,.017-.2c.008-.068.055-.163.115-.129a.242.242,0,0,1,.063.2.442.442,0,0,1-.054.185A1.012,1.012,0,0,1,57.55,330.673Z" transform="translate(-37.137 -213.254)" fill="#263238"/>
      <path id="Trazado_721657" data-name="Trazado 721657" d="M48.262,322.854c-.005.008.1.069.233.208a1.323,1.323,0,0,1,.285,1.386c-.066.181-.14.278-.132.283s.023-.021.055-.066a1.1,1.1,0,0,0,.11-.2,1.285,1.285,0,0,0-.293-1.425,1.1,1.1,0,0,0-.182-.144A.235.235,0,0,0,48.262,322.854Z" transform="translate(-31.18 -208.584)" fill="#263238"/>
      <path id="Trazado_721658" data-name="Trazado 721658" d="M50.334,319.831a14.7,14.7,0,0,0-1.129,1.32,7.433,7.433,0,0,0,.584-.643A7.231,7.231,0,0,0,50.334,319.831Z" transform="translate(-31.789 -206.63)" fill="#263238"/>
      <path id="Trazado_721659" data-name="Trazado 721659" d="M51.223,328.292a3.469,3.469,0,0,0,.941.8c.009-.012-.214-.176-.473-.4S51.233,328.282,51.223,328.292Z" transform="translate(-33.093 -212.097)" fill="#263238"/>
      <path id="Trazado_721660" data-name="Trazado 721660" d="M49.294,326.792c-.014,0-.02.059-.039.126s-.043.12-.031.129.059-.038.08-.115S49.308,326.79,49.294,326.792Z" transform="translate(-31.8 -211.127)" fill="#263238"/>
      <path id="Trazado_721661" data-name="Trazado 721661" d="M49.421,325.384c-.014,0-.021.052-.016.115s.021.111.035.11.021-.052.016-.115S49.435,325.383,49.421,325.384Z" transform="translate(-31.918 -210.218)" fill="#263238"/>
      <path id="Trazado_721662" data-name="Trazado 721662" d="M48.8,324.185c-.007.013.036.048.07.105s.047.11.061.11.025-.068-.018-.137S48.81,324.172,48.8,324.185Z" transform="translate(-31.53 -209.441)" fill="#263238"/>
      <path id="Trazado_721663" data-name="Trazado 721663" d="M48.255,323.432c-.012.007-.008.039.011.072s.043.054.056.047.008-.039-.011-.072S48.268,323.425,48.255,323.432Z" transform="translate(-31.171 -208.956)" fill="#263238"/>
      <path id="Trazado_721664" data-name="Trazado 721664" d="M59.318,197.1s-1.407,5.953-1.009,7.13,2.976,1.858,2.976,1.858l-.087,16.3-14.255,17.62,5.264,4.307S67.638,226.665,69,223.469s-.867-26.63-.867-26.63Z" transform="translate(-30.328 -127.17)" fill="#263238"/>
      <path id="Trazado_721665" data-name="Trazado 721665" d="M80.738,190.727l.7,49.508-7.252.037L70.544,199.95a5.543,5.543,0,0,1-1.7-4.8l.177-3.259Z" transform="translate(-44.467 -123.221)" fill="#263238"/>
      <path id="Trazado_721666" data-name="Trazado 721666" d="M80.874,239.49a.285.285,0,0,1,.042-.074l.138-.2.539-.763,1.967-2.724-.012.037c-.158-1.718-.349-3.8-.556-6.049-.263-2.945-.477-5.612-.6-7.546-.064-.966-.106-1.749-.129-2.29-.009-.259-.016-.466-.021-.623a1.161,1.161,0,0,1,0-.218,1.168,1.168,0,0,1,.028.216c.013.157.029.363.05.622.043.557.1,1.333.178,2.286.153,1.93.383,4.6.646,7.54.2,2.255.4,4.335.529,6.062v.019l-.014.018-2.011,2.692-.567.742-.153.192C80.9,239.471,80.876,239.492,80.874,239.49Z" transform="translate(-52.249 -141.512)" fill="#003759"/>
      <path id="Trazado_721667" data-name="Trazado 721667" d="M80.239,217.572a16.412,16.412,0,0,1-3.793-.8,16.4,16.4,0,0,1,1.9.361A16.467,16.467,0,0,1,80.239,217.572Z" transform="translate(-49.389 -140.046)" fill="#003759"/>
      <path id="Trazado_721668" data-name="Trazado 721668" d="M93.945,265.559a5.785,5.785,0,0,0-3.973-.315,1.652,1.652,0,0,1,.565-.222,4.452,4.452,0,0,1,2.885.229A1.643,1.643,0,0,1,93.945,265.559Z" transform="translate(-58.128 -171.13)" fill="#003759"/>
      <path id="Trazado_721669" data-name="Trazado 721669" d="M91.569,273.275c.034.025-2.006,2.764-4.556,6.115s-4.644,6.048-4.678,6.022,2.006-2.763,4.556-6.115S91.535,273.25,91.569,273.275Z" transform="translate(-53.194 -176.552)" fill="#003759"/>
      <path id="Trazado_721670" data-name="Trazado 721670" d="M98.98,200.415a1.214,1.214,0,0,1-.408.538,2.02,2.02,0,0,1-2.956-.311,1.212,1.212,0,0,1-.287-.612,6.4,6.4,0,0,0,.371.544,2.014,2.014,0,0,0,2.8.3A6.447,6.447,0,0,0,98.98,200.415Z" transform="translate(-61.587 -129.232)" fill="#003759"/>
      <path id="Trazado_721671" data-name="Trazado 721671" d="M74.058,113.05a6.324,6.324,0,0,1-.343-8.82" transform="translate(-46.574 -67.339)" fill="#263238"/>
      <path id="Trazado_721672" data-name="Trazado 721672" d="M62.674,142.2s-1.575,1.78-1.9,8.587c0,0,4.487.851,4.569.606S62.674,142.2,62.674,142.2Z" transform="translate(-39.263 -91.868)" fill="#01d8d1"/>
      <g id="Grupo_1017500" data-name="Grupo 1017500" transform="translate(21.51 50.329)" opacity="0.3">
        <path id="Trazado_721673" data-name="Trazado 721673" d="M62.674,142.2s-1.575,1.78-1.9,8.587c0,0,4.487.851,4.569.606S62.674,142.2,62.674,142.2Z" transform="translate(-60.773 -142.197)" fill="#003759"/>
      </g>
      <path id="Trazado_721674" data-name="Trazado 721674" d="M65.974,155.915H79.748l-.222-2.152s-1.574-8.186-1.563-8.294l.248-.522a5.194,5.194,0,0,0,.061-4.332l6.745-2.306-1.651-5.565c-3.061.517-7.687,1.093-7.687,1.093l-.689.058s-4.775.249-4.877.261c-2,.241-4.322.4-5.172,2.533-.454,1.143-.023,2.859.719,4.629l1.766,5.434c.705,2.987-.42,2.845-1.038,5.851C66.294,153.058,65.965,155.5,65.974,155.915Z" transform="translate(-41.835 -85.761)" fill="#01d8d1"/>
      <g id="Grupo_1017501" data-name="Grupo 1017501" transform="translate(22.919 46.984)" opacity="0.3">
        <path id="Trazado_721675" data-name="Trazado 721675" d="M65.974,155.915H79.748l-.222-2.152s-1.574-8.186-1.563-8.294l.248-.522a5.194,5.194,0,0,0,.061-4.332l6.745-2.306-1.651-5.565c-3.061.517-7.687,1.093-7.687,1.093l-.689.058s-4.775.249-4.877.261c-2,.241-4.322.4-5.172,2.533-.454,1.143-.023,2.859.719,4.629l1.766,5.434c.705,2.987-.42,2.845-1.038,5.851C66.294,153.058,65.965,155.5,65.974,155.915Z" transform="translate(-64.754 -132.745)" fill="#003759"/>
      </g>
      <path id="Trazado_721676" data-name="Trazado 721676" d="M107.687,148.719a1.329,1.329,0,0,1-.3.126c-.2.072-.48.17-.834.289-.705.238-1.684.554-2.766.9s-2.048.689-2.734.973c-.344.139-.618.263-.809.345a1.324,1.324,0,0,1-.3.119,1.338,1.338,0,0,1,.276-.172c.184-.1.452-.238.793-.39a25.989,25.989,0,0,1,2.73-1.019c1.083-.346,2.066-.645,2.78-.857.357-.105.646-.188.848-.242A1.33,1.33,0,0,1,107.687,148.719Z" transform="translate(-64.57 -96.08)" fill="#263238"/>
      <path id="Trazado_721677" data-name="Trazado 721677" d="M86.356,140.212c0,.042-4.073.076-9.1.076s-9.1-.034-9.1-.076,4.072-.076,9.1-.076S86.356,140.17,86.356,140.212Z" transform="translate(-44.038 -90.536)" fill="#ececec"/>
      <path id="Trazado_721678" data-name="Trazado 721678" d="M83.8,147.855c0,.042-4.532.076-10.121.076s-10.122-.034-10.122-.076,4.531-.076,10.122-.076S83.8,147.813,83.8,147.855Z" transform="translate(-41.059 -95.474)" fill="#ececec"/>
      <path id="Trazado_721679" data-name="Trazado 721679" d="M63.658,156.553a4.69,4.69,0,0,1-1.687,0,4.712,4.712,0,0,1,1.687,0Z" transform="translate(-40.037 -101.094)" fill="#ececec"/>
      <path id="Trazado_721680" data-name="Trazado 721680" d="M79.976,156.817c0,.042-2.964.076-6.619.076s-6.62-.034-6.62-.076,2.963-.076,6.62-.076S79.976,156.775,79.976,156.817Z" transform="translate(-43.116 -101.264)" fill="#ececec"/>
      <path id="Trazado_721681" data-name="Trazado 721681" d="M81.629,165.777c0,.042-2.66.076-5.941.076s-5.941-.034-5.941-.076,2.659-.076,5.941-.076S81.629,165.735,81.629,165.777Z" transform="translate(-45.061 -107.053)" fill="#ececec"/>
      <path id="Trazado_721682" data-name="Trazado 721682" d="M83.416,174.08c0,.042-2.411.076-5.384.076s-5.385-.034-5.385-.076S75.057,174,78.032,174,83.416,174.038,83.416,174.08Z" transform="translate(-46.934 -112.417)" fill="#ececec"/>
      <path id="Trazado_721683" data-name="Trazado 721683" d="M83.376,180.8c0,.042-2.579.076-5.76.076s-5.761-.034-5.761-.076,2.579-.076,5.761-.076S83.376,180.759,83.376,180.8Z" transform="translate(-46.423 -116.759)" fill="#ececec"/>
      <path id="Trazado_721684" data-name="Trazado 721684" d="M82.589,189.367c0,.042-2.934.076-6.553.076s-6.554-.034-6.554-.076,2.934-.076,6.554-.076S82.589,189.325,82.589,189.367Z" transform="translate(-44.89 -122.294)" fill="#ececec"/>
      <path id="Trazado_721685" data-name="Trazado 721685" d="M67.619,158.618a1.124,1.124,0,0,1-.122-.271l-.289-.752c-.242-.635-.584-1.511-.939-2.487s-.649-1.872-.834-2.528c-.092-.328-.161-.6-.2-.782a1.108,1.108,0,0,1-.048-.293,10.8,10.8,0,0,1,.352,1.044c.211.646.518,1.533.875,2.508s.68,1.857.9,2.5c.109.323.192.586.244.769A1.123,1.123,0,0,1,67.619,158.618Z" transform="translate(-42.112 -97.881)" fill="#263238"/>
    </g>
  </g>
</svg>
