<svg xmlns="http://www.w3.org/2000/svg" width="295" height="141" viewBox="0 0 295 141">
  <g id="Grupo_1018038" data-name="Grupo 1018038" transform="translate(-1019.668 -6687)">
    <rect id="Rectángulo_375668" data-name="Rectángulo 375668" width="295" height="141" transform="translate(1019.668 6687)" fill="#d9f9f8"/>
    <g id="reglamento" transform="translate(1095.082 6693.659)">
      <path id="Trazado_721686" data-name="Trazado 721686" d="M255.855,73.917H233.444V97.278h22.411Z" transform="translate(-121.826 -38.395)" fill="#c1c1c1"/>
      <path id="Trazado_721687" data-name="Trazado 721687" d="M252.672,73.917H230.261V97.278h22.411Z" transform="translate(-120.161 -38.395)" fill="#fafafa"/>
      <path id="Trazado_721688" data-name="Trazado 721688" d="M252.67,97.278H230.246V73.9H252.67Zm-22.411-.014h22.4V73.917h-22.4Z" transform="translate(-120.153 -38.387)" fill="#c1c1c1"/>
      <path id="Trazado_721689" data-name="Trazado 721689" d="M252.964,80.5H236.579v17.08h16.385Z" transform="translate(-123.467 -41.84)" fill="#fafafa"/>
      <path id="Trazado_721690" data-name="Trazado 721690" d="M233.3,116.562a2.672,2.672,0,0,1-.4.47c-.262.277-.629.65-1.042,1.056s-.791.768-1.07,1.025a2.655,2.655,0,0,1-.473.395,2.572,2.572,0,0,1,.4-.468c.262-.276.63-.651,1.044-1.058s.793-.77,1.072-1.026A2.544,2.544,0,0,1,233.3,116.562Z" transform="translate(-120.185 -60.705)" fill="#c1c1c1"/>
      <path id="Trazado_721691" data-name="Trazado 721691" d="M270.942,116.474a2.666,2.666,0,0,1,.47.4c.276.262.65.629,1.056,1.041s.768.791,1.025,1.07a2.575,2.575,0,0,1,.394.474,2.624,2.624,0,0,1-.468-.4c-.276-.262-.65-.63-1.058-1.044s-.77-.793-1.027-1.073A2.568,2.568,0,0,1,270.942,116.474Z" transform="translate(-141.444 -60.659)" fill="#c1c1c1"/>
      <path id="Trazado_721692" data-name="Trazado 721692" d="M270.848,77.367a2.652,2.652,0,0,1,.4-.47c.262-.276.629-.65,1.041-1.056s.791-.768,1.07-1.025a2.6,2.6,0,0,1,.473-.394,2.592,2.592,0,0,1-.4.468c-.262.276-.631.651-1.044,1.058s-.793.769-1.072,1.026A2.558,2.558,0,0,1,270.848,77.367Z" transform="translate(-141.395 -38.658)" fill="#c1c1c1"/>
      <path id="Trazado_721693" data-name="Trazado 721693" d="M233.253,77.405a2.679,2.679,0,0,1-.47-.4c-.276-.262-.65-.629-1.056-1.042s-.768-.791-1.025-1.07a2.587,2.587,0,0,1-.394-.474,2.629,2.629,0,0,1,.468.4c.277.262.651.631,1.058,1.044s.77.793,1.026,1.073A2.543,2.543,0,0,1,233.253,77.405Z" transform="translate(-120.185 -38.655)" fill="#c1c1c1"/>
      <path id="Trazado_721694" data-name="Trazado 721694" d="M252.84,97.5a.729.729,0,0,1,0-.082c0-.059,0-.137,0-.238,0-.214,0-.522-.008-.922,0-.809-.01-1.986-.017-3.481-.008-2.992-.019-7.253-.032-12.356l.063.063L236.5,80.5h0l.072-.073c0,6.269-.007,12.134-.01,17.08l-.062-.062,11.832.031,3.323.016.879.008.227,0,.079,0a.488.488,0,0,1-.072,0l-.22,0-.867.007-3.309.016-11.871.032h-.062V97.5c0-4.947-.007-10.811-.01-17.08v-.073h.074l16.339.009h.063v.063c-.013,5.119-.024,9.395-.032,12.4-.007,1.489-.012,2.661-.016,3.466q-.005.592-.008.91c0,.1,0,.175,0,.231A.515.515,0,0,1,252.84,97.5Z" transform="translate(-123.387 -41.76)" fill="#c1c1c1"/>
      <path id="Trazado_721695" data-name="Trazado 721695" d="M253.495,92.681h-5.468v5.467h5.468Z" transform="translate(-129.456 -48.211)" fill="#dbdbdb"/>
      <path id="Trazado_721696" data-name="Trazado 721696" d="M152.691,2.128,78.29,4.2l3.049,109.232,74.4-2.077Z" transform="translate(-40.653 -0.836)" fill="#c1c1c1"/>
      <path id="Trazado_721697" data-name="Trazado 721697" d="M137.449,4.609,63.13.53,57.142,109.642l74.319,4.079Z" transform="translate(-29.589)" fill="#f5f5f5"/>
      <path id="Trazado_721698" data-name="Trazado 721698" d="M161.264,16.942,87.1,10.623,77.824,119.505l74.163,6.319Z" transform="translate(-40.409 -5.28)" fill="#dbdbdb"/>
      <path id="Trazado_721699" data-name="Trazado 721699" d="M8.3,203.948a8.72,8.72,0,0,0-3.732-1.284,2.486,2.486,0,0,0-1.765.324.363.363,0,0,0-.182.322.394.394,0,0,0,.173.22A5.334,5.334,0,0,0,8.3,203.948Z" transform="translate(-1.061 -105.738)" fill="#c1c1c1"/>
      <path id="Trazado_721700" data-name="Trazado 721700" d="M9.978,198.748a18.164,18.164,0,0,1-2.41-2.12,6.1,6.1,0,0,1-1.511-2.795,1.127,1.127,0,0,1,.119-.935A9.379,9.379,0,0,1,9.978,198.748Z" transform="translate(-2.839 -100.643)" fill="#c1c1c1"/>
      <path id="Trazado_721701" data-name="Trazado 721701" d="M14.354,199.021a8.714,8.714,0,0,1,.044-3.164,4.276,4.276,0,0,1,1.685-2.611,3.736,3.736,0,0,1-.044,2.48,12.055,12.055,0,0,1-1.671,3.519" transform="translate(-7.139 -100.825)" fill="#c1c1c1"/>
      <path id="Trazado_721702" data-name="Trazado 721702" d="M13.277,212.435a5.513,5.513,0,0,0-2.992,1.514,5.663,5.663,0,0,0-1.712,2.938,4.035,4.035,0,0,0,2.763-1.747c.69-.887,1.168-1.86,1.926-2.689" transform="translate(-4.178 -110.864)" fill="#c1c1c1"/>
      <path id="Trazado_721703" data-name="Trazado 721703" d="M18.731,205.907a7.381,7.381,0,0,1,.852-6.982A8.887,8.887,0,0,1,18.731,205.907Z" transform="translate(-9.224 -103.796)" fill="#c1c1c1"/>
      <path id="Trazado_721704" data-name="Trazado 721704" d="M18.831,219.77a5.337,5.337,0,0,0-5.1,2.937c-.063.126-.119.287-.034.4a.381.381,0,0,0,.338.1,4.441,4.441,0,0,0,2.632-1.359,25.208,25.208,0,0,1,2.189-2.081" transform="translate(-6.835 -114.697)" fill="#c1c1c1"/>
      <path id="Trazado_721705" data-name="Trazado 721705" d="M23.879,211.685a9.5,9.5,0,0,1-.095-5.309,2.588,2.588,0,0,1,1.133-1.724.222.222,0,0,1,.173-.03.227.227,0,0,1,.11.127,3.194,3.194,0,0,1,.267,1.523,9.564,9.564,0,0,1-.239,1.542,8.194,8.194,0,0,1-.822,2.767,5.6,5.6,0,0,0-.329.608c-.1.207-.1.279-.188.444" transform="translate(-11.963 -106.772)" fill="#c1c1c1"/>
      <path id="Trazado_721706" data-name="Trazado 721706" d="M37.961,215.084a6.845,6.845,0,0,1,1.2-5.628c.086-.112.2-.232.341-.219.215.02.271.307.261.523A10.173,10.173,0,0,1,37.961,215.084Z" transform="translate(-19.458 -109.191)" fill="#c1c1c1"/>
      <path id="Trazado_721707" data-name="Trazado 721707" d="M39.407,220.217a8.185,8.185,0,0,0,6.718-1.367,5.443,5.443,0,0,0-3.637-.446A5.19,5.19,0,0,0,39.407,220.217Z" transform="translate(-20.31 -113.918)" fill="#c1c1c1"/>
      <path id="Trazado_721708" data-name="Trazado 721708" d="M40.457,215.892a7.763,7.763,0,0,1,6.1-3.526,3.753,3.753,0,0,1-1.994,2.2,11.047,11.047,0,0,1-2.927.856A2.068,2.068,0,0,0,40.457,215.892Z" transform="translate(-20.86 -110.828)" fill="#c1c1c1"/>
      <path id="Trazado_721709" data-name="Trazado 721709" d="M37.464,199.388a17.71,17.71,0,0,0,.78-3.571,5.949,5.949,0,0,0-.711-3.532,7.775,7.775,0,0,0-.1,7.225" transform="translate(-18.835 -100.322)" fill="#c1c1c1"/>
      <path id="Trazado_721710" data-name="Trazado 721710" d="M46.755,197.715a9.568,9.568,0,0,1,7.043-4.792A7.847,7.847,0,0,1,46.755,197.715Z" transform="translate(-24.155 -100.656)" fill="#c1c1c1"/>
      <path id="Trazado_721711" data-name="Trazado 721711" d="M44.935,203.551c2.058.314,3.811,1.628,5.734,2.425a2.572,2.572,0,0,0,1.3.248,1.015,1.015,0,0,0,.635-1.795,2.773,2.773,0,0,0-.941-.571,10.463,10.463,0,0,0-6.547-.365" transform="translate(-23.202 -106.001)" fill="#c1c1c1"/>
      <path id="Trazado_721712" data-name="Trazado 721712" d="M42.438,206.92a2.43,2.43,0,0,1,.994.689,10.724,10.724,0,0,0,4.348,2.234c.166.041.384.058.466-.092.072-.131-.019-.29-.112-.407a5.991,5.991,0,0,0-2.625-1.782,6.7,6.7,0,0,0-3.07-.727" transform="translate(-21.896 -107.927)" fill="#c1c1c1"/>
      <path id="Trazado_721713" data-name="Trazado 721713" d="M39.62,188.5a8.229,8.229,0,0,0,6.308,2.146.433.433,0,0,0,.287-.1c.159-.173-.032-.44-.217-.584A7.267,7.267,0,0,0,39.62,188.5Z" transform="translate(-20.422 -98.228)" fill="#c1c1c1"/>
      <path id="Trazado_721714" data-name="Trazado 721714" d="M42.961,185.646a8.793,8.793,0,0,1,7.872-1.3,6.249,6.249,0,0,1-3.751,1.647A11.874,11.874,0,0,1,42.961,185.646Z" transform="translate(-22.17 -95.953)" fill="#c1c1c1"/>
      <path id="Trazado_721715" data-name="Trazado 721715" d="M40.466,173.017c-.182-1.851-.064-3.312-.192-5.173-.01-.148-.042-.328-.181-.381-.194-.074-.355.164-.418.361a5.929,5.929,0,0,0,.789,5.152" transform="translate(-20.308 -87.329)" fill="#c1c1c1"/>
      <path id="Trazado_721716" data-name="Trazado 721716" d="M41.354,173.17a10.886,10.886,0,0,0,3.067-2.981,4.075,4.075,0,0,0,.979-2.839,2.933,2.933,0,0,0-2.212,1.1,6.17,6.17,0,0,0-1.128,2.269C41.814,171.532,41.642,172.369,41.354,173.17Z" transform="translate(-21.329 -87.277)" fill="#c1c1c1"/>
      <path id="Trazado_721717" data-name="Trazado 721717" d="M47.629,172.712a24.731,24.731,0,0,0,7.547-4.45,3.852,3.852,0,0,0-2.835.218,8.942,8.942,0,0,0-4.751,4.212" transform="translate(-24.591 -87.656)" fill="#c1c1c1"/>
      <path id="Trazado_721718" data-name="Trazado 721718" d="M43.13,179.284a15.36,15.36,0,0,0,4.19.02,17.765,17.765,0,0,0,3.912-1.3.46.46,0,0,0,.266-.2.307.307,0,0,0-.1-.335.809.809,0,0,0-.334-.156,7.244,7.244,0,0,0-4.228.252A19.649,19.649,0,0,0,43.13,179.284Z" transform="translate(-22.258 -92.378)" fill="#c1c1c1"/>
      <path id="Trazado_721719" data-name="Trazado 721719" d="M25.681,182.15a7.412,7.412,0,0,1-.068-6.135,4.687,4.687,0,0,1,.543,3.05c-.106,1.048-.425,2.127-.445,3.18" transform="translate(-12.764 -91.81)" fill="#c1c1c1"/>
      <path id="Trazado_721720" data-name="Trazado 721720" d="M11.507,184.863a8.556,8.556,0,0,0-6.358,2.709,5.94,5.94,0,0,0,3.482-.646,17.691,17.691,0,0,0,2.984-2" transform="translate(-2.387 -96.439)" fill="#c1c1c1"/>
      <path id="Trazado_721721" data-name="Trazado 721721" d="M6.567,182.952a8.867,8.867,0,0,0-3.394.1A4.072,4.072,0,0,0,.586,185.25a6.132,6.132,0,0,0,3.182-.6A18.251,18.251,0,0,0,6.567,182.952Z" transform="translate(0 -95.381)" fill="#c1c1c1"/>
      <path id="Trazado_721722" data-name="Trazado 721722" d="M13.589,181.2a10.717,10.717,0,0,0-3.333-1.665,3.633,3.633,0,0,0-3.473.843,6.486,6.486,0,0,0,3.32.645,11.467,11.467,0,0,1,3.617.367" transform="translate(-3.242 -93.591)" fill="#c1c1c1"/>
      <path id="Trazado_721723" data-name="Trazado 721723" d="M18.847,175.263a7.748,7.748,0,0,1-1.744-7.3A11.126,11.126,0,0,1,18.847,175.263Z" transform="translate(-8.493 -87.597)" fill="#c1c1c1"/>
      <path id="Trazado_721724" data-name="Trazado 721724" d="M31.366,166.534c.337-.783.574-1.6.875-2.4a6.892,6.892,0,0,1,1.249-2.214,3.288,3.288,0,0,1,2.211-1.146,8.906,8.906,0,0,1-4.292,5.773" transform="translate(-16.103 -83.836)" fill="#c1c1c1"/>
      <path id="Trazado_721725" data-name="Trazado 721725" d="M24.436,171.573a11.5,11.5,0,0,0-1.957-2.381,3.275,3.275,0,0,0-2.662-.7A6.2,6.2,0,0,0,24.436,171.573Z" transform="translate(-10.061 -87.84)" fill="#c1c1c1"/>
      <path id="Trazado_721726" data-name="Trazado 721726" d="M28.839,166.675a13.246,13.246,0,0,1-.881-2.853,4.452,4.452,0,0,1,.446-2.9,6.581,6.581,0,0,1,.484,5.774" transform="translate(-14.287 -83.914)" fill="#c1c1c1"/>
      <path id="Trazado_721727" data-name="Trazado 721727" d="M31.385,156.615a6.22,6.22,0,0,1,4.053-3.809,1.522,1.522,0,0,1,.711-.107.617.617,0,0,1,.524.437c.066.312-.192.593-.435.8A13.792,13.792,0,0,1,31.385,156.615Z" transform="translate(-16.113 -79.606)" fill="#c1c1c1"/>
      <path id="Trazado_721728" data-name="Trazado 721728" d="M31.4,151a13.15,13.15,0,0,1,.53-3.507,4.434,4.434,0,0,1,2.207-2.665,5.2,5.2,0,0,1-.98,3.415,15.663,15.663,0,0,0-1.786,3.148" transform="translate(-16.103 -75.493)" fill="#c1c1c1"/>
      <path id="Trazado_721729" data-name="Trazado 721729" d="M27.587,152.419c-.459-1.338-.506-3.039-1.308-4.2-.56-.815-1.457-1.371-1.94-2.234a3.4,3.4,0,0,0,.113,2.536,7.343,7.343,0,0,0,1.483,2.122C26.528,151.272,27.036,151.748,27.587,152.419Z" transform="translate(-12.325 -76.096)" fill="#c1c1c1"/>
      <path id="Trazado_721730" data-name="Trazado 721730" d="M31.309,198.388c-.036,0-.066-8.929-.069-19.941s.024-19.943.06-19.943.066,8.927.069,19.943S31.345,198.388,31.309,198.388Z" transform="translate(-16.037 -82.649)" fill="#c1c1c1"/>
      <path id="Trazado_721731" data-name="Trazado 721731" d="M39.176,186.054a1.912,1.912,0,0,1-.336.126l-.924.312c-.779.265-1.849.649-3.011,1.126a12.219,12.219,0,0,0-2.852,1.429,2.1,2.1,0,0,0-.573.758c-.089.21-.1.338-.116.336a.266.266,0,0,1,0-.094,1.411,1.411,0,0,1,.066-.26,2.015,2.015,0,0,1,.559-.808,5.031,5.031,0,0,1,1.238-.769c.495-.231,1.044-.472,1.626-.711,1.165-.477,2.243-.849,3.031-1.093.394-.123.715-.213.938-.273A1.9,1.9,0,0,1,39.176,186.054Z" transform="translate(-16.101 -97.062)" fill="#c1c1c1"/>
      <path id="Trazado_721732" data-name="Trazado 721732" d="M42.406,172.881a.554.554,0,0,1-.094.1l-.287.269-1.07.972-3.56,3.169c-1.39,1.237-2.591,2.419-3.423,3.309-.417.444-.745.813-.969,1.07l-.259.3a.549.549,0,0,1-.1.1.536.536,0,0,1,.076-.114c.054-.072.133-.179.24-.311.212-.267.531-.646.94-1.1a45.086,45.086,0,0,1,3.4-3.343c1.395-1.234,2.664-2.343,3.586-3.142l1.1-.941.3-.251A.527.527,0,0,1,42.406,172.881Z" transform="translate(-16.774 -90.17)" fill="#c1c1c1"/>
      <path id="Trazado_721733" data-name="Trazado 721733" d="M39.456,181.587c-.036-.016.254-.686.543-1.534s.429-1.563.466-1.557a5.225,5.225,0,0,1-.344,1.6,10.386,10.386,0,0,1-.432,1.073A1.663,1.663,0,0,1,39.456,181.587Z" transform="translate(-20.334 -93.108)" fill="#c1c1c1"/>
      <path id="Trazado_721734" data-name="Trazado 721734" d="M25.724,189.159a1.589,1.589,0,0,1-.214-.248l-.549-.7c-.461-.6-1.1-1.418-1.812-2.318s-1.371-1.707-1.846-2.291l-.561-.694a1.578,1.578,0,0,1-.193-.265,1.636,1.636,0,0,1,.232.232c.143.155.345.383.592.668.494.569,1.162,1.368,1.878,2.269s1.341,1.733,1.784,2.344c.221.3.4.554.516.728A1.665,1.665,0,0,1,25.724,189.159Z" transform="translate(-10.444 -95.276)" fill="#c1c1c1"/>
      <path id="Trazado_721735" data-name="Trazado 721735" d="M26.84,188.745a3.143,3.143,0,0,1-.717-1.342,3.831,3.831,0,0,1-.163-1.353l.057,0c-.025.1-.044.158-.054.156s-.011-.059,0-.165l.057,0a6.151,6.151,0,0,0,.229,1.316A10.017,10.017,0,0,0,26.84,188.745Z" transform="translate(-13.271 -97.058)" fill="#c1c1c1"/>
      <path id="Trazado_721736" data-name="Trazado 721736" d="M18.942,185.278a2.328,2.328,0,0,0-.5-.29,3.341,3.341,0,0,0-1.389-.111,8.57,8.57,0,0,0-1.4.226,4.239,4.239,0,0,1-.576.138,2.016,2.016,0,0,1,.551-.226,6.423,6.423,0,0,1,1.414-.267,3.033,3.033,0,0,1,1.433.155A.891.891,0,0,1,18.942,185.278Z" transform="translate(-7.581 -96.369)" fill="#c1c1c1"/>
      <path id="Trazado_721737" data-name="Trazado 721737" d="M16.126,183.567c-.01.02-.292-.117-.767-.279a7.722,7.722,0,0,0-3.864-.3c-.494.089-.793.181-.8.16a.711.711,0,0,1,.2-.087,4.73,4.73,0,0,1,.579-.163,6.814,6.814,0,0,1,3.913.3,4.786,4.786,0,0,1,.548.248A.761.761,0,0,1,16.126,183.567Z" transform="translate(-5.289 -95.332)" fill="#c1c1c1"/>
      <path id="Trazado_721738" data-name="Trazado 721738" d="M30.272,174.2a31.619,31.619,0,0,1-.993-3.916,15.916,15.916,0,0,1,.559,1.943A15.84,15.84,0,0,1,30.272,174.2Z" transform="translate(-15.009 -88.811)" fill="#c1c1c1"/>
      <path id="Trazado_721739" data-name="Trazado 721739" d="M29.76,176.185a9.348,9.348,0,0,0-.62-1.162,5.136,5.136,0,0,0-.912-.942.854.854,0,0,1,.352.182,2.844,2.844,0,0,1,.666.686A2.581,2.581,0,0,1,29.76,176.185Z" transform="translate(-14.461 -90.797)" fill="#c1c1c1"/>
      <path id="Trazado_721740" data-name="Trazado 721740" d="M22.41,217.867c-.014,0-.04-.215-.141-.594a8.473,8.473,0,0,0-.6-1.546,21.4,21.4,0,0,0-3.166-4.46c-.707-.808-1.392-1.569-1.974-2.3a16.073,16.073,0,0,1-1.412-2.036,9.8,9.8,0,0,1-.713-1.511c-.066-.186-.114-.332-.14-.432a.717.717,0,0,1-.037-.154c.012,0,.077.2.224.568a11.077,11.077,0,0,0,.745,1.483,17.117,17.117,0,0,0,1.426,2.008c.584.722,1.271,1.48,1.979,2.288a20.27,20.27,0,0,1,3.151,4.505,7.719,7.719,0,0,1,.563,1.573,4.368,4.368,0,0,1,.079.448A.708.708,0,0,1,22.41,217.867Z" transform="translate(-7.138 -106.887)" fill="#c1c1c1"/>
      <path id="Trazado_721741" data-name="Trazado 721741" d="M38.435,215.463a3.231,3.231,0,0,1-.37.207,8.14,8.14,0,0,0-.958.634,11.062,11.062,0,0,0-1.259,1.148c-.442.467-.9,1.008-1.362,1.59-.929,1.165-1.8,2.2-2.317,3.019-.264.408-.456.752-.582.994a3.241,3.241,0,0,1-.2.372.358.358,0,0,1,.034-.1c.027-.067.065-.166.124-.289a9.431,9.431,0,0,1,.55-1.02,33.217,33.217,0,0,1,2.294-3.052c.465-.582.926-1.125,1.376-1.591a10.181,10.181,0,0,1,1.29-1.139,6.7,6.7,0,0,1,.99-.605c.122-.062.222-.1.288-.128A.361.361,0,0,1,38.435,215.463Z" transform="translate(-16.112 -112.448)" fill="#c1c1c1"/>
      <path id="Trazado_721742" data-name="Trazado 721742" d="M41.115,220.873a5.366,5.366,0,0,1-.781.113,10.294,10.294,0,0,0-1.852.365,5.56,5.56,0,0,0-1.659.87c-.382.3-.563.54-.58.525a.6.6,0,0,1,.116-.18,2.953,2.953,0,0,1,.407-.416,5.02,5.02,0,0,1,1.677-.923,8.353,8.353,0,0,1,1.883-.333A4.284,4.284,0,0,1,41.115,220.873Z" transform="translate(-18.655 -115.274)" fill="#c1c1c1"/>
      <path id="Trazado_721743" data-name="Trazado 721743" d="M36.718,221.315c-.041-.023.311-.561.584-1.284.256-.73.316-1.369.362-1.362a1.235,1.235,0,0,1-.013.419,4.484,4.484,0,0,1-.228.988,4.787,4.787,0,0,1-.453.905A1.27,1.27,0,0,1,36.718,221.315Z" transform="translate(-18.902 -114.126)" fill="#c1c1c1"/>
      <path id="Trazado_721744" data-name="Trazado 721744" d="M40.722,200.917a.627.627,0,0,1-.125.066l-.367.167c-.161.069-.356.156-.576.272s-.478.231-.746.392l-.426.242c-.148.085-.294.185-.449.283-.314.19-.629.425-.965.665a16.545,16.545,0,0,0-3.715,3.845c-.228.344-.452.666-.631.987-.092.159-.188.308-.268.459l-.227.434c-.152.273-.26.535-.366.759s-.189.422-.253.585l-.154.372a.573.573,0,0,1-.062.127.572.572,0,0,1,.038-.135l.132-.382c.056-.167.131-.368.233-.6s.2-.494.351-.771l.222-.441c.078-.153.172-.3.263-.465.177-.325.4-.652.626-1A15.932,15.932,0,0,1,37,202.909c.34-.239.659-.472.978-.66.158-.1.306-.2.456-.279l.433-.236c.272-.157.534-.269.759-.377s.423-.191.587-.254l.377-.145A.569.569,0,0,1,40.722,200.917Z" transform="translate(-16.116 -104.838)" fill="#c1c1c1"/>
      <path id="Trazado_721745" data-name="Trazado 721745" d="M39.257,207.736a.9.9,0,0,1,.307-.457,1.936,1.936,0,0,1,1.236-.474,3.386,3.386,0,0,1,1.3.254,1.854,1.854,0,0,1,.492.239,2.979,2.979,0,0,1-.522-.153,3.92,3.92,0,0,0-1.267-.212,2.015,2.015,0,0,0-1.181.414A3.575,3.575,0,0,0,39.257,207.736Z" transform="translate(-20.231 -107.918)" fill="#c1c1c1"/>
      <path id="Trazado_721746" data-name="Trazado 721746" d="M37.506,208a3.3,3.3,0,0,0,.272-2.335.757.757,0,0,1,.145.332,2.36,2.36,0,0,1-.2,1.711C37.615,207.909,37.518,208.011,37.506,208Z" transform="translate(-19.314 -107.324)" fill="#c1c1c1"/>
      <path id="Trazado_721747" data-name="Trazado 721747" d="M18.452,234.85a29.553,29.553,0,0,0,2.8,10.391h6.878a29.883,29.883,0,0,0,2.636-10.391Z" transform="translate(-9.347 -122.591)" fill="#c1c1c1"/>
      <path id="Trazado_721748" data-name="Trazado 721748" d="M30.845,246.359c0,.035-2.265.064-5.057.064s-5.058-.029-5.058-.064,2.264-.065,5.058-.065S30.845,246.323,30.845,246.359Z" transform="translate(-10.539 -128.579)" fill="#fafafa"/>
      <path id="Trazado_721749" data-name="Trazado 721749" d="M31.216,248.952c0,.035-2.123.064-4.741.064s-4.741-.029-4.741-.064,2.122-.064,4.741-.064S31.216,248.917,31.216,248.952Z" transform="translate(-11.064 -129.936)" fill="#fafafa"/>
      <path id="Trazado_721750" data-name="Trazado 721750" d="M24.491,239.548a19.513,19.513,0,0,1,0,3.168,19.5,19.5,0,0,1,0-3.168Z" transform="translate(-12.473 -125.049)" fill="#fafafa"/>
      <path id="Trazado_721751" data-name="Trazado 721751" d="M32.219,239.548a20.927,20.927,0,0,1,0,3.281,20.911,20.911,0,0,1,0-3.281Z" transform="translate(-16.516 -125.049)" fill="#fafafa"/>
      <path id="Trazado_721752" data-name="Trazado 721752" d="M39.475,239.49a21.753,21.753,0,0,1,0,3.347,21.766,21.766,0,0,1,0-3.347Z" transform="translate(-20.312 -125.019)" fill="#fafafa"/>
      <path id="Trazado_721753" data-name="Trazado 721753" d="M30.806,239.477c0,.036-2.656.065-5.932.065s-5.932-.029-5.932-.065,2.655-.064,5.932-.064S30.806,239.442,30.806,239.477Z" transform="translate(-9.603 -124.979)" fill="#fafafa"/>
      <path id="Trazado_721754" data-name="Trazado 721754" d="M33.846,22.527H6.274V62.491H33.846Z" transform="translate(-2.976 -11.508)" fill="#c1c1c1"/>
      <path id="Trazado_721755" data-name="Trazado 721755" d="M30.949,22.527H3.377V62.491H30.949Z" transform="translate(-1.46 -11.508)" fill="#f5f5f5"/>
      <path id="Trazado_721756" data-name="Trazado 721756" d="M31.282,31.6H10.562V62.912H31.282Z" transform="translate(-5.219 -16.257)" fill="#fff"/>
      <path id="Trazado_721757" data-name="Trazado 721757" d="M31.2,62.829s0-.053,0-.153,0-.251,0-.444c0-.394,0-.969-.008-1.717,0-1.5-.011-3.687-.018-6.449-.008-5.52-.02-13.338-.034-22.544l.069.069L10.482,31.6h0l.075-.075c-.006,11.81-.011,22.7-.015,31.307l-.06-.06,15.082.032,4.167.015,1.094.007c.248,0,.379.006.379.006s-.122,0-.366.006l-1.082.007-4.153.015-15.119.032h-.06v-.06c0-8.608-.01-19.5-.015-31.307v-.075h.078l20.718.006h.069v.069c-.014,9.224-.025,17.057-.034,22.589-.008,2.755-.014,4.937-.018,6.434,0,.742-.006,1.313-.008,1.7,0,.19,0,.335,0,.436S31.2,62.829,31.2,62.829Z" transform="translate(-5.137 -16.175)" fill="#c1c1c1"/>
      <path id="Trazado_721758" data-name="Trazado 721758" d="M57.244,22.526a4.762,4.762,0,0,1-.492.714c-.32.428-.775,1.011-1.294,1.641s-1,1.188-1.363,1.584a4.785,4.785,0,0,1-.607.619,5.153,5.153,0,0,1,.526-.688l1.327-1.611,1.326-1.611A5.154,5.154,0,0,1,57.244,22.526Z" transform="translate(-27.677 -11.508)" fill="#c1c1c1"/>
      <path id="Trazado_721759" data-name="Trazado 721759" d="M54.239,97.051a25.651,25.651,0,0,0,3.614,4.52Z" transform="translate(-28.07 -50.498)" fill="#fff"/>
      <path id="Trazado_721760" data-name="Trazado 721760" d="M57.851,101.57a4.1,4.1,0,0,1-.63-.573,20.232,20.232,0,0,1-2.564-3.206,4.118,4.118,0,0,1-.42-.741,5.672,5.672,0,0,1,.508.681c.3.426.731,1.01,1.229,1.634s.974,1.168,1.323,1.559A5.761,5.761,0,0,1,57.851,101.57Z" transform="translate(-28.068 -50.497)" fill="#c1c1c1"/>
      <path id="Trazado_721761" data-name="Trazado 721761" d="M3.369,101.385l3.611-4.456Z" transform="translate(-1.456 -50.434)" fill="#fff"/>
      <path id="Trazado_721762" data-name="Trazado 721762" d="M6.98,96.929A27.512,27.512,0,0,1,5.232,99.2a27.612,27.612,0,0,1-1.864,2.181,27.47,27.47,0,0,1,1.748-2.275A27.474,27.474,0,0,1,6.98,96.929Z" transform="translate(-1.455 -50.434)" fill="#c1c1c1"/>
      <path id="Trazado_721763" data-name="Trazado 721763" d="M3.376,22.526a24.913,24.913,0,0,1,1.753,2.1A24.928,24.928,0,0,1,6.764,26.81a24.98,24.98,0,0,1-1.753-2.1A24.951,24.951,0,0,1,3.376,22.526Z" transform="translate(-1.459 -11.507)" fill="#c1c1c1"/>
      <path id="Trazado_721764" data-name="Trazado 721764" d="M32.866,44.936H25.928v19.7h6.938Z" transform="translate(-13.258 -23.232)" fill="#c1c1c1"/>
      <path id="Trazado_721765" data-name="Trazado 721765" d="M134.229,256.7c0,.041-28.88.075-64.5.075s-64.5-.033-64.5-.075,28.874-.075,64.5-.075S134.229,256.656,134.229,256.7Z" transform="translate(-2.428 -133.982)" fill="#003759"/>
      <path id="Trazado_721766" data-name="Trazado 721766" d="M142.886,131.717H60.755V18.127h82.131a3.108,3.108,0,0,1,3.108,3.109V128.608A3.108,3.108,0,0,1,142.886,131.717Z" transform="translate(-31.479 -9.206)" fill="#01d8d1"/>
      <g id="Grupo_1017502" data-name="Grupo 1017502" transform="translate(29.276 8.921)" opacity="0.3">
        <path id="Trazado_721767" data-name="Trazado 721767" d="M142.886,131.717H60.755V18.127h82.131a3.108,3.108,0,0,1,3.108,3.109V128.608A3.108,3.108,0,0,1,142.886,131.717Z" transform="translate(-60.755 -18.127)" fill="#003759"/>
      </g>
      <path id="Trazado_721768" data-name="Trazado 721768" d="M184.569,25.506H139V135.577h45.569Z" transform="translate(-72.415 -13.067)" fill="#c1c1c1"/>
      <path id="Trazado_721769" data-name="Trazado 721769" d="M136.341,130.735H60.014V16.251h76.327a3.108,3.108,0,0,1,3.108,3.109V127.627A3.109,3.109,0,0,1,136.341,130.735Z" transform="translate(-31.091 -8.225)" fill="#01d8d1"/>
      <path id="Trazado_721770" data-name="Trazado 721770" d="M77.052,130.943c-.042,0-.075-25.677-.075-57.343s.034-57.349.075-57.349.075,25.671.075,57.349S77.093,130.943,77.052,130.943Z" transform="translate(-39.966 -8.225)" fill="#003759"/>
      <path id="Trazado_721771" data-name="Trazado 721771" d="M81.553,130.943c-.042,0-.075-25.677-.075-57.343s.034-57.349.075-57.349.075,25.671.075,57.349S81.594,130.943,81.553,130.943Z" transform="translate(-42.321 -8.225)" fill="#003759"/>
      <path id="Trazado_721772" data-name="Trazado 721772" d="M114.685,97.962l-.019-3.587-1.74,2.92h-.851l-1.731-2.823v3.491h-1.769V91.194h1.576l2.378,3.906,2.321-3.906h1.576l.02,6.769Z" transform="translate(-56.498 -47.433)" fill="#fff"/>
      <path id="Trazado_721773" data-name="Trazado 721773" d="M131.566,96.648H128.7l-.532,1.315h-1.953l2.988-6.768h1.885l3,6.768H132.1Zm-.56-1.412-.871-2.166-.87,2.166Z" transform="translate(-65.729 -47.434)" fill="#fff"/>
      <path id="Trazado_721774" data-name="Trazado 721774" d="M150.3,91.194v6.768h-1.576l-2.988-3.606v3.606h-1.876V91.194h1.576l2.988,3.606V91.194Z" transform="translate(-74.96 -47.434)" fill="#fff"/>
      <path id="Trazado_721775" data-name="Trazado 721775" d="M160.087,94.946V91.194H162v3.694c0,1.161.483,1.625,1.286,1.625s1.276-.464,1.276-1.625V91.194h1.885v3.751a3.181,3.181,0,0,1-6.362,0Z" transform="translate(-83.448 -47.434)" fill="#fff"/>
      <path id="Trazado_721776" data-name="Trazado 721776" d="M179.488,96.648h-2.862l-.532,1.315h-1.953l2.988-6.768h1.885l3,6.768H180.02Zm-.561-1.412-.87-2.166-.87,2.166Z" transform="translate(-90.8 -47.434)" fill="#fff"/>
      <path id="Trazado_721777" data-name="Trazado 721777" d="M191.785,91.194H193.7v5.25h3.229v1.518h-5.144Z" transform="translate(-100.031 -47.434)" fill="#fff"/>
      <path id="Trazado_721778" data-name="Trazado 721778" d="M114.7,78.679h.4v3.781h-.4Z" transform="translate(-59.703 -40.886)" fill="#fff"/>
      <path id="Trazado_721779" data-name="Trazado 721779" d="M121.283,78.678v3.781h-.329l-2.43-3.068v3.068h-.4V78.678h.329l2.436,3.068V78.678Z" transform="translate(-61.493 -40.886)" fill="#fff"/>
      <path id="Trazado_721780" data-name="Trazado 721780" d="M126.575,81.964l.157-.308a1.855,1.855,0,0,0,1.247.459c.708,0,1.016-.3,1.016-.67,0-1.037-2.328-.4-2.328-1.8,0-.556.432-1.037,1.394-1.037a2.135,2.135,0,0,1,1.172.335l-.135.319a1.947,1.947,0,0,0-1.037-.313c-.691,0-1,.308-1,.686,0,1.037,2.328.41,2.328,1.788,0,.556-.443,1.032-1.41,1.032A2.051,2.051,0,0,1,126.575,81.964Z" transform="translate(-65.915 -40.85)" fill="#fff"/>
      <path id="Trazado_721781" data-name="Trazado 721781" d="M134.271,79.024h-1.328v-.346H136v.346h-1.328v3.435h-.4V79.024Z" transform="translate(-69.246 -40.886)" fill="#fff"/>
      <path id="Trazado_721782" data-name="Trazado 721782" d="M143.273,82.459l-.864-1.215a2.724,2.724,0,0,1-.3.016h-1.016v1.2h-.4V78.678h1.416c.961,0,1.544.486,1.544,1.3a1.172,1.172,0,0,1-.864,1.188l.924,1.3h-.438Zm-.021-2.484c0-.605-.4-.951-1.156-.951h-1v1.9h1C142.852,80.92,143.252,80.569,143.252,79.974Z" transform="translate(-73.3 -40.885)" fill="#fff"/>
      <path id="Trazado_721783" data-name="Trazado 721783" d="M148.814,80.844V78.678h.4v2.149c0,.9.422,1.307,1.156,1.307s1.162-.41,1.162-1.307V78.678h.389v2.166a1.556,1.556,0,1,1-3.106,0Z" transform="translate(-77.55 -40.885)" fill="#fff"/>
      <path id="Trazado_721784" data-name="Trazado 721784" d="M157.153,80.533a1.9,1.9,0,0,1,1.982-1.923,1.832,1.832,0,0,1,1.383.551l-.254.254a1.5,1.5,0,0,0-1.118-.448,1.567,1.567,0,1,0,0,3.133,1.483,1.483,0,0,0,1.118-.454l.254.254a1.839,1.839,0,0,1-1.388.556A1.9,1.9,0,0,1,157.153,80.533Z" transform="translate(-81.913 -40.85)" fill="#fff"/>
      <path id="Trazado_721785" data-name="Trazado 721785" d="M165.982,79.024h-1.328v-.346h3.057v.346h-1.329v3.435h-.4V79.024Z" transform="translate(-85.837 -40.886)" fill="#fff"/>
      <path id="Trazado_721786" data-name="Trazado 721786" d="M172.4,78.678h.4v3.781h-.4Z" transform="translate(-89.891 -40.886)" fill="#fff"/>
      <path id="Trazado_721787" data-name="Trazado 721787" d="M175.122,80.533a1.986,1.986,0,1,1,1.988,1.923A1.9,1.9,0,0,1,175.122,80.533Zm3.57,0a1.588,1.588,0,1,0-1.583,1.566A1.531,1.531,0,0,0,178.692,80.533Z" transform="translate(-91.314 -40.85)" fill="#fff"/>
      <path id="Trazado_721788" data-name="Trazado 721788" d="M188.489,78.678v3.781h-.329l-2.43-3.068v3.068h-.4V78.678h.33l2.436,3.068V78.678Z" transform="translate(-96.654 -40.886)" fill="#fff"/>
      <g id="Grupo_1017503" data-name="Grupo 1017503" transform="translate(37.086 8.026)" opacity="0.3">
        <path id="Trazado_721789" data-name="Trazado 721789" d="M79.28,16.251H77.134V130.943H79.28Z" transform="translate(-77.134 -16.251)" fill="#003759"/>
      </g>
      <path id="Trazado_721790" data-name="Trazado 721790" d="M176.256,29.356v-13.1h12.62V29.6l-6.188,6.188Z" transform="translate(-91.907 -8.225)" fill="#00aca7"/>
      <path id="Trazado_721791" data-name="Trazado 721791" d="M228.91,25.506c.041,0,.075,24.376.075,54.439s-.034,54.444-.075,54.444-.075-24.371-.075-54.444S228.869,25.506,228.91,25.506Z" transform="translate(-119.415 -13.067)" fill="#003759"/>
      <path id="Trazado_721792" data-name="Trazado 721792" d="M231.619,25.506c.041,0,.075,24.376.075,54.439s-.034,54.444-.075,54.444-.075-24.371-.075-54.444S231.578,25.506,231.619,25.506Z" transform="translate(-120.832 -13.067)" fill="#003759"/>
      <path id="Trazado_721793" data-name="Trazado 721793" d="M228.993,58.72h3.162l2.888,2.191L232.454,63.5h-3.461Z" transform="translate(-119.498 -30.444)" fill="#00aca7"/>
      <path id="Trazado_721794" data-name="Trazado 721794" d="M237.671,78.4H231.7v3.975h5.97Z" transform="translate(-120.915 -40.741)" fill="#01d8d1"/>
      <g id="Grupo_1017504" data-name="Grupo 1017504" transform="translate(57.956 59.365)" opacity="0.3">
        <path id="Trazado_721795" data-name="Trazado 721795" d="M150.643,149.463l-3.566,3.477a.944.944,0,0,1-1.311.006l-24.571-23.509a.944.944,0,0,1-.03-1.335l3.722-3.889a.945.945,0,0,1,1.343-.022l24.415,23.922A.945.945,0,0,1,150.643,149.463Z" transform="translate(-120.903 -123.921)" fill="#003759"/>
      </g>
      <path id="Trazado_721796" data-name="Trazado 721796" d="M133.01,127.806a15.18,15.18,0,0,1-2.083,2.166,15.252,15.252,0,0,1,2.083-2.166Z" transform="translate(-68.191 -66.587)" fill="#003759"/>
      <path id="Trazado_721797" data-name="Trazado 721797" d="M141.2,135.695a15.251,15.251,0,0,1-2.083,2.166,15.179,15.179,0,0,1,2.083-2.166Z" transform="translate(-72.477 -70.715)" fill="#003759"/>
      <path id="Trazado_721798" data-name="Trazado 721798" d="M136.132,131.416a13.8,13.8,0,0,1-1.348,1.495,13.624,13.624,0,0,1-1.455,1.391,27.312,27.312,0,0,1,2.8-2.886Z" transform="translate(-69.448 -68.476)" fill="#003759"/>
      <path id="Trazado_721799" data-name="Trazado 721799" d="M144.549,139.833a27.37,27.37,0,0,1-2.8,2.886,27.378,27.378,0,0,1,2.8-2.886Z" transform="translate(-73.851 -72.88)" fill="#003759"/>
      <path id="Trazado_721800" data-name="Trazado 721800" d="M149.208,143.7a15.248,15.248,0,0,1-2.083,2.166,15.25,15.25,0,0,1,2.083-2.166Z" transform="translate(-76.666 -74.904)" fill="#003759"/>
      <path id="Trazado_721801" data-name="Trazado 721801" d="M152.556,147.84a13.691,13.691,0,0,1-1.348,1.495,13.848,13.848,0,0,1-1.455,1.391,27.374,27.374,0,0,1,2.8-2.886Z" transform="translate(-78.04 -77.069)" fill="#003759"/>
      <path id="Trazado_721802" data-name="Trazado 721802" d="M157.215,151.71a15.249,15.249,0,0,1-2.083,2.166,15.249,15.249,0,0,1,2.083-2.166Z" transform="translate(-80.855 -79.093)" fill="#003759"/>
      <path id="Trazado_721803" data-name="Trazado 721803" d="M160.564,155.847a27.31,27.31,0,0,1-2.8,2.887,27.439,27.439,0,0,1,2.8-2.887Z" transform="translate(-82.23 -81.258)" fill="#003759"/>
      <path id="Trazado_721804" data-name="Trazado 721804" d="M165.222,159.717a15.284,15.284,0,0,1-2.083,2.166,15.282,15.282,0,0,1,2.083-2.166Z" transform="translate(-85.044 -83.282)" fill="#003759"/>
      <path id="Trazado_721805" data-name="Trazado 721805" d="M168.571,163.854a27.314,27.314,0,0,1-2.8,2.887,13.67,13.67,0,0,1,1.348-1.495A13.855,13.855,0,0,1,168.571,163.854Z" transform="translate(-86.419 -85.447)" fill="#003759"/>
      <path id="Trazado_721806" data-name="Trazado 721806" d="M173.23,167.724a15.217,15.217,0,0,1-2.083,2.166,15.284,15.284,0,0,1,2.083-2.166Z" transform="translate(-89.233 -87.472)" fill="#003759"/>
      <g id="Grupo_1017505" data-name="Grupo 1017505" transform="translate(74.728 59.054)" opacity="0.3">
        <path id="Trazado_721807" data-name="Trazado 721807" d="M156.078,133.43l3.441,3.224,2.321-2.275s3.721,1.144,6.111-1.485a7.5,7.5,0,0,0,1.526-5.866l-4,3.533-3.39-3.39,3.574-3.706a6.144,6.144,0,0,0-6.235,1.983,6.082,6.082,0,0,0-1.041,5.639Z" transform="translate(-156.078 -123.268)" fill="#003759"/>
      </g>
      <g id="Grupo_1017506" data-name="Grupo 1017506" transform="translate(57.095 75.409)" opacity="0.3">
        <path id="Trazado_721808" data-name="Trazado 721808" d="M132.462,160.784c-.086-.15-3.435-3.216-3.435-3.216l-2.176,2.132s-4.089-.812-6.111,1.485a7.172,7.172,0,0,0-1.526,5.866l4-3.533,3.39,3.39-3.574,3.706a5.973,5.973,0,0,0,7.276-7.622Z" transform="translate(-119.098 -157.568)" fill="#003759"/>
      </g>
      <path id="Trazado_721809" data-name="Trazado 721809" d="M153.28,229.712c0,.042-10.847.075-24.224.075s-24.226-.034-24.226-.075,10.845-.075,24.226-.075S153.28,229.671,153.28,229.712Z" transform="translate(-54.538 -119.864)" fill="#fff"/>
      <path id="Trazado_721810" data-name="Trazado 721810" d="M154.53,234.55c0,.041-7.133.075-15.93.075s-15.932-.034-15.932-.075,7.132-.075,15.932-.075S154.53,234.508,154.53,234.55Z" transform="translate(-63.871 -122.395)" fill="#fff"/>
      <path id="Trazado_721811" data-name="Trazado 721811" d="M155.449,239.284h-3.818V243.1h3.818Z" transform="translate(-79.024 -124.911)" fill="#c1c1c1"/>
      <path id="Trazado_721812" data-name="Trazado 721812" d="M60.515,245.068l-.8,5.841s5.667,2.777,5.624,3.871l-11.38-1.149.877-9.152Z" transform="translate(-27.922 -127.629)" fill="#00aca7"/>
      <path id="Trazado_721813" data-name="Trazado 721813" d="M58.338,256.172a.468.468,0,0,0-.375.5.449.449,0,0,0,.49.376.492.492,0,0,0,.394-.529.466.466,0,0,0-.553-.335" transform="translate(-30.017 -133.741)" fill="#c1c1c1"/>
      <g id="Grupo_1017507" data-name="Grupo 1017507" transform="translate(26.034 125.083)" opacity="0.6">
        <path id="Trazado_721814" data-name="Trazado 721814" d="M53.956,262.664l.125-.919,10.864,1.445s.484.271.391.623Z" transform="translate(-53.956 -261.745)" fill="#fff"/>
      </g>
      <path id="Trazado_721815" data-name="Trazado 721815" d="M65.22,257.8c-.008.055-.288.052-.579.2s-.461.37-.51.343.066-.34.422-.516S65.237,257.751,65.22,257.8Z" transform="translate(-33.24 -134.561)" fill="#003759"/>
      <path id="Trazado_721816" data-name="Trazado 721816" d="M67.913,259.137c.007.055-.243.125-.455.341s-.292.459-.347.451-.059-.326.211-.589S67.918,259.083,67.913,259.137Z" transform="translate(-34.789 -135.282)" fill="#003759"/>
      <path id="Trazado_721817" data-name="Trazado 721817" d="M69.892,261.3c-.052.007-.1-.279.073-.568s.446-.385.464-.336-.158.2-.3.435S69.948,261.3,69.892,261.3Z" transform="translate(-36.234 -135.951)" fill="#003759"/>
      <path id="Trazado_721818" data-name="Trazado 721818" d="M65.2,254.763c-.028.048-.276-.054-.592-.065s-.571.064-.6.013.231-.225.6-.207S65.228,254.721,65.2,254.763Z" transform="translate(-33.181 -132.873)" fill="#003759"/>
      <path id="Trazado_721819" data-name="Trazado 721819" d="M33.812,160.79s-2.09,14.829-1.038,17.253a5.458,5.458,0,0,0,4.09,3.162,65,65,0,0,0,6.916,1.171l1.434-8.544-3.244-.707,2.986-10.632-5.285-3.62Z" transform="translate(-16.685 -82.842)" fill="#003759"/>
      <path id="Trazado_721820" data-name="Trazado 721820" d="M55.776,161.859,53.16,202.825l7.226.366,3.222-20.321s3.431-16.758,3.667-18.81a54.643,54.643,0,0,0,0-6.4Z" transform="translate(-27.505 -82.208)" fill="#003759"/>
      <path id="Trazado_721821" data-name="Trazado 721821" d="M55.838,173.176a.316.316,0,0,1,0,.081c0,.062,0,.139,0,.236-.008.218-.02.522-.034.906-.036.786-.093,1.924-.178,3.329-.165,2.81-.44,6.688-.723,10.972-.13,2.143-.254,4.185-.367,6.043-.134,1.858-.316,3.524-.455,4.924s-.243,2.533-.3,3.318c-.03.384-.053.686-.07.9-.008.1-.015.173-.021.235a.331.331,0,0,1-.012.08.315.315,0,0,1,0-.081c0-.062,0-.139.006-.236.006-.207.019-.513.042-.905.044-.786.129-1.922.257-3.324s.3-3.069.422-4.923.208-3.9.355-6.044c.3-4.279.57-8.152.767-10.969.095-1.4.172-2.529.226-3.325.027-.383.047-.686.062-.9.008-.1.015-.173.02-.235A.3.3,0,0,1,55.838,173.176Z" transform="translate(-27.772 -90.325)" fill="#00aca7"/>
      <path id="Trazado_721822" data-name="Trazado 721822" d="M51.777,180.639a1.357,1.357,0,0,1-.045.322c-.038.206-.1.5-.188.864-.173.727-.447,1.724-.813,2.8s-.758,2.038-1.064,2.719c-.153.341-.282.614-.378.8a1.347,1.347,0,0,1-.161.283,1.351,1.351,0,0,1,.108-.307l.333-.818c.28-.691.653-1.65,1.019-2.726s.654-2.064.853-2.782l.234-.852A1.354,1.354,0,0,1,51.777,180.639Z" transform="translate(-25.395 -94.229)" fill="#00aca7"/>
      <path id="Trazado_721823" data-name="Trazado 721823" d="M40.827,86.727l-1.738,1.384S33.57,89.1,33.1,89.957l1.788,11.084,1.394,9.5s-2.086,5.6-2.143,7.968,0,4.326,0,4.326H35.17a9.348,9.348,0,0,1,6.464,2.6l1.9-1.73.372,3.288s7.472.461,9.375-.981a37.546,37.546,0,0,0,4.482-4.5s.445-7.668-1.831-11.542-2.824-4.674-2.824-4.674.807-6.682.807-6.912.692-9.344.692-9.344l-5.734-1.442-1.659-1.269Z" transform="translate(-17.01 -44.885)" fill="#00aca7"/>
      <g id="Grupo_1017508" data-name="Grupo 1017508" transform="translate(19.047 62.911)" opacity="0.3">
        <path id="Trazado_721824" data-name="Trazado 721824" d="M39.336,134.626a3.206,3.206,0,0,0,2.654.815,12.92,12.92,0,0,1,1.9-.353,5.759,5.759,0,0,1,2.574,1.075,9.466,9.466,0,0,0,5.87,1.105,16.181,16.181,0,0,0,6.393-2.761,1.416,1.416,0,0,0,.39-.325.894.894,0,0,0-.05-1.036,1.511,1.511,0,0,0-.947-.532,5.8,5.8,0,0,0-1.99.147,12.473,12.473,0,0,1-4.246-.038c-1.78-.325-3.478-1.035-5.27-1.277a10.339,10.339,0,0,0-5.9.96,3.263,3.263,0,0,0-1.061.743A1.993,1.993,0,0,0,39.336,134.626Z" transform="translate(-39.303 -131.356)" fill="#003759"/>
      </g>
      <path id="Trazado_721825" data-name="Trazado 721825" d="M52.447,99.8a.387.387,0,0,1,.012.088c.005.067.012.152.02.259l.062,1c.048.877.116,2.129.2,3.67.154,3.108.366,7.386.6,12.11.056,1.183.111,2.338.163,3.453s.107,2.192.1,3.22c0,.514-.015,1.016-.047,1.5s-.093.953-.086,1.407c0,.907.076,1.761.061,2.535.03.771.114,1.47.179,2.082L53.9,132.7l.11.993c.01.107.017.193.023.259a.385.385,0,0,1,0,.089.377.377,0,0,1-.018-.087l-.038-.257-.138-.989-.206-1.568c-.073-.612-.165-1.308-.2-2.088.008-.778-.071-1.62-.079-2.539-.01-.46.048-.935.079-1.415s.041-.982.041-1.494c0-1.024-.059-2.1-.113-3.214s-.11-2.27-.166-3.453c-.217-4.725-.413-9-.556-12.113-.064-1.543-.115-2.795-.151-3.672-.014-.425-.025-.76-.034-1,0-.107,0-.193,0-.26A.385.385,0,0,1,52.447,99.8Z" transform="translate(-27.131 -51.936)" fill="#003759"/>
      <path id="Trazado_721826" data-name="Trazado 721826" d="M31.991,96.021l-.169,11.6.853,2.022-.721,5.523-2.921-1.637a4.143,4.143,0,0,1-2.121-4.054c0-.013,0-.026,0-.039.268-2.248.713-5.831,1.086-8.106.577-3.518.98-6.287,1.846-7.383Z" transform="translate(-13.76 -48.873)" fill="#00aca7"/>
      <path id="Trazado_721827" data-name="Trazado 721827" d="M76.573,92s1.673-.346,2.538,3.691,1.557,11.074,1.557,11.074a.57.57,0,0,1,.346.874s-.115,3.8-.577,4.261l-4.816-2.844-.548-.8Z" transform="translate(-38.97 -47.852)" fill="#00aca7"/>
      <path id="Trazado_721828" data-name="Trazado 721828" d="M37.544,133.413l6.471-.72.5-3.146-6.345-.51Z" transform="translate(-19.335 -67.232)" fill="#9d6054"/>
      <path id="Trazado_721829" data-name="Trazado 721829" d="M50.2,92.829a1.966,1.966,0,0,1-.216.33l-.633.867L48.395,95.3a.2.2,0,0,1-.143.084.245.245,0,0,1-.151-.047,1.755,1.755,0,0,1-.182-.163,4.154,4.154,0,0,1-.34-.347,6.071,6.071,0,0,1-.615-.814,6.278,6.278,0,0,1-.943-3.4,5.39,5.39,0,0,1,.124-1.072,2,2,0,0,1,.115-.379,9.59,9.59,0,0,0-.132,1.451,6.465,6.465,0,0,0,.965,3.322,6.185,6.185,0,0,0,.6.8,4.2,4.2,0,0,0,.328.341,1.865,1.865,0,0,0,.162.15c.058.032.07.036.106-.006.358-.477.7-.9.976-1.256l.671-.838A1.951,1.951,0,0,1,50.2,92.829Z" transform="translate(-23.769 -46.371)" fill="#003759"/>
      <path id="Trazado_721830" data-name="Trazado 721830" d="M60.221,88.985a.355.355,0,0,1,.018.117c.008.077.012.19.012.337a4.726,4.726,0,0,1-.186,1.228,12.8,12.8,0,0,1-.67,1.711,16.954,16.954,0,0,1-1.07,1.979c-.21.339-.42.666-.626.98l-.153.233a1.306,1.306,0,0,1-.174.236.227.227,0,0,1-.181.056.3.3,0,0,1-.153-.078,1.593,1.593,0,0,1-.175-.212l-1.1-1.464-.731-1a2.646,2.646,0,0,1-.252-.377,2.629,2.629,0,0,1,.3.342l.769.966,1.126,1.445c.1.137.223.3.306.209a1.366,1.366,0,0,0,.146-.206l.151-.234c.2-.315.413-.641.622-.979a18.373,18.373,0,0,0,1.072-1.957,14.156,14.156,0,0,0,.694-1.684A6.655,6.655,0,0,0,60.221,88.985Z" transform="translate(-28.352 -46.278)" fill="#003759"/>
      <path id="Trazado_721831" data-name="Trazado 721831" d="M40.377,98.41c.006.024-.306.077-.77.292a3.913,3.913,0,0,0-1.541,1.282l-.044.062L37.959,100a3.918,3.918,0,0,0-.5-.322,4.059,4.059,0,0,0-2.352-.453,8.525,8.525,0,0,0-.993.217.946.946,0,0,1,.247-.126,3.615,3.615,0,0,1,.731-.2,3.934,3.934,0,0,1,2.438.426,3.809,3.809,0,0,1,.519.338l-.106.015a3.76,3.76,0,0,1,1.623-1.286,3.181,3.181,0,0,1,.588-.179A.644.644,0,0,1,40.377,98.41Z" transform="translate(-17.542 -51.207)" fill="#003759"/>
      <path id="Trazado_721832" data-name="Trazado 721832" d="M69.985,99.234a2.482,2.482,0,0,0-1.075-.3,3.007,3.007,0,0,0-1.186.224,7.833,7.833,0,0,0-1.321.714l-.137.087-.058.037-.042-.054a3.3,3.3,0,0,0-2.217-1.215,5.1,5.1,0,0,0-1.076.032.931.931,0,0,1,.281-.087,2.866,2.866,0,0,1,.8-.049,3.273,3.273,0,0,1,1.163.307,3.205,3.205,0,0,1,1.163.92l-.1-.018.137-.087a7.344,7.344,0,0,1,1.352-.717,2.979,2.979,0,0,1,1.24-.2,2.017,2.017,0,0,1,.818.221A.763.763,0,0,1,69.985,99.234Z" transform="translate(-32.588 -51.319)" fill="#003759"/>
      <path id="Trazado_721833" data-name="Trazado 721833" d="M59.6,152.692s-.036.037-.112.094l-.339.246-.248.175c-.093.061-.2.119-.309.185a8.27,8.27,0,0,1-.77.424l-.46.223c-.161.076-.336.137-.513.21-.353.153-.747.266-1.158.4a12.874,12.874,0,0,1-5.562.33c-.424-.08-.829-.146-1.2-.256-.185-.051-.366-.091-.535-.147l-.484-.167a8.4,8.4,0,0,1-.815-.33c-.118-.053-.23-.1-.329-.147l-.267-.144-.366-.2a.561.561,0,0,1-.123-.08.548.548,0,0,1,.137.053l.378.178.271.132c.1.045.213.086.332.135.24.093.505.216.816.307l.482.156c.168.053.348.09.532.138.366.1.768.165,1.188.24a13.257,13.257,0,0,0,5.5-.327c.408-.125.8-.233,1.151-.379.177-.07.351-.127.512-.2l.46-.213c.3-.126.548-.28.774-.4.112-.063.219-.117.314-.174l.253-.163.354-.221A.576.576,0,0,1,59.6,152.692Z" transform="translate(-23.769 -79.607)" fill="#003759"/>
      <path id="Trazado_721834" data-name="Trazado 721834" d="M58.649,144.145a2.837,2.837,0,0,1-.335.333,5.4,5.4,0,0,1-.419.363c-.169.134-.356.3-.582.449s-.465.332-.741.5-.572.335-.889.508a13.414,13.414,0,0,1-4.458,1.394c-.359.039-.7.081-1.02.089s-.619.02-.891.014-.518-.023-.734-.037a5.4,5.4,0,0,1-.551-.059,2.86,2.86,0,0,1-.465-.082,2.833,2.833,0,0,1,.472.024c.151.015.335.03.55.034s.459.025.73.015.566-.005.883-.033.654-.06,1.009-.1a14.077,14.077,0,0,0,4.414-1.38c.315-.168.618-.321.887-.491s.521-.324.744-.476.418-.3.591-.427.318-.244.433-.342A2.893,2.893,0,0,1,58.649,144.145Z" transform="translate(-24.577 -75.136)" fill="#003759"/>
      <path id="Trazado_721835" data-name="Trazado 721835" d="M34.58,100.428a1.946,1.946,0,0,1,.071.385c.037.278.084.632.141,1.054l.461,3.477c.193,1.341.367,2.554.5,3.473.06.422.111.775.15,1.053a1.922,1.922,0,0,1,.036.39,1.961,1.961,0,0,1-.094-.38c-.051-.246-.119-.6-.2-1.046-.158-.884-.355-2.11-.544-3.469s-.329-2.592-.418-3.486c-.044-.447-.076-.809-.093-1.06A1.961,1.961,0,0,1,34.58,100.428Z" transform="translate(-17.782 -52.264)" fill="#003759"/>
      <path id="Trazado_721836" data-name="Trazado 721836" d="M76.326,95.522a.545.545,0,0,1,0,.147c-.006.113-.014.252-.023.42-.023.364-.063.891-.118,1.542-.11,1.3-.287,3.1-.522,5.074s-.485,3.766-.683,5.057c-.1.645-.183,1.167-.246,1.526-.03.166-.056.3-.076.414a.551.551,0,0,1-.037.143.548.548,0,0,1,.007-.147l.048-.418.2-1.533c.171-1.294.4-3.082.639-5.06s.428-3.769.566-5.067l.166-1.537.051-.418A.556.556,0,0,1,76.326,95.522Z" transform="translate(-38.733 -49.698)" fill="#003759"/>
      <path id="Trazado_721837" data-name="Trazado 721837" d="M55.964,115.033,47.7,120.016l-2.135-.6-9.8-1.889-2.026,6.431,7.713.727,3.4,1.63,1.643-.712,7.173-4.928Z" transform="translate(-17.342 -59.906)" fill="#01d8d1"/>
      <path id="Trazado_721838" data-name="Trazado 721838" d="M57.034,131.752a7.192,7.192,0,0,1,.388-.924c.253-.564.6-1.343.976-2.208s.7-1.655.937-2.226a7.217,7.217,0,0,1,.406-.916.942.942,0,0,1-.067.262c-.052.165-.134.4-.24.693-.212.582-.523,1.379-.9,2.247s-.74,1.641-1.019,2.194c-.139.277-.255.5-.339.65A.924.924,0,0,1,57.034,131.752Z" transform="translate(-29.532 -65.37)" fill="#003759"/>
      <path id="Trazado_721839" data-name="Trazado 721839" d="M56.542,126.469a8.426,8.426,0,0,1,.82-2.092,8.451,8.451,0,0,1-.82,2.092Z" transform="translate(-29.272 -64.794)" fill="#003759"/>
      <path id="Trazado_721840" data-name="Trazado 721840" d="M60.623,119.338a2.327,2.327,0,0,1,1-1.371c.749-.382,6.957-3.614,6.957-3.614l.736.758-7.548,4.549Z" transform="translate(-31.41 -59.55)" fill="#c1c1c1"/>
      <path id="Trazado_721841" data-name="Trazado 721841" d="M39.771,119.724l1.257-.63a25.425,25.425,0,0,1,5.618,0c2.059.384,3.134,1.536,3.068,2.635Z" transform="translate(-20.501 -61.941)" fill="#c1c1c1"/>
      <path id="Trazado_721842" data-name="Trazado 721842" d="M58.926,126.135a2.729,2.729,0,0,0-1.424,1.424,4.09,4.09,0,0,1-1.424,2.026c-.6.384-.931.657-1.643.329s-1.865-1.4-2.411-1.492c-.325-.052-.436.453-.436.453s-1.424-.949-1.916-.776-.055.556.274.94a5.589,5.589,0,0,1,.548.767c.107-.046-.99-1.078-1.665-.862a.394.394,0,0,0-.309.512l.824.606s-.438.784-.055.949,3.121,2.081,3.723,2.081,3.34.493,4.49.219,2.433-.667,2.433-.667,4.521-1.469,5.89-3.22L61.719,126.9s-2.738,3.559-2.9,3.176a3.781,3.781,0,0,1-.164-2.026C58.817,127.23,59.4,125.87,58.926,126.135Z" transform="translate(-25.068 -65.696)" fill="#9d6054"/>
      <path id="Trazado_721843" data-name="Trazado 721843" d="M58.517,134.525a1.676,1.676,0,0,1-.636-.186,10.784,10.784,0,0,1-1.356-.83,5.821,5.821,0,0,1-1.234-1.015c-.265-.319-.344-.575-.319-.581a4.728,4.728,0,0,0,.4.511,7.452,7.452,0,0,0,1.236.959c.526.338.962.684,1.321.861S58.524,134.5,58.517,134.525Z" transform="translate(-28.451 -68.737)" fill="#724a44"/>
      <path id="Trazado_721844" data-name="Trazado 721844" d="M56.475,136.736a2.832,2.832,0,0,1-.582-.34c-.347-.229-.816-.561-1.317-.949s-.94-.76-1.249-1.038a2.828,2.828,0,0,1-.475-.478,3.189,3.189,0,0,1,.544.4l1.272,1,1.287.982A3.188,3.188,0,0,1,56.475,136.736Z" transform="translate(-27.344 -69.791)" fill="#724a44"/>
      <path id="Trazado_721845" data-name="Trazado 721845" d="M52.8,136.593c-.036.029-.528-.569-1.251-1.184s-1.386-1.014-1.363-1.053a6.374,6.374,0,0,1,2.613,2.238Z" transform="translate(-25.95 -70.013)" fill="#724a44"/>
      <path id="Trazado_721846" data-name="Trazado 721846" d="M55.53,104.32c-.013,0-.016-.073-.054-.193a.82.82,0,0,0-.3-.415.767.767,0,0,0-.717-.1.75.75,0,0,0,0,1.406.768.768,0,0,0,.717-.095.817.817,0,0,0,.3-.415c.038-.12.041-.193.054-.193s.025.073,0,.206a.812.812,0,0,1-.294.485.867.867,0,0,1-.829.141.883.883,0,0,1,0-1.666.865.865,0,0,1,.829.141.814.814,0,0,1,.294.485C55.556,104.246,55.538,104.32,55.53,104.32Z" transform="translate(-27.851 -53.839)" fill="#003759"/>
      <path id="Trazado_721847" data-name="Trazado 721847" d="M56.138,115.884c-.013,0-.016-.072-.054-.192a.818.818,0,0,0-.3-.415.769.769,0,0,0-.717-.1.751.751,0,0,0,0,1.406.769.769,0,0,0,.717-.1.815.815,0,0,0,.3-.415c.038-.12.041-.193.054-.193s.025.073,0,.207a.812.812,0,0,1-.294.485.867.867,0,0,1-.829.141.883.883,0,0,1,0-1.666.865.865,0,0,1,.829.141.815.815,0,0,1,.294.485C56.163,115.811,56.145,115.885,56.138,115.884Z" transform="translate(-28.168 -59.889)" fill="#003759"/>
      <path id="Trazado_721848" data-name="Trazado 721848" d="M57.274,143.285c-.013,0-.016-.073-.054-.193a.819.819,0,0,0-.3-.415.768.768,0,0,0-.717-.095.75.75,0,0,0,0,1.406.769.769,0,0,0,.717-.095.817.817,0,0,0,.3-.415c.038-.12.041-.193.054-.193s.025.073,0,.206a.814.814,0,0,1-.294.486.867.867,0,0,1-.829.141.883.883,0,0,1,0-1.666.866.866,0,0,1,.829.141.814.814,0,0,1,.294.485A.355.355,0,0,1,57.274,143.285Z" transform="translate(-28.763 -74.224)" fill="#003759"/>
      <path id="Trazado_721849" data-name="Trazado 721849" d="M57.011,154.073c-.013,0-.016-.073-.054-.193a.819.819,0,0,0-.3-.415.768.768,0,0,0-.717-.095.75.75,0,0,0,0,1.406.769.769,0,0,0,.717-.095.817.817,0,0,0,.3-.415c.038-.12.042-.193.054-.193s.025.073,0,.206a.816.816,0,0,1-.294.486.867.867,0,0,1-.829.141.883.883,0,0,1,0-1.666.867.867,0,0,1,.829.141.815.815,0,0,1,.294.485C57.036,154,57.018,154.073,57.011,154.073Z" transform="translate(-28.625 -79.869)" fill="#003759"/>
      <path id="Trazado_721850" data-name="Trazado 721850" d="M43.57,54.177a4.116,4.116,0,0,1,1.972-2.5,5.2,5.2,0,0,1,3.493-.422,11.011,11.011,0,0,1,3.3,1.366,5.393,5.393,0,0,1,1.579,1.232,6.075,6.075,0,0,1,.941,3.492,6.041,6.041,0,0,1-.308,2.925A3.046,3.046,0,0,1,52.5,61.931" transform="translate(-22.488 -26.476)" fill="#003759"/>
      <path id="Trazado_721851" data-name="Trazado 721851" d="M62.077,58.443a6.543,6.543,0,0,0,1.575-4.862,2.3,2.3,0,0,0-.667-1.587c-.23-.193-.518-.307-.752-.495-.428-.343-.638-.9-1.045-1.263a1.663,1.663,0,0,0-2.712.774,3.368,3.368,0,0,0,.419,2.231l1.452,3.277a4.357,4.357,0,0,0,.667,1.163,1.472,1.472,0,0,0,1.18.542" transform="translate(-30.25 -25.782)" fill="#003759"/>
      <path id="Trazado_721852" data-name="Trazado 721852" d="M42.975,55.058a5.637,5.637,0,0,0-.5,7.019A47.459,47.459,0,0,1,45,54.222" transform="translate(-21.397 -28.091)" fill="#003759"/>
      <path id="Trazado_721853" data-name="Trazado 721853" d="M42.278,59.092c.127-1.948,1.423-4.335,3.363-4.125l4.49,1.145a3.33,3.33,0,0,1,2.505,3.067c.005.074.013-.016.012.039l-.3,11-4.179,4.717L45.3,70.52c0-.948,0-1.7,0-1.7s-2.488-.419-3-3.667A30.8,30.8,0,0,1,42.278,59.092Z" transform="translate(-21.741 -28.473)" fill="#9d6054"/>
      <path id="Trazado_721854" data-name="Trazado 721854" d="M49.7,61.5a4.73,4.73,0,0,1-1.9.193c0-.024.429-.025.954-.079S49.693,61.476,49.7,61.5Z" transform="translate(-24.699 -31.895)" fill="#724a44"/>
      <path id="Trazado_721855" data-name="Trazado 721855" d="M48.973,61.251a2.311,2.311,0,0,1-1.178.063,4.056,4.056,0,0,1,.589-.035A4.062,4.062,0,0,1,48.973,61.251Z" transform="translate(-24.699 -31.764)" fill="#724a44"/>
      <path id="Trazado_721856" data-name="Trazado 721856" d="M52.609,74.369c-.022,0-.05-.13-.181-.214s-.261-.064-.267-.085.027-.032.088-.04a.353.353,0,0,1,.363.242C52.628,74.331,52.619,74.368,52.609,74.369Z" transform="translate(-26.983 -38.453)" fill="#724a44"/>
      <path id="Trazado_721857" data-name="Trazado 721857" d="M44.944,68.514a.416.416,0,0,0,.4.421.4.4,0,0,0,.43-.374.417.417,0,0,0-.4-.421A.4.4,0,0,0,44.944,68.514Z" transform="translate(-23.207 -35.371)" fill="#003759"/>
      <path id="Trazado_721858" data-name="Trazado 721858" d="M43.619,66.046c.051.054.368-.178.816-.176s.776.227.825.172c.024-.024-.029-.123-.171-.227a1.143,1.143,0,0,0-.66-.205,1.1,1.1,0,0,0-.649.208C43.641,65.923,43.593,66.021,43.619,66.046Z" transform="translate(-22.51 -34.048)" fill="#003759"/>
      <path id="Trazado_721859" data-name="Trazado 721859" d="M53.706,68.514a.416.416,0,0,0,.4.421.4.4,0,0,0,.43-.374.417.417,0,0,0-.4-.421A.4.4,0,0,0,53.706,68.514Z" transform="translate(-27.791 -35.371)" fill="#003759"/>
      <path id="Trazado_721860" data-name="Trazado 721860" d="M52.856,66.241c.052.054.368-.178.816-.176s.776.227.825.172c.024-.024-.028-.122-.172-.227a1.141,1.141,0,0,0-.66-.205,1.1,1.1,0,0,0-.65.208C52.878,66.119,52.831,66.217,52.856,66.241Z" transform="translate(-27.343 -34.151)" fill="#003759"/>
      <path id="Trazado_721861" data-name="Trazado 721861" d="M48.185,69.585a2.969,2.969,0,0,0-.728-.133c-.114-.012-.223-.035-.242-.113A.581.581,0,0,1,47.293,69l.34-.871a14.972,14.972,0,0,0,.765-2.278,15.026,15.026,0,0,0-.947,2.21l-.326.876a.662.662,0,0,0-.06.449.287.287,0,0,0,.188.168.775.775,0,0,0,.194.027A2.877,2.877,0,0,0,48.185,69.585Z" transform="translate(-24.306 -34.175)" fill="#003759"/>
      <path id="Trazado_721862" data-name="Trazado 721862" d="M53.07,81.615s-1.057,2.23-4.306,1.919V82.77A8.178,8.178,0,0,0,53.07,81.615Z" transform="translate(-25.205 -42.422)" fill="#724a44"/>
      <path id="Trazado_721863" data-name="Trazado 721863" d="M49.781,75.615a.807.807,0,0,1,.725-.3.736.736,0,0,1,.508.274.467.467,0,0,1,.034.534.542.542,0,0,1-.588.147,1.7,1.7,0,0,1-.572-.343.494.494,0,0,1-.128-.133.15.15,0,0,1,0-.167" transform="translate(-25.714 -39.124)" fill="#724a44"/>
      <path id="Trazado_721864" data-name="Trazado 721864" d="M50.631,74.338c-.073,0-.075.482-.492.826s-.935.29-.939.358c-.007.031.115.095.334.1a1.21,1.21,0,0,0,.783-.271,1.055,1.055,0,0,0,.381-.693C50.719,74.456,50.665,74.335,50.631,74.338Z" transform="translate(-25.434 -38.615)" fill="#003759"/>
      <path id="Trazado_721865" data-name="Trazado 721865" d="M52.634,63.6c.044.122.492.065,1.017.13s.951.209,1.021.1c.031-.052-.042-.167-.214-.285a1.783,1.783,0,0,0-1.553-.175C52.713,63.448,52.615,63.543,52.634,63.6Z" transform="translate(-27.229 -32.822)" fill="#003759"/>
      <path id="Trazado_721866" data-name="Trazado 721866" d="M43.965,63.3c.079.1.388,0,.759-.007s.685.07.758-.036c.032-.052-.018-.154-.155-.25a1.1,1.1,0,0,0-1.222.035C43.974,63.143,43.93,63.248,43.965,63.3Z" transform="translate(-22.689 -32.597)" fill="#003759"/>
      <path id="Trazado_721867" data-name="Trazado 721867" d="M44.214,54.746a1.429,1.429,0,0,1,1.262-.809,2.773,2.773,0,0,1,1.5.437c1.934,1.118,3.021,3.338,4.932,4.494a7.819,7.819,0,0,1,1.388.88,1.378,1.378,0,0,1,.438,1.482,4.548,4.548,0,0,0,.663-1.121,1.533,1.533,0,0,0-.054-1.266c-.165-.286-.457-.505-.537-.826a4.369,4.369,0,0,1,.029-.868,1.9,1.9,0,0,0-.3-.828,8.429,8.429,0,0,0-3.1-3.265,5.5,5.5,0,0,0-2.85-.737,4.2,4.2,0,0,0-2.711,1.076C44.441,53.793,43.992,54.205,44.214,54.746Z" transform="translate(-22.795 -27.093)" fill="#003759"/>
      <path id="Trazado_721868" data-name="Trazado 721868" d="M53.663,61.546s.038-.044.1-.132a1.418,1.418,0,0,0,.21-.424,2.406,2.406,0,0,0-.178-1.7c-.147-.34-.354-.69-.566-1.074a12.372,12.372,0,0,1-.595-1.267,9.074,9.074,0,0,0-.68-1.376,5.405,5.405,0,0,0-1.075-1.236,5.711,5.711,0,0,0-2.85-1.313,4.2,4.2,0,0,0-2.529.342,2.763,2.763,0,0,0-1.217,1.214,2.427,2.427,0,0,0-.168.445c-.026.106-.038.162-.041.162a.163.163,0,0,1,0-.042c0-.028.009-.07.021-.123a2.2,2.2,0,0,1,.155-.455,2.753,2.753,0,0,1,1.218-1.251,4.233,4.233,0,0,1,2.566-.365,5.747,5.747,0,0,1,2.892,1.325,5.46,5.46,0,0,1,1.09,1.255,9.046,9.046,0,0,1,.682,1.389,12.592,12.592,0,0,0,.585,1.264c.208.383.414.738.559,1.083A2.412,2.412,0,0,1,54,61a1.344,1.344,0,0,1-.226.424A.889.889,0,0,1,53.663,61.546Z" transform="translate(-22.752 -27.398)" fill="#00aca7"/>
      <path id="Trazado_721869" data-name="Trazado 721869" d="M62.578,59.559a.427.427,0,0,1,0-.093c0-.069.006-.157.011-.264.009-.23.019-.562.006-.972a8.325,8.325,0,0,0-.157-1.428,3.8,3.8,0,0,0-.7-1.59,8.768,8.768,0,0,0-1.246-1.24c-.411-.355-.794-.659-1.127-.9s-.615-.416-.813-.533l-.229-.133a.4.4,0,0,1-.078-.05.406.406,0,0,1,.086.036c.055.025.135.066.237.12a8.752,8.752,0,0,1,.83.514c.339.235.727.536,1.142.89A8.523,8.523,0,0,1,61.8,55.163a3.824,3.824,0,0,1,.7,1.624,7.917,7.917,0,0,1,.142,1.442c.006.412-.014.746-.032.975-.009.115-.018.2-.026.264A.4.4,0,0,1,62.578,59.559Z" transform="translate(-30.168 -27.114)" fill="#00aca7"/>
      <path id="Trazado_721870" data-name="Trazado 721870" d="M64.167,51.01a1.359,1.359,0,0,1,.09.368,4.3,4.3,0,0,1-.108,1.817,1.341,1.341,0,0,1-.133.355,9.381,9.381,0,0,0,.2-1.263A9.362,9.362,0,0,0,64.167,51.01Z" transform="translate(-33.184 -26.41)" fill="#00aca7"/>
      <path id="Trazado_721871" data-name="Trazado 721871" d="M67.466,56.055a.691.691,0,0,1-.11.271,1.755,1.755,0,0,1-1.114.819.691.691,0,0,1-.291.024,2.215,2.215,0,0,1,.277-.079,2.017,2.017,0,0,0,1.081-.794A2.132,2.132,0,0,1,67.466,56.055Z" transform="translate(-34.197 -29.049)" fill="#00aca7"/>
      <path id="Trazado_721872" data-name="Trazado 721872" d="M68.053,60.587a1.6,1.6,0,0,1-1.286-.036c.007-.026.289.06.641.073S68.048,60.561,68.053,60.587Z" transform="translate(-34.625 -31.399)" fill="#00aca7"/>
      <path id="Trazado_721873" data-name="Trazado 721873" d="M55.805,63.58c-.077-.039-.039-.253-.029-.6a1.674,1.674,0,0,0-.069-.57.8.8,0,0,0-.059-.131.566.566,0,0,0-.038-.058c-.011-.018-.036-.051-.053-.075a2.584,2.584,0,0,0-.268-.312.81.81,0,0,0-.28-.2c-.035-.012-.044,0-.028,0l-.114.022-.123.028a2.141,2.141,0,0,0-.461.175c-.076.039-.153.083-.232.133l-.059.038-.1.06a2.128,2.128,0,0,1-.207.1,2.087,2.087,0,0,1-.914.154,1.509,1.509,0,0,1-.547-.138l-.071-.035-.056-.033c-.037-.023-.075-.044-.11-.07a1.885,1.885,0,0,1-.2-.161,2.656,2.656,0,0,1-.557-.758c-.132-.257-.23-.509-.325-.738a8.555,8.555,0,0,0-1.4-2.29,9.217,9.217,0,0,0-1.628-1.509,5.234,5.234,0,0,0-1.28-.734c-.324-.121-.535-.153-.547-.239s.193-.21.617-.222a3.582,3.582,0,0,1,1.649.471,7.55,7.55,0,0,1,2.005,1.49,8.113,8.113,0,0,1,1.686,2.577c.1.246.187.467.28.656a1.63,1.63,0,0,0,.294.439.755.755,0,0,0,.078.068.418.418,0,0,0,.04.028l.02.014.009,0a.351.351,0,0,0,.132.04,1.04,1.04,0,0,0,.427-.047c.034-.011.066-.023.1-.036l.043-.02.082-.044a3.7,3.7,0,0,1,.339-.158,2.976,2.976,0,0,1,.707-.188c.057-.008.113-.014.168-.019l.081-.007.092-.005a.95.95,0,0,1,.514.122,1.634,1.634,0,0,1,.52.481,2.861,2.861,0,0,1,.279.476c.019.041.034.072.053.122a1.206,1.206,0,0,1,.049.141,1.362,1.362,0,0,1,.048.268,1.7,1.7,0,0,1-.138.791C56.062,63.469,55.873,63.616,55.805,63.58Z" transform="translate(-23.789 -28.717)" fill="#003759"/>
      <path id="Trazado_721874" data-name="Trazado 721874" d="M63.221,68.558a1.133,1.133,0,0,1,1.75,1.1,1.314,1.314,0,0,1-1.747,1.355C63.221,70.958,63.221,68.558,63.221,68.558Z" transform="translate(-32.769 -35.499)" fill="#9d6054"/>
      <path id="Trazado_721875" data-name="Trazado 721875" d="M64.346,70.966c.007-.005.031.021.082.044a.3.3,0,0,0,.228,0,.754.754,0,0,0,.342-.68,1.009,1.009,0,0,0-.089-.435.352.352,0,0,0-.231-.232.155.155,0,0,0-.179.085c-.023.049-.012.084-.021.087s-.038-.029-.024-.1a.2.2,0,0,1,.068-.11.23.23,0,0,1,.168-.046.428.428,0,0,1,.321.268,1.032,1.032,0,0,1,.11.487.791.791,0,0,1-.437.759.326.326,0,0,1-.279-.044C64.349,71.008,64.34,70.969,64.346,70.966Z" transform="translate(-33.357 -36.125)" fill="#724a44"/>
      <path id="Trazado_721876" data-name="Trazado 721876" d="M54.977,61.669c-.005,0-.02-.045-.074-.118a.687.687,0,0,0-.314-.231,1.257,1.257,0,0,0-.619-.054,2.934,2.934,0,0,0-.785.282,2.07,2.07,0,0,1-1,.252,1.6,1.6,0,0,1-1.034-.553,3.245,3.245,0,0,1-.62-1.147c-.146-.428-.276-.873-.453-1.315a6.756,6.756,0,0,0-1.378-2.273,3.886,3.886,0,0,0-1.851-1.093,3.424,3.424,0,0,0-.829-.105,2.97,2.97,0,0,0-.627.075,4.9,4.9,0,0,0-.514.168.124.124,0,0,1,.031-.018l.095-.045a2.151,2.151,0,0,1,.381-.135,2.871,2.871,0,0,1,.634-.09,3.382,3.382,0,0,1,.843.1,3.907,3.907,0,0,1,1.891,1.1,6.755,6.755,0,0,1,1.4,2.3c.178.445.309.895.452,1.319a3.189,3.189,0,0,0,.6,1.123,1.539,1.539,0,0,0,.984.537,2.029,2.029,0,0,0,.967-.238,2.907,2.907,0,0,1,.8-.275,1.273,1.273,0,0,1,.636.07.678.678,0,0,1,.316.251.415.415,0,0,1,.049.094A.146.146,0,0,1,54.977,61.669Z" transform="translate(-23.177 -28.638)" fill="#00aca7"/>
      <path id="Trazado_721877" data-name="Trazado 721877" d="M54.355,60.4a.684.684,0,0,1-.105-.059c-.067-.042-.17-.1-.293-.186a6.027,6.027,0,0,1-.944-.86,16.849,16.849,0,0,1-1.155-1.5,13.778,13.778,0,0,0-1.443-1.8,5.5,5.5,0,0,0-.931-.736,4.545,4.545,0,0,0-1.006-.457,4.978,4.978,0,0,0-1.853-.227,4.776,4.776,0,0,0-1.241.243c-.144.044-.25.092-.324.12a.678.678,0,0,1-.114.04.676.676,0,0,1,.108-.055,2.978,2.978,0,0,1,.32-.135,4.52,4.52,0,0,1,1.247-.27,4.946,4.946,0,0,1,1.879.214,4.564,4.564,0,0,1,1.024.46,5.488,5.488,0,0,1,.947.746,13.37,13.37,0,0,1,1.447,1.812,17.993,17.993,0,0,0,1.137,1.505,6.485,6.485,0,0,0,.92.872c.12.09.22.151.283.2A.689.689,0,0,1,54.355,60.4Z" transform="translate(-23.207 -28.237)" fill="#00aca7"/>
      <path id="Trazado_721878" data-name="Trazado 721878" d="M64.458,73.131a.344.344,0,1,1-.082.026" transform="translate(-33.27 -37.981)" fill="#fff"/>
      <path id="Trazado_721879" data-name="Trazado 721879" d="M64.342,73.141a.472.472,0,0,0-.157.235.3.3,0,0,0,.068.275.306.306,0,0,0,.538-.171.3.3,0,0,0-.1-.263.467.467,0,0,0-.264-.1s.027-.018.082-.019a.358.358,0,0,1,.218.076.349.349,0,0,1,.14.316.376.376,0,0,1-.666.212.349.349,0,0,1-.068-.338.358.358,0,0,1,.134-.188C64.31,73.142,64.34,73.137,64.342,73.141Z" transform="translate(-33.236 -37.965)" fill="#003759"/>
      <path id="Trazado_721880" data-name="Trazado 721880" d="M261.4,210.443a3.191,3.191,0,0,1,1.655-2.113,3.871,3.871,0,0,1,2.81.165,10.089,10.089,0,0,0,2.751.827,2.24,2.24,0,0,0,2.331-1.314,2.508,2.508,0,0,0-.9-2.41,5.688,5.688,0,0,0-9.32,2.238" transform="translate(-136.097 -106.459)" fill="#003759"/>
      <path id="Trazado_721881" data-name="Trazado 721881" d="M244.953,213.481c-1.409-1.338-1.338-3.667-.636-5.478a8.3,8.3,0,0,1,3.949-4.118,12.505,12.505,0,0,1,10.9-.353,5.172,5.172,0,0,0-4.182,2.456c-.772,1.282-.944,2.838-1.581,4.191a6.6,6.6,0,0,1-8.448,3.3Z" transform="translate(-127.259 -105.641)" fill="#00aca7"/>
      <path id="Trazado_721882" data-name="Trazado 721882" d="M242.417,183.283c-1.559-1.841-1.767-4.8-1.537-7.2s.786-4.818.407-7.2c-.224-1.411-.772-2.759-.957-4.176a4.35,4.35,0,0,1,1.175-3.934,3.8,3.8,0,0,1,4.562.184,8.553,8.553,0,0,1,2.629,4.083,17.412,17.412,0,0,1,.666,10.628c-1,3.466-3.357,6.566-6.811,7.612" transform="translate(-125.401 -83.481)" fill="#00aca7"/>
      <path id="Trazado_721883" data-name="Trazado 721883" d="M243.188,221.88a1.135,1.135,0,0,1-.008-.212c0-.139,0-.344.01-.608.019-.528.069-1.292.186-2.23a29.635,29.635,0,0,1,.6-3.266,15.033,15.033,0,0,1,1.49-3.782,15.726,15.726,0,0,1,2.437-3.256,15.49,15.49,0,0,1,2.555-2.122c.39-.269.767-.473,1.092-.662s.624-.317.862-.432l.562-.234a1.022,1.022,0,0,1,.2-.072,1.135,1.135,0,0,1-.187.1l-.549.259c-.233.122-.519.272-.846.452s-.69.4-1.073.677a16.066,16.066,0,0,0-4.919,5.362,19.59,19.59,0,0,0-2.113,6.989c-.13.933-.2,1.693-.233,2.219q-.024.377-.038.606A1.118,1.118,0,0,1,243.188,221.88Z" transform="translate(-126.92 -106.976)" fill="#003759"/>
      <path id="Trazado_721884" data-name="Trazado 721884" d="M212.1,193.5c-2.885,1.741-2.876,3.325-2.395,4.821a3.023,3.023,0,0,0,3.721,1.975,4.553,4.553,0,0,0,1.944-1.763,8.164,8.164,0,0,1,1.716-2.021,2.2,2.2,0,0,1,2.485-.2" transform="translate(-109.281 -100.956)" fill="#003759"/>
      <path id="Trazado_721885" data-name="Trazado 721885" d="M210.461,193.21a3.411,3.411,0,0,1,3.795-.824,7.593,7.593,0,0,1,2.81,2.582,11.5,11.5,0,0,0,2.591,2.833,3.339,3.339,0,0,0,3.627.254,3.117,3.117,0,0,0,1.232-2.133,7.1,7.1,0,0,0-.169-2.515,5.422,5.422,0,0,0-1.638-3.242,5.946,5.946,0,0,0-3.953-.852,14.8,14.8,0,0,0-4.667.718A6.478,6.478,0,0,0,210.461,193.21Z" transform="translate(-109.802 -98.76)" fill="#00aca7"/>
      <path id="Trazado_721886" data-name="Trazado 721886" d="M230.013,211.7a1.681,1.681,0,0,1-.02-.249c-.007-.177-.016-.415-.027-.716-.019-.636-.046-1.532-.079-2.633s-.082-2.435-.163-3.9-.192-3.081-.414-4.76a15.375,15.375,0,0,0-.477-2.416,12.556,12.556,0,0,0-.883-2.114,11.437,11.437,0,0,0-2.33-3.087,8.965,8.965,0,0,0-2.156-1.474,6.585,6.585,0,0,0-.655-.284,1.516,1.516,0,0,1-.229-.1,1.569,1.569,0,0,1,.24.072,5.38,5.38,0,0,1,.669.259,8.633,8.633,0,0,1,2.2,1.448,11.347,11.347,0,0,1,2.381,3.1,12.52,12.52,0,0,1,.9,2.135,15.234,15.234,0,0,1,.486,2.439c.224,1.687.329,3.3.4,4.772s.108,2.794.131,3.907.03,2.013.031,2.635q0,.451,0,.717A1.515,1.515,0,0,1,230.013,211.7Z" transform="translate(-116.143 -99.11)" fill="#003759"/>
      <path id="Trazado_721887" data-name="Trazado 721887" d="M239.783,203.357a8.082,8.082,0,0,1-.32-1.238,12.951,12.951,0,0,1-.135-3.482,23.084,23.084,0,0,1,1.1-5.052c.592-1.856,1.4-3.842,2.082-5.975a27.437,27.437,0,0,0,.828-3.16,28.11,28.11,0,0,0,.41-3.015,44.3,44.3,0,0,0,.094-5.156c-.049-1.469-.126-2.657-.174-3.478-.022-.4-.041-.719-.053-.946,0-.1-.008-.183-.011-.247a.352.352,0,0,1,0-.084.377.377,0,0,1,.014.083c.007.063.015.144.025.245.02.227.047.542.082.944.065.82.159,2.007.221,3.478a42.329,42.329,0,0,1-.062,5.172,27.82,27.82,0,0,1-.4,3.032,27.257,27.257,0,0,1-.83,3.178c-.689,2.141-1.5,4.124-2.093,5.972a23.5,23.5,0,0,0-1.123,5.019,13.46,13.46,0,0,0,.087,3.462c.07.4.134.717.191.926l.057.239A.335.335,0,0,1,239.783,203.357Z" transform="translate(-124.875 -89.46)" fill="#003759"/>
      <path id="Trazado_721888" data-name="Trazado 721888" d="M240.143,238.159H226.6l-.309-2.607h13.855Z" transform="translate(-118.083 -122.959)" fill="#003759"/>
      <path id="Trazado_721889" data-name="Trazado 721889" d="M229.985,240.4l1.694,7.822h7.36l1.585-7.822Z" transform="translate(-120.017 -125.493)" fill="#003759"/>
      <path id="Trazado_721890" data-name="Trazado 721890" d="M240.749,240.914c0,.041-2.978.067-6.651.057s-6.652-.052-6.652-.094,2.978-.067,6.652-.057S240.749,240.873,240.749,240.914Z" transform="translate(-118.688 -125.714)" fill="#00aca7"/>
      <path id="Trazado_721891" data-name="Trazado 721891" d="M240.612,247.9a5.957,5.957,0,0,0-1.2-.677,4.214,4.214,0,0,0-1.448-.288,5.106,5.106,0,0,0-1.779.328c-.617.209-1.194.452-1.757.585a4.175,4.175,0,0,1-1.52.044,3.1,3.1,0,0,1-.976-.313,1.813,1.813,0,0,1-.234-.151c-.051-.039-.076-.062-.072-.066a3.58,3.58,0,0,0,1.3.424,4.253,4.253,0,0,0,1.475-.073c.54-.135,1.117-.381,1.739-.592a5.076,5.076,0,0,1,1.831-.324,4.152,4.152,0,0,1,1.484.329,3.811,3.811,0,0,1,.883.519,2.2,2.2,0,0,1,.209.183C240.593,247.872,240.615,247.9,240.612,247.9Z" transform="translate(-120.877 -128.84)" fill="#00aca7"/>
      <path id="Trazado_721892" data-name="Trazado 721892" d="M240.736,249.011a6.333,6.333,0,0,0-1.149-.668,3.9,3.9,0,0,0-1.4-.285,5.039,5.039,0,0,0-1.722.311c-.6.2-1.156.43-1.692.574a4.35,4.35,0,0,1-1.461.162,2.466,2.466,0,0,1-.957-.259,1.687,1.687,0,0,1-.227-.146c-.049-.038-.072-.06-.07-.063s.113.062.322.157a2.648,2.648,0,0,0,.938.206,4.468,4.468,0,0,0,1.418-.189c.523-.148,1.078-.381,1.682-.584a5,5,0,0,1,1.773-.307,3.827,3.827,0,0,1,1.434.326,3.74,3.74,0,0,1,.845.515,2.442,2.442,0,0,1,.2.179C240.718,248.982,240.74,249.007,240.736,249.011Z" transform="translate(-121.104 -129.427)" fill="#fff"/>
      <path id="Trazado_721893" data-name="Trazado 721893" d="M240.586,246.693a6.914,6.914,0,0,0-1.228-.715,4.5,4.5,0,0,0-1.484-.355,4.8,4.8,0,0,0-1.836.325,16.57,16.57,0,0,1-1.819.593,4.618,4.618,0,0,1-1.57,0,3.493,3.493,0,0,1-1.007-.322,1.813,1.813,0,0,1-.244-.154c-.052-.04-.078-.062-.075-.067s.121.067.344.168a3.916,3.916,0,0,0,1,.27,4.748,4.748,0,0,0,1.527-.031,18.7,18.7,0,0,0,1.8-.6,4.809,4.809,0,0,1,1.893-.32,4.4,4.4,0,0,1,1.519.4,4.342,4.342,0,0,1,.9.547,2.459,2.459,0,0,1,.216.189C240.566,246.663,240.589,246.689,240.586,246.693Z" transform="translate(-120.716 -128.15)" fill="#fff"/>
    </g>
  </g>
</svg>
