<svg xmlns="http://www.w3.org/2000/svg" xmlns:xlink="http://www.w3.org/1999/xlink" width="116.999" height="115" viewBox="0 0 116.999 115">
  <defs>
    <clipPath id="clip-path">
      <rect id="Rect치ngulo_350175" data-name="Rect치ngulo 350175" width="63.167" height="63.637" fill="none"/>
    </clipPath>
  </defs>
  <g id="Grupo_1018029" data-name="Grupo 1018029" transform="translate(-1162 -2851.564)">
    <g id="Grupo_1017413" data-name="Grupo 1017413" transform="translate(736.563 -4646.906)">
      <g id="Grupo_1015374" data-name="Grupo 1015374" transform="translate(425.927 7498.205)">
        <g id="Grupo_1015448" data-name="Grupo 1015448" transform="translate(0 0)">
          <g id="Grupo_1014855" data-name="Grupo 1014855" transform="translate(0 0)">
            <path id="Uni칩n_12" data-name="Uni칩n 12" d="M58.5,0C90.809,0,117,25.744,117,57.5S90.809,115,58.5,115,0,89.256,0,57.5,26.192,0,58.5,0Z" transform="translate(-0.49 0.265)" fill="#81c539"/>
            <path id="Trazado_608322" data-name="Trazado 608322" d="M49,0C76.062,0,98,22.162,98,49.5S76.062,99,49,99,0,76.838,0,49.5,21.938,0,49,0Z" transform="translate(9.51 7.265)" fill="#fff"/>
          </g>
        </g>
      </g>
    </g>
    <g id="Grupo_1017417" data-name="Grupo 1017417" transform="translate(1189.085 2873.563)">
      <g id="Grupo_1017410" data-name="Grupo 1017410" clip-path="url(#clip-path)">
        <path id="Trazado_718303" data-name="Trazado 718303" d="M11.544,133.442c-.782,1.066-1.289.139-1.851-.267-.795-.574.011-.913.267-1.206a36.608,36.608,0,0,1,11.685-8.988,1.553,1.553,0,0,0,1.06-1.664c-.058-3.989-.027-7.979-.024-11.968,0-1.8.126-1.914,1.973-1.916,1.885,0,3.77-.026,5.654.014.631.013.837-.168.807-.8-.05-1.05-.006-2.1-.016-3.156-.007-.856.39-1.383,1.258-1.3s.845-.372.866-1a3.05,3.05,0,0,1,3.244-3.194c.879,0,1.066-.309.951-1.052-.123-.8.1-1.162,1.022-1.119.786.037,1.255.125,1.091,1.052-.14.785.083,1.121,1.011,1.12a3.032,3.032,0,0,1,3.179,3.126c.024.673-.017,1.179.932,1.077.8-.085,1.189.433,1.189,1.227,0,1.052.044,2.107-.013,3.156-.038.695.186.889.874.873,1.884-.046,3.77-.018,5.654-.015,1.784,0,1.907.131,1.908,1.983,0,3.946.033,7.892-.023,11.837a1.645,1.645,0,0,0,1.12,1.756,37,37,0,0,1,11.936,9.3c.354.414.854.8.043,1.293-.554.338-1,1.129-1.645.115a1.987,1.987,0,0,0-2.226-.835,82.781,82.781,0,0,1-8.625.838c-.126-.219-.348-.242-.565-.275-1.909-1.371-3.925-2.061-6.283-1.187a14.4,14.4,0,0,1-2.424.464c-1.221-.889-1.11-2.4-1.678-3.594a1.293,1.293,0,0,1,.4-1.637c.7-.666,1.333-1.4,2.056-2.033.986-.866.513-1.979.489-2.959-.02-.815-.962-.566-1.5-.679a33.512,33.512,0,0,0-11.762-.369,33.878,33.878,0,0,0-10.921,3.4c.8.775,1.3,1.583,2.594,1.578,4.046-.016,3.142-.772,4.589,3.371.375,1.072.137,1.666-1,1.919-1.194.266-2.357.732-3.561.879-1.507.185-3.113.466-4.536-.176-1.617-.729-2.717-.395-3.588,1.061a1.349,1.349,0,0,1-1.583,0c-2.538-2.574-1.662-2.77-4.031-.035m40.035-3.864c1.316.771,2.65,1.881,4.1,1.932a49.429,49.429,0,0,0,7.094-.722,15.151,15.151,0,0,0-2.7-2.395,21.554,21.554,0,0,0-3.958-2.546,29.378,29.378,0,0,0-7.261-3.172c.806,2.558-.558,4.044-2.175,5.414-.1.084-.179.192-.278.277-.6.514-.155,1.044-.013,1.557.177.639.681.4,1.083.338a22.733,22.733,0,0,1,4.112-.682M33.21,111.719c0,2.147.065,4.3-.028,6.44-.046,1.062.311,1.2,1.258,1.129,1.072-.075.874-.746.869-1.372-.029-3.344-.162-3.121,3.149-3.12s3.213-.243,3.174,3.093c0,.175.01.351,0,.526-.075,1.134.817.743,1.374.87.751.172.734-.317.733-.837-.007-4.426-.016-8.852.008-13.277,0-.654-.132-.922-.859-.912q-4.4.06-8.806,0c-.691-.008-.9.193-.886.885.041,2.19.015,4.382.015,6.573m-8.422,3.743c0,1.7.019,3.41-.01,5.114-.011.668.068.966.865.7,1.571-.522,3.169-.968,4.772-1.38.525-.135.7-.342.695-.873q-.032-4.327,0-8.655c0-.6-.141-.858-.8-.841-1.573.04-3.147.037-4.72,0-.628-.015-.831.194-.818.82.035,1.7.012,3.41.012,5.114m27.366.143c0-1.748-.021-3.5.011-5.245.011-.61-.16-.849-.8-.833q-2.358.058-4.719,0c-.638-.016-.816.211-.811.827.026,2.884.022,5.77,0,8.654a.744.744,0,0,0,.683.878c1.6.406,3.2.86,4.771,1.384.775.259.889.006.876-.682-.031-1.66-.01-3.322-.01-4.983m-28.886,14.96a9.554,9.554,0,0,0,3.626-.521c.362-.08.7-.193.556-.687-.107-.368-.118-.823-.648-.854a6.487,6.487,0,0,0-1.312,0,3.658,3.658,0,0,1-3.751-1.566c-.128-.175-.32-.3-.455-.472-.4-.5-.791-.5-1.34-.165a36.929,36.929,0,0,0-4.077,2.871c-.4.327-1.04.582-.3,1.285.57.544.984.831,1.528.043a1.905,1.905,0,0,1,2.634-.617,6.186,6.186,0,0,0,3.544.689m15.192-28.4c.7,0,1.405.043,2.1-.017.383-.033,1.031.365,1.069-.49.031-.7-.038-1.476-.853-1.537a32.454,32.454,0,0,0-4.591,0c-.822.056-.89.816-.877,1.52.016.883.671.48,1.051.512.7.06,1.4.017,2.1.017m-.092,16.822c.765.14,1.285.079,1.181-.939-.071-.691.049-1.282-.994-1.17-.7.076-1.288-.028-1.159,1,.084.667-.1,1.408.972,1.107" transform="translate(-6.888 -70.58)" fill="#020303"/>
        <path id="Trazado_718304" data-name="Trazado 718304" d="M38.994,204.2c.871-1.456,1.971-1.791,3.588-1.062,1.423.642,3.03.361,4.537.176,1.2-.148,2.367-.613,3.561-.879,1.137-.253,1.375-.848,1-1.919-1.447-4.143-.543-3.387-4.589-3.371-1.293.005-1.795-.8-2.594-1.578a33.884,33.884,0,0,1,10.921-3.4,33.518,33.518,0,0,1,11.762.369c.534.114,1.476-.135,1.5.68.024.979.5,2.092-.489,2.959-.723.635-1.358,1.367-2.056,2.033a1.293,1.293,0,0,0-.4,1.637c.568,1.194.457,2.705,1.678,3.594-.267.532-1.134.253-1.282.947-1.533.275-3.041-.162-4.565-.162q-11.283,0-22.567-.029" transform="translate(-28.724 -141.305)" fill="#a5d9f9"/>
        <path id="Trazado_718305" data-name="Trazado 718305" d="M10.545,51.972A10.53,10.53,0,1,1,0,62.481,10.545,10.545,0,0,1,10.545,51.972m6.365,15.787c2.984-3.051,2.627-8.425-.7-11.454a8.382,8.382,0,0,0-12.077.733c-2.711,3.2-2.7,8.534.041,10.643A5.216,5.216,0,0,1,6.614,63.4c.627-.39.406-.687.174-1.143a3.946,3.946,0,0,1,.43-4.438,4.177,4.177,0,0,1,5.427-1.064,4.242,4.242,0,0,1,1.722,5.366c-.152.357-.8.729-.053,1.18a5.5,5.5,0,0,1,2.6,4.462m-6.42-3.148c-3.21,0-4.261,1.133-4.188,4.4a1.1,1.1,0,0,0,.775,1.162,8.389,8.389,0,0,0,6.861.025,1.168,1.168,0,0,0,.819-1.266c.037-3.264-.983-4.322-4.267-4.322m2.142-4.231A2.1,2.1,0,1,0,10.577,62.5a2.128,2.128,0,0,0,2.054-2.121" transform="translate(0 -38.284)" fill="#050606"/>
        <path id="Trazado_718306" data-name="Trazado 718306" d="M90.533,0a10.531,10.531,0,1,1-10.589,10.47A10.545,10.545,0,0,1,90.533,0m8.36,10.575a8.42,8.42,0,1,0-8.5,8.377,8.446,8.446,0,0,0,8.5-8.377" transform="translate(-58.889 -0.001)" fill="#050606"/>
        <path id="Trazado_718307" data-name="Trazado 718307" d="M180.945,62.551a10.529,10.529,0,1,1-10.48-10.58,10.551,10.551,0,0,1,10.48,10.58M162,62.415a8.42,8.42,0,1,0,8.539-8.335A8.45,8.45,0,0,0,162,62.415" transform="translate(-117.778 -38.284)" fill="#050606"/>
        <path id="Trazado_718308" data-name="Trazado 718308" d="M142.016,234.521c.147-.694,1.014-.415,1.282-.947a14.4,14.4,0,0,0,2.424-.464c2.358-.874,4.374-.184,6.283,1.187l-.024.283-9.964-.059" transform="translate(-104.614 -171.431)" fill="#8cccf5"/>
        <path id="Trazado_718309" data-name="Trazado 718309" d="M17.678,233.166c2.369-2.736,1.494-2.539,4.031.035l-4.031-.035" transform="translate(-13.022 -170.304)" fill="#a2d5f5"/>
        <path id="Trazado_718310" data-name="Trazado 718310" d="M179.851,238.986c.008-.095.016-.189.024-.283.216.034.439.056.565.275l-.589.008" transform="translate(-132.485 -175.837)" fill="#a5d9f9"/>
        <path id="Trazado_718311" data-name="Trazado 718311" d="M99.857,135.342c0-2.191.026-4.382-.015-6.573-.013-.693.2-.894.886-.885q4.4.053,8.806,0c.727-.01.862.258.859.912-.024,4.426-.016,8.851-.008,13.277,0,.519.018,1.008-.733.837-.557-.127-1.449.264-1.374-.87.012-.175,0-.351,0-.526.038-3.336.14-3.092-3.174-3.093s-3.179-.224-3.149,3.12c.006.626.2,1.3-.869,1.373-.947.066-1.3-.067-1.258-1.129.093-2.143.028-4.293.028-6.44m5.248.977c.784,0,1.573-.057,2.349.015.9.083.84-.464.826-1.054-.013-.558.136-1.129-.8-1.083-1.433.069-2.873.048-4.309.006-.78-.023-1.263-.005-1.256,1.052.007,1.013.408,1.146,1.23,1.077.648-.055,1.305-.011,1.958-.011M105,132.107c.871,0,1.743-.031,2.612.009.915.042.648-.612.657-1.07s.225-1.078-.676-1.055c-1.653.044-3.309.027-4.963,0-.507-.007-.638.181-.685.676-.1,1.048.1,1.675,1.359,1.453a10.019,10.019,0,0,1,1.695-.017" transform="translate(-73.535 -94.203)" fill="#a7a7a7"/>
        <path id="Trazado_718312" data-name="Trazado 718312" d="M67.934,153.819c0-1.7.023-3.41-.012-5.114-.013-.626.19-.835.818-.82,1.573.037,3.147.04,4.72,0,.655-.017.8.242.8.841q-.036,4.327,0,8.655c0,.531-.17.738-.7.873-1.6.412-3.2.859-4.772,1.38-.8.265-.876-.032-.865-.7.029-1.7.009-3.409.01-5.114M72.117,151c.254-1.009-.373-.977-1.1-1.025-.864-.056-.986.3-1,1.055-.02.854.227,1.1,1.092,1.107.891,0,1.205-.28,1.014-1.136m0,4.3c.2-.873-.15-1.151-1.026-1.117-.721.028-1.142.082-1.077.979.052.714,0,1.261,1.011,1.179.745-.061,1.339-.052,1.092-1.041" transform="translate(-50.034 -108.936)" fill="#989898"/>
        <path id="Trazado_718313" data-name="Trazado 718313" d="M154.192,153.963c0,1.661-.021,3.322.01,4.983.013.688-.1.941-.876.682-1.57-.524-3.166-.978-4.771-1.384a.745.745,0,0,1-.683-.878c.019-2.885.024-5.77,0-8.654-.006-.617.173-.843.811-.827q2.358.057,4.719,0c.645-.016.816.223.8.833-.032,1.748-.011,3.5-.011,5.245m-2.129-2.848c.182-.843-.1-1.157-1.006-1.146-.849.011-1.131.228-1.1,1.1.026.742.119,1.127,1,1.062.716-.053,1.368.007,1.111-1.015m-2.06,4c-.1.748-.088,1.354.947,1.215.589-.079,1.284.144,1.149-.883-.08-.61.213-1.392-.913-1.248-.62.08-1.455-.211-1.184.915" transform="translate(-108.925 -108.937)" fill="#989898"/>
        <path id="Trazado_718314" data-name="Trazado 718314" d="M154.34,204.71a22.733,22.733,0,0,0-4.112.682c-.4.065-.906.3-1.083-.337-.142-.513-.59-1.043.013-1.557.1-.085.179-.192.278-.277,1.617-1.371,2.981-2.856,2.175-5.414a29.378,29.378,0,0,1,7.261,3.172,17.821,17.821,0,0,1-4.532,3.731" transform="translate(-109.649 -145.712)" fill="#61b891"/>
        <path id="Trazado_718315" data-name="Trazado 718315" d="M169.693,213.582a17.821,17.821,0,0,0,4.532-3.731,21.569,21.569,0,0,1,3.958,2.546,15.161,15.161,0,0,1,2.7,2.395,49.429,49.429,0,0,1-7.094.722c-1.446-.05-2.78-1.16-4.1-1.931" transform="translate(-125.002 -154.584)" fill="#539e7b"/>
        <path id="Trazado_718316" data-name="Trazado 718316" d="M39.706,215.163a6.182,6.182,0,0,1-3.543-.689,1.905,1.905,0,0,0-2.634.618c-.543.788-.957.5-1.527-.043-.736-.7-.095-.958.3-1.285a36.925,36.925,0,0,1,4.077-2.871c.549-.339.942-.338,1.34.166.135.171.327.3.455.472a3.658,3.658,0,0,0,3.751,1.566,6.467,6.467,0,0,1,1.312,0c.53.031.541.486.648.854.144.494-.194.608-.556.687a9.555,9.555,0,0,1-3.626.521" transform="translate(-23.325 -155.177)" fill="#61b891"/>
        <path id="Trazado_718317" data-name="Trazado 718317" d="M111.064,113.988c-.7,0-1.405.043-2.1-.017-.381-.033-1.036.37-1.051-.512-.012-.7.055-1.464.877-1.52a32.454,32.454,0,0,1,4.591,0c.816.061.885.837.853,1.537-.038.856-.687.457-1.069.49-.7.06-1.4.017-2.1.017" transform="translate(-79.491 -82.4)" fill="#d8d8d8"/>
        <path id="Trazado_718318" data-name="Trazado 718318" d="M116.764,177.877c-1.073.3-.888-.44-.972-1.107-.13-1.03.461-.926,1.159-1,1.043-.113.923.479.994,1.17.1,1.018-.416,1.08-1.181.939" transform="translate(-85.284 -129.467)" fill="#e6e6e6"/>
        <path id="Trazado_718319" data-name="Trazado 718319" d="M22.825,73.657a5.5,5.5,0,0,0-2.6-4.462c-.746-.451-.1-.824.053-1.18A4.241,4.241,0,0,0,18.56,62.65a4.176,4.176,0,0,0-5.427,1.064,3.947,3.947,0,0,0-.43,4.438c.232.456.452.753-.174,1.143a5.217,5.217,0,0,0-2.435,4.283c-2.737-2.11-2.752-7.446-.041-10.643A8.382,8.382,0,0,1,22.129,62.2c3.323,3.029,3.679,8.4.7,11.454" transform="translate(-5.915 -44.183)" fill="#a3d6f6"/>
        <path id="Trazado_718320" data-name="Trazado 718320" d="M28.1,99.96c3.284,0,4.3,1.058,4.267,4.322a1.169,1.169,0,0,1-.819,1.266,8.389,8.389,0,0,1-6.861-.025,1.1,1.1,0,0,1-.775-1.162c-.073-3.269.978-4.4,4.188-4.4" transform="translate(-17.615 -73.634)" fill="#e6e6e6"/>
        <path id="Trazado_718321" data-name="Trazado 718321" d="M36.2,78.062a2.1,2.1,0,1,1-2.087-2.086A2.131,2.131,0,0,1,36.2,78.062" transform="translate(-23.565 -55.967)" fill="#f3cca0"/>
        <path id="Trazado_718322" data-name="Trazado 718322" d="M104.792,16.476A8.42,8.42,0,1,1,96.384,8.01a8.448,8.448,0,0,1,8.408,8.466m-8.44,5.219c.962,0,1.924-.01,2.886,0,.933.013,1.361-.438,1.347-1.363-.014-1.006.026-2.013-.013-3.017-.024-.623.078-1,.829-.9a1.059,1.059,0,0,0,1.23-.754,1.086,1.086,0,0,0-.507-1.243q-2.509-2.005-5.019-4.009a.982.982,0,0,0-1.32-.091c-1.784,1.408-3.582,2.8-5.319,4.263-.689.58-.459,1.756.32,1.725,1.753-.07,1.378,1.04,1.377,2.015,0,.656.017,1.313,0,1.968-.031,1,.455,1.432,1.438,1.405.918-.025,1.836-.005,2.755-.006" transform="translate(-64.788 -5.9)" fill="#a3d6f6"/>
        <path id="Trazado_718323" data-name="Trazado 718323" d="M167.894,68.314a8.421,8.421,0,1,1,8.367,8.508,8.45,8.45,0,0,1-8.367-8.508m8.34,6.372c1.307.354,1.219-.533,1.122-1.334-.153-1.269.033-1.972,1.644-1.844a3.461,3.461,0,0,0,3.522-2.762,3.613,3.613,0,0,0-1.74-4.03,4.109,4.109,0,0,1-1.171-.984,4.12,4.12,0,0,0-6.576-.041,3.3,3.3,0,0,1-.919.885,3.651,3.651,0,0,0,1.866,6.949c1.167-.054,1.451.365,1.287,1.39-.041.256.02.527-.011.786-.088.743.066,1.23.976.986" transform="translate(-123.677 -44.182)" fill="#a2d5f5"/>
        <path id="Trazado_718324" data-name="Trazado 718324" d="M110.955,153.973c-.653,0-1.31-.044-1.958.011-.822.07-1.224-.063-1.23-1.077-.007-1.057.476-1.075,1.256-1.052,1.435.042,2.875.063,4.309-.006.935-.045.786.525.8,1.083.014.59.078,1.137-.826,1.054-.777-.072-1.566-.015-2.35-.015" transform="translate(-79.385 -111.856)"/>
        <path id="Trazado_718325" data-name="Trazado 718325" d="M110.859,138a9.964,9.964,0,0,0-1.7.017c-1.261.222-1.458-.4-1.359-1.453.047-.495.178-.682.685-.676,1.654.022,3.309.04,4.963,0,.9-.024.684.584.676,1.055s.258,1.112-.657,1.07c-.869-.04-1.741-.009-2.612-.008" transform="translate(-79.397 -100.099)"/>
        <path id="Trazado_718326" data-name="Trazado 718326" d="M77.953,156.841c.191.856-.124,1.138-1.014,1.136-.865,0-1.112-.253-1.093-1.107.018-.758.141-1.111,1-1.055.73.048,1.357.016,1.1,1.025" transform="translate(-55.87 -114.775)"/>
        <path id="Trazado_718327" data-name="Trazado 718327" d="M77.949,172.926c.248.989-.347.981-1.092,1.041-1.014.082-.959-.465-1.011-1.179-.066-.9.356-.951,1.077-.979.876-.034,1.225.244,1.026,1.117" transform="translate(-55.866 -126.559)"/>
        <path id="Trazado_718328" data-name="Trazado 718328" d="M157.9,156.945c.257,1.022-.395.962-1.111,1.015-.877.065-.97-.32-1-1.062-.03-.87.252-1.088,1.1-1.1.908-.011,1.188.3,1.006,1.146" transform="translate(-114.759 -114.767)"/>
        <path id="Trazado_718329" data-name="Trazado 718329" d="M155.827,172.738c-.271-1.126.563-.835,1.184-.915,1.126-.145.833.637.913,1.248.135,1.027-.56.8-1.149.883-1.035.139-1.045-.467-.947-1.215" transform="translate(-114.749 -126.558)"/>
        <path id="Trazado_718330" data-name="Trazado 718330" d="M102.236,27.563c-.918,0-1.837-.02-2.755.006-.984.027-1.47-.4-1.438-1.405.021-.655,0-1.312,0-1.968,0-.975.375-2.085-1.377-2.015-.779.031-1.009-1.145-.32-1.725,1.737-1.463,3.535-2.855,5.319-4.262a.981.981,0,0,1,1.32.09q2.512,2,5.019,4.009a1.086,1.086,0,0,1,.507,1.244,1.059,1.059,0,0,1-1.23.754c-.751-.1-.853.273-.829.9.039,1,0,2.011.013,3.017.013.925-.414,1.376-1.347,1.363-.962-.013-1.924,0-2.886,0m.107-5.263a6.314,6.314,0,0,1-.918-.007c-.982-.146-1.356.161-1.3,1.239.1,1.923.023,1.927,1.917,1.927.569,0,1.138,0,1.707,0,.313,0,.538.006.632-.439.442-2.107.006-2.719-2.035-2.719M100.3,20.1h4.021c-2.41-1.972-1.607-2.208-4.021,0" transform="translate(-70.673 -11.769)" fill="#020303"/>
        <path id="Trazado_718331" data-name="Trazado 718331" d="M182.083,80.544c-.909.244-1.065-.243-.976-.986.031-.259-.03-.53.011-.786.164-1.025-.12-1.444-1.287-1.39a3.651,3.651,0,0,1-1.866-6.949,3.3,3.3,0,0,0,.919-.885,4.12,4.12,0,0,1,6.576.041,4.113,4.113,0,0,0,1.171.984,3.613,3.613,0,0,1,1.74,4.03,3.461,3.461,0,0,1-3.522,2.762c-1.61-.128-1.8.574-1.644,1.844.1.8.185,1.688-1.122,1.334m.044-5.241v0c.874,0,1.749.019,2.623-.005a1.515,1.515,0,0,0,1.579-1.3,1.418,1.418,0,0,0-1.057-1.728,2.226,2.226,0,0,1-1.321-1.142,2,2,0,0,0-3.539-.061A2.394,2.394,0,0,1,179,72.3a1.388,1.388,0,0,0-1.013,1.633,1.493,1.493,0,0,0,1.518,1.363c.872.042,1.748.009,2.622.009" transform="translate(-129.525 -50.041)" fill="#020303"/>
        <path id="Trazado_718332" data-name="Trazado 718332" d="M114.026,39.872c2.041,0,2.477.612,2.035,2.719-.093.445-.318.44-.632.439-.569,0-1.138,0-1.707,0-1.894,0-1.821,0-1.917-1.927-.054-1.077.321-1.385,1.3-1.239a6.315,6.315,0,0,0,.918.007" transform="translate(-82.357 -29.341)" fill="#e6e6e6"/>
        <path id="Trazado_718333" data-name="Trazado 718333" d="M112.481,27.257c2.414-2.208,1.61-1.972,4.021,0Z" transform="translate(-82.858 -18.923)" fill="#f37a81"/>
        <path id="Trazado_718334" data-name="Trazado 718334" d="M188.094,81.177c-.874,0-1.75.033-2.622-.009a1.493,1.493,0,0,1-1.517-1.363,1.388,1.388,0,0,1,1.013-1.633,2.394,2.394,0,0,0,1.412-1.226,2,2,0,0,1,3.539.061,2.226,2.226,0,0,0,1.321,1.142,1.418,1.418,0,0,1,1.057,1.728,1.515,1.515,0,0,1-1.579,1.3c-.874.024-1.748.005-2.623.005v0" transform="translate(-135.492 -55.914)" fill="#61b891"/>
      </g>
    </g>
  </g>
</svg>
