<svg xmlns="http://www.w3.org/2000/svg" xmlns:xlink="http://www.w3.org/1999/xlink" width="150.338" height="142" viewBox="0 0 150.338 142">
  <defs>
    <clipPath id="clip-path">
      <rect id="Rectángulo_350179" data-name="Rectángulo 350179" width="150.338" height="121.106" fill="none"/>
    </clipPath>
  </defs>
  <g id="Grupo_1018033" data-name="Grupo 1018033" transform="translate(-313.499 -4797)">
    <circle id="Elipse_5852" data-name="Elipse 5852" cx="71" cy="71" r="71" transform="translate(317.668 4797)" fill="#fff"/>
    <g id="Grupo_1017419" data-name="Grupo 1017419" transform="translate(313.499 4799.894)">
      <g id="Grupo_1017418" data-name="Grupo 1017418" clip-path="url(#clip-path)">
        <path id="Trazado_718392" data-name="Trazado 718392" d="M13.858,115.892c-1.892.038-3.783.1-5.675.107-3.01.014-3.868-1.244-3.125-4.166.342-1.349,1.292-.925,1.965-.849,2.335.265,3.6-.467,4.748-2.772,1.707-3.441,5.037-4.975,8.925-4.793,1.493.071,2.32-.061,3.063-1.695,1.938-4.26,5.507-6.16,10.2-5.881,3.942.234,6.476-2.11,6.476-6,0-6.667,0-6.655-6.6-6.671-4.305-.011-8.628.265-12.869-.827A27.912,27.912,0,0,1,.037,55.573C0,52.207-.029,48.839.049,45.475c.106-4.6,3.184-7.836,7.791-7.7,9.011.268,18.1-1.12,27.02,1.076,1.081.265,1.5-.359,2.057-1.007C43.253,30.5,51.328,27.315,60.956,27.594c5.571.162,11.151-.006,16.728.039,5.15.042,8.227,3.094,8.185,8.291-.045,5.452.565,10.95-.847,16.332a27.7,27.7,0,0,1-26.54,20.763c-2.258.021-3.074.394-2.957,2.866.232,4.933.116,9.886.042,14.829-.024,1.616.047,2.593,2.137,2.856a8.013,8.013,0,0,1,6.426,4.593,4.5,4.5,0,0,0,4.41,3.007,18.155,18.155,0,0,1,3.511.9c.128-6.777,3.11-12.4,6.378-17.964Q84.573,73.657,90.45,63.054c1.414-2.554,2.94-3.195,5.58-1.69,2.131,1.217,4.737,3.628,6.582,2.8,1.831-.816,2.513-4.129,3.785-6.3,1.394-2.376,2.4-4.538,1.183-7.557-1.018-2.529-.186-5.394,1.131-7.9C114.95,30.522,121.127,18.6,127.448,6.754c3.366-6.307,10.352-8.471,16.4-5.323a12.035,12.035,0,0,1,5.024,16.509c-6.142,11.939-12.446,23.8-18.692,35.68-1.423,2.707-3.474,4.907-6.443,5.677a6.023,6.023,0,0,0-4.17,3.776c-1.25,2.644-4.072,5.579-3.549,7.743.548,2.268,4.738,2.874,7.325,4.228,3.346,1.75,3.556,2.309,1.886,5.9q-6.345,13.644-12.7,27.262c1.025.69,1.966.263,2.878.236,4.415-.133,7.836,1.628,9.733,5.631a2.985,2.985,0,0,0,3.312,1.958c4.522-.1,9.052.095,13.569-.087,2.22-.089,2.019,1.13,1.956,2.53-.058,1.27.507,2.7-1.849,2.632-6.517-.181-13.04-.125-19.561-.162-1.669-1.241-1.07-3.47-2.161-4.962-1.35-2.379-3.415-2.944-5.891-2.19-1.065.324-2.028.913-.975,2.256.231,1.506.177,2.481-1.924,2.574-2.192.1-3.311-.67-3.845-2.643-2.818-3.459-5.6-3.459-8.424,0-.521,2.542-2.309,2.727-4.464,2.58-2.042-.138-1.177-1.523-1.3-2.512.476-.707,1-1.483-.116-2.023a5.6,5.6,0,0,0-5.055,0c-1.113.539-.59,1.316-.114,2.023.213,1.5.171,2.483-1.933,2.574-2.192.095-3.309-.671-3.844-2.643-2.818-3.459-5.6-3.459-8.424,0-.521,2.539-2.3,2.726-4.461,2.581-2.041-.136-1.17-1.528-1.309-2.511.891-1.891,1.642-3.93,3.447-5.144,2.011-1.354,1.083-2.167-.3-3.144-6.625-4.688-14.879-.44-15.944,8.226-5.2.06-5.2.06-4.33-5.023,1.654-3.343,3.673-6.435,7.118-8.137,2.54-1.254,1.784-2.362.129-3.554-2.758-1.987-6.159-.96-7.6,2.655-.994,2.493-2.781,1.152-4.206,1.391-1.294.217-1.181-.871-1.011-1.707.222-1.095.933-2.235-.742-2.866-1.236-.466-2.648-.838-3.606.021-1.41,1.263.749,1.975.889,3.112.152,1.22,1.286,2.587.539,3.594s-2.363.325-3.593.416c-1.594.116-1.292-1.394-1.751-2.2a5.026,5.026,0,0,0-6.982-2.16c-2.5,1.427-3.062,3.89-1.541,6.663.5.913.924,1.868,1.383,2.8.2,1.491.164,2.487-1.941,2.577-2.192.092-3.311-.671-3.844-2.645-2.819-3.46-5.6-3.46-8.424,0-1.1,1.491-.483,3.726-2.16,4.965M17.391,75.4a7.958,7.958,0,0,0-2-3.728A27.573,27.573,0,0,1,10.126,55.8c-.017-1.6-.3-3.087,2.282-3.015,2.155.061,2.844.566,2.848,2.814a21.729,21.729,0,0,0,6.879,16.041A22.559,22.559,0,0,0,38.37,78.12c7.126.03,7.124.036,7.126,7.279,0,2.311-.092,4.628.037,6.933.125,2.241,2.332,2.4,3.7,2.64,1.63.289,1.277-1.536,1.28-2.6.027-9.035.15-18.073-.027-27.105A22.93,22.93,0,0,0,31.721,43.363c-7.908-1.371-15.932-.33-23.9-.543a2.385,2.385,0,0,0-2.673,2.5c.049,5.339-.719,10.754.772,15.989A21.984,21.984,0,0,0,17.391,75.4M90.8,108.088c4.115,1.054,7.848,2.663,11.665.4a1.368,1.368,0,0,1,.932-.049c2.614.675,3.784-.882,4.74-2.932,3.234-6.932,6.516-13.842,9.765-20.768,2.684-5.72,2.655-5.682-3.106-8.347-1.308-.6-1.971-.573-2.638.823-1.312,2.739-2.688,5.463-4.259,8.059a6.859,6.859,0,0,1-9.323,2.6,7.023,7.023,0,0,1-3.057-9.2c.809-1.817,1.834-3.536,2.759-5.3,2.318-4.423,2.294-4.369-2.175-6.307-1.21-.524-1.867-.448-2.523.718-4.78,8.5-9.719,16.914-14.344,25.5a20.967,20.967,0,0,0-2.016,11.643c.272,3.779,3.458,3.8,5.828,4.6,2.031.69,2.016-1.7,2.644-2.762,2.4-4.057,4.621-8.227,6.79-12.416.855-1.65,1.567-2.3,3.478-1.183,1.7.995,2.248,1.659,1.107,3.543-2.216,3.661-4.15,7.492-6.267,11.373M68.324,64.595c.788.125,1.021.24,1.174.172a8.324,8.324,0,0,0,1.371-.749,22.482,22.482,0,0,0,9.358-13.727c1.052-4.466.38-9,.629-13.5.163-2.95-.993-4.209-4.028-4.142-5.99.131-11.984.034-17.976.04a23.712,23.712,0,0,0-15.827,6.047c-1.726,1.477-2.393,2.379.128,4.039a26.571,26.571,0,0,1,11.9,18.184c.318,1.793.538,3.6.817,5.5a12.11,12.11,0,0,0,1.407-.465c8.493-4.183,12.991-11.026,13.41-20.463.08-1.811.181-2.837,2.489-2.849,2.415-.015,2.871.992,2.623,3-.167,1.351-.211,2.717-.392,4.066-.748,5.578-3.563,10.225-7.087,14.848m44.07-16.549a6.812,6.812,0,0,0,5.179,6.816c3.45.917,6.421-.381,8.322-3.974q9.135-17.26,18.11-34.6c2.244-4.321,1.217-8.371-2.472-10.315-3.721-1.963-7.7-.563-9.956,3.717C125.5,21.2,119.514,32.76,113.484,44.3a6.885,6.885,0,0,0-1.09,3.747m2.974,12.168c-.109-1.3-1.517-1.1-2.239-1.712-1.061-.905-1.418.076-1.793.79q-5.467,10.418-10.921,20.843c-.752,1.429-.794,2.693.873,3.352,1.57.621,2.252-.62,2.848-1.754q5.332-10.134,10.636-20.284c.195-.371.365-.754.6-1.234m-97.3,15.721c.074-.173.212-.346.187-.49-.02-.109-.246-.183-.382-.272-.057.147-.186.311-.153.433s.222.219.347.328M68.177,65.207c-.068-.074-.131-.2-.2-.208s-.159.109-.238.171c.068.075.131.2.205.208s.158-.109.238-.171" transform="translate(0 0)" fill="#040404"/>
        <path id="Trazado_718393" data-name="Trazado 718393" d="M128.489,180.665c1.091,1.493.492,3.721,2.161,4.962q-37.541.053-75.083.15c-2.156.009-2.172-1.139-1.975-2.559.3-2.145-.643-2.59-2.635-2.577-9.672.06-19.345-.028-29.018-.063,1.677-1.239,1.064-3.473,2.16-4.965h8.424c.534,1.974,1.652,2.736,3.845,2.643,2.105-.089,2.14-1.084,1.941-2.576l20.974-.032c-.874,5.082-.874,5.082,4.331,5.022l12.794.063c.138.983-.732,2.374,1.309,2.511,2.156.145,3.94-.043,4.461-2.582H90.6c.534,1.973,1.651,2.738,3.844,2.643,2.1-.091,2.146-1.076,1.932-2.574h5.285c.125.989-.739,2.374,1.3,2.513,2.156.146,3.943-.039,4.464-2.581h8.424c.533,1.974,1.652,2.74,3.844,2.643,2.1-.093,2.155-1.068,1.924-2.574l6.866-.066" transform="translate(-8.081 -64.686)" fill="#956241"/>
        <path id="Trazado_718394" data-name="Trazado 718394" d="M20.3,100.269A21.982,21.982,0,0,1,8.831,86.177c-1.491-5.236-.723-10.65-.772-15.99a2.384,2.384,0,0,1,2.673-2.5c7.968.213,15.991-.827,23.9.543A22.931,22.931,0,0,1,53.4,90.133c.177,9.032.054,18.07.027,27.105,0,1.063.349,2.887-1.28,2.6-1.369-.242-3.575-.4-3.7-2.64-.129-2.3-.037-4.621-.037-6.932,0-7.243,0-7.25-7.125-7.279A22.557,22.557,0,0,1,25.046,96.5a21.725,21.725,0,0,1-6.878-16.04c-.005-2.249-.693-2.753-2.849-2.814-2.583-.072-2.3,1.416-2.282,3.015a27.567,27.567,0,0,0,5.269,15.877,7.965,7.965,0,0,1,1.995,3.727" transform="translate(-2.912 -24.865)" fill="#339765"/>
        <path id="Trazado_718395" data-name="Trazado 718395" d="M135.784,147.018c2.117-3.88,4.051-7.712,6.267-11.373,1.141-1.884.6-2.548-1.107-3.542-1.911-1.117-2.623-.467-3.478,1.183-2.17,4.189-4.388,8.358-6.79,12.415-.628,1.059-.613,3.451-2.644,2.762-2.371-.8-5.557-.826-5.828-4.605a20.967,20.967,0,0,1,2.016-11.643c4.626-8.582,9.565-17,14.345-25.5.656-1.167,1.313-1.243,2.523-.718,4.469,1.939,4.493,1.884,2.175,6.306-.925,1.765-1.951,3.484-2.759,5.3a7.025,7.025,0,0,0,3.057,9.2,6.859,6.859,0,0,0,9.323-2.6c1.571-2.6,2.947-5.321,4.259-8.061.668-1.4,1.331-1.427,2.638-.822,5.761,2.664,5.79,2.626,3.106,8.347-3.249,6.925-6.531,13.835-9.765,20.767-.956,2.049-2.126,3.607-4.74,2.932a1.361,1.361,0,0,0-.932.049c-3.817,2.26-7.55.651-11.665-.4" transform="translate(-44.98 -38.93)" fill="#c0d0db"/>
        <path id="Trazado_718396" data-name="Trazado 718396" d="M92.518,83.629c3.523-4.623,6.338-9.27,7.086-14.848.181-1.349.226-2.715.392-4.066.248-2.007-.208-3.012-2.624-3-2.307.013-2.408,1.039-2.489,2.849C94.464,74,89.966,80.847,81.474,85.03a12.07,12.07,0,0,1-1.407.465c-.279-1.9-.5-3.71-.817-5.5a26.573,26.573,0,0,0-11.9-18.184c-2.52-1.66-1.854-2.561-.128-4.039a23.721,23.721,0,0,1,15.828-6.047c5.992-.006,11.986.09,17.976-.04,3.035-.066,4.192,1.193,4.029,4.142-.249,4.5.423,9.038-.63,13.5a22.477,22.477,0,0,1-9.358,13.726,8.2,8.2,0,0,1-1.37.749c-.153.068-.387-.047-1.174-.172" transform="translate(-24.194 -19.035)" fill="#339764"/>
        <path id="Trazado_718397" data-name="Trazado 718397" d="M177.925,51.017a6.884,6.884,0,0,1,1.09-3.746c6.03-11.538,12.019-23.1,18.093-34.614,2.258-4.28,6.234-5.679,9.956-3.717,3.689,1.945,4.715,5.994,2.472,10.316q-9,17.331-18.11,34.6c-1.9,3.593-4.872,4.89-8.323,3.974a6.813,6.813,0,0,1-5.178-6.817" transform="translate(-65.531 -2.972)" fill="#936141"/>
        <path id="Trazado_718398" data-name="Trazado 718398" d="M67.532,168.255l-20.974.032c-.459-.935-.882-1.89-1.383-2.8-1.52-2.772-.963-5.235,1.541-6.662a5.025,5.025,0,0,1,6.982,2.16c.459.8.157,2.312,1.751,2.2,1.23-.09,2.842.6,3.593-.415s-.388-2.374-.539-3.594c-.141-1.136-2.3-1.849-.889-3.112.958-.858,2.37-.486,3.607-.02,1.675.632.964,1.772.742,2.866-.17.836-.283,1.924,1.011,1.707,1.425-.239,3.213,1.1,4.206-1.391,1.441-3.615,4.842-4.643,7.6-2.655,1.655,1.193,2.411,2.3-.129,3.554-3.445,1.7-5.464,4.794-7.118,8.137" transform="translate(-16.33 -57.293)" fill="#a8794b"/>
        <path id="Trazado_718399" data-name="Trazado 718399" d="M100.709,177.757,87.915,177.7c1.064-8.666,9.318-12.914,15.944-8.226,1.38.976,2.308,1.791.3,3.144-1.805,1.215-2.556,3.254-3.447,5.144" transform="translate(-32.383 -61.71)" fill="#a97a4b"/>
        <path id="Trazado_718400" data-name="Trazado 718400" d="M173.634,94.115c-.231.48-.4.863-.6,1.234q-5.313,10.145-10.637,20.284c-.6,1.133-1.278,2.375-2.848,1.755-1.667-.659-1.625-1.923-.873-3.352q5.48-10.412,10.921-20.843c.375-.714.731-1.7,1.793-.79.723.617,2.131.412,2.239,1.712" transform="translate(-58.265 -33.901)" fill="#9da9b2"/>
        <path id="Trazado_718401" data-name="Trazado 718401" d="M33.782,174.1H25.358c2.822-3.46,5.605-3.46,8.424,0" transform="translate(-9.34 -63.173)" fill="#a27548"/>
        <path id="Trazado_718402" data-name="Trazado 718402" d="M125.729,182.094H117.3c2.822-3.46,5.605-3.46,8.424,0" transform="translate(-43.208 -66.117)" fill="#a27548"/>
        <path id="Trazado_718403" data-name="Trazado 718403" d="M165.706,182.094h-8.424c2.822-3.46,5.605-3.46,8.424,0" transform="translate(-57.934 -66.117)" fill="#a27548"/>
        <path id="Trazado_718404" data-name="Trazado 718404" d="M186.353,182.152l-6.866.066c-1.052-1.344-.09-1.932.975-2.257,2.477-.754,4.541-.188,5.891,2.191" transform="translate(-65.945 -66.172)" fill="#a07447"/>
        <path id="Trazado_718405" data-name="Trazado 718405" d="M144.753,182.185h-5.286c-.474-.707-1-1.484.115-2.024a5.6,5.6,0,0,1,5.055,0c1.115.539.591,1.316.116,2.022" transform="translate(-51.17 -66.14)" fill="#a57749"/>
        <path id="Trazado_718406" data-name="Trazado 718406" d="M28.4,119.771c-.125-.11-.313-.2-.347-.328s.1-.287.153-.433c.135.089.362.162.382.272.025.143-.114.316-.187.489" transform="translate(-10.329 -43.836)" fill="#339765"/>
        <path id="Trazado_718407" data-name="Trazado 718407" d="M107.676,103.111c-.08.063-.164.177-.238.171s-.137-.134-.205-.208c.08-.062.164-.177.238-.171s.137.134.2.208" transform="translate(-39.498 -37.903)" fill="#339764"/>
      </g>
    </g>
  </g>
</svg>
