<svg xmlns="http://www.w3.org/2000/svg" width="399.999" height="333.846" viewBox="0 0 399.999 333.846">
  <g id="VECTOR" transform="translate(-0.692 -0.694)">
    <path id="Trazado_718569" data-name="Trazado 718569" d="M203.436,107.648a12.446,12.446,0,1,0,12.446,12.445A12.446,12.446,0,0,0,203.436,107.648Zm0,19.955a7.509,7.509,0,1,1,7.509-7.51A7.509,7.509,0,0,1,203.436,127.6Z" transform="translate(66.482 38.7)" fill="#00817d"/>
    <path id="Trazado_718570" data-name="Trazado 718570" d="M203.212,105.03H198.39v6.522h4.823Z" transform="translate(69.755 38.087)" fill="#00817d"/>
    <path id="Trazado_718571" data-name="Trazado 718571" d="M188.266,114.288v4.822h6.521v-4.822Z" transform="translate(66.13 41.498)" fill="#00817d"/>
    <path id="Trazado_718572" data-name="Trazado 718572" d="M206.489,114.708v4.823h6.522v-4.823Z" transform="translate(72.555 41.652)" fill="#00817d"/>
    <path id="Trazado_718573" data-name="Trazado 718573" d="M211.317,110.343l-3.275-3.539-4.786,4.43,3.275,3.538Z" transform="translate(71.363 38.709)" fill="#00817d"/>
    <path id="Trazado_718574" data-name="Trazado 718574" d="M195.551,114.46l3.276-3.538-4.786-4.43-3.276,3.538Z" transform="translate(66.962 38.596)" fill="#00817d"/>
    <path id="Trazado_718575" data-name="Trazado 718575" d="M203.116,123.376h-4.822V129.9h4.822Z" transform="translate(69.721 44.784)" fill="#00817d"/>
    <path id="Trazado_718576" data-name="Trazado 718576" d="M207.03,119.923l-3.275,3.538,4.786,4.43,3.275-3.538Z" transform="translate(71.539 43.495)" fill="#00817d"/>
    <path id="Trazado_718577" data-name="Trazado 718577" d="M190.246,124.889l3.275,3.538,4.786-4.43-3.275-3.538Z" transform="translate(66.779 43.691)" fill="#00817d"/>
    <path id="Trazado_718578" data-name="Trazado 718578" d="M38.907,164.3a12.446,12.446,0,1,0,12.446,12.446A12.447,12.447,0,0,0,38.907,164.3Zm0,19.955a7.509,7.509,0,1,1,7.509-7.509A7.509,7.509,0,0,1,38.907,184.256Z" transform="translate(10.856 59.199)" fill="#00817d"/>
    <path id="Trazado_718579" data-name="Trazado 718579" d="M38.682,161.684H33.86V168.2h4.822Z" transform="translate(13.974 58.768)" fill="#00817d"/>
    <path id="Trazado_718580" data-name="Trazado 718580" d="M23.736,170.942v4.821h6.521v-4.821Z" transform="translate(9.708 62.196)" fill="#00817d"/>
    <path id="Trazado_718581" data-name="Trazado 718581" d="M41.96,171.362v4.821h6.521v-4.821Z" transform="translate(17.386 62.349)" fill="#00817d"/>
    <path id="Trazado_718582" data-name="Trazado 718582" d="M46.8,167,43.52,163.46l-4.785,4.43,3.275,3.538Z" transform="translate(16.028 59.378)" fill="#00817d"/>
    <path id="Trazado_718583" data-name="Trazado 718583" d="M31.016,171.12l3.275-3.538-4.785-4.43-3.276,3.539Z" transform="translate(10.76 59.265)" fill="#00817d"/>
    <path id="Trazado_718584" data-name="Trazado 718584" d="M38.586,180.029H33.764v6.522h4.822Z" transform="translate(13.933 65.465)" fill="#00817d"/>
    <path id="Trazado_718585" data-name="Trazado 718585" d="M42.505,176.57l-3.276,3.538,4.785,4.43L47.291,181Z" transform="translate(16.236 64.16)" fill="#00817d"/>
    <path id="Trazado_718586" data-name="Trazado 718586" d="M25.709,181.54l3.276,3.538,4.785-4.43-3.275-3.538Z" transform="translate(10.54 64.357)" fill="#00817d"/>
    <path id="Trazado_718587" data-name="Trazado 718587" d="M270.98,158.032a9.72,9.72,0,1,0,9.719,9.72A9.719,9.719,0,0,0,270.98,158.032Zm0,15.585a5.864,5.864,0,1,1,5.863-5.864A5.863,5.863,0,0,1,270.98,173.617Z" transform="translate(89.779 57.086)" fill="#00817d"/>
    <path id="Trazado_718588" data-name="Trazado 718588" d="M270.8,155.989H267.04v5.093H270.8Z" transform="translate(92.213 56.726)" fill="#00817d"/>
    <path id="Trazado_718589" data-name="Trazado 718589" d="M259.133,163.218v3.766h5.093v-3.766Z" transform="translate(88.882 59.402)" fill="#00817d"/>
    <path id="Trazado_718590" data-name="Trazado 718590" d="M273.365,163.546v3.765h5.093v-3.765Z" transform="translate(94.878 59.522)" fill="#00817d"/>
    <path id="Trazado_718591" data-name="Trazado 718591" d="M277.134,160.131l-2.558-2.763-3.738,3.459,2.558,2.763Z" transform="translate(93.813 57.201)" fill="#00817d"/>
    <path id="Trazado_718592" data-name="Trazado 718592" d="M264.829,163.352l2.558-2.763-3.738-3.459-2.558,2.763Z" transform="translate(89.707 57.114)" fill="#00817d"/>
    <path id="Trazado_718593" data-name="Trazado 718593" d="M270.73,170.315h-3.765v5.094h3.765Z" transform="translate(92.182 61.959)" fill="#00817d"/>
    <path id="Trazado_718594" data-name="Trazado 718594" d="M273.78,167.619l-2.557,2.763,3.737,3.459,2.558-2.763Z" transform="translate(93.976 60.943)" fill="#00817d"/>
    <path id="Trazado_718595" data-name="Trazado 718595" d="M260.681,171.5l2.558,2.763,3.737-3.459-2.558-2.763Z" transform="translate(89.534 61.098)" fill="#00817d"/>
    <path id="Trazado_718596" data-name="Trazado 718596" d="M221.457,14.824a9.719,9.719,0,1,0,9.719,9.719A9.719,9.719,0,0,0,221.457,14.824Zm0,15.583a5.864,5.864,0,1,1,5.863-5.864A5.862,5.862,0,0,1,221.457,30.407Z" transform="translate(73.937 5.953)" fill="#00817d"/>
    <path id="Trazado_718597" data-name="Trazado 718597" d="M221.282,12.78h-3.765v5.093h3.765Z" transform="translate(76.541 5.092)" fill="#00817d"/>
    <path id="Trazado_718598" data-name="Trazado 718598" d="M209.61,20.01v3.766H214.7V20.01Z" transform="translate(73.704 8.138)" fill="#00817d"/>
    <path id="Trazado_718599" data-name="Trazado 718599" d="M223.842,20.337V24.1h5.093V20.337Z" transform="translate(78.725 8.276)" fill="#00817d"/>
    <path id="Trazado_718600" data-name="Trazado 718600" d="M227.608,16.93l-2.558-2.763-3.737,3.46,2.558,2.763Z" transform="translate(77.789 5.676)" fill="#00817d"/>
    <path id="Trazado_718601" data-name="Trazado 718601" d="M215.3,20.14l2.557-2.763-3.737-3.46-2.558,2.763Z" transform="translate(74.351 5.571)" fill="#00817d"/>
    <path id="Trazado_718602" data-name="Trazado 718602" d="M221.207,27.107h-3.765V32.2h3.765Z" transform="translate(76.515 11.128)" fill="#00817d"/>
    <path id="Trazado_718603" data-name="Trazado 718603" d="M224.263,24.414,221.7,27.177l3.738,3.46L228,27.874Z" transform="translate(77.927 9.994)" fill="#00817d"/>
    <path id="Trazado_718604" data-name="Trazado 718604" d="M211.16,28.287l2.558,2.763,3.738-3.46L214.9,24.828Z" transform="translate(74.209 10.168)" fill="#00817d"/>
    <path id="Trazado_718605" data-name="Trazado 718605" d="M44.326,8.925a9.719,9.719,0,1,0,9.719,9.719A9.719,9.719,0,0,0,44.326,8.925Zm0,15.583a5.864,5.864,0,1,1,5.863-5.863A5.863,5.863,0,0,1,44.326,24.508Z" transform="translate(14.288 3.468)" fill="#00817d"/>
    <path id="Trazado_718606" data-name="Trazado 718606" d="M44.152,6.881H40.386v5.093h3.766Z" transform="translate(16.723 2.607)" fill="#00817d"/>
    <path id="Trazado_718607" data-name="Trazado 718607" d="M32.479,14.111v3.766h5.093V14.111Z" transform="translate(13.392 5.653)" fill="#00817d"/>
    <path id="Trazado_718608" data-name="Trazado 718608" d="M46.711,14.438V18.2H51.8V14.438Z" transform="translate(19.388 5.791)" fill="#00817d"/>
    <path id="Trazado_718609" data-name="Trazado 718609" d="M50.483,11.035,47.925,8.272l-3.737,3.46,2.558,2.763Z" transform="translate(18.325 3.193)" fill="#00817d"/>
    <path id="Trazado_718610" data-name="Trazado 718610" d="M38.162,14.246l2.558-2.763-3.737-3.46-2.558,2.763Z" transform="translate(14.212 3.088)" fill="#00817d"/>
    <path id="Trazado_718611" data-name="Trazado 718611" d="M44.076,21.208H40.31V26.3h3.766Z" transform="translate(16.691 8.643)" fill="#00817d"/>
    <path id="Trazado_718612" data-name="Trazado 718612" d="M47.139,18.51l-2.558,2.763,3.737,3.46,2.558-2.763Z" transform="translate(18.491 7.506)" fill="#00817d"/>
    <path id="Trazado_718613" data-name="Trazado 718613" d="M34.023,22.384l2.558,2.763,3.737-3.46-2.558-2.763Z" transform="translate(14.043 7.681)" fill="#00817d"/>
    <path id="Trazado_718614" data-name="Trazado 718614" d="M255.414,188.786s-11.673.127-17.621,8.7-5.738,22.364-.371,31.5,17.174-2.536,17.174-2.536Z" transform="translate(81.405 65.753)" fill="#01d8d1"/>
    <path id="Trazado_718615" data-name="Trazado 718615" d="M253.1,188.786s-13.05,6.019-14.136,21.428,6.531,21.014,6.531,21.014,6.068,2.359,6.613-.4S246.248,215.127,253.1,188.786Z" transform="translate(80.34 65.753)" fill="#00aca7"/>
    <path id="Trazado_718616" data-name="Trazado 718616" d="M250.7,188.786s11.673.127,17.621,8.7,5.738,22.364.371,31.5-17.174-2.536-17.174-2.536Z" transform="translate(85.328 65.753)" fill="#01d8d1"/>
    <path id="Trazado_718617" data-name="Trazado 718617" d="M250.7,188.786s13.05,6.019,14.136,21.428-6.531,21.014-6.531,21.014-6.068,2.359-6.613-.4S257.552,215.127,250.7,188.786Z" transform="translate(85.328 65.753)" fill="#00aca7"/>
    <path id="Trazado_718618" data-name="Trazado 718618" d="M248.361,231.194s-6.913-14.622-2.546-29.425,5.253-13.139,6.866-13.174c2.358-.051,7.048,14.784,6.268,28.526s-4.207,14.787-4.207,14.787Z" transform="translate(82.662 65.656)" fill="#01d8d1"/>
    <path id="Trazado_718619" data-name="Trazado 718619" d="M247.237,195.128l2.436,3.789c.291.412.432.576.762.574.313,0,.489-.081.85-.478l2.469-3.886-2.7,3.158-.289-7.121-.684,6.943Z" transform="translate(83.87 69.473)" fill="#fff"/>
    <path id="Trazado_718620" data-name="Trazado 718620" d="M247.237,203.531l2.436,3.789c.291.412.432.576.762.574.313,0,.489-.081.85-.478l2.469-3.886-2.7,3.158-.289-7.121-.684,6.943Z" transform="translate(83.87 70.296)" fill="#fff"/>
    <path id="Trazado_718621" data-name="Trazado 718621" d="M247.616,212.51l2.438,3.789c.291.411.432.574.762.573.311,0,.489-.081.85-.478l2.467-3.884-2.7,3.157-.289-7.121-.685,6.943Z" transform="translate(84.03 74.078)" fill="#fff"/>
    <path id="Trazado_718622" data-name="Trazado 718622" d="M254.764,188.909l1.619,4.193c.2.461.307.65.63.714.306.061.495.017.93-.3l3.206-3.319-3.289,2.561,1.163-7.034-2.079,6.669Z" transform="translate(87.041 67.494)" fill="#fff"/>
    <path id="Trazado_718623" data-name="Trazado 718623" d="M261.008,194.024l1.619,4.193c.2.459.307.648.63.712.306.061.495.017.93-.3l3.206-3.319L264.1,197.87l1.163-7.033-2.079,6.667Z" transform="translate(89.672 69.36)" fill="#fff"/>
    <path id="Trazado_718624" data-name="Trazado 718624" d="M255.6,195.45l1.619,4.193c.2.46.307.648.63.713.306.061.495.017.928-.3l3.208-3.319L258.7,199.3l1.163-7.034-2.081,6.669Z" transform="translate(87.395 69.88)" fill="#fff"/>
    <path id="Trazado_718625" data-name="Trazado 718625" d="M263.632,202.435l1.619,4.193c.2.461.307.648.63.712.306.061.495.017.928-.3l3.208-3.319-3.289,2.56,1.163-7.033-2.081,6.669Z" transform="translate(90.777 70.161)" fill="#fff"/>
    <path id="Trazado_718626" data-name="Trazado 718626" d="M258.58,206.5l.9,4.4c.122.488.195.689.5.806.291.111.485.1.966-.145l3.718-2.753-3.673,1.991,2.322-6.748-3.165,6.238Z" transform="translate(88.649 72.183)" fill="#fff"/>
    <path id="Trazado_718627" data-name="Trazado 718627" d="M262.539,212.436l1.619,4.193c.2.461.307.65.63.714.306.061.495.017.93-.3l3.206-3.319-3.289,2.561,1.163-7.033-2.079,6.667Z" transform="translate(90.317 74.375)" fill="#fff"/>
    <path id="Trazado_718628" data-name="Trazado 718628" d="M244.847,189.615l-1.293,4.3c-.166.475-.257.669-.574.758-.3.084-.492.054-.949-.232l-3.451-3.07,3.475,2.308-1.7-6.927,2.584,6.5Z" transform="translate(80.222 67.875)" fill="#fff"/>
    <path id="Trazado_718629" data-name="Trazado 718629" d="M239.012,195.179l-1.293,4.3c-.166.473-.256.669-.574.758-.3.084-.492.053-.949-.232l-3.451-3.071,3.475,2.31-1.7-6.927,2.584,6.494Z" transform="translate(81.821 69.905)" fill="#fff"/>
    <path id="Trazado_718630" data-name="Trazado 718630" d="M244.825,197.979l-1.293,4.3c-.166.475-.257.669-.574.758-.3.084-.492.054-.949-.232l-3.451-3.07,3.475,2.308-1.7-6.927,2.585,6.5Z" transform="translate(80.213 70.926)" fill="#fff"/>
    <path id="Trazado_718631" data-name="Trazado 718631" d="M243.838,207.249l-1.293,4.3c-.166.475-.256.671-.574.759-.3.084-.492.053-.949-.232l-3.451-3.071,3.475,2.308-1.7-6.926,2.584,6.494Z" transform="translate(79.797 72.326)" fill="#fff"/>
    <path id="Trazado_718632" data-name="Trazado 718632" d="M237.04,203.761l-1.293,4.3c-.166.475-.257.669-.574.758-.3.084-.492.054-.949-.232l-3.451-3.07,3.475,2.308-1.7-6.926,2.584,6.494Z" transform="translate(81.125 70.857)" fill="#fff"/>
    <path id="Trazado_718633" data-name="Trazado 718633" d="M238.629,213.092l-.564,4.45c-.087.5-.144.7-.441.84s-.478.132-.975-.075l-3.913-2.474,3.811,1.718-2.82-6.562,3.623,5.992Z" transform="translate(81.832 75.107)" fill="#fff"/>
    <path id="Trazado_718634" data-name="Trazado 718634" d="M251,194.917s-4.606-.354-6.109-3.388-2.148-6.845-1.36-6.352,6.156,3.838,6.656,4.848,1-7.247,2.506-9.082,2.764,8.713,2.492,9.156,4.022-4.921,5.525-6.051S260.755,195.268,251,194.917Z" transform="translate(82.165 65.487)" fill="#00aca7"/>
    <path id="Trazado_718635" data-name="Trazado 718635" d="M132.99,58.742a28.873,28.873,0,1,0-28.874-28.873A28.873,28.873,0,0,0,132.99,58.742Z" transform="translate(35.457 0.127)" fill="#00aca7"/>
    <path id="Trazado_718636" data-name="Trazado 718636" d="M131.754,53.338a24.7,24.7,0,1,0-24.705-24.7A24.7,24.7,0,0,0,131.754,53.338Z" transform="translate(36.65 1.363)" fill="#feffff"/>
    <path id="Trazado_718637" data-name="Trazado 718637" d="M125.406,4.429H123.9v5.857h1.505Z" transform="translate(43.539 1.574)" fill="#00aca7"/>
    <path id="Trazado_718638" data-name="Trazado 718638" d="M125.406,34.254H123.9v5.3h1.505Z" transform="translate(43.539 14.139)" fill="#00aca7"/>
    <path id="Trazado_718639" data-name="Trazado 718639" d="M107.655,20.676v1.5h5.751v-1.5Z" transform="translate(37.724 8.419)" fill="#00aca7"/>
    <path id="Trazado_718640" data-name="Trazado 718640" d="M137.577,20.676v1.5h5.159v-1.5Z" transform="translate(48.29 8.419)" fill="#00aca7"/>
    <path id="Trazado_718641" data-name="Trazado 718641" d="M116.5,13.157l-.847,1.263-4.021-3.633,1.009-1.117Z" transform="translate(39.141 3.782)" fill="#00aca7"/>
    <path id="Trazado_718642" data-name="Trazado 718642" d="M138.64,33.135l-1.009,1.116L133.9,30.877l1.116-1.019Z" transform="translate(47.001 12.287)" fill="#00aca7"/>
    <path id="Trazado_718643" data-name="Trazado 718643" d="M132.973,12.475l.9,1.226,3.938-3.778-1.04-1.086Z" transform="translate(46.673 3.431)" fill="#00aca7"/>
    <path id="Trazado_718644" data-name="Trazado 718644" d="M111.428,33.178l1.042,1.086,3.975-3.814-1.093-1.035Z" transform="translate(39.068 12.1)" fill="#00aca7"/>
    <path id="Trazado_718645" data-name="Trazado 718645" d="M123.9,26.394h1.505V10.548H123.9Z" transform="translate(43.54 4.152)" fill="#00aca7"/>
    <path id="Trazado_718646" data-name="Trazado 718646" d="M134.048,20.676H123.9v1.5h10.147Z" transform="translate(43.363 8.419)" fill="#00aca7"/>
    <path id="Trazado_718647" data-name="Trazado 718647" d="M257.111,174.942l-.023-2.7,5.407-.044.023,2.7Zm9.011-.074-.023-2.7,5.407-.044.023,2.7Zm9.01-.074-.023-2.7,5.407-.044.023,2.7Zm9.194-.162-.4-2.673a6.06,6.06,0,0,0,3.766-2.125l2.079,1.73A8.781,8.781,0,0,1,284.326,174.632Zm7.283-6.866-2.646-.556a6.04,6.04,0,0,0,.131-1.252v-3.866h2.7v3.866A8.85,8.85,0,0,1,291.609,167.765Zm.188-9.278h-2.7v-5.407h2.7Zm0-9.011h-2.7v-5.407h2.7Zm0-9.011h-2.7v-5.407h2.7Zm0-9.011h-2.7v-5.407h2.7Zm0-9.011h-2.7v-5.407h2.7Zm0-9.011h-2.7v-5.407h2.7Zm0-9.011h-2.7V99.014h2.7Zm0-9.011h-2.7V90h2.7Zm0-9.011h-2.7V80.992h2.7Zm0-9.011h-2.7V71.98h2.7Zm-2.872-8.647a5.153,5.153,0,0,0-2.6-3.245l1.248-2.4a7.855,7.855,0,0,1,3.964,4.953Zm-5.462-3.822h-5.407v-2.7h5.407Zm-9.011,0h-5.407v-2.7h5.407Z" transform="translate(88.02 20.891)" fill="#01d8d1"/>
    <path id="Trazado_718648" data-name="Trazado 718648" d="M400.691,229.477H.692v3.441h400Z" transform="translate(0 82.896)" fill="#003759"/>
    <path id="Trazado_718649" data-name="Trazado 718649" d="M272.119,257.194H239.378L235.262,216.3h41.062Z" transform="translate(78.825 77.346)" fill="#01d8d1"/>
    <path id="Trazado_718650" data-name="Trazado 718650" d="M118.648,49.071c0-11.705-15.234-21.194-34.028-21.194S50.593,37.365,50.593,49.071,65.827,70.265,84.62,70.265a53.49,53.49,0,0,0,9.438-.833l-.029.009,11.437,6.979L104.8,66.138l-.021.006C113.188,62.285,118.648,56.077,118.648,49.071Z" transform="translate(16.993 11.452)" fill="#feffff"/>
    <path id="Trazado_718651" data-name="Trazado 718651" d="M64.639,57.923H94.4a1.934,1.934,0,0,0,1.935-1.935V36.509A1.934,1.934,0,0,0,94.4,34.574H64.639A1.934,1.934,0,0,0,62.7,36.509V55.988A1.934,1.934,0,0,0,64.639,57.923Z" transform="translate(21.563 14.274)" fill="#00aca7"/>
    <path id="Trazado_718652" data-name="Trazado 718652" d="M79.766,45.911,95.148,35.828c.686-.477-.942-1.253-1.778-1.253H65.188c-.835,0-2.437.721-1.75,1.2L78.792,45.911A.851.851,0,0,0,79.766,45.911Z" transform="translate(21.779 14.274)" fill="#01d8d1"/>
    <path id="Trazado_718653" data-name="Trazado 718653" d="M67.7,254.784H34.964l-4.116-46.919H71.909Z" transform="translate(12.705 73.791)" fill="#01d8d1"/>
    <path id="Trazado_718654" data-name="Trazado 718654" d="M43.616,238.619H32.9a6.8,6.8,0,0,1-6.747-5.984l-1.1-9.128a6.465,6.465,0,0,1,6.419-7.237h7.542v2.7H31.472a3.762,3.762,0,0,0-3.734,4.211l1.1,9.128a4.1,4.1,0,0,0,4.063,3.6H43.617Z" transform="translate(10.244 77.332)" fill="#01d8d1"/>
    <path id="Trazado_718655" data-name="Trazado 718655" d="M284.256,55.944H204.347v52.214h79.909Z" transform="translate(65.8 19.688)" fill="#feffff"/>
    <path id="Trazado_718656" data-name="Trazado 718656" d="M284.256,46.659H204.347v13.2h79.909Z" transform="translate(65.8 16.728)" fill="#00aca7"/>
    <path id="Trazado_718657" data-name="Trazado 718657" d="M216.751,42.017h-3.873v13.2h3.873Z" transform="translate(74.9 15.038)" fill="#00817d"/>
    <path id="Trazado_718658" data-name="Trazado 718658" d="M228.559,42.017h-3.872v13.2h3.872Z" transform="translate(79.069 15.038)" fill="#00817d"/>
    <path id="Trazado_718659" data-name="Trazado 718659" d="M240.368,42.017h-3.873v13.2h3.873Z" transform="translate(83.237 15.038)" fill="#00817d"/>
    <path id="Trazado_718660" data-name="Trazado 718660" d="M252.176,42.017H248.3v13.2h3.873Z" transform="translate(84.319 15.038)" fill="#00817d"/>
    <path id="Trazado_718661" data-name="Trazado 718661" d="M223.262,62.558H209.851V75.97h13.411Z" transform="translate(73.496 22.511)" fill="#b6b6ef"/>
    <path id="Trazado_718662" data-name="Trazado 718662" d="M235.072,62.558H221.659V75.97h13.413Z" transform="translate(77.645 22.511)" fill="#b6b6ef"/>
    <path id="Trazado_718663" data-name="Trazado 718663" d="M246.878,62.558H233.467V75.97h13.411Z" transform="translate(81.795 22.511)" fill="#00aca7"/>
    <path id="Trazado_718664" data-name="Trazado 718664" d="M258.686,62.558H245.275V75.97h13.411Z" transform="translate(83.044 22.511)" fill="#b6b6ef"/>
    <path id="Trazado_718665" data-name="Trazado 718665" d="M223.262,74.366H209.851V87.779h13.411Z" transform="translate(73.496 26.808)" fill="#b6b6ef"/>
    <path id="Trazado_718666" data-name="Trazado 718666" d="M235.072,74.366H221.659V87.779h13.413Z" transform="translate(77.645 26.808)" fill="#b6b6ef"/>
    <path id="Trazado_718667" data-name="Trazado 718667" d="M246.878,74.366H233.467V87.779h13.411Z" transform="translate(81.795 26.808)" fill="#b6b6ef"/>
    <path id="Trazado_718668" data-name="Trazado 718668" d="M258.686,74.366H245.275V87.779h13.411Z" transform="translate(83.044 26.808)" fill="#b6b6ef"/>
    <path id="Trazado_718669" data-name="Trazado 718669" d="M157.311,24.285,182.542,8.4l25.231,15.882" transform="translate(53.936 3.248)" fill="#003759"/>
    <path id="Trazado_718670" data-name="Trazado 718670" d="M157.311,19.577l25.231,15.882,25.231-15.882" transform="translate(53.936 7.956)" fill="#003759"/>
    <path id="Trazado_718671" data-name="Trazado 718671" d="M201.154.694H160.9V52.658h40.25Z" transform="translate(55.505)" fill="#b6b6ef"/>
    <path id="Trazado_718672" data-name="Trazado 718672" d="M177.775,3.23H163.207v7.959h14.568Z" transform="translate(57.074 1.068)" fill="#00aca7"/>
    <path id="Trazado_718673" data-name="Trazado 718673" d="M196.548,11.762H163.207v1.889h33.341Z" transform="translate(56.52 4.663)" fill="#00aca7"/>
    <path id="Trazado_718674" data-name="Trazado 718674" d="M196.675,15.971H163.334V17.86h33.341Z" transform="translate(56.565 6.437)" fill="#00aca7"/>
    <path id="Trazado_718675" data-name="Trazado 718675" d="M196.8,20.181H163.462V22.07H196.8Z" transform="translate(56.609 8.21)" fill="#00aca7"/>
    <path id="Trazado_718676" data-name="Trazado 718676" d="M182.542,35.46,157.311,19.577V51.341h50.462V19.577Z" transform="translate(53.936 7.956)" fill="#01d8d1"/>
    <path id="Trazado_718677" data-name="Trazado 718677" d="M157.311,46.634l25.231-15.882,25.231,15.882" transform="translate(53.936 12.664)" fill="#00aca7"/>
    <path id="Trazado_718678" data-name="Trazado 718678" d="M101.769,93.178a23.649,23.649,0,1,0,23.649,23.648A23.649,23.649,0,0,0,101.769,93.178Zm0,36.324a12.674,12.674,0,1,1,12.674-12.674A12.674,12.674,0,0,1,101.769,129.5Z" transform="translate(26.715 33.054)" fill="#00aca7"/>
    <path id="Trazado_718679" data-name="Trazado 718679" d="M89.156,115.13a12.684,12.684,0,0,1,7.6-10.364v0L93.707,94.171A23.653,23.653,0,0,0,78.13,115.886Z" transform="translate(27.14 33.878)" fill="#00aca7"/>
    <path id="Trazado_718680" data-name="Trazado 718680" d="M110.829,100.048l-8.782,6.582,0,.007A12.6,12.6,0,0,1,103.684,118l10.344,3.691a23.633,23.633,0,0,0-3.2-21.647Z" transform="translate(35.616 36.009)" fill="#b6b6ef"/>
    <path id="Trazado_718681" data-name="Trazado 718681" d="M207.553,146.79a3.2,3.2,0,1,0-3.2-3.2A3.2,3.2,0,0,0,207.553,146.79Z" transform="translate(71.804 50.996)" fill="#01d8d1"/>
    <path id="Trazado_718682" data-name="Trazado 718682" d="M190.821,73.72a3.2,3.2,0,1,0-3.2-3.2A3.2,3.2,0,0,0,190.821,73.72Z" transform="translate(65.905 24.32)" fill="#01d8d1"/>
    <path id="Trazado_718683" data-name="Trazado 718683" d="M265.736,115.274a3.2,3.2,0,1,0-3.2-3.2A3.2,3.2,0,0,0,265.736,115.274Z" transform="translate(90.314 39.49)" fill="#01d8d1"/>
    <path id="Trazado_718684" data-name="Trazado 718684" d="M279.081,218.906a3.2,3.2,0,1,0-3.2-3.2A3.2,3.2,0,0,0,279.081,218.906Z" transform="translate(95.936 75.743)" fill="#01d8d1"/>
    <path id="Trazado_718685" data-name="Trazado 718685" d="M22.182,200.23a3.2,3.2,0,1,0-3.2-3.2A3.2,3.2,0,0,0,22.182,200.23Z" transform="translate(7.704 70.504)" fill="#01d8d1"/>
    <path id="Trazado_718686" data-name="Trazado 718686" d="M85.634,148.933a3.2,3.2,0,1,0-3.2-3.2A3.2,3.2,0,0,0,85.634,148.933Z" transform="translate(28.819 51.778)" fill="#01d8d1"/>
    <path id="Trazado_718687" data-name="Trazado 718687" d="M258.8,30.752a3.2,3.2,0,1,0-3.2-3.2A3.2,3.2,0,0,0,258.8,30.752Z" transform="translate(87.391 9.964)" fill="#01d8d1"/>
    <path id="Trazado_718688" data-name="Trazado 718688" d="M75.188,22.577A2.176,2.176,0,1,0,73.012,20.4,2.176,2.176,0,0,0,75.188,22.577Z" transform="translate(25.523 7.386)" fill="#01d8d1"/>
    <path id="Trazado_718689" data-name="Trazado 718689" d="M275.582,44.446a2.176,2.176,0,1,0-2.176-2.176A2.176,2.176,0,0,0,275.582,44.446Z" transform="translate(94.895 16.6)" fill="#01d8d1"/>
    <path id="Trazado_718690" data-name="Trazado 718690" d="M274.051,23.744a2.176,2.176,0,1,0-2.176-2.176A2.176,2.176,0,0,0,274.051,23.744Z" transform="translate(94.25 7.878)" fill="#01d8d1"/>
    <path id="Trazado_718691" data-name="Trazado 718691" d="M99.424,81.05a3.2,3.2,0,1,0-3.2-3.2A3.2,3.2,0,0,0,99.424,81.05Z" transform="translate(33.681 26.996)" fill="#01d8d1"/>
    <path id="Trazado_718692" data-name="Trazado 718692" d="M91.807,19.728a3.2,3.2,0,1,0-3.2-3.2A3.2,3.2,0,0,0,91.807,19.728Z" transform="translate(30.995 5.32)" fill="#01d8d1"/>
    <path id="Trazado_718693" data-name="Trazado 718693" d="M19.928,152.477a3.2,3.2,0,1,0-3.2-3.2A3.2,3.2,0,0,0,19.928,152.477Z" transform="translate(6.754 53.071)" fill="#01d8d1"/>
    <path id="Trazado_718694" data-name="Trazado 718694" d="M28.181,85.877h-2.7V80.47h2.7Zm0-9.011h-2.7V71.459h2.7Zm0-9.011h-2.7V62.448h2.7Zm0-9.011h-2.7V53.437h2.7Zm0-9.011h-2.7v-.167a9.014,9.014,0,0,1,2.031-5.693L29.6,45.685a6.3,6.3,0,0,0-1.42,3.981Zm3.759-5.927-1.088-2.475a8.937,8.937,0,0,1,3.616-.757h2.245v2.7H34.469A6.245,6.245,0,0,0,31.94,43.905Zm22.8-.528H49.329v-2.7h5.407Zm-9.011,0H40.318v-2.7h5.407Z" transform="translate(10.442 14.306)" fill="#01d8d1"/>
    <path id="Trazado_718695" data-name="Trazado 718695" d="M264.677,52.274l-2.7-.022.044-5.407,2.7.022Zm.072-9.011-2.7-.022.044-5.407,2.7.022Zm.073-9.01-2.7-.022.044-5.407,2.7.022Zm.073-9.011-2.7-.022.044-5.407,2.7.022Zm.074-9.011-2.7-.021.018-2.555a8.783,8.783,0,0,0-.327-2.435l2.6-.74a11.36,11.36,0,0,1,.431,3.1ZM260.58,8.445a8.614,8.614,0,0,0-3.647-2.829l1.023-2.5a11.341,11.341,0,0,1,4.793,3.715ZM253.9,4.985l-.219,0h-5.152v-2.7l5.441,0Zm-8.976,0h-5.407v-2.7h5.407Zm-9.011,0h-5.407v-2.7h5.407Zm-9.011,0H221.5v-2.7H226.9Zm-9.011,0h-5.407v-2.7h5.407Zm-9.011,0h-5.407v-2.7h5.407Zm-9.011,0h-5.407v-2.7h5.407Z" transform="translate(65.875 0.668)" fill="#01d8d1"/>
    <path id="Trazado_718696" data-name="Trazado 718696" d="M142.178,130.107a33.181,33.181,0,0,1-3.437-2.03c-.081,5.748-1.129,12.354-4.9,16.341-4.292,4.535,7.459,10.823,20.73,8.866s20.05-4.413,20.05-4.413-7.361-5.731-7.679-19.985q-.633.4-1.288.777A24.758,24.758,0,0,1,142.178,130.107Z" transform="translate(45.779 46.076)" fill="#e29b8d"/>
    <path id="Trazado_718697" data-name="Trazado 718697" d="M205.376,115.7c-1.292-4.464-6.187-2.192-6.187-2.192,1.409-15.272-.861-58.424-43.152-55.37s-35.163,55.526-35.163,55.526c-5.424-2.663-8.592,3.214-4.754,13,3.5,8.927,11.254,7.36,11.254,7.36a55.691,55.691,0,0,0,19.166,23.578,32.922,32.922,0,0,0,3.437,2.03,24.751,24.751,0,0,0,23.473-.443q.655-.377,1.288-.776c13.744-8.654,19.6-24.7,19.6-24.7C204.046,136.221,206.668,120.165,205.376,115.7Z" transform="translate(38.083 19.615)" fill="#eab2a5"/>
    <path id="Trazado_718698" data-name="Trazado 718698" d="M178.27,99.245c.252.287-.993-1.513-2.355-.585s-1.949,4.271-1.144,5.384,1.8,3.592.063,4.706-1.234,1.671-1.234,1.671A4.592,4.592,0,0,1,175.607,109c1.269-.432,1.275-2.654,0-4.395S176.1,96.767,178.27,99.245Z" transform="translate(60.986 35.574)" fill="#bc6262"/>
    <path id="Trazado_718699" data-name="Trazado 718699" d="M116.394,99.47c-.219.313.824-1.611,2.28-.834s2.4,4.035,1.717,5.23-1.4,3.764.445,4.685,1.4,1.529,1.4,1.529a4.581,4.581,0,0,0-2.148-1.2c-1.309-.294-1.553-2.5-.473-4.371S118.288,96.772,116.394,99.47Z" transform="translate(40.792 35.601)" fill="#bc6262"/>
    <path id="Trazado_718700" data-name="Trazado 718700" d="M143.383,108.766s.7,2.99,4.5,2.99c4.375,0,5.283-2.99,5.283-2.99a7.105,7.105,0,0,1-5.263,1.919A7.7,7.7,0,0,1,143.383,108.766Z" transform="translate(50.228 39.513)" fill="#bc6262"/>
    <path id="Trazado_718701" data-name="Trazado 718701" d="M133.175,112.222c2.342,0,4.241-1.491,4.241-3.33s-1.9-3.33-4.241-3.33-4.241,1.491-4.241,3.33S130.833,112.222,133.175,112.222Z" transform="translate(45.17 38.279)" fill="#e29f91"/>
    <path id="Trazado_718702" data-name="Trazado 718702" d="M129.5,96.75a3.775,3.775,0,0,1,2.175-2.326,17.606,17.606,0,0,1,3.924-.992c5.581-.819,6.764,2.109,5.525,3.212s-2.031-.236-5.546.405C132.4,97.629,128.641,99.315,129.5,96.75Z" transform="translate(45.245 33.827)" fill="#003759"/>
    <path id="Trazado_718703" data-name="Trazado 718703" d="M135.308,105.824a3.7,3.7,0,1,0-3.7-3.7A3.7,3.7,0,0,0,135.308,105.824Z" transform="translate(46.135 35.659)" fill="#003759"/>
    <path id="Trazado_718704" data-name="Trazado 718704" d="M162.807,112.222c2.342,0,4.243-1.491,4.243-3.33s-1.9-3.33-4.243-3.33-4.241,1.491-4.241,3.33S160.465,112.222,162.807,112.222Z" transform="translate(55.607 38.279)" fill="#e29f91"/>
    <path id="Trazado_718705" data-name="Trazado 718705" d="M167.581,96.75a3.775,3.775,0,0,0-2.175-2.326,17.606,17.606,0,0,0-3.924-.992c-5.581-.819-6.763,2.109-5.525,3.212s2.031-.236,5.547.405C164.678,97.629,168.442,99.315,167.581,96.75Z" transform="translate(54.434 33.827)" fill="#003759"/>
    <path id="Trazado_718706" data-name="Trazado 718706" d="M160.355,105.824a3.7,3.7,0,1,0-3.7-3.7A3.7,3.7,0,0,0,160.355,105.824Z" transform="translate(54.962 35.659)" fill="#003759"/>
    <path id="Trazado_718707" data-name="Trazado 718707" d="M142.089,118.526c3.378,4.322,10.738,4.476,13.853-.229.8-1.212-1.147-2.341-1.944-1.137-2.376,3.586-7.89,2.877-10.316-.227C142.791,115.792,141.207,117.4,142.089,118.526Z" transform="translate(49.573 42.313)" fill="#003759"/>
    <path id="Trazado_718708" data-name="Trazado 718708" d="M137.478,115.87c7.48,0,13.545-5.732,13.545-12.8s-6.065-12.8-13.545-12.8-13.545,5.732-13.545,12.8S130,115.87,137.478,115.87Z" transform="translate(43.006 32.398)" fill="#feffff" opacity="0.2"/>
    <path id="Trazado_718709" data-name="Trazado 718709" d="M163.252,115.751c7.48,0,13.545-5.732,13.545-12.8s-6.065-12.8-13.545-12.8-13.545,5.732-13.545,12.8S155.77,115.751,163.252,115.751Z" transform="translate(52 32.355)" fill="#feffff" opacity="0.2"/>
    <path id="Trazado_718710" data-name="Trazado 718710" d="M137.734,117.624a14.2,14.2,0,1,1,14.543-14.2A14.39,14.39,0,0,1,137.734,117.624Zm0-26.531a12.335,12.335,0,1,0,12.671,12.33A12.518,12.518,0,0,0,137.734,91.093Z" transform="translate(42.702 31.975)" fill="#005d95"/>
    <path id="Trazado_718711" data-name="Trazado 718711" d="M163.548,117.624a14.2,14.2,0,1,1,14.541-14.2A14.391,14.391,0,0,1,163.548,117.624Zm0-26.53a12.334,12.334,0,1,0,12.671,12.33A12.519,12.519,0,0,0,163.548,91.094Z" transform="translate(51.7 31.975)" fill="#005d95"/>
    <path id="Trazado_718712" data-name="Trazado 718712" d="M152.156,98.337h-9.163v1.871h9.163Z" transform="translate(50.106 35.718)" fill="#005d95"/>
    <path id="Trazado_718713" data-name="Trazado 718713" d="M200.589,80c0-.019,0-.037-.007-.056-.463-4.279-1.242-8.193-2.556-10.512-1.748-3.084-5.277-5.389-9.311-7.077a7.756,7.756,0,0,0-2.446-3.858c-20.289-17.436-49.722,7.331-62.661,2.509a7.371,7.371,0,0,0-9.905,5.277c-1.46,6.924-1.36,15.432,5.294,21.016.122.1.246.2.368.3-.084.843-.149,1.7-.189,2.58a154.846,154.846,0,0,0,.789,25.376,6.269,6.269,0,0,1,2.392,1.333c.327,2.107,1.625,9.865,3.052,9.9,1.6.044,2.772-7.067,1.659-13.705.446-5.491,1.49-14.356,3.745-19.069,6.417,1.954,14.512,2.064,26.965.329a36.881,36.881,0,0,0,14.742-5.681c9.366-.111,15.09,2.036,17.206,4.395,1.936,2.159,2.837,5.634,3.255,8.285a81.761,81.761,0,0,1,.48,14.215,33.819,33.819,0,0,0-.341,5.035l-.006.055.006,0c.04,4.015.822,7.131,1.879,7.131,1.652,0,3.418-10.34,3.418-10.34.077-.22.141-.437.2-.652l1.2-.843S203.5,101.926,200.589,80Z" transform="translate(37.659 18.064)" fill="#003759"/>
    <path id="Trazado_718714" data-name="Trazado 718714" d="M219.348,197.458l1.86,2.538s3.907,2.457,11.446-.8,14.31-18.318,16.1-23.842,1.4-7.971,2.529-12.182-3.84-14.126-6.4-20.423-7.207-5.5-9.167-5.088-9.241,22.5-10.412,24.526S215.919,182.132,219.348,197.458Z" transform="translate(75.774 48.355)" fill="#eab2a5"/>
    <path id="Trazado_718715" data-name="Trazado 718715" d="M255.608,195.643l-41.521-9.021a2.178,2.178,0,0,1-1.664-2.591L227.3,115.559a2.177,2.177,0,0,1,2.591-1.664l41.519,9.021a2.178,2.178,0,0,1,1.664,2.591L258.2,193.978A2.178,2.178,0,0,1,255.608,195.643Z" transform="translate(69.182 39.499)" fill="#003759"/>
    <path id="Trazado_718716" data-name="Trazado 718716" d="M254.568,184.98l-38-8.256a1.08,1.08,0,0,1-.826-1.285l12.625-58.1a1.08,1.08,0,0,1,1.285-.826l38,8.258a1.077,1.077,0,0,1,.824,1.283l-12.625,58.1A1.079,1.079,0,0,1,254.568,184.98Z" transform="translate(70.592 40.82)" fill="#fff"/>
    <path id="Trazado_718717" data-name="Trazado 718717" d="M232.019,166.115a2.384,2.384,0,1,0-2.807,1.71A2.327,2.327,0,0,0,232.019,166.115Z" transform="translate(79.964 59.424)" fill="#fff"/>
    <path id="Trazado_718718" data-name="Trazado 718718" d="M261.543,130.944l-35.752-7.767-3.168,14.578,35.752,7.767Z" transform="translate(76.946 44.376)" fill="#b6b6ef"/>
    <path id="Trazado_718719" data-name="Trazado 718719" d="M256.5,154.145l-35.753-7.767-3.167,14.578,35.752,7.767Z" transform="translate(75.198 52.782)" fill="#b6b6ef"/>
    <path id="Trazado_718720" data-name="Trazado 718720" d="M257.986,143.42l-35.752-7.766-.462,2.125,35.752,7.766Z" transform="translate(76.767 49.19)" fill="#b6b6ef"/>
    <path id="Trazado_718721" data-name="Trazado 718721" d="M261.347,127.944,225.6,120.177l-.462,2.125,35.752,7.767Z" transform="translate(77.934 43.549)" fill="#b6b6ef"/>
    <path id="Trazado_718722" data-name="Trazado 718722" d="M257.5,145.634l-35.752-7.767-.462,2.125,35.752,7.767Z" transform="translate(76.6 49.997)" fill="#b6b6ef"/>
    <path id="Trazado_718723" data-name="Trazado 718723" d="M257.023,147.848l-35.752-7.767-.462,2.125,35.753,7.767Z" transform="translate(76.433 50.804)" fill="#b6b6ef"/>
    <path id="Trazado_718724" data-name="Trazado 718724" d="M256.542,150.061l-35.752-7.767-.462,2.125,35.753,7.767Z" transform="translate(76.266 51.611)" fill="#b6b6ef"/>
    <path id="Trazado_718725" data-name="Trazado 718725" d="M217.886,191s-2.337-15.283-2.493-17.6,1.728-8.134,1.956-10.921,3.911-2.715,7.7-9.743c1.443-2.673,5.053,1.407,2.828,5.577s-4.4,7.006-2.665,9.381,4.689,4.554,5.709,9.7S225.777,200.905,217.886,191Z" transform="translate(75.357 54.202)" fill="#eab2a5"/>
    <path id="Trazado_718726" data-name="Trazado 718726" d="M178.891,195.94s17.33,49.281,21.217,59,11.028,8.666,16.763,7.232c10.69-2.672,33.7-69.911,35.888-75.985,0,0-16.069-1.644-20.927-6.019,0,0-12.6,22.538-13.906,23.267s-7.841-36.772-7.841-36.772S174.949,165.615,178.891,195.94Z" transform="translate(60.324 56.43)" fill="#005d95"/>
    <path id="Trazado_718727" data-name="Trazado 718727" d="M212.687,189.971s-6,10.118-10.7,18.7A43.735,43.735,0,0,0,196.8,225.2s-.09-14.729,11.942-35.223c0,0,.78,2.995,1.34,3.233S212.687,189.971,212.687,189.971Z" transform="translate(68.828 66.252)" fill="#003759"/>
    <path id="Trazado_718728" data-name="Trazado 718728" d="M217.6,175.247l-3.643,5.6s.3,3.766,9.233,6.377,13.073,1.542,13.073,1.542l2.111-7.433S225.31,181.13,217.6,175.247Z" transform="translate(74.524 63.507)" fill="#4f5faf"/>
    <path id="Trazado_718729" data-name="Trazado 718729" d="M258.5,198.581c-1.458-6.609-2.477-40.362-17.9-47.249-17.13-7.649-41.943-14.6-41.943-14.6-2.98,8.907-12.648,11.912-17.063,12.837,0,0-18.578-.07-21.432-12.041,0,0-27.272,5.631-41.182,13-9.987,5.294-40.763,46.148-42.8,52.6-1.51,4.78,4.878,16.493,8.795,23.766-8.668,11.113-14.61,18.915-14.61,18.915s7.993,1.323,17-6.487c6.067-5.257,25.952-25.151,38.3-37.589,1.441,24.714,4.007,65.293,5.394,66.807,3.154,3.44,71.5,2.453,89.52,0,0,0,4.277-34.114,6.792-61.5,4.562,13.939,11.287,34.36,11.852,36.6C239.624,245.234,260.325,206.842,258.5,198.581Zm-78.351-47.369c.02-.023.044-.047.064-.068.013.018.03.038.044.057h0Z" transform="translate(20.806 43.824)" fill="#005d95"/>
    <path id="Trazado_718730" data-name="Trazado 718730" d="M137.972,133.509l-5.023,5.782s4.1,13.583,18.146,13.583c14.375,0,19.873-10,21.193-14.6l-4.7-5.2s-4.173,10.188-14.509,10.445C142.6,143.783,137.972,133.509,137.972,133.509Z" transform="translate(45.844 48.023)" fill="#4f5faf"/>
    <path id="Trazado_718731" data-name="Trazado 718731" d="M180.584,199.056s2.281-23.24,6.983-29.657C187.567,169.4,177.934,175.636,180.584,199.056Z" transform="translate(63.231 60.893)" fill="#003759"/>
    <path id="Trazado_718732" data-name="Trazado 718732" d="M112,188.8s-2.2-17.727-6.9-24.142C105.094,164.658,111.621,166.7,112,188.8Z" transform="translate(36.801 59.351)" fill="#003759"/>
    <path id="Trazado_718733" data-name="Trazado 718733" d="M70.478,166.467l-2.123,2.325s-4.149,2.021-11.293-2.03S44.81,147.01,43.626,141.324s-.529-8.074-1.2-12.384,5.341-13.629,8.561-19.614,7.758-4.692,9.663-4.071,6.762,23.368,7.708,25.505S75.539,151.6,70.478,166.467Z" transform="translate(17.56 36.762)" fill="#eab2a5"/>
    <path id="Trazado_718734" data-name="Trazado 718734" d="M50.8,68.791,34.279,71.738l.277,1.552,16.523-2.947Z" transform="translate(14.15 24.881)" fill="#00aca7"/>
    <path id="Trazado_718735" data-name="Trazado 718735" d="M35.869,70.665l-1.59.284.87,4.879,1.59-.284Z" transform="translate(14.151 25.558)" fill="#00aca7"/>
    <path id="Trazado_718736" data-name="Trazado 718736" d="M46.376,68.79l-1.59.284.87,4.879,1.59-.284Z" transform="translate(18.577 24.873)" fill="#00aca7"/>
    <path id="Trazado_718737" data-name="Trazado 718737" d="M97.291,159.45l-61.645,11a2.33,2.33,0,0,1-2.7-1.885L17.871,84.055a2.33,2.33,0,0,1,1.884-2.7l61.645-11a2.329,2.329,0,0,1,2.7,1.884l15.073,84.507A2.329,2.329,0,0,1,97.291,159.45Z" transform="translate(7.222 23.933)" fill="#00aca7"/>
    <path id="Trazado_718738" data-name="Trazado 718738" d="M92.994,154.709,36.427,164.8a1.907,1.907,0,0,1-2.211-1.542L20.423,85.929a1.906,1.906,0,0,1,1.542-2.211L78.532,73.628a1.906,1.906,0,0,1,2.211,1.542L94.536,152.5A1.905,1.905,0,0,1,92.994,154.709Z" transform="translate(8.3 25.257)" fill="#fff"/>
    <path id="Trazado_718739" data-name="Trazado 718739" d="M58.146,71.016,31.088,75.842l1.662,9.315,27.058-4.826Z" transform="translate(12.806 25.58)" fill="#00aca7"/>
    <path id="Trazado_718740" data-name="Trazado 718740" d="M36.877,87.2l-10.2,1.82,4.061,22.77,10.2-1.819Z" transform="translate(10.947 31.307)" fill="#b6b6ef"/>
    <path id="Trazado_718741" data-name="Trazado 718741" d="M46.284,89.389l-10.2,1.82,3.112,17.447,10.2-1.819Z" transform="translate(14.91 32.184)" fill="#b6b6ef"/>
    <path id="Trazado_718742" data-name="Trazado 718742" d="M55.356,89.7l-10.2,1.82,2.637,14.787,10.2-1.821Z" transform="translate(18.732 32.339)" fill="#b6b6ef"/>
    <path id="Trazado_718743" data-name="Trazado 718743" d="M64.855,92.409l-10.2,1.82,1.556,8.723,10.2-1.82Z" transform="translate(18.976 33.418)" fill="#b6b6ef"/>
    <path id="Trazado_718744" data-name="Trazado 718744" d="M77.7,102.5l-47.462,8.465L33.7,130.371l47.462-8.465Z" transform="translate(12.448 36.781)" fill="#b6b6ef"/>
    <path id="Trazado_718745" data-name="Trazado 718745" d="M80.609,118.806l-47.462,8.465L35.006,137.7l47.462-8.465Z" transform="translate(13.673 42.866)" fill="#b6b6ef"/>
    <path id="Trazado_718746" data-name="Trazado 718746" d="M67.624,159.921S71.595,144.977,72,142.693s-.841-8.272-.767-11.068-3.6-3.121-6.608-10.518c-1.145-2.811-5.174.856-3.412,5.24s3.618,7.439,1.639,9.614-5.153,4.022-6.722,9.025S58.712,168.915,67.624,159.921Z" transform="translate(19.338 42.812)" fill="#eab2a5"/>
    <path id="Trazado_718747" data-name="Trazado 718747" d="M50.593,147.66s11.836,71.752,17.243,84.818,18.392,15.769,37.014-8.191c20.949-26.954-.97,0-.97,0L89.913,200.038s-16.558-54.6-17.008-54.855S57.361,147.717,50.593,147.66Z" transform="translate(17.046 47.376)" fill="#005d95"/>
    <path id="Trazado_718748" data-name="Trazado 718748" d="M50.419,147.558,51.532,155s2.8,1.549,10.49.408c9.2-1.366,12.565-4.69,12.565-4.69l-2.254-7.415S61.327,147.915,50.419,147.558Z" transform="translate(17.379 51.916)" fill="#4f5faf"/>
    <path id="Trazado_718749" data-name="Trazado 718749" d="M76.853,179.659s4.624,22,4.474,31.914a81.56,81.56,0,0,0,0-18.434,85.891,85.891,0,0,0-3.349-15.2Z" transform="translate(26.87 63.841)" fill="#003759"/>
    <path id="Trazado_718750" data-name="Trazado 718750" d="M184.27,249.2l27.322-17.937-66.067.985Z" transform="translate(49.386 83.649)" fill="#032c45"/>
    <path id="Trazado_718751" data-name="Trazado 718751" d="M211.27,266.154H91.085l-9.646-75.13h119.4Z" transform="translate(26.108 66.696)" fill="#003759"/>
    <path id="Trazado_718752" data-name="Trazado 718752" d="M207.41,238.411H87.522l1,7.779H208.707Z" transform="translate(28.322 86.66)" fill="#003759"/>
    <path id="Trazado_718753" data-name="Trazado 718753" d="M126.726,224.733c5.736,0,10.385-3.5,10.385-7.81s-4.649-7.81-10.385-7.81-10.384,3.5-10.384,7.81S120.991,224.733,126.726,224.733Z" transform="translate(40.489 74.317)" fill="#b6b6ef"/>
    <path id="Trazado_718754" data-name="Trazado 718754" d="M166.6,191.024h-3.9l11.321,75.13h3.016Z" transform="translate(56.901 66.696)" fill="#032c45"/>
  </g>
</svg>
